<?xml version="1.0" encoding="UTF-8"?>
<!DOCTYPE xmeml>
<xmeml version="4">
   <sequence id="sequence-7" TL.SQAudioVisibleBase="0" TL.SQVideoVisibleBase="0" TL.SQVisibleBaseTime="3336240568253" TL.SQAVDividerPosition="0.5" TL.SQHideShyTracks="0" TL.SQHeaderWidth="236" Monitor.ProgramZoomOut="37261151928000" Monitor.ProgramZoomIn="0" TL.SQTimePerPixel="0.012243429641003688" MZ.EditLine="6335561232000" MZ.Sequence.PreviewFrameSizeHeight="1080" MZ.Sequence.PreviewFrameSizeWidth="1920" MZ.Sequence.AudioTimeDisplayFormat="200" MZ.Sequence.PreviewRenderingClassID="1297106761" MZ.Sequence.PreviewRenderingPresetCodec="1297107278" MZ.Sequence.PreviewRenderingPresetPath="EncoderPresets/SequencePreview/795454d9-d3c2-429d-9474-923ab13b7018/I-Frame Only MPEG.epr" MZ.Sequence.PreviewUseMaxRenderQuality="false" MZ.Sequence.PreviewUseMaxBitDepth="false" MZ.Sequence.EditingModeGUID="795454d9-d3c2-429d-9474-923ab13b7018" MZ.Sequence.VideoTimeDisplayFormat="109" MZ.WorkOutPoint="156619735272000" MZ.WorkInPoint="0" explodedTracks="true">
      <uuid>0bc28b40-0179-49f0-8e46-361b1ba55c8a</uuid>
      <duration>3517</duration>
      <rate>
         <timebase>24</timebase>
         <ntsc>TRUE</ntsc>
      </rate>
      <name>myshow</name>
      <media>
         <video>
            <format>
               <samplecharacteristics>
                  <rate>
                     <timebase>24</timebase>
                     <ntsc>TRUE</ntsc>
                  </rate>
                  <codec>
                     <name>Apple ProRes 422</name>
                     <appspecificdata>
                        <appname>Final Cut Pro</appname>
                        <appmanufacturer>Apple Inc.</appmanufacturer>
                        <appversion>7.0</appversion>
                        <data>
                           <qtcodec>
                              <codecname>Apple ProRes 422</codecname>
                              <codectypename>Apple ProRes 422</codectypename>
                              <codectypecode>apcn</codectypecode>
                              <codecvendorcode>appl</codecvendorcode>
                              <spatialquality>1024</spatialquality>
                              <temporalquality>0</temporalquality>
                              <keyframerate>0</keyframerate>
                              <datarate>0</datarate>
                           </qtcodec>
                        </data>
                     </appspecificdata>
                  </codec>
                  <width>1920</width>
                  <height>1080</height>
                  <anamorphic>FALSE</anamorphic>
                  <pixelaspectratio>square</pixelaspectratio>
                  <fielddominance>none</fielddominance>
                  <colordepth>24</colordepth>
               </samplecharacteristics>
            </format>
            <track TL.SQTrackShy="0" TL.SQTrackExpandedHeight="25" TL.SQTrackExpanded="0" MZ.TrackTargeted="0">
               <generatoritem id="clipitem-457">
                  <name>Grey</name>
                  <enabled>TRUE</enabled>
                  <duration>1035764</duration>
                  <start>0</start>
                  <end>15</end>
                  <in>86313</in>
                  <out>86328</out>
                  <rate>
                     <timebase>24</timebase>
                     <ntsc>TRUE</ntsc>
                  </rate>
                  <effect>
                     <name>Color</name>
                     <effectid>Color</effectid>
                     <effectcategory>Matte</effectcategory>
                     <effecttype>generator</effecttype>
                     <mediatype>video</mediatype>
                     <parameter authoringApp="PremierePro">
                        <parameterid>fillcolor</parameterid>
                        <name>Color</name>
                        <value>
                           <alpha>0</alpha>
                           <red>55</red>
                           <green>55</green>
                           <blue>55</blue>
                        </value>
                     </parameter>
                  </effect>
               </generatoritem>
               <clipitem id="clipitem-458">
                  <masterclipid>masterclip-250</masterclipid>
                  <name>mymovie.mov</name>
                  <enabled>TRUE</enabled>
                  <duration>3502</duration>
                  <rate>
                     <timebase>24</timebase>
                     <ntsc>TRUE</ntsc>
                  </rate>
                  <start>15</start>
                  <end>90</end>
                  <in>0</in>
                  <out>75</out>
                  <pproTicksIn>0</pproTicksIn>
                  <pproTicksOut>794593800000</pproTicksOut>
                  <alphatype>none</alphatype>
                  <pixelaspectratio>square</pixelaspectratio>
                  <anamorphic>FALSE</anamorphic>
                  <file id="file-243">
                     <name>mymovie.mov</name>
                     <pathurl>file://localhost/Volumes/mydisk/mymovie.mov</pathurl>
                     <rate>
                        <timebase>24</timebase>
                        <ntsc>TRUE</ntsc>
                     </rate>
                     <duration>3502</duration>
                     <timecode>
                        <rate>
                           <timebase>24</timebase>
                           <ntsc>TRUE</ntsc>
                        </rate>
                        <string>01:23:49:21</string>
                        <frame>120717</frame>
                        <displayformat>NDF</displayformat>
                     </timecode>
                     <media>
                        <video>
                           <samplecharacteristics>
                              <rate>
                                 <timebase>24</timebase>
                                 <ntsc>TRUE</ntsc>
                              </rate>
                              <width>2048</width>
                              <height>858</height>
                              <anamorphic>FALSE</anamorphic>
                              <pixelaspectratio>square</pixelaspectratio>
                              <fielddominance>none</fielddominance>
                           </samplecharacteristics>
                        </video>
                        <audio>
                           <samplecharacteristics>
                              <depth>16</depth>
                              <samplerate>48000</samplerate>
                           </samplecharacteristics>
                           <channelcount>2</channelcount>
                        </audio>
                     </media>
                  </file>
                  <filter>
                     <effect>
                        <name>Basic Motion</name>
                        <effectid>basic</effectid>
                        <effectcategory>motion</effectcategory>
                        <effecttype>motion</effecttype>
                        <mediatype>video</mediatype>
                        <pproBypass>false</pproBypass>
                        <parameter authoringApp="PremierePro">
                           <parameterid>scale</parameterid>
                           <name>Scale</name>
                           <valuemin>0</valuemin>
                           <valuemax>1000</valuemax>
                           <value>93.8</value>
                        </parameter>
                        <parameter authoringApp="PremierePro">
                           <parameterid>rotation</parameterid>
                           <name>Rotation</name>
                           <valuemin>-8640</valuemin>
                           <valuemax>8640</valuemax>
                           <value>0</value>
                        </parameter>
                        <parameter authoringApp="PremierePro">
                           <parameterid>center</parameterid>
                           <name>Center</name>
                           <value>
                              <horiz>0</horiz>
                              <vert>0</vert>
                           </value>
                        </parameter>
                        <parameter authoringApp="PremierePro">
                           <parameterid>centerOffset</parameterid>
                           <name>Anchor Point</name>
                           <value>
                              <horiz>0</horiz>
                              <vert>0</vert>
                           </value>
                        </parameter>
                        <parameter authoringApp="PremierePro">
                           <parameterid>antiflicker</parameterid>
                           <name>Anti-flicker Filter</name>
                           <valuemin>0.0</valuemin>
                           <valuemax>1.0</valuemax>
                           <value>0</value>
                        </parameter>
                     </effect>
                  </filter>
                  <link>
                     <linkclipref>clipitem-458</linkclipref>
                     <mediatype>video</mediatype>
                     <trackindex>1</trackindex>
                     <clipindex>2</clipindex>
                  </link>
                  <link>
                     <linkclipref>clipitem-619</linkclipref>
                     <mediatype>audio</mediatype>
                     <trackindex>1</trackindex>
                     <clipindex>1</clipindex>
                     <groupindex>1</groupindex>
                  </link>
                  <link>
                     <linkclipref>clipitem-652</linkclipref>
                     <mediatype>audio</mediatype>
                     <trackindex>2</trackindex>
                     <clipindex>1</clipindex>
                     <groupindex>1</groupindex>
                  </link>
                  <logginginfo>
                     <description />
                     <scene />
                     <shottake />
                     <lognote />
                     <good />
                     <originalvideofilename />
                     <originalaudiofilename />
                  </logginginfo>
                  <colorinfo>
                     <lut />
                     <lut1 />
                     <asc_sop />
                     <asc_sat />
                     <lut2 />
                  </colorinfo>
                  <labels>
                     <label2>Iris</label2>
                  </labels>
               </clipitem>
               <clipitem id="clipitem-459">
                  <masterclipid>masterclip-250</masterclipid>
                  <name>mymovie.mov</name>
                  <enabled>TRUE</enabled>
                  <duration>3502</duration>
                  <rate>
                     <timebase>24</timebase>
                     <ntsc>TRUE</ntsc>
                  </rate>
                  <start>90</start>
                  <end>222</end>
                  <in>75</in>
                  <out>207</out>
                  <pproTicksIn>794593800000</pproTicksIn>
                  <pproTicksOut>2193078888000</pproTicksOut>
                  <alphatype>none</alphatype>
                  <file id="file-243" />
                  <filter>
                     <effect>
                        <name>Basic Motion</name>
                        <effectid>basic</effectid>
                        <effectcategory>motion</effectcategory>
                        <effecttype>motion</effecttype>
                        <mediatype>video</mediatype>
                        <pproBypass>false</pproBypass>
                        <parameter authoringApp="PremierePro">
                           <parameterid>scale</parameterid>
                           <name>Scale</name>
                           <valuemin>0</valuemin>
                           <valuemax>1000</valuemax>
                           <value>93.8</value>
                        </parameter>
                        <parameter authoringApp="PremierePro">
                           <parameterid>rotation</parameterid>
                           <name>Rotation</name>
                           <valuemin>-8640</valuemin>
                           <valuemax>8640</valuemax>
                           <value>0</value>
                        </parameter>
                        <parameter authoringApp="PremierePro">
                           <parameterid>center</parameterid>
                           <name>Center</name>
                           <value>
                              <horiz>0</horiz>
                              <vert>0</vert>
                           </value>
                        </parameter>
                        <parameter authoringApp="PremierePro">
                           <parameterid>centerOffset</parameterid>
                           <name>Anchor Point</name>
                           <value>
                              <horiz>0</horiz>
                              <vert>0</vert>
                           </value>
                        </parameter>
                        <parameter authoringApp="PremierePro">
                           <parameterid>antiflicker</parameterid>
                           <name>Anti-flicker Filter</name>
                           <valuemin>0.0</valuemin>
                           <valuemax>1.0</valuemax>
                           <value>0</value>
                        </parameter>
                     </effect>
                  </filter>
                  <link>
                     <linkclipref>clipitem-459</linkclipref>
                     <mediatype>video</mediatype>
                     <trackindex>1</trackindex>
                     <clipindex>3</clipindex>
                  </link>
                  <link>
                     <linkclipref>clipitem-620</linkclipref>
                     <mediatype>audio</mediatype>
                     <trackindex>1</trackindex>
                     <clipindex>2</clipindex>
                     <groupindex>1</groupindex>
                  </link>
                  <link>
                     <linkclipref>clipitem-653</linkclipref>
                     <mediatype>audio</mediatype>
                     <trackindex>2</trackindex>
                     <clipindex>2</clipindex>
                     <groupindex>1</groupindex>
                  </link>
                  <logginginfo>
                     <description />
                     <scene />
                     <shottake />
                     <lognote />
                     <good />
                     <originalvideofilename />
                     <originalaudiofilename />
                  </logginginfo>
                  <colorinfo>
                     <lut />
                     <lut1 />
                     <asc_sop />
                     <asc_sat />
                     <lut2 />
                  </colorinfo>
                  <labels>
                     <label2>Iris</label2>
                  </labels>
               </clipitem>
               <clipitem id="clipitem-460">
                  <masterclipid>masterclip-250</masterclipid>
                  <name>mymovie.mov</name>
                  <enabled>TRUE</enabled>
                  <duration>3502</duration>
                  <rate>
                     <timebase>24</timebase>
                     <ntsc>TRUE</ntsc>
                  </rate>
                  <start>222</start>
                  <end>396</end>
                  <in>207</in>
                  <out>381</out>
                  <pproTicksIn>2193078888000</pproTicksIn>
                  <pproTicksOut>4036536504000</pproTicksOut>
                  <alphatype>none</alphatype>
                  <file id="file-243" />
                  <filter>
                     <effect>
                        <name>Basic Motion</name>
                        <effectid>basic</effectid>
                        <effectcategory>motion</effectcategory>
                        <effecttype>motion</effecttype>
                        <mediatype>video</mediatype>
                        <pproBypass>false</pproBypass>
                        <parameter authoringApp="PremierePro">
                           <parameterid>scale</parameterid>
                           <name>Scale</name>
                           <valuemin>0</valuemin>
                           <valuemax>1000</valuemax>
                           <value>93.8</value>
                        </parameter>
                        <parameter authoringApp="PremierePro">
                           <parameterid>rotation</parameterid>
                           <name>Rotation</name>
                           <valuemin>-8640</valuemin>
                           <valuemax>8640</valuemax>
                           <value>0</value>
                        </parameter>
                        <parameter authoringApp="PremierePro">
                           <parameterid>center</parameterid>
                           <name>Center</name>
                           <value>
                              <horiz>0</horiz>
                              <vert>0</vert>
                           </value>
                        </parameter>
                        <parameter authoringApp="PremierePro">
                           <parameterid>centerOffset</parameterid>
                           <name>Anchor Point</name>
                           <value>
                              <horiz>0</horiz>
                              <vert>0</vert>
                           </value>
                        </parameter>
                        <parameter authoringApp="PremierePro">
                           <parameterid>antiflicker</parameterid>
                           <name>Anti-flicker Filter</name>
                           <valuemin>0.0</valuemin>
                           <valuemax>1.0</valuemax>
                           <value>0</value>
                        </parameter>
                     </effect>
                  </filter>
                  <link>
                     <linkclipref>clipitem-460</linkclipref>
                     <mediatype>video</mediatype>
                     <trackindex>1</trackindex>
                     <clipindex>4</clipindex>
                  </link>
                  <link>
                     <linkclipref>clipitem-621</linkclipref>
                     <mediatype>audio</mediatype>
                     <trackindex>1</trackindex>
                     <clipindex>3</clipindex>
                     <groupindex>1</groupindex>
                  </link>
                  <link>
                     <linkclipref>clipitem-654</linkclipref>
                     <mediatype>audio</mediatype>
                     <trackindex>2</trackindex>
                     <clipindex>3</clipindex>
                     <groupindex>1</groupindex>
                  </link>
                  <logginginfo>
                     <description />
                     <scene />
                     <shottake />
                     <lognote />
                     <good />
                     <originalvideofilename />
                     <originalaudiofilename />
                  </logginginfo>
                  <colorinfo>
                     <lut />
                     <lut1 />
                     <asc_sop />
                     <asc_sat />
                     <lut2 />
                  </colorinfo>
                  <labels>
                     <label2>Iris</label2>
                  </labels>
               </clipitem>
               <clipitem id="clipitem-461">
                  <masterclipid>masterclip-250</masterclipid>
                  <name>mymovie.mov</name>
                  <enabled>TRUE</enabled>
                  <duration>3502</duration>
                  <rate>
                     <timebase>24</timebase>
                     <ntsc>TRUE</ntsc>
                  </rate>
                  <start>396</start>
                  <end>493</end>
                  <in>381</in>
                  <out>478</out>
                  <pproTicksIn>4036536504000</pproTicksIn>
                  <pproTicksOut>5064211152000</pproTicksOut>
                  <alphatype>none</alphatype>
                  <file id="file-243" />
                  <filter>
                     <effect>
                        <name>Basic Motion</name>
                        <effectid>basic</effectid>
                        <effectcategory>motion</effectcategory>
                        <effecttype>motion</effecttype>
                        <mediatype>video</mediatype>
                        <pproBypass>false</pproBypass>
                        <parameter authoringApp="PremierePro">
                           <parameterid>scale</parameterid>
                           <name>Scale</name>
                           <valuemin>0</valuemin>
                           <valuemax>1000</valuemax>
                           <value>93.8</value>
                        </parameter>
                        <parameter authoringApp="PremierePro">
                           <parameterid>rotation</parameterid>
                           <name>Rotation</name>
                           <valuemin>-8640</valuemin>
                           <valuemax>8640</valuemax>
                           <value>0</value>
                        </parameter>
                        <parameter authoringApp="PremierePro">
                           <parameterid>center</parameterid>
                           <name>Center</name>
                           <value>
                              <horiz>0</horiz>
                              <vert>0</vert>
                           </value>
                        </parameter>
                        <parameter authoringApp="PremierePro">
                           <parameterid>centerOffset</parameterid>
                           <name>Anchor Point</name>
                           <value>
                              <horiz>0</horiz>
                              <vert>0</vert>
                           </value>
                        </parameter>
                        <parameter authoringApp="PremierePro">
                           <parameterid>antiflicker</parameterid>
                           <name>Anti-flicker Filter</name>
                           <valuemin>0.0</valuemin>
                           <valuemax>1.0</valuemax>
                           <value>0</value>
                        </parameter>
                     </effect>
                  </filter>
                  <link>
                     <linkclipref>clipitem-461</linkclipref>
                     <mediatype>video</mediatype>
                     <trackindex>1</trackindex>
                     <clipindex>5</clipindex>
                  </link>
                  <link>
                     <linkclipref>clipitem-622</linkclipref>
                     <mediatype>audio</mediatype>
                     <trackindex>1</trackindex>
                     <clipindex>4</clipindex>
                     <groupindex>1</groupindex>
                  </link>
                  <link>
                     <linkclipref>clipitem-655</linkclipref>
                     <mediatype>audio</mediatype>
                     <trackindex>2</trackindex>
                     <clipindex>4</clipindex>
                     <groupindex>1</groupindex>
                  </link>
                  <logginginfo>
                     <description />
                     <scene />
                     <shottake />
                     <lognote />
                     <good />
                     <originalvideofilename />
                     <originalaudiofilename />
                  </logginginfo>
                  <colorinfo>
                     <lut />
                     <lut1 />
                     <asc_sop />
                     <asc_sat />
                     <lut2 />
                  </colorinfo>
                  <labels>
                     <label2>Iris</label2>
                  </labels>
               </clipitem>
               <clipitem id="clipitem-462">
                  <masterclipid>masterclip-250</masterclipid>
                  <name>mymovie.mov</name>
                  <enabled>TRUE</enabled>
                  <duration>3502</duration>
                  <rate>
                     <timebase>24</timebase>
                     <ntsc>TRUE</ntsc>
                  </rate>
                  <start>493</start>
                  <end>598</end>
                  <in>478</in>
                  <out>583</out>
                  <pproTicksIn>5064211152000</pproTicksIn>
                  <pproTicksOut>6176642472000</pproTicksOut>
                  <alphatype>none</alphatype>
                  <file id="file-243" />
                  <filter>
                     <effect>
                        <name>Basic Motion</name>
                        <effectid>basic</effectid>
                        <effectcategory>motion</effectcategory>
                        <effecttype>motion</effecttype>
                        <mediatype>video</mediatype>
                        <pproBypass>false</pproBypass>
                        <parameter authoringApp="PremierePro">
                           <parameterid>scale</parameterid>
                           <name>Scale</name>
                           <valuemin>0</valuemin>
                           <valuemax>1000</valuemax>
                           <value>93.8</value>
                        </parameter>
                        <parameter authoringApp="PremierePro">
                           <parameterid>rotation</parameterid>
                           <name>Rotation</name>
                           <valuemin>-8640</valuemin>
                           <valuemax>8640</valuemax>
                           <value>0</value>
                        </parameter>
                        <parameter authoringApp="PremierePro">
                           <parameterid>center</parameterid>
                           <name>Center</name>
                           <value>
                              <horiz>0</horiz>
                              <vert>0</vert>
                           </value>
                        </parameter>
                        <parameter authoringApp="PremierePro">
                           <parameterid>centerOffset</parameterid>
                           <name>Anchor Point</name>
                           <value>
                              <horiz>0</horiz>
                              <vert>0</vert>
                           </value>
                        </parameter>
                        <parameter authoringApp="PremierePro">
                           <parameterid>antiflicker</parameterid>
                           <name>Anti-flicker Filter</name>
                           <valuemin>0.0</valuemin>
                           <valuemax>1.0</valuemax>
                           <value>0</value>
                        </parameter>
                     </effect>
                  </filter>
                  <link>
                     <linkclipref>clipitem-462</linkclipref>
                     <mediatype>video</mediatype>
                     <trackindex>1</trackindex>
                     <clipindex>6</clipindex>
                  </link>
                  <link>
                     <linkclipref>clipitem-623</linkclipref>
                     <mediatype>audio</mediatype>
                     <trackindex>1</trackindex>
                     <clipindex>5</clipindex>
                     <groupindex>1</groupindex>
                  </link>
                  <link>
                     <linkclipref>clipitem-656</linkclipref>
                     <mediatype>audio</mediatype>
                     <trackindex>2</trackindex>
                     <clipindex>5</clipindex>
                     <groupindex>1</groupindex>
                  </link>
                  <logginginfo>
                     <description />
                     <scene />
                     <shottake />
                     <lognote />
                     <good />
                     <originalvideofilename />
                     <originalaudiofilename />
                  </logginginfo>
                  <colorinfo>
                     <lut />
                     <lut1 />
                     <asc_sop />
                     <asc_sat />
                     <lut2 />
                  </colorinfo>
                  <labels>
                     <label2>Iris</label2>
                  </labels>
               </clipitem>
               <clipitem id="clipitem-463">
                  <masterclipid>masterclip-250</masterclipid>
                  <name>mymovie.mov</name>
                  <enabled>TRUE</enabled>
                  <duration>3502</duration>
                  <rate>
                     <timebase>24</timebase>
                     <ntsc>TRUE</ntsc>
                  </rate>
                  <start>598</start>
                  <end>692</end>
                  <in>583</in>
                  <out>677</out>
                  <pproTicksIn>6176642472000</pproTicksIn>
                  <pproTicksOut>7172533368000</pproTicksOut>
                  <alphatype>none</alphatype>
                  <file id="file-243" />
                  <filter>
                     <effect>
                        <name>Basic Motion</name>
                        <effectid>basic</effectid>
                        <effectcategory>motion</effectcategory>
                        <effecttype>motion</effecttype>
                        <mediatype>video</mediatype>
                        <pproBypass>false</pproBypass>
                        <parameter authoringApp="PremierePro">
                           <parameterid>scale</parameterid>
                           <name>Scale</name>
                           <valuemin>0</valuemin>
                           <valuemax>1000</valuemax>
                           <value>93.8</value>
                        </parameter>
                        <parameter authoringApp="PremierePro">
                           <parameterid>rotation</parameterid>
                           <name>Rotation</name>
                           <valuemin>-8640</valuemin>
                           <valuemax>8640</valuemax>
                           <value>0</value>
                        </parameter>
                        <parameter authoringApp="PremierePro">
                           <parameterid>center</parameterid>
                           <name>Center</name>
                           <value>
                              <horiz>0</horiz>
                              <vert>0</vert>
                           </value>
                        </parameter>
                        <parameter authoringApp="PremierePro">
                           <parameterid>centerOffset</parameterid>
                           <name>Anchor Point</name>
                           <value>
                              <horiz>0</horiz>
                              <vert>0</vert>
                           </value>
                        </parameter>
                        <parameter authoringApp="PremierePro">
                           <parameterid>antiflicker</parameterid>
                           <name>Anti-flicker Filter</name>
                           <valuemin>0.0</valuemin>
                           <valuemax>1.0</valuemax>
                           <value>0</value>
                        </parameter>
                     </effect>
                  </filter>
                  <link>
                     <linkclipref>clipitem-463</linkclipref>
                     <mediatype>video</mediatype>
                     <trackindex>1</trackindex>
                     <clipindex>7</clipindex>
                  </link>
                  <link>
                     <linkclipref>clipitem-624</linkclipref>
                     <mediatype>audio</mediatype>
                     <trackindex>1</trackindex>
                     <clipindex>6</clipindex>
                     <groupindex>1</groupindex>
                  </link>
                  <link>
                     <linkclipref>clipitem-657</linkclipref>
                     <mediatype>audio</mediatype>
                     <trackindex>2</trackindex>
                     <clipindex>6</clipindex>
                     <groupindex>1</groupindex>
                  </link>
                  <logginginfo>
                     <description />
                     <scene />
                     <shottake />
                     <lognote />
                     <good />
                     <originalvideofilename />
                     <originalaudiofilename />
                  </logginginfo>
                  <colorinfo>
                     <lut />
                     <lut1 />
                     <asc_sop />
                     <asc_sat />
                     <lut2 />
                  </colorinfo>
                  <labels>
                     <label2>Iris</label2>
                  </labels>
               </clipitem>
               <clipitem id="clipitem-464">
                  <masterclipid>masterclip-250</masterclipid>
                  <name>mymovie.mov</name>
                  <enabled>TRUE</enabled>
                  <duration>3502</duration>
                  <rate>
                     <timebase>24</timebase>
                     <ntsc>TRUE</ntsc>
                  </rate>
                  <start>692</start>
                  <end>780</end>
                  <in>677</in>
                  <out>765</out>
                  <pproTicksIn>7172533368000</pproTicksIn>
                  <pproTicksOut>8104856760000</pproTicksOut>
                  <alphatype>none</alphatype>
                  <file id="file-243" />
                  <filter>
                     <effect>
                        <name>Basic Motion</name>
                        <effectid>basic</effectid>
                        <effectcategory>motion</effectcategory>
                        <effecttype>motion</effecttype>
                        <mediatype>video</mediatype>
                        <pproBypass>false</pproBypass>
                        <parameter authoringApp="PremierePro">
                           <parameterid>scale</parameterid>
                           <name>Scale</name>
                           <valuemin>0</valuemin>
                           <valuemax>1000</valuemax>
                           <value>93.8</value>
                        </parameter>
                        <parameter authoringApp="PremierePro">
                           <parameterid>rotation</parameterid>
                           <name>Rotation</name>
                           <valuemin>-8640</valuemin>
                           <valuemax>8640</valuemax>
                           <value>0</value>
                        </parameter>
                        <parameter authoringApp="PremierePro">
                           <parameterid>center</parameterid>
                           <name>Center</name>
                           <value>
                              <horiz>0</horiz>
                              <vert>0</vert>
                           </value>
                        </parameter>
                        <parameter authoringApp="PremierePro">
                           <parameterid>centerOffset</parameterid>
                           <name>Anchor Point</name>
                           <value>
                              <horiz>0</horiz>
                              <vert>0</vert>
                           </value>
                        </parameter>
                        <parameter authoringApp="PremierePro">
                           <parameterid>antiflicker</parameterid>
                           <name>Anti-flicker Filter</name>
                           <valuemin>0.0</valuemin>
                           <valuemax>1.0</valuemax>
                           <value>0</value>
                        </parameter>
                     </effect>
                  </filter>
                  <link>
                     <linkclipref>clipitem-464</linkclipref>
                     <mediatype>video</mediatype>
                     <trackindex>1</trackindex>
                     <clipindex>8</clipindex>
                  </link>
                  <link>
                     <linkclipref>clipitem-625</linkclipref>
                     <mediatype>audio</mediatype>
                     <trackindex>1</trackindex>
                     <clipindex>7</clipindex>
                     <groupindex>1</groupindex>
                  </link>
                  <link>
                     <linkclipref>clipitem-658</linkclipref>
                     <mediatype>audio</mediatype>
                     <trackindex>2</trackindex>
                     <clipindex>7</clipindex>
                     <groupindex>1</groupindex>
                  </link>
                  <logginginfo>
                     <description />
                     <scene />
                     <shottake />
                     <lognote />
                     <good />
                     <originalvideofilename />
                     <originalaudiofilename />
                  </logginginfo>
                  <colorinfo>
                     <lut />
                     <lut1 />
                     <asc_sop />
                     <asc_sat />
                     <lut2 />
                  </colorinfo>
                  <labels>
                     <label2>Iris</label2>
                  </labels>
               </clipitem>
               <clipitem id="clipitem-465">
                  <masterclipid>masterclip-250</masterclipid>
                  <name>mymovie.mov</name>
                  <enabled>TRUE</enabled>
                  <duration>3502</duration>
                  <rate>
                     <timebase>24</timebase>
                     <ntsc>TRUE</ntsc>
                  </rate>
                  <start>780</start>
                  <end>870</end>
                  <in>765</in>
                  <out>855</out>
                  <pproTicksIn>8104856760000</pproTicksIn>
                  <pproTicksOut>9058369320000</pproTicksOut>
                  <alphatype>none</alphatype>
                  <file id="file-243" />
                  <filter>
                     <effect>
                        <name>Basic Motion</name>
                        <effectid>basic</effectid>
                        <effectcategory>motion</effectcategory>
                        <effecttype>motion</effecttype>
                        <mediatype>video</mediatype>
                        <pproBypass>false</pproBypass>
                        <parameter authoringApp="PremierePro">
                           <parameterid>scale</parameterid>
                           <name>Scale</name>
                           <valuemin>0</valuemin>
                           <valuemax>1000</valuemax>
                           <value>93.8</value>
                        </parameter>
                        <parameter authoringApp="PremierePro">
                           <parameterid>rotation</parameterid>
                           <name>Rotation</name>
                           <valuemin>-8640</valuemin>
                           <valuemax>8640</valuemax>
                           <value>0</value>
                        </parameter>
                        <parameter authoringApp="PremierePro">
                           <parameterid>center</parameterid>
                           <name>Center</name>
                           <value>
                              <horiz>0</horiz>
                              <vert>0</vert>
                           </value>
                        </parameter>
                        <parameter authoringApp="PremierePro">
                           <parameterid>centerOffset</parameterid>
                           <name>Anchor Point</name>
                           <value>
                              <horiz>0</horiz>
                              <vert>0</vert>
                           </value>
                        </parameter>
                        <parameter authoringApp="PremierePro">
                           <parameterid>antiflicker</parameterid>
                           <name>Anti-flicker Filter</name>
                           <valuemin>0.0</valuemin>
                           <valuemax>1.0</valuemax>
                           <value>0</value>
                        </parameter>
                     </effect>
                  </filter>
                  <link>
                     <linkclipref>clipitem-465</linkclipref>
                     <mediatype>video</mediatype>
                     <trackindex>1</trackindex>
                     <clipindex>9</clipindex>
                  </link>
                  <link>
                     <linkclipref>clipitem-626</linkclipref>
                     <mediatype>audio</mediatype>
                     <trackindex>1</trackindex>
                     <clipindex>8</clipindex>
                     <groupindex>1</groupindex>
                  </link>
                  <link>
                     <linkclipref>clipitem-659</linkclipref>
                     <mediatype>audio</mediatype>
                     <trackindex>2</trackindex>
                     <clipindex>8</clipindex>
                     <groupindex>1</groupindex>
                  </link>
                  <logginginfo>
                     <description />
                     <scene />
                     <shottake />
                     <lognote />
                     <good />
                     <originalvideofilename />
                     <originalaudiofilename />
                  </logginginfo>
                  <colorinfo>
                     <lut />
                     <lut1 />
                     <asc_sop />
                     <asc_sat />
                     <lut2 />
                  </colorinfo>
                  <labels>
                     <label2>Iris</label2>
                  </labels>
               </clipitem>
               <clipitem id="clipitem-466">
                  <masterclipid>masterclip-250</masterclipid>
                  <name>mymovie.mov</name>
                  <enabled>TRUE</enabled>
                  <duration>3502</duration>
                  <rate>
                     <timebase>24</timebase>
                     <ntsc>TRUE</ntsc>
                  </rate>
                  <start>870</start>
                  <end>1135</end>
                  <in>855</in>
                  <out>1120</out>
                  <pproTicksIn>9058369320000</pproTicksIn>
                  <pproTicksOut>11865934080000</pproTicksOut>
                  <alphatype>none</alphatype>
                  <file id="file-243" />
                  <filter>
                     <effect>
                        <name>Basic Motion</name>
                        <effectid>basic</effectid>
                        <effectcategory>motion</effectcategory>
                        <effecttype>motion</effecttype>
                        <mediatype>video</mediatype>
                        <pproBypass>false</pproBypass>
                        <parameter authoringApp="PremierePro">
                           <parameterid>scale</parameterid>
                           <name>Scale</name>
                           <valuemin>0</valuemin>
                           <valuemax>1000</valuemax>
                           <value>93.8</value>
                        </parameter>
                        <parameter authoringApp="PremierePro">
                           <parameterid>rotation</parameterid>
                           <name>Rotation</name>
                           <valuemin>-8640</valuemin>
                           <valuemax>8640</valuemax>
                           <value>0</value>
                        </parameter>
                        <parameter authoringApp="PremierePro">
                           <parameterid>center</parameterid>
                           <name>Center</name>
                           <value>
                              <horiz>0</horiz>
                              <vert>0</vert>
                           </value>
                        </parameter>
                        <parameter authoringApp="PremierePro">
                           <parameterid>centerOffset</parameterid>
                           <name>Anchor Point</name>
                           <value>
                              <horiz>0</horiz>
                              <vert>0</vert>
                           </value>
                        </parameter>
                        <parameter authoringApp="PremierePro">
                           <parameterid>antiflicker</parameterid>
                           <name>Anti-flicker Filter</name>
                           <valuemin>0.0</valuemin>
                           <valuemax>1.0</valuemax>
                           <value>0</value>
                        </parameter>
                     </effect>
                  </filter>
                  <link>
                     <linkclipref>clipitem-466</linkclipref>
                     <mediatype>video</mediatype>
                     <trackindex>1</trackindex>
                     <clipindex>10</clipindex>
                  </link>
                  <link>
                     <linkclipref>clipitem-627</linkclipref>
                     <mediatype>audio</mediatype>
                     <trackindex>1</trackindex>
                     <clipindex>9</clipindex>
                     <groupindex>1</groupindex>
                  </link>
                  <link>
                     <linkclipref>clipitem-660</linkclipref>
                     <mediatype>audio</mediatype>
                     <trackindex>2</trackindex>
                     <clipindex>9</clipindex>
                     <groupindex>1</groupindex>
                  </link>
                  <logginginfo>
                     <description />
                     <scene />
                     <shottake />
                     <lognote />
                     <good />
                     <originalvideofilename />
                     <originalaudiofilename />
                  </logginginfo>
                  <colorinfo>
                     <lut />
                     <lut1 />
                     <asc_sop />
                     <asc_sat />
                     <lut2 />
                  </colorinfo>
                  <labels>
                     <label2>Iris</label2>
                  </labels>
               </clipitem>
               <clipitem id="clipitem-467">
                  <masterclipid>masterclip-250</masterclipid>
                  <name>mymovie.mov</name>
                  <enabled>TRUE</enabled>
                  <duration>3502</duration>
                  <rate>
                     <timebase>24</timebase>
                     <ntsc>TRUE</ntsc>
                  </rate>
                  <start>1135</start>
                  <end>1229</end>
                  <in>1120</in>
                  <out>1214</out>
                  <pproTicksIn>11865934080000</pproTicksIn>
                  <pproTicksOut>12861824976000</pproTicksOut>
                  <alphatype>none</alphatype>
                  <file id="file-243" />
                  <filter>
                     <effect>
                        <name>Basic Motion</name>
                        <effectid>basic</effectid>
                        <effectcategory>motion</effectcategory>
                        <effecttype>motion</effecttype>
                        <mediatype>video</mediatype>
                        <pproBypass>false</pproBypass>
                        <parameter authoringApp="PremierePro">
                           <parameterid>scale</parameterid>
                           <name>Scale</name>
                           <valuemin>0</valuemin>
                           <valuemax>1000</valuemax>
                           <value>93.8</value>
                        </parameter>
                        <parameter authoringApp="PremierePro">
                           <parameterid>rotation</parameterid>
                           <name>Rotation</name>
                           <valuemin>-8640</valuemin>
                           <valuemax>8640</valuemax>
                           <value>0</value>
                        </parameter>
                        <parameter authoringApp="PremierePro">
                           <parameterid>center</parameterid>
                           <name>Center</name>
                           <value>
                              <horiz>0</horiz>
                              <vert>0</vert>
                           </value>
                        </parameter>
                        <parameter authoringApp="PremierePro">
                           <parameterid>centerOffset</parameterid>
                           <name>Anchor Point</name>
                           <value>
                              <horiz>0</horiz>
                              <vert>0</vert>
                           </value>
                        </parameter>
                        <parameter authoringApp="PremierePro">
                           <parameterid>antiflicker</parameterid>
                           <name>Anti-flicker Filter</name>
                           <valuemin>0.0</valuemin>
                           <valuemax>1.0</valuemax>
                           <value>0</value>
                        </parameter>
                     </effect>
                  </filter>
                  <link>
                     <linkclipref>clipitem-467</linkclipref>
                     <mediatype>video</mediatype>
                     <trackindex>1</trackindex>
                     <clipindex>11</clipindex>
                  </link>
                  <link>
                     <linkclipref>clipitem-628</linkclipref>
                     <mediatype>audio</mediatype>
                     <trackindex>1</trackindex>
                     <clipindex>10</clipindex>
                     <groupindex>1</groupindex>
                  </link>
                  <link>
                     <linkclipref>clipitem-661</linkclipref>
                     <mediatype>audio</mediatype>
                     <trackindex>2</trackindex>
                     <clipindex>10</clipindex>
                     <groupindex>1</groupindex>
                  </link>
                  <logginginfo>
                     <description />
                     <scene />
                     <shottake />
                     <lognote />
                     <good />
                     <originalvideofilename />
                     <originalaudiofilename />
                  </logginginfo>
                  <colorinfo>
                     <lut />
                     <lut1 />
                     <asc_sop />
                     <asc_sat />
                     <lut2 />
                  </colorinfo>
                  <labels>
                     <label2>Iris</label2>
                  </labels>
               </clipitem>
               <clipitem id="clipitem-468">
                  <masterclipid>masterclip-250</masterclipid>
                  <name>mymovie.mov</name>
                  <enabled>TRUE</enabled>
                  <duration>3502</duration>
                  <rate>
                     <timebase>24</timebase>
                     <ntsc>TRUE</ntsc>
                  </rate>
                  <start>1229</start>
                  <end>1357</end>
                  <in>1214</in>
                  <out>1342</out>
                  <pproTicksIn>12861824976000</pproTicksIn>
                  <pproTicksOut>14217931728000</pproTicksOut>
                  <alphatype>none</alphatype>
                  <file id="file-243" />
                  <filter>
                     <effect>
                        <name>Basic Motion</name>
                        <effectid>basic</effectid>
                        <effectcategory>motion</effectcategory>
                        <effecttype>motion</effecttype>
                        <mediatype>video</mediatype>
                        <pproBypass>false</pproBypass>
                        <parameter authoringApp="PremierePro">
                           <parameterid>scale</parameterid>
                           <name>Scale</name>
                           <valuemin>0</valuemin>
                           <valuemax>1000</valuemax>
                           <value>93.8</value>
                        </parameter>
                        <parameter authoringApp="PremierePro">
                           <parameterid>rotation</parameterid>
                           <name>Rotation</name>
                           <valuemin>-8640</valuemin>
                           <valuemax>8640</valuemax>
                           <value>0</value>
                        </parameter>
                        <parameter authoringApp="PremierePro">
                           <parameterid>center</parameterid>
                           <name>Center</name>
                           <value>
                              <horiz>0</horiz>
                              <vert>0</vert>
                           </value>
                        </parameter>
                        <parameter authoringApp="PremierePro">
                           <parameterid>centerOffset</parameterid>
                           <name>Anchor Point</name>
                           <value>
                              <horiz>0</horiz>
                              <vert>0</vert>
                           </value>
                        </parameter>
                        <parameter authoringApp="PremierePro">
                           <parameterid>antiflicker</parameterid>
                           <name>Anti-flicker Filter</name>
                           <valuemin>0.0</valuemin>
                           <valuemax>1.0</valuemax>
                           <value>0</value>
                        </parameter>
                     </effect>
                  </filter>
                  <link>
                     <linkclipref>clipitem-468</linkclipref>
                     <mediatype>video</mediatype>
                     <trackindex>1</trackindex>
                     <clipindex>12</clipindex>
                  </link>
                  <link>
                     <linkclipref>clipitem-629</linkclipref>
                     <mediatype>audio</mediatype>
                     <trackindex>1</trackindex>
                     <clipindex>11</clipindex>
                     <groupindex>1</groupindex>
                  </link>
                  <link>
                     <linkclipref>clipitem-662</linkclipref>
                     <mediatype>audio</mediatype>
                     <trackindex>2</trackindex>
                     <clipindex>11</clipindex>
                     <groupindex>1</groupindex>
                  </link>
                  <logginginfo>
                     <description />
                     <scene />
                     <shottake />
                     <lognote />
                     <good />
                     <originalvideofilename />
                     <originalaudiofilename />
                  </logginginfo>
                  <colorinfo>
                     <lut />
                     <lut1 />
                     <asc_sop />
                     <asc_sat />
                     <lut2 />
                  </colorinfo>
                  <labels>
                     <label2>Iris</label2>
                  </labels>
               </clipitem>
               <clipitem id="clipitem-469">
                  <masterclipid>masterclip-250</masterclipid>
                  <name>mymovie.mov</name>
                  <enabled>TRUE</enabled>
                  <duration>3502</duration>
                  <rate>
                     <timebase>24</timebase>
                     <ntsc>TRUE</ntsc>
                  </rate>
                  <start>1357</start>
                  <end>1408</end>
                  <in>1342</in>
                  <out>1393</out>
                  <pproTicksIn>14217931728000</pproTicksIn>
                  <pproTicksOut>14758255512000</pproTicksOut>
                  <alphatype>none</alphatype>
                  <file id="file-243" />
                  <filter>
                     <effect>
                        <name>Basic Motion</name>
                        <effectid>basic</effectid>
                        <effectcategory>motion</effectcategory>
                        <effecttype>motion</effecttype>
                        <mediatype>video</mediatype>
                        <pproBypass>false</pproBypass>
                        <parameter authoringApp="PremierePro">
                           <parameterid>scale</parameterid>
                           <name>Scale</name>
                           <valuemin>0</valuemin>
                           <valuemax>1000</valuemax>
                           <value>93.8</value>
                        </parameter>
                        <parameter authoringApp="PremierePro">
                           <parameterid>rotation</parameterid>
                           <name>Rotation</name>
                           <valuemin>-8640</valuemin>
                           <valuemax>8640</valuemax>
                           <value>0</value>
                        </parameter>
                        <parameter authoringApp="PremierePro">
                           <parameterid>center</parameterid>
                           <name>Center</name>
                           <value>
                              <horiz>0</horiz>
                              <vert>0</vert>
                           </value>
                        </parameter>
                        <parameter authoringApp="PremierePro">
                           <parameterid>centerOffset</parameterid>
                           <name>Anchor Point</name>
                           <value>
                              <horiz>0</horiz>
                              <vert>0</vert>
                           </value>
                        </parameter>
                        <parameter authoringApp="PremierePro">
                           <parameterid>antiflicker</parameterid>
                           <name>Anti-flicker Filter</name>
                           <valuemin>0.0</valuemin>
                           <valuemax>1.0</valuemax>
                           <value>0</value>
                        </parameter>
                     </effect>
                  </filter>
                  <link>
                     <linkclipref>clipitem-469</linkclipref>
                     <mediatype>video</mediatype>
                     <trackindex>1</trackindex>
                     <clipindex>13</clipindex>
                  </link>
                  <link>
                     <linkclipref>clipitem-630</linkclipref>
                     <mediatype>audio</mediatype>
                     <trackindex>1</trackindex>
                     <clipindex>12</clipindex>
                     <groupindex>1</groupindex>
                  </link>
                  <link>
                     <linkclipref>clipitem-663</linkclipref>
                     <mediatype>audio</mediatype>
                     <trackindex>2</trackindex>
                     <clipindex>12</clipindex>
                     <groupindex>1</groupindex>
                  </link>
                  <logginginfo>
                     <description />
                     <scene />
                     <shottake />
                     <lognote />
                     <good />
                     <originalvideofilename />
                     <originalaudiofilename />
                  </logginginfo>
                  <colorinfo>
                     <lut />
                     <lut1 />
                     <asc_sop />
                     <asc_sat />
                     <lut2 />
                  </colorinfo>
                  <labels>
                     <label2>Iris</label2>
                  </labels>
               </clipitem>
               <clipitem id="clipitem-470">
                  <masterclipid>masterclip-250</masterclipid>
                  <name>mymovie.mov</name>
                  <enabled>TRUE</enabled>
                  <duration>3502</duration>
                  <rate>
                     <timebase>24</timebase>
                     <ntsc>TRUE</ntsc>
                  </rate>
                  <start>1408</start>
                  <end>1482</end>
                  <in>1393</in>
                  <out>1467</out>
                  <pproTicksIn>14758255512000</pproTicksIn>
                  <pproTicksOut>15542254728000</pproTicksOut>
                  <alphatype>none</alphatype>
                  <file id="file-243" />
                  <filter>
                     <effect>
                        <name>Basic Motion</name>
                        <effectid>basic</effectid>
                        <effectcategory>motion</effectcategory>
                        <effecttype>motion</effecttype>
                        <mediatype>video</mediatype>
                        <pproBypass>false</pproBypass>
                        <parameter authoringApp="PremierePro">
                           <parameterid>scale</parameterid>
                           <name>Scale</name>
                           <valuemin>0</valuemin>
                           <valuemax>1000</valuemax>
                           <value>93.8</value>
                        </parameter>
                        <parameter authoringApp="PremierePro">
                           <parameterid>rotation</parameterid>
                           <name>Rotation</name>
                           <valuemin>-8640</valuemin>
                           <valuemax>8640</valuemax>
                           <value>0</value>
                        </parameter>
                        <parameter authoringApp="PremierePro">
                           <parameterid>center</parameterid>
                           <name>Center</name>
                           <value>
                              <horiz>0</horiz>
                              <vert>0</vert>
                           </value>
                        </parameter>
                        <parameter authoringApp="PremierePro">
                           <parameterid>centerOffset</parameterid>
                           <name>Anchor Point</name>
                           <value>
                              <horiz>0</horiz>
                              <vert>0</vert>
                           </value>
                        </parameter>
                        <parameter authoringApp="PremierePro">
                           <parameterid>antiflicker</parameterid>
                           <name>Anti-flicker Filter</name>
                           <valuemin>0.0</valuemin>
                           <valuemax>1.0</valuemax>
                           <value>0</value>
                        </parameter>
                     </effect>
                  </filter>
                  <link>
                     <linkclipref>clipitem-470</linkclipref>
                     <mediatype>video</mediatype>
                     <trackindex>1</trackindex>
                     <clipindex>14</clipindex>
                  </link>
                  <link>
                     <linkclipref>clipitem-631</linkclipref>
                     <mediatype>audio</mediatype>
                     <trackindex>1</trackindex>
                     <clipindex>13</clipindex>
                     <groupindex>1</groupindex>
                  </link>
                  <link>
                     <linkclipref>clipitem-664</linkclipref>
                     <mediatype>audio</mediatype>
                     <trackindex>2</trackindex>
                     <clipindex>13</clipindex>
                     <groupindex>1</groupindex>
                  </link>
                  <logginginfo>
                     <description />
                     <scene />
                     <shottake />
                     <lognote />
                     <good />
                     <originalvideofilename />
                     <originalaudiofilename />
                  </logginginfo>
                  <colorinfo>
                     <lut />
                     <lut1 />
                     <asc_sop />
                     <asc_sat />
                     <lut2 />
                  </colorinfo>
                  <labels>
                     <label2>Iris</label2>
                  </labels>
               </clipitem>
               <clipitem id="clipitem-471">
                  <masterclipid>masterclip-250</masterclipid>
                  <name>mymovie.mov</name>
                  <enabled>TRUE</enabled>
                  <duration>3502</duration>
                  <rate>
                     <timebase>24</timebase>
                     <ntsc>TRUE</ntsc>
                  </rate>
                  <start>1482</start>
                  <end>1537</end>
                  <in>1467</in>
                  <out>1522</out>
                  <pproTicksIn>15542254728000</pproTicksIn>
                  <pproTicksOut>16124956848000</pproTicksOut>
                  <alphatype>none</alphatype>
                  <file id="file-243" />
                  <filter>
                     <effect>
                        <name>Basic Motion</name>
                        <effectid>basic</effectid>
                        <effectcategory>motion</effectcategory>
                        <effecttype>motion</effecttype>
                        <mediatype>video</mediatype>
                        <pproBypass>false</pproBypass>
                        <parameter authoringApp="PremierePro">
                           <parameterid>scale</parameterid>
                           <name>Scale</name>
                           <valuemin>0</valuemin>
                           <valuemax>1000</valuemax>
                           <value>93.8</value>
                        </parameter>
                        <parameter authoringApp="PremierePro">
                           <parameterid>rotation</parameterid>
                           <name>Rotation</name>
                           <valuemin>-8640</valuemin>
                           <valuemax>8640</valuemax>
                           <value>0</value>
                        </parameter>
                        <parameter authoringApp="PremierePro">
                           <parameterid>center</parameterid>
                           <name>Center</name>
                           <value>
                              <horiz>0</horiz>
                              <vert>0</vert>
                           </value>
                        </parameter>
                        <parameter authoringApp="PremierePro">
                           <parameterid>centerOffset</parameterid>
                           <name>Anchor Point</name>
                           <value>
                              <horiz>0</horiz>
                              <vert>0</vert>
                           </value>
                        </parameter>
                        <parameter authoringApp="PremierePro">
                           <parameterid>antiflicker</parameterid>
                           <name>Anti-flicker Filter</name>
                           <valuemin>0.0</valuemin>
                           <valuemax>1.0</valuemax>
                           <value>0</value>
                        </parameter>
                     </effect>
                  </filter>
                  <link>
                     <linkclipref>clipitem-471</linkclipref>
                     <mediatype>video</mediatype>
                     <trackindex>1</trackindex>
                     <clipindex>15</clipindex>
                  </link>
                  <link>
                     <linkclipref>clipitem-632</linkclipref>
                     <mediatype>audio</mediatype>
                     <trackindex>1</trackindex>
                     <clipindex>14</clipindex>
                     <groupindex>1</groupindex>
                  </link>
                  <link>
                     <linkclipref>clipitem-665</linkclipref>
                     <mediatype>audio</mediatype>
                     <trackindex>2</trackindex>
                     <clipindex>14</clipindex>
                     <groupindex>1</groupindex>
                  </link>
                  <logginginfo>
                     <description />
                     <scene />
                     <shottake />
                     <lognote />
                     <good />
                     <originalvideofilename />
                     <originalaudiofilename />
                  </logginginfo>
                  <colorinfo>
                     <lut />
                     <lut1 />
                     <asc_sop />
                     <asc_sat />
                     <lut2 />
                  </colorinfo>
                  <labels>
                     <label2>Iris</label2>
                  </labels>
               </clipitem>
               <clipitem id="clipitem-472">
                  <masterclipid>masterclip-250</masterclipid>
                  <name>mymovie.mov</name>
                  <enabled>TRUE</enabled>
                  <duration>3502</duration>
                  <rate>
                     <timebase>24</timebase>
                     <ntsc>TRUE</ntsc>
                  </rate>
                  <start>1537</start>
                  <end>1675</end>
                  <in>1522</in>
                  <out>1660</out>
                  <pproTicksIn>16124956848000</pproTicksIn>
                  <pproTicksOut>17587009440000</pproTicksOut>
                  <alphatype>none</alphatype>
                  <file id="file-243" />
                  <filter>
                     <effect>
                        <name>Basic Motion</name>
                        <effectid>basic</effectid>
                        <effectcategory>motion</effectcategory>
                        <effecttype>motion</effecttype>
                        <mediatype>video</mediatype>
                        <pproBypass>false</pproBypass>
                        <parameter authoringApp="PremierePro">
                           <parameterid>scale</parameterid>
                           <name>Scale</name>
                           <valuemin>0</valuemin>
                           <valuemax>1000</valuemax>
                           <value>93.8</value>
                        </parameter>
                        <parameter authoringApp="PremierePro">
                           <parameterid>rotation</parameterid>
                           <name>Rotation</name>
                           <valuemin>-8640</valuemin>
                           <valuemax>8640</valuemax>
                           <value>0</value>
                        </parameter>
                        <parameter authoringApp="PremierePro">
                           <parameterid>center</parameterid>
                           <name>Center</name>
                           <value>
                              <horiz>0</horiz>
                              <vert>0</vert>
                           </value>
                        </parameter>
                        <parameter authoringApp="PremierePro">
                           <parameterid>centerOffset</parameterid>
                           <name>Anchor Point</name>
                           <value>
                              <horiz>0</horiz>
                              <vert>0</vert>
                           </value>
                        </parameter>
                        <parameter authoringApp="PremierePro">
                           <parameterid>antiflicker</parameterid>
                           <name>Anti-flicker Filter</name>
                           <valuemin>0.0</valuemin>
                           <valuemax>1.0</valuemax>
                           <value>0</value>
                        </parameter>
                     </effect>
                  </filter>
                  <link>
                     <linkclipref>clipitem-472</linkclipref>
                     <mediatype>video</mediatype>
                     <trackindex>1</trackindex>
                     <clipindex>16</clipindex>
                  </link>
                  <link>
                     <linkclipref>clipitem-633</linkclipref>
                     <mediatype>audio</mediatype>
                     <trackindex>1</trackindex>
                     <clipindex>15</clipindex>
                     <groupindex>1</groupindex>
                  </link>
                  <link>
                     <linkclipref>clipitem-666</linkclipref>
                     <mediatype>audio</mediatype>
                     <trackindex>2</trackindex>
                     <clipindex>15</clipindex>
                     <groupindex>1</groupindex>
                  </link>
                  <logginginfo>
                     <description />
                     <scene />
                     <shottake />
                     <lognote />
                     <good />
                     <originalvideofilename />
                     <originalaudiofilename />
                  </logginginfo>
                  <colorinfo>
                     <lut />
                     <lut1 />
                     <asc_sop />
                     <asc_sat />
                     <lut2 />
                  </colorinfo>
                  <labels>
                     <label2>Iris</label2>
                  </labels>
               </clipitem>
               <clipitem id="clipitem-473">
                  <masterclipid>masterclip-250</masterclipid>
                  <name>mymovie.mov</name>
                  <enabled>TRUE</enabled>
                  <duration>3502</duration>
                  <rate>
                     <timebase>24</timebase>
                     <ntsc>TRUE</ntsc>
                  </rate>
                  <start>1675</start>
                  <end>1734</end>
                  <in>1660</in>
                  <out>1719</out>
                  <pproTicksIn>17587009440000</pproTicksIn>
                  <pproTicksOut>18212089896000</pproTicksOut>
                  <alphatype>none</alphatype>
                  <file id="file-243" />
                  <filter>
                     <effect>
                        <name>Basic Motion</name>
                        <effectid>basic</effectid>
                        <effectcategory>motion</effectcategory>
                        <effecttype>motion</effecttype>
                        <mediatype>video</mediatype>
                        <pproBypass>false</pproBypass>
                        <parameter authoringApp="PremierePro">
                           <parameterid>scale</parameterid>
                           <name>Scale</name>
                           <valuemin>0</valuemin>
                           <valuemax>1000</valuemax>
                           <value>93.8</value>
                        </parameter>
                        <parameter authoringApp="PremierePro">
                           <parameterid>rotation</parameterid>
                           <name>Rotation</name>
                           <valuemin>-8640</valuemin>
                           <valuemax>8640</valuemax>
                           <value>0</value>
                        </parameter>
                        <parameter authoringApp="PremierePro">
                           <parameterid>center</parameterid>
                           <name>Center</name>
                           <value>
                              <horiz>0</horiz>
                              <vert>0</vert>
                           </value>
                        </parameter>
                        <parameter authoringApp="PremierePro">
                           <parameterid>centerOffset</parameterid>
                           <name>Anchor Point</name>
                           <value>
                              <horiz>0</horiz>
                              <vert>0</vert>
                           </value>
                        </parameter>
                        <parameter authoringApp="PremierePro">
                           <parameterid>antiflicker</parameterid>
                           <name>Anti-flicker Filter</name>
                           <valuemin>0.0</valuemin>
                           <valuemax>1.0</valuemax>
                           <value>0</value>
                        </parameter>
                     </effect>
                  </filter>
                  <link>
                     <linkclipref>clipitem-473</linkclipref>
                     <mediatype>video</mediatype>
                     <trackindex>1</trackindex>
                     <clipindex>17</clipindex>
                  </link>
                  <link>
                     <linkclipref>clipitem-634</linkclipref>
                     <mediatype>audio</mediatype>
                     <trackindex>1</trackindex>
                     <clipindex>16</clipindex>
                     <groupindex>1</groupindex>
                  </link>
                  <link>
                     <linkclipref>clipitem-667</linkclipref>
                     <mediatype>audio</mediatype>
                     <trackindex>2</trackindex>
                     <clipindex>16</clipindex>
                     <groupindex>1</groupindex>
                  </link>
                  <logginginfo>
                     <description />
                     <scene />
                     <shottake />
                     <lognote />
                     <good />
                     <originalvideofilename />
                     <originalaudiofilename />
                  </logginginfo>
                  <colorinfo>
                     <lut />
                     <lut1 />
                     <asc_sop />
                     <asc_sat />
                     <lut2 />
                  </colorinfo>
                  <labels>
                     <label2>Iris</label2>
                  </labels>
               </clipitem>
               <clipitem id="clipitem-474">
                  <masterclipid>masterclip-250</masterclipid>
                  <name>mymovie.mov</name>
                  <enabled>TRUE</enabled>
                  <duration>3502</duration>
                  <rate>
                     <timebase>24</timebase>
                     <ntsc>TRUE</ntsc>
                  </rate>
                  <start>1734</start>
                  <end>1802</end>
                  <in>1719</in>
                  <out>1787</out>
                  <pproTicksIn>18212089896000</pproTicksIn>
                  <pproTicksOut>18932521608000</pproTicksOut>
                  <alphatype>none</alphatype>
                  <file id="file-243" />
                  <filter>
                     <effect>
                        <name>Basic Motion</name>
                        <effectid>basic</effectid>
                        <effectcategory>motion</effectcategory>
                        <effecttype>motion</effecttype>
                        <mediatype>video</mediatype>
                        <pproBypass>false</pproBypass>
                        <parameter authoringApp="PremierePro">
                           <parameterid>scale</parameterid>
                           <name>Scale</name>
                           <valuemin>0</valuemin>
                           <valuemax>1000</valuemax>
                           <value>93.8</value>
                        </parameter>
                        <parameter authoringApp="PremierePro">
                           <parameterid>rotation</parameterid>
                           <name>Rotation</name>
                           <valuemin>-8640</valuemin>
                           <valuemax>8640</valuemax>
                           <value>0</value>
                        </parameter>
                        <parameter authoringApp="PremierePro">
                           <parameterid>center</parameterid>
                           <name>Center</name>
                           <value>
                              <horiz>0</horiz>
                              <vert>0</vert>
                           </value>
                        </parameter>
                        <parameter authoringApp="PremierePro">
                           <parameterid>centerOffset</parameterid>
                           <name>Anchor Point</name>
                           <value>
                              <horiz>0</horiz>
                              <vert>0</vert>
                           </value>
                        </parameter>
                        <parameter authoringApp="PremierePro">
                           <parameterid>antiflicker</parameterid>
                           <name>Anti-flicker Filter</name>
                           <valuemin>0.0</valuemin>
                           <valuemax>1.0</valuemax>
                           <value>0</value>
                        </parameter>
                     </effect>
                  </filter>
                  <link>
                     <linkclipref>clipitem-474</linkclipref>
                     <mediatype>video</mediatype>
                     <trackindex>1</trackindex>
                     <clipindex>18</clipindex>
                  </link>
                  <link>
                     <linkclipref>clipitem-635</linkclipref>
                     <mediatype>audio</mediatype>
                     <trackindex>1</trackindex>
                     <clipindex>17</clipindex>
                     <groupindex>1</groupindex>
                  </link>
                  <link>
                     <linkclipref>clipitem-668</linkclipref>
                     <mediatype>audio</mediatype>
                     <trackindex>2</trackindex>
                     <clipindex>17</clipindex>
                     <groupindex>1</groupindex>
                  </link>
                  <logginginfo>
                     <description />
                     <scene />
                     <shottake />
                     <lognote />
                     <good />
                     <originalvideofilename />
                     <originalaudiofilename />
                  </logginginfo>
                  <colorinfo>
                     <lut />
                     <lut1 />
                     <asc_sop />
                     <asc_sat />
                     <lut2 />
                  </colorinfo>
                  <labels>
                     <label2>Iris</label2>
                  </labels>
               </clipitem>
               <clipitem id="clipitem-475">
                  <masterclipid>masterclip-250</masterclipid>
                  <name>mymovie.mov</name>
                  <enabled>TRUE</enabled>
                  <duration>3502</duration>
                  <rate>
                     <timebase>24</timebase>
                     <ntsc>TRUE</ntsc>
                  </rate>
                  <start>1802</start>
                  <end>1862</end>
                  <in>1787</in>
                  <out>1847</out>
                  <pproTicksIn>18932521608000</pproTicksIn>
                  <pproTicksOut>19568196648000</pproTicksOut>
                  <alphatype>none</alphatype>
                  <file id="file-243" />
                  <filter>
                     <effect>
                        <name>Basic Motion</name>
                        <effectid>basic</effectid>
                        <effectcategory>motion</effectcategory>
                        <effecttype>motion</effecttype>
                        <mediatype>video</mediatype>
                        <pproBypass>false</pproBypass>
                        <parameter authoringApp="PremierePro">
                           <parameterid>scale</parameterid>
                           <name>Scale</name>
                           <valuemin>0</valuemin>
                           <valuemax>1000</valuemax>
                           <value>93.8</value>
                        </parameter>
                        <parameter authoringApp="PremierePro">
                           <parameterid>rotation</parameterid>
                           <name>Rotation</name>
                           <valuemin>-8640</valuemin>
                           <valuemax>8640</valuemax>
                           <value>0</value>
                        </parameter>
                        <parameter authoringApp="PremierePro">
                           <parameterid>center</parameterid>
                           <name>Center</name>
                           <value>
                              <horiz>0</horiz>
                              <vert>0</vert>
                           </value>
                        </parameter>
                        <parameter authoringApp="PremierePro">
                           <parameterid>centerOffset</parameterid>
                           <name>Anchor Point</name>
                           <value>
                              <horiz>0</horiz>
                              <vert>0</vert>
                           </value>
                        </parameter>
                        <parameter authoringApp="PremierePro">
                           <parameterid>antiflicker</parameterid>
                           <name>Anti-flicker Filter</name>
                           <valuemin>0.0</valuemin>
                           <valuemax>1.0</valuemax>
                           <value>0</value>
                        </parameter>
                     </effect>
                  </filter>
                  <link>
                     <linkclipref>clipitem-475</linkclipref>
                     <mediatype>video</mediatype>
                     <trackindex>1</trackindex>
                     <clipindex>19</clipindex>
                  </link>
                  <link>
                     <linkclipref>clipitem-636</linkclipref>
                     <mediatype>audio</mediatype>
                     <trackindex>1</trackindex>
                     <clipindex>18</clipindex>
                     <groupindex>1</groupindex>
                  </link>
                  <link>
                     <linkclipref>clipitem-669</linkclipref>
                     <mediatype>audio</mediatype>
                     <trackindex>2</trackindex>
                     <clipindex>18</clipindex>
                     <groupindex>1</groupindex>
                  </link>
                  <logginginfo>
                     <description />
                     <scene />
                     <shottake />
                     <lognote />
                     <good />
                     <originalvideofilename />
                     <originalaudiofilename />
                  </logginginfo>
                  <colorinfo>
                     <lut />
                     <lut1 />
                     <asc_sop />
                     <asc_sat />
                     <lut2 />
                  </colorinfo>
                  <labels>
                     <label2>Iris</label2>
                  </labels>
               </clipitem>
               <clipitem id="clipitem-476">
                  <masterclipid>masterclip-250</masterclipid>
                  <name>mymovie.mov</name>
                  <enabled>TRUE</enabled>
                  <duration>3502</duration>
                  <rate>
                     <timebase>24</timebase>
                     <ntsc>TRUE</ntsc>
                  </rate>
                  <start>1862</start>
                  <end>1975</end>
                  <in>1847</in>
                  <out>1960</out>
                  <pproTicksIn>19568196648000</pproTicksIn>
                  <pproTicksOut>20765384640000</pproTicksOut>
                  <alphatype>none</alphatype>
                  <file id="file-243" />
                  <filter>
                     <effect>
                        <name>Basic Motion</name>
                        <effectid>basic</effectid>
                        <effectcategory>motion</effectcategory>
                        <effecttype>motion</effecttype>
                        <mediatype>video</mediatype>
                        <pproBypass>false</pproBypass>
                        <parameter authoringApp="PremierePro">
                           <parameterid>scale</parameterid>
                           <name>Scale</name>
                           <valuemin>0</valuemin>
                           <valuemax>1000</valuemax>
                           <value>93.8</value>
                        </parameter>
                        <parameter authoringApp="PremierePro">
                           <parameterid>rotation</parameterid>
                           <name>Rotation</name>
                           <valuemin>-8640</valuemin>
                           <valuemax>8640</valuemax>
                           <value>0</value>
                        </parameter>
                        <parameter authoringApp="PremierePro">
                           <parameterid>center</parameterid>
                           <name>Center</name>
                           <value>
                              <horiz>0</horiz>
                              <vert>0</vert>
                           </value>
                        </parameter>
                        <parameter authoringApp="PremierePro">
                           <parameterid>centerOffset</parameterid>
                           <name>Anchor Point</name>
                           <value>
                              <horiz>0</horiz>
                              <vert>0</vert>
                           </value>
                        </parameter>
                        <parameter authoringApp="PremierePro">
                           <parameterid>antiflicker</parameterid>
                           <name>Anti-flicker Filter</name>
                           <valuemin>0.0</valuemin>
                           <valuemax>1.0</valuemax>
                           <value>0</value>
                        </parameter>
                     </effect>
                  </filter>
                  <link>
                     <linkclipref>clipitem-476</linkclipref>
                     <mediatype>video</mediatype>
                     <trackindex>1</trackindex>
                     <clipindex>20</clipindex>
                  </link>
                  <link>
                     <linkclipref>clipitem-637</linkclipref>
                     <mediatype>audio</mediatype>
                     <trackindex>1</trackindex>
                     <clipindex>19</clipindex>
                     <groupindex>1</groupindex>
                  </link>
                  <link>
                     <linkclipref>clipitem-670</linkclipref>
                     <mediatype>audio</mediatype>
                     <trackindex>2</trackindex>
                     <clipindex>19</clipindex>
                     <groupindex>1</groupindex>
                  </link>
                  <logginginfo>
                     <description />
                     <scene />
                     <shottake />
                     <lognote />
                     <good />
                     <originalvideofilename />
                     <originalaudiofilename />
                  </logginginfo>
                  <colorinfo>
                     <lut />
                     <lut1 />
                     <asc_sop />
                     <asc_sat />
                     <lut2 />
                  </colorinfo>
                  <labels>
                     <label2>Iris</label2>
                  </labels>
               </clipitem>
               <clipitem id="clipitem-477">
                  <masterclipid>masterclip-250</masterclipid>
                  <name>mymovie.mov</name>
                  <enabled>TRUE</enabled>
                  <duration>3502</duration>
                  <rate>
                     <timebase>24</timebase>
                     <ntsc>TRUE</ntsc>
                  </rate>
                  <start>1975</start>
                  <end>2046</end>
                  <in>1960</in>
                  <out>2031</out>
                  <pproTicksIn>20765384640000</pproTicksIn>
                  <pproTicksOut>21517600104000</pproTicksOut>
                  <alphatype>none</alphatype>
                  <file id="file-243" />
                  <filter>
                     <effect>
                        <name>Basic Motion</name>
                        <effectid>basic</effectid>
                        <effectcategory>motion</effectcategory>
                        <effecttype>motion</effecttype>
                        <mediatype>video</mediatype>
                        <pproBypass>false</pproBypass>
                        <parameter authoringApp="PremierePro">
                           <parameterid>scale</parameterid>
                           <name>Scale</name>
                           <valuemin>0</valuemin>
                           <valuemax>1000</valuemax>
                           <value>93.8</value>
                        </parameter>
                        <parameter authoringApp="PremierePro">
                           <parameterid>rotation</parameterid>
                           <name>Rotation</name>
                           <valuemin>-8640</valuemin>
                           <valuemax>8640</valuemax>
                           <value>0</value>
                        </parameter>
                        <parameter authoringApp="PremierePro">
                           <parameterid>center</parameterid>
                           <name>Center</name>
                           <value>
                              <horiz>0</horiz>
                              <vert>0</vert>
                           </value>
                        </parameter>
                        <parameter authoringApp="PremierePro">
                           <parameterid>centerOffset</parameterid>
                           <name>Anchor Point</name>
                           <value>
                              <horiz>0</horiz>
                              <vert>0</vert>
                           </value>
                        </parameter>
                        <parameter authoringApp="PremierePro">
                           <parameterid>antiflicker</parameterid>
                           <name>Anti-flicker Filter</name>
                           <valuemin>0.0</valuemin>
                           <valuemax>1.0</valuemax>
                           <value>0</value>
                        </parameter>
                     </effect>
                  </filter>
                  <link>
                     <linkclipref>clipitem-477</linkclipref>
                     <mediatype>video</mediatype>
                     <trackindex>1</trackindex>
                     <clipindex>21</clipindex>
                  </link>
                  <link>
                     <linkclipref>clipitem-638</linkclipref>
                     <mediatype>audio</mediatype>
                     <trackindex>1</trackindex>
                     <clipindex>20</clipindex>
                     <groupindex>1</groupindex>
                  </link>
                  <link>
                     <linkclipref>clipitem-671</linkclipref>
                     <mediatype>audio</mediatype>
                     <trackindex>2</trackindex>
                     <clipindex>20</clipindex>
                     <groupindex>1</groupindex>
                  </link>
                  <logginginfo>
                     <description />
                     <scene />
                     <shottake />
                     <lognote />
                     <good />
                     <originalvideofilename />
                     <originalaudiofilename />
                  </logginginfo>
                  <colorinfo>
                     <lut />
                     <lut1 />
                     <asc_sop />
                     <asc_sat />
                     <lut2 />
                  </colorinfo>
                  <labels>
                     <label2>Iris</label2>
                  </labels>
               </clipitem>
               <clipitem id="clipitem-478">
                  <masterclipid>masterclip-250</masterclipid>
                  <name>mymovie.mov</name>
                  <enabled>TRUE</enabled>
                  <duration>3502</duration>
                  <rate>
                     <timebase>24</timebase>
                     <ntsc>TRUE</ntsc>
                  </rate>
                  <start>2046</start>
                  <end>2094</end>
                  <in>2031</in>
                  <out>2079</out>
                  <pproTicksIn>21517600104000</pproTicksIn>
                  <pproTicksOut>22026140136000</pproTicksOut>
                  <alphatype>none</alphatype>
                  <file id="file-243" />
                  <filter>
                     <effect>
                        <name>Basic Motion</name>
                        <effectid>basic</effectid>
                        <effectcategory>motion</effectcategory>
                        <effecttype>motion</effecttype>
                        <mediatype>video</mediatype>
                        <pproBypass>false</pproBypass>
                        <parameter authoringApp="PremierePro">
                           <parameterid>scale</parameterid>
                           <name>Scale</name>
                           <valuemin>0</valuemin>
                           <valuemax>1000</valuemax>
                           <value>93.8</value>
                        </parameter>
                        <parameter authoringApp="PremierePro">
                           <parameterid>rotation</parameterid>
                           <name>Rotation</name>
                           <valuemin>-8640</valuemin>
                           <valuemax>8640</valuemax>
                           <value>0</value>
                        </parameter>
                        <parameter authoringApp="PremierePro">
                           <parameterid>center</parameterid>
                           <name>Center</name>
                           <value>
                              <horiz>0</horiz>
                              <vert>0</vert>
                           </value>
                        </parameter>
                        <parameter authoringApp="PremierePro">
                           <parameterid>centerOffset</parameterid>
                           <name>Anchor Point</name>
                           <value>
                              <horiz>0</horiz>
                              <vert>0</vert>
                           </value>
                        </parameter>
                        <parameter authoringApp="PremierePro">
                           <parameterid>antiflicker</parameterid>
                           <name>Anti-flicker Filter</name>
                           <valuemin>0.0</valuemin>
                           <valuemax>1.0</valuemax>
                           <value>0</value>
                        </parameter>
                     </effect>
                  </filter>
                  <link>
                     <linkclipref>clipitem-478</linkclipref>
                     <mediatype>video</mediatype>
                     <trackindex>1</trackindex>
                     <clipindex>22</clipindex>
                  </link>
                  <link>
                     <linkclipref>clipitem-639</linkclipref>
                     <mediatype>audio</mediatype>
                     <trackindex>1</trackindex>
                     <clipindex>21</clipindex>
                     <groupindex>1</groupindex>
                  </link>
                  <link>
                     <linkclipref>clipitem-672</linkclipref>
                     <mediatype>audio</mediatype>
                     <trackindex>2</trackindex>
                     <clipindex>21</clipindex>
                     <groupindex>1</groupindex>
                  </link>
                  <logginginfo>
                     <description />
                     <scene />
                     <shottake />
                     <lognote />
                     <good />
                     <originalvideofilename />
                     <originalaudiofilename />
                  </logginginfo>
                  <colorinfo>
                     <lut />
                     <lut1 />
                     <asc_sop />
                     <asc_sat />
                     <lut2 />
                  </colorinfo>
                  <labels>
                     <label2>Iris</label2>
                  </labels>
               </clipitem>
               <clipitem id="clipitem-479">
                  <masterclipid>masterclip-250</masterclipid>
                  <name>mymovie.mov</name>
                  <enabled>TRUE</enabled>
                  <duration>3502</duration>
                  <rate>
                     <timebase>24</timebase>
                     <ntsc>TRUE</ntsc>
                  </rate>
                  <start>2094</start>
                  <end>2155</end>
                  <in>2079</in>
                  <out>2140</out>
                  <pproTicksIn>22026140136000</pproTicksIn>
                  <pproTicksOut>22672409760000</pproTicksOut>
                  <alphatype>none</alphatype>
                  <file id="file-243" />
                  <filter>
                     <effect>
                        <name>Basic Motion</name>
                        <effectid>basic</effectid>
                        <effectcategory>motion</effectcategory>
                        <effecttype>motion</effecttype>
                        <mediatype>video</mediatype>
                        <pproBypass>false</pproBypass>
                        <parameter authoringApp="PremierePro">
                           <parameterid>scale</parameterid>
                           <name>Scale</name>
                           <valuemin>0</valuemin>
                           <valuemax>1000</valuemax>
                           <value>93.8</value>
                        </parameter>
                        <parameter authoringApp="PremierePro">
                           <parameterid>rotation</parameterid>
                           <name>Rotation</name>
                           <valuemin>-8640</valuemin>
                           <valuemax>8640</valuemax>
                           <value>0</value>
                        </parameter>
                        <parameter authoringApp="PremierePro">
                           <parameterid>center</parameterid>
                           <name>Center</name>
                           <value>
                              <horiz>0</horiz>
                              <vert>0</vert>
                           </value>
                        </parameter>
                        <parameter authoringApp="PremierePro">
                           <parameterid>centerOffset</parameterid>
                           <name>Anchor Point</name>
                           <value>
                              <horiz>0</horiz>
                              <vert>0</vert>
                           </value>
                        </parameter>
                        <parameter authoringApp="PremierePro">
                           <parameterid>antiflicker</parameterid>
                           <name>Anti-flicker Filter</name>
                           <valuemin>0.0</valuemin>
                           <valuemax>1.0</valuemax>
                           <value>0</value>
                        </parameter>
                     </effect>
                  </filter>
                  <link>
                     <linkclipref>clipitem-479</linkclipref>
                     <mediatype>video</mediatype>
                     <trackindex>1</trackindex>
                     <clipindex>23</clipindex>
                  </link>
                  <link>
                     <linkclipref>clipitem-640</linkclipref>
                     <mediatype>audio</mediatype>
                     <trackindex>1</trackindex>
                     <clipindex>22</clipindex>
                     <groupindex>1</groupindex>
                  </link>
                  <link>
                     <linkclipref>clipitem-673</linkclipref>
                     <mediatype>audio</mediatype>
                     <trackindex>2</trackindex>
                     <clipindex>22</clipindex>
                     <groupindex>1</groupindex>
                  </link>
                  <logginginfo>
                     <description />
                     <scene />
                     <shottake />
                     <lognote />
                     <good />
                     <originalvideofilename />
                     <originalaudiofilename />
                  </logginginfo>
                  <colorinfo>
                     <lut />
                     <lut1 />
                     <asc_sop />
                     <asc_sat />
                     <lut2 />
                  </colorinfo>
                  <labels>
                     <label2>Iris</label2>
                  </labels>
               </clipitem>
               <clipitem id="clipitem-480">
                  <masterclipid>masterclip-250</masterclipid>
                  <name>mymovie.mov</name>
                  <enabled>TRUE</enabled>
                  <duration>3502</duration>
                  <rate>
                     <timebase>24</timebase>
                     <ntsc>TRUE</ntsc>
                  </rate>
                  <start>2155</start>
                  <end>2207</end>
                  <in>2140</in>
                  <out>2192</out>
                  <pproTicksIn>22672409760000</pproTicksIn>
                  <pproTicksOut>23223328128000</pproTicksOut>
                  <alphatype>none</alphatype>
                  <file id="file-243" />
                  <filter>
                     <effect>
                        <name>Basic Motion</name>
                        <effectid>basic</effectid>
                        <effectcategory>motion</effectcategory>
                        <effecttype>motion</effecttype>
                        <mediatype>video</mediatype>
                        <pproBypass>false</pproBypass>
                        <parameter authoringApp="PremierePro">
                           <parameterid>scale</parameterid>
                           <name>Scale</name>
                           <valuemin>0</valuemin>
                           <valuemax>1000</valuemax>
                           <value>93.8</value>
                        </parameter>
                        <parameter authoringApp="PremierePro">
                           <parameterid>rotation</parameterid>
                           <name>Rotation</name>
                           <valuemin>-8640</valuemin>
                           <valuemax>8640</valuemax>
                           <value>0</value>
                        </parameter>
                        <parameter authoringApp="PremierePro">
                           <parameterid>center</parameterid>
                           <name>Center</name>
                           <value>
                              <horiz>0</horiz>
                              <vert>0</vert>
                           </value>
                        </parameter>
                        <parameter authoringApp="PremierePro">
                           <parameterid>centerOffset</parameterid>
                           <name>Anchor Point</name>
                           <value>
                              <horiz>0</horiz>
                              <vert>0</vert>
                           </value>
                        </parameter>
                        <parameter authoringApp="PremierePro">
                           <parameterid>antiflicker</parameterid>
                           <name>Anti-flicker Filter</name>
                           <valuemin>0.0</valuemin>
                           <valuemax>1.0</valuemax>
                           <value>0</value>
                        </parameter>
                     </effect>
                  </filter>
                  <link>
                     <linkclipref>clipitem-480</linkclipref>
                     <mediatype>video</mediatype>
                     <trackindex>1</trackindex>
                     <clipindex>24</clipindex>
                  </link>
                  <link>
                     <linkclipref>clipitem-641</linkclipref>
                     <mediatype>audio</mediatype>
                     <trackindex>1</trackindex>
                     <clipindex>23</clipindex>
                     <groupindex>1</groupindex>
                  </link>
                  <link>
                     <linkclipref>clipitem-674</linkclipref>
                     <mediatype>audio</mediatype>
                     <trackindex>2</trackindex>
                     <clipindex>23</clipindex>
                     <groupindex>1</groupindex>
                  </link>
                  <logginginfo>
                     <description />
                     <scene />
                     <shottake />
                     <lognote />
                     <good />
                     <originalvideofilename />
                     <originalaudiofilename />
                  </logginginfo>
                  <colorinfo>
                     <lut />
                     <lut1 />
                     <asc_sop />
                     <asc_sat />
                     <lut2 />
                  </colorinfo>
                  <labels>
                     <label2>Iris</label2>
                  </labels>
               </clipitem>
               <clipitem id="clipitem-481">
                  <masterclipid>masterclip-250</masterclipid>
                  <name>mymovie.mov</name>
                  <enabled>TRUE</enabled>
                  <duration>3502</duration>
                  <rate>
                     <timebase>24</timebase>
                     <ntsc>TRUE</ntsc>
                  </rate>
                  <start>2207</start>
                  <end>2259</end>
                  <in>2192</in>
                  <out>2244</out>
                  <pproTicksIn>23223328128000</pproTicksIn>
                  <pproTicksOut>23774246496000</pproTicksOut>
                  <alphatype>none</alphatype>
                  <file id="file-243" />
                  <filter>
                     <effect>
                        <name>Basic Motion</name>
                        <effectid>basic</effectid>
                        <effectcategory>motion</effectcategory>
                        <effecttype>motion</effecttype>
                        <mediatype>video</mediatype>
                        <pproBypass>false</pproBypass>
                        <parameter authoringApp="PremierePro">
                           <parameterid>scale</parameterid>
                           <name>Scale</name>
                           <valuemin>0</valuemin>
                           <valuemax>1000</valuemax>
                           <value>93.8</value>
                        </parameter>
                        <parameter authoringApp="PremierePro">
                           <parameterid>rotation</parameterid>
                           <name>Rotation</name>
                           <valuemin>-8640</valuemin>
                           <valuemax>8640</valuemax>
                           <value>0</value>
                        </parameter>
                        <parameter authoringApp="PremierePro">
                           <parameterid>center</parameterid>
                           <name>Center</name>
                           <value>
                              <horiz>0</horiz>
                              <vert>0</vert>
                           </value>
                        </parameter>
                        <parameter authoringApp="PremierePro">
                           <parameterid>centerOffset</parameterid>
                           <name>Anchor Point</name>
                           <value>
                              <horiz>0</horiz>
                              <vert>0</vert>
                           </value>
                        </parameter>
                        <parameter authoringApp="PremierePro">
                           <parameterid>antiflicker</parameterid>
                           <name>Anti-flicker Filter</name>
                           <valuemin>0.0</valuemin>
                           <valuemax>1.0</valuemax>
                           <value>0</value>
                        </parameter>
                     </effect>
                  </filter>
                  <link>
                     <linkclipref>clipitem-481</linkclipref>
                     <mediatype>video</mediatype>
                     <trackindex>1</trackindex>
                     <clipindex>25</clipindex>
                  </link>
                  <link>
                     <linkclipref>clipitem-642</linkclipref>
                     <mediatype>audio</mediatype>
                     <trackindex>1</trackindex>
                     <clipindex>24</clipindex>
                     <groupindex>1</groupindex>
                  </link>
                  <link>
                     <linkclipref>clipitem-675</linkclipref>
                     <mediatype>audio</mediatype>
                     <trackindex>2</trackindex>
                     <clipindex>24</clipindex>
                     <groupindex>1</groupindex>
                  </link>
                  <logginginfo>
                     <description />
                     <scene />
                     <shottake />
                     <lognote />
                     <good />
                     <originalvideofilename />
                     <originalaudiofilename />
                  </logginginfo>
                  <colorinfo>
                     <lut />
                     <lut1 />
                     <asc_sop />
                     <asc_sat />
                     <lut2 />
                  </colorinfo>
                  <labels>
                     <label2>Iris</label2>
                  </labels>
               </clipitem>
               <clipitem id="clipitem-482">
                  <masterclipid>masterclip-250</masterclipid>
                  <name>mymovie.mov</name>
                  <enabled>TRUE</enabled>
                  <duration>3502</duration>
                  <rate>
                     <timebase>24</timebase>
                     <ntsc>TRUE</ntsc>
                  </rate>
                  <start>2259</start>
                  <end>2306</end>
                  <in>2244</in>
                  <out>2291</out>
                  <pproTicksIn>23774246496000</pproTicksIn>
                  <pproTicksOut>24272191944000</pproTicksOut>
                  <alphatype>none</alphatype>
                  <file id="file-243" />
                  <filter>
                     <effect>
                        <name>Basic Motion</name>
                        <effectid>basic</effectid>
                        <effectcategory>motion</effectcategory>
                        <effecttype>motion</effecttype>
                        <mediatype>video</mediatype>
                        <pproBypass>false</pproBypass>
                        <parameter authoringApp="PremierePro">
                           <parameterid>scale</parameterid>
                           <name>Scale</name>
                           <valuemin>0</valuemin>
                           <valuemax>1000</valuemax>
                           <value>93.8</value>
                        </parameter>
                        <parameter authoringApp="PremierePro">
                           <parameterid>rotation</parameterid>
                           <name>Rotation</name>
                           <valuemin>-8640</valuemin>
                           <valuemax>8640</valuemax>
                           <value>0</value>
                        </parameter>
                        <parameter authoringApp="PremierePro">
                           <parameterid>center</parameterid>
                           <name>Center</name>
                           <value>
                              <horiz>0</horiz>
                              <vert>0</vert>
                           </value>
                        </parameter>
                        <parameter authoringApp="PremierePro">
                           <parameterid>centerOffset</parameterid>
                           <name>Anchor Point</name>
                           <value>
                              <horiz>0</horiz>
                              <vert>0</vert>
                           </value>
                        </parameter>
                        <parameter authoringApp="PremierePro">
                           <parameterid>antiflicker</parameterid>
                           <name>Anti-flicker Filter</name>
                           <valuemin>0.0</valuemin>
                           <valuemax>1.0</valuemax>
                           <value>0</value>
                        </parameter>
                     </effect>
                  </filter>
                  <link>
                     <linkclipref>clipitem-482</linkclipref>
                     <mediatype>video</mediatype>
                     <trackindex>1</trackindex>
                     <clipindex>26</clipindex>
                  </link>
                  <link>
                     <linkclipref>clipitem-643</linkclipref>
                     <mediatype>audio</mediatype>
                     <trackindex>1</trackindex>
                     <clipindex>25</clipindex>
                     <groupindex>1</groupindex>
                  </link>
                  <link>
                     <linkclipref>clipitem-676</linkclipref>
                     <mediatype>audio</mediatype>
                     <trackindex>2</trackindex>
                     <clipindex>25</clipindex>
                     <groupindex>1</groupindex>
                  </link>
                  <logginginfo>
                     <description />
                     <scene />
                     <shottake />
                     <lognote />
                     <good />
                     <originalvideofilename />
                     <originalaudiofilename />
                  </logginginfo>
                  <colorinfo>
                     <lut />
                     <lut1 />
                     <asc_sop />
                     <asc_sat />
                     <lut2 />
                  </colorinfo>
                  <labels>
                     <label2>Iris</label2>
                  </labels>
               </clipitem>
               <clipitem id="clipitem-483">
                  <masterclipid>masterclip-250</masterclipid>
                  <name>mymovie.mov</name>
                  <enabled>TRUE</enabled>
                  <duration>3502</duration>
                  <rate>
                     <timebase>24</timebase>
                     <ntsc>TRUE</ntsc>
                  </rate>
                  <start>2306</start>
                  <end>2388</end>
                  <in>2291</in>
                  <out>2373</out>
                  <pproTicksIn>24272191944000</pproTicksIn>
                  <pproTicksOut>25140947832000</pproTicksOut>
                  <alphatype>none</alphatype>
                  <file id="file-243" />
                  <filter>
                     <effect>
                        <name>Basic Motion</name>
                        <effectid>basic</effectid>
                        <effectcategory>motion</effectcategory>
                        <effecttype>motion</effecttype>
                        <mediatype>video</mediatype>
                        <pproBypass>false</pproBypass>
                        <parameter authoringApp="PremierePro">
                           <parameterid>scale</parameterid>
                           <name>Scale</name>
                           <valuemin>0</valuemin>
                           <valuemax>1000</valuemax>
                           <value>93.8</value>
                        </parameter>
                        <parameter authoringApp="PremierePro">
                           <parameterid>rotation</parameterid>
                           <name>Rotation</name>
                           <valuemin>-8640</valuemin>
                           <valuemax>8640</valuemax>
                           <value>0</value>
                        </parameter>
                        <parameter authoringApp="PremierePro">
                           <parameterid>center</parameterid>
                           <name>Center</name>
                           <value>
                              <horiz>0</horiz>
                              <vert>0</vert>
                           </value>
                        </parameter>
                        <parameter authoringApp="PremierePro">
                           <parameterid>centerOffset</parameterid>
                           <name>Anchor Point</name>
                           <value>
                              <horiz>0</horiz>
                              <vert>0</vert>
                           </value>
                        </parameter>
                        <parameter authoringApp="PremierePro">
                           <parameterid>antiflicker</parameterid>
                           <name>Anti-flicker Filter</name>
                           <valuemin>0.0</valuemin>
                           <valuemax>1.0</valuemax>
                           <value>0</value>
                        </parameter>
                     </effect>
                  </filter>
                  <link>
                     <linkclipref>clipitem-483</linkclipref>
                     <mediatype>video</mediatype>
                     <trackindex>1</trackindex>
                     <clipindex>27</clipindex>
                  </link>
                  <link>
                     <linkclipref>clipitem-644</linkclipref>
                     <mediatype>audio</mediatype>
                     <trackindex>1</trackindex>
                     <clipindex>26</clipindex>
                     <groupindex>1</groupindex>
                  </link>
                  <link>
                     <linkclipref>clipitem-677</linkclipref>
                     <mediatype>audio</mediatype>
                     <trackindex>2</trackindex>
                     <clipindex>26</clipindex>
                     <groupindex>1</groupindex>
                  </link>
                  <logginginfo>
                     <description />
                     <scene />
                     <shottake />
                     <lognote />
                     <good />
                     <originalvideofilename />
                     <originalaudiofilename />
                  </logginginfo>
                  <colorinfo>
                     <lut />
                     <lut1 />
                     <asc_sop />
                     <asc_sat />
                     <lut2 />
                  </colorinfo>
                  <labels>
                     <label2>Iris</label2>
                  </labels>
               </clipitem>
               <clipitem id="clipitem-484">
                  <masterclipid>masterclip-250</masterclipid>
                  <name>mymovie.mov</name>
                  <enabled>TRUE</enabled>
                  <duration>3502</duration>
                  <rate>
                     <timebase>24</timebase>
                     <ntsc>TRUE</ntsc>
                  </rate>
                  <start>2388</start>
                  <end>2585</end>
                  <in>2373</in>
                  <out>2570</out>
                  <pproTicksIn>25140947832000</pproTicksIn>
                  <pproTicksOut>27228080880000</pproTicksOut>
                  <alphatype>none</alphatype>
                  <file id="file-243" />
                  <filter>
                     <effect>
                        <name>Basic Motion</name>
                        <effectid>basic</effectid>
                        <effectcategory>motion</effectcategory>
                        <effecttype>motion</effecttype>
                        <mediatype>video</mediatype>
                        <pproBypass>false</pproBypass>
                        <parameter authoringApp="PremierePro">
                           <parameterid>scale</parameterid>
                           <name>Scale</name>
                           <valuemin>0</valuemin>
                           <valuemax>1000</valuemax>
                           <value>93.8</value>
                        </parameter>
                        <parameter authoringApp="PremierePro">
                           <parameterid>rotation</parameterid>
                           <name>Rotation</name>
                           <valuemin>-8640</valuemin>
                           <valuemax>8640</valuemax>
                           <value>0</value>
                        </parameter>
                        <parameter authoringApp="PremierePro">
                           <parameterid>center</parameterid>
                           <name>Center</name>
                           <value>
                              <horiz>0</horiz>
                              <vert>0</vert>
                           </value>
                        </parameter>
                        <parameter authoringApp="PremierePro">
                           <parameterid>centerOffset</parameterid>
                           <name>Anchor Point</name>
                           <value>
                              <horiz>0</horiz>
                              <vert>0</vert>
                           </value>
                        </parameter>
                        <parameter authoringApp="PremierePro">
                           <parameterid>antiflicker</parameterid>
                           <name>Anti-flicker Filter</name>
                           <valuemin>0.0</valuemin>
                           <valuemax>1.0</valuemax>
                           <value>0</value>
                        </parameter>
                     </effect>
                  </filter>
                  <link>
                     <linkclipref>clipitem-484</linkclipref>
                     <mediatype>video</mediatype>
                     <trackindex>1</trackindex>
                     <clipindex>28</clipindex>
                  </link>
                  <link>
                     <linkclipref>clipitem-645</linkclipref>
                     <mediatype>audio</mediatype>
                     <trackindex>1</trackindex>
                     <clipindex>27</clipindex>
                     <groupindex>1</groupindex>
                  </link>
                  <link>
                     <linkclipref>clipitem-678</linkclipref>
                     <mediatype>audio</mediatype>
                     <trackindex>2</trackindex>
                     <clipindex>27</clipindex>
                     <groupindex>1</groupindex>
                  </link>
                  <logginginfo>
                     <description />
                     <scene />
                     <shottake />
                     <lognote />
                     <good />
                     <originalvideofilename />
                     <originalaudiofilename />
                  </logginginfo>
                  <colorinfo>
                     <lut />
                     <lut1 />
                     <asc_sop />
                     <asc_sat />
                     <lut2 />
                  </colorinfo>
                  <labels>
                     <label2>Iris</label2>
                  </labels>
               </clipitem>
               <clipitem id="clipitem-485">
                  <masterclipid>masterclip-250</masterclipid>
                  <name>mymovie.mov</name>
                  <enabled>TRUE</enabled>
                  <duration>3502</duration>
                  <rate>
                     <timebase>24</timebase>
                     <ntsc>TRUE</ntsc>
                  </rate>
                  <start>2585</start>
                  <end>2692</end>
                  <in>2570</in>
                  <out>2677</out>
                  <pproTicksIn>27228080880000</pproTicksIn>
                  <pproTicksOut>28361701368000</pproTicksOut>
                  <alphatype>none</alphatype>
                  <file id="file-243" />
                  <filter>
                     <effect>
                        <name>Basic Motion</name>
                        <effectid>basic</effectid>
                        <effectcategory>motion</effectcategory>
                        <effecttype>motion</effecttype>
                        <mediatype>video</mediatype>
                        <pproBypass>false</pproBypass>
                        <parameter authoringApp="PremierePro">
                           <parameterid>scale</parameterid>
                           <name>Scale</name>
                           <valuemin>0</valuemin>
                           <valuemax>1000</valuemax>
                           <value>93.8</value>
                        </parameter>
                        <parameter authoringApp="PremierePro">
                           <parameterid>rotation</parameterid>
                           <name>Rotation</name>
                           <valuemin>-8640</valuemin>
                           <valuemax>8640</valuemax>
                           <value>0</value>
                        </parameter>
                        <parameter authoringApp="PremierePro">
                           <parameterid>center</parameterid>
                           <name>Center</name>
                           <value>
                              <horiz>0</horiz>
                              <vert>0</vert>
                           </value>
                        </parameter>
                        <parameter authoringApp="PremierePro">
                           <parameterid>centerOffset</parameterid>
                           <name>Anchor Point</name>
                           <value>
                              <horiz>0</horiz>
                              <vert>0</vert>
                           </value>
                        </parameter>
                        <parameter authoringApp="PremierePro">
                           <parameterid>antiflicker</parameterid>
                           <name>Anti-flicker Filter</name>
                           <valuemin>0.0</valuemin>
                           <valuemax>1.0</valuemax>
                           <value>0</value>
                        </parameter>
                     </effect>
                  </filter>
                  <link>
                     <linkclipref>clipitem-485</linkclipref>
                     <mediatype>video</mediatype>
                     <trackindex>1</trackindex>
                     <clipindex>29</clipindex>
                  </link>
                  <link>
                     <linkclipref>clipitem-646</linkclipref>
                     <mediatype>audio</mediatype>
                     <trackindex>1</trackindex>
                     <clipindex>28</clipindex>
                     <groupindex>1</groupindex>
                  </link>
                  <link>
                     <linkclipref>clipitem-679</linkclipref>
                     <mediatype>audio</mediatype>
                     <trackindex>2</trackindex>
                     <clipindex>28</clipindex>
                     <groupindex>1</groupindex>
                  </link>
                  <logginginfo>
                     <description />
                     <scene />
                     <shottake />
                     <lognote />
                     <good />
                     <originalvideofilename />
                     <originalaudiofilename />
                  </logginginfo>
                  <colorinfo>
                     <lut />
                     <lut1 />
                     <asc_sop />
                     <asc_sat />
                     <lut2 />
                  </colorinfo>
                  <labels>
                     <label2>Iris</label2>
                  </labels>
               </clipitem>
               <clipitem id="clipitem-486">
                  <masterclipid>masterclip-250</masterclipid>
                  <name>mymovie.mov</name>
                  <enabled>TRUE</enabled>
                  <duration>3502</duration>
                  <rate>
                     <timebase>24</timebase>
                     <ntsc>TRUE</ntsc>
                  </rate>
                  <start>2692</start>
                  <end>2819</end>
                  <in>2677</in>
                  <out>2804</out>
                  <pproTicksIn>28361701368000</pproTicksIn>
                  <pproTicksOut>29707213536000</pproTicksOut>
                  <alphatype>none</alphatype>
                  <file id="file-243" />
                  <filter>
                     <effect>
                        <name>Basic Motion</name>
                        <effectid>basic</effectid>
                        <effectcategory>motion</effectcategory>
                        <effecttype>motion</effecttype>
                        <mediatype>video</mediatype>
                        <pproBypass>false</pproBypass>
                        <parameter authoringApp="PremierePro">
                           <parameterid>scale</parameterid>
                           <name>Scale</name>
                           <valuemin>0</valuemin>
                           <valuemax>1000</valuemax>
                           <value>93.8</value>
                        </parameter>
                        <parameter authoringApp="PremierePro">
                           <parameterid>rotation</parameterid>
                           <name>Rotation</name>
                           <valuemin>-8640</valuemin>
                           <valuemax>8640</valuemax>
                           <value>0</value>
                        </parameter>
                        <parameter authoringApp="PremierePro">
                           <parameterid>center</parameterid>
                           <name>Center</name>
                           <value>
                              <horiz>0</horiz>
                              <vert>0</vert>
                           </value>
                        </parameter>
                        <parameter authoringApp="PremierePro">
                           <parameterid>centerOffset</parameterid>
                           <name>Anchor Point</name>
                           <value>
                              <horiz>0</horiz>
                              <vert>0</vert>
                           </value>
                        </parameter>
                        <parameter authoringApp="PremierePro">
                           <parameterid>antiflicker</parameterid>
                           <name>Anti-flicker Filter</name>
                           <valuemin>0.0</valuemin>
                           <valuemax>1.0</valuemax>
                           <value>0</value>
                        </parameter>
                     </effect>
                  </filter>
                  <link>
                     <linkclipref>clipitem-486</linkclipref>
                     <mediatype>video</mediatype>
                     <trackindex>1</trackindex>
                     <clipindex>30</clipindex>
                  </link>
                  <link>
                     <linkclipref>clipitem-647</linkclipref>
                     <mediatype>audio</mediatype>
                     <trackindex>1</trackindex>
                     <clipindex>29</clipindex>
                     <groupindex>1</groupindex>
                  </link>
                  <link>
                     <linkclipref>clipitem-680</linkclipref>
                     <mediatype>audio</mediatype>
                     <trackindex>2</trackindex>
                     <clipindex>29</clipindex>
                     <groupindex>1</groupindex>
                  </link>
                  <logginginfo>
                     <description />
                     <scene />
                     <shottake />
                     <lognote />
                     <good />
                     <originalvideofilename />
                     <originalaudiofilename />
                  </logginginfo>
                  <colorinfo>
                     <lut />
                     <lut1 />
                     <asc_sop />
                     <asc_sat />
                     <lut2 />
                  </colorinfo>
                  <labels>
                     <label2>Iris</label2>
                  </labels>
               </clipitem>
               <clipitem id="clipitem-487">
                  <masterclipid>masterclip-250</masterclipid>
                  <name>mymovie.mov</name>
                  <enabled>TRUE</enabled>
                  <duration>3502</duration>
                  <rate>
                     <timebase>24</timebase>
                     <ntsc>TRUE</ntsc>
                  </rate>
                  <start>2819</start>
                  <end>2938</end>
                  <in>2804</in>
                  <out>2923</out>
                  <pproTicksIn>29707213536000</pproTicksIn>
                  <pproTicksOut>30967969032000</pproTicksOut>
                  <alphatype>none</alphatype>
                  <file id="file-243" />
                  <filter>
                     <effect>
                        <name>Basic Motion</name>
                        <effectid>basic</effectid>
                        <effectcategory>motion</effectcategory>
                        <effecttype>motion</effecttype>
                        <mediatype>video</mediatype>
                        <pproBypass>false</pproBypass>
                        <parameter authoringApp="PremierePro">
                           <parameterid>scale</parameterid>
                           <name>Scale</name>
                           <valuemin>0</valuemin>
                           <valuemax>1000</valuemax>
                           <value>93.8</value>
                        </parameter>
                        <parameter authoringApp="PremierePro">
                           <parameterid>rotation</parameterid>
                           <name>Rotation</name>
                           <valuemin>-8640</valuemin>
                           <valuemax>8640</valuemax>
                           <value>0</value>
                        </parameter>
                        <parameter authoringApp="PremierePro">
                           <parameterid>center</parameterid>
                           <name>Center</name>
                           <value>
                              <horiz>0</horiz>
                              <vert>0</vert>
                           </value>
                        </parameter>
                        <parameter authoringApp="PremierePro">
                           <parameterid>centerOffset</parameterid>
                           <name>Anchor Point</name>
                           <value>
                              <horiz>0</horiz>
                              <vert>0</vert>
                           </value>
                        </parameter>
                        <parameter authoringApp="PremierePro">
                           <parameterid>antiflicker</parameterid>
                           <name>Anti-flicker Filter</name>
                           <valuemin>0.0</valuemin>
                           <valuemax>1.0</valuemax>
                           <value>0</value>
                        </parameter>
                     </effect>
                  </filter>
                  <link>
                     <linkclipref>clipitem-487</linkclipref>
                     <mediatype>video</mediatype>
                     <trackindex>1</trackindex>
                     <clipindex>31</clipindex>
                  </link>
                  <link>
                     <linkclipref>clipitem-648</linkclipref>
                     <mediatype>audio</mediatype>
                     <trackindex>1</trackindex>
                     <clipindex>30</clipindex>
                     <groupindex>1</groupindex>
                  </link>
                  <link>
                     <linkclipref>clipitem-681</linkclipref>
                     <mediatype>audio</mediatype>
                     <trackindex>2</trackindex>
                     <clipindex>30</clipindex>
                     <groupindex>1</groupindex>
                  </link>
                  <logginginfo>
                     <description />
                     <scene />
                     <shottake />
                     <lognote />
                     <good />
                     <originalvideofilename />
                     <originalaudiofilename />
                  </logginginfo>
                  <colorinfo>
                     <lut />
                     <lut1 />
                     <asc_sop />
                     <asc_sat />
                     <lut2 />
                  </colorinfo>
                  <labels>
                     <label2>Iris</label2>
                  </labels>
               </clipitem>
               <clipitem id="clipitem-488">
                  <masterclipid>masterclip-250</masterclipid>
                  <name>mymovie.mov</name>
                  <enabled>TRUE</enabled>
                  <duration>3502</duration>
                  <rate>
                     <timebase>24</timebase>
                     <ntsc>TRUE</ntsc>
                  </rate>
                  <start>2938</start>
                  <end>3058</end>
                  <in>2923</in>
                  <out>3043</out>
                  <pproTicksIn>30967969032000</pproTicksIn>
                  <pproTicksOut>32239319112000</pproTicksOut>
                  <alphatype>none</alphatype>
                  <file id="file-243" />
                  <filter>
                     <effect>
                        <name>Basic Motion</name>
                        <effectid>basic</effectid>
                        <effectcategory>motion</effectcategory>
                        <effecttype>motion</effecttype>
                        <mediatype>video</mediatype>
                        <pproBypass>false</pproBypass>
                        <parameter authoringApp="PremierePro">
                           <parameterid>scale</parameterid>
                           <name>Scale</name>
                           <valuemin>0</valuemin>
                           <valuemax>1000</valuemax>
                           <value>93.8</value>
                        </parameter>
                        <parameter authoringApp="PremierePro">
                           <parameterid>rotation</parameterid>
                           <name>Rotation</name>
                           <valuemin>-8640</valuemin>
                           <valuemax>8640</valuemax>
                           <value>0</value>
                        </parameter>
                        <parameter authoringApp="PremierePro">
                           <parameterid>center</parameterid>
                           <name>Center</name>
                           <value>
                              <horiz>0</horiz>
                              <vert>0</vert>
                           </value>
                        </parameter>
                        <parameter authoringApp="PremierePro">
                           <parameterid>centerOffset</parameterid>
                           <name>Anchor Point</name>
                           <value>
                              <horiz>0</horiz>
                              <vert>0</vert>
                           </value>
                        </parameter>
                        <parameter authoringApp="PremierePro">
                           <parameterid>antiflicker</parameterid>
                           <name>Anti-flicker Filter</name>
                           <valuemin>0.0</valuemin>
                           <valuemax>1.0</valuemax>
                           <value>0</value>
                        </parameter>
                     </effect>
                  </filter>
                  <link>
                     <linkclipref>clipitem-488</linkclipref>
                     <mediatype>video</mediatype>
                     <trackindex>1</trackindex>
                     <clipindex>32</clipindex>
                  </link>
                  <link>
                     <linkclipref>clipitem-649</linkclipref>
                     <mediatype>audio</mediatype>
                     <trackindex>1</trackindex>
                     <clipindex>31</clipindex>
                     <groupindex>1</groupindex>
                  </link>
                  <link>
                     <linkclipref>clipitem-682</linkclipref>
                     <mediatype>audio</mediatype>
                     <trackindex>2</trackindex>
                     <clipindex>31</clipindex>
                     <groupindex>1</groupindex>
                  </link>
                  <logginginfo>
                     <description />
                     <scene />
                     <shottake />
                     <lognote />
                     <good />
                     <originalvideofilename />
                     <originalaudiofilename />
                  </logginginfo>
                  <colorinfo>
                     <lut />
                     <lut1 />
                     <asc_sop />
                     <asc_sat />
                     <lut2 />
                  </colorinfo>
                  <labels>
                     <label2>Iris</label2>
                  </labels>
               </clipitem>
               <clipitem id="clipitem-489">
                  <masterclipid>masterclip-250</masterclipid>
                  <name>mymovie.mov</name>
                  <enabled>TRUE</enabled>
                  <duration>3502</duration>
                  <rate>
                     <timebase>24</timebase>
                     <ntsc>TRUE</ntsc>
                  </rate>
                  <start>3058</start>
                  <end>3307</end>
                  <in>3043</in>
                  <out>3292</out>
                  <pproTicksIn>32239319112000</pproTicksIn>
                  <pproTicksOut>34877370528000</pproTicksOut>
                  <alphatype>none</alphatype>
                  <file id="file-243" />
                  <filter>
                     <effect>
                        <name>Basic Motion</name>
                        <effectid>basic</effectid>
                        <effectcategory>motion</effectcategory>
                        <effecttype>motion</effecttype>
                        <mediatype>video</mediatype>
                        <pproBypass>false</pproBypass>
                        <parameter authoringApp="PremierePro">
                           <parameterid>scale</parameterid>
                           <name>Scale</name>
                           <valuemin>0</valuemin>
                           <valuemax>1000</valuemax>
                           <value>93.8</value>
                        </parameter>
                        <parameter authoringApp="PremierePro">
                           <parameterid>rotation</parameterid>
                           <name>Rotation</name>
                           <valuemin>-8640</valuemin>
                           <valuemax>8640</valuemax>
                           <value>0</value>
                        </parameter>
                        <parameter authoringApp="PremierePro">
                           <parameterid>center</parameterid>
                           <name>Center</name>
                           <value>
                              <horiz>0</horiz>
                              <vert>0</vert>
                           </value>
                        </parameter>
                        <parameter authoringApp="PremierePro">
                           <parameterid>centerOffset</parameterid>
                           <name>Anchor Point</name>
                           <value>
                              <horiz>0</horiz>
                              <vert>0</vert>
                           </value>
                        </parameter>
                        <parameter authoringApp="PremierePro">
                           <parameterid>antiflicker</parameterid>
                           <name>Anti-flicker Filter</name>
                           <valuemin>0.0</valuemin>
                           <valuemax>1.0</valuemax>
                           <value>0</value>
                        </parameter>
                     </effect>
                  </filter>
                  <link>
                     <linkclipref>clipitem-489</linkclipref>
                     <mediatype>video</mediatype>
                     <trackindex>1</trackindex>
                     <clipindex>33</clipindex>
                  </link>
                  <link>
                     <linkclipref>clipitem-650</linkclipref>
                     <mediatype>audio</mediatype>
                     <trackindex>1</trackindex>
                     <clipindex>32</clipindex>
                     <groupindex>1</groupindex>
                  </link>
                  <link>
                     <linkclipref>clipitem-683</linkclipref>
                     <mediatype>audio</mediatype>
                     <trackindex>2</trackindex>
                     <clipindex>32</clipindex>
                     <groupindex>1</groupindex>
                  </link>
                  <logginginfo>
                     <description />
                     <scene />
                     <shottake />
                     <lognote />
                     <good />
                     <originalvideofilename />
                     <originalaudiofilename />
                  </logginginfo>
                  <colorinfo>
                     <lut />
                     <lut1 />
                     <asc_sop />
                     <asc_sat />
                     <lut2 />
                  </colorinfo>
                  <labels>
                     <label2>Iris</label2>
                  </labels>
               </clipitem>
               <clipitem id="clipitem-490">
                  <masterclipid>masterclip-250</masterclipid>
                  <name>mymovie.mov</name>
                  <enabled>TRUE</enabled>
                  <duration>3502</duration>
                  <rate>
                     <timebase>24</timebase>
                     <ntsc>TRUE</ntsc>
                  </rate>
                  <start>3307</start>
                  <end>3517</end>
                  <in>3292</in>
                  <out>3502</out>
                  <pproTicksIn>34877370528000</pproTicksIn>
                  <pproTicksOut>37102233168000</pproTicksOut>
                  <alphatype>none</alphatype>
                  <file id="file-243" />
                  <filter>
                     <effect>
                        <name>Basic Motion</name>
                        <effectid>basic</effectid>
                        <effectcategory>motion</effectcategory>
                        <effecttype>motion</effecttype>
                        <mediatype>video</mediatype>
                        <pproBypass>false</pproBypass>
                        <parameter authoringApp="PremierePro">
                           <parameterid>scale</parameterid>
                           <name>Scale</name>
                           <valuemin>0</valuemin>
                           <valuemax>1000</valuemax>
                           <value>93.8</value>
                        </parameter>
                        <parameter authoringApp="PremierePro">
                           <parameterid>rotation</parameterid>
                           <name>Rotation</name>
                           <valuemin>-8640</valuemin>
                           <valuemax>8640</valuemax>
                           <value>0</value>
                        </parameter>
                        <parameter authoringApp="PremierePro">
                           <parameterid>center</parameterid>
                           <name>Center</name>
                           <value>
                              <horiz>0</horiz>
                              <vert>0</vert>
                           </value>
                        </parameter>
                        <parameter authoringApp="PremierePro">
                           <parameterid>centerOffset</parameterid>
                           <name>Anchor Point</name>
                           <value>
                              <horiz>0</horiz>
                              <vert>0</vert>
                           </value>
                        </parameter>
                        <parameter authoringApp="PremierePro">
                           <parameterid>antiflicker</parameterid>
                           <name>Anti-flicker Filter</name>
                           <valuemin>0.0</valuemin>
                           <valuemax>1.0</valuemax>
                           <value>0</value>
                        </parameter>
                     </effect>
                  </filter>
                  <link>
                     <linkclipref>clipitem-490</linkclipref>
                     <mediatype>video</mediatype>
                     <trackindex>1</trackindex>
                     <clipindex>34</clipindex>
                  </link>
                  <link>
                     <linkclipref>clipitem-651</linkclipref>
                     <mediatype>audio</mediatype>
                     <trackindex>1</trackindex>
                     <clipindex>33</clipindex>
                     <groupindex>1</groupindex>
                  </link>
                  <link>
                     <linkclipref>clipitem-684</linkclipref>
                     <mediatype>audio</mediatype>
                     <trackindex>2</trackindex>
                     <clipindex>33</clipindex>
                     <groupindex>1</groupindex>
                  </link>
                  <logginginfo>
                     <description />
                     <scene />
                     <shottake />
                     <lognote />
                     <good />
                     <originalvideofilename />
                     <originalaudiofilename />
                  </logginginfo>
                  <colorinfo>
                     <lut />
                     <lut1 />
                     <asc_sop />
                     <asc_sat />
                     <lut2 />
                  </colorinfo>
                  <labels>
                     <label2>Iris</label2>
                  </labels>
               </clipitem>
               <enabled>TRUE</enabled>
               <locked>FALSE</locked>
            </track>
            <track TL.SQTrackShy="0" TL.SQTrackExpandedHeight="25" TL.SQTrackExpanded="0" MZ.TrackTargeted="1">
               <clipitem id="clipitem-491">
                  <masterclipid>masterclip-251</masterclipid>
                  <name>mymovie.mov</name>
                  <enabled>TRUE</enabled>
                  <duration>165</duration>
                  <rate>
                     <timebase>24</timebase>
                     <ntsc>TRUE</ntsc>
                  </rate>
                  <start>90</start>
                  <end>222</end>
                  <in>25</in>
                  <out>157</out>
                  <pproTicksIn>264864600000</pproTicksIn>
                  <pproTicksOut>1663349688000</pproTicksOut>
                  <alphatype>none</alphatype>
                  <pixelaspectratio>square</pixelaspectratio>
                  <anamorphic>FALSE</anamorphic>
                  <file id="file-244">
                     <name>mymovie.mov</name>
                     <pathurl>file://localhost/Volumes/mydisk/mymovie.mov</pathurl>
                     <rate>
                        <timebase>24</timebase>
                        <ntsc>FALSE</ntsc>
                     </rate>
                     <duration>166</duration>
                     <timecode>
                        <rate>
                           <timebase>24</timebase>
                           <ntsc>FALSE</ntsc>
                        </rate>
                        <string>00:00:41:00</string>
                        <frame>984</frame>
                        <displayformat>NDF</displayformat>
                     </timecode>
                     <media>
                        <video>
                           <samplecharacteristics>
                              <rate>
                                 <timebase>24</timebase>
                                 <ntsc>FALSE</ntsc>
                              </rate>
                              <width>1920</width>
                              <height>1080</height>
                              <anamorphic>FALSE</anamorphic>
                              <pixelaspectratio>square</pixelaspectratio>
                              <fielddominance>none</fielddominance>
                           </samplecharacteristics>
                        </video>
                     </media>
                  </file>
                  <logginginfo>
                     <description />
                     <scene />
                     <shottake />
                     <lognote />
                     <good />
                     <originalvideofilename />
                     <originalaudiofilename />
                  </logginginfo>
                  <colorinfo>
                     <lut />
                     <lut1 />
                     <asc_sop />
                     <asc_sat />
                     <lut2 />
                  </colorinfo>
                  <labels>
                     <label2>Iris</label2>
                  </labels>
               </clipitem>
               <clipitem id="clipitem-492">
                  <masterclipid>masterclip-252</masterclipid>
                  <name>mymovie.mov</name>
                  <enabled>TRUE</enabled>
                  <duration>222</duration>
                  <rate>
                     <timebase>24</timebase>
                     <ntsc>TRUE</ntsc>
                  </rate>
                  <start>222</start>
                  <end>396</end>
                  <in>25</in>
                  <out>199</out>
                  <pproTicksIn>264864600000</pproTicksIn>
                  <pproTicksOut>2108322216000</pproTicksOut>
                  <alphatype>none</alphatype>
                  <pixelaspectratio>square</pixelaspectratio>
                  <anamorphic>FALSE</anamorphic>
                  <file id="file-245">
                     <name>mymovie.mov</name>
                     <pathurl>file://localhost/Volumes/mydisk/mymovie.mov</pathurl>
                     <rate>
                        <timebase>24</timebase>
                        <ntsc>FALSE</ntsc>
                     </rate>
                     <duration>223</duration>
                     <timecode>
                        <rate>
                           <timebase>24</timebase>
                           <ntsc>FALSE</ntsc>
                        </rate>
                        <string>00:00:41:00</string>
                        <frame>984</frame>
                        <displayformat>NDF</displayformat>
                     </timecode>
                     <media>
                        <video>
                           <samplecharacteristics>
                              <rate>
                                 <timebase>24</timebase>
                                 <ntsc>FALSE</ntsc>
                              </rate>
                              <width>1920</width>
                              <height>1080</height>
                              <anamorphic>FALSE</anamorphic>
                              <pixelaspectratio>square</pixelaspectratio>
                              <fielddominance>none</fielddominance>
                           </samplecharacteristics>
                        </video>
                     </media>
                  </file>
                  <logginginfo>
                     <description />
                     <scene />
                     <shottake />
                     <lognote />
                     <good />
                     <originalvideofilename />
                     <originalaudiofilename />
                  </logginginfo>
                  <colorinfo>
                     <lut />
                     <lut1 />
                     <asc_sop />
                     <asc_sat />
                     <lut2 />
                  </colorinfo>
                  <labels>
                     <label2>Iris</label2>
                  </labels>
               </clipitem>
               <clipitem id="clipitem-493">
                  <masterclipid>masterclip-253</masterclipid>
                  <name>mymovie.mov</name>
                  <enabled>TRUE</enabled>
                  <duration>153</duration>
                  <rate>
                     <timebase>24</timebase>
                     <ntsc>TRUE</ntsc>
                  </rate>
                  <start>493</start>
                  <end>598</end>
                  <in>25</in>
                  <out>130</out>
                  <pproTicksIn>264864600000</pproTicksIn>
                  <pproTicksOut>1377295920000</pproTicksOut>
                  <alphatype>none</alphatype>
                  <pixelaspectratio>square</pixelaspectratio>
                  <anamorphic>FALSE</anamorphic>
                  <file id="file-246">
                     <name>mymovie.mov</name>
                     <pathurl>file://localhost/Volumes/mydisk/mymovie.mov</pathurl>
                     <rate>
                        <timebase>24</timebase>
                        <ntsc>FALSE</ntsc>
                     </rate>
                     <duration>154</duration>
                     <timecode>
                        <rate>
                           <timebase>24</timebase>
                           <ntsc>FALSE</ntsc>
                        </rate>
                        <string>00:00:41:00</string>
                        <frame>984</frame>
                        <displayformat>NDF</displayformat>
                     </timecode>
                     <media>
                        <video>
                           <samplecharacteristics>
                              <rate>
                                 <timebase>24</timebase>
                                 <ntsc>FALSE</ntsc>
                              </rate>
                              <width>1920</width>
                              <height>1080</height>
                              <anamorphic>FALSE</anamorphic>
                              <pixelaspectratio>square</pixelaspectratio>
                              <fielddominance>none</fielddominance>
                           </samplecharacteristics>
                        </video>
                     </media>
                  </file>
                  <logginginfo>
                     <description />
                     <scene />
                     <shottake />
                     <lognote />
                     <good />
                     <originalvideofilename />
                     <originalaudiofilename />
                  </logginginfo>
                  <colorinfo>
                     <lut />
                     <lut1 />
                     <asc_sop />
                     <asc_sat />
                     <lut2 />
                  </colorinfo>
                  <labels>
                     <label2>Iris</label2>
                  </labels>
               </clipitem>
               <clipitem id="clipitem-494">
                  <masterclipid>masterclip-254</masterclipid>
                  <name>myshow</name>
                  <enabled>TRUE</enabled>
                  <duration>1139</duration>
                  <rate>
                     <timebase>24</timebase>
                     <ntsc>TRUE</ntsc>
                  </rate>
                  <start>598</start>
                  <end>692</end>
                  <in>1009</in>
                  <out>1103</out>
                  <pproTicksIn>10689935256000</pproTicksIn>
                  <pproTicksOut>11685826152000</pproTicksOut>
                  <sequence id="sequence-8" TL.SQAudioVisibleBase="0" TL.SQVideoVisibleBase="0" TL.SQVisibleBaseTime="0" TL.SQAVDividerPosition="0.5" TL.SQHideShyTracks="0" TL.SQHeaderWidth="236" Monitor.ProgramZoomOut="11940096168000" Monitor.ProgramZoomIn="0" TL.SQTimePerPixel="0.024469178379316326" MZ.EditLine="11632853232000" MZ.Sequence.PreviewFrameSizeHeight="1080" MZ.Sequence.PreviewFrameSizeWidth="1920" MZ.Sequence.AudioTimeDisplayFormat="200" MZ.Sequence.PreviewRenderingPresetCodec="1297107278" MZ.Sequence.PreviewRenderingPresetPath="EncoderPresets/SequencePreview/795454d9-d3c2-429d-9474-923ab13b7018/I-Frame Only MPEG.epr" MZ.Sequence.PreviewUseMaxRenderQuality="false" MZ.Sequence.PreviewUseMaxBitDepth="false" MZ.Sequence.EditingModeGUID="795454d9-d3c2-429d-9474-923ab13b7018" MZ.Sequence.VideoTimeDisplayFormat="109" MZ.WorkOutPoint="995890896000" MZ.WorkInPoint="0">
                     <duration>1103</duration>
                     <rate>
                        <timebase>24</timebase>
                        <ntsc>TRUE</ntsc>
                     </rate>
                     <name>myshow</name>
                     <media>
                        <video>
                           <format>
                              <samplecharacteristics>
                                 <rate>
                                    <timebase>24</timebase>
                                    <ntsc>TRUE</ntsc>
                                 </rate>
                                 <codec>
                                    <name>Apple ProRes 422</name>
                                    <appspecificdata>
                                       <appname>Final Cut Pro</appname>
                                       <appmanufacturer>Apple Inc.</appmanufacturer>
                                       <appversion>7.0</appversion>
                                       <data>
                                          <qtcodec>
                                             <codecname>Apple ProRes 422</codecname>
                                             <codectypename>Apple ProRes 422</codectypename>
                                             <codectypecode>apcn</codectypecode>
                                             <codecvendorcode>appl</codecvendorcode>
                                             <spatialquality>1024</spatialquality>
                                             <temporalquality>0</temporalquality>
                                             <keyframerate>0</keyframerate>
                                             <datarate>0</datarate>
                                          </qtcodec>
                                       </data>
                                    </appspecificdata>
                                 </codec>
                                 <width>1920</width>
                                 <height>1080</height>
                                 <anamorphic>FALSE</anamorphic>
                                 <pixelaspectratio>square</pixelaspectratio>
                                 <fielddominance>none</fielddominance>
                                 <colordepth>24</colordepth>
                              </samplecharacteristics>
                           </format>
                           <track TL.SQTrackShy="0" TL.SQTrackExpandedHeight="25" TL.SQTrackExpanded="0" MZ.TrackTargeted="1">
                              <clipitem id="clipitem-495">
                                 <masterclipid>masterclip-250</masterclipid>
                                 <name>mymovie.mov</name>
                                 <enabled>TRUE</enabled>
                                 <duration>3502</duration>
                                 <rate>
                                    <timebase>24</timebase>
                                    <ntsc>TRUE</ntsc>
                                 </rate>
                                 <start>1009</start>
                                 <end>1103</end>
                                 <in>583</in>
                                 <out>677</out>
                                 <pproTicksIn>6176642472000</pproTicksIn>
                                 <pproTicksOut>7172533368000</pproTicksOut>
                                 <alphatype>none</alphatype>
                                 <file id="file-243" />
                                 <filter>
                                    <effect>
                                       <name>Basic Motion</name>
                                       <effectid>basic</effectid>
                                       <effectcategory>motion</effectcategory>
                                       <effecttype>motion</effecttype>
                                       <mediatype>video</mediatype>
                                       <pproBypass>false</pproBypass>
                                       <parameter authoringApp="PremierePro">
                                          <parameterid>scale</parameterid>
                                          <name>Scale</name>
                                          <valuemin>0</valuemin>
                                          <valuemax>1000</valuemax>
                                          <value>93.8</value>
                                       </parameter>
                                       <parameter authoringApp="PremierePro">
                                          <parameterid>rotation</parameterid>
                                          <name>Rotation</name>
                                          <valuemin>-8640</valuemin>
                                          <valuemax>8640</valuemax>
                                          <value>0</value>
                                       </parameter>
                                       <parameter authoringApp="PremierePro">
                                          <parameterid>center</parameterid>
                                          <name>Center</name>
                                          <value>
                                             <horiz>0</horiz>
                                             <vert>0</vert>
                                          </value>
                                       </parameter>
                                       <parameter authoringApp="PremierePro">
                                          <parameterid>centerOffset</parameterid>
                                          <name>Anchor Point</name>
                                          <value>
                                             <horiz>0</horiz>
                                             <vert>0</vert>
                                          </value>
                                       </parameter>
                                       <parameter authoringApp="PremierePro">
                                          <parameterid>antiflicker</parameterid>
                                          <name>Anti-flicker Filter</name>
                                          <valuemin>0.0</valuemin>
                                          <valuemax>1.0</valuemax>
                                          <value>0</value>
                                       </parameter>
                                    </effect>
                                 </filter>
                                 <link>
                                    <linkclipref>clipitem-495</linkclipref>
                                    <mediatype>video</mediatype>
                                    <trackindex>1</trackindex>
                                    <clipindex>1</clipindex>
                                 </link>
                                 <link>
                                    <linkclipref>clipitem-497</linkclipref>
                                    <mediatype>audio</mediatype>
                                    <trackindex>1</trackindex>
                                    <clipindex>1</clipindex>
                                    <groupindex>1</groupindex>
                                 </link>
                                 <link>
                                    <linkclipref>clipitem-498</linkclipref>
                                    <mediatype>audio</mediatype>
                                    <trackindex>2</trackindex>
                                    <clipindex>1</clipindex>
                                    <groupindex>1</groupindex>
                                 </link>
                                 <logginginfo>
                                    <description />
                                    <scene />
                                    <shottake />
                                    <lognote />
                                    <good />
                                    <originalvideofilename />
                                    <originalaudiofilename />
                                 </logginginfo>
                                 <colorinfo>
                                    <lut />
                                    <lut1 />
                                    <asc_sop />
                                    <asc_sat />
                                    <lut2 />
                                 </colorinfo>
                                 <labels>
                                    <label2>Iris</label2>
                                 </labels>
                              </clipitem>
                              <enabled>TRUE</enabled>
                              <locked>FALSE</locked>
                           </track>
                           <track TL.SQTrackShy="0" TL.SQTrackExpandedHeight="51" TL.SQTrackExpanded="0" MZ.TrackTargeted="0">
                              <clipitem id="clipitem-496">
                                 <masterclipid>masterclip-255</masterclipid>
                                 <name>mymovie.mov</name>
                                 <enabled>TRUE</enabled>
                                 <duration>142</duration>
                                 <rate>
                                    <timebase>24</timebase>
                                    <ntsc>TRUE</ntsc>
                                 </rate>
                                 <start>984</start>
                                 <end>1127</end>
                                 <in>0</in>
                                 <out>143</out>
                                 <pproTicksIn>0</pproTicksIn>
                                 <pproTicksOut>1515025512000</pproTicksOut>
                                 <alphatype>none</alphatype>
                                 <pixelaspectratio>square</pixelaspectratio>
                                 <anamorphic>FALSE</anamorphic>
                                 <file id="file-247">
                                    <name>mymovie.mov</name>
                                    <pathurl>file://localhost/Volumes/mydisk/mymovie.mov</pathurl>
                                    <rate>
                                       <timebase>24</timebase>
                                       <ntsc>FALSE</ntsc>
                                    </rate>
                                    <duration>155</duration>
                                    <timecode>
                                       <rate>
                                          <timebase>24</timebase>
                                          <ntsc>FALSE</ntsc>
                                       </rate>
                                       <string>00:00:41:00</string>
                                       <frame>984</frame>
                                       <displayformat>NDF</displayformat>
                                    </timecode>
                                    <media>
                                       <video>
                                          <samplecharacteristics>
                                             <rate>
                                                <timebase>24</timebase>
                                                <ntsc>FALSE</ntsc>
                                             </rate>
                                             <width>1920</width>
                                             <height>1080</height>
                                             <anamorphic>FALSE</anamorphic>
                                             <pixelaspectratio>square</pixelaspectratio>
                                             <fielddominance>none</fielddominance>
                                          </samplecharacteristics>
                                       </video>
                                    </media>
                                 </file>
                                 <filter>
                                    <effect>
                                       <name>Time Remap</name>
                                       <effectid>timeremap</effectid>
                                       <effectcategory>motion</effectcategory>
                                       <effecttype>motion</effecttype>
                                       <mediatype>video</mediatype>
                                       <parameter authoringApp="PremierePro">
                                          <parameterid>variablespeed</parameterid>
                                          <name>variablespeed</name>
                                          <valuemin>0</valuemin>
                                          <valuemax>1</valuemax>
                                          <value>1</value>
                                       </parameter>
                                       <parameter authoringApp="PremierePro">
                                          <parameterid>speed</parameterid>
                                          <name>speed</name>
                                          <valuemin>-100000</valuemin>
                                          <valuemax>100000</valuemax>
                                          <value>108.451</value>
                                       </parameter>
                                       <parameter authoringApp="PremierePro">
                                          <parameterid>reverse</parameterid>
                                          <name>reverse</name>
                                          <value>FALSE</value>
                                       </parameter>
                                       <parameter authoringApp="PremierePro">
                                          <parameterid>frameblending</parameterid>
                                          <name>frameblending</name>
                                          <value>FALSE</value>
                                       </parameter>
                                       <parameter authoringApp="PremierePro">
                                          <parameterid>graphdict</parameterid>
                                          <name>graphdict</name>
                                          <valuemin>0</valuemin>
                                          <valuemax>154</valuemax>
                                          <value>0</value>
                                          <keyframe>
                                             <when>0</when>
                                             <value>0</value>
                                             <speedvirtualkf>TRUE</speedvirtualkf>
                                             <speedkfin>TRUE</speedkfin>
                                          </keyframe>
                                          <keyframe>
                                             <when>1</when>
                                             <value>1</value>
                                          </keyframe>
                                          <keyframe>
                                             <when>51</when>
                                             <value>51</value>
                                          </keyframe>
                                          <keyframe>
                                             <when>114</when>
                                             <value>126</value>
                                          </keyframe>
                                          <keyframe>
                                             <when>142</when>
                                             <value>154</value>
                                             <speedvirtualkf>TRUE</speedvirtualkf>
                                             <speedkfout>TRUE</speedkfout>
                                          </keyframe>
                                          <interpolation>
                                             <name>FCPCurve</name>
                                          </interpolation>
                                       </parameter>
                                    </effect>
                                 </filter>
                                 <logginginfo>
                                    <description />
                                    <scene />
                                    <shottake />
                                    <lognote />
                                    <good />
                                    <originalvideofilename />
                                    <originalaudiofilename />
                                 </logginginfo>
                                 <colorinfo>
                                    <lut />
                                    <lut1 />
                                    <asc_sop />
                                    <asc_sat />
                                    <lut2 />
                                 </colorinfo>
                                 <labels>
                                    <label2>Iris</label2>
                                 </labels>
                              </clipitem>
                              <enabled>TRUE</enabled>
                              <locked>FALSE</locked>
                           </track>
                        </video>
                        <audio>
                           <numOutputChannels>2</numOutputChannels>
                           <format>
                              <samplecharacteristics>
                                 <depth>16</depth>
                                 <samplerate>48000</samplerate>
                              </samplecharacteristics>
                           </format>
                           <outputs>
                              <group>
                                 <index>1</index>
                                 <numchannels>1</numchannels>
                                 <downmix>0</downmix>
                                 <channel>
                                    <index>1</index>
                                 </channel>
                              </group>
                              <group>
                                 <index>2</index>
                                 <numchannels>1</numchannels>
                                 <downmix>0</downmix>
                                 <channel>
                                    <index>2</index>
                                 </channel>
                              </group>
                           </outputs>
                           <track TL.SQTrackAudioKeyframeStyle="0" TL.SQTrackShy="0" TL.SQTrackExpandedHeight="25" TL.SQTrackExpanded="0" MZ.TrackTargeted="1" PannerCurrentValue="0.5" PannerIsInverted="true" PannerStartKeyframe="-91445760000000000,0.5,0,0,0,0,0,0" PannerName="Balance" currentExplodedTrackIndex="0" totalExplodedTrackCount="2" premiereTrackType="Stereo">
                              <clipitem id="clipitem-497" premiereChannelType="stereo">
                                 <masterclipid>masterclip-250</masterclipid>
                                 <name>mymovie.mov</name>
                                 <enabled>TRUE</enabled>
                                 <duration>3502</duration>
                                 <rate>
                                    <timebase>24</timebase>
                                    <ntsc>TRUE</ntsc>
                                 </rate>
                                 <start>1009</start>
                                 <end>1103</end>
                                 <in>583</in>
                                 <out>677</out>
                                 <pproTicksIn>6176642472000</pproTicksIn>
                                 <pproTicksOut>7172533368000</pproTicksOut>
                                 <file id="file-243" />
                                 <sourcetrack>
                                    <mediatype>audio</mediatype>
                                    <trackindex>1</trackindex>
                                 </sourcetrack>
                                 <link>
                                    <linkclipref>clipitem-495</linkclipref>
                                    <mediatype>video</mediatype>
                                    <trackindex>1</trackindex>
                                    <clipindex>1</clipindex>
                                 </link>
                                 <link>
                                    <linkclipref>clipitem-497</linkclipref>
                                    <mediatype>audio</mediatype>
                                    <trackindex>1</trackindex>
                                    <clipindex>1</clipindex>
                                    <groupindex>1</groupindex>
                                 </link>
                                 <link>
                                    <linkclipref>clipitem-498</linkclipref>
                                    <mediatype>audio</mediatype>
                                    <trackindex>2</trackindex>
                                    <clipindex>1</clipindex>
                                    <groupindex>1</groupindex>
                                 </link>
                                 <logginginfo>
                                    <description />
                                    <scene />
                                    <shottake />
                                    <lognote />
                                    <good />
                                    <originalvideofilename />
                                    <originalaudiofilename />
                                 </logginginfo>
                                 <colorinfo>
                                    <lut />
                                    <lut1 />
                                    <asc_sop />
                                    <asc_sat />
                                    <lut2 />
                                 </colorinfo>
                                 <labels>
                                    <label2>Iris</label2>
                                 </labels>
                              </clipitem>
                              <enabled>TRUE</enabled>
                              <locked>FALSE</locked>
                              <outputchannelindex>1</outputchannelindex>
                           </track>
                           <track TL.SQTrackAudioKeyframeStyle="0" TL.SQTrackShy="0" TL.SQTrackExpandedHeight="25" TL.SQTrackExpanded="0" MZ.TrackTargeted="1" PannerCurrentValue="0.5" PannerIsInverted="true" PannerStartKeyframe="-91445760000000000,0.5,0,0,0,0,0,0" PannerName="Balance" currentExplodedTrackIndex="1" totalExplodedTrackCount="2" premiereTrackType="Stereo">
                              <clipitem id="clipitem-498" premiereChannelType="stereo">
                                 <masterclipid>masterclip-250</masterclipid>
                                 <name>mymovie.mov</name>
                                 <enabled>TRUE</enabled>
                                 <duration>3502</duration>
                                 <rate>
                                    <timebase>24</timebase>
                                    <ntsc>TRUE</ntsc>
                                 </rate>
                                 <start>1009</start>
                                 <end>1103</end>
                                 <in>583</in>
                                 <out>677</out>
                                 <pproTicksIn>6176642472000</pproTicksIn>
                                 <pproTicksOut>7172533368000</pproTicksOut>
                                 <file id="file-243" />
                                 <sourcetrack>
                                    <mediatype>audio</mediatype>
                                    <trackindex>2</trackindex>
                                 </sourcetrack>
                                 <link>
                                    <linkclipref>clipitem-495</linkclipref>
                                    <mediatype>video</mediatype>
                                    <trackindex>1</trackindex>
                                    <clipindex>1</clipindex>
                                 </link>
                                 <link>
                                    <linkclipref>clipitem-497</linkclipref>
                                    <mediatype>audio</mediatype>
                                    <trackindex>1</trackindex>
                                    <clipindex>1</clipindex>
                                    <groupindex>1</groupindex>
                                 </link>
                                 <link>
                                    <linkclipref>clipitem-498</linkclipref>
                                    <mediatype>audio</mediatype>
                                    <trackindex>2</trackindex>
                                    <clipindex>1</clipindex>
                                    <groupindex>1</groupindex>
                                 </link>
                                 <logginginfo>
                                    <description />
                                    <scene />
                                    <shottake />
                                    <lognote />
                                    <good />
                                    <originalvideofilename />
                                    <originalaudiofilename />
                                 </logginginfo>
                                 <colorinfo>
                                    <lut />
                                    <lut1 />
                                    <asc_sop />
                                    <asc_sat />
                                    <lut2 />
                                 </colorinfo>
                                 <labels>
                                    <label2>Iris</label2>
                                 </labels>
                              </clipitem>
                              <enabled>TRUE</enabled>
                              <locked>FALSE</locked>
                              <outputchannelindex>2</outputchannelindex>
                           </track>
                        </audio>
                     </media>
                     <timecode>
                        <rate>
                           <timebase>24</timebase>
                           <ntsc>TRUE</ntsc>
                        </rate>
                        <string>00:00:00:00</string>
                        <frame>0</frame>
                        <displayformat>NDF</displayformat>
                     </timecode>
                     <marker>
                        <comment />
                        <name />
                        <in>1009</in>
                        <out>-1</out>
                     </marker>
                     <logginginfo>
                        <description />
                        <scene />
                        <shottake />
                        <lognote />
                        <good />
                        <originalvideofilename />
                        <originalaudiofilename />
                     </logginginfo>
                  </sequence>
                  <marker>
                     <comment />
                     <name />
                     <in>1009</in>
                     <out>-1</out>
                  </marker>
                  <labels>
                     <label2>Forest</label2>
                  </labels>
               </clipitem>
               <clipitem id="clipitem-499">
                  <masterclipid>masterclip-256</masterclipid>
                  <name>mymovie.mov</name>
                  <enabled>TRUE</enabled>
                  <duration>154</duration>
                  <rate>
                     <timebase>24</timebase>
                     <ntsc>TRUE</ntsc>
                  </rate>
                  <start>692</start>
                  <end>780</end>
                  <in>25</in>
                  <out>113</out>
                  <pproTicksIn>264864600000</pproTicksIn>
                  <pproTicksOut>1197187992000</pproTicksOut>
                  <alphatype>none</alphatype>
                  <pixelaspectratio>square</pixelaspectratio>
                  <anamorphic>FALSE</anamorphic>
                  <file id="file-248">
                     <name>mymovie.mov</name>
                     <pathurl>file://localhost/Volumes/mydisk/mymovie.mov</pathurl>
                     <rate>
                        <timebase>24</timebase>
                        <ntsc>FALSE</ntsc>
                     </rate>
                     <duration>155</duration>
                     <timecode>
                        <rate>
                           <timebase>24</timebase>
                           <ntsc>FALSE</ntsc>
                        </rate>
                        <string>00:00:41:00</string>
                        <frame>984</frame>
                        <displayformat>NDF</displayformat>
                     </timecode>
                     <media>
                        <video>
                           <samplecharacteristics>
                              <rate>
                                 <timebase>24</timebase>
                                 <ntsc>FALSE</ntsc>
                              </rate>
                              <width>1920</width>
                              <height>1080</height>
                              <anamorphic>FALSE</anamorphic>
                              <pixelaspectratio>square</pixelaspectratio>
                              <fielddominance>none</fielddominance>
                           </samplecharacteristics>
                        </video>
                     </media>
                  </file>
                  <logginginfo>
                     <description />
                     <scene />
                     <shottake />
                     <lognote />
                     <good />
                     <originalvideofilename />
                     <originalaudiofilename />
                  </logginginfo>
                  <colorinfo>
                     <lut />
                     <lut1 />
                     <asc_sop />
                     <asc_sat />
                     <lut2 />
                  </colorinfo>
                  <labels>
                     <label2>Iris</label2>
                  </labels>
               </clipitem>
               <clipitem id="clipitem-500">
                  <masterclipid>masterclip-257</masterclipid>
                  <name>mymovie.mov</name>
                  <enabled>TRUE</enabled>
                  <duration>331</duration>
                  <rate>
                     <timebase>24</timebase>
                     <ntsc>TRUE</ntsc>
                  </rate>
                  <start>870</start>
                  <end>1135</end>
                  <in>25</in>
                  <out>290</out>
                  <pproTicksIn>264864600000</pproTicksIn>
                  <pproTicksOut>3072429360000</pproTicksOut>
                  <alphatype>none</alphatype>
                  <pixelaspectratio>square</pixelaspectratio>
                  <anamorphic>FALSE</anamorphic>
                  <file id="file-249">
                     <name>mymovie.mov</name>
                     <pathurl>file://localhost/Volumes/mydisk/mymovie.mov</pathurl>
                     <rate>
                        <timebase>24</timebase>
                        <ntsc>FALSE</ntsc>
                     </rate>
                     <duration>332</duration>
                     <timecode>
                        <rate>
                           <timebase>24</timebase>
                           <ntsc>FALSE</ntsc>
                        </rate>
                        <string>00:00:41:00</string>
                        <frame>984</frame>
                        <displayformat>NDF</displayformat>
                     </timecode>
                     <media>
                        <video>
                           <samplecharacteristics>
                              <rate>
                                 <timebase>24</timebase>
                                 <ntsc>FALSE</ntsc>
                              </rate>
                              <width>1920</width>
                              <height>1080</height>
                              <anamorphic>FALSE</anamorphic>
                              <pixelaspectratio>square</pixelaspectratio>
                              <fielddominance>none</fielddominance>
                           </samplecharacteristics>
                        </video>
                     </media>
                  </file>
                  <logginginfo>
                     <description />
                     <scene />
                     <shottake />
                     <lognote />
                     <good />
                     <originalvideofilename />
                     <originalaudiofilename />
                  </logginginfo>
                  <colorinfo>
                     <lut />
                     <lut1 />
                     <asc_sop />
                     <asc_sat />
                     <lut2 />
                  </colorinfo>
                  <labels>
                     <label2>Iris</label2>
                  </labels>
               </clipitem>
               <clipitem id="clipitem-501">
                  <masterclipid>masterclip-258</masterclipid>
                  <name>mymovie.mov</name>
                  <enabled>TRUE</enabled>
                  <duration>143</duration>
                  <rate>
                     <timebase>24</timebase>
                     <ntsc>TRUE</ntsc>
                  </rate>
                  <start>1135</start>
                  <end>1229</end>
                  <in>25</in>
                  <out>119</out>
                  <pproTicksIn>264864600000</pproTicksIn>
                  <pproTicksOut>1260755496000</pproTicksOut>
                  <alphatype>none</alphatype>
                  <pixelaspectratio>square</pixelaspectratio>
                  <anamorphic>FALSE</anamorphic>
                  <file id="file-250">
                     <name>mymovie.mov</name>
                     <pathurl>file://localhost/Volumes/mydisk/mymovie.mov</pathurl>
                     <rate>
                        <timebase>24</timebase>
                        <ntsc>TRUE</ntsc>
                     </rate>
                     <duration>143</duration>
                     <timecode>
                        <rate>
                           <timebase>24</timebase>
                           <ntsc>TRUE</ntsc>
                        </rate>
                        <string>00:00:41:00</string>
                        <frame>984</frame>
                        <displayformat>NDF</displayformat>
                     </timecode>
                     <media>
                        <video>
                           <samplecharacteristics>
                              <rate>
                                 <timebase>24</timebase>
                                 <ntsc>TRUE</ntsc>
                              </rate>
                              <width>1920</width>
                              <height>1080</height>
                              <anamorphic>FALSE</anamorphic>
                              <pixelaspectratio>square</pixelaspectratio>
                              <fielddominance>none</fielddominance>
                           </samplecharacteristics>
                        </video>
                     </media>
                  </file>
                  <logginginfo>
                     <description />
                     <scene />
                     <shottake />
                     <lognote />
                     <good />
                     <originalvideofilename />
                     <originalaudiofilename />
                  </logginginfo>
                  <colorinfo>
                     <lut />
                     <lut1 />
                     <asc_sop />
                     <asc_sat />
                     <lut2 />
                  </colorinfo>
                  <labels>
                     <label2>Violet</label2>
                  </labels>
               </clipitem>
               <clipitem id="clipitem-502">
                  <masterclipid>masterclip-259</masterclipid>
                  <name>mymovie.mov</name>
                  <enabled>TRUE</enabled>
                  <duration>203</duration>
                  <rate>
                     <timebase>24</timebase>
                     <ntsc>TRUE</ntsc>
                  </rate>
                  <start>1229</start>
                  <end>1357</end>
                  <in>52</in>
                  <out>180</out>
                  <pproTicksIn>550918368000</pproTicksIn>
                  <pproTicksOut>1907025120000</pproTicksOut>
                  <alphatype>none</alphatype>
                  <pixelaspectratio>square</pixelaspectratio>
                  <anamorphic>FALSE</anamorphic>
                  <file id="file-251">
                     <name>mymovie.mov</name>
                     <pathurl>file://localhost/Volumes/mydisk/mymovie.mov</pathurl>
                     <rate>
                        <timebase>24</timebase>
                        <ntsc>FALSE</ntsc>
                     </rate>
                     <duration>204</duration>
                     <timecode>
                        <rate>
                           <timebase>24</timebase>
                           <ntsc>FALSE</ntsc>
                        </rate>
                        <string>00:00:41:00</string>
                        <frame>984</frame>
                        <displayformat>NDF</displayformat>
                     </timecode>
                     <media>
                        <video>
                           <samplecharacteristics>
                              <rate>
                                 <timebase>24</timebase>
                                 <ntsc>FALSE</ntsc>
                              </rate>
                              <width>1920</width>
                              <height>1080</height>
                              <anamorphic>FALSE</anamorphic>
                              <pixelaspectratio>square</pixelaspectratio>
                              <fielddominance>none</fielddominance>
                           </samplecharacteristics>
                        </video>
                     </media>
                  </file>
                  <marker>
                     <comment />
                     <name />
                     <in>52</in>
                     <out>-1</out>
                  </marker>
                  <logginginfo>
                     <description />
                     <scene />
                     <shottake />
                     <lognote />
                     <good />
                     <originalvideofilename />
                     <originalaudiofilename />
                  </logginginfo>
                  <colorinfo>
                     <lut />
                     <lut1 />
                     <asc_sop />
                     <asc_sat />
                     <lut2 />
                  </colorinfo>
                  <labels>
                     <label2>Iris</label2>
                  </labels>
               </clipitem>
               <clipitem id="clipitem-503">
                  <masterclipid>masterclip-260</masterclipid>
                  <name>mymovie.mov</name>
                  <enabled>TRUE</enabled>
                  <duration>99</duration>
                  <rate>
                     <timebase>24</timebase>
                     <ntsc>TRUE</ntsc>
                  </rate>
                  <start>1357</start>
                  <end>1408</end>
                  <in>25</in>
                  <out>76</out>
                  <pproTicksIn>264864600000</pproTicksIn>
                  <pproTicksOut>805188384000</pproTicksOut>
                  <alphatype>none</alphatype>
                  <pixelaspectratio>square</pixelaspectratio>
                  <anamorphic>FALSE</anamorphic>
                  <file id="file-252">
                     <name>mymovie.mov</name>
                     <pathurl>file://localhost/Volumes/mydisk/mymovie.mov</pathurl>
                     <rate>
                        <timebase>24</timebase>
                        <ntsc>FALSE</ntsc>
                     </rate>
                     <duration>100</duration>
                     <timecode>
                        <rate>
                           <timebase>24</timebase>
                           <ntsc>FALSE</ntsc>
                        </rate>
                        <string>00:00:41:00</string>
                        <frame>984</frame>
                        <displayformat>NDF</displayformat>
                     </timecode>
                     <media>
                        <video>
                           <samplecharacteristics>
                              <rate>
                                 <timebase>24</timebase>
                                 <ntsc>FALSE</ntsc>
                              </rate>
                              <width>1920</width>
                              <height>1080</height>
                              <anamorphic>FALSE</anamorphic>
                              <pixelaspectratio>square</pixelaspectratio>
                              <fielddominance>none</fielddominance>
                           </samplecharacteristics>
                        </video>
                     </media>
                  </file>
                  <logginginfo>
                     <description />
                     <scene />
                     <shottake />
                     <lognote />
                     <good />
                     <originalvideofilename />
                     <originalaudiofilename />
                  </logginginfo>
                  <colorinfo>
                     <lut />
                     <lut1 />
                     <asc_sop />
                     <asc_sat />
                     <lut2 />
                  </colorinfo>
                  <labels>
                     <label2>Iris</label2>
                  </labels>
               </clipitem>
               <clipitem id="clipitem-504">
                  <masterclipid>masterclip-261</masterclipid>
                  <name>mymovie.mov</name>
                  <enabled>TRUE</enabled>
                  <duration>122</duration>
                  <rate>
                     <timebase>24</timebase>
                     <ntsc>TRUE</ntsc>
                  </rate>
                  <start>1408</start>
                  <end>1482</end>
                  <in>25</in>
                  <out>99</out>
                  <pproTicksIn>264864600000</pproTicksIn>
                  <pproTicksOut>1048863816000</pproTicksOut>
                  <alphatype>none</alphatype>
                  <pixelaspectratio>square</pixelaspectratio>
                  <anamorphic>FALSE</anamorphic>
                  <file id="file-253">
                     <name>mymovie.mov</name>
                     <pathurl>file://localhost/Volumes/mydisk/mymovie.mov</pathurl>
                     <rate>
                        <timebase>24</timebase>
                        <ntsc>FALSE</ntsc>
                     </rate>
                     <duration>123</duration>
                     <timecode>
                        <rate>
                           <timebase>24</timebase>
                           <ntsc>FALSE</ntsc>
                        </rate>
                        <string>00:00:41:00</string>
                        <frame>984</frame>
                        <displayformat>NDF</displayformat>
                     </timecode>
                     <media>
                        <video>
                           <samplecharacteristics>
                              <rate>
                                 <timebase>24</timebase>
                                 <ntsc>FALSE</ntsc>
                              </rate>
                              <width>1920</width>
                              <height>1080</height>
                              <anamorphic>FALSE</anamorphic>
                              <pixelaspectratio>square</pixelaspectratio>
                              <fielddominance>none</fielddominance>
                           </samplecharacteristics>
                        </video>
                     </media>
                  </file>
                  <logginginfo>
                     <description />
                     <scene />
                     <shottake />
                     <lognote />
                     <good />
                     <originalvideofilename />
                     <originalaudiofilename />
                  </logginginfo>
                  <colorinfo>
                     <lut />
                     <lut1 />
                     <asc_sop />
                     <asc_sat />
                     <lut2 />
                  </colorinfo>
                  <labels>
                     <label2>Iris</label2>
                  </labels>
               </clipitem>
               <clipitem id="clipitem-505">
                  <masterclipid>masterclip-262</masterclipid>
                  <name>mymovie.mov</name>
                  <enabled>TRUE</enabled>
                  <duration>104</duration>
                  <rate>
                     <timebase>24</timebase>
                     <ntsc>TRUE</ntsc>
                  </rate>
                  <start>1482</start>
                  <end>1537</end>
                  <in>25</in>
                  <out>80</out>
                  <pproTicksIn>264864600000</pproTicksIn>
                  <pproTicksOut>847566720000</pproTicksOut>
                  <alphatype>none</alphatype>
                  <pixelaspectratio>square</pixelaspectratio>
                  <anamorphic>FALSE</anamorphic>
                  <file id="file-254">
                     <name>mymovie.mov</name>
                     <pathurl>file://localhost/Volumes/mydisk/mymovie.mov</pathurl>
                     <rate>
                        <timebase>24</timebase>
                        <ntsc>FALSE</ntsc>
                     </rate>
                     <duration>104</duration>
                     <timecode>
                        <rate>
                           <timebase>24</timebase>
                           <ntsc>FALSE</ntsc>
                        </rate>
                        <string>00:00:41:00</string>
                        <frame>984</frame>
                        <displayformat>NDF</displayformat>
                     </timecode>
                     <media>
                        <video>
                           <samplecharacteristics>
                              <rate>
                                 <timebase>24</timebase>
                                 <ntsc>FALSE</ntsc>
                              </rate>
                              <width>1920</width>
                              <height>1080</height>
                              <anamorphic>FALSE</anamorphic>
                              <pixelaspectratio>square</pixelaspectratio>
                              <fielddominance>none</fielddominance>
                           </samplecharacteristics>
                        </video>
                     </media>
                  </file>
                  <logginginfo>
                     <description />
                     <scene />
                     <shottake />
                     <lognote />
                     <good />
                     <originalvideofilename />
                     <originalaudiofilename />
                  </logginginfo>
                  <colorinfo>
                     <lut />
                     <lut1 />
                     <asc_sop />
                     <asc_sat />
                     <lut2 />
                  </colorinfo>
                  <labels>
                     <label2>Iris</label2>
                  </labels>
               </clipitem>
               <clipitem id="clipitem-506">
                  <masterclipid>masterclip-263</masterclipid>
                  <name>mymovie.mov</name>
                  <enabled>TRUE</enabled>
                  <duration>186</duration>
                  <rate>
                     <timebase>24</timebase>
                     <ntsc>TRUE</ntsc>
                  </rate>
                  <start>1537</start>
                  <end>1675</end>
                  <in>25</in>
                  <out>163</out>
                  <pproTicksIn>264864600000</pproTicksIn>
                  <pproTicksOut>1726917192000</pproTicksOut>
                  <alphatype>none</alphatype>
                  <pixelaspectratio>square</pixelaspectratio>
                  <anamorphic>FALSE</anamorphic>
                  <file id="file-255">
                     <name>mymovie.mov</name>
                     <pathurl>file://localhost/Volumes/mydisk/mymovie.mov</pathurl>
                     <rate>
                        <timebase>24</timebase>
                        <ntsc>FALSE</ntsc>
                     </rate>
                     <duration>187</duration>
                     <timecode>
                        <rate>
                           <timebase>24</timebase>
                           <ntsc>FALSE</ntsc>
                        </rate>
                        <string>00:00:41:00</string>
                        <frame>984</frame>
                        <displayformat>NDF</displayformat>
                     </timecode>
                     <media>
                        <video>
                           <samplecharacteristics>
                              <rate>
                                 <timebase>24</timebase>
                                 <ntsc>FALSE</ntsc>
                              </rate>
                              <width>1920</width>
                              <height>1080</height>
                              <anamorphic>FALSE</anamorphic>
                              <pixelaspectratio>square</pixelaspectratio>
                              <fielddominance>none</fielddominance>
                           </samplecharacteristics>
                        </video>
                     </media>
                  </file>
                  <logginginfo>
                     <description />
                     <scene />
                     <shottake />
                     <lognote />
                     <good />
                     <originalvideofilename />
                     <originalaudiofilename />
                  </logginginfo>
                  <colorinfo>
                     <lut />
                     <lut1 />
                     <asc_sop />
                     <asc_sat />
                     <lut2 />
                  </colorinfo>
                  <labels>
                     <label2>Iris</label2>
                  </labels>
               </clipitem>
               <clipitem id="clipitem-507">
                  <masterclipid>masterclip-264</masterclipid>
                  <name>mymovie.mov</name>
                  <enabled>TRUE</enabled>
                  <duration>107</duration>
                  <rate>
                     <timebase>24</timebase>
                     <ntsc>TRUE</ntsc>
                  </rate>
                  <start>1675</start>
                  <end>1734</end>
                  <in>25</in>
                  <out>84</out>
                  <pproTicksIn>264864600000</pproTicksIn>
                  <pproTicksOut>889945056000</pproTicksOut>
                  <alphatype>none</alphatype>
                  <pixelaspectratio>square</pixelaspectratio>
                  <anamorphic>FALSE</anamorphic>
                  <file id="file-256">
                     <name>mymovie.mov</name>
                     <pathurl>file://localhost/Volumes/mydisk/mymovie.mov</pathurl>
                     <rate>
                        <timebase>24</timebase>
                        <ntsc>FALSE</ntsc>
                     </rate>
                     <duration>108</duration>
                     <timecode>
                        <rate>
                           <timebase>24</timebase>
                           <ntsc>FALSE</ntsc>
                        </rate>
                        <string>00:00:41:00</string>
                        <frame>984</frame>
                        <displayformat>NDF</displayformat>
                     </timecode>
                     <media>
                        <video>
                           <samplecharacteristics>
                              <rate>
                                 <timebase>24</timebase>
                                 <ntsc>FALSE</ntsc>
                              </rate>
                              <width>1920</width>
                              <height>1080</height>
                              <anamorphic>FALSE</anamorphic>
                              <pixelaspectratio>square</pixelaspectratio>
                              <fielddominance>none</fielddominance>
                           </samplecharacteristics>
                        </video>
                     </media>
                  </file>
                  <logginginfo>
                     <description />
                     <scene />
                     <shottake />
                     <lognote />
                     <good />
                     <originalvideofilename />
                     <originalaudiofilename />
                  </logginginfo>
                  <colorinfo>
                     <lut />
                     <lut1 />
                     <asc_sop />
                     <asc_sat />
                     <lut2 />
                  </colorinfo>
                  <labels>
                     <label2>Iris</label2>
                  </labels>
               </clipitem>
               <clipitem id="clipitem-508">
                  <masterclipid>masterclip-265</masterclipid>
                  <name>mymovie.mov</name>
                  <enabled>TRUE</enabled>
                  <duration>116</duration>
                  <rate>
                     <timebase>24</timebase>
                     <ntsc>TRUE</ntsc>
                  </rate>
                  <start>1734</start>
                  <end>1802</end>
                  <in>25</in>
                  <out>93</out>
                  <pproTicksIn>264864600000</pproTicksIn>
                  <pproTicksOut>985296312000</pproTicksOut>
                  <alphatype>none</alphatype>
                  <pixelaspectratio>square</pixelaspectratio>
                  <anamorphic>FALSE</anamorphic>
                  <file id="file-257">
                     <name>mymovie.mov</name>
                     <pathurl>file://localhost/Volumes/mydisk/mymovie.mov</pathurl>
                     <rate>
                        <timebase>24</timebase>
                        <ntsc>FALSE</ntsc>
                     </rate>
                     <duration>117</duration>
                     <timecode>
                        <rate>
                           <timebase>24</timebase>
                           <ntsc>FALSE</ntsc>
                        </rate>
                        <string>00:00:41:00</string>
                        <frame>984</frame>
                        <displayformat>NDF</displayformat>
                     </timecode>
                     <media>
                        <video>
                           <samplecharacteristics>
                              <rate>
                                 <timebase>24</timebase>
                                 <ntsc>FALSE</ntsc>
                              </rate>
                              <width>1920</width>
                              <height>1080</height>
                              <anamorphic>FALSE</anamorphic>
                              <pixelaspectratio>square</pixelaspectratio>
                              <fielddominance>none</fielddominance>
                           </samplecharacteristics>
                        </video>
                     </media>
                  </file>
                  <logginginfo>
                     <description />
                     <scene />
                     <shottake />
                     <lognote />
                     <good />
                     <originalvideofilename />
                     <originalaudiofilename />
                  </logginginfo>
                  <colorinfo>
                     <lut />
                     <lut1 />
                     <asc_sop />
                     <asc_sat />
                     <lut2 />
                  </colorinfo>
                  <labels>
                     <label2>Iris</label2>
                  </labels>
               </clipitem>
               <clipitem id="clipitem-509">
                  <masterclipid>masterclip-266</masterclipid>
                  <name>mymovie.mov</name>
                  <enabled>TRUE</enabled>
                  <duration>161</duration>
                  <rate>
                     <timebase>24</timebase>
                     <ntsc>TRUE</ntsc>
                  </rate>
                  <start>1862</start>
                  <end>1975</end>
                  <in>25</in>
                  <out>138</out>
                  <pproTicksIn>264864600000</pproTicksIn>
                  <pproTicksOut>1462052592000</pproTicksOut>
                  <alphatype>none</alphatype>
                  <pixelaspectratio>square</pixelaspectratio>
                  <anamorphic>FALSE</anamorphic>
                  <file id="file-258">
                     <name>mymovie.mov</name>
                     <pathurl>file://localhost/Volumes/mydisk/mymovie.mov</pathurl>
                     <rate>
                        <timebase>24</timebase>
                        <ntsc>FALSE</ntsc>
                     </rate>
                     <duration>162</duration>
                     <timecode>
                        <rate>
                           <timebase>24</timebase>
                           <ntsc>FALSE</ntsc>
                        </rate>
                        <string>00:00:41:00</string>
                        <frame>984</frame>
                        <displayformat>NDF</displayformat>
                     </timecode>
                     <media>
                        <video>
                           <samplecharacteristics>
                              <rate>
                                 <timebase>24</timebase>
                                 <ntsc>FALSE</ntsc>
                              </rate>
                              <width>1920</width>
                              <height>1080</height>
                              <anamorphic>FALSE</anamorphic>
                              <pixelaspectratio>square</pixelaspectratio>
                              <fielddominance>none</fielddominance>
                           </samplecharacteristics>
                        </video>
                     </media>
                  </file>
                  <logginginfo>
                     <description />
                     <scene />
                     <shottake />
                     <lognote />
                     <good />
                     <originalvideofilename />
                     <originalaudiofilename />
                  </logginginfo>
                  <colorinfo>
                     <lut />
                     <lut1 />
                     <asc_sop />
                     <asc_sat />
                     <lut2 />
                  </colorinfo>
                  <labels>
                     <label2>Iris</label2>
                  </labels>
               </clipitem>
               <clipitem id="clipitem-510">
                  <masterclipid>masterclip-267</masterclipid>
                  <name>mymovie.mov</name>
                  <enabled>TRUE</enabled>
                  <duration>119</duration>
                  <rate>
                     <timebase>24</timebase>
                     <ntsc>TRUE</ntsc>
                  </rate>
                  <start>1975</start>
                  <end>2046</end>
                  <in>25</in>
                  <out>96</out>
                  <pproTicksIn>264864600000</pproTicksIn>
                  <pproTicksOut>1017080064000</pproTicksOut>
                  <alphatype>none</alphatype>
                  <pixelaspectratio>square</pixelaspectratio>
                  <anamorphic>FALSE</anamorphic>
                  <file id="file-259">
                     <name>mymovie.mov</name>
                     <pathurl>file://localhost/Volumes/mydisk/mymovie.mov</pathurl>
                     <rate>
                        <timebase>24</timebase>
                        <ntsc>FALSE</ntsc>
                     </rate>
                     <duration>120</duration>
                     <timecode>
                        <rate>
                           <timebase>24</timebase>
                           <ntsc>FALSE</ntsc>
                        </rate>
                        <string>00:00:41:00</string>
                        <frame>984</frame>
                        <displayformat>NDF</displayformat>
                     </timecode>
                     <media>
                        <video>
                           <samplecharacteristics>
                              <rate>
                                 <timebase>24</timebase>
                                 <ntsc>FALSE</ntsc>
                              </rate>
                              <width>1920</width>
                              <height>1080</height>
                              <anamorphic>FALSE</anamorphic>
                              <pixelaspectratio>square</pixelaspectratio>
                              <fielddominance>none</fielddominance>
                           </samplecharacteristics>
                        </video>
                     </media>
                  </file>
                  <logginginfo>
                     <description />
                     <scene />
                     <shottake />
                     <lognote />
                     <good />
                     <originalvideofilename />
                     <originalaudiofilename />
                  </logginginfo>
                  <colorinfo>
                     <lut />
                     <lut1 />
                     <asc_sop />
                     <asc_sat />
                     <lut2 />
                  </colorinfo>
                  <labels>
                     <label2>Iris</label2>
                  </labels>
               </clipitem>
               <clipitem id="clipitem-511">
                  <masterclipid>masterclip-268</masterclipid>
                  <name>mymovie.mov</name>
                  <enabled>TRUE</enabled>
                  <duration>109</duration>
                  <rate>
                     <timebase>24</timebase>
                     <ntsc>TRUE</ntsc>
                  </rate>
                  <start>2094</start>
                  <end>2155</end>
                  <in>25</in>
                  <out>86</out>
                  <pproTicksIn>264864600000</pproTicksIn>
                  <pproTicksOut>911134224000</pproTicksOut>
                  <alphatype>none</alphatype>
                  <pixelaspectratio>square</pixelaspectratio>
                  <anamorphic>FALSE</anamorphic>
                  <file id="file-260">
                     <name>mymovie.mov</name>
                     <pathurl>file://localhost/Volumes/mydisk/mymovie.mov</pathurl>
                     <rate>
                        <timebase>24</timebase>
                        <ntsc>FALSE</ntsc>
                     </rate>
                     <duration>110</duration>
                     <timecode>
                        <rate>
                           <timebase>24</timebase>
                           <ntsc>FALSE</ntsc>
                        </rate>
                        <string>00:00:41:00</string>
                        <frame>984</frame>
                        <displayformat>NDF</displayformat>
                     </timecode>
                     <media>
                        <video>
                           <samplecharacteristics>
                              <rate>
                                 <timebase>24</timebase>
                                 <ntsc>FALSE</ntsc>
                              </rate>
                              <width>1920</width>
                              <height>1080</height>
                              <anamorphic>FALSE</anamorphic>
                              <pixelaspectratio>square</pixelaspectratio>
                              <fielddominance>none</fielddominance>
                           </samplecharacteristics>
                        </video>
                     </media>
                  </file>
                  <logginginfo>
                     <description />
                     <scene />
                     <shottake />
                     <lognote />
                     <good />
                     <originalvideofilename />
                     <originalaudiofilename />
                  </logginginfo>
                  <colorinfo>
                     <lut />
                     <lut1 />
                     <asc_sop />
                     <asc_sat />
                     <lut2 />
                  </colorinfo>
                  <labels>
                     <label2>Iris</label2>
                  </labels>
               </clipitem>
               <clipitem id="clipitem-512">
                  <masterclipid>masterclip-269</masterclipid>
                  <name>mymovie.mov</name>
                  <enabled>TRUE</enabled>
                  <duration>101</duration>
                  <rate>
                     <timebase>24</timebase>
                     <ntsc>TRUE</ntsc>
                  </rate>
                  <start>2155</start>
                  <end>2207</end>
                  <in>25</in>
                  <out>77</out>
                  <pproTicksIn>264864600000</pproTicksIn>
                  <pproTicksOut>815782968000</pproTicksOut>
                  <alphatype>none</alphatype>
                  <pixelaspectratio>square</pixelaspectratio>
                  <anamorphic>FALSE</anamorphic>
                  <file id="file-261">
                     <name>mymovie.mov</name>
                     <pathurl>file://localhost/Volumes/mydisk/mymovie.mov</pathurl>
                     <rate>
                        <timebase>24</timebase>
                        <ntsc>TRUE</ntsc>
                     </rate>
                     <duration>101</duration>
                     <timecode>
                        <rate>
                           <timebase>24</timebase>
                           <ntsc>TRUE</ntsc>
                        </rate>
                        <string>00:00:41:00</string>
                        <frame>984</frame>
                        <displayformat>NDF</displayformat>
                     </timecode>
                     <media>
                        <video>
                           <samplecharacteristics>
                              <rate>
                                 <timebase>24</timebase>
                                 <ntsc>TRUE</ntsc>
                              </rate>
                              <width>1920</width>
                              <height>1080</height>
                              <anamorphic>FALSE</anamorphic>
                              <pixelaspectratio>square</pixelaspectratio>
                              <fielddominance>none</fielddominance>
                           </samplecharacteristics>
                        </video>
                     </media>
                  </file>
                  <logginginfo>
                     <description />
                     <scene />
                     <shottake />
                     <lognote />
                     <good />
                     <originalvideofilename />
                     <originalaudiofilename />
                  </logginginfo>
                  <colorinfo>
                     <lut />
                     <lut1 />
                     <asc_sop />
                     <asc_sat />
                     <lut2 />
                  </colorinfo>
                  <labels>
                     <label2>Violet</label2>
                  </labels>
               </clipitem>
               <clipitem id="clipitem-513">
                  <masterclipid>masterclip-270</masterclipid>
                  <name>mymovie.mov</name>
                  <enabled>TRUE</enabled>
                  <duration>100</duration>
                  <rate>
                     <timebase>24</timebase>
                     <ntsc>TRUE</ntsc>
                  </rate>
                  <start>2207</start>
                  <end>2259</end>
                  <in>25</in>
                  <out>77</out>
                  <pproTicksIn>264864600000</pproTicksIn>
                  <pproTicksOut>815782968000</pproTicksOut>
                  <alphatype>none</alphatype>
                  <pixelaspectratio>square</pixelaspectratio>
                  <anamorphic>FALSE</anamorphic>
                  <file id="file-262">
                     <name>mymovie.mov</name>
                     <pathurl>file://localhost/Volumes/mydisk/mymovie.mov</pathurl>
                     <rate>
                        <timebase>24</timebase>
                        <ntsc>FALSE</ntsc>
                     </rate>
                     <duration>101</duration>
                     <timecode>
                        <rate>
                           <timebase>24</timebase>
                           <ntsc>FALSE</ntsc>
                        </rate>
                        <string>00:00:41:00</string>
                        <frame>984</frame>
                        <displayformat>NDF</displayformat>
                     </timecode>
                     <media>
                        <video>
                           <samplecharacteristics>
                              <rate>
                                 <timebase>24</timebase>
                                 <ntsc>FALSE</ntsc>
                              </rate>
                              <width>1920</width>
                              <height>1080</height>
                              <anamorphic>FALSE</anamorphic>
                              <pixelaspectratio>square</pixelaspectratio>
                              <fielddominance>none</fielddominance>
                           </samplecharacteristics>
                        </video>
                     </media>
                  </file>
                  <logginginfo>
                     <description />
                     <scene />
                     <shottake />
                     <lognote />
                     <good />
                     <originalvideofilename />
                     <originalaudiofilename />
                  </logginginfo>
                  <colorinfo>
                     <lut />
                     <lut1 />
                     <asc_sop />
                     <asc_sat />
                     <lut2 />
                  </colorinfo>
                  <labels>
                     <label2>Iris</label2>
                  </labels>
               </clipitem>
               <clipitem id="clipitem-514">
                  <masterclipid>masterclip-271</masterclipid>
                  <name>myshow</name>
                  <enabled>TRUE</enabled>
                  <duration>1114</duration>
                  <rate>
                     <timebase>24</timebase>
                     <ntsc>TRUE</ntsc>
                  </rate>
                  <start>2306</start>
                  <end>2388</end>
                  <in>1009</in>
                  <out>1091</out>
                  <pproTicksIn>10689935256000</pproTicksIn>
                  <pproTicksOut>11558691144000</pproTicksOut>
                  <sequence id="sequence-9" TL.SQAudioVisibleBase="0" TL.SQVideoVisibleBase="0" TL.SQVisibleBaseTime="9429179760000" TL.SQAVDividerPosition="0.5" TL.SQHideShyTracks="0" TL.SQHeaderWidth="236" Monitor.ProgramZoomOut="11643447816000" Monitor.ProgramZoomIn="0" TL.SQTimePerPixel="0.0064335326876799378" MZ.EditLine="10689935256000" MZ.Sequence.PreviewFrameSizeHeight="1080" MZ.Sequence.PreviewFrameSizeWidth="1920" MZ.Sequence.AudioTimeDisplayFormat="200" MZ.Sequence.PreviewRenderingClassID="1297106761" MZ.Sequence.PreviewRenderingPresetCodec="1297107278" MZ.Sequence.PreviewRenderingPresetPath="EncoderPresets/SequencePreview/795454d9-d3c2-429d-9474-923ab13b7018/I-Frame Only MPEG.epr" MZ.Sequence.PreviewUseMaxRenderQuality="false" MZ.Sequence.PreviewUseMaxBitDepth="false" MZ.Sequence.EditingModeGUID="795454d9-d3c2-429d-9474-923ab13b7018" MZ.Sequence.VideoTimeDisplayFormat="109" MZ.WorkOutPoint="868755888000" MZ.WorkInPoint="0">
                     <duration>1091</duration>
                     <rate>
                        <timebase>24</timebase>
                        <ntsc>TRUE</ntsc>
                     </rate>
                     <name>myshow</name>
                     <media>
                        <video>
                           <format>
                              <samplecharacteristics>
                                 <rate>
                                    <timebase>24</timebase>
                                    <ntsc>TRUE</ntsc>
                                 </rate>
                                 <codec>
                                    <name>Apple ProRes 422</name>
                                    <appspecificdata>
                                       <appname>Final Cut Pro</appname>
                                       <appmanufacturer>Apple Inc.</appmanufacturer>
                                       <appversion>7.0</appversion>
                                       <data>
                                          <qtcodec>
                                             <codecname>Apple ProRes 422</codecname>
                                             <codectypename>Apple ProRes 422</codectypename>
                                             <codectypecode>apcn</codectypecode>
                                             <codecvendorcode>appl</codecvendorcode>
                                             <spatialquality>1024</spatialquality>
                                             <temporalquality>0</temporalquality>
                                             <keyframerate>0</keyframerate>
                                             <datarate>0</datarate>
                                          </qtcodec>
                                       </data>
                                    </appspecificdata>
                                 </codec>
                                 <width>1920</width>
                                 <height>1080</height>
                                 <anamorphic>FALSE</anamorphic>
                                 <pixelaspectratio>square</pixelaspectratio>
                                 <fielddominance>none</fielddominance>
                                 <colordepth>24</colordepth>
                              </samplecharacteristics>
                           </format>
                           <track TL.SQTrackShy="0" TL.SQTrackExpandedHeight="25" TL.SQTrackExpanded="0" MZ.TrackTargeted="1">
                              <clipitem id="clipitem-515">
                                 <masterclipid>masterclip-272</masterclipid>
                                 <name>mymovie.mov</name>
                                 <enabled>TRUE</enabled>
                                 <duration>14783</duration>
                                 <rate>
                                    <timebase>24</timebase>
                                    <ntsc>TRUE</ntsc>
                                 </rate>
                                 <start>1009</start>
                                 <end>1091</end>
                                 <in>2443</in>
                                 <out>2525</out>
                                 <pproTicksIn>25882568712000</pproTicksIn>
                                 <pproTicksOut>26751324600000</pproTicksOut>
                                 <alphatype>none</alphatype>
                                 <pixelaspectratio>square</pixelaspectratio>
                                 <anamorphic>FALSE</anamorphic>
                                 <file id="file-263">
                                    <name>mymovie.mov</name>
                                    <pathurl>file://localhost/Volumes/mydisk/mymovie.mov</pathurl>
                                    <rate>
                                       <timebase>24</timebase>
                                       <ntsc>TRUE</ntsc>
                                    </rate>
                                    <duration>14783</duration>
                                    <timecode>
                                       <rate>
                                          <timebase>24</timebase>
                                          <ntsc>TRUE</ntsc>
                                       </rate>
                                       <string>00:59:59:00</string>
                                       <frame>86376</frame>
                                       <displayformat>NDF</displayformat>
                                    </timecode>
                                    <media>
                                       <video>
                                          <samplecharacteristics>
                                             <rate>
                                                <timebase>24</timebase>
                                                <ntsc>TRUE</ntsc>
                                             </rate>
                                             <width>2048</width>
                                             <height>858</height>
                                             <anamorphic>FALSE</anamorphic>
                                             <pixelaspectratio>square</pixelaspectratio>
                                             <fielddominance>none</fielddominance>
                                          </samplecharacteristics>
                                       </video>
                                       <audio>
                                          <samplecharacteristics>
                                             <depth>16</depth>
                                             <samplerate>48000</samplerate>
                                          </samplecharacteristics>
                                          <channelcount>2</channelcount>
                                       </audio>
                                    </media>
                                 </file>
                                 <filter>
                                    <effect>
                                       <name>Basic Motion</name>
                                       <effectid>basic</effectid>
                                       <effectcategory>motion</effectcategory>
                                       <effecttype>motion</effecttype>
                                       <mediatype>video</mediatype>
                                       <pproBypass>false</pproBypass>
                                       <parameter authoringApp="PremierePro">
                                          <parameterid>scale</parameterid>
                                          <name>Scale</name>
                                          <valuemin>0</valuemin>
                                          <valuemax>1000</valuemax>
                                          <value>93.75</value>
                                       </parameter>
                                       <parameter authoringApp="PremierePro">
                                          <parameterid>rotation</parameterid>
                                          <name>Rotation</name>
                                          <valuemin>-8640</valuemin>
                                          <valuemax>8640</valuemax>
                                          <value>0</value>
                                       </parameter>
                                       <parameter authoringApp="PremierePro">
                                          <parameterid>center</parameterid>
                                          <name>Center</name>
                                          <value>
                                             <horiz>0</horiz>
                                             <vert>0</vert>
                                          </value>
                                       </parameter>
                                       <parameter authoringApp="PremierePro">
                                          <parameterid>centerOffset</parameterid>
                                          <name>Anchor Point</name>
                                          <value>
                                             <horiz>0</horiz>
                                             <vert>0</vert>
                                          </value>
                                       </parameter>
                                       <parameter authoringApp="PremierePro">
                                          <parameterid>antiflicker</parameterid>
                                          <name>Anti-flicker Filter</name>
                                          <valuemin>0.0</valuemin>
                                          <valuemax>1.0</valuemax>
                                          <value>0</value>
                                       </parameter>
                                    </effect>
                                 </filter>
                                 <link>
                                    <linkclipref>clipitem-515</linkclipref>
                                    <mediatype>video</mediatype>
                                    <trackindex>1</trackindex>
                                    <clipindex>1</clipindex>
                                 </link>
                                 <link>
                                    <linkclipref>clipitem-518</linkclipref>
                                    <mediatype>audio</mediatype>
                                    <trackindex>1</trackindex>
                                    <clipindex>1</clipindex>
                                    <groupindex>1</groupindex>
                                 </link>
                                 <link>
                                    <linkclipref>clipitem-519</linkclipref>
                                    <mediatype>audio</mediatype>
                                    <trackindex>2</trackindex>
                                    <clipindex>1</clipindex>
                                    <groupindex>1</groupindex>
                                 </link>
                                 <logginginfo>
                                    <description />
                                    <scene />
                                    <shottake />
                                    <lognote />
                                    <good />
                                    <originalvideofilename />
                                    <originalaudiofilename />
                                 </logginginfo>
                                 <colorinfo>
                                    <lut />
                                    <lut1 />
                                    <asc_sop />
                                    <asc_sat />
                                    <lut2 />
                                 </colorinfo>
                                 <labels>
                                    <label2>Iris</label2>
                                 </labels>
                              </clipitem>
                              <enabled>TRUE</enabled>
                              <locked>FALSE</locked>
                           </track>
                           <track TL.SQTrackShy="0" TL.SQTrackExpandedHeight="25" TL.SQTrackExpanded="0" MZ.TrackTargeted="0">
                              <clipitem id="clipitem-516">
                                 <masterclipid>masterclip-273</masterclipid>
                                 <name>mymovie.mov</name>
                                 <enabled>TRUE</enabled>
                                 <duration>130</duration>
                                 <rate>
                                    <timebase>24</timebase>
                                    <ntsc>TRUE</ntsc>
                                 </rate>
                                 <start>1001</start>
                                 <end>1099</end>
                                 <in>17</in>
                                 <out>115</out>
                                 <pproTicksIn>180107928000</pproTicksIn>
                                 <pproTicksOut>1218377160000</pproTicksOut>
                                 <alphatype>none</alphatype>
                                 <pixelaspectratio>square</pixelaspectratio>
                                 <anamorphic>FALSE</anamorphic>
                                 <file id="file-264">
                                    <name>mymovie.mov</name>
                                    <pathurl>file://localhost/Volumes/mydisk/mymovie.mov</pathurl>
                                    <rate>
                                       <timebase>24</timebase>
                                       <ntsc>FALSE</ntsc>
                                    </rate>
                                    <duration>131</duration>
                                    <timecode>
                                       <rate>
                                          <timebase>24</timebase>
                                          <ntsc>FALSE</ntsc>
                                       </rate>
                                       <string>00:00:41:00</string>
                                       <frame>984</frame>
                                       <displayformat>NDF</displayformat>
                                    </timecode>
                                    <media>
                                       <video>
                                          <samplecharacteristics>
                                             <rate>
                                                <timebase>24</timebase>
                                                <ntsc>FALSE</ntsc>
                                             </rate>
                                             <width>1920</width>
                                             <height>1080</height>
                                             <anamorphic>FALSE</anamorphic>
                                             <pixelaspectratio>square</pixelaspectratio>
                                             <fielddominance>none</fielddominance>
                                          </samplecharacteristics>
                                       </video>
                                    </media>
                                 </file>
                                 <filter>
                                    <effect>
                                       <name>Basic Motion</name>
                                       <effectid>basic</effectid>
                                       <effectcategory>motion</effectcategory>
                                       <effecttype>motion</effecttype>
                                       <mediatype>video</mediatype>
                                       <pproBypass>false</pproBypass>
                                       <parameter authoringApp="PremierePro">
                                          <parameterid>scale</parameterid>
                                          <name>Scale</name>
                                          <valuemin>0</valuemin>
                                          <valuemax>1000</valuemax>
                                          <value>140</value>
                                       </parameter>
                                       <parameter authoringApp="PremierePro">
                                          <parameterid>rotation</parameterid>
                                          <name>Rotation</name>
                                          <valuemin>-8640</valuemin>
                                          <valuemax>8640</valuemax>
                                          <value>0</value>
                                       </parameter>
                                       <parameter authoringApp="PremierePro">
                                          <parameterid>center</parameterid>
                                          <name>Center</name>
                                          <value>
                                             <horiz>0.00104165</horiz>
                                             <vert>0.117593</vert>
                                          </value>
                                       </parameter>
                                       <parameter authoringApp="PremierePro">
                                          <parameterid>centerOffset</parameterid>
                                          <name>Anchor Point</name>
                                          <value>
                                             <horiz>0</horiz>
                                             <vert>0</vert>
                                          </value>
                                       </parameter>
                                       <parameter authoringApp="PremierePro">
                                          <parameterid>antiflicker</parameterid>
                                          <name>Anti-flicker Filter</name>
                                          <valuemin>0.0</valuemin>
                                          <valuemax>1.0</valuemax>
                                          <value>0</value>
                                       </parameter>
                                    </effect>
                                 </filter>
                                 <filter>
                                    <effect>
                                       <name>Crop</name>
                                       <effectid>crop</effectid>
                                       <effectcategory>motion</effectcategory>
                                       <effecttype>motion</effecttype>
                                       <mediatype>video</mediatype>
                                       <pproBypass>false</pproBypass>
                                       <parameter authoringApp="PremierePro">
                                          <parameterid>left</parameterid>
                                          <name>left</name>
                                          <valuemin>0</valuemin>
                                          <valuemax>100</valuemax>
                                          <value>0</value>
                                       </parameter>
                                       <parameter authoringApp="PremierePro">
                                          <parameterid>right</parameterid>
                                          <name>right</name>
                                          <valuemin>0</valuemin>
                                          <valuemax>100</valuemax>
                                          <value>42</value>
                                       </parameter>
                                       <parameter authoringApp="PremierePro">
                                          <parameterid>top</parameterid>
                                          <name>top</name>
                                          <valuemin>0</valuemin>
                                          <valuemax>100</valuemax>
                                          <value>0</value>
                                       </parameter>
                                       <parameter authoringApp="PremierePro">
                                          <parameterid>bottom</parameterid>
                                          <name>bottom</name>
                                          <valuemin>0</valuemin>
                                          <valuemax>100</valuemax>
                                          <value>0</value>
                                       </parameter>
                                    </effect>
                                 </filter>
                                 <logginginfo>
                                    <description />
                                    <scene />
                                    <shottake />
                                    <lognote />
                                    <good />
                                    <originalvideofilename />
                                    <originalaudiofilename />
                                 </logginginfo>
                                 <colorinfo>
                                    <lut />
                                    <lut1 />
                                    <asc_sop />
                                    <asc_sat />
                                    <lut2 />
                                 </colorinfo>
                                 <labels>
                                    <label2>Iris</label2>
                                 </labels>
                              </clipitem>
                              <enabled>FALSE</enabled>
                              <locked>FALSE</locked>
                           </track>
                           <track TL.SQTrackShy="0" TL.SQTrackExpandedHeight="25" TL.SQTrackExpanded="0" MZ.TrackTargeted="0">
                              <clipitem id="clipitem-517">
                                 <masterclipid>masterclip-274</masterclipid>
                                 <name>mymovie.mov</name>
                                 <enabled>TRUE</enabled>
                                 <duration>130</duration>
                                 <rate>
                                    <timebase>24</timebase>
                                    <ntsc>TRUE</ntsc>
                                 </rate>
                                 <start>1001</start>
                                 <end>1099</end>
                                 <in>17</in>
                                 <out>115</out>
                                 <pproTicksIn>180107928000</pproTicksIn>
                                 <pproTicksOut>1218377160000</pproTicksOut>
                                 <alphatype>none</alphatype>
                                 <pixelaspectratio>square</pixelaspectratio>
                                 <anamorphic>FALSE</anamorphic>
                                 <file id="file-265">
                                    <name>mymovie.mov</name>
                                    <pathurl>file://localhost/Volumes/mydisk/mymovie.mov</pathurl>
                                    <rate>
                                       <timebase>24</timebase>
                                       <ntsc>FALSE</ntsc>
                                    </rate>
                                    <duration>131</duration>
                                    <timecode>
                                       <rate>
                                          <timebase>24</timebase>
                                          <ntsc>FALSE</ntsc>
                                       </rate>
                                       <string>00:00:41:00</string>
                                       <frame>984</frame>
                                       <displayformat>NDF</displayformat>
                                    </timecode>
                                    <media>
                                       <video>
                                          <samplecharacteristics>
                                             <rate>
                                                <timebase>24</timebase>
                                                <ntsc>FALSE</ntsc>
                                             </rate>
                                             <width>1920</width>
                                             <height>1080</height>
                                             <anamorphic>FALSE</anamorphic>
                                             <pixelaspectratio>square</pixelaspectratio>
                                             <fielddominance>none</fielddominance>
                                          </samplecharacteristics>
                                       </video>
                                    </media>
                                 </file>
                                 <filter>
                                    <effect>
                                       <name>Basic Motion</name>
                                       <effectid>basic</effectid>
                                       <effectcategory>motion</effectcategory>
                                       <effecttype>motion</effecttype>
                                       <mediatype>video</mediatype>
                                       <pproBypass>false</pproBypass>
                                       <parameter authoringApp="PremierePro">
                                          <parameterid>scale</parameterid>
                                          <name>Scale</name>
                                          <valuemin>0</valuemin>
                                          <valuemax>1000</valuemax>
                                          <value>140</value>
                                       </parameter>
                                       <parameter authoringApp="PremierePro">
                                          <parameterid>rotation</parameterid>
                                          <name>Rotation</name>
                                          <valuemin>-8640</valuemin>
                                          <valuemax>8640</valuemax>
                                          <value>0</value>
                                       </parameter>
                                       <parameter authoringApp="PremierePro">
                                          <parameterid>center</parameterid>
                                          <name>Center</name>
                                          <value>
                                             <horiz>0.00104165</horiz>
                                             <vert>0.117593</vert>
                                          </value>
                                       </parameter>
                                       <parameter authoringApp="PremierePro">
                                          <parameterid>centerOffset</parameterid>
                                          <name>Anchor Point</name>
                                          <value>
                                             <horiz>0</horiz>
                                             <vert>0</vert>
                                          </value>
                                       </parameter>
                                       <parameter authoringApp="PremierePro">
                                          <parameterid>antiflicker</parameterid>
                                          <name>Anti-flicker Filter</name>
                                          <valuemin>0.0</valuemin>
                                          <valuemax>1.0</valuemax>
                                          <value>0</value>
                                       </parameter>
                                    </effect>
                                 </filter>
                                 <filter>
                                    <effect>
                                       <name>Crop</name>
                                       <effectid>crop</effectid>
                                       <effectcategory>motion</effectcategory>
                                       <effecttype>motion</effecttype>
                                       <mediatype>video</mediatype>
                                       <pproBypass>false</pproBypass>
                                       <parameter authoringApp="PremierePro">
                                          <parameterid>left</parameterid>
                                          <name>left</name>
                                          <valuemin>0</valuemin>
                                          <valuemax>100</valuemax>
                                          <value>57</value>
                                       </parameter>
                                       <parameter authoringApp="PremierePro">
                                          <parameterid>right</parameterid>
                                          <name>right</name>
                                          <valuemin>0</valuemin>
                                          <valuemax>100</valuemax>
                                          <value>0</value>
                                       </parameter>
                                       <parameter authoringApp="PremierePro">
                                          <parameterid>top</parameterid>
                                          <name>top</name>
                                          <valuemin>0</valuemin>
                                          <valuemax>100</valuemax>
                                          <value>0</value>
                                       </parameter>
                                       <parameter authoringApp="PremierePro">
                                          <parameterid>bottom</parameterid>
                                          <name>bottom</name>
                                          <valuemin>0</valuemin>
                                          <valuemax>100</valuemax>
                                          <value>0</value>
                                       </parameter>
                                    </effect>
                                 </filter>
                                 <logginginfo>
                                    <description />
                                    <scene />
                                    <shottake />
                                    <lognote />
                                    <good />
                                    <originalvideofilename />
                                    <originalaudiofilename />
                                 </logginginfo>
                                 <colorinfo>
                                    <lut />
                                    <lut1 />
                                    <asc_sop />
                                    <asc_sat />
                                    <lut2 />
                                 </colorinfo>
                                 <labels>
                                    <label2>Iris</label2>
                                 </labels>
                              </clipitem>
                              <enabled>FALSE</enabled>
                              <locked>FALSE</locked>
                           </track>
                           <track TL.SQTrackShy="0" TL.SQTrackExpandedHeight="25" TL.SQTrackExpanded="0" MZ.TrackTargeted="0">
                              <enabled>FALSE</enabled>
                              <locked>FALSE</locked>
                           </track>
                           <track TL.SQTrackShy="0" TL.SQTrackExpandedHeight="25" TL.SQTrackExpanded="0" MZ.TrackTargeted="0">
                              <enabled>TRUE</enabled>
                              <locked>FALSE</locked>
                           </track>
                        </video>
                        <audio>
                           <numOutputChannels>2</numOutputChannels>
                           <format>
                              <samplecharacteristics>
                                 <depth>16</depth>
                                 <samplerate>48000</samplerate>
                              </samplecharacteristics>
                           </format>
                           <outputs>
                              <group>
                                 <index>1</index>
                                 <numchannels>1</numchannels>
                                 <downmix>0</downmix>
                                 <channel>
                                    <index>1</index>
                                 </channel>
                              </group>
                              <group>
                                 <index>2</index>
                                 <numchannels>1</numchannels>
                                 <downmix>0</downmix>
                                 <channel>
                                    <index>2</index>
                                 </channel>
                              </group>
                           </outputs>
                           <track TL.SQTrackAudioKeyframeStyle="0" TL.SQTrackShy="0" TL.SQTrackExpandedHeight="25" TL.SQTrackExpanded="0" MZ.TrackTargeted="1" PannerCurrentValue="0.5" PannerIsInverted="true" PannerStartKeyframe="-91445760000000000,0.5,0,0,0,0,0,0" PannerName="Balance" currentExplodedTrackIndex="0" totalExplodedTrackCount="2" premiereTrackType="Stereo">
                              <clipitem id="clipitem-518" premiereChannelType="stereo">
                                 <masterclipid>masterclip-272</masterclipid>
                                 <name>mymovie.mov</name>
                                 <enabled>TRUE</enabled>
                                 <duration>14783</duration>
                                 <rate>
                                    <timebase>24</timebase>
                                    <ntsc>TRUE</ntsc>
                                 </rate>
                                 <start>1009</start>
                                 <end>1091</end>
                                 <in>2443</in>
                                 <out>2525</out>
                                 <pproTicksIn>25882568712000</pproTicksIn>
                                 <pproTicksOut>26751324600000</pproTicksOut>
                                 <file id="file-263" />
                                 <sourcetrack>
                                    <mediatype>audio</mediatype>
                                    <trackindex>1</trackindex>
                                 </sourcetrack>
                                 <link>
                                    <linkclipref>clipitem-515</linkclipref>
                                    <mediatype>video</mediatype>
                                    <trackindex>1</trackindex>
                                    <clipindex>1</clipindex>
                                 </link>
                                 <link>
                                    <linkclipref>clipitem-518</linkclipref>
                                    <mediatype>audio</mediatype>
                                    <trackindex>1</trackindex>
                                    <clipindex>1</clipindex>
                                    <groupindex>1</groupindex>
                                 </link>
                                 <link>
                                    <linkclipref>clipitem-519</linkclipref>
                                    <mediatype>audio</mediatype>
                                    <trackindex>2</trackindex>
                                    <clipindex>1</clipindex>
                                    <groupindex>1</groupindex>
                                 </link>
                                 <logginginfo>
                                    <description />
                                    <scene />
                                    <shottake />
                                    <lognote />
                                    <good />
                                    <originalvideofilename />
                                    <originalaudiofilename />
                                 </logginginfo>
                                 <colorinfo>
                                    <lut />
                                    <lut1 />
                                    <asc_sop />
                                    <asc_sat />
                                    <lut2 />
                                 </colorinfo>
                                 <labels>
                                    <label2>Iris</label2>
                                 </labels>
                              </clipitem>
                              <enabled>TRUE</enabled>
                              <locked>FALSE</locked>
                              <outputchannelindex>1</outputchannelindex>
                           </track>
                           <track TL.SQTrackAudioKeyframeStyle="0" TL.SQTrackShy="0" TL.SQTrackExpandedHeight="25" TL.SQTrackExpanded="0" MZ.TrackTargeted="1" PannerCurrentValue="0.5" PannerIsInverted="true" PannerStartKeyframe="-91445760000000000,0.5,0,0,0,0,0,0" PannerName="Balance" currentExplodedTrackIndex="1" totalExplodedTrackCount="2" premiereTrackType="Stereo">
                              <clipitem id="clipitem-519" premiereChannelType="stereo">
                                 <masterclipid>masterclip-272</masterclipid>
                                 <name>mymovie.mov</name>
                                 <enabled>TRUE</enabled>
                                 <duration>14783</duration>
                                 <rate>
                                    <timebase>24</timebase>
                                    <ntsc>TRUE</ntsc>
                                 </rate>
                                 <start>1009</start>
                                 <end>1091</end>
                                 <in>2443</in>
                                 <out>2525</out>
                                 <pproTicksIn>25882568712000</pproTicksIn>
                                 <pproTicksOut>26751324600000</pproTicksOut>
                                 <file id="file-263" />
                                 <sourcetrack>
                                    <mediatype>audio</mediatype>
                                    <trackindex>2</trackindex>
                                 </sourcetrack>
                                 <link>
                                    <linkclipref>clipitem-515</linkclipref>
                                    <mediatype>video</mediatype>
                                    <trackindex>1</trackindex>
                                    <clipindex>1</clipindex>
                                 </link>
                                 <link>
                                    <linkclipref>clipitem-518</linkclipref>
                                    <mediatype>audio</mediatype>
                                    <trackindex>1</trackindex>
                                    <clipindex>1</clipindex>
                                    <groupindex>1</groupindex>
                                 </link>
                                 <link>
                                    <linkclipref>clipitem-519</linkclipref>
                                    <mediatype>audio</mediatype>
                                    <trackindex>2</trackindex>
                                    <clipindex>1</clipindex>
                                    <groupindex>1</groupindex>
                                 </link>
                                 <logginginfo>
                                    <description />
                                    <scene />
                                    <shottake />
                                    <lognote />
                                    <good />
                                    <originalvideofilename />
                                    <originalaudiofilename />
                                 </logginginfo>
                                 <colorinfo>
                                    <lut />
                                    <lut1 />
                                    <asc_sop />
                                    <asc_sat />
                                    <lut2 />
                                 </colorinfo>
                                 <labels>
                                    <label2>Iris</label2>
                                 </labels>
                              </clipitem>
                              <enabled>TRUE</enabled>
                              <locked>FALSE</locked>
                              <outputchannelindex>2</outputchannelindex>
                           </track>
                        </audio>
                     </media>
                     <timecode>
                        <rate>
                           <timebase>24</timebase>
                           <ntsc>TRUE</ntsc>
                        </rate>
                        <string>00:00:00:00</string>
                        <frame>0</frame>
                        <displayformat>NDF</displayformat>
                     </timecode>
                     <logginginfo>
                        <description />
                        <scene />
                        <shottake />
                        <lognote />
                        <good />
                        <originalvideofilename />
                        <originalaudiofilename />
                     </logginginfo>
                  </sequence>
                  <labels>
                     <label2>Forest</label2>
                  </labels>
               </clipitem>
               <clipitem id="clipitem-520">
                  <masterclipid>masterclip-275</masterclipid>
                  <name>mymovie.mov</name>
                  <enabled>TRUE</enabled>
                  <duration>155</duration>
                  <rate>
                     <timebase>24</timebase>
                     <ntsc>TRUE</ntsc>
                  </rate>
                  <start>2585</start>
                  <end>2692</end>
                  <in>25</in>
                  <out>132</out>
                  <pproTicksIn>264864600000</pproTicksIn>
                  <pproTicksOut>1398485088000</pproTicksOut>
                  <alphatype>none</alphatype>
                  <pixelaspectratio>square</pixelaspectratio>
                  <anamorphic>FALSE</anamorphic>
                  <file id="file-266">
                     <name>mymovie.mov</name>
                     <pathurl>file://localhost/Volumes/mydisk/mymovie.mov</pathurl>
                     <rate>
                        <timebase>24</timebase>
                        <ntsc>FALSE</ntsc>
                     </rate>
                     <duration>156</duration>
                     <timecode>
                        <rate>
                           <timebase>24</timebase>
                           <ntsc>FALSE</ntsc>
                        </rate>
                        <string>00:00:41:00</string>
                        <frame>984</frame>
                        <displayformat>NDF</displayformat>
                     </timecode>
                     <media>
                        <video>
                           <samplecharacteristics>
                              <rate>
                                 <timebase>24</timebase>
                                 <ntsc>FALSE</ntsc>
                              </rate>
                              <width>1920</width>
                              <height>1080</height>
                              <anamorphic>FALSE</anamorphic>
                              <pixelaspectratio>square</pixelaspectratio>
                              <fielddominance>none</fielddominance>
                           </samplecharacteristics>
                        </video>
                     </media>
                  </file>
                  <logginginfo>
                     <description />
                     <scene />
                     <shottake />
                     <lognote />
                     <good />
                     <originalvideofilename />
                     <originalaudiofilename />
                  </logginginfo>
                  <colorinfo>
                     <lut />
                     <lut1 />
                     <asc_sop />
                     <asc_sat />
                     <lut2 />
                  </colorinfo>
                  <labels>
                     <label2>Iris</label2>
                  </labels>
               </clipitem>
               <clipitem id="clipitem-521">
                  <masterclipid>masterclip-276</masterclipid>
                  <name>mymovie.mov</name>
                  <enabled>TRUE</enabled>
                  <duration>167</duration>
                  <rate>
                     <timebase>24</timebase>
                     <ntsc>TRUE</ntsc>
                  </rate>
                  <start>2819</start>
                  <end>2938</end>
                  <in>25</in>
                  <out>144</out>
                  <pproTicksIn>264864600000</pproTicksIn>
                  <pproTicksOut>1525620096000</pproTicksOut>
                  <alphatype>none</alphatype>
                  <pixelaspectratio>square</pixelaspectratio>
                  <anamorphic>FALSE</anamorphic>
                  <file id="file-267">
                     <name>mymovie.mov</name>
                     <pathurl>file://localhost/Volumes/mydisk/mymovie.mov</pathurl>
                     <rate>
                        <timebase>24</timebase>
                        <ntsc>FALSE</ntsc>
                     </rate>
                     <duration>168</duration>
                     <timecode>
                        <rate>
                           <timebase>24</timebase>
                           <ntsc>FALSE</ntsc>
                        </rate>
                        <string>00:00:41:00</string>
                        <frame>984</frame>
                        <displayformat>NDF</displayformat>
                     </timecode>
                     <media>
                        <video>
                           <samplecharacteristics>
                              <rate>
                                 <timebase>24</timebase>
                                 <ntsc>FALSE</ntsc>
                              </rate>
                              <width>1920</width>
                              <height>1080</height>
                              <anamorphic>FALSE</anamorphic>
                              <pixelaspectratio>square</pixelaspectratio>
                              <fielddominance>none</fielddominance>
                           </samplecharacteristics>
                        </video>
                     </media>
                  </file>
                  <logginginfo>
                     <description />
                     <scene />
                     <shottake />
                     <lognote />
                     <good />
                     <originalvideofilename />
                     <originalaudiofilename />
                  </logginginfo>
                  <colorinfo>
                     <lut />
                     <lut1 />
                     <asc_sop />
                     <asc_sat />
                     <lut2 />
                  </colorinfo>
                  <labels>
                     <label2>Iris</label2>
                  </labels>
               </clipitem>
               <clipitem id="clipitem-522">
                  <masterclipid>masterclip-277</masterclipid>
                  <name>mymovie.mov</name>
                  <enabled>TRUE</enabled>
                  <duration>168</duration>
                  <rate>
                     <timebase>24</timebase>
                     <ntsc>TRUE</ntsc>
                  </rate>
                  <start>2938</start>
                  <end>3058</end>
                  <in>25</in>
                  <out>145</out>
                  <pproTicksIn>264864600000</pproTicksIn>
                  <pproTicksOut>1536214680000</pproTicksOut>
                  <alphatype>none</alphatype>
                  <pixelaspectratio>square</pixelaspectratio>
                  <anamorphic>FALSE</anamorphic>
                  <file id="file-268">
                     <name>mymovie.mov</name>
                     <pathurl>file://localhost/Volumes/mydisk/mymovie.mov</pathurl>
                     <rate>
                        <timebase>24</timebase>
                        <ntsc>FALSE</ntsc>
                     </rate>
                     <duration>169</duration>
                     <timecode>
                        <rate>
                           <timebase>24</timebase>
                           <ntsc>FALSE</ntsc>
                        </rate>
                        <string>00:00:41:00</string>
                        <frame>984</frame>
                        <displayformat>NDF</displayformat>
                     </timecode>
                     <media>
                        <video>
                           <samplecharacteristics>
                              <rate>
                                 <timebase>24</timebase>
                                 <ntsc>FALSE</ntsc>
                              </rate>
                              <width>1920</width>
                              <height>1080</height>
                              <anamorphic>FALSE</anamorphic>
                              <pixelaspectratio>square</pixelaspectratio>
                              <fielddominance>none</fielddominance>
                           </samplecharacteristics>
                        </video>
                     </media>
                  </file>
                  <logginginfo>
                     <description />
                     <scene />
                     <shottake />
                     <lognote />
                     <good />
                     <originalvideofilename />
                     <originalaudiofilename />
                  </logginginfo>
                  <colorinfo>
                     <lut />
                     <lut1 />
                     <asc_sop />
                     <asc_sat />
                     <lut2 />
                  </colorinfo>
                  <labels>
                     <label2>Iris</label2>
                  </labels>
               </clipitem>
               <clipitem id="clipitem-523">
                  <masterclipid>masterclip-278</masterclipid>
                  <name>mymovie.mov</name>
                  <enabled>TRUE</enabled>
                  <duration>297</duration>
                  <rate>
                     <timebase>24</timebase>
                     <ntsc>TRUE</ntsc>
                  </rate>
                  <start>3058</start>
                  <end>3307</end>
                  <in>25</in>
                  <out>274</out>
                  <pproTicksIn>264864600000</pproTicksIn>
                  <pproTicksOut>2902916016000</pproTicksOut>
                  <alphatype>none</alphatype>
                  <pixelaspectratio>square</pixelaspectratio>
                  <anamorphic>FALSE</anamorphic>
                  <file id="file-269">
                     <name>mymovie.mov</name>
                     <pathurl>file://localhost/Volumes/mydisk/mymovie.mov</pathurl>
                     <rate>
                        <timebase>24</timebase>
                        <ntsc>FALSE</ntsc>
                     </rate>
                     <duration>298</duration>
                     <timecode>
                        <rate>
                           <timebase>24</timebase>
                           <ntsc>FALSE</ntsc>
                        </rate>
                        <string>00:00:41:00</string>
                        <frame>984</frame>
                        <displayformat>NDF</displayformat>
                     </timecode>
                     <media>
                        <video>
                           <samplecharacteristics>
                              <rate>
                                 <timebase>24</timebase>
                                 <ntsc>FALSE</ntsc>
                              </rate>
                              <width>1920</width>
                              <height>1080</height>
                              <anamorphic>FALSE</anamorphic>
                              <pixelaspectratio>square</pixelaspectratio>
                              <fielddominance>none</fielddominance>
                           </samplecharacteristics>
                        </video>
                     </media>
                  </file>
                  <logginginfo>
                     <description />
                     <scene />
                     <shottake />
                     <lognote />
                     <good />
                     <originalvideofilename />
                     <originalaudiofilename />
                  </logginginfo>
                  <colorinfo>
                     <lut />
                     <lut1 />
                     <asc_sop />
                     <asc_sat />
                     <lut2 />
                  </colorinfo>
                  <labels>
                     <label2>Iris</label2>
                  </labels>
               </clipitem>
               <enabled>TRUE</enabled>
               <locked>FALSE</locked>
            </track>
            <track TL.SQTrackShy="0" TL.SQTrackExpandedHeight="25" TL.SQTrackExpanded="0" MZ.TrackTargeted="1">
               <clipitem id="clipitem-524">
                  <masterclipid>masterclip-279</masterclipid>
                  <name>Graphic</name>
                  <enabled>TRUE</enabled>
                  <duration>1035764</duration>
                  <rate>
                     <timebase>24</timebase>
                     <ntsc>TRUE</ntsc>
                  </rate>
                  <start>0</start>
                  <end>15</end>
                  <in>86313</in>
                  <out>86328</out>
                  <pproTicksIn>914450328792000</pproTicksIn>
                  <pproTicksOut>914609247552000</pproTicksOut>
                  <alphatype>straight</alphatype>
                  <pixelaspectratio>square</pixelaspectratio>
                  <anamorphic>FALSE</anamorphic>
                  <file id="file-270">
                     <name>Graphic</name>
                     <mediaSource>GraphicAndType</mediaSource>
                     <rate>
                        <timebase>30</timebase>
                        <ntsc>TRUE</ntsc>
                     </rate>
                     <timecode>
                        <rate>
                           <timebase>30</timebase>
                           <ntsc>TRUE</ntsc>
                        </rate>
                        <string>00;00;00;00</string>
                        <frame>0</frame>
                        <displayformat>DF</displayformat>
                     </timecode>
                     <media>
                        <video>
                           <samplecharacteristics>
                              <rate>
                                 <timebase>30</timebase>
                                 <ntsc>TRUE</ntsc>
                              </rate>
                              <width>1920</width>
                              <height>1080</height>
                              <anamorphic>FALSE</anamorphic>
                              <pixelaspectratio>square</pixelaspectratio>
                              <fielddominance>none</fielddominance>
                           </samplecharacteristics>
                        </video>
                     </media>
                  </file>
                  <filter>
                     <effect>
                        <name>mymovie.mov</name>
                        <effectid>GraphicAndType</effectid>
                        <effectcategory>graphic</effectcategory>
                        <effecttype>filter</effecttype>
                        <mediatype>video</mediatype>
                        <pproBypass>false</pproBypass>
                        <pproExpanded>true</pproExpanded>
                        <parameter authoringApp="PremierePro">
                           <parameterid>1</parameterid>
                           <name>Source Text</name>
                           <hash>20ca71dc-1161-1ec9-6ee7-ca2f00000b30</hash>
                           <value>HAsAAAAAAAB7ACIAbQBUAGUAeAB0AFAAYQByAGEAbQAiADoAewAiAG0AQQBsAGkAZwBuAG0AZQBuAHQAIgA6ADIALAAiAG0AQgBhAGMAawBGAGkAbABsAEMAbwBsAG8AcgAiADoANAAxADQANAA5ADUAOQAsACIAbQBCAGEAYwBrAEYAaQBsAGwATwBwAGEAYwBpAHQAeQAiADoANwA1ACwAIgBtAEIAYQBjAGsARgBpAGwAbABTAGkAegBlACIAOgAwACwAIgBtAEIAYQBjAGsARgBpAGwAbABWAGkAcwBpAGIAbABlACIAOgBmAGEAbABzAGUALAAiAG0ARABlAGYAYQB1AGwAdABSAHUAbgAiADoAWwBdACwAIgBtAEgAZQBpAGcAaAB0ACIAOgA0ADcAOQAsACIAbQBIAGkAbgBkAGkARABpAGcAaQB0AHMAIgA6AGYAYQBsAHMAZQAsACIAbQBJAG4AZABpAGMAIgA6AGYAYQBsAHMAZQAsACIAbQBJAHMATQBhAHMAawAiADoAZgBhAGwAcwBlACwAIgBtAEkAcwBNAGEAcwBrAEkAbgB2AGUAcgB0AGUAZAAiADoAZgBhAGwAcwBlACwAIgBtAEkAcwBWAGUAcgB0AGkAYwBhAGwAVABlAHgAdAAiADoAZgBhAGwAcwBlACwAIgBtAEwAZQBhAGQAaQBuAGcAIgA6ADAALAAiAG0ATABpAGcAYQB0AHUAcgBlAHMAIgA6AGYAYQBsAHMAZQAsACIAbQBMAGkAbgBlAEMAYQBwAFQAeQBwAGUAIgA6ADAALAAiAG0ATABpAG4AZQBKAG8AaQBuAFQAeQBwAGUAIgA6ADAALAAiAG0ATQBpAHQAZQByAEwAaQBtAGkAdAAiADoAMgAuADUALAAiAG0ATgB1AG0AUwB0AHIAbwBrAGUAcwAiADoAMQAsACIAbQBSAFQATAAiADoAZgBhAGwAcwBlACwAIgBtAFMAaABhAGQAbwB3AEEAbgBnAGwAZQAiADoAMQAzADUALAAiAG0AUwBoAGEAZABvAHcAQgBsAHUAcgAiADoANAAwACwAIgBtAFMAaABhAGQAbwB3AEMAbwBsAG8AcgAiADoANAAxADQANAA5ADUAOQAsACIAbQBTAGgAYQBkAG8AdwBPAGYAZgBzAGUAdAAiADoANwAsACIAbQBTAGgAYQBkAG8AdwBPAHAAYQBjAGkAdAB5ACIAOgA3ADUALAAiAG0AUwBoAGEAZABvAHcAUwBpAHoAZQAiADoAMAAsACIAbQBTAGgAYQBkAG8AdwBWAGkAcwBpAGIAbABlACIAOgBmAGEAbABzAGUALAAiAG0AUwB0AHkAbABlAFMAaABlAGUAdAAiADoAewAiAG0AQQBkAGQAaQB0AGkAbwBuAGEAbABTAHQAcgBvAGsAZQBDAG8AbABvAHIAIgA6AFsAXQAsACIAbQBBAGQAZABpAHQAaQBvAG4AYQBsAFMAdAByAG8AawBlAFYAaQBzAGkAYgBsAGUAIgA6AFsAXQAsACIAbQBBAGQAZABpAHQAaQBvAG4AYQBsAFMAdAByAG8AawBlAFcAaQBkAHQAaAAiADoAWwBdACwAIgBtAEIAYQBzAGUAbABpAG4AZQBPAHAAdABpAG8AbgAiADoAewAiAG0AUABhAHIAYQBtAFYAYQBsAHUAZQBzACIAOgBbAFsAMAAsADAAXQBdAH0ALAAiAG0AQgBhAHMAZQBsAGkAbgBlAFMAaABpAGYAdAAiADoAewAiAG0AUABhAHIAYQBtAFYAYQBsAHUAZQBzACIAOgBbAFsAMAAsADAAXQBdAH0ALAAiAG0AQwBhAHAAcwBPAHAAdABpAG8AbgAiADoAewAiAG0AUABhAHIAYQBtAFYAYQBsAHUAZQBzACIAOgBbAFsAMAAsADAAXQBdAH0ALAAiAG0ARgBhAHUAeABCAG8AbABkACIAOgB7ACIAbQBQAGEAcgBhAG0AVgBhAGwAdQBlAHMAIgA6AFsAWwAwACwAZgBhAGwAcwBlAF0AXQB9ACwAIgBtAEYAYQB1AHgASQB0AGEAbABpAGMAIgA6AHsAIgBtAFAAYQByAGEAbQBWAGEAbAB1AGUAcwAiADoAWwBbADAALABmAGEAbABzAGUAXQBdAH0ALAAiAG0ARgBpAGwAbABDAG8AbABvAHIAIgA6AHsAIgBtAFAAYQByAGEAbQBWAGEAbAB1AGUAcwAiADoAWwBbADAALAAxADYANwA3ADcAMgAxADUAXQBdAH0ALAAiAG0ARgBpAGwAbABPAHYAZQByAFMAdAByAG8AawBlACIAOgB7ACIAbQBQAGEAcgBhAG0AVgBhAGwAdQBlAHMAIgA6AFsAWwAwACwAdAByAHUAZQBdAF0AfQAsACIAbQBGAGkAbABsAFYAaQBzAGkAYgBsAGUAIgA6AHsAIgBtAFAAYQByAGEAbQBWAGEAbAB1AGUAcwAiADoAWwBbADAALAB0AHIAdQBlAF0AXQB9ACwAIgBtAEYAbwBuAHQATgBhAG0AZQAiADoAewAiAG0AUABhAHIAYQBtAFYAYQBsAHUAZQBzACIAOgBbAFsAMAAsACIATQBpAG4AaQBvAG4AUAByAG8ALQBSAGUAZwB1AGwAYQByACIAXQBdAH0ALAAiAG0ARgBvAG4AdABTAGkAegBlACIAOgB7ACIAbQBQAGEAcgBhAG0AVgBhAGwAdQBlAHMAIgA6AFsAWwAwACwANQA3AC4ANQAzADgANAA1ADkANwA3ADcAOAAzADIAMAAzADEAXQBdAH0ALAAiAG0ASwBlAHIAbgBpAG4AZwAiADoAewAiAG0AUABhAHIAYQBtAFYAYQBsAHUAZQBzACIAOgBbAFsAMAAsADAAXQBdAH0ALAAiAG0AUwB0AHIAbwBrAGUAQwBvAGwAbwByACIAOgB7ACIAbQBQAGEAcgBhAG0AVgBhAGwAdQBlAHMAIgA6AFsAWwAwACwAMQA2ADcANwA3ADIAMQA1AF0AXQB9ACwAIgBtAFMAdAByAG8AawBlAFYAaQBzAGkAYgBsAGUAIgA6AHsAIgBtAFAAYQByAGEAbQBWAGEAbAB1AGUAcwAiADoAWwBbADAALABmAGEAbABzAGUAXQBdAH0ALAAiAG0AUwB0AHIAbwBrAGUAVwBpAGQAdABoACIAOgB7ACIAbQBQAGEAcgBhAG0AVgBhAGwAdQBlAHMAIgA6AFsAWwAwACwAMQBdAF0AfQAsACIAbQBUAGUAeAB0ACIAOgAiAFIARABOAFwAcgAxADAAMgBfADAAMwAyAF8AdgAwADMAXAByAFwAcgAyADAALwAwADMALwAxADMAXAByAHIAZABuADEAMAAyAF8AcwBjADAAMwAyAF8AMgAwADIAMAAwADIAMAA1AF8AcwBuAGMANABfAFQAdQByAG4AbwB2AGUAcgBfAEMASQBOAC4AbQBvAHYAIgAsACIAbQBUAHIAYQBjAGsAaQBuAGcAIgA6AHsAIgBtAFAAYQByAGEAbQBWAGEAbAB1AGUAcwAiADoAWwBbADAALAAwAF0AXQB9ACwAIgBtAFQAcwB1AG0AaQAiADoAewAiAG0AUABhAHIAYQBtAFYAYQBsAHUAZQBzACIAOgBbAFsAMAAsADAAXQBdAH0AfQAsACIAbQBUAGEAYgBXAGkAZAB0AGgAIgA6ADQAMAAwACwAIgBtAFcAaQBkAHQAaAAiADoAMQA5ADIAMAB9ACwAIgBtAFYAZQByAHMAaQBvAG4AIgA6ADEAfQA=</value>
                        </parameter>
                        <parameter authoringApp="PremierePro">
                           <parameterid>2</parameterid>
                           <name>Transform</name>
                           <IsTimeVarying>false</IsTimeVarying>
                           <ParameterControlType>11</ParameterControlType>
                           <LowerBound>false</LowerBound>
                           <UpperBound>false</UpperBound>
                           <value>-91445760000000000,false,0,0,0,0,0,0</value>
                        </parameter>
                        <parameter authoringApp="PremierePro">
                           <parameterid>3</parameterid>
                           <name>Position</name>
                           <IsTimeVarying>false</IsTimeVarying>
                           <value>-91445760000000000,0.15937504172325134:0.37685185670852661,0,0,0,0,0,0,5,4,0,0,0,0</value>
                        </parameter>
                        <parameter authoringApp="PremierePro">
                           <parameterid>4</parameterid>
                           <name>Scale</name>
                           <IsTimeVarying>false</IsTimeVarying>
                           <ParameterControlType>2</ParameterControlType>
                           <LowerBound>0</LowerBound>
                           <UpperBound>4000</UpperBound>
                           <value>-91445760000000000,100.,0,0,0,0,0,0</value>
                        </parameter>
                        <parameter authoringApp="PremierePro">
                           <parameterid>5</parameterid>
                           <name>Horizontal Scale</name>
                           <IsTimeVarying>false</IsTimeVarying>
                           <ParameterControlType>2</ParameterControlType>
                           <LowerBound>0</LowerBound>
                           <UpperBound>4000</UpperBound>
                           <value>-91445760000000000,100.,0,0,0,0,0,0</value>
                        </parameter>
                        <parameter authoringApp="PremierePro">
                           <parameterid>6</parameterid>
                           <name />
                           <IsTimeVarying>false</IsTimeVarying>
                           <ParameterControlType>4</ParameterControlType>
                           <LowerBound>false</LowerBound>
                           <UpperBound>true</UpperBound>
                           <value>-91445760000000000,true,0,0,0,0,0,0</value>
                        </parameter>
                        <parameter authoringApp="PremierePro">
                           <parameterid>7</parameterid>
                           <name>Rotation</name>
                           <IsTimeVarying>false</IsTimeVarying>
                           <ParameterControlType>3</ParameterControlType>
                           <LowerBound>-32768</LowerBound>
                           <UpperBound>32767</UpperBound>
                           <value>-91445760000000000,0.,0,0,0,0,0,0</value>
                        </parameter>
                        <parameter authoringApp="PremierePro">
                           <parameterid>8</parameterid>
                           <name>Opacity</name>
                           <IsTimeVarying>false</IsTimeVarying>
                           <ParameterControlType>2</ParameterControlType>
                           <LowerBound>0</LowerBound>
                           <UpperBound>100</UpperBound>
                           <value>-91445760000000000,100.,0,0,0,0,0,0</value>
                        </parameter>
                        <parameter authoringApp="PremierePro">
                           <parameterid>9</parameterid>
                           <name>Anchor Point</name>
                           <IsTimeVarying>false</IsTimeVarying>
                           <value>-91445760000000000,0.16046142578125:0,0,0,0,0,0,0,5,4,0,0,0,0</value>
                        </parameter>
                        <parameter authoringApp="PremierePro">
                           <parameterid>10</parameterid>
                           <name />
                           <IsTimeVarying>false</IsTimeVarying>
                           <ParameterControlType>12</ParameterControlType>
                           <LowerBound>false</LowerBound>
                           <UpperBound>false</UpperBound>
                           <value>-91445760000000000,false,0,0,0,0,0,0</value>
                        </parameter>
                        <parameter authoringApp="PremierePro">
                           <parameterid>11</parameterid>
                           <name />
                           <IsTimeVarying>false</IsTimeVarying>
                           <ParameterControlType>8</ParameterControlType>
                           <LowerBound>0</LowerBound>
                           <UpperBound>32768</UpperBound>
                           <value>-91445760000000000,0.,0,0,0,0,0,0</value>
                        </parameter>
                        <parameter authoringApp="PremierePro">
                           <parameterid>12</parameterid>
                           <name />
                           <IsTimeVarying>false</IsTimeVarying>
                           <ParameterControlType>8</ParameterControlType>
                           <LowerBound>0</LowerBound>
                           <UpperBound>32768</UpperBound>
                           <value>-91445760000000000,0.,0,0,0,0,0,0</value>
                        </parameter>
                        <parameter authoringApp="PremierePro">
                           <parameterid>13</parameterid>
                           <name>start</name>
                           <IsTimeVarying>false</IsTimeVarying>
                           <ParameterControlType>8</ParameterControlType>
                           <LowerBound>-100</LowerBound>
                           <UpperBound>1000000000</UpperBound>
                           <value>-91445760000000000,26.,0,0,0,0,0,0</value>
                        </parameter>
                        <parameter authoringApp="PremierePro">
                           <parameterid>14</parameterid>
                           <name>end</name>
                           <IsTimeVarying>false</IsTimeVarying>
                           <ParameterControlType>8</ParameterControlType>
                           <LowerBound>-100</LowerBound>
                           <UpperBound>1000000000</UpperBound>
                           <value>-91445760000000000,26.,0,0,0,0,0,0</value>
                        </parameter>
                        <parameter authoringApp="PremierePro">
                           <parameterid>15</parameterid>
                           <name />
                           <IsTimeVarying>false</IsTimeVarying>
                           <ParameterControlType>4</ParameterControlType>
                           <LowerBound>false</LowerBound>
                           <UpperBound>true</UpperBound>
                           <value>-91445760000000000,false,0,0,0,0,0,0</value>
                        </parameter>
                        <parameter authoringApp="PremierePro">
                           <parameterid>16</parameterid>
                           <name />
                           <IsTimeVarying>false</IsTimeVarying>
                           <ParameterControlType>4</ParameterControlType>
                           <LowerBound>false</LowerBound>
                           <UpperBound>true</UpperBound>
                           <value>-91445760000000000,false,0,0,0,0,0,0</value>
                        </parameter>
                        <parameter authoringApp="PremierePro">
                           <parameterid>17</parameterid>
                           <name />
                           <IsTimeVarying>false</IsTimeVarying>
                           <ParameterControlType>4</ParameterControlType>
                           <LowerBound>false</LowerBound>
                           <UpperBound>true</UpperBound>
                           <value>-91445760000000000,false,0,0,0,0,0,0</value>
                        </parameter>
                        <parameter authoringApp="PremierePro">
                           <parameterid>18</parameterid>
                           <name />
                           <IsTimeVarying>false</IsTimeVarying>
                           <ParameterControlType>4</ParameterControlType>
                           <LowerBound>false</LowerBound>
                           <UpperBound>true</UpperBound>
                           <value>-91445760000000000,false,0,0,0,0,0,0</value>
                        </parameter>
                        <parameter authoringApp="PremierePro">
                           <parameterid>19</parameterid>
                           <name>Parent Width</name>
                           <IsTimeVarying>false</IsTimeVarying>
                           <ParameterControlType>2</ParameterControlType>
                           <LowerBound>0</LowerBound>
                           <UpperBound>20000</UpperBound>
                           <value>-91445760000000000,0.,0,0,0,0,0,0</value>
                        </parameter>
                        <parameter authoringApp="PremierePro">
                           <parameterid>20</parameterid>
                           <name>Parent Height</name>
                           <IsTimeVarying>false</IsTimeVarying>
                           <ParameterControlType>2</ParameterControlType>
                           <LowerBound>0</LowerBound>
                           <UpperBound>20000</UpperBound>
                           <value>-91445760000000000,0.,0,0,0,0,0,0</value>
                        </parameter>
                        <parameter authoringApp="PremierePro">
                           <parameterid>21</parameterid>
                           <name>Parent Rotation</name>
                           <IsTimeVarying>false</IsTimeVarying>
                           <ParameterControlType>3</ParameterControlType>
                           <LowerBound>-32768</LowerBound>
                           <UpperBound>32767</UpperBound>
                           <value>-91445760000000000,0.,0,0,0,0,0,0</value>
                        </parameter>
                     </effect>
                  </filter>
                  <logginginfo>
                     <description />
                     <scene />
                     <shottake />
                     <lognote />
                     <good />
                     <originalvideofilename />
                     <originalaudiofilename />
                  </logginginfo>
                  <colorinfo>
                     <lut />
                     <lut1 />
                     <asc_sop />
                     <asc_sat />
                     <lut2 />
                  </colorinfo>
                  <labels />
               </clipitem>
               <clipitem id="clipitem-525">
                  <masterclipid>masterclip-280</masterclipid>
                  <name>mymovie.mov</name>
                  <enabled>FALSE</enabled>
                  <duration>165</duration>
                  <rate>
                     <timebase>24</timebase>
                     <ntsc>TRUE</ntsc>
                  </rate>
                  <start>90</start>
                  <end>222</end>
                  <in>24</in>
                  <out>156</out>
                  <pproTicksIn>254270016000</pproTicksIn>
                  <pproTicksOut>1652755104000</pproTicksOut>
                  <alphatype>none</alphatype>
                  <pixelaspectratio>square</pixelaspectratio>
                  <anamorphic>FALSE</anamorphic>
                  <file id="file-271">
                     <name>mymovie.mov</name>
                     <pathurl>file://localhost/Volumes/mydisk/mymovie.mov</pathurl>
                     <rate>
                        <timebase>24</timebase>
                        <ntsc>TRUE</ntsc>
                     </rate>
                     <duration>165</duration>
                     <timecode>
                        <rate>
                           <timebase>24</timebase>
                           <ntsc>TRUE</ntsc>
                        </rate>
                        <string>00:00:00:00</string>
                        <frame>0</frame>
                        <displayformat>NDF</displayformat>
                        <reel>
                           <name>reel_name</name>
                        </reel>
                     </timecode>
                     <media>
                        <video>
                           <samplecharacteristics>
                              <rate>
                                 <timebase>24</timebase>
                                 <ntsc>TRUE</ntsc>
                              </rate>
                              <width>2048</width>
                              <height>858</height>
                              <anamorphic>FALSE</anamorphic>
                              <pixelaspectratio>square</pixelaspectratio>
                              <fielddominance>none</fielddominance>
                           </samplecharacteristics>
                        </video>
                     </media>
                  </file>
                  <filter>
                     <effect>
                        <name>Basic Motion</name>
                        <effectid>basic</effectid>
                        <effectcategory>motion</effectcategory>
                        <effecttype>motion</effecttype>
                        <mediatype>video</mediatype>
                        <pproBypass>false</pproBypass>
                        <parameter authoringApp="PremierePro">
                           <parameterid>scale</parameterid>
                           <name>Scale</name>
                           <valuemin>0</valuemin>
                           <valuemax>1000</valuemax>
                           <value>93.75</value>
                        </parameter>
                        <parameter authoringApp="PremierePro">
                           <parameterid>rotation</parameterid>
                           <name>Rotation</name>
                           <valuemin>-8640</valuemin>
                           <valuemax>8640</valuemax>
                           <value>0</value>
                        </parameter>
                        <parameter authoringApp="PremierePro">
                           <parameterid>center</parameterid>
                           <name>Center</name>
                           <value>
                              <horiz>0</horiz>
                              <vert>0</vert>
                           </value>
                        </parameter>
                        <parameter authoringApp="PremierePro">
                           <parameterid>centerOffset</parameterid>
                           <name>Anchor Point</name>
                           <value>
                              <horiz>0</horiz>
                              <vert>0</vert>
                           </value>
                        </parameter>
                        <parameter authoringApp="PremierePro">
                           <parameterid>antiflicker</parameterid>
                           <name>Anti-flicker Filter</name>
                           <valuemin>0.0</valuemin>
                           <valuemax>1.0</valuemax>
                           <value>0</value>
                        </parameter>
                     </effect>
                  </filter>
                  <logginginfo>
                     <description />
                     <scene />
                     <shottake />
                     <lognote />
                     <good />
                     <originalvideofilename />
                     <originalaudiofilename />
                  </logginginfo>
                  <colorinfo>
                     <lut />
                     <lut1 />
                     <asc_sop />
                     <asc_sat />
                     <lut2 />
                  </colorinfo>
                  <labels>
                     <label2>Iris</label2>
                  </labels>
               </clipitem>
               <clipitem id="clipitem-526">
                  <masterclipid>masterclip-281</masterclipid>
                  <name>mymovie.mov</name>
                  <enabled>FALSE</enabled>
                  <duration>153</duration>
                  <rate>
                     <timebase>24</timebase>
                     <ntsc>TRUE</ntsc>
                  </rate>
                  <start>493</start>
                  <end>598</end>
                  <in>24</in>
                  <out>129</out>
                  <pproTicksIn>254270016000</pproTicksIn>
                  <pproTicksOut>1366701336000</pproTicksOut>
                  <alphatype>none</alphatype>
                  <pixelaspectratio>square</pixelaspectratio>
                  <anamorphic>FALSE</anamorphic>
                  <file id="file-272">
                     <name>mymovie.mov</name>
                     <pathurl>file://localhost/Volumes/mydisk/mymovie.mov</pathurl>
                     <rate>
                        <timebase>24</timebase>
                        <ntsc>TRUE</ntsc>
                     </rate>
                     <duration>153</duration>
                     <timecode>
                        <rate>
                           <timebase>24</timebase>
                           <ntsc>TRUE</ntsc>
                        </rate>
                        <string>00:00:00:00</string>
                        <frame>0</frame>
                        <displayformat>NDF</displayformat>
                        <reel>
                           <name>reel_name</name>
                        </reel>
                     </timecode>
                     <media>
                        <video>
                           <samplecharacteristics>
                              <rate>
                                 <timebase>24</timebase>
                                 <ntsc>TRUE</ntsc>
                              </rate>
                              <width>2048</width>
                              <height>858</height>
                              <anamorphic>FALSE</anamorphic>
                              <pixelaspectratio>square</pixelaspectratio>
                              <fielddominance>none</fielddominance>
                           </samplecharacteristics>
                        </video>
                     </media>
                  </file>
                  <filter>
                     <effect>
                        <name>Basic Motion</name>
                        <effectid>basic</effectid>
                        <effectcategory>motion</effectcategory>
                        <effecttype>motion</effecttype>
                        <mediatype>video</mediatype>
                        <pproBypass>false</pproBypass>
                        <parameter authoringApp="PremierePro">
                           <parameterid>scale</parameterid>
                           <name>Scale</name>
                           <valuemin>0</valuemin>
                           <valuemax>1000</valuemax>
                           <value>93.75</value>
                        </parameter>
                        <parameter authoringApp="PremierePro">
                           <parameterid>rotation</parameterid>
                           <name>Rotation</name>
                           <valuemin>-8640</valuemin>
                           <valuemax>8640</valuemax>
                           <value>0</value>
                        </parameter>
                        <parameter authoringApp="PremierePro">
                           <parameterid>center</parameterid>
                           <name>Center</name>
                           <value>
                              <horiz>0</horiz>
                              <vert>0</vert>
                           </value>
                        </parameter>
                        <parameter authoringApp="PremierePro">
                           <parameterid>centerOffset</parameterid>
                           <name>Anchor Point</name>
                           <value>
                              <horiz>0</horiz>
                              <vert>0</vert>
                           </value>
                        </parameter>
                        <parameter authoringApp="PremierePro">
                           <parameterid>antiflicker</parameterid>
                           <name>Anti-flicker Filter</name>
                           <valuemin>0.0</valuemin>
                           <valuemax>1.0</valuemax>
                           <value>0</value>
                        </parameter>
                     </effect>
                  </filter>
                  <logginginfo>
                     <description />
                     <scene />
                     <shottake />
                     <lognote />
                     <good />
                     <originalvideofilename />
                     <originalaudiofilename />
                  </logginginfo>
                  <colorinfo>
                     <lut />
                     <lut1 />
                     <asc_sop />
                     <asc_sat />
                     <lut2 />
                  </colorinfo>
                  <labels>
                     <label2>Magenta</label2>
                  </labels>
               </clipitem>
               <clipitem id="clipitem-527">
                  <masterclipid>masterclip-282</masterclipid>
                  <name>mymovie.mov</name>
                  <enabled>FALSE</enabled>
                  <duration>154</duration>
                  <rate>
                     <timebase>24</timebase>
                     <ntsc>TRUE</ntsc>
                  </rate>
                  <start>598</start>
                  <end>692</end>
                  <in>24</in>
                  <out>118</out>
                  <pproTicksIn>254270016000</pproTicksIn>
                  <pproTicksOut>1250160912000</pproTicksOut>
                  <alphatype>none</alphatype>
                  <pixelaspectratio>square</pixelaspectratio>
                  <anamorphic>FALSE</anamorphic>
                  <file id="file-273">
                     <name>mymovie.mov</name>
                     <pathurl>file://localhost/Volumes/mydisk/mymovie.mov</pathurl>
                     <rate>
                        <timebase>24</timebase>
                        <ntsc>TRUE</ntsc>
                     </rate>
                     <duration>154</duration>
                     <timecode>
                        <rate>
                           <timebase>24</timebase>
                           <ntsc>TRUE</ntsc>
                        </rate>
                        <string>00:00:00:00</string>
                        <frame>0</frame>
                        <displayformat>NDF</displayformat>
                        <reel>
                           <name>reel_name</name>
                        </reel>
                     </timecode>
                     <media>
                        <video>
                           <samplecharacteristics>
                              <rate>
                                 <timebase>24</timebase>
                                 <ntsc>TRUE</ntsc>
                              </rate>
                              <width>2048</width>
                              <height>858</height>
                              <anamorphic>FALSE</anamorphic>
                              <pixelaspectratio>square</pixelaspectratio>
                              <fielddominance>none</fielddominance>
                           </samplecharacteristics>
                        </video>
                     </media>
                  </file>
                  <filter>
                     <effect>
                        <name>Basic Motion</name>
                        <effectid>basic</effectid>
                        <effectcategory>motion</effectcategory>
                        <effecttype>motion</effecttype>
                        <mediatype>video</mediatype>
                        <pproBypass>false</pproBypass>
                        <parameter authoringApp="PremierePro">
                           <parameterid>scale</parameterid>
                           <name>Scale</name>
                           <valuemin>0</valuemin>
                           <valuemax>1000</valuemax>
                           <value>93.75</value>
                        </parameter>
                        <parameter authoringApp="PremierePro">
                           <parameterid>rotation</parameterid>
                           <name>Rotation</name>
                           <valuemin>-8640</valuemin>
                           <valuemax>8640</valuemax>
                           <value>0</value>
                        </parameter>
                        <parameter authoringApp="PremierePro">
                           <parameterid>center</parameterid>
                           <name>Center</name>
                           <value>
                              <horiz>0</horiz>
                              <vert>0</vert>
                           </value>
                        </parameter>
                        <parameter authoringApp="PremierePro">
                           <parameterid>centerOffset</parameterid>
                           <name>Anchor Point</name>
                           <value>
                              <horiz>0</horiz>
                              <vert>0</vert>
                           </value>
                        </parameter>
                        <parameter authoringApp="PremierePro">
                           <parameterid>antiflicker</parameterid>
                           <name>Anti-flicker Filter</name>
                           <valuemin>0.0</valuemin>
                           <valuemax>1.0</valuemax>
                           <value>0</value>
                        </parameter>
                     </effect>
                  </filter>
                  <logginginfo>
                     <description />
                     <scene />
                     <shottake />
                     <lognote />
                     <good />
                     <originalvideofilename />
                     <originalaudiofilename />
                  </logginginfo>
                  <colorinfo>
                     <lut />
                     <lut1 />
                     <asc_sop />
                     <asc_sat />
                     <lut2 />
                  </colorinfo>
                  <labels>
                     <label2>Magenta</label2>
                  </labels>
               </clipitem>
               <clipitem id="clipitem-528">
                  <masterclipid>masterclip-283</masterclipid>
                  <name>mymovie.mov</name>
                  <enabled>FALSE</enabled>
                  <duration>154</duration>
                  <rate>
                     <timebase>24</timebase>
                     <ntsc>TRUE</ntsc>
                  </rate>
                  <start>692</start>
                  <end>780</end>
                  <in>24</in>
                  <out>112</out>
                  <pproTicksIn>254270016000</pproTicksIn>
                  <pproTicksOut>1186593408000</pproTicksOut>
                  <alphatype>none</alphatype>
                  <pixelaspectratio>square</pixelaspectratio>
                  <anamorphic>FALSE</anamorphic>
                  <file id="file-274">
                     <name>mymovie.mov</name>
                     <pathurl>file://localhost/Volumes/mydisk/mymovie.mov</pathurl>
                     <rate>
                        <timebase>24</timebase>
                        <ntsc>TRUE</ntsc>
                     </rate>
                     <duration>154</duration>
                     <timecode>
                        <rate>
                           <timebase>24</timebase>
                           <ntsc>TRUE</ntsc>
                        </rate>
                        <string>00:00:00:00</string>
                        <frame>0</frame>
                        <displayformat>NDF</displayformat>
                        <reel>
                           <name>reel_name</name>
                        </reel>
                     </timecode>
                     <media>
                        <video>
                           <samplecharacteristics>
                              <rate>
                                 <timebase>24</timebase>
                                 <ntsc>TRUE</ntsc>
                              </rate>
                              <width>2048</width>
                              <height>858</height>
                              <anamorphic>FALSE</anamorphic>
                              <pixelaspectratio>square</pixelaspectratio>
                              <fielddominance>none</fielddominance>
                           </samplecharacteristics>
                        </video>
                     </media>
                  </file>
                  <filter>
                     <effect>
                        <name>Basic Motion</name>
                        <effectid>basic</effectid>
                        <effectcategory>motion</effectcategory>
                        <effecttype>motion</effecttype>
                        <mediatype>video</mediatype>
                        <pproBypass>false</pproBypass>
                        <parameter authoringApp="PremierePro">
                           <parameterid>scale</parameterid>
                           <name>Scale</name>
                           <valuemin>0</valuemin>
                           <valuemax>1000</valuemax>
                           <value>93.75</value>
                        </parameter>
                        <parameter authoringApp="PremierePro">
                           <parameterid>rotation</parameterid>
                           <name>Rotation</name>
                           <valuemin>-8640</valuemin>
                           <valuemax>8640</valuemax>
                           <value>0</value>
                        </parameter>
                        <parameter authoringApp="PremierePro">
                           <parameterid>center</parameterid>
                           <name>Center</name>
                           <value>
                              <horiz>0</horiz>
                              <vert>0</vert>
                           </value>
                        </parameter>
                        <parameter authoringApp="PremierePro">
                           <parameterid>centerOffset</parameterid>
                           <name>Anchor Point</name>
                           <value>
                              <horiz>0</horiz>
                              <vert>0</vert>
                           </value>
                        </parameter>
                        <parameter authoringApp="PremierePro">
                           <parameterid>antiflicker</parameterid>
                           <name>Anti-flicker Filter</name>
                           <valuemin>0.0</valuemin>
                           <valuemax>1.0</valuemax>
                           <value>0</value>
                        </parameter>
                     </effect>
                  </filter>
                  <logginginfo>
                     <description />
                     <scene />
                     <shottake />
                     <lognote />
                     <good />
                     <originalvideofilename />
                     <originalaudiofilename />
                  </logginginfo>
                  <colorinfo>
                     <lut />
                     <lut1 />
                     <asc_sop />
                     <asc_sat />
                     <lut2 />
                  </colorinfo>
                  <labels>
                     <label2>Magenta</label2>
                  </labels>
               </clipitem>
               <clipitem id="clipitem-529">
                  <masterclipid>masterclip-284</masterclipid>
                  <name>mymovie.mov</name>
                  <enabled>FALSE</enabled>
                  <duration>331</duration>
                  <rate>
                     <timebase>24</timebase>
                     <ntsc>TRUE</ntsc>
                  </rate>
                  <start>870</start>
                  <end>1135</end>
                  <in>24</in>
                  <out>289</out>
                  <pproTicksIn>254270016000</pproTicksIn>
                  <pproTicksOut>3061834776000</pproTicksOut>
                  <alphatype>none</alphatype>
                  <pixelaspectratio>square</pixelaspectratio>
                  <anamorphic>FALSE</anamorphic>
                  <file id="file-275">
                     <name>mymovie.mov</name>
                     <pathurl>file://localhost/Volumes/mydisk/mymovie.mov</pathurl>
                     <rate>
                        <timebase>24</timebase>
                        <ntsc>TRUE</ntsc>
                     </rate>
                     <duration>331</duration>
                     <timecode>
                        <rate>
                           <timebase>24</timebase>
                           <ntsc>TRUE</ntsc>
                        </rate>
                        <string>00:00:00:00</string>
                        <frame>0</frame>
                        <displayformat>NDF</displayformat>
                        <reel>
                           <name>reel_name</name>
                        </reel>
                     </timecode>
                     <media>
                        <video>
                           <samplecharacteristics>
                              <rate>
                                 <timebase>24</timebase>
                                 <ntsc>TRUE</ntsc>
                              </rate>
                              <width>2048</width>
                              <height>858</height>
                              <anamorphic>FALSE</anamorphic>
                              <pixelaspectratio>square</pixelaspectratio>
                              <fielddominance>none</fielddominance>
                           </samplecharacteristics>
                        </video>
                     </media>
                  </file>
                  <filter>
                     <effect>
                        <name>Basic Motion</name>
                        <effectid>basic</effectid>
                        <effectcategory>motion</effectcategory>
                        <effecttype>motion</effecttype>
                        <mediatype>video</mediatype>
                        <pproBypass>false</pproBypass>
                        <parameter authoringApp="PremierePro">
                           <parameterid>scale</parameterid>
                           <name>Scale</name>
                           <valuemin>0</valuemin>
                           <valuemax>1000</valuemax>
                           <value>93.75</value>
                        </parameter>
                        <parameter authoringApp="PremierePro">
                           <parameterid>rotation</parameterid>
                           <name>Rotation</name>
                           <valuemin>-8640</valuemin>
                           <valuemax>8640</valuemax>
                           <value>0</value>
                        </parameter>
                        <parameter authoringApp="PremierePro">
                           <parameterid>center</parameterid>
                           <name>Center</name>
                           <value>
                              <horiz>0</horiz>
                              <vert>0</vert>
                           </value>
                        </parameter>
                        <parameter authoringApp="PremierePro">
                           <parameterid>centerOffset</parameterid>
                           <name>Anchor Point</name>
                           <value>
                              <horiz>0</horiz>
                              <vert>0</vert>
                           </value>
                        </parameter>
                        <parameter authoringApp="PremierePro">
                           <parameterid>antiflicker</parameterid>
                           <name>Anti-flicker Filter</name>
                           <valuemin>0.0</valuemin>
                           <valuemax>1.0</valuemax>
                           <value>0</value>
                        </parameter>
                     </effect>
                  </filter>
                  <logginginfo>
                     <description />
                     <scene />
                     <shottake />
                     <lognote />
                     <good />
                     <originalvideofilename />
                     <originalaudiofilename />
                  </logginginfo>
                  <colorinfo>
                     <lut />
                     <lut1 />
                     <asc_sop />
                     <asc_sat />
                     <lut2 />
                  </colorinfo>
                  <labels>
                     <label2>Magenta</label2>
                  </labels>
               </clipitem>
               <clipitem id="clipitem-530">
                  <masterclipid>masterclip-285</masterclipid>
                  <name>Graphic</name>
                  <enabled>FALSE</enabled>
                  <duration>1035764</duration>
                  <rate>
                     <timebase>24</timebase>
                     <ntsc>TRUE</ntsc>
                  </rate>
                  <start>1135</start>
                  <end>1229</end>
                  <in>86313</in>
                  <out>86407</out>
                  <pproTicksIn>914450328792000</pproTicksIn>
                  <pproTicksOut>915446219688000</pproTicksOut>
                  <alphatype>straight</alphatype>
                  <pixelaspectratio>square</pixelaspectratio>
                  <anamorphic>FALSE</anamorphic>
                  <file id="file-276">
                     <name>Graphic</name>
                     <mediaSource>GraphicAndType</mediaSource>
                     <rate>
                        <timebase>30</timebase>
                        <ntsc>TRUE</ntsc>
                     </rate>
                     <timecode>
                        <rate>
                           <timebase>30</timebase>
                           <ntsc>TRUE</ntsc>
                        </rate>
                        <string>00;00;00;00</string>
                        <frame>0</frame>
                        <displayformat>DF</displayformat>
                     </timecode>
                     <media>
                        <video>
                           <samplecharacteristics>
                              <rate>
                                 <timebase>30</timebase>
                                 <ntsc>TRUE</ntsc>
                              </rate>
                              <width>1920</width>
                              <height>1080</height>
                              <anamorphic>FALSE</anamorphic>
                              <pixelaspectratio>square</pixelaspectratio>
                              <fielddominance>none</fielddominance>
                           </samplecharacteristics>
                        </video>
                     </media>
                  </file>
                  <filter>
                     <effect>
                        <name>myshow</name>
                        <effectid>GraphicAndType</effectid>
                        <effectcategory>graphic</effectcategory>
                        <effecttype>filter</effecttype>
                        <mediatype>video</mediatype>
                        <pproBypass>false</pproBypass>
                        <pproExpanded>true</pproExpanded>
                        <parameter authoringApp="PremierePro">
                           <parameterid>1</parameterid>
                           <name>Source Text</name>
                           <hash>2787dca9-fa44-bab4-9a4f-948000000aa6</hash>
                           <value>kgoAAAAAAAB7ACIAbQBUAGUAeAB0AFAAYQByAGEAbQAiADoAewAiAG0AQQBsAGkAZwBuAG0AZQBuAHQAIgA6ADAALAAiAG0AQgBhAGMAawBGAGkAbABsAEMAbwBsAG8AcgAiADoANAAxADQANAA5ADUAOQAsACIAbQBCAGEAYwBrAEYAaQBsAGwATwBwAGEAYwBpAHQAeQAiADoANwA1ACwAIgBtAEIAYQBjAGsARgBpAGwAbABTAGkAegBlACIAOgAwACwAIgBtAEIAYQBjAGsARgBpAGwAbABWAGkAcwBpAGIAbABlACIAOgB0AHIAdQBlACwAIgBtAEQAZQBmAGEAdQBsAHQAUgB1AG4AIgA6AFsAXQAsACIAbQBIAGUAaQBnAGgAdAAiADoAMAAsACIAbQBIAGkAbgBkAGkARABpAGcAaQB0AHMAIgA6AGYAYQBsAHMAZQAsACIAbQBJAG4AZABpAGMAIgA6AGYAYQBsAHMAZQAsACIAbQBJAHMATQBhAHMAawAiADoAZgBhAGwAcwBlACwAIgBtAEkAcwBNAGEAcwBrAEkAbgB2AGUAcgB0AGUAZAAiADoAZgBhAGwAcwBlACwAIgBtAEkAcwBWAGUAcgB0AGkAYwBhAGwAVABlAHgAdAAiADoAZgBhAGwAcwBlACwAIgBtAEwAZQBhAGQAaQBuAGcAIgA6ADAALAAiAG0ATABpAGcAYQB0AHUAcgBlAHMAIgA6AGYAYQBsAHMAZQAsACIAbQBMAGkAbgBlAEMAYQBwAFQAeQBwAGUAIgA6ADAALAAiAG0ATABpAG4AZQBKAG8AaQBuAFQAeQBwAGUAIgA6ADAALAAiAG0ATQBpAHQAZQByAEwAaQBtAGkAdAAiADoAMgAuADUALAAiAG0ATgB1AG0AUwB0AHIAbwBrAGUAcwAiADoAMQAsACIAbQBSAFQATAAiADoAZgBhAGwAcwBlACwAIgBtAFMAaABhAGQAbwB3AEEAbgBnAGwAZQAiADoAMQAzADUALAAiAG0AUwBoAGEAZABvAHcAQgBsAHUAcgAiADoANAAwACwAIgBtAFMAaABhAGQAbwB3AEMAbwBsAG8AcgAiADoANAAxADQANAA5ADUAOQAsACIAbQBTAGgAYQBkAG8AdwBPAGYAZgBzAGUAdAAiADoANwAsACIAbQBTAGgAYQBkAG8AdwBPAHAAYQBjAGkAdAB5ACIAOgA3ADUALAAiAG0AUwBoAGEAZABvAHcAUwBpAHoAZQAiADoAMAAsACIAbQBTAGgAYQBkAG8AdwBWAGkAcwBpAGIAbABlACIAOgBmAGEAbABzAGUALAAiAG0AUwB0AHkAbABlAFMAaABlAGUAdAAiADoAewAiAG0AQQBkAGQAaQB0AGkAbwBuAGEAbABTAHQAcgBvAGsAZQBDAG8AbABvAHIAIgA6AFsAXQAsACIAbQBBAGQAZABpAHQAaQBvAG4AYQBsAFMAdAByAG8AawBlAFYAaQBzAGkAYgBsAGUAIgA6AFsAXQAsACIAbQBBAGQAZABpAHQAaQBvAG4AYQBsAFMAdAByAG8AawBlAFcAaQBkAHQAaAAiADoAWwBdACwAIgBtAEIAYQBzAGUAbABpAG4AZQBPAHAAdABpAG8AbgAiADoAewAiAG0AUABhAHIAYQBtAFYAYQBsAHUAZQBzACIAOgBbAFsAMAAsADAAXQBdAH0ALAAiAG0AQgBhAHMAZQBsAGkAbgBlAFMAaABpAGYAdAAiADoAewAiAG0AUABhAHIAYQBtAFYAYQBsAHUAZQBzACIAOgBbAFsAMAAsADAAXQBdAH0ALAAiAG0AQwBhAHAAcwBPAHAAdABpAG8AbgAiADoAewAiAG0AUABhAHIAYQBtAFYAYQBsAHUAZQBzACIAOgBbAFsAMAAsADAAXQBdAH0ALAAiAG0ARgBhAHUAeABCAG8AbABkACIAOgB7ACIAbQBQAGEAcgBhAG0AVgBhAGwAdQBlAHMAIgA6AFsAWwAwACwAZgBhAGwAcwBlAF0AXQB9ACwAIgBtAEYAYQB1AHgASQB0AGEAbABpAGMAIgA6AHsAIgBtAFAAYQByAGEAbQBWAGEAbAB1AGUAcwAiADoAWwBbADAALABmAGEAbABzAGUAXQBdAH0ALAAiAG0ARgBpAGwAbABDAG8AbABvAHIAIgA6AHsAIgBtAFAAYQByAGEAbQBWAGEAbAB1AGUAcwAiADoAWwBbADAALAAxADYANwA3ADcAMgAxADUAXQBdAH0ALAAiAG0ARgBpAGwAbABPAHYAZQByAFMAdAByAG8AawBlACIAOgB7ACIAbQBQAGEAcgBhAG0AVgBhAGwAdQBlAHMAIgA6AFsAWwAwACwAdAByAHUAZQBdAF0AfQAsACIAbQBGAGkAbABsAFYAaQBzAGkAYgBsAGUAIgA6AHsAIgBtAFAAYQByAGEAbQBWAGEAbAB1AGUAcwAiADoAWwBbADAALAB0AHIAdQBlAF0AXQB9ACwAIgBtAEYAbwBuAHQATgBhAG0AZQAiADoAewAiAG0AUABhAHIAYQBtAFYAYQBsAHUAZQBzACIAOgBbAFsAMAAsACIATAB1AGMAaQBkAGEARwByAGEAbgBkAGUAIgBdAF0AfQAsACIAbQBGAG8AbgB0AFMAaQB6AGUAIgA6AHsAIgBtAFAAYQByAGEAbQBWAGEAbAB1AGUAcwAiADoAWwBbADAALAAyADgALgA0ADYAMQA1ADMANgA0ADAANwA0ADcAMAA3ADAAMwBdAF0AfQAsACIAbQBLAGUAcgBuAGkAbgBnACIAOgB7ACIAbQBQAGEAcgBhAG0AVgBhAGwAdQBlAHMAIgA6AFsAWwAwACwAMABdAF0AfQAsACIAbQBTAHQAcgBvAGsAZQBDAG8AbABvAHIAIgA6AHsAIgBtAFAAYQByAGEAbQBWAGEAbAB1AGUAcwAiADoAWwBbADAALAAxADYANwA3ADcAMgAxADUAXQBdAH0ALAAiAG0AUwB0AHIAbwBrAGUAVgBpAHMAaQBiAGwAZQAiADoAewAiAG0AUABhAHIAYQBtAFYAYQBsAHUAZQBzACIAOgBbAFsAMAAsAGYAYQBsAHMAZQBdAF0AfQAsACIAbQBTAHQAcgBvAGsAZQBXAGkAZAB0AGgAIgA6AHsAIgBtAFAAYQByAGEAbQBWAGEAbAB1AGUAcwAiADoAWwBbADAALAAxAF0AXQB9ACwAIgBtAFQAZQB4AHQAIgA6ACIAUgBEAE4AMQAwADIAXwAwADMAMgBfADAANAA1ADAAIgAsACIAbQBUAHIAYQBjAGsAaQBuAGcAIgA6AHsAIgBtAFAAYQByAGEAbQBWAGEAbAB1AGUAcwAiADoAWwBbADAALAAwAF0AXQB9ACwAIgBtAFQAcwB1AG0AaQAiADoAewAiAG0AUABhAHIAYQBtAFYAYQBsAHUAZQBzACIAOgBbAFsAMAAsADAAXQBdAH0AfQAsACIAbQBUAGEAYgBXAGkAZAB0AGgAIgA6ADQAMAAwACwAIgBtAFcAaQBkAHQAaAAiADoAMAB9ACwAIgBtAFYAZQByAHMAaQBvAG4AIgA6ADEAfQA=</value>
                        </parameter>
                        <parameter authoringApp="PremierePro">
                           <parameterid>2</parameterid>
                           <name>Transform</name>
                           <IsTimeVarying>false</IsTimeVarying>
                           <ParameterControlType>11</ParameterControlType>
                           <LowerBound>false</LowerBound>
                           <UpperBound>false</UpperBound>
                           <value>-91445760000000000,false,0,0,0,0,0,0</value>
                        </parameter>
                        <parameter authoringApp="PremierePro">
                           <parameterid>3</parameterid>
                           <name>Position</name>
                           <IsTimeVarying>false</IsTimeVarying>
                           <value>-91445760000000000,0.02187499962747097:0.83703702688217163,0,0,0,0,0,0,5,4,0,0,0,0</value>
                        </parameter>
                        <parameter authoringApp="PremierePro">
                           <parameterid>4</parameterid>
                           <name>Vertical Scale</name>
                           <IsTimeVarying>false</IsTimeVarying>
                           <ParameterControlType>2</ParameterControlType>
                           <LowerBound>0</LowerBound>
                           <UpperBound>4000</UpperBound>
                           <value>-91445760000000000,100.,0,0,0,0,0,0</value>
                        </parameter>
                        <parameter authoringApp="PremierePro">
                           <parameterid>5</parameterid>
                           <name>Horizontal Scale</name>
                           <IsTimeVarying>false</IsTimeVarying>
                           <ParameterControlType>2</ParameterControlType>
                           <LowerBound>0</LowerBound>
                           <UpperBound>4000</UpperBound>
                           <value>-91445760000000000,95.,0,0,0,0,0,0</value>
                        </parameter>
                        <parameter authoringApp="PremierePro">
                           <parameterid>6</parameterid>
                           <name />
                           <IsTimeVarying>false</IsTimeVarying>
                           <ParameterControlType>4</ParameterControlType>
                           <LowerBound>false</LowerBound>
                           <UpperBound>true</UpperBound>
                           <value>-91445760000000000,false,0,0,0,0,0,0</value>
                        </parameter>
                        <parameter authoringApp="PremierePro">
                           <parameterid>7</parameterid>
                           <name>Rotation</name>
                           <IsTimeVarying>false</IsTimeVarying>
                           <ParameterControlType>3</ParameterControlType>
                           <LowerBound>-32768</LowerBound>
                           <UpperBound>32767</UpperBound>
                           <value>-91445760000000000,0.,0,0,0,0,0,0</value>
                        </parameter>
                        <parameter authoringApp="PremierePro">
                           <parameterid>8</parameterid>
                           <name>Opacity</name>
                           <IsTimeVarying>false</IsTimeVarying>
                           <ParameterControlType>2</ParameterControlType>
                           <LowerBound>0</LowerBound>
                           <UpperBound>100</UpperBound>
                           <value>-91445760000000000,100.,0,0,0,0,0,0</value>
                        </parameter>
                        <parameter authoringApp="PremierePro">
                           <parameterid>9</parameterid>
                           <name>Anchor Point</name>
                           <IsTimeVarying>false</IsTimeVarying>
                           <value>-91445760000000000,0:0,0,0,0,0,0,0,5,4,0,0,0,0</value>
                        </parameter>
                        <parameter authoringApp="PremierePro">
                           <parameterid>10</parameterid>
                           <name />
                           <IsTimeVarying>false</IsTimeVarying>
                           <ParameterControlType>12</ParameterControlType>
                           <LowerBound>false</LowerBound>
                           <UpperBound>false</UpperBound>
                           <value>-91445760000000000,false,0,0,0,0,0,0</value>
                        </parameter>
                        <parameter authoringApp="PremierePro">
                           <parameterid>11</parameterid>
                           <name />
                           <IsTimeVarying>false</IsTimeVarying>
                           <ParameterControlType>8</ParameterControlType>
                           <LowerBound>0</LowerBound>
                           <UpperBound>32768</UpperBound>
                           <value>-91445760000000000,0.,0,0,0,0,0,0</value>
                        </parameter>
                        <parameter authoringApp="PremierePro">
                           <parameterid>12</parameterid>
                           <name />
                           <IsTimeVarying>false</IsTimeVarying>
                           <ParameterControlType>8</ParameterControlType>
                           <LowerBound>0</LowerBound>
                           <UpperBound>32768</UpperBound>
                           <value>-91445760000000000,0.,0,0,0,0,0,0</value>
                        </parameter>
                        <parameter authoringApp="PremierePro">
                           <parameterid>13</parameterid>
                           <name>start</name>
                           <IsTimeVarying>false</IsTimeVarying>
                           <ParameterControlType>8</ParameterControlType>
                           <LowerBound>-100</LowerBound>
                           <UpperBound>1000000000</UpperBound>
                           <value>-91445760000000000,15.,0,0,0,0,0,0</value>
                        </parameter>
                        <parameter authoringApp="PremierePro">
                           <parameterid>14</parameterid>
                           <name>end</name>
                           <IsTimeVarying>false</IsTimeVarying>
                           <ParameterControlType>8</ParameterControlType>
                           <LowerBound>-100</LowerBound>
                           <UpperBound>1000000000</UpperBound>
                           <value>-91445760000000000,15.,0,0,0,0,0,0</value>
                        </parameter>
                        <parameter authoringApp="PremierePro">
                           <parameterid>15</parameterid>
                           <name />
                           <IsTimeVarying>false</IsTimeVarying>
                           <ParameterControlType>4</ParameterControlType>
                           <LowerBound>false</LowerBound>
                           <UpperBound>true</UpperBound>
                           <value>-91445760000000000,false,0,0,0,0,0,0</value>
                        </parameter>
                        <parameter authoringApp="PremierePro">
                           <parameterid>16</parameterid>
                           <name />
                           <IsTimeVarying>false</IsTimeVarying>
                           <ParameterControlType>4</ParameterControlType>
                           <LowerBound>false</LowerBound>
                           <UpperBound>true</UpperBound>
                           <value>-91445760000000000,false,0,0,0,0,0,0</value>
                        </parameter>
                        <parameter authoringApp="PremierePro">
                           <parameterid>17</parameterid>
                           <name />
                           <IsTimeVarying>false</IsTimeVarying>
                           <ParameterControlType>4</ParameterControlType>
                           <LowerBound>false</LowerBound>
                           <UpperBound>true</UpperBound>
                           <value>-91445760000000000,false,0,0,0,0,0,0</value>
                        </parameter>
                        <parameter authoringApp="PremierePro">
                           <parameterid>18</parameterid>
                           <name />
                           <IsTimeVarying>false</IsTimeVarying>
                           <ParameterControlType>4</ParameterControlType>
                           <LowerBound>false</LowerBound>
                           <UpperBound>true</UpperBound>
                           <value>-91445760000000000,false,0,0,0,0,0,0</value>
                        </parameter>
                        <parameter authoringApp="PremierePro">
                           <parameterid>19</parameterid>
                           <name>Parent Width</name>
                           <IsTimeVarying>false</IsTimeVarying>
                           <ParameterControlType>2</ParameterControlType>
                           <LowerBound>0</LowerBound>
                           <UpperBound>20000</UpperBound>
                           <value>-91445760000000000,0.,0,0,0,0,0,0</value>
                        </parameter>
                        <parameter authoringApp="PremierePro">
                           <parameterid>20</parameterid>
                           <name>Parent Height</name>
                           <IsTimeVarying>false</IsTimeVarying>
                           <ParameterControlType>2</ParameterControlType>
                           <LowerBound>0</LowerBound>
                           <UpperBound>20000</UpperBound>
                           <value>-91445760000000000,0.,0,0,0,0,0,0</value>
                        </parameter>
                        <parameter authoringApp="PremierePro">
                           <parameterid>21</parameterid>
                           <name>Parent Rotation</name>
                           <IsTimeVarying>false</IsTimeVarying>
                           <ParameterControlType>3</ParameterControlType>
                           <LowerBound>-32768</LowerBound>
                           <UpperBound>32767</UpperBound>
                           <value>-91445760000000000,0.,0,0,0,0,0,0</value>
                        </parameter>
                     </effect>
                  </filter>
                  <filter>
                     <effect>
                        <name />
                        <effectid>GraphicAndType</effectid>
                        <effectcategory>graphic</effectcategory>
                        <effecttype>filter</effecttype>
                        <mediatype>video</mediatype>
                        <pproBypass>false</pproBypass>
                        <parameter authoringApp="PremierePro">
                           <parameterid>1</parameterid>
                           <name>Source Text</name>
                           <hash>86c1a2b5-72d0-d084-5430-aaa900000c8c</hash>
                           <value>eAwAAAAAAAB7ACIAbQBUAGUAeAB0AFAAYQByAGEAbQAiADoAewAiAG0AQQBsAGkAZwBuAG0AZQBuAHQAIgA6ADAALAAiAG0AQgBhAGMAawBGAGkAbABsAEMAbwBsAG8AcgAiADoANAAxADQANAA5ADUAOQAsACIAbQBCAGEAYwBrAEYAaQBsAGwATwBwAGEAYwBpAHQAeQAiADoANwA1ACwAIgBtAEIAYQBjAGsARgBpAGwAbABTAGkAegBlACIAOgAwACwAIgBtAEIAYQBjAGsARgBpAGwAbABWAGkAcwBpAGIAbABlACIAOgBmAGEAbABzAGUALAAiAG0ARABlAGYAYQB1AGwAdABSAHUAbgAiADoAWwB7ACIAbQBTAHQAeQBsAGUAUABhAHIAYQBtACIAOgB7ACIAbQBBAGQAZABpAHQAaQBvAG4AYQBsAFMAdAByAG8AawBlAHMAIgA6AFsAXQAsACIAbQBCAGEAcwBlAGwAaQBuAGUATwBwAHQAaQBvAG4AIgA6ADAALAAiAG0AQgBhAHMAZQBsAGkAbgBlAFMAaABpAGYAdAAiADoAMAAsACIAbQBDAGEAcABzAE8AcAB0AGkAbwBuACIAOgAwACwAIgBtAEYAYQB1AHgAQgBvAGwAZAAiADoAZgBhAGwAcwBlACwAIgBtAEYAYQB1AHgASQB0AGEAbABpAGMAIgA6AGYAYQBsAHMAZQAsACIAbQBGAGkAbABsAEIAbAB1AGUAIgA6ADEALAAiAG0ARgBpAGwAbABHAHIAZQBlAG4AIgA6ADEALAAiAG0ARgBpAGwAbABPAHYAZQByAFMAdAByAG8AawBlACIAOgB0AHIAdQBlACwAIgBtAEYAaQBsAGwAUgBlAGQAIgA6ADEALAAiAG0ARgBpAGwAbABWAGkAcwBpAGIAbABlACIAOgB0AHIAdQBlACwAIgBtAEYAbwBuAHQATgBhAG0AZQAiADoAIgBMAHUAYwBpAGQAYQBHAHIAYQBuAGQAZQAiACwAIgBtAEYAbwBuAHQAUwBpAHoAZQAiADoAMQAwADAALAAiAG0ASwBlAHIAbgBpAG4AZwAiADoAMAAsACIAbQBTAHQAcgBvAGsAZQBCAGwAdQBlACIAOgAxACwAIgBtAFMAdAByAG8AawBlAEcAcgBlAGUAbgAiADoAMQAsACIAbQBTAHQAcgBvAGsAZQBSAGUAZAAiADoAMQAsACIAbQBTAHQAcgBvAGsAZQBWAGkAcwBpAGIAbABlACIAOgBmAGEAbABzAGUALAAiAG0AUwB0AHIAbwBrAGUAVwBpAGQAdABoACIAOgAxACwAIgBtAFQAcgBhAGMAawBpAG4AZwAiADoAMAAsACIAbQBUAHMAdQBtAGkAIgA6ADAAfQAsACIAbQBUAGUAeAB0ACIAOgAiACIAfQBdACwAIgBtAEgAZQBpAGcAaAB0ACIAOgAwACwAIgBtAEgAaQBuAGQAaQBEAGkAZwBpAHQAcwAiADoAZgBhAGwAcwBlACwAIgBtAEkAbgBkAGkAYwAiADoAZgBhAGwAcwBlACwAIgBtAEkAcwBNAGEAcwBrACIAOgBmAGEAbABzAGUALAAiAG0ASQBzAE0AYQBzAGsASQBuAHYAZQByAHQAZQBkACIAOgBmAGEAbABzAGUALAAiAG0ASQBzAFYAZQByAHQAaQBjAGEAbABUAGUAeAB0ACIAOgBmAGEAbABzAGUALAAiAG0ATABlAGEAZABpAG4AZwAiADoAMAAsACIAbQBMAGkAZwBhAHQAdQByAGUAcwAiADoAZgBhAGwAcwBlACwAIgBtAEwAaQBuAGUAQwBhAHAAVAB5AHAAZQAiADoAMAAsACIAbQBMAGkAbgBlAEoAbwBpAG4AVAB5AHAAZQAiADoAMAAsACIAbQBNAGkAdABlAHIATABpAG0AaQB0ACIAOgAyAC4ANQAsACIAbQBOAHUAbQBTAHQAcgBvAGsAZQBzACIAOgAxACwAIgBtAFIAVABMACIAOgBmAGEAbABzAGUALAAiAG0AUwBoAGEAZABvAHcAQQBuAGcAbABlACIAOgAxADMANQAsACIAbQBTAGgAYQBkAG8AdwBCAGwAdQByACIAOgA0ADAALAAiAG0AUwBoAGEAZABvAHcAQwBvAGwAbwByACIAOgA0ADEANAA0ADkANQA5ACwAIgBtAFMAaABhAGQAbwB3AE8AZgBmAHMAZQB0ACIAOgA3ACwAIgBtAFMAaABhAGQAbwB3AE8AcABhAGMAaQB0AHkAIgA6ADcANQAsACIAbQBTAGgAYQBkAG8AdwBTAGkAegBlACIAOgAwACwAIgBtAFMAaABhAGQAbwB3AFYAaQBzAGkAYgBsAGUAIgA6AGYAYQBsAHMAZQAsACIAbQBTAHQAeQBsAGUAUwBoAGUAZQB0ACIAOgB7ACIAbQBBAGQAZABpAHQAaQBvAG4AYQBsAFMAdAByAG8AawBlAEMAbwBsAG8AcgAiADoAWwBdACwAIgBtAEEAZABkAGkAdABpAG8AbgBhAGwAUwB0AHIAbwBrAGUAVgBpAHMAaQBiAGwAZQAiADoAWwBdACwAIgBtAEEAZABkAGkAdABpAG8AbgBhAGwAUwB0AHIAbwBrAGUAVwBpAGQAdABoACIAOgBbAF0ALAAiAG0AQgBhAHMAZQBsAGkAbgBlAE8AcAB0AGkAbwBuACIAOgB7ACIAbQBQAGEAcgBhAG0AVgBhAGwAdQBlAHMAIgA6AFsAXQB9ACwAIgBtAEIAYQBzAGUAbABpAG4AZQBTAGgAaQBmAHQAIgA6AHsAIgBtAFAAYQByAGEAbQBWAGEAbAB1AGUAcwAiADoAWwBdAH0ALAAiAG0AQwBhAHAAcwBPAHAAdABpAG8AbgAiADoAewAiAG0AUABhAHIAYQBtAFYAYQBsAHUAZQBzACIAOgBbAF0AfQAsACIAbQBGAGEAdQB4AEIAbwBsAGQAIgA6AHsAIgBtAFAAYQByAGEAbQBWAGEAbAB1AGUAcwAiADoAWwBdAH0ALAAiAG0ARgBhAHUAeABJAHQAYQBsAGkAYwAiADoAewAiAG0AUABhAHIAYQBtAFYAYQBsAHUAZQBzACIAOgBbAF0AfQAsACIAbQBGAGkAbABsAEMAbwBsAG8AcgAiADoAewAiAG0AUABhAHIAYQBtAFYAYQBsAHUAZQBzACIAOgBbAF0AfQAsACIAbQBGAGkAbABsAE8AdgBlAHIAUwB0AHIAbwBrAGUAIgA6AHsAIgBtAFAAYQByAGEAbQBWAGEAbAB1AGUAcwAiADoAWwBdAH0ALAAiAG0ARgBpAGwAbABWAGkAcwBpAGIAbABlACIAOgB7ACIAbQBQAGEAcgBhAG0AVgBhAGwAdQBlAHMAIgA6AFsAXQB9ACwAIgBtAEYAbwBuAHQATgBhAG0AZQAiADoAewAiAG0AUABhAHIAYQBtAFYAYQBsAHUAZQBzACIAOgBbAF0AfQAsACIAbQBGAG8AbgB0AFMAaQB6AGUAIgA6AHsAIgBtAFAAYQByAGEAbQBWAGEAbAB1AGUAcwAiADoAWwBdAH0ALAAiAG0ASwBlAHIAbgBpAG4AZwAiADoAewAiAG0AUABhAHIAYQBtAFYAYQBsAHUAZQBzACIAOgBbAF0AfQAsACIAbQBTAHQAcgBvAGsAZQBDAG8AbABvAHIAIgA6AHsAIgBtAFAAYQByAGEAbQBWAGEAbAB1AGUAcwAiADoAWwBdAH0ALAAiAG0AUwB0AHIAbwBrAGUAVgBpAHMAaQBiAGwAZQAiADoAewAiAG0AUABhAHIAYQBtAFYAYQBsAHUAZQBzACIAOgBbAF0AfQAsACIAbQBTAHQAcgBvAGsAZQBXAGkAZAB0AGgAIgA6AHsAIgBtAFAAYQByAGEAbQBWAGEAbAB1AGUAcwAiADoAWwBdAH0ALAAiAG0AVABlAHgAdAAiADoAIgAiACwAIgBtAFQAcgBhAGMAawBpAG4AZwAiADoAewAiAG0AUABhAHIAYQBtAFYAYQBsAHUAZQBzACIAOgBbAF0AfQAsACIAbQBUAHMAdQBtAGkAIgA6AHsAIgBtAFAAYQByAGEAbQBWAGEAbAB1AGUAcwAiADoAWwBdAH0AfQAsACIAbQBUAGEAYgBXAGkAZAB0AGgAIgA6ADQAMAAwACwAIgBtAFcAaQBkAHQAaAAiADoAMAB9ACwAIgBtAFYAZQByAHMAaQBvAG4AIgA6ADEAfQA=</value>
                        </parameter>
                        <parameter authoringApp="PremierePro">
                           <parameterid>2</parameterid>
                           <name>Transform</name>
                           <IsTimeVarying>false</IsTimeVarying>
                           <ParameterControlType>11</ParameterControlType>
                           <LowerBound>false</LowerBound>
                           <UpperBound>false</UpperBound>
                           <value>-91445760000000000,false,0,0,0,0,0,0</value>
                        </parameter>
                        <parameter authoringApp="PremierePro">
                           <parameterid>3</parameterid>
                           <name>Position</name>
                           <IsTimeVarying>false</IsTimeVarying>
                           <value>-91445760000000000,0.045454546809196472:0.79940122365951538,0,0,0,0,0,0,5,4,0,0,0,0</value>
                        </parameter>
                        <parameter authoringApp="PremierePro">
                           <parameterid>4</parameterid>
                           <name>Scale</name>
                           <IsTimeVarying>false</IsTimeVarying>
                           <ParameterControlType>2</ParameterControlType>
                           <LowerBound>0</LowerBound>
                           <UpperBound>4000</UpperBound>
                           <value>-91445760000000000,100.,0,0,0,0,0,0</value>
                        </parameter>
                        <parameter authoringApp="PremierePro">
                           <parameterid>5</parameterid>
                           <name>Horizontal Scale</name>
                           <IsTimeVarying>false</IsTimeVarying>
                           <ParameterControlType>2</ParameterControlType>
                           <LowerBound>0</LowerBound>
                           <UpperBound>4000</UpperBound>
                           <value>-91445760000000000,100.,0,0,0,0,0,0</value>
                        </parameter>
                        <parameter authoringApp="PremierePro">
                           <parameterid>6</parameterid>
                           <name />
                           <IsTimeVarying>false</IsTimeVarying>
                           <ParameterControlType>4</ParameterControlType>
                           <LowerBound>false</LowerBound>
                           <UpperBound>true</UpperBound>
                           <value>-91445760000000000,true,0,0,0,0,0,0</value>
                        </parameter>
                        <parameter authoringApp="PremierePro">
                           <parameterid>7</parameterid>
                           <name>Rotation</name>
                           <IsTimeVarying>false</IsTimeVarying>
                           <ParameterControlType>3</ParameterControlType>
                           <LowerBound>-32768</LowerBound>
                           <UpperBound>32767</UpperBound>
                           <value>-91445760000000000,0.,0,0,0,0,0,0</value>
                        </parameter>
                        <parameter authoringApp="PremierePro">
                           <parameterid>8</parameterid>
                           <name>Opacity</name>
                           <IsTimeVarying>false</IsTimeVarying>
                           <ParameterControlType>2</ParameterControlType>
                           <LowerBound>0</LowerBound>
                           <UpperBound>100</UpperBound>
                           <value>-91445760000000000,100.,0,0,0,0,0,0</value>
                        </parameter>
                        <parameter authoringApp="PremierePro">
                           <parameterid>9</parameterid>
                           <name>Anchor Point</name>
                           <IsTimeVarying>false</IsTimeVarying>
                           <value>-91445760000000000,0:0,0,0,0,0,0,0,5,4,0,0,0,0</value>
                        </parameter>
                        <parameter authoringApp="PremierePro">
                           <parameterid>10</parameterid>
                           <name />
                           <IsTimeVarying>false</IsTimeVarying>
                           <ParameterControlType>12</ParameterControlType>
                           <LowerBound>false</LowerBound>
                           <UpperBound>false</UpperBound>
                           <value>-91445760000000000,false,0,0,0,0,0,0</value>
                        </parameter>
                        <parameter authoringApp="PremierePro">
                           <parameterid>11</parameterid>
                           <name />
                           <IsTimeVarying>false</IsTimeVarying>
                           <ParameterControlType>8</ParameterControlType>
                           <LowerBound>0</LowerBound>
                           <UpperBound>32768</UpperBound>
                           <value>-91445760000000000,0.,0,0,0,0,0,0</value>
                        </parameter>
                        <parameter authoringApp="PremierePro">
                           <parameterid>12</parameterid>
                           <name />
                           <IsTimeVarying>false</IsTimeVarying>
                           <ParameterControlType>8</ParameterControlType>
                           <LowerBound>0</LowerBound>
                           <UpperBound>32768</UpperBound>
                           <value>-91445760000000000,0.,0,0,0,0,0,0</value>
                        </parameter>
                        <parameter authoringApp="PremierePro">
                           <parameterid>13</parameterid>
                           <name>start</name>
                           <IsTimeVarying>false</IsTimeVarying>
                           <ParameterControlType>8</ParameterControlType>
                           <LowerBound>-100</LowerBound>
                           <UpperBound>1000000000</UpperBound>
                           <value>-91445760000000000,0.,0,0,0,0,0,0</value>
                        </parameter>
                        <parameter authoringApp="PremierePro">
                           <parameterid>14</parameterid>
                           <name>end</name>
                           <IsTimeVarying>false</IsTimeVarying>
                           <ParameterControlType>8</ParameterControlType>
                           <LowerBound>-100</LowerBound>
                           <UpperBound>1000000000</UpperBound>
                           <value>-91445760000000000,0.,0,0,0,0,0,0</value>
                        </parameter>
                        <parameter authoringApp="PremierePro">
                           <parameterid>15</parameterid>
                           <name />
                           <IsTimeVarying>false</IsTimeVarying>
                           <ParameterControlType>4</ParameterControlType>
                           <LowerBound>false</LowerBound>
                           <UpperBound>true</UpperBound>
                           <value>-91445760000000000,false,0,0,0,0,0,0</value>
                        </parameter>
                        <parameter authoringApp="PremierePro">
                           <parameterid>16</parameterid>
                           <name />
                           <IsTimeVarying>false</IsTimeVarying>
                           <ParameterControlType>4</ParameterControlType>
                           <LowerBound>false</LowerBound>
                           <UpperBound>true</UpperBound>
                           <value>-91445760000000000,false,0,0,0,0,0,0</value>
                        </parameter>
                        <parameter authoringApp="PremierePro">
                           <parameterid>17</parameterid>
                           <name />
                           <IsTimeVarying>false</IsTimeVarying>
                           <ParameterControlType>4</ParameterControlType>
                           <LowerBound>false</LowerBound>
                           <UpperBound>true</UpperBound>
                           <value>-91445760000000000,false,0,0,0,0,0,0</value>
                        </parameter>
                        <parameter authoringApp="PremierePro">
                           <parameterid>18</parameterid>
                           <name />
                           <IsTimeVarying>false</IsTimeVarying>
                           <ParameterControlType>4</ParameterControlType>
                           <LowerBound>false</LowerBound>
                           <UpperBound>true</UpperBound>
                           <value>-91445760000000000,false,0,0,0,0,0,0</value>
                        </parameter>
                        <parameter authoringApp="PremierePro">
                           <parameterid>19</parameterid>
                           <name>Parent Width</name>
                           <IsTimeVarying>false</IsTimeVarying>
                           <ParameterControlType>2</ParameterControlType>
                           <LowerBound>0</LowerBound>
                           <UpperBound>20000</UpperBound>
                           <value>-91445760000000000,0.,0,0,0,0,0,0</value>
                        </parameter>
                        <parameter authoringApp="PremierePro">
                           <parameterid>20</parameterid>
                           <name>Parent Height</name>
                           <IsTimeVarying>false</IsTimeVarying>
                           <ParameterControlType>2</ParameterControlType>
                           <LowerBound>0</LowerBound>
                           <UpperBound>20000</UpperBound>
                           <value>-91445760000000000,0.,0,0,0,0,0,0</value>
                        </parameter>
                        <parameter authoringApp="PremierePro">
                           <parameterid>21</parameterid>
                           <name>Parent Rotation</name>
                           <IsTimeVarying>false</IsTimeVarying>
                           <ParameterControlType>3</ParameterControlType>
                           <LowerBound>-32768</LowerBound>
                           <UpperBound>32767</UpperBound>
                           <value>-91445760000000000,0.,0,0,0,0,0,0</value>
                        </parameter>
                     </effect>
                  </filter>
                  <logginginfo>
                     <description />
                     <scene />
                     <shottake />
                     <lognote />
                     <good />
                     <originalvideofilename />
                     <originalaudiofilename />
                  </logginginfo>
                  <colorinfo>
                     <lut />
                     <lut1 />
                     <asc_sop />
                     <asc_sat />
                     <lut2 />
                  </colorinfo>
                  <labels />
               </clipitem>
               <clipitem id="clipitem-531">
                  <masterclipid>masterclip-286</masterclipid>
                  <name>mymovie.mov</name>
                  <enabled>FALSE</enabled>
                  <duration>203</duration>
                  <rate>
                     <timebase>24</timebase>
                     <ntsc>TRUE</ntsc>
                  </rate>
                  <start>1229</start>
                  <end>1357</end>
                  <in>51</in>
                  <out>179</out>
                  <pproTicksIn>540323784000</pproTicksIn>
                  <pproTicksOut>1896430536000</pproTicksOut>
                  <alphatype>none</alphatype>
                  <pixelaspectratio>square</pixelaspectratio>
                  <anamorphic>FALSE</anamorphic>
                  <file id="file-277">
                     <name>mymovie.mov</name>
                     <pathurl>file://localhost/Volumes/mydisk/mymovie.mov</pathurl>
                     <rate>
                        <timebase>24</timebase>
                        <ntsc>TRUE</ntsc>
                     </rate>
                     <duration>203</duration>
                     <timecode>
                        <rate>
                           <timebase>24</timebase>
                           <ntsc>TRUE</ntsc>
                        </rate>
                        <string>00:00:00:00</string>
                        <frame>0</frame>
                        <displayformat>NDF</displayformat>
                        <reel>
                           <name>reel_name</name>
                        </reel>
                     </timecode>
                     <media>
                        <video>
                           <samplecharacteristics>
                              <rate>
                                 <timebase>24</timebase>
                                 <ntsc>TRUE</ntsc>
                              </rate>
                              <width>2048</width>
                              <height>858</height>
                              <anamorphic>FALSE</anamorphic>
                              <pixelaspectratio>square</pixelaspectratio>
                              <fielddominance>none</fielddominance>
                           </samplecharacteristics>
                        </video>
                     </media>
                  </file>
                  <filter>
                     <effect>
                        <name>Basic Motion</name>
                        <effectid>basic</effectid>
                        <effectcategory>motion</effectcategory>
                        <effecttype>motion</effecttype>
                        <mediatype>video</mediatype>
                        <pproBypass>false</pproBypass>
                        <parameter authoringApp="PremierePro">
                           <parameterid>scale</parameterid>
                           <name>Scale</name>
                           <valuemin>0</valuemin>
                           <valuemax>1000</valuemax>
                           <value>93.75</value>
                        </parameter>
                        <parameter authoringApp="PremierePro">
                           <parameterid>rotation</parameterid>
                           <name>Rotation</name>
                           <valuemin>-8640</valuemin>
                           <valuemax>8640</valuemax>
                           <value>0</value>
                        </parameter>
                        <parameter authoringApp="PremierePro">
                           <parameterid>center</parameterid>
                           <name>Center</name>
                           <value>
                              <horiz>0</horiz>
                              <vert>0</vert>
                           </value>
                        </parameter>
                        <parameter authoringApp="PremierePro">
                           <parameterid>centerOffset</parameterid>
                           <name>Anchor Point</name>
                           <value>
                              <horiz>0</horiz>
                              <vert>0</vert>
                           </value>
                        </parameter>
                        <parameter authoringApp="PremierePro">
                           <parameterid>antiflicker</parameterid>
                           <name>Anti-flicker Filter</name>
                           <valuemin>0.0</valuemin>
                           <valuemax>1.0</valuemax>
                           <value>0</value>
                        </parameter>
                     </effect>
                  </filter>
                  <logginginfo>
                     <description />
                     <scene />
                     <shottake />
                     <lognote />
                     <good />
                     <originalvideofilename />
                     <originalaudiofilename />
                  </logginginfo>
                  <colorinfo>
                     <lut />
                     <lut1 />
                     <asc_sop />
                     <asc_sat />
                     <lut2 />
                  </colorinfo>
                  <labels>
                     <label2>Magenta</label2>
                  </labels>
               </clipitem>
               <clipitem id="clipitem-532">
                  <masterclipid>masterclip-287</masterclipid>
                  <name>mymovie.mov</name>
                  <enabled>FALSE</enabled>
                  <duration>99</duration>
                  <rate>
                     <timebase>24</timebase>
                     <ntsc>TRUE</ntsc>
                  </rate>
                  <start>1357</start>
                  <end>1408</end>
                  <in>24</in>
                  <out>75</out>
                  <pproTicksIn>254270016000</pproTicksIn>
                  <pproTicksOut>794593800000</pproTicksOut>
                  <alphatype>none</alphatype>
                  <pixelaspectratio>square</pixelaspectratio>
                  <anamorphic>FALSE</anamorphic>
                  <file id="file-278">
                     <name>mymovie.mov</name>
                     <pathurl>file://localhost/Volumes/mydisk/mymovie.mov</pathurl>
                     <rate>
                        <timebase>24</timebase>
                        <ntsc>TRUE</ntsc>
                     </rate>
                     <duration>99</duration>
                     <timecode>
                        <rate>
                           <timebase>24</timebase>
                           <ntsc>TRUE</ntsc>
                        </rate>
                        <string>00:00:00:00</string>
                        <frame>0</frame>
                        <displayformat>NDF</displayformat>
                        <reel>
                           <name>reel_name</name>
                        </reel>
                     </timecode>
                     <media>
                        <video>
                           <samplecharacteristics>
                              <rate>
                                 <timebase>24</timebase>
                                 <ntsc>TRUE</ntsc>
                              </rate>
                              <width>2048</width>
                              <height>858</height>
                              <anamorphic>FALSE</anamorphic>
                              <pixelaspectratio>square</pixelaspectratio>
                              <fielddominance>none</fielddominance>
                           </samplecharacteristics>
                        </video>
                     </media>
                  </file>
                  <filter>
                     <effect>
                        <name>Basic Motion</name>
                        <effectid>basic</effectid>
                        <effectcategory>motion</effectcategory>
                        <effecttype>motion</effecttype>
                        <mediatype>video</mediatype>
                        <pproBypass>false</pproBypass>
                        <parameter authoringApp="PremierePro">
                           <parameterid>scale</parameterid>
                           <name>Scale</name>
                           <valuemin>0</valuemin>
                           <valuemax>1000</valuemax>
                           <value>93.75</value>
                        </parameter>
                        <parameter authoringApp="PremierePro">
                           <parameterid>rotation</parameterid>
                           <name>Rotation</name>
                           <valuemin>-8640</valuemin>
                           <valuemax>8640</valuemax>
                           <value>0</value>
                        </parameter>
                        <parameter authoringApp="PremierePro">
                           <parameterid>center</parameterid>
                           <name>Center</name>
                           <value>
                              <horiz>0</horiz>
                              <vert>0</vert>
                           </value>
                        </parameter>
                        <parameter authoringApp="PremierePro">
                           <parameterid>centerOffset</parameterid>
                           <name>Anchor Point</name>
                           <value>
                              <horiz>0</horiz>
                              <vert>0</vert>
                           </value>
                        </parameter>
                        <parameter authoringApp="PremierePro">
                           <parameterid>antiflicker</parameterid>
                           <name>Anti-flicker Filter</name>
                           <valuemin>0.0</valuemin>
                           <valuemax>1.0</valuemax>
                           <value>0</value>
                        </parameter>
                     </effect>
                  </filter>
                  <logginginfo>
                     <description />
                     <scene />
                     <shottake />
                     <lognote />
                     <good />
                     <originalvideofilename />
                     <originalaudiofilename />
                  </logginginfo>
                  <colorinfo>
                     <lut />
                     <lut1 />
                     <asc_sop />
                     <asc_sat />
                     <lut2 />
                  </colorinfo>
                  <labels>
                     <label2>Magenta</label2>
                  </labels>
               </clipitem>
               <clipitem id="clipitem-533">
                  <masterclipid>masterclip-288</masterclipid>
                  <name>mymovie.mov</name>
                  <enabled>FALSE</enabled>
                  <duration>122</duration>
                  <rate>
                     <timebase>24</timebase>
                     <ntsc>TRUE</ntsc>
                  </rate>
                  <start>1408</start>
                  <end>1482</end>
                  <in>24</in>
                  <out>98</out>
                  <pproTicksIn>254270016000</pproTicksIn>
                  <pproTicksOut>1038269232000</pproTicksOut>
                  <alphatype>none</alphatype>
                  <pixelaspectratio>square</pixelaspectratio>
                  <anamorphic>FALSE</anamorphic>
                  <file id="file-279">
                     <name>mymovie.mov</name>
                     <pathurl>file://localhost/Volumes/mydisk/mymovie.mov</pathurl>
                     <rate>
                        <timebase>24</timebase>
                        <ntsc>TRUE</ntsc>
                     </rate>
                     <duration>122</duration>
                     <timecode>
                        <rate>
                           <timebase>24</timebase>
                           <ntsc>TRUE</ntsc>
                        </rate>
                        <string>00:00:00:00</string>
                        <frame>0</frame>
                        <displayformat>NDF</displayformat>
                        <reel>
                           <name>reel_name</name>
                        </reel>
                     </timecode>
                     <media>
                        <video>
                           <samplecharacteristics>
                              <rate>
                                 <timebase>24</timebase>
                                 <ntsc>TRUE</ntsc>
                              </rate>
                              <width>2048</width>
                              <height>858</height>
                              <anamorphic>FALSE</anamorphic>
                              <pixelaspectratio>square</pixelaspectratio>
                              <fielddominance>none</fielddominance>
                           </samplecharacteristics>
                        </video>
                     </media>
                  </file>
                  <filter>
                     <effect>
                        <name>Basic Motion</name>
                        <effectid>basic</effectid>
                        <effectcategory>motion</effectcategory>
                        <effecttype>motion</effecttype>
                        <mediatype>video</mediatype>
                        <pproBypass>false</pproBypass>
                        <parameter authoringApp="PremierePro">
                           <parameterid>scale</parameterid>
                           <name>Scale</name>
                           <valuemin>0</valuemin>
                           <valuemax>1000</valuemax>
                           <value>93.75</value>
                        </parameter>
                        <parameter authoringApp="PremierePro">
                           <parameterid>rotation</parameterid>
                           <name>Rotation</name>
                           <valuemin>-8640</valuemin>
                           <valuemax>8640</valuemax>
                           <value>0</value>
                        </parameter>
                        <parameter authoringApp="PremierePro">
                           <parameterid>center</parameterid>
                           <name>Center</name>
                           <value>
                              <horiz>0</horiz>
                              <vert>0</vert>
                           </value>
                        </parameter>
                        <parameter authoringApp="PremierePro">
                           <parameterid>centerOffset</parameterid>
                           <name>Anchor Point</name>
                           <value>
                              <horiz>0</horiz>
                              <vert>0</vert>
                           </value>
                        </parameter>
                        <parameter authoringApp="PremierePro">
                           <parameterid>antiflicker</parameterid>
                           <name>Anti-flicker Filter</name>
                           <valuemin>0.0</valuemin>
                           <valuemax>1.0</valuemax>
                           <value>0</value>
                        </parameter>
                     </effect>
                  </filter>
                  <logginginfo>
                     <description />
                     <scene />
                     <shottake />
                     <lognote />
                     <good />
                     <originalvideofilename />
                     <originalaudiofilename />
                  </logginginfo>
                  <colorinfo>
                     <lut />
                     <lut1 />
                     <asc_sop />
                     <asc_sat />
                     <lut2 />
                  </colorinfo>
                  <labels>
                     <label2>Magenta</label2>
                  </labels>
               </clipitem>
               <clipitem id="clipitem-534">
                  <masterclipid>masterclip-289</masterclipid>
                  <name>mymovie.mov</name>
                  <enabled>FALSE</enabled>
                  <duration>103</duration>
                  <rate>
                     <timebase>24</timebase>
                     <ntsc>TRUE</ntsc>
                  </rate>
                  <start>1482</start>
                  <end>1537</end>
                  <in>24</in>
                  <out>79</out>
                  <pproTicksIn>254270016000</pproTicksIn>
                  <pproTicksOut>836972136000</pproTicksOut>
                  <alphatype>none</alphatype>
                  <pixelaspectratio>square</pixelaspectratio>
                  <anamorphic>FALSE</anamorphic>
                  <file id="file-280">
                     <name>mymovie.mov</name>
                     <pathurl>file://localhost/Volumes/mydisk/mymovie.mov</pathurl>
                     <rate>
                        <timebase>24</timebase>
                        <ntsc>TRUE</ntsc>
                     </rate>
                     <duration>103</duration>
                     <timecode>
                        <rate>
                           <timebase>24</timebase>
                           <ntsc>TRUE</ntsc>
                        </rate>
                        <string>00:00:00:00</string>
                        <frame>0</frame>
                        <displayformat>NDF</displayformat>
                        <reel>
                           <name>reel_name</name>
                        </reel>
                     </timecode>
                     <media>
                        <video>
                           <samplecharacteristics>
                              <rate>
                                 <timebase>24</timebase>
                                 <ntsc>TRUE</ntsc>
                              </rate>
                              <width>2048</width>
                              <height>858</height>
                              <anamorphic>FALSE</anamorphic>
                              <pixelaspectratio>square</pixelaspectratio>
                              <fielddominance>none</fielddominance>
                           </samplecharacteristics>
                        </video>
                     </media>
                  </file>
                  <filter>
                     <effect>
                        <name>Basic Motion</name>
                        <effectid>basic</effectid>
                        <effectcategory>motion</effectcategory>
                        <effecttype>motion</effecttype>
                        <mediatype>video</mediatype>
                        <pproBypass>false</pproBypass>
                        <parameter authoringApp="PremierePro">
                           <parameterid>scale</parameterid>
                           <name>Scale</name>
                           <valuemin>0</valuemin>
                           <valuemax>1000</valuemax>
                           <value>93.75</value>
                        </parameter>
                        <parameter authoringApp="PremierePro">
                           <parameterid>rotation</parameterid>
                           <name>Rotation</name>
                           <valuemin>-8640</valuemin>
                           <valuemax>8640</valuemax>
                           <value>0</value>
                        </parameter>
                        <parameter authoringApp="PremierePro">
                           <parameterid>center</parameterid>
                           <name>Center</name>
                           <value>
                              <horiz>0</horiz>
                              <vert>0</vert>
                           </value>
                        </parameter>
                        <parameter authoringApp="PremierePro">
                           <parameterid>centerOffset</parameterid>
                           <name>Anchor Point</name>
                           <value>
                              <horiz>0</horiz>
                              <vert>0</vert>
                           </value>
                        </parameter>
                        <parameter authoringApp="PremierePro">
                           <parameterid>antiflicker</parameterid>
                           <name>Anti-flicker Filter</name>
                           <valuemin>0.0</valuemin>
                           <valuemax>1.0</valuemax>
                           <value>0</value>
                        </parameter>
                     </effect>
                  </filter>
                  <logginginfo>
                     <description />
                     <scene />
                     <shottake />
                     <lognote />
                     <good />
                     <originalvideofilename />
                     <originalaudiofilename />
                  </logginginfo>
                  <colorinfo>
                     <lut />
                     <lut1 />
                     <asc_sop />
                     <asc_sat />
                     <lut2 />
                  </colorinfo>
                  <labels>
                     <label2>Magenta</label2>
                  </labels>
               </clipitem>
               <clipitem id="clipitem-535">
                  <masterclipid>masterclip-290</masterclipid>
                  <name>mymovie.mov</name>
                  <enabled>FALSE</enabled>
                  <duration>186</duration>
                  <rate>
                     <timebase>24</timebase>
                     <ntsc>TRUE</ntsc>
                  </rate>
                  <start>1537</start>
                  <end>1675</end>
                  <in>24</in>
                  <out>162</out>
                  <pproTicksIn>254270016000</pproTicksIn>
                  <pproTicksOut>1716322608000</pproTicksOut>
                  <alphatype>none</alphatype>
                  <pixelaspectratio>square</pixelaspectratio>
                  <anamorphic>FALSE</anamorphic>
                  <file id="file-281">
                     <name>mymovie.mov</name>
                     <pathurl>file://localhost/Volumes/mydisk/mymovie.mov</pathurl>
                     <rate>
                        <timebase>24</timebase>
                        <ntsc>TRUE</ntsc>
                     </rate>
                     <duration>186</duration>
                     <timecode>
                        <rate>
                           <timebase>24</timebase>
                           <ntsc>TRUE</ntsc>
                        </rate>
                        <string>00:00:00:00</string>
                        <frame>0</frame>
                        <displayformat>NDF</displayformat>
                        <reel>
                           <name>reel_name</name>
                        </reel>
                     </timecode>
                     <media>
                        <video>
                           <samplecharacteristics>
                              <rate>
                                 <timebase>24</timebase>
                                 <ntsc>TRUE</ntsc>
                              </rate>
                              <width>2048</width>
                              <height>858</height>
                              <anamorphic>FALSE</anamorphic>
                              <pixelaspectratio>square</pixelaspectratio>
                              <fielddominance>none</fielddominance>
                           </samplecharacteristics>
                        </video>
                     </media>
                  </file>
                  <filter>
                     <effect>
                        <name>Basic Motion</name>
                        <effectid>basic</effectid>
                        <effectcategory>motion</effectcategory>
                        <effecttype>motion</effecttype>
                        <mediatype>video</mediatype>
                        <pproBypass>false</pproBypass>
                        <parameter authoringApp="PremierePro">
                           <parameterid>scale</parameterid>
                           <name>Scale</name>
                           <valuemin>0</valuemin>
                           <valuemax>1000</valuemax>
                           <value>93.75</value>
                        </parameter>
                        <parameter authoringApp="PremierePro">
                           <parameterid>rotation</parameterid>
                           <name>Rotation</name>
                           <valuemin>-8640</valuemin>
                           <valuemax>8640</valuemax>
                           <value>0</value>
                        </parameter>
                        <parameter authoringApp="PremierePro">
                           <parameterid>center</parameterid>
                           <name>Center</name>
                           <value>
                              <horiz>0</horiz>
                              <vert>0</vert>
                           </value>
                        </parameter>
                        <parameter authoringApp="PremierePro">
                           <parameterid>centerOffset</parameterid>
                           <name>Anchor Point</name>
                           <value>
                              <horiz>0</horiz>
                              <vert>0</vert>
                           </value>
                        </parameter>
                        <parameter authoringApp="PremierePro">
                           <parameterid>antiflicker</parameterid>
                           <name>Anti-flicker Filter</name>
                           <valuemin>0.0</valuemin>
                           <valuemax>1.0</valuemax>
                           <value>0</value>
                        </parameter>
                     </effect>
                  </filter>
                  <logginginfo>
                     <description />
                     <scene />
                     <shottake />
                     <lognote />
                     <good />
                     <originalvideofilename />
                     <originalaudiofilename />
                  </logginginfo>
                  <colorinfo>
                     <lut />
                     <lut1 />
                     <asc_sop />
                     <asc_sat />
                     <lut2 />
                  </colorinfo>
                  <labels>
                     <label2>Magenta</label2>
                  </labels>
               </clipitem>
               <clipitem id="clipitem-536">
                  <masterclipid>masterclip-291</masterclipid>
                  <name>mymovie.mov</name>
                  <enabled>FALSE</enabled>
                  <duration>107</duration>
                  <rate>
                     <timebase>24</timebase>
                     <ntsc>TRUE</ntsc>
                  </rate>
                  <start>1675</start>
                  <end>1734</end>
                  <in>24</in>
                  <out>83</out>
                  <pproTicksIn>254270016000</pproTicksIn>
                  <pproTicksOut>879350472000</pproTicksOut>
                  <alphatype>none</alphatype>
                  <pixelaspectratio>square</pixelaspectratio>
                  <anamorphic>FALSE</anamorphic>
                  <file id="file-282">
                     <name>mymovie.mov</name>
                     <pathurl>file://localhost/Volumes/mydisk/mymovie.mov</pathurl>
                     <rate>
                        <timebase>24</timebase>
                        <ntsc>TRUE</ntsc>
                     </rate>
                     <duration>107</duration>
                     <timecode>
                        <rate>
                           <timebase>24</timebase>
                           <ntsc>TRUE</ntsc>
                        </rate>
                        <string>00:00:00:00</string>
                        <frame>0</frame>
                        <displayformat>NDF</displayformat>
                        <reel>
                           <name>reel_name</name>
                        </reel>
                     </timecode>
                     <media>
                        <video>
                           <samplecharacteristics>
                              <rate>
                                 <timebase>24</timebase>
                                 <ntsc>TRUE</ntsc>
                              </rate>
                              <width>2048</width>
                              <height>858</height>
                              <anamorphic>FALSE</anamorphic>
                              <pixelaspectratio>square</pixelaspectratio>
                              <fielddominance>none</fielddominance>
                           </samplecharacteristics>
                        </video>
                     </media>
                  </file>
                  <filter>
                     <effect>
                        <name>Basic Motion</name>
                        <effectid>basic</effectid>
                        <effectcategory>motion</effectcategory>
                        <effecttype>motion</effecttype>
                        <mediatype>video</mediatype>
                        <pproBypass>false</pproBypass>
                        <parameter authoringApp="PremierePro">
                           <parameterid>scale</parameterid>
                           <name>Scale</name>
                           <valuemin>0</valuemin>
                           <valuemax>1000</valuemax>
                           <value>93.75</value>
                        </parameter>
                        <parameter authoringApp="PremierePro">
                           <parameterid>rotation</parameterid>
                           <name>Rotation</name>
                           <valuemin>-8640</valuemin>
                           <valuemax>8640</valuemax>
                           <value>0</value>
                        </parameter>
                        <parameter authoringApp="PremierePro">
                           <parameterid>center</parameterid>
                           <name>Center</name>
                           <value>
                              <horiz>0</horiz>
                              <vert>0</vert>
                           </value>
                        </parameter>
                        <parameter authoringApp="PremierePro">
                           <parameterid>centerOffset</parameterid>
                           <name>Anchor Point</name>
                           <value>
                              <horiz>0</horiz>
                              <vert>0</vert>
                           </value>
                        </parameter>
                        <parameter authoringApp="PremierePro">
                           <parameterid>antiflicker</parameterid>
                           <name>Anti-flicker Filter</name>
                           <valuemin>0.0</valuemin>
                           <valuemax>1.0</valuemax>
                           <value>0</value>
                        </parameter>
                     </effect>
                  </filter>
                  <logginginfo>
                     <description />
                     <scene />
                     <shottake />
                     <lognote />
                     <good />
                     <originalvideofilename />
                     <originalaudiofilename />
                  </logginginfo>
                  <colorinfo>
                     <lut />
                     <lut1 />
                     <asc_sop />
                     <asc_sat />
                     <lut2 />
                  </colorinfo>
                  <labels>
                     <label2>Magenta</label2>
                  </labels>
               </clipitem>
               <clipitem id="clipitem-537">
                  <masterclipid>masterclip-292</masterclipid>
                  <name>mymovie.mov</name>
                  <enabled>FALSE</enabled>
                  <duration>116</duration>
                  <rate>
                     <timebase>24</timebase>
                     <ntsc>TRUE</ntsc>
                  </rate>
                  <start>1734</start>
                  <end>1802</end>
                  <in>24</in>
                  <out>92</out>
                  <pproTicksIn>254270016000</pproTicksIn>
                  <pproTicksOut>974701728000</pproTicksOut>
                  <alphatype>none</alphatype>
                  <pixelaspectratio>square</pixelaspectratio>
                  <anamorphic>FALSE</anamorphic>
                  <file id="file-283">
                     <name>mymovie.mov</name>
                     <pathurl>file://localhost/Volumes/mydisk/mymovie.mov</pathurl>
                     <rate>
                        <timebase>24</timebase>
                        <ntsc>TRUE</ntsc>
                     </rate>
                     <duration>116</duration>
                     <timecode>
                        <rate>
                           <timebase>24</timebase>
                           <ntsc>TRUE</ntsc>
                        </rate>
                        <string>00:00:00:00</string>
                        <frame>0</frame>
                        <displayformat>NDF</displayformat>
                        <reel>
                           <name>reel_name</name>
                        </reel>
                     </timecode>
                     <media>
                        <video>
                           <samplecharacteristics>
                              <rate>
                                 <timebase>24</timebase>
                                 <ntsc>TRUE</ntsc>
                              </rate>
                              <width>2048</width>
                              <height>858</height>
                              <anamorphic>FALSE</anamorphic>
                              <pixelaspectratio>square</pixelaspectratio>
                              <fielddominance>none</fielddominance>
                           </samplecharacteristics>
                        </video>
                     </media>
                  </file>
                  <filter>
                     <effect>
                        <name>Basic Motion</name>
                        <effectid>basic</effectid>
                        <effectcategory>motion</effectcategory>
                        <effecttype>motion</effecttype>
                        <mediatype>video</mediatype>
                        <pproBypass>false</pproBypass>
                        <parameter authoringApp="PremierePro">
                           <parameterid>scale</parameterid>
                           <name>Scale</name>
                           <valuemin>0</valuemin>
                           <valuemax>1000</valuemax>
                           <value>93.75</value>
                        </parameter>
                        <parameter authoringApp="PremierePro">
                           <parameterid>rotation</parameterid>
                           <name>Rotation</name>
                           <valuemin>-8640</valuemin>
                           <valuemax>8640</valuemax>
                           <value>0</value>
                        </parameter>
                        <parameter authoringApp="PremierePro">
                           <parameterid>center</parameterid>
                           <name>Center</name>
                           <value>
                              <horiz>0</horiz>
                              <vert>0</vert>
                           </value>
                        </parameter>
                        <parameter authoringApp="PremierePro">
                           <parameterid>centerOffset</parameterid>
                           <name>Anchor Point</name>
                           <value>
                              <horiz>0</horiz>
                              <vert>0</vert>
                           </value>
                        </parameter>
                        <parameter authoringApp="PremierePro">
                           <parameterid>antiflicker</parameterid>
                           <name>Anti-flicker Filter</name>
                           <valuemin>0.0</valuemin>
                           <valuemax>1.0</valuemax>
                           <value>0</value>
                        </parameter>
                     </effect>
                  </filter>
                  <logginginfo>
                     <description />
                     <scene />
                     <shottake />
                     <lognote />
                     <good />
                     <originalvideofilename />
                     <originalaudiofilename />
                  </logginginfo>
                  <colorinfo>
                     <lut />
                     <lut1 />
                     <asc_sop />
                     <asc_sat />
                     <lut2 />
                  </colorinfo>
                  <labels>
                     <label2>Iris</label2>
                  </labels>
               </clipitem>
               <clipitem id="clipitem-538">
                  <masterclipid>masterclip-293</masterclipid>
                  <name>mymovie.mov</name>
                  <enabled>FALSE</enabled>
                  <duration>161</duration>
                  <rate>
                     <timebase>24</timebase>
                     <ntsc>TRUE</ntsc>
                  </rate>
                  <start>1862</start>
                  <end>1975</end>
                  <in>24</in>
                  <out>137</out>
                  <pproTicksIn>254270016000</pproTicksIn>
                  <pproTicksOut>1451458008000</pproTicksOut>
                  <alphatype>none</alphatype>
                  <pixelaspectratio>square</pixelaspectratio>
                  <anamorphic>FALSE</anamorphic>
                  <file id="file-284">
                     <name>mymovie.mov</name>
                     <pathurl>file://localhost/Volumes/mydisk/mymovie.mov</pathurl>
                     <rate>
                        <timebase>24</timebase>
                        <ntsc>TRUE</ntsc>
                     </rate>
                     <duration>161</duration>
                     <timecode>
                        <rate>
                           <timebase>24</timebase>
                           <ntsc>TRUE</ntsc>
                        </rate>
                        <string>00:00:00:00</string>
                        <frame>0</frame>
                        <displayformat>NDF</displayformat>
                        <reel>
                           <name>reel_name</name>
                        </reel>
                     </timecode>
                     <media>
                        <video>
                           <samplecharacteristics>
                              <rate>
                                 <timebase>24</timebase>
                                 <ntsc>TRUE</ntsc>
                              </rate>
                              <width>2048</width>
                              <height>858</height>
                              <anamorphic>FALSE</anamorphic>
                              <pixelaspectratio>square</pixelaspectratio>
                              <fielddominance>none</fielddominance>
                           </samplecharacteristics>
                        </video>
                     </media>
                  </file>
                  <filter>
                     <effect>
                        <name>Basic Motion</name>
                        <effectid>basic</effectid>
                        <effectcategory>motion</effectcategory>
                        <effecttype>motion</effecttype>
                        <mediatype>video</mediatype>
                        <pproBypass>false</pproBypass>
                        <parameter authoringApp="PremierePro">
                           <parameterid>scale</parameterid>
                           <name>Scale</name>
                           <valuemin>0</valuemin>
                           <valuemax>1000</valuemax>
                           <value>93.75</value>
                        </parameter>
                        <parameter authoringApp="PremierePro">
                           <parameterid>rotation</parameterid>
                           <name>Rotation</name>
                           <valuemin>-8640</valuemin>
                           <valuemax>8640</valuemax>
                           <value>0</value>
                        </parameter>
                        <parameter authoringApp="PremierePro">
                           <parameterid>center</parameterid>
                           <name>Center</name>
                           <value>
                              <horiz>0</horiz>
                              <vert>0</vert>
                           </value>
                        </parameter>
                        <parameter authoringApp="PremierePro">
                           <parameterid>centerOffset</parameterid>
                           <name>Anchor Point</name>
                           <value>
                              <horiz>0</horiz>
                              <vert>0</vert>
                           </value>
                        </parameter>
                        <parameter authoringApp="PremierePro">
                           <parameterid>antiflicker</parameterid>
                           <name>Anti-flicker Filter</name>
                           <valuemin>0.0</valuemin>
                           <valuemax>1.0</valuemax>
                           <value>0</value>
                        </parameter>
                     </effect>
                  </filter>
                  <logginginfo>
                     <description />
                     <scene />
                     <shottake />
                     <lognote />
                     <good />
                     <originalvideofilename />
                     <originalaudiofilename />
                  </logginginfo>
                  <colorinfo>
                     <lut />
                     <lut1 />
                     <asc_sop />
                     <asc_sat />
                     <lut2 />
                  </colorinfo>
                  <labels>
                     <label2>Magenta</label2>
                  </labels>
               </clipitem>
               <clipitem id="clipitem-539">
                  <masterclipid>masterclip-294</masterclipid>
                  <name>mymovie.mov</name>
                  <enabled>FALSE</enabled>
                  <duration>119</duration>
                  <rate>
                     <timebase>24</timebase>
                     <ntsc>TRUE</ntsc>
                  </rate>
                  <start>1975</start>
                  <end>2046</end>
                  <in>24</in>
                  <out>95</out>
                  <pproTicksIn>254270016000</pproTicksIn>
                  <pproTicksOut>1006485480000</pproTicksOut>
                  <alphatype>none</alphatype>
                  <pixelaspectratio>square</pixelaspectratio>
                  <anamorphic>FALSE</anamorphic>
                  <file id="file-285">
                     <name>mymovie.mov</name>
                     <pathurl>file://localhost/Volumes/mydisk/mymovie.mov</pathurl>
                     <rate>
                        <timebase>24</timebase>
                        <ntsc>TRUE</ntsc>
                     </rate>
                     <duration>119</duration>
                     <timecode>
                        <rate>
                           <timebase>24</timebase>
                           <ntsc>TRUE</ntsc>
                        </rate>
                        <string>00:00:00:00</string>
                        <frame>0</frame>
                        <displayformat>NDF</displayformat>
                        <reel>
                           <name>reel_name</name>
                        </reel>
                     </timecode>
                     <media>
                        <video>
                           <samplecharacteristics>
                              <rate>
                                 <timebase>24</timebase>
                                 <ntsc>TRUE</ntsc>
                              </rate>
                              <width>2048</width>
                              <height>858</height>
                              <anamorphic>FALSE</anamorphic>
                              <pixelaspectratio>square</pixelaspectratio>
                              <fielddominance>none</fielddominance>
                           </samplecharacteristics>
                        </video>
                     </media>
                  </file>
                  <filter>
                     <effect>
                        <name>Basic Motion</name>
                        <effectid>basic</effectid>
                        <effectcategory>motion</effectcategory>
                        <effecttype>motion</effecttype>
                        <mediatype>video</mediatype>
                        <pproBypass>false</pproBypass>
                        <parameter authoringApp="PremierePro">
                           <parameterid>scale</parameterid>
                           <name>Scale</name>
                           <valuemin>0</valuemin>
                           <valuemax>1000</valuemax>
                           <value>93.75</value>
                        </parameter>
                        <parameter authoringApp="PremierePro">
                           <parameterid>rotation</parameterid>
                           <name>Rotation</name>
                           <valuemin>-8640</valuemin>
                           <valuemax>8640</valuemax>
                           <value>0</value>
                        </parameter>
                        <parameter authoringApp="PremierePro">
                           <parameterid>center</parameterid>
                           <name>Center</name>
                           <value>
                              <horiz>0</horiz>
                              <vert>0</vert>
                           </value>
                        </parameter>
                        <parameter authoringApp="PremierePro">
                           <parameterid>centerOffset</parameterid>
                           <name>Anchor Point</name>
                           <value>
                              <horiz>0</horiz>
                              <vert>0</vert>
                           </value>
                        </parameter>
                        <parameter authoringApp="PremierePro">
                           <parameterid>antiflicker</parameterid>
                           <name>Anti-flicker Filter</name>
                           <valuemin>0.0</valuemin>
                           <valuemax>1.0</valuemax>
                           <value>0</value>
                        </parameter>
                     </effect>
                  </filter>
                  <logginginfo>
                     <description />
                     <scene />
                     <shottake />
                     <lognote />
                     <good />
                     <originalvideofilename />
                     <originalaudiofilename />
                  </logginginfo>
                  <colorinfo>
                     <lut />
                     <lut1 />
                     <asc_sop />
                     <asc_sat />
                     <lut2 />
                  </colorinfo>
                  <labels>
                     <label2>Magenta</label2>
                  </labels>
               </clipitem>
               <clipitem id="clipitem-540">
                  <masterclipid>masterclip-295</masterclipid>
                  <name>mymovie.mov</name>
                  <enabled>FALSE</enabled>
                  <duration>109</duration>
                  <rate>
                     <timebase>24</timebase>
                     <ntsc>TRUE</ntsc>
                  </rate>
                  <start>2094</start>
                  <end>2155</end>
                  <in>24</in>
                  <out>85</out>
                  <pproTicksIn>254270016000</pproTicksIn>
                  <pproTicksOut>900539640000</pproTicksOut>
                  <alphatype>none</alphatype>
                  <pixelaspectratio>square</pixelaspectratio>
                  <anamorphic>FALSE</anamorphic>
                  <file id="file-286">
                     <name>mymovie.mov</name>
                     <pathurl>file://localhost/Volumes/mydisk/mymovie.mov</pathurl>
                     <rate>
                        <timebase>24</timebase>
                        <ntsc>TRUE</ntsc>
                     </rate>
                     <duration>109</duration>
                     <timecode>
                        <rate>
                           <timebase>24</timebase>
                           <ntsc>TRUE</ntsc>
                        </rate>
                        <string>00:00:00:00</string>
                        <frame>0</frame>
                        <displayformat>NDF</displayformat>
                        <reel>
                           <name>reel_name</name>
                        </reel>
                     </timecode>
                     <media>
                        <video>
                           <samplecharacteristics>
                              <rate>
                                 <timebase>24</timebase>
                                 <ntsc>TRUE</ntsc>
                              </rate>
                              <width>2048</width>
                              <height>858</height>
                              <anamorphic>FALSE</anamorphic>
                              <pixelaspectratio>square</pixelaspectratio>
                              <fielddominance>none</fielddominance>
                           </samplecharacteristics>
                        </video>
                     </media>
                  </file>
                  <filter>
                     <effect>
                        <name>Basic Motion</name>
                        <effectid>basic</effectid>
                        <effectcategory>motion</effectcategory>
                        <effecttype>motion</effecttype>
                        <mediatype>video</mediatype>
                        <pproBypass>false</pproBypass>
                        <parameter authoringApp="PremierePro">
                           <parameterid>scale</parameterid>
                           <name>Scale</name>
                           <valuemin>0</valuemin>
                           <valuemax>1000</valuemax>
                           <value>93.75</value>
                        </parameter>
                        <parameter authoringApp="PremierePro">
                           <parameterid>rotation</parameterid>
                           <name>Rotation</name>
                           <valuemin>-8640</valuemin>
                           <valuemax>8640</valuemax>
                           <value>0</value>
                        </parameter>
                        <parameter authoringApp="PremierePro">
                           <parameterid>center</parameterid>
                           <name>Center</name>
                           <value>
                              <horiz>0</horiz>
                              <vert>0</vert>
                           </value>
                        </parameter>
                        <parameter authoringApp="PremierePro">
                           <parameterid>centerOffset</parameterid>
                           <name>Anchor Point</name>
                           <value>
                              <horiz>0</horiz>
                              <vert>0</vert>
                           </value>
                        </parameter>
                        <parameter authoringApp="PremierePro">
                           <parameterid>antiflicker</parameterid>
                           <name>Anti-flicker Filter</name>
                           <valuemin>0.0</valuemin>
                           <valuemax>1.0</valuemax>
                           <value>0</value>
                        </parameter>
                     </effect>
                  </filter>
                  <logginginfo>
                     <description />
                     <scene />
                     <shottake />
                     <lognote />
                     <good />
                     <originalvideofilename />
                     <originalaudiofilename />
                  </logginginfo>
                  <colorinfo>
                     <lut />
                     <lut1 />
                     <asc_sop />
                     <asc_sat />
                     <lut2 />
                  </colorinfo>
                  <labels>
                     <label2>Magenta</label2>
                  </labels>
               </clipitem>
               <clipitem id="clipitem-541">
                  <masterclipid>masterclip-285</masterclipid>
                  <name>Graphic</name>
                  <enabled>FALSE</enabled>
                  <duration>1035764</duration>
                  <rate>
                     <timebase>24</timebase>
                     <ntsc>TRUE</ntsc>
                  </rate>
                  <start>2155</start>
                  <end>2207</end>
                  <in>86313</in>
                  <out>86365</out>
                  <pproTicksIn>914450328792000</pproTicksIn>
                  <pproTicksOut>915001247160000</pproTicksOut>
                  <alphatype>straight</alphatype>
                  <file id="file-276" />
                  <filter>
                     <effect>
                        <name>myshow</name>
                        <effectid>GraphicAndType</effectid>
                        <effectcategory>graphic</effectcategory>
                        <effecttype>filter</effecttype>
                        <mediatype>video</mediatype>
                        <pproBypass>false</pproBypass>
                        <pproExpanded>true</pproExpanded>
                        <parameter authoringApp="PremierePro">
                           <parameterid>1</parameterid>
                           <name>Source Text</name>
                           <hash>d9583803-df20-1858-9e0f-504b00000aa6</hash>
                           <value>kgoAAAAAAAB7ACIAbQBUAGUAeAB0AFAAYQByAGEAbQAiADoAewAiAG0AQQBsAGkAZwBuAG0AZQBuAHQAIgA6ADAALAAiAG0AQgBhAGMAawBGAGkAbABsAEMAbwBsAG8AcgAiADoANAAxADQANAA5ADUAOQAsACIAbQBCAGEAYwBrAEYAaQBsAGwATwBwAGEAYwBpAHQAeQAiADoANwA1ACwAIgBtAEIAYQBjAGsARgBpAGwAbABTAGkAegBlACIAOgAwACwAIgBtAEIAYQBjAGsARgBpAGwAbABWAGkAcwBpAGIAbABlACIAOgB0AHIAdQBlACwAIgBtAEQAZQBmAGEAdQBsAHQAUgB1AG4AIgA6AFsAXQAsACIAbQBIAGUAaQBnAGgAdAAiADoAMAAsACIAbQBIAGkAbgBkAGkARABpAGcAaQB0AHMAIgA6AGYAYQBsAHMAZQAsACIAbQBJAG4AZABpAGMAIgA6AGYAYQBsAHMAZQAsACIAbQBJAHMATQBhAHMAawAiADoAZgBhAGwAcwBlACwAIgBtAEkAcwBNAGEAcwBrAEkAbgB2AGUAcgB0AGUAZAAiADoAZgBhAGwAcwBlACwAIgBtAEkAcwBWAGUAcgB0AGkAYwBhAGwAVABlAHgAdAAiADoAZgBhAGwAcwBlACwAIgBtAEwAZQBhAGQAaQBuAGcAIgA6ADAALAAiAG0ATABpAGcAYQB0AHUAcgBlAHMAIgA6AGYAYQBsAHMAZQAsACIAbQBMAGkAbgBlAEMAYQBwAFQAeQBwAGUAIgA6ADAALAAiAG0ATABpAG4AZQBKAG8AaQBuAFQAeQBwAGUAIgA6ADAALAAiAG0ATQBpAHQAZQByAEwAaQBtAGkAdAAiADoAMgAuADUALAAiAG0ATgB1AG0AUwB0AHIAbwBrAGUAcwAiADoAMQAsACIAbQBSAFQATAAiADoAZgBhAGwAcwBlACwAIgBtAFMAaABhAGQAbwB3AEEAbgBnAGwAZQAiADoAMQAzADUALAAiAG0AUwBoAGEAZABvAHcAQgBsAHUAcgAiADoANAAwACwAIgBtAFMAaABhAGQAbwB3AEMAbwBsAG8AcgAiADoANAAxADQANAA5ADUAOQAsACIAbQBTAGgAYQBkAG8AdwBPAGYAZgBzAGUAdAAiADoANwAsACIAbQBTAGgAYQBkAG8AdwBPAHAAYQBjAGkAdAB5ACIAOgA3ADUALAAiAG0AUwBoAGEAZABvAHcAUwBpAHoAZQAiADoAMAAsACIAbQBTAGgAYQBkAG8AdwBWAGkAcwBpAGIAbABlACIAOgBmAGEAbABzAGUALAAiAG0AUwB0AHkAbABlAFMAaABlAGUAdAAiADoAewAiAG0AQQBkAGQAaQB0AGkAbwBuAGEAbABTAHQAcgBvAGsAZQBDAG8AbABvAHIAIgA6AFsAXQAsACIAbQBBAGQAZABpAHQAaQBvAG4AYQBsAFMAdAByAG8AawBlAFYAaQBzAGkAYgBsAGUAIgA6AFsAXQAsACIAbQBBAGQAZABpAHQAaQBvAG4AYQBsAFMAdAByAG8AawBlAFcAaQBkAHQAaAAiADoAWwBdACwAIgBtAEIAYQBzAGUAbABpAG4AZQBPAHAAdABpAG8AbgAiADoAewAiAG0AUABhAHIAYQBtAFYAYQBsAHUAZQBzACIAOgBbAFsAMAAsADAAXQBdAH0ALAAiAG0AQgBhAHMAZQBsAGkAbgBlAFMAaABpAGYAdAAiADoAewAiAG0AUABhAHIAYQBtAFYAYQBsAHUAZQBzACIAOgBbAFsAMAAsADAAXQBdAH0ALAAiAG0AQwBhAHAAcwBPAHAAdABpAG8AbgAiADoAewAiAG0AUABhAHIAYQBtAFYAYQBsAHUAZQBzACIAOgBbAFsAMAAsADAAXQBdAH0ALAAiAG0ARgBhAHUAeABCAG8AbABkACIAOgB7ACIAbQBQAGEAcgBhAG0AVgBhAGwAdQBlAHMAIgA6AFsAWwAwACwAZgBhAGwAcwBlAF0AXQB9ACwAIgBtAEYAYQB1AHgASQB0AGEAbABpAGMAIgA6AHsAIgBtAFAAYQByAGEAbQBWAGEAbAB1AGUAcwAiADoAWwBbADAALABmAGEAbABzAGUAXQBdAH0ALAAiAG0ARgBpAGwAbABDAG8AbABvAHIAIgA6AHsAIgBtAFAAYQByAGEAbQBWAGEAbAB1AGUAcwAiADoAWwBbADAALAAxADYANwA3ADcAMgAxADUAXQBdAH0ALAAiAG0ARgBpAGwAbABPAHYAZQByAFMAdAByAG8AawBlACIAOgB7ACIAbQBQAGEAcgBhAG0AVgBhAGwAdQBlAHMAIgA6AFsAWwAwACwAdAByAHUAZQBdAF0AfQAsACIAbQBGAGkAbABsAFYAaQBzAGkAYgBsAGUAIgA6AHsAIgBtAFAAYQByAGEAbQBWAGEAbAB1AGUAcwAiADoAWwBbADAALAB0AHIAdQBlAF0AXQB9ACwAIgBtAEYAbwBuAHQATgBhAG0AZQAiADoAewAiAG0AUABhAHIAYQBtAFYAYQBsAHUAZQBzACIAOgBbAFsAMAAsACIATAB1AGMAaQBkAGEARwByAGEAbgBkAGUAIgBdAF0AfQAsACIAbQBGAG8AbgB0AFMAaQB6AGUAIgA6AHsAIgBtAFAAYQByAGEAbQBWAGEAbAB1AGUAcwAiADoAWwBbADAALAAyADgALgA0ADYAMQA1ADMANgA0ADAANwA0ADcAMAA3ADAAMwBdAF0AfQAsACIAbQBLAGUAcgBuAGkAbgBnACIAOgB7ACIAbQBQAGEAcgBhAG0AVgBhAGwAdQBlAHMAIgA6AFsAWwAwACwAMABdAF0AfQAsACIAbQBTAHQAcgBvAGsAZQBDAG8AbABvAHIAIgA6AHsAIgBtAFAAYQByAGEAbQBWAGEAbAB1AGUAcwAiADoAWwBbADAALAAxADYANwA3ADcAMgAxADUAXQBdAH0ALAAiAG0AUwB0AHIAbwBrAGUAVgBpAHMAaQBiAGwAZQAiADoAewAiAG0AUABhAHIAYQBtAFYAYQBsAHUAZQBzACIAOgBbAFsAMAAsAGYAYQBsAHMAZQBdAF0AfQAsACIAbQBTAHQAcgBvAGsAZQBXAGkAZAB0AGgAIgA6AHsAIgBtAFAAYQByAGEAbQBWAGEAbAB1AGUAcwAiADoAWwBbADAALAAxAF0AXQB9ACwAIgBtAFQAZQB4AHQAIgA6ACIAUgBEAE4AMQAwADIAXwAwADMAMgBfADEANgA1ADAAIgAsACIAbQBUAHIAYQBjAGsAaQBuAGcAIgA6AHsAIgBtAFAAYQByAGEAbQBWAGEAbAB1AGUAcwAiADoAWwBbADAALAAwAF0AXQB9ACwAIgBtAFQAcwB1AG0AaQAiADoAewAiAG0AUABhAHIAYQBtAFYAYQBsAHUAZQBzACIAOgBbAFsAMAAsADAAXQBdAH0AfQAsACIAbQBUAGEAYgBXAGkAZAB0AGgAIgA6ADQAMAAwACwAIgBtAFcAaQBkAHQAaAAiADoAMAB9ACwAIgBtAFYAZQByAHMAaQBvAG4AIgA6ADEAfQA=</value>
                        </parameter>
                        <parameter authoringApp="PremierePro">
                           <parameterid>2</parameterid>
                           <name>Transform</name>
                           <IsTimeVarying>false</IsTimeVarying>
                           <ParameterControlType>11</ParameterControlType>
                           <LowerBound>false</LowerBound>
                           <UpperBound>false</UpperBound>
                           <value>-91445760000000000,false,0,0,0,0,0,0</value>
                        </parameter>
                        <parameter authoringApp="PremierePro">
                           <parameterid>3</parameterid>
                           <name>Position</name>
                           <IsTimeVarying>false</IsTimeVarying>
                           <value>-91445760000000000,0.02187499962747097:0.83703702688217163,0,0,0,0,0,0,5,4,0,0,0,0</value>
                        </parameter>
                        <parameter authoringApp="PremierePro">
                           <parameterid>4</parameterid>
                           <name>Vertical Scale</name>
                           <IsTimeVarying>false</IsTimeVarying>
                           <ParameterControlType>2</ParameterControlType>
                           <LowerBound>0</LowerBound>
                           <UpperBound>4000</UpperBound>
                           <value>-91445760000000000,100.,0,0,0,0,0,0</value>
                        </parameter>
                        <parameter authoringApp="PremierePro">
                           <parameterid>5</parameterid>
                           <name>Horizontal Scale</name>
                           <IsTimeVarying>false</IsTimeVarying>
                           <ParameterControlType>2</ParameterControlType>
                           <LowerBound>0</LowerBound>
                           <UpperBound>4000</UpperBound>
                           <value>-91445760000000000,95.,0,0,0,0,0,0</value>
                        </parameter>
                        <parameter authoringApp="PremierePro">
                           <parameterid>6</parameterid>
                           <name />
                           <IsTimeVarying>false</IsTimeVarying>
                           <ParameterControlType>4</ParameterControlType>
                           <LowerBound>false</LowerBound>
                           <UpperBound>true</UpperBound>
                           <value>-91445760000000000,false,0,0,0,0,0,0</value>
                        </parameter>
                        <parameter authoringApp="PremierePro">
                           <parameterid>7</parameterid>
                           <name>Rotation</name>
                           <IsTimeVarying>false</IsTimeVarying>
                           <ParameterControlType>3</ParameterControlType>
                           <LowerBound>-32768</LowerBound>
                           <UpperBound>32767</UpperBound>
                           <value>-91445760000000000,0.,0,0,0,0,0,0</value>
                        </parameter>
                        <parameter authoringApp="PremierePro">
                           <parameterid>8</parameterid>
                           <name>Opacity</name>
                           <IsTimeVarying>false</IsTimeVarying>
                           <ParameterControlType>2</ParameterControlType>
                           <LowerBound>0</LowerBound>
                           <UpperBound>100</UpperBound>
                           <value>-91445760000000000,100.,0,0,0,0,0,0</value>
                        </parameter>
                        <parameter authoringApp="PremierePro">
                           <parameterid>9</parameterid>
                           <name>Anchor Point</name>
                           <IsTimeVarying>false</IsTimeVarying>
                           <value>-91445760000000000,0:0,0,0,0,0,0,0,5,4,0,0,0,0</value>
                        </parameter>
                        <parameter authoringApp="PremierePro">
                           <parameterid>10</parameterid>
                           <name />
                           <IsTimeVarying>false</IsTimeVarying>
                           <ParameterControlType>12</ParameterControlType>
                           <LowerBound>false</LowerBound>
                           <UpperBound>false</UpperBound>
                           <value>-91445760000000000,false,0,0,0,0,0,0</value>
                        </parameter>
                        <parameter authoringApp="PremierePro">
                           <parameterid>11</parameterid>
                           <name />
                           <IsTimeVarying>false</IsTimeVarying>
                           <ParameterControlType>8</ParameterControlType>
                           <LowerBound>0</LowerBound>
                           <UpperBound>32768</UpperBound>
                           <value>-91445760000000000,0.,0,0,0,0,0,0</value>
                        </parameter>
                        <parameter authoringApp="PremierePro">
                           <parameterid>12</parameterid>
                           <name />
                           <IsTimeVarying>false</IsTimeVarying>
                           <ParameterControlType>8</ParameterControlType>
                           <LowerBound>0</LowerBound>
                           <UpperBound>32768</UpperBound>
                           <value>-91445760000000000,0.,0,0,0,0,0,0</value>
                        </parameter>
                        <parameter authoringApp="PremierePro">
                           <parameterid>13</parameterid>
                           <name>start</name>
                           <IsTimeVarying>false</IsTimeVarying>
                           <ParameterControlType>8</ParameterControlType>
                           <LowerBound>-100</LowerBound>
                           <UpperBound>1000000000</UpperBound>
                           <value>-91445760000000000,15.,0,0,0,0,0,0</value>
                        </parameter>
                        <parameter authoringApp="PremierePro">
                           <parameterid>14</parameterid>
                           <name>end</name>
                           <IsTimeVarying>false</IsTimeVarying>
                           <ParameterControlType>8</ParameterControlType>
                           <LowerBound>-100</LowerBound>
                           <UpperBound>1000000000</UpperBound>
                           <value>-91445760000000000,15.,0,0,0,0,0,0</value>
                        </parameter>
                        <parameter authoringApp="PremierePro">
                           <parameterid>15</parameterid>
                           <name />
                           <IsTimeVarying>false</IsTimeVarying>
                           <ParameterControlType>4</ParameterControlType>
                           <LowerBound>false</LowerBound>
                           <UpperBound>true</UpperBound>
                           <value>-91445760000000000,false,0,0,0,0,0,0</value>
                        </parameter>
                        <parameter authoringApp="PremierePro">
                           <parameterid>16</parameterid>
                           <name />
                           <IsTimeVarying>false</IsTimeVarying>
                           <ParameterControlType>4</ParameterControlType>
                           <LowerBound>false</LowerBound>
                           <UpperBound>true</UpperBound>
                           <value>-91445760000000000,false,0,0,0,0,0,0</value>
                        </parameter>
                        <parameter authoringApp="PremierePro">
                           <parameterid>17</parameterid>
                           <name />
                           <IsTimeVarying>false</IsTimeVarying>
                           <ParameterControlType>4</ParameterControlType>
                           <LowerBound>false</LowerBound>
                           <UpperBound>true</UpperBound>
                           <value>-91445760000000000,false,0,0,0,0,0,0</value>
                        </parameter>
                        <parameter authoringApp="PremierePro">
                           <parameterid>18</parameterid>
                           <name />
                           <IsTimeVarying>false</IsTimeVarying>
                           <ParameterControlType>4</ParameterControlType>
                           <LowerBound>false</LowerBound>
                           <UpperBound>true</UpperBound>
                           <value>-91445760000000000,false,0,0,0,0,0,0</value>
                        </parameter>
                        <parameter authoringApp="PremierePro">
                           <parameterid>19</parameterid>
                           <name>Parent Width</name>
                           <IsTimeVarying>false</IsTimeVarying>
                           <ParameterControlType>2</ParameterControlType>
                           <LowerBound>0</LowerBound>
                           <UpperBound>20000</UpperBound>
                           <value>-91445760000000000,0.,0,0,0,0,0,0</value>
                        </parameter>
                        <parameter authoringApp="PremierePro">
                           <parameterid>20</parameterid>
                           <name>Parent Height</name>
                           <IsTimeVarying>false</IsTimeVarying>
                           <ParameterControlType>2</ParameterControlType>
                           <LowerBound>0</LowerBound>
                           <UpperBound>20000</UpperBound>
                           <value>-91445760000000000,0.,0,0,0,0,0,0</value>
                        </parameter>
                        <parameter authoringApp="PremierePro">
                           <parameterid>21</parameterid>
                           <name>Parent Rotation</name>
                           <IsTimeVarying>false</IsTimeVarying>
                           <ParameterControlType>3</ParameterControlType>
                           <LowerBound>-32768</LowerBound>
                           <UpperBound>32767</UpperBound>
                           <value>-91445760000000000,0.,0,0,0,0,0,0</value>
                        </parameter>
                     </effect>
                  </filter>
                  <filter>
                     <effect>
                        <name />
                        <effectid>GraphicAndType</effectid>
                        <effectcategory>graphic</effectcategory>
                        <effecttype>filter</effecttype>
                        <mediatype>video</mediatype>
                        <pproBypass>false</pproBypass>
                        <parameter authoringApp="PremierePro">
                           <parameterid>1</parameterid>
                           <name>Source Text</name>
                           <hash>86c1a2b5-72d0-d084-5430-aaa900000c8c</hash>
                        </parameter>
                        <parameter authoringApp="PremierePro">
                           <parameterid>2</parameterid>
                           <name>Transform</name>
                           <IsTimeVarying>false</IsTimeVarying>
                           <ParameterControlType>11</ParameterControlType>
                           <LowerBound>false</LowerBound>
                           <UpperBound>false</UpperBound>
                           <value>-91445760000000000,false,0,0,0,0,0,0</value>
                        </parameter>
                        <parameter authoringApp="PremierePro">
                           <parameterid>3</parameterid>
                           <name>Position</name>
                           <IsTimeVarying>false</IsTimeVarying>
                           <value>-91445760000000000,0.045454546809196472:0.79940122365951538,0,0,0,0,0,0,5,4,0,0,0,0</value>
                        </parameter>
                        <parameter authoringApp="PremierePro">
                           <parameterid>4</parameterid>
                           <name>Scale</name>
                           <IsTimeVarying>false</IsTimeVarying>
                           <ParameterControlType>2</ParameterControlType>
                           <LowerBound>0</LowerBound>
                           <UpperBound>4000</UpperBound>
                           <value>-91445760000000000,100.,0,0,0,0,0,0</value>
                        </parameter>
                        <parameter authoringApp="PremierePro">
                           <parameterid>5</parameterid>
                           <name>Horizontal Scale</name>
                           <IsTimeVarying>false</IsTimeVarying>
                           <ParameterControlType>2</ParameterControlType>
                           <LowerBound>0</LowerBound>
                           <UpperBound>4000</UpperBound>
                           <value>-91445760000000000,100.,0,0,0,0,0,0</value>
                        </parameter>
                        <parameter authoringApp="PremierePro">
                           <parameterid>6</parameterid>
                           <name />
                           <IsTimeVarying>false</IsTimeVarying>
                           <ParameterControlType>4</ParameterControlType>
                           <LowerBound>false</LowerBound>
                           <UpperBound>true</UpperBound>
                           <value>-91445760000000000,true,0,0,0,0,0,0</value>
                        </parameter>
                        <parameter authoringApp="PremierePro">
                           <parameterid>7</parameterid>
                           <name>Rotation</name>
                           <IsTimeVarying>false</IsTimeVarying>
                           <ParameterControlType>3</ParameterControlType>
                           <LowerBound>-32768</LowerBound>
                           <UpperBound>32767</UpperBound>
                           <value>-91445760000000000,0.,0,0,0,0,0,0</value>
                        </parameter>
                        <parameter authoringApp="PremierePro">
                           <parameterid>8</parameterid>
                           <name>Opacity</name>
                           <IsTimeVarying>false</IsTimeVarying>
                           <ParameterControlType>2</ParameterControlType>
                           <LowerBound>0</LowerBound>
                           <UpperBound>100</UpperBound>
                           <value>-91445760000000000,100.,0,0,0,0,0,0</value>
                        </parameter>
                        <parameter authoringApp="PremierePro">
                           <parameterid>9</parameterid>
                           <name>Anchor Point</name>
                           <IsTimeVarying>false</IsTimeVarying>
                           <value>-91445760000000000,0:0,0,0,0,0,0,0,5,4,0,0,0,0</value>
                        </parameter>
                        <parameter authoringApp="PremierePro">
                           <parameterid>10</parameterid>
                           <name />
                           <IsTimeVarying>false</IsTimeVarying>
                           <ParameterControlType>12</ParameterControlType>
                           <LowerBound>false</LowerBound>
                           <UpperBound>false</UpperBound>
                           <value>-91445760000000000,false,0,0,0,0,0,0</value>
                        </parameter>
                        <parameter authoringApp="PremierePro">
                           <parameterid>11</parameterid>
                           <name />
                           <IsTimeVarying>false</IsTimeVarying>
                           <ParameterControlType>8</ParameterControlType>
                           <LowerBound>0</LowerBound>
                           <UpperBound>32768</UpperBound>
                           <value>-91445760000000000,0.,0,0,0,0,0,0</value>
                        </parameter>
                        <parameter authoringApp="PremierePro">
                           <parameterid>12</parameterid>
                           <name />
                           <IsTimeVarying>false</IsTimeVarying>
                           <ParameterControlType>8</ParameterControlType>
                           <LowerBound>0</LowerBound>
                           <UpperBound>32768</UpperBound>
                           <value>-91445760000000000,0.,0,0,0,0,0,0</value>
                        </parameter>
                        <parameter authoringApp="PremierePro">
                           <parameterid>13</parameterid>
                           <name>start</name>
                           <IsTimeVarying>false</IsTimeVarying>
                           <ParameterControlType>8</ParameterControlType>
                           <LowerBound>-100</LowerBound>
                           <UpperBound>1000000000</UpperBound>
                           <value>-91445760000000000,0.,0,0,0,0,0,0</value>
                        </parameter>
                        <parameter authoringApp="PremierePro">
                           <parameterid>14</parameterid>
                           <name>end</name>
                           <IsTimeVarying>false</IsTimeVarying>
                           <ParameterControlType>8</ParameterControlType>
                           <LowerBound>-100</LowerBound>
                           <UpperBound>1000000000</UpperBound>
                           <value>-91445760000000000,0.,0,0,0,0,0,0</value>
                        </parameter>
                        <parameter authoringApp="PremierePro">
                           <parameterid>15</parameterid>
                           <name />
                           <IsTimeVarying>false</IsTimeVarying>
                           <ParameterControlType>4</ParameterControlType>
                           <LowerBound>false</LowerBound>
                           <UpperBound>true</UpperBound>
                           <value>-91445760000000000,false,0,0,0,0,0,0</value>
                        </parameter>
                        <parameter authoringApp="PremierePro">
                           <parameterid>16</parameterid>
                           <name />
                           <IsTimeVarying>false</IsTimeVarying>
                           <ParameterControlType>4</ParameterControlType>
                           <LowerBound>false</LowerBound>
                           <UpperBound>true</UpperBound>
                           <value>-91445760000000000,false,0,0,0,0,0,0</value>
                        </parameter>
                        <parameter authoringApp="PremierePro">
                           <parameterid>17</parameterid>
                           <name />
                           <IsTimeVarying>false</IsTimeVarying>
                           <ParameterControlType>4</ParameterControlType>
                           <LowerBound>false</LowerBound>
                           <UpperBound>true</UpperBound>
                           <value>-91445760000000000,false,0,0,0,0,0,0</value>
                        </parameter>
                        <parameter authoringApp="PremierePro">
                           <parameterid>18</parameterid>
                           <name />
                           <IsTimeVarying>false</IsTimeVarying>
                           <ParameterControlType>4</ParameterControlType>
                           <LowerBound>false</LowerBound>
                           <UpperBound>true</UpperBound>
                           <value>-91445760000000000,false,0,0,0,0,0,0</value>
                        </parameter>
                        <parameter authoringApp="PremierePro">
                           <parameterid>19</parameterid>
                           <name>Parent Width</name>
                           <IsTimeVarying>false</IsTimeVarying>
                           <ParameterControlType>2</ParameterControlType>
                           <LowerBound>0</LowerBound>
                           <UpperBound>20000</UpperBound>
                           <value>-91445760000000000,0.,0,0,0,0,0,0</value>
                        </parameter>
                        <parameter authoringApp="PremierePro">
                           <parameterid>20</parameterid>
                           <name>Parent Height</name>
                           <IsTimeVarying>false</IsTimeVarying>
                           <ParameterControlType>2</ParameterControlType>
                           <LowerBound>0</LowerBound>
                           <UpperBound>20000</UpperBound>
                           <value>-91445760000000000,0.,0,0,0,0,0,0</value>
                        </parameter>
                        <parameter authoringApp="PremierePro">
                           <parameterid>21</parameterid>
                           <name>Parent Rotation</name>
                           <IsTimeVarying>false</IsTimeVarying>
                           <ParameterControlType>3</ParameterControlType>
                           <LowerBound>-32768</LowerBound>
                           <UpperBound>32767</UpperBound>
                           <value>-91445760000000000,0.,0,0,0,0,0,0</value>
                        </parameter>
                     </effect>
                  </filter>
                  <logginginfo>
                     <description />
                     <scene />
                     <shottake />
                     <lognote />
                     <good />
                     <originalvideofilename />
                     <originalaudiofilename />
                  </logginginfo>
                  <colorinfo>
                     <lut />
                     <lut1 />
                     <asc_sop />
                     <asc_sat />
                     <lut2 />
                  </colorinfo>
                  <labels />
               </clipitem>
               <clipitem id="clipitem-542">
                  <masterclipid>masterclip-296</masterclipid>
                  <name>mymovie.mov</name>
                  <enabled>FALSE</enabled>
                  <duration>100</duration>
                  <rate>
                     <timebase>24</timebase>
                     <ntsc>TRUE</ntsc>
                  </rate>
                  <start>2207</start>
                  <end>2259</end>
                  <in>24</in>
                  <out>76</out>
                  <pproTicksIn>254270016000</pproTicksIn>
                  <pproTicksOut>805188384000</pproTicksOut>
                  <alphatype>none</alphatype>
                  <pixelaspectratio>square</pixelaspectratio>
                  <anamorphic>FALSE</anamorphic>
                  <file id="file-287">
                     <name>mymovie.mov</name>
                     <pathurl>file://localhost/Volumes/mydisk/mymovie.mov</pathurl>
                     <rate>
                        <timebase>24</timebase>
                        <ntsc>TRUE</ntsc>
                     </rate>
                     <duration>100</duration>
                     <timecode>
                        <rate>
                           <timebase>24</timebase>
                           <ntsc>TRUE</ntsc>
                        </rate>
                        <string>00:00:00:00</string>
                        <frame>0</frame>
                        <displayformat>NDF</displayformat>
                        <reel>
                           <name>reel_name</name>
                        </reel>
                     </timecode>
                     <media>
                        <video>
                           <samplecharacteristics>
                              <rate>
                                 <timebase>24</timebase>
                                 <ntsc>TRUE</ntsc>
                              </rate>
                              <width>2048</width>
                              <height>858</height>
                              <anamorphic>FALSE</anamorphic>
                              <pixelaspectratio>square</pixelaspectratio>
                              <fielddominance>none</fielddominance>
                           </samplecharacteristics>
                        </video>
                     </media>
                  </file>
                  <filter>
                     <effect>
                        <name>Basic Motion</name>
                        <effectid>basic</effectid>
                        <effectcategory>motion</effectcategory>
                        <effecttype>motion</effecttype>
                        <mediatype>video</mediatype>
                        <pproBypass>false</pproBypass>
                        <parameter authoringApp="PremierePro">
                           <parameterid>scale</parameterid>
                           <name>Scale</name>
                           <valuemin>0</valuemin>
                           <valuemax>1000</valuemax>
                           <value>93.75</value>
                        </parameter>
                        <parameter authoringApp="PremierePro">
                           <parameterid>rotation</parameterid>
                           <name>Rotation</name>
                           <valuemin>-8640</valuemin>
                           <valuemax>8640</valuemax>
                           <value>0</value>
                        </parameter>
                        <parameter authoringApp="PremierePro">
                           <parameterid>center</parameterid>
                           <name>Center</name>
                           <value>
                              <horiz>0</horiz>
                              <vert>0</vert>
                           </value>
                        </parameter>
                        <parameter authoringApp="PremierePro">
                           <parameterid>centerOffset</parameterid>
                           <name>Anchor Point</name>
                           <value>
                              <horiz>0</horiz>
                              <vert>0</vert>
                           </value>
                        </parameter>
                        <parameter authoringApp="PremierePro">
                           <parameterid>antiflicker</parameterid>
                           <name>Anti-flicker Filter</name>
                           <valuemin>0.0</valuemin>
                           <valuemax>1.0</valuemax>
                           <value>0</value>
                        </parameter>
                     </effect>
                  </filter>
                  <logginginfo>
                     <description />
                     <scene />
                     <shottake />
                     <lognote />
                     <good />
                     <originalvideofilename />
                     <originalaudiofilename />
                  </logginginfo>
                  <colorinfo>
                     <lut />
                     <lut1 />
                     <asc_sop />
                     <asc_sat />
                     <lut2 />
                  </colorinfo>
                  <labels>
                     <label2>Magenta</label2>
                  </labels>
               </clipitem>
               <clipitem id="clipitem-543">
                  <masterclipid>masterclip-297</masterclipid>
                  <name>mymovie.mov</name>
                  <enabled>FALSE</enabled>
                  <duration>130</duration>
                  <rate>
                     <timebase>24</timebase>
                     <ntsc>TRUE</ntsc>
                  </rate>
                  <start>2306</start>
                  <end>2388</end>
                  <in>24</in>
                  <out>106</out>
                  <pproTicksIn>254270016000</pproTicksIn>
                  <pproTicksOut>1123025904000</pproTicksOut>
                  <alphatype>none</alphatype>
                  <pixelaspectratio>square</pixelaspectratio>
                  <anamorphic>FALSE</anamorphic>
                  <file id="file-288">
                     <name>mymovie.mov</name>
                     <pathurl>file://localhost/Volumes/mydisk/mymovie.mov</pathurl>
                     <rate>
                        <timebase>24</timebase>
                        <ntsc>TRUE</ntsc>
                     </rate>
                     <duration>130</duration>
                     <timecode>
                        <rate>
                           <timebase>24</timebase>
                           <ntsc>TRUE</ntsc>
                        </rate>
                        <string>00:00:00:00</string>
                        <frame>0</frame>
                        <displayformat>NDF</displayformat>
                        <reel>
                           <name>reel_name</name>
                        </reel>
                     </timecode>
                     <media>
                        <video>
                           <samplecharacteristics>
                              <rate>
                                 <timebase>24</timebase>
                                 <ntsc>TRUE</ntsc>
                              </rate>
                              <width>2048</width>
                              <height>858</height>
                              <anamorphic>FALSE</anamorphic>
                              <pixelaspectratio>square</pixelaspectratio>
                              <fielddominance>none</fielddominance>
                           </samplecharacteristics>
                        </video>
                     </media>
                  </file>
                  <filter>
                     <effect>
                        <name>Basic Motion</name>
                        <effectid>basic</effectid>
                        <effectcategory>motion</effectcategory>
                        <effecttype>motion</effecttype>
                        <mediatype>video</mediatype>
                        <pproBypass>false</pproBypass>
                        <parameter authoringApp="PremierePro">
                           <parameterid>scale</parameterid>
                           <name>Scale</name>
                           <valuemin>0</valuemin>
                           <valuemax>1000</valuemax>
                           <value>93.75</value>
                        </parameter>
                        <parameter authoringApp="PremierePro">
                           <parameterid>rotation</parameterid>
                           <name>Rotation</name>
                           <valuemin>-8640</valuemin>
                           <valuemax>8640</valuemax>
                           <value>0</value>
                        </parameter>
                        <parameter authoringApp="PremierePro">
                           <parameterid>center</parameterid>
                           <name>Center</name>
                           <value>
                              <horiz>0</horiz>
                              <vert>0</vert>
                           </value>
                        </parameter>
                        <parameter authoringApp="PremierePro">
                           <parameterid>centerOffset</parameterid>
                           <name>Anchor Point</name>
                           <value>
                              <horiz>0</horiz>
                              <vert>0</vert>
                           </value>
                        </parameter>
                        <parameter authoringApp="PremierePro">
                           <parameterid>antiflicker</parameterid>
                           <name>Anti-flicker Filter</name>
                           <valuemin>0.0</valuemin>
                           <valuemax>1.0</valuemax>
                           <value>0</value>
                        </parameter>
                     </effect>
                  </filter>
                  <logginginfo>
                     <description />
                     <scene />
                     <shottake />
                     <lognote />
                     <good />
                     <originalvideofilename />
                     <originalaudiofilename />
                  </logginginfo>
                  <colorinfo>
                     <lut />
                     <lut1 />
                     <asc_sop />
                     <asc_sat />
                     <lut2 />
                  </colorinfo>
                  <labels>
                     <label2>Magenta</label2>
                  </labels>
               </clipitem>
               <clipitem id="clipitem-544">
                  <masterclipid>masterclip-298</masterclipid>
                  <name>mymovie.mov</name>
                  <enabled>FALSE</enabled>
                  <duration>155</duration>
                  <rate>
                     <timebase>24</timebase>
                     <ntsc>TRUE</ntsc>
                  </rate>
                  <start>2585</start>
                  <end>2692</end>
                  <in>24</in>
                  <out>131</out>
                  <pproTicksIn>254270016000</pproTicksIn>
                  <pproTicksOut>1387890504000</pproTicksOut>
                  <alphatype>none</alphatype>
                  <pixelaspectratio>square</pixelaspectratio>
                  <anamorphic>FALSE</anamorphic>
                  <file id="file-289">
                     <name>mymovie.mov</name>
                     <pathurl>file://localhost/Volumes/mydisk/mymovie.mov</pathurl>
                     <rate>
                        <timebase>24</timebase>
                        <ntsc>TRUE</ntsc>
                     </rate>
                     <duration>155</duration>
                     <timecode>
                        <rate>
                           <timebase>24</timebase>
                           <ntsc>TRUE</ntsc>
                        </rate>
                        <string>00:00:00:00</string>
                        <frame>0</frame>
                        <displayformat>NDF</displayformat>
                        <reel>
                           <name>reel_name</name>
                        </reel>
                     </timecode>
                     <media>
                        <video>
                           <samplecharacteristics>
                              <rate>
                                 <timebase>24</timebase>
                                 <ntsc>TRUE</ntsc>
                              </rate>
                              <width>2048</width>
                              <height>858</height>
                              <anamorphic>FALSE</anamorphic>
                              <pixelaspectratio>square</pixelaspectratio>
                              <fielddominance>none</fielddominance>
                           </samplecharacteristics>
                        </video>
                     </media>
                  </file>
                  <filter>
                     <effect>
                        <name>Basic Motion</name>
                        <effectid>basic</effectid>
                        <effectcategory>motion</effectcategory>
                        <effecttype>motion</effecttype>
                        <mediatype>video</mediatype>
                        <pproBypass>false</pproBypass>
                        <parameter authoringApp="PremierePro">
                           <parameterid>scale</parameterid>
                           <name>Scale</name>
                           <valuemin>0</valuemin>
                           <valuemax>1000</valuemax>
                           <value>93.75</value>
                        </parameter>
                        <parameter authoringApp="PremierePro">
                           <parameterid>rotation</parameterid>
                           <name>Rotation</name>
                           <valuemin>-8640</valuemin>
                           <valuemax>8640</valuemax>
                           <value>0</value>
                        </parameter>
                        <parameter authoringApp="PremierePro">
                           <parameterid>center</parameterid>
                           <name>Center</name>
                           <value>
                              <horiz>0</horiz>
                              <vert>0</vert>
                           </value>
                        </parameter>
                        <parameter authoringApp="PremierePro">
                           <parameterid>centerOffset</parameterid>
                           <name>Anchor Point</name>
                           <value>
                              <horiz>0</horiz>
                              <vert>0</vert>
                           </value>
                        </parameter>
                        <parameter authoringApp="PremierePro">
                           <parameterid>antiflicker</parameterid>
                           <name>Anti-flicker Filter</name>
                           <valuemin>0.0</valuemin>
                           <valuemax>1.0</valuemax>
                           <value>0</value>
                        </parameter>
                     </effect>
                  </filter>
                  <logginginfo>
                     <description />
                     <scene />
                     <shottake />
                     <lognote />
                     <good />
                     <originalvideofilename />
                     <originalaudiofilename />
                  </logginginfo>
                  <colorinfo>
                     <lut />
                     <lut1 />
                     <asc_sop />
                     <asc_sat />
                     <lut2 />
                  </colorinfo>
                  <labels>
                     <label2>Magenta</label2>
                  </labels>
               </clipitem>
               <clipitem id="clipitem-545">
                  <masterclipid>masterclip-299</masterclipid>
                  <name>mymovie.mov</name>
                  <enabled>FALSE</enabled>
                  <duration>167</duration>
                  <rate>
                     <timebase>24</timebase>
                     <ntsc>TRUE</ntsc>
                  </rate>
                  <start>2819</start>
                  <end>2938</end>
                  <in>24</in>
                  <out>143</out>
                  <pproTicksIn>254270016000</pproTicksIn>
                  <pproTicksOut>1515025512000</pproTicksOut>
                  <alphatype>none</alphatype>
                  <pixelaspectratio>square</pixelaspectratio>
                  <anamorphic>FALSE</anamorphic>
                  <file id="file-290">
                     <name>mymovie.mov</name>
                     <pathurl>file://localhost/Volumes/mydisk/mymovie.mov</pathurl>
                     <rate>
                        <timebase>24</timebase>
                        <ntsc>TRUE</ntsc>
                     </rate>
                     <duration>167</duration>
                     <timecode>
                        <rate>
                           <timebase>24</timebase>
                           <ntsc>TRUE</ntsc>
                        </rate>
                        <string>00:00:00:00</string>
                        <frame>0</frame>
                        <displayformat>NDF</displayformat>
                        <reel>
                           <name>reel_name</name>
                        </reel>
                     </timecode>
                     <media>
                        <video>
                           <samplecharacteristics>
                              <rate>
                                 <timebase>24</timebase>
                                 <ntsc>TRUE</ntsc>
                              </rate>
                              <width>2048</width>
                              <height>858</height>
                              <anamorphic>FALSE</anamorphic>
                              <pixelaspectratio>square</pixelaspectratio>
                              <fielddominance>none</fielddominance>
                           </samplecharacteristics>
                        </video>
                     </media>
                  </file>
                  <filter>
                     <effect>
                        <name>Basic Motion</name>
                        <effectid>basic</effectid>
                        <effectcategory>motion</effectcategory>
                        <effecttype>motion</effecttype>
                        <mediatype>video</mediatype>
                        <pproBypass>false</pproBypass>
                        <parameter authoringApp="PremierePro">
                           <parameterid>scale</parameterid>
                           <name>Scale</name>
                           <valuemin>0</valuemin>
                           <valuemax>1000</valuemax>
                           <value>93.75</value>
                        </parameter>
                        <parameter authoringApp="PremierePro">
                           <parameterid>rotation</parameterid>
                           <name>Rotation</name>
                           <valuemin>-8640</valuemin>
                           <valuemax>8640</valuemax>
                           <value>0</value>
                        </parameter>
                        <parameter authoringApp="PremierePro">
                           <parameterid>center</parameterid>
                           <name>Center</name>
                           <value>
                              <horiz>0</horiz>
                              <vert>0</vert>
                           </value>
                        </parameter>
                        <parameter authoringApp="PremierePro">
                           <parameterid>centerOffset</parameterid>
                           <name>Anchor Point</name>
                           <value>
                              <horiz>0</horiz>
                              <vert>0</vert>
                           </value>
                        </parameter>
                        <parameter authoringApp="PremierePro">
                           <parameterid>antiflicker</parameterid>
                           <name>Anti-flicker Filter</name>
                           <valuemin>0.0</valuemin>
                           <valuemax>1.0</valuemax>
                           <value>0</value>
                        </parameter>
                     </effect>
                  </filter>
                  <logginginfo>
                     <description />
                     <scene />
                     <shottake />
                     <lognote />
                     <good />
                     <originalvideofilename />
                     <originalaudiofilename />
                  </logginginfo>
                  <colorinfo>
                     <lut />
                     <lut1 />
                     <asc_sop />
                     <asc_sat />
                     <lut2 />
                  </colorinfo>
                  <labels>
                     <label2>Magenta</label2>
                  </labels>
               </clipitem>
               <clipitem id="clipitem-546">
                  <masterclipid>masterclip-300</masterclipid>
                  <name>mymovie.mov</name>
                  <enabled>FALSE</enabled>
                  <duration>168</duration>
                  <rate>
                     <timebase>24</timebase>
                     <ntsc>TRUE</ntsc>
                  </rate>
                  <start>2938</start>
                  <end>3058</end>
                  <in>24</in>
                  <out>144</out>
                  <pproTicksIn>254270016000</pproTicksIn>
                  <pproTicksOut>1525620096000</pproTicksOut>
                  <alphatype>none</alphatype>
                  <pixelaspectratio>square</pixelaspectratio>
                  <anamorphic>FALSE</anamorphic>
                  <file id="file-291">
                     <name>mymovie.mov</name>
                     <pathurl>file://localhost/Volumes/mydisk/mymovie.mov</pathurl>
                     <rate>
                        <timebase>24</timebase>
                        <ntsc>TRUE</ntsc>
                     </rate>
                     <duration>168</duration>
                     <timecode>
                        <rate>
                           <timebase>24</timebase>
                           <ntsc>TRUE</ntsc>
                        </rate>
                        <string>00:00:00:00</string>
                        <frame>0</frame>
                        <displayformat>NDF</displayformat>
                        <reel>
                           <name>reel_name</name>
                        </reel>
                     </timecode>
                     <media>
                        <video>
                           <samplecharacteristics>
                              <rate>
                                 <timebase>24</timebase>
                                 <ntsc>TRUE</ntsc>
                              </rate>
                              <width>2048</width>
                              <height>858</height>
                              <anamorphic>FALSE</anamorphic>
                              <pixelaspectratio>square</pixelaspectratio>
                              <fielddominance>none</fielddominance>
                           </samplecharacteristics>
                        </video>
                     </media>
                  </file>
                  <filter>
                     <effect>
                        <name>Basic Motion</name>
                        <effectid>basic</effectid>
                        <effectcategory>motion</effectcategory>
                        <effecttype>motion</effecttype>
                        <mediatype>video</mediatype>
                        <pproBypass>false</pproBypass>
                        <parameter authoringApp="PremierePro">
                           <parameterid>scale</parameterid>
                           <name>Scale</name>
                           <valuemin>0</valuemin>
                           <valuemax>1000</valuemax>
                           <value>93.75</value>
                        </parameter>
                        <parameter authoringApp="PremierePro">
                           <parameterid>rotation</parameterid>
                           <name>Rotation</name>
                           <valuemin>-8640</valuemin>
                           <valuemax>8640</valuemax>
                           <value>0</value>
                        </parameter>
                        <parameter authoringApp="PremierePro">
                           <parameterid>center</parameterid>
                           <name>Center</name>
                           <value>
                              <horiz>0</horiz>
                              <vert>0</vert>
                           </value>
                        </parameter>
                        <parameter authoringApp="PremierePro">
                           <parameterid>centerOffset</parameterid>
                           <name>Anchor Point</name>
                           <value>
                              <horiz>0</horiz>
                              <vert>0</vert>
                           </value>
                        </parameter>
                        <parameter authoringApp="PremierePro">
                           <parameterid>antiflicker</parameterid>
                           <name>Anti-flicker Filter</name>
                           <valuemin>0.0</valuemin>
                           <valuemax>1.0</valuemax>
                           <value>0</value>
                        </parameter>
                     </effect>
                  </filter>
                  <logginginfo>
                     <description />
                     <scene />
                     <shottake />
                     <lognote />
                     <good />
                     <originalvideofilename />
                     <originalaudiofilename />
                  </logginginfo>
                  <colorinfo>
                     <lut />
                     <lut1 />
                     <asc_sop />
                     <asc_sat />
                     <lut2 />
                  </colorinfo>
                  <labels>
                     <label2>Magenta</label2>
                  </labels>
               </clipitem>
               <clipitem id="clipitem-547">
                  <masterclipid>masterclip-301</masterclipid>
                  <name>mymovie.mov</name>
                  <enabled>FALSE</enabled>
                  <duration>297</duration>
                  <rate>
                     <timebase>24</timebase>
                     <ntsc>TRUE</ntsc>
                  </rate>
                  <start>3058</start>
                  <end>3307</end>
                  <in>24</in>
                  <out>273</out>
                  <pproTicksIn>254270016000</pproTicksIn>
                  <pproTicksOut>2892321432000</pproTicksOut>
                  <alphatype>none</alphatype>
                  <pixelaspectratio>square</pixelaspectratio>
                  <anamorphic>FALSE</anamorphic>
                  <file id="file-292">
                     <name>mymovie.mov</name>
                     <pathurl>file://localhost/Volumes/mydisk/mymovie.mov</pathurl>
                     <rate>
                        <timebase>24</timebase>
                        <ntsc>TRUE</ntsc>
                     </rate>
                     <duration>297</duration>
                     <timecode>
                        <rate>
                           <timebase>24</timebase>
                           <ntsc>TRUE</ntsc>
                        </rate>
                        <string>00:00:00:00</string>
                        <frame>0</frame>
                        <displayformat>NDF</displayformat>
                        <reel>
                           <name>reel_name</name>
                        </reel>
                     </timecode>
                     <media>
                        <video>
                           <samplecharacteristics>
                              <rate>
                                 <timebase>24</timebase>
                                 <ntsc>TRUE</ntsc>
                              </rate>
                              <width>2048</width>
                              <height>858</height>
                              <anamorphic>FALSE</anamorphic>
                              <pixelaspectratio>square</pixelaspectratio>
                              <fielddominance>none</fielddominance>
                           </samplecharacteristics>
                        </video>
                     </media>
                  </file>
                  <filter>
                     <effect>
                        <name>Basic Motion</name>
                        <effectid>basic</effectid>
                        <effectcategory>motion</effectcategory>
                        <effecttype>motion</effecttype>
                        <mediatype>video</mediatype>
                        <pproBypass>false</pproBypass>
                        <parameter authoringApp="PremierePro">
                           <parameterid>scale</parameterid>
                           <name>Scale</name>
                           <valuemin>0</valuemin>
                           <valuemax>1000</valuemax>
                           <value>93.75</value>
                        </parameter>
                        <parameter authoringApp="PremierePro">
                           <parameterid>rotation</parameterid>
                           <name>Rotation</name>
                           <valuemin>-8640</valuemin>
                           <valuemax>8640</valuemax>
                           <value>0</value>
                        </parameter>
                        <parameter authoringApp="PremierePro">
                           <parameterid>center</parameterid>
                           <name>Center</name>
                           <value>
                              <horiz>0</horiz>
                              <vert>0</vert>
                           </value>
                        </parameter>
                        <parameter authoringApp="PremierePro">
                           <parameterid>centerOffset</parameterid>
                           <name>Anchor Point</name>
                           <value>
                              <horiz>0</horiz>
                              <vert>0</vert>
                           </value>
                        </parameter>
                        <parameter authoringApp="PremierePro">
                           <parameterid>antiflicker</parameterid>
                           <name>Anti-flicker Filter</name>
                           <valuemin>0.0</valuemin>
                           <valuemax>1.0</valuemax>
                           <value>0</value>
                        </parameter>
                     </effect>
                  </filter>
                  <logginginfo>
                     <description />
                     <scene />
                     <shottake />
                     <lognote />
                     <good />
                     <originalvideofilename />
                     <originalaudiofilename />
                  </logginginfo>
                  <colorinfo>
                     <lut />
                     <lut1 />
                     <asc_sop />
                     <asc_sat />
                     <lut2 />
                  </colorinfo>
                  <labels>
                     <label2>Magenta</label2>
                  </labels>
               </clipitem>
               <enabled>TRUE</enabled>
               <locked>FALSE</locked>
            </track>
            <track TL.SQTrackShy="0" TL.SQTrackExpandedHeight="15" TL.SQTrackExpanded="0" MZ.TrackTargeted="1">
               <clipitem id="clipitem-548">
                  <masterclipid>masterclip-302</masterclipid>
                  <name>mymovie.mov</name>
                  <enabled>TRUE</enabled>
                  <duration>166</duration>
                  <rate>
                     <timebase>24</timebase>
                     <ntsc>TRUE</ntsc>
                  </rate>
                  <start>90</start>
                  <end>222</end>
                  <in>25</in>
                  <out>157</out>
                  <pproTicksIn>264864600000</pproTicksIn>
                  <pproTicksOut>1663349688000</pproTicksOut>
                  <alphatype>none</alphatype>
                  <pixelaspectratio>square</pixelaspectratio>
                  <anamorphic>FALSE</anamorphic>
                  <file id="file-293">
                     <name>mymovie.mov</name>
                     <pathurl>file://localhost/Volumes/mydisk/mymovie.mov</pathurl>
                     <rate>
                        <timebase>24</timebase>
                        <ntsc>TRUE</ntsc>
                     </rate>
                     <duration>166</duration>
                     <timecode>
                        <rate>
                           <timebase>24</timebase>
                           <ntsc>TRUE</ntsc>
                        </rate>
                        <string>16:24:12:19</string>
                        <frame>1417267</frame>
                        <displayformat>NDF</displayformat>
                     </timecode>
                     <media>
                        <video>
                           <samplecharacteristics>
                              <rate>
                                 <timebase>24</timebase>
                                 <ntsc>TRUE</ntsc>
                              </rate>
                              <width>2048</width>
                              <height>858</height>
                              <anamorphic>FALSE</anamorphic>
                              <pixelaspectratio>square</pixelaspectratio>
                              <fielddominance>none</fielddominance>
                           </samplecharacteristics>
                        </video>
                     </media>
                  </file>
                  <filter>
                     <effect>
                        <name>Basic Motion</name>
                        <effectid>basic</effectid>
                        <effectcategory>motion</effectcategory>
                        <effecttype>motion</effecttype>
                        <mediatype>video</mediatype>
                        <pproBypass>false</pproBypass>
                        <parameter authoringApp="PremierePro">
                           <parameterid>scale</parameterid>
                           <name>Scale</name>
                           <valuemin>0</valuemin>
                           <valuemax>1000</valuemax>
                           <value>93.75</value>
                        </parameter>
                        <parameter authoringApp="PremierePro">
                           <parameterid>rotation</parameterid>
                           <name>Rotation</name>
                           <valuemin>-8640</valuemin>
                           <valuemax>8640</valuemax>
                           <value>0</value>
                        </parameter>
                        <parameter authoringApp="PremierePro">
                           <parameterid>center</parameterid>
                           <name>Center</name>
                           <value>
                              <horiz>0</horiz>
                              <vert>0</vert>
                           </value>
                        </parameter>
                        <parameter authoringApp="PremierePro">
                           <parameterid>centerOffset</parameterid>
                           <name>Anchor Point</name>
                           <value>
                              <horiz>0</horiz>
                              <vert>0</vert>
                           </value>
                        </parameter>
                        <parameter authoringApp="PremierePro">
                           <parameterid>antiflicker</parameterid>
                           <name>Anti-flicker Filter</name>
                           <valuemin>0.0</valuemin>
                           <valuemax>1.0</valuemax>
                           <value>0</value>
                        </parameter>
                     </effect>
                  </filter>
                  <logginginfo>
                     <description />
                     <scene />
                     <shottake />
                     <lognote />
                     <good />
                     <originalvideofilename />
                     <originalaudiofilename />
                  </logginginfo>
                  <colorinfo>
                     <lut />
                     <lut1 />
                     <asc_sop />
                     <asc_sat />
                     <lut2 />
                  </colorinfo>
                  <labels>
                     <label2>Iris</label2>
                  </labels>
               </clipitem>
               <clipitem id="clipitem-549">
                  <masterclipid>masterclip-303</masterclipid>
                  <name>mymovie.mov</name>
                  <enabled>TRUE</enabled>
                  <duration>223</duration>
                  <rate>
                     <timebase>24</timebase>
                     <ntsc>TRUE</ntsc>
                  </rate>
                  <start>222</start>
                  <end>396</end>
                  <in>25</in>
                  <out>199</out>
                  <pproTicksIn>264864600000</pproTicksIn>
                  <pproTicksOut>2108322216000</pproTicksOut>
                  <alphatype>none</alphatype>
                  <pixelaspectratio>square</pixelaspectratio>
                  <anamorphic>FALSE</anamorphic>
                  <file id="file-294">
                     <name>mymovie.mov</name>
                     <pathurl>file://localhost/Volumes/mydisk/mymovie.mov</pathurl>
                     <rate>
                        <timebase>24</timebase>
                        <ntsc>TRUE</ntsc>
                     </rate>
                     <duration>223</duration>
                     <timecode>
                        <rate>
                           <timebase>24</timebase>
                           <ntsc>TRUE</ntsc>
                        </rate>
                        <string>15:31:36:05</string>
                        <frame>1341509</frame>
                        <displayformat>NDF</displayformat>
                     </timecode>
                     <media>
                        <video>
                           <samplecharacteristics>
                              <rate>
                                 <timebase>24</timebase>
                                 <ntsc>TRUE</ntsc>
                              </rate>
                              <width>2048</width>
                              <height>858</height>
                              <anamorphic>FALSE</anamorphic>
                              <pixelaspectratio>square</pixelaspectratio>
                              <fielddominance>none</fielddominance>
                           </samplecharacteristics>
                        </video>
                     </media>
                  </file>
                  <filter>
                     <effect>
                        <name>Basic Motion</name>
                        <effectid>basic</effectid>
                        <effectcategory>motion</effectcategory>
                        <effecttype>motion</effecttype>
                        <mediatype>video</mediatype>
                        <pproBypass>false</pproBypass>
                        <parameter authoringApp="PremierePro">
                           <parameterid>scale</parameterid>
                           <name>Scale</name>
                           <valuemin>0</valuemin>
                           <valuemax>1000</valuemax>
                           <value>93.75</value>
                        </parameter>
                        <parameter authoringApp="PremierePro">
                           <parameterid>rotation</parameterid>
                           <name>Rotation</name>
                           <valuemin>-8640</valuemin>
                           <valuemax>8640</valuemax>
                           <value>0</value>
                        </parameter>
                        <parameter authoringApp="PremierePro">
                           <parameterid>center</parameterid>
                           <name>Center</name>
                           <value>
                              <horiz>0</horiz>
                              <vert>0</vert>
                           </value>
                        </parameter>
                        <parameter authoringApp="PremierePro">
                           <parameterid>centerOffset</parameterid>
                           <name>Anchor Point</name>
                           <value>
                              <horiz>0</horiz>
                              <vert>0</vert>
                           </value>
                        </parameter>
                        <parameter authoringApp="PremierePro">
                           <parameterid>antiflicker</parameterid>
                           <name>Anti-flicker Filter</name>
                           <valuemin>0.0</valuemin>
                           <valuemax>1.0</valuemax>
                           <value>0</value>
                        </parameter>
                     </effect>
                  </filter>
                  <logginginfo>
                     <description />
                     <scene />
                     <shottake />
                     <lognote />
                     <good />
                     <originalvideofilename />
                     <originalaudiofilename />
                  </logginginfo>
                  <colorinfo>
                     <lut />
                     <lut1 />
                     <asc_sop />
                     <asc_sat />
                     <lut2 />
                  </colorinfo>
                  <labels>
                     <label2>Iris</label2>
                  </labels>
               </clipitem>
               <clipitem id="clipitem-550">
                  <masterclipid>masterclip-304</masterclipid>
                  <name>mymovie.mov</name>
                  <enabled>TRUE</enabled>
                  <duration>154</duration>
                  <rate>
                     <timebase>24</timebase>
                     <ntsc>TRUE</ntsc>
                  </rate>
                  <start>493</start>
                  <end>598</end>
                  <in>25</in>
                  <out>130</out>
                  <pproTicksIn>264864600000</pproTicksIn>
                  <pproTicksOut>1377295920000</pproTicksOut>
                  <alphatype>none</alphatype>
                  <pixelaspectratio>square</pixelaspectratio>
                  <anamorphic>FALSE</anamorphic>
                  <file id="file-295">
                     <name>mymovie.mov</name>
                     <pathurl>file://localhost/Volumes/mydisk/mymovie.mov</pathurl>
                     <rate>
                        <timebase>24</timebase>
                        <ntsc>TRUE</ntsc>
                     </rate>
                     <duration>154</duration>
                     <timecode>
                        <rate>
                           <timebase>24</timebase>
                           <ntsc>TRUE</ntsc>
                        </rate>
                        <string>16:52:04:11</string>
                        <frame>1457387</frame>
                        <displayformat>NDF</displayformat>
                     </timecode>
                     <media>
                        <video>
                           <samplecharacteristics>
                              <rate>
                                 <timebase>24</timebase>
                                 <ntsc>TRUE</ntsc>
                              </rate>
                              <width>2048</width>
                              <height>858</height>
                              <anamorphic>FALSE</anamorphic>
                              <pixelaspectratio>square</pixelaspectratio>
                              <fielddominance>none</fielddominance>
                           </samplecharacteristics>
                        </video>
                     </media>
                  </file>
                  <filter>
                     <effect>
                        <name>Basic Motion</name>
                        <effectid>basic</effectid>
                        <effectcategory>motion</effectcategory>
                        <effecttype>motion</effecttype>
                        <mediatype>video</mediatype>
                        <pproBypass>false</pproBypass>
                        <parameter authoringApp="PremierePro">
                           <parameterid>scale</parameterid>
                           <name>Scale</name>
                           <valuemin>0</valuemin>
                           <valuemax>1000</valuemax>
                           <value>93.75</value>
                        </parameter>
                        <parameter authoringApp="PremierePro">
                           <parameterid>rotation</parameterid>
                           <name>Rotation</name>
                           <valuemin>-8640</valuemin>
                           <valuemax>8640</valuemax>
                           <value>0</value>
                        </parameter>
                        <parameter authoringApp="PremierePro">
                           <parameterid>center</parameterid>
                           <name>Center</name>
                           <value>
                              <horiz>0</horiz>
                              <vert>0</vert>
                           </value>
                        </parameter>
                        <parameter authoringApp="PremierePro">
                           <parameterid>centerOffset</parameterid>
                           <name>Anchor Point</name>
                           <value>
                              <horiz>0</horiz>
                              <vert>0</vert>
                           </value>
                        </parameter>
                        <parameter authoringApp="PremierePro">
                           <parameterid>antiflicker</parameterid>
                           <name>Anti-flicker Filter</name>
                           <valuemin>0.0</valuemin>
                           <valuemax>1.0</valuemax>
                           <value>0</value>
                        </parameter>
                     </effect>
                  </filter>
                  <logginginfo>
                     <description />
                     <scene />
                     <shottake />
                     <lognote />
                     <good />
                     <originalvideofilename />
                     <originalaudiofilename />
                  </logginginfo>
                  <colorinfo>
                     <lut />
                     <lut1 />
                     <asc_sop />
                     <asc_sat />
                     <lut2 />
                  </colorinfo>
                  <labels>
                     <label2>Iris</label2>
                  </labels>
               </clipitem>
               <clipitem id="clipitem-551">
                  <masterclipid>masterclip-305</masterclipid>
                  <name>mymovie.mov</name>
                  <enabled>TRUE</enabled>
                  <duration>155</duration>
                  <rate>
                     <timebase>24</timebase>
                     <ntsc>TRUE</ntsc>
                  </rate>
                  <start>598</start>
                  <end>692</end>
                  <in>25</in>
                  <out>119</out>
                  <pproTicksIn>264864600000</pproTicksIn>
                  <pproTicksOut>1260755496000</pproTicksOut>
                  <alphatype>none</alphatype>
                  <pixelaspectratio>square</pixelaspectratio>
                  <anamorphic>FALSE</anamorphic>
                  <file id="file-296">
                     <name>mymovie.mov</name>
                     <pathurl>file://localhost/Volumes/mydisk/mymovie.mov</pathurl>
                     <rate>
                        <timebase>24</timebase>
                        <ntsc>TRUE</ntsc>
                     </rate>
                     <duration>155</duration>
                     <timecode>
                        <rate>
                           <timebase>24</timebase>
                           <ntsc>TRUE</ntsc>
                        </rate>
                        <string>16:52:20:08</string>
                        <frame>1457768</frame>
                        <displayformat>NDF</displayformat>
                     </timecode>
                     <media>
                        <video>
                           <samplecharacteristics>
                              <rate>
                                 <timebase>24</timebase>
                                 <ntsc>TRUE</ntsc>
                              </rate>
                              <width>2048</width>
                              <height>858</height>
                              <anamorphic>FALSE</anamorphic>
                              <pixelaspectratio>square</pixelaspectratio>
                              <fielddominance>none</fielddominance>
                           </samplecharacteristics>
                        </video>
                     </media>
                  </file>
                  <filter>
                     <effect>
                        <name>Basic Motion</name>
                        <effectid>basic</effectid>
                        <effectcategory>motion</effectcategory>
                        <effecttype>motion</effecttype>
                        <mediatype>video</mediatype>
                        <pproBypass>false</pproBypass>
                        <parameter authoringApp="PremierePro">
                           <parameterid>scale</parameterid>
                           <name>Scale</name>
                           <valuemin>0</valuemin>
                           <valuemax>1000</valuemax>
                           <value>93.75</value>
                        </parameter>
                        <parameter authoringApp="PremierePro">
                           <parameterid>rotation</parameterid>
                           <name>Rotation</name>
                           <valuemin>-8640</valuemin>
                           <valuemax>8640</valuemax>
                           <value>0</value>
                        </parameter>
                        <parameter authoringApp="PremierePro">
                           <parameterid>center</parameterid>
                           <name>Center</name>
                           <value>
                              <horiz>0</horiz>
                              <vert>0</vert>
                           </value>
                        </parameter>
                        <parameter authoringApp="PremierePro">
                           <parameterid>centerOffset</parameterid>
                           <name>Anchor Point</name>
                           <value>
                              <horiz>0</horiz>
                              <vert>0</vert>
                           </value>
                        </parameter>
                        <parameter authoringApp="PremierePro">
                           <parameterid>antiflicker</parameterid>
                           <name>Anti-flicker Filter</name>
                           <valuemin>0.0</valuemin>
                           <valuemax>1.0</valuemax>
                           <value>0</value>
                        </parameter>
                     </effect>
                  </filter>
                  <logginginfo>
                     <description />
                     <scene />
                     <shottake />
                     <lognote />
                     <good />
                     <originalvideofilename />
                     <originalaudiofilename />
                  </logginginfo>
                  <colorinfo>
                     <lut />
                     <lut1 />
                     <asc_sop />
                     <asc_sat />
                     <lut2 />
                  </colorinfo>
                  <labels>
                     <label2>Iris</label2>
                  </labels>
               </clipitem>
               <clipitem id="clipitem-552">
                  <masterclipid>masterclip-306</masterclipid>
                  <name>mymovie.mov</name>
                  <enabled>TRUE</enabled>
                  <duration>155</duration>
                  <rate>
                     <timebase>24</timebase>
                     <ntsc>TRUE</ntsc>
                  </rate>
                  <start>692</start>
                  <end>780</end>
                  <in>25</in>
                  <out>113</out>
                  <pproTicksIn>264864600000</pproTicksIn>
                  <pproTicksOut>1197187992000</pproTicksOut>
                  <alphatype>none</alphatype>
                  <pixelaspectratio>square</pixelaspectratio>
                  <anamorphic>FALSE</anamorphic>
                  <file id="file-297">
                     <name>mymovie.mov</name>
                     <pathurl>file://localhost/Volumes/mydisk/mymovie.mov</pathurl>
                     <rate>
                        <timebase>24</timebase>
                        <ntsc>TRUE</ntsc>
                     </rate>
                     <duration>155</duration>
                     <timecode>
                        <rate>
                           <timebase>24</timebase>
                           <ntsc>TRUE</ntsc>
                        </rate>
                        <string>15:36:55:12</string>
                        <frame>1349172</frame>
                        <displayformat>NDF</displayformat>
                     </timecode>
                     <media>
                        <video>
                           <samplecharacteristics>
                              <rate>
                                 <timebase>24</timebase>
                                 <ntsc>TRUE</ntsc>
                              </rate>
                              <width>2048</width>
                              <height>858</height>
                              <anamorphic>FALSE</anamorphic>
                              <pixelaspectratio>square</pixelaspectratio>
                              <fielddominance>none</fielddominance>
                           </samplecharacteristics>
                        </video>
                     </media>
                  </file>
                  <filter>
                     <effect>
                        <name>Basic Motion</name>
                        <effectid>basic</effectid>
                        <effectcategory>motion</effectcategory>
                        <effecttype>motion</effecttype>
                        <mediatype>video</mediatype>
                        <pproBypass>false</pproBypass>
                        <parameter authoringApp="PremierePro">
                           <parameterid>scale</parameterid>
                           <name>Scale</name>
                           <valuemin>0</valuemin>
                           <valuemax>1000</valuemax>
                           <value>93.75</value>
                        </parameter>
                        <parameter authoringApp="PremierePro">
                           <parameterid>rotation</parameterid>
                           <name>Rotation</name>
                           <valuemin>-8640</valuemin>
                           <valuemax>8640</valuemax>
                           <value>0</value>
                        </parameter>
                        <parameter authoringApp="PremierePro">
                           <parameterid>center</parameterid>
                           <name>Center</name>
                           <value>
                              <horiz>0</horiz>
                              <vert>0</vert>
                           </value>
                        </parameter>
                        <parameter authoringApp="PremierePro">
                           <parameterid>centerOffset</parameterid>
                           <name>Anchor Point</name>
                           <value>
                              <horiz>0</horiz>
                              <vert>0</vert>
                           </value>
                        </parameter>
                        <parameter authoringApp="PremierePro">
                           <parameterid>antiflicker</parameterid>
                           <name>Anti-flicker Filter</name>
                           <valuemin>0.0</valuemin>
                           <valuemax>1.0</valuemax>
                           <value>0</value>
                        </parameter>
                     </effect>
                  </filter>
                  <logginginfo>
                     <description />
                     <scene />
                     <shottake />
                     <lognote />
                     <good />
                     <originalvideofilename />
                     <originalaudiofilename />
                  </logginginfo>
                  <colorinfo>
                     <lut />
                     <lut1 />
                     <asc_sop />
                     <asc_sat />
                     <lut2 />
                  </colorinfo>
                  <labels>
                     <label2>Iris</label2>
                  </labels>
               </clipitem>
               <clipitem id="clipitem-553">
                  <masterclipid>masterclip-307</masterclipid>
                  <name>mymovie.mov</name>
                  <enabled>TRUE</enabled>
                  <duration>332</duration>
                  <rate>
                     <timebase>24</timebase>
                     <ntsc>TRUE</ntsc>
                  </rate>
                  <start>870</start>
                  <end>1135</end>
                  <in>25</in>
                  <out>290</out>
                  <pproTicksIn>264864600000</pproTicksIn>
                  <pproTicksOut>3072429360000</pproTicksOut>
                  <alphatype>none</alphatype>
                  <pixelaspectratio>square</pixelaspectratio>
                  <anamorphic>FALSE</anamorphic>
                  <file id="file-298">
                     <name>mymovie.mov</name>
                     <pathurl>file://localhost/Volumes/mydisk/mymovie.mov</pathurl>
                     <rate>
                        <timebase>24</timebase>
                        <ntsc>TRUE</ntsc>
                     </rate>
                     <duration>332</duration>
                     <timecode>
                        <rate>
                           <timebase>24</timebase>
                           <ntsc>TRUE</ntsc>
                        </rate>
                        <string>15:32:23:20</string>
                        <frame>1342652</frame>
                        <displayformat>NDF</displayformat>
                     </timecode>
                     <media>
                        <video>
                           <samplecharacteristics>
                              <rate>
                                 <timebase>24</timebase>
                                 <ntsc>TRUE</ntsc>
                              </rate>
                              <width>2048</width>
                              <height>858</height>
                              <anamorphic>FALSE</anamorphic>
                              <pixelaspectratio>square</pixelaspectratio>
                              <fielddominance>none</fielddominance>
                           </samplecharacteristics>
                        </video>
                     </media>
                  </file>
                  <filter>
                     <effect>
                        <name>Basic Motion</name>
                        <effectid>basic</effectid>
                        <effectcategory>motion</effectcategory>
                        <effecttype>motion</effecttype>
                        <mediatype>video</mediatype>
                        <pproBypass>false</pproBypass>
                        <parameter authoringApp="PremierePro">
                           <parameterid>scale</parameterid>
                           <name>Scale</name>
                           <valuemin>0</valuemin>
                           <valuemax>1000</valuemax>
                           <value>93.75</value>
                        </parameter>
                        <parameter authoringApp="PremierePro">
                           <parameterid>rotation</parameterid>
                           <name>Rotation</name>
                           <valuemin>-8640</valuemin>
                           <valuemax>8640</valuemax>
                           <value>0</value>
                        </parameter>
                        <parameter authoringApp="PremierePro">
                           <parameterid>center</parameterid>
                           <name>Center</name>
                           <value>
                              <horiz>0</horiz>
                              <vert>0</vert>
                           </value>
                        </parameter>
                        <parameter authoringApp="PremierePro">
                           <parameterid>centerOffset</parameterid>
                           <name>Anchor Point</name>
                           <value>
                              <horiz>0</horiz>
                              <vert>0</vert>
                           </value>
                        </parameter>
                        <parameter authoringApp="PremierePro">
                           <parameterid>antiflicker</parameterid>
                           <name>Anti-flicker Filter</name>
                           <valuemin>0.0</valuemin>
                           <valuemax>1.0</valuemax>
                           <value>0</value>
                        </parameter>
                     </effect>
                  </filter>
                  <logginginfo>
                     <description />
                     <scene />
                     <shottake />
                     <lognote />
                     <good />
                     <originalvideofilename />
                     <originalaudiofilename />
                  </logginginfo>
                  <colorinfo>
                     <lut />
                     <lut1 />
                     <asc_sop />
                     <asc_sat />
                     <lut2 />
                  </colorinfo>
                  <labels>
                     <label2>Iris</label2>
                  </labels>
               </clipitem>
               <clipitem id="clipitem-554">
                  <masterclipid>masterclip-308</masterclipid>
                  <name>mymovie.mov</name>
                  <enabled>FALSE</enabled>
                  <duration>142</duration>
                  <rate>
                     <timebase>24</timebase>
                     <ntsc>TRUE</ntsc>
                  </rate>
                  <start>1135</start>
                  <end>1229</end>
                  <in>24</in>
                  <out>118</out>
                  <pproTicksIn>254270016000</pproTicksIn>
                  <pproTicksOut>1250160912000</pproTicksOut>
                  <alphatype>none</alphatype>
                  <pixelaspectratio>square</pixelaspectratio>
                  <anamorphic>FALSE</anamorphic>
                  <file id="file-299">
                     <name>mymovie.mov</name>
                     <pathurl>file://localhost/Volumes/mydisk/mymovie.mov</pathurl>
                     <rate>
                        <timebase>24</timebase>
                        <ntsc>TRUE</ntsc>
                     </rate>
                     <duration>142</duration>
                     <timecode>
                        <rate>
                           <timebase>24</timebase>
                           <ntsc>TRUE</ntsc>
                        </rate>
                        <string>14:47:48:03</string>
                        <frame>1278435</frame>
                        <displayformat>NDF</displayformat>
                        <reel>
                           <name>reel_name</name>
                        </reel>
                     </timecode>
                     <media>
                        <video>
                           <samplecharacteristics>
                              <rate>
                                 <timebase>24</timebase>
                                 <ntsc>TRUE</ntsc>
                              </rate>
                              <width>2048</width>
                              <height>858</height>
                              <anamorphic>FALSE</anamorphic>
                              <pixelaspectratio>square</pixelaspectratio>
                              <fielddominance>none</fielddominance>
                           </samplecharacteristics>
                        </video>
                     </media>
                  </file>
                  <filter>
                     <effect>
                        <name>Basic Motion</name>
                        <effectid>basic</effectid>
                        <effectcategory>motion</effectcategory>
                        <effecttype>motion</effecttype>
                        <mediatype>video</mediatype>
                        <pproBypass>false</pproBypass>
                        <parameter authoringApp="PremierePro">
                           <parameterid>scale</parameterid>
                           <name>Scale</name>
                           <valuemin>0</valuemin>
                           <valuemax>1000</valuemax>
                           <value>93.75</value>
                        </parameter>
                        <parameter authoringApp="PremierePro">
                           <parameterid>rotation</parameterid>
                           <name>Rotation</name>
                           <valuemin>-8640</valuemin>
                           <valuemax>8640</valuemax>
                           <value>0</value>
                        </parameter>
                        <parameter authoringApp="PremierePro">
                           <parameterid>center</parameterid>
                           <name>Center</name>
                           <value>
                              <horiz>0</horiz>
                              <vert>0</vert>
                           </value>
                        </parameter>
                        <parameter authoringApp="PremierePro">
                           <parameterid>centerOffset</parameterid>
                           <name>Anchor Point</name>
                           <value>
                              <horiz>0</horiz>
                              <vert>0</vert>
                           </value>
                        </parameter>
                        <parameter authoringApp="PremierePro">
                           <parameterid>antiflicker</parameterid>
                           <name>Anti-flicker Filter</name>
                           <valuemin>0.0</valuemin>
                           <valuemax>1.0</valuemax>
                           <value>0</value>
                        </parameter>
                     </effect>
                  </filter>
                  <logginginfo>
                     <description />
                     <scene />
                     <shottake />
                     <lognote />
                     <good />
                     <originalvideofilename />
                     <originalaudiofilename />
                  </logginginfo>
                  <colorinfo>
                     <lut />
                     <lut1 />
                     <asc_sop />
                     <asc_sat />
                     <lut2 />
                  </colorinfo>
                  <labels>
                     <label2>Violet</label2>
                  </labels>
               </clipitem>
               <clipitem id="clipitem-555">
                  <masterclipid>masterclip-309</masterclipid>
                  <name>mymovie.mov</name>
                  <enabled>TRUE</enabled>
                  <duration>204</duration>
                  <rate>
                     <timebase>24</timebase>
                     <ntsc>TRUE</ntsc>
                  </rate>
                  <start>1229</start>
                  <end>1357</end>
                  <in>52</in>
                  <out>180</out>
                  <pproTicksIn>550918368000</pproTicksIn>
                  <pproTicksOut>1907025120000</pproTicksOut>
                  <alphatype>none</alphatype>
                  <pixelaspectratio>square</pixelaspectratio>
                  <anamorphic>FALSE</anamorphic>
                  <file id="file-300">
                     <name>mymovie.mov</name>
                     <pathurl>file://localhost/Volumes/mydisk/mymovie.mov</pathurl>
                     <rate>
                        <timebase>24</timebase>
                        <ntsc>TRUE</ntsc>
                     </rate>
                     <duration>204</duration>
                     <timecode>
                        <rate>
                           <timebase>24</timebase>
                           <ntsc>TRUE</ntsc>
                        </rate>
                        <string>16:42:39:11</string>
                        <frame>1443827</frame>
                        <displayformat>NDF</displayformat>
                     </timecode>
                     <media>
                        <video>
                           <samplecharacteristics>
                              <rate>
                                 <timebase>24</timebase>
                                 <ntsc>TRUE</ntsc>
                              </rate>
                              <width>2048</width>
                              <height>858</height>
                              <anamorphic>FALSE</anamorphic>
                              <pixelaspectratio>square</pixelaspectratio>
                              <fielddominance>none</fielddominance>
                           </samplecharacteristics>
                        </video>
                     </media>
                  </file>
                  <filter>
                     <effect>
                        <name>Basic Motion</name>
                        <effectid>basic</effectid>
                        <effectcategory>motion</effectcategory>
                        <effecttype>motion</effecttype>
                        <mediatype>video</mediatype>
                        <pproBypass>false</pproBypass>
                        <parameter authoringApp="PremierePro">
                           <parameterid>scale</parameterid>
                           <name>Scale</name>
                           <valuemin>0</valuemin>
                           <valuemax>1000</valuemax>
                           <value>93.75</value>
                        </parameter>
                        <parameter authoringApp="PremierePro">
                           <parameterid>rotation</parameterid>
                           <name>Rotation</name>
                           <valuemin>-8640</valuemin>
                           <valuemax>8640</valuemax>
                           <value>0</value>
                        </parameter>
                        <parameter authoringApp="PremierePro">
                           <parameterid>center</parameterid>
                           <name>Center</name>
                           <value>
                              <horiz>0</horiz>
                              <vert>0</vert>
                           </value>
                        </parameter>
                        <parameter authoringApp="PremierePro">
                           <parameterid>centerOffset</parameterid>
                           <name>Anchor Point</name>
                           <value>
                              <horiz>0</horiz>
                              <vert>0</vert>
                           </value>
                        </parameter>
                        <parameter authoringApp="PremierePro">
                           <parameterid>antiflicker</parameterid>
                           <name>Anti-flicker Filter</name>
                           <valuemin>0.0</valuemin>
                           <valuemax>1.0</valuemax>
                           <value>0</value>
                        </parameter>
                     </effect>
                  </filter>
                  <logginginfo>
                     <description />
                     <scene />
                     <shottake />
                     <lognote />
                     <good />
                     <originalvideofilename />
                     <originalaudiofilename />
                  </logginginfo>
                  <colorinfo>
                     <lut />
                     <lut1 />
                     <asc_sop />
                     <asc_sat />
                     <lut2 />
                  </colorinfo>
                  <labels>
                     <label2>Iris</label2>
                  </labels>
               </clipitem>
               <clipitem id="clipitem-556">
                  <masterclipid>masterclip-310</masterclipid>
                  <name>mymovie.mov</name>
                  <enabled>TRUE</enabled>
                  <duration>100</duration>
                  <rate>
                     <timebase>24</timebase>
                     <ntsc>TRUE</ntsc>
                  </rate>
                  <start>1357</start>
                  <end>1408</end>
                  <in>25</in>
                  <out>76</out>
                  <pproTicksIn>264864600000</pproTicksIn>
                  <pproTicksOut>805188384000</pproTicksOut>
                  <alphatype>none</alphatype>
                  <pixelaspectratio>square</pixelaspectratio>
                  <anamorphic>FALSE</anamorphic>
                  <file id="file-301">
                     <name>mymovie.mov</name>
                     <pathurl>file://localhost/Volumes/mydisk/mymovie.mov</pathurl>
                     <rate>
                        <timebase>24</timebase>
                        <ntsc>TRUE</ntsc>
                     </rate>
                     <duration>100</duration>
                     <timecode>
                        <rate>
                           <timebase>24</timebase>
                           <ntsc>TRUE</ntsc>
                        </rate>
                        <string>15:38:14:04</string>
                        <frame>1351060</frame>
                        <displayformat>NDF</displayformat>
                     </timecode>
                     <media>
                        <video>
                           <samplecharacteristics>
                              <rate>
                                 <timebase>24</timebase>
                                 <ntsc>TRUE</ntsc>
                              </rate>
                              <width>2048</width>
                              <height>858</height>
                              <anamorphic>FALSE</anamorphic>
                              <pixelaspectratio>square</pixelaspectratio>
                              <fielddominance>none</fielddominance>
                           </samplecharacteristics>
                        </video>
                     </media>
                  </file>
                  <filter>
                     <effect>
                        <name>Basic Motion</name>
                        <effectid>basic</effectid>
                        <effectcategory>motion</effectcategory>
                        <effecttype>motion</effecttype>
                        <mediatype>video</mediatype>
                        <pproBypass>false</pproBypass>
                        <parameter authoringApp="PremierePro">
                           <parameterid>scale</parameterid>
                           <name>Scale</name>
                           <valuemin>0</valuemin>
                           <valuemax>1000</valuemax>
                           <value>93.75</value>
                        </parameter>
                        <parameter authoringApp="PremierePro">
                           <parameterid>rotation</parameterid>
                           <name>Rotation</name>
                           <valuemin>-8640</valuemin>
                           <valuemax>8640</valuemax>
                           <value>0</value>
                        </parameter>
                        <parameter authoringApp="PremierePro">
                           <parameterid>center</parameterid>
                           <name>Center</name>
                           <value>
                              <horiz>0</horiz>
                              <vert>0</vert>
                           </value>
                        </parameter>
                        <parameter authoringApp="PremierePro">
                           <parameterid>centerOffset</parameterid>
                           <name>Anchor Point</name>
                           <value>
                              <horiz>0</horiz>
                              <vert>0</vert>
                           </value>
                        </parameter>
                        <parameter authoringApp="PremierePro">
                           <parameterid>antiflicker</parameterid>
                           <name>Anti-flicker Filter</name>
                           <valuemin>0.0</valuemin>
                           <valuemax>1.0</valuemax>
                           <value>0</value>
                        </parameter>
                     </effect>
                  </filter>
                  <logginginfo>
                     <description />
                     <scene />
                     <shottake />
                     <lognote />
                     <good />
                     <originalvideofilename />
                     <originalaudiofilename />
                  </logginginfo>
                  <colorinfo>
                     <lut />
                     <lut1 />
                     <asc_sop />
                     <asc_sat />
                     <lut2 />
                  </colorinfo>
                  <labels>
                     <label2>Iris</label2>
                  </labels>
               </clipitem>
               <clipitem id="clipitem-557">
                  <masterclipid>masterclip-311</masterclipid>
                  <name>mymovie.mov</name>
                  <enabled>TRUE</enabled>
                  <duration>123</duration>
                  <rate>
                     <timebase>24</timebase>
                     <ntsc>TRUE</ntsc>
                  </rate>
                  <start>1408</start>
                  <end>1482</end>
                  <in>25</in>
                  <out>99</out>
                  <pproTicksIn>264864600000</pproTicksIn>
                  <pproTicksOut>1048863816000</pproTicksOut>
                  <alphatype>none</alphatype>
                  <pixelaspectratio>square</pixelaspectratio>
                  <anamorphic>FALSE</anamorphic>
                  <file id="file-302">
                     <name>mymovie.mov</name>
                     <pathurl>file://localhost/Volumes/mydisk/mymovie.mov</pathurl>
                     <rate>
                        <timebase>24</timebase>
                        <ntsc>TRUE</ntsc>
                     </rate>
                     <duration>123</duration>
                     <timecode>
                        <rate>
                           <timebase>24</timebase>
                           <ntsc>TRUE</ntsc>
                        </rate>
                        <string>13:59:26:08</string>
                        <frame>1208792</frame>
                        <displayformat>NDF</displayformat>
                     </timecode>
                     <media>
                        <video>
                           <samplecharacteristics>
                              <rate>
                                 <timebase>24</timebase>
                                 <ntsc>TRUE</ntsc>
                              </rate>
                              <width>2048</width>
                              <height>858</height>
                              <anamorphic>FALSE</anamorphic>
                              <pixelaspectratio>square</pixelaspectratio>
                              <fielddominance>none</fielddominance>
                           </samplecharacteristics>
                        </video>
                     </media>
                  </file>
                  <filter>
                     <effect>
                        <name>Basic Motion</name>
                        <effectid>basic</effectid>
                        <effectcategory>motion</effectcategory>
                        <effecttype>motion</effecttype>
                        <mediatype>video</mediatype>
                        <pproBypass>false</pproBypass>
                        <parameter authoringApp="PremierePro">
                           <parameterid>scale</parameterid>
                           <name>Scale</name>
                           <valuemin>0</valuemin>
                           <valuemax>1000</valuemax>
                           <value>93.75</value>
                        </parameter>
                        <parameter authoringApp="PremierePro">
                           <parameterid>rotation</parameterid>
                           <name>Rotation</name>
                           <valuemin>-8640</valuemin>
                           <valuemax>8640</valuemax>
                           <value>0</value>
                        </parameter>
                        <parameter authoringApp="PremierePro">
                           <parameterid>center</parameterid>
                           <name>Center</name>
                           <value>
                              <horiz>0</horiz>
                              <vert>0</vert>
                           </value>
                        </parameter>
                        <parameter authoringApp="PremierePro">
                           <parameterid>centerOffset</parameterid>
                           <name>Anchor Point</name>
                           <value>
                              <horiz>0</horiz>
                              <vert>0</vert>
                           </value>
                        </parameter>
                        <parameter authoringApp="PremierePro">
                           <parameterid>antiflicker</parameterid>
                           <name>Anti-flicker Filter</name>
                           <valuemin>0.0</valuemin>
                           <valuemax>1.0</valuemax>
                           <value>0</value>
                        </parameter>
                     </effect>
                  </filter>
                  <logginginfo>
                     <description />
                     <scene />
                     <shottake />
                     <lognote />
                     <good />
                     <originalvideofilename />
                     <originalaudiofilename />
                  </logginginfo>
                  <colorinfo>
                     <lut />
                     <lut1 />
                     <asc_sop />
                     <asc_sat />
                     <lut2 />
                  </colorinfo>
                  <labels>
                     <label2>Iris</label2>
                  </labels>
               </clipitem>
               <clipitem id="clipitem-558">
                  <masterclipid>masterclip-312</masterclipid>
                  <name>mymovie.mov</name>
                  <enabled>TRUE</enabled>
                  <duration>104</duration>
                  <rate>
                     <timebase>24</timebase>
                     <ntsc>TRUE</ntsc>
                  </rate>
                  <start>1482</start>
                  <end>1537</end>
                  <in>25</in>
                  <out>80</out>
                  <pproTicksIn>264864600000</pproTicksIn>
                  <pproTicksOut>847566720000</pproTicksOut>
                  <alphatype>none</alphatype>
                  <pixelaspectratio>square</pixelaspectratio>
                  <anamorphic>FALSE</anamorphic>
                  <file id="file-303">
                     <name>mymovie.mov</name>
                     <pathurl>file://localhost/Volumes/mydisk/mymovie.mov</pathurl>
                     <rate>
                        <timebase>24</timebase>
                        <ntsc>TRUE</ntsc>
                     </rate>
                     <duration>104</duration>
                     <timecode>
                        <rate>
                           <timebase>24</timebase>
                           <ntsc>TRUE</ntsc>
                        </rate>
                        <string>14:48:14:05</string>
                        <frame>1279061</frame>
                        <displayformat>NDF</displayformat>
                     </timecode>
                     <media>
                        <video>
                           <samplecharacteristics>
                              <rate>
                                 <timebase>24</timebase>
                                 <ntsc>TRUE</ntsc>
                              </rate>
                              <width>2048</width>
                              <height>858</height>
                              <anamorphic>FALSE</anamorphic>
                              <pixelaspectratio>square</pixelaspectratio>
                              <fielddominance>none</fielddominance>
                           </samplecharacteristics>
                        </video>
                     </media>
                  </file>
                  <filter>
                     <effect>
                        <name>Basic Motion</name>
                        <effectid>basic</effectid>
                        <effectcategory>motion</effectcategory>
                        <effecttype>motion</effecttype>
                        <mediatype>video</mediatype>
                        <pproBypass>false</pproBypass>
                        <parameter authoringApp="PremierePro">
                           <parameterid>scale</parameterid>
                           <name>Scale</name>
                           <valuemin>0</valuemin>
                           <valuemax>1000</valuemax>
                           <value>93.75</value>
                        </parameter>
                        <parameter authoringApp="PremierePro">
                           <parameterid>rotation</parameterid>
                           <name>Rotation</name>
                           <valuemin>-8640</valuemin>
                           <valuemax>8640</valuemax>
                           <value>0</value>
                        </parameter>
                        <parameter authoringApp="PremierePro">
                           <parameterid>center</parameterid>
                           <name>Center</name>
                           <value>
                              <horiz>0</horiz>
                              <vert>0</vert>
                           </value>
                        </parameter>
                        <parameter authoringApp="PremierePro">
                           <parameterid>centerOffset</parameterid>
                           <name>Anchor Point</name>
                           <value>
                              <horiz>0</horiz>
                              <vert>0</vert>
                           </value>
                        </parameter>
                        <parameter authoringApp="PremierePro">
                           <parameterid>antiflicker</parameterid>
                           <name>Anti-flicker Filter</name>
                           <valuemin>0.0</valuemin>
                           <valuemax>1.0</valuemax>
                           <value>0</value>
                        </parameter>
                     </effect>
                  </filter>
                  <logginginfo>
                     <description />
                     <scene />
                     <shottake />
                     <lognote />
                     <good />
                     <originalvideofilename />
                     <originalaudiofilename />
                  </logginginfo>
                  <colorinfo>
                     <lut />
                     <lut1 />
                     <asc_sop />
                     <asc_sat />
                     <lut2 />
                  </colorinfo>
                  <labels>
                     <label2>Iris</label2>
                  </labels>
               </clipitem>
               <clipitem id="clipitem-559">
                  <masterclipid>masterclip-313</masterclipid>
                  <name>mymovie.mov</name>
                  <enabled>TRUE</enabled>
                  <duration>187</duration>
                  <rate>
                     <timebase>24</timebase>
                     <ntsc>TRUE</ntsc>
                  </rate>
                  <start>1537</start>
                  <end>1675</end>
                  <in>25</in>
                  <out>163</out>
                  <pproTicksIn>264864600000</pproTicksIn>
                  <pproTicksOut>1726917192000</pproTicksOut>
                  <alphatype>none</alphatype>
                  <pixelaspectratio>square</pixelaspectratio>
                  <anamorphic>FALSE</anamorphic>
                  <file id="file-304">
                     <name>mymovie.mov</name>
                     <pathurl>file://localhost/Volumes/mydisk/mymovie.mov</pathurl>
                     <rate>
                        <timebase>24</timebase>
                        <ntsc>TRUE</ntsc>
                     </rate>
                     <duration>187</duration>
                     <timecode>
                        <rate>
                           <timebase>24</timebase>
                           <ntsc>TRUE</ntsc>
                        </rate>
                        <string>13:59:31:22</string>
                        <frame>1208926</frame>
                        <displayformat>NDF</displayformat>
                     </timecode>
                     <media>
                        <video>
                           <samplecharacteristics>
                              <rate>
                                 <timebase>24</timebase>
                                 <ntsc>TRUE</ntsc>
                              </rate>
                              <width>2048</width>
                              <height>858</height>
                              <anamorphic>FALSE</anamorphic>
                              <pixelaspectratio>square</pixelaspectratio>
                              <fielddominance>none</fielddominance>
                           </samplecharacteristics>
                        </video>
                     </media>
                  </file>
                  <filter>
                     <effect>
                        <name>Basic Motion</name>
                        <effectid>basic</effectid>
                        <effectcategory>motion</effectcategory>
                        <effecttype>motion</effecttype>
                        <mediatype>video</mediatype>
                        <pproBypass>false</pproBypass>
                        <parameter authoringApp="PremierePro">
                           <parameterid>scale</parameterid>
                           <name>Scale</name>
                           <valuemin>0</valuemin>
                           <valuemax>1000</valuemax>
                           <value>93.75</value>
                        </parameter>
                        <parameter authoringApp="PremierePro">
                           <parameterid>rotation</parameterid>
                           <name>Rotation</name>
                           <valuemin>-8640</valuemin>
                           <valuemax>8640</valuemax>
                           <value>0</value>
                        </parameter>
                        <parameter authoringApp="PremierePro">
                           <parameterid>center</parameterid>
                           <name>Center</name>
                           <value>
                              <horiz>0</horiz>
                              <vert>0</vert>
                           </value>
                        </parameter>
                        <parameter authoringApp="PremierePro">
                           <parameterid>centerOffset</parameterid>
                           <name>Anchor Point</name>
                           <value>
                              <horiz>0</horiz>
                              <vert>0</vert>
                           </value>
                        </parameter>
                        <parameter authoringApp="PremierePro">
                           <parameterid>antiflicker</parameterid>
                           <name>Anti-flicker Filter</name>
                           <valuemin>0.0</valuemin>
                           <valuemax>1.0</valuemax>
                           <value>0</value>
                        </parameter>
                     </effect>
                  </filter>
                  <logginginfo>
                     <description />
                     <scene />
                     <shottake />
                     <lognote />
                     <good />
                     <originalvideofilename />
                     <originalaudiofilename />
                  </logginginfo>
                  <colorinfo>
                     <lut />
                     <lut1 />
                     <asc_sop />
                     <asc_sat />
                     <lut2 />
                  </colorinfo>
                  <labels>
                     <label2>Iris</label2>
                  </labels>
               </clipitem>
               <clipitem id="clipitem-560">
                  <masterclipid>masterclip-314</masterclipid>
                  <name>mymovie.mov</name>
                  <enabled>TRUE</enabled>
                  <duration>108</duration>
                  <rate>
                     <timebase>24</timebase>
                     <ntsc>TRUE</ntsc>
                  </rate>
                  <start>1675</start>
                  <end>1734</end>
                  <in>25</in>
                  <out>84</out>
                  <pproTicksIn>264864600000</pproTicksIn>
                  <pproTicksOut>889945056000</pproTicksOut>
                  <alphatype>none</alphatype>
                  <pixelaspectratio>square</pixelaspectratio>
                  <anamorphic>FALSE</anamorphic>
                  <file id="file-305">
                     <name>mymovie.mov</name>
                     <pathurl>file://localhost/Volumes/mydisk/mymovie.mov</pathurl>
                     <rate>
                        <timebase>24</timebase>
                        <ntsc>TRUE</ntsc>
                     </rate>
                     <duration>108</duration>
                     <timecode>
                        <rate>
                           <timebase>24</timebase>
                           <ntsc>TRUE</ntsc>
                        </rate>
                        <string>14:48:27:01</string>
                        <frame>1279369</frame>
                        <displayformat>NDF</displayformat>
                     </timecode>
                     <media>
                        <video>
                           <samplecharacteristics>
                              <rate>
                                 <timebase>24</timebase>
                                 <ntsc>TRUE</ntsc>
                              </rate>
                              <width>2048</width>
                              <height>858</height>
                              <anamorphic>FALSE</anamorphic>
                              <pixelaspectratio>square</pixelaspectratio>
                              <fielddominance>none</fielddominance>
                           </samplecharacteristics>
                        </video>
                     </media>
                  </file>
                  <filter>
                     <effect>
                        <name>Basic Motion</name>
                        <effectid>basic</effectid>
                        <effectcategory>motion</effectcategory>
                        <effecttype>motion</effecttype>
                        <mediatype>video</mediatype>
                        <pproBypass>false</pproBypass>
                        <parameter authoringApp="PremierePro">
                           <parameterid>scale</parameterid>
                           <name>Scale</name>
                           <valuemin>0</valuemin>
                           <valuemax>1000</valuemax>
                           <value>93.75</value>
                        </parameter>
                        <parameter authoringApp="PremierePro">
                           <parameterid>rotation</parameterid>
                           <name>Rotation</name>
                           <valuemin>-8640</valuemin>
                           <valuemax>8640</valuemax>
                           <value>0</value>
                        </parameter>
                        <parameter authoringApp="PremierePro">
                           <parameterid>center</parameterid>
                           <name>Center</name>
                           <value>
                              <horiz>0</horiz>
                              <vert>0</vert>
                           </value>
                        </parameter>
                        <parameter authoringApp="PremierePro">
                           <parameterid>centerOffset</parameterid>
                           <name>Anchor Point</name>
                           <value>
                              <horiz>0</horiz>
                              <vert>0</vert>
                           </value>
                        </parameter>
                        <parameter authoringApp="PremierePro">
                           <parameterid>antiflicker</parameterid>
                           <name>Anti-flicker Filter</name>
                           <valuemin>0.0</valuemin>
                           <valuemax>1.0</valuemax>
                           <value>0</value>
                        </parameter>
                     </effect>
                  </filter>
                  <logginginfo>
                     <description />
                     <scene />
                     <shottake />
                     <lognote />
                     <good />
                     <originalvideofilename />
                     <originalaudiofilename />
                  </logginginfo>
                  <colorinfo>
                     <lut />
                     <lut1 />
                     <asc_sop />
                     <asc_sat />
                     <lut2 />
                  </colorinfo>
                  <labels>
                     <label2>Iris</label2>
                  </labels>
               </clipitem>
               <clipitem id="clipitem-561">
                  <masterclipid>masterclip-315</masterclipid>
                  <name>mymovie.mov</name>
                  <enabled>TRUE</enabled>
                  <duration>117</duration>
                  <rate>
                     <timebase>24</timebase>
                     <ntsc>TRUE</ntsc>
                  </rate>
                  <start>1734</start>
                  <end>1802</end>
                  <in>25</in>
                  <out>93</out>
                  <pproTicksIn>264864600000</pproTicksIn>
                  <pproTicksOut>985296312000</pproTicksOut>
                  <alphatype>none</alphatype>
                  <pixelaspectratio>square</pixelaspectratio>
                  <anamorphic>FALSE</anamorphic>
                  <file id="file-306">
                     <name>mymovie.mov</name>
                     <pathurl>file://localhost/Volumes/mydisk/mymovie.mov</pathurl>
                     <rate>
                        <timebase>24</timebase>
                        <ntsc>TRUE</ntsc>
                     </rate>
                     <duration>117</duration>
                     <timecode>
                        <rate>
                           <timebase>24</timebase>
                           <ntsc>TRUE</ntsc>
                        </rate>
                        <string>13:59:36:23</string>
                        <frame>1209047</frame>
                        <displayformat>NDF</displayformat>
                     </timecode>
                     <media>
                        <video>
                           <samplecharacteristics>
                              <rate>
                                 <timebase>24</timebase>
                                 <ntsc>TRUE</ntsc>
                              </rate>
                              <width>2048</width>
                              <height>858</height>
                              <anamorphic>FALSE</anamorphic>
                              <pixelaspectratio>square</pixelaspectratio>
                              <fielddominance>none</fielddominance>
                           </samplecharacteristics>
                        </video>
                     </media>
                  </file>
                  <filter>
                     <effect>
                        <name>Basic Motion</name>
                        <effectid>basic</effectid>
                        <effectcategory>motion</effectcategory>
                        <effecttype>motion</effecttype>
                        <mediatype>video</mediatype>
                        <pproBypass>false</pproBypass>
                        <parameter authoringApp="PremierePro">
                           <parameterid>scale</parameterid>
                           <name>Scale</name>
                           <valuemin>0</valuemin>
                           <valuemax>1000</valuemax>
                           <value>93.75</value>
                        </parameter>
                        <parameter authoringApp="PremierePro">
                           <parameterid>rotation</parameterid>
                           <name>Rotation</name>
                           <valuemin>-8640</valuemin>
                           <valuemax>8640</valuemax>
                           <value>0</value>
                        </parameter>
                        <parameter authoringApp="PremierePro">
                           <parameterid>center</parameterid>
                           <name>Center</name>
                           <value>
                              <horiz>0</horiz>
                              <vert>0</vert>
                           </value>
                        </parameter>
                        <parameter authoringApp="PremierePro">
                           <parameterid>centerOffset</parameterid>
                           <name>Anchor Point</name>
                           <value>
                              <horiz>0</horiz>
                              <vert>0</vert>
                           </value>
                        </parameter>
                        <parameter authoringApp="PremierePro">
                           <parameterid>antiflicker</parameterid>
                           <name>Anti-flicker Filter</name>
                           <valuemin>0.0</valuemin>
                           <valuemax>1.0</valuemax>
                           <value>0</value>
                        </parameter>
                     </effect>
                  </filter>
                  <logginginfo>
                     <description />
                     <scene />
                     <shottake />
                     <lognote />
                     <good />
                     <originalvideofilename />
                     <originalaudiofilename />
                  </logginginfo>
                  <colorinfo>
                     <lut />
                     <lut1 />
                     <asc_sop />
                     <asc_sat />
                     <lut2 />
                  </colorinfo>
                  <labels>
                     <label2>Iris</label2>
                  </labels>
               </clipitem>
               <clipitem id="clipitem-562">
                  <masterclipid>masterclip-316</masterclipid>
                  <name>mymovie.mov</name>
                  <enabled>TRUE</enabled>
                  <duration>162</duration>
                  <rate>
                     <timebase>24</timebase>
                     <ntsc>TRUE</ntsc>
                  </rate>
                  <start>1862</start>
                  <end>1975</end>
                  <in>25</in>
                  <out>138</out>
                  <pproTicksIn>264864600000</pproTicksIn>
                  <pproTicksOut>1462052592000</pproTicksOut>
                  <alphatype>none</alphatype>
                  <pixelaspectratio>square</pixelaspectratio>
                  <anamorphic>FALSE</anamorphic>
                  <file id="file-307">
                     <name>mymovie.mov</name>
                     <pathurl>file://localhost/Volumes/mydisk/mymovie.mov</pathurl>
                     <rate>
                        <timebase>24</timebase>
                        <ntsc>TRUE</ntsc>
                     </rate>
                     <duration>162</duration>
                     <timecode>
                        <rate>
                           <timebase>24</timebase>
                           <ntsc>TRUE</ntsc>
                        </rate>
                        <string>13:50:12:00</string>
                        <frame>1195488</frame>
                        <displayformat>NDF</displayformat>
                     </timecode>
                     <media>
                        <video>
                           <samplecharacteristics>
                              <rate>
                                 <timebase>24</timebase>
                                 <ntsc>TRUE</ntsc>
                              </rate>
                              <width>2048</width>
                              <height>858</height>
                              <anamorphic>FALSE</anamorphic>
                              <pixelaspectratio>square</pixelaspectratio>
                              <fielddominance>none</fielddominance>
                           </samplecharacteristics>
                        </video>
                     </media>
                  </file>
                  <filter>
                     <effect>
                        <name>Basic Motion</name>
                        <effectid>basic</effectid>
                        <effectcategory>motion</effectcategory>
                        <effecttype>motion</effecttype>
                        <mediatype>video</mediatype>
                        <pproBypass>false</pproBypass>
                        <parameter authoringApp="PremierePro">
                           <parameterid>scale</parameterid>
                           <name>Scale</name>
                           <valuemin>0</valuemin>
                           <valuemax>1000</valuemax>
                           <value>93.75</value>
                        </parameter>
                        <parameter authoringApp="PremierePro">
                           <parameterid>rotation</parameterid>
                           <name>Rotation</name>
                           <valuemin>-8640</valuemin>
                           <valuemax>8640</valuemax>
                           <value>0</value>
                        </parameter>
                        <parameter authoringApp="PremierePro">
                           <parameterid>center</parameterid>
                           <name>Center</name>
                           <value>
                              <horiz>0</horiz>
                              <vert>0</vert>
                           </value>
                        </parameter>
                        <parameter authoringApp="PremierePro">
                           <parameterid>centerOffset</parameterid>
                           <name>Anchor Point</name>
                           <value>
                              <horiz>0</horiz>
                              <vert>0</vert>
                           </value>
                        </parameter>
                        <parameter authoringApp="PremierePro">
                           <parameterid>antiflicker</parameterid>
                           <name>Anti-flicker Filter</name>
                           <valuemin>0.0</valuemin>
                           <valuemax>1.0</valuemax>
                           <value>0</value>
                        </parameter>
                     </effect>
                  </filter>
                  <logginginfo>
                     <description />
                     <scene />
                     <shottake />
                     <lognote />
                     <good />
                     <originalvideofilename />
                     <originalaudiofilename />
                  </logginginfo>
                  <colorinfo>
                     <lut />
                     <lut1 />
                     <asc_sop />
                     <asc_sat />
                     <lut2 />
                  </colorinfo>
                  <labels>
                     <label2>Iris</label2>
                  </labels>
               </clipitem>
               <clipitem id="clipitem-563">
                  <masterclipid>masterclip-317</masterclipid>
                  <name>mymovie.mov</name>
                  <enabled>TRUE</enabled>
                  <duration>120</duration>
                  <rate>
                     <timebase>24</timebase>
                     <ntsc>TRUE</ntsc>
                  </rate>
                  <start>1975</start>
                  <end>2046</end>
                  <in>25</in>
                  <out>96</out>
                  <pproTicksIn>264864600000</pproTicksIn>
                  <pproTicksOut>1017080064000</pproTicksOut>
                  <alphatype>none</alphatype>
                  <pixelaspectratio>square</pixelaspectratio>
                  <anamorphic>FALSE</anamorphic>
                  <file id="file-308">
                     <name>mymovie.mov</name>
                     <pathurl>file://localhost/Volumes/mydisk/mymovie.mov</pathurl>
                     <rate>
                        <timebase>24</timebase>
                        <ntsc>TRUE</ntsc>
                     </rate>
                     <duration>120</duration>
                     <timecode>
                        <rate>
                           <timebase>24</timebase>
                           <ntsc>TRUE</ntsc>
                        </rate>
                        <string>14:40:57:10</string>
                        <frame>1268578</frame>
                        <displayformat>NDF</displayformat>
                     </timecode>
                     <media>
                        <video>
                           <samplecharacteristics>
                              <rate>
                                 <timebase>24</timebase>
                                 <ntsc>TRUE</ntsc>
                              </rate>
                              <width>2048</width>
                              <height>858</height>
                              <anamorphic>FALSE</anamorphic>
                              <pixelaspectratio>square</pixelaspectratio>
                              <fielddominance>none</fielddominance>
                           </samplecharacteristics>
                        </video>
                     </media>
                  </file>
                  <filter>
                     <effect>
                        <name>Basic Motion</name>
                        <effectid>basic</effectid>
                        <effectcategory>motion</effectcategory>
                        <effecttype>motion</effecttype>
                        <mediatype>video</mediatype>
                        <pproBypass>false</pproBypass>
                        <parameter authoringApp="PremierePro">
                           <parameterid>scale</parameterid>
                           <name>Scale</name>
                           <valuemin>0</valuemin>
                           <valuemax>1000</valuemax>
                           <value>93.75</value>
                        </parameter>
                        <parameter authoringApp="PremierePro">
                           <parameterid>rotation</parameterid>
                           <name>Rotation</name>
                           <valuemin>-8640</valuemin>
                           <valuemax>8640</valuemax>
                           <value>0</value>
                        </parameter>
                        <parameter authoringApp="PremierePro">
                           <parameterid>center</parameterid>
                           <name>Center</name>
                           <value>
                              <horiz>0</horiz>
                              <vert>0</vert>
                           </value>
                        </parameter>
                        <parameter authoringApp="PremierePro">
                           <parameterid>centerOffset</parameterid>
                           <name>Anchor Point</name>
                           <value>
                              <horiz>0</horiz>
                              <vert>0</vert>
                           </value>
                        </parameter>
                        <parameter authoringApp="PremierePro">
                           <parameterid>antiflicker</parameterid>
                           <name>Anti-flicker Filter</name>
                           <valuemin>0.0</valuemin>
                           <valuemax>1.0</valuemax>
                           <value>0</value>
                        </parameter>
                     </effect>
                  </filter>
                  <logginginfo>
                     <description />
                     <scene />
                     <shottake />
                     <lognote />
                     <good />
                     <originalvideofilename />
                     <originalaudiofilename />
                  </logginginfo>
                  <colorinfo>
                     <lut />
                     <lut1 />
                     <asc_sop />
                     <asc_sat />
                     <lut2 />
                  </colorinfo>
                  <labels>
                     <label2>Iris</label2>
                  </labels>
               </clipitem>
               <clipitem id="clipitem-564">
                  <masterclipid>masterclip-318</masterclipid>
                  <name>mymovie.mov</name>
                  <enabled>TRUE</enabled>
                  <duration>110</duration>
                  <rate>
                     <timebase>24</timebase>
                     <ntsc>TRUE</ntsc>
                  </rate>
                  <start>2094</start>
                  <end>2155</end>
                  <in>25</in>
                  <out>86</out>
                  <pproTicksIn>264864600000</pproTicksIn>
                  <pproTicksOut>911134224000</pproTicksOut>
                  <alphatype>none</alphatype>
                  <pixelaspectratio>square</pixelaspectratio>
                  <anamorphic>FALSE</anamorphic>
                  <file id="file-309">
                     <name>mymovie.mov</name>
                     <pathurl>file://localhost/Volumes/mydisk/mymovie.mov</pathurl>
                     <rate>
                        <timebase>24</timebase>
                        <ntsc>TRUE</ntsc>
                     </rate>
                     <duration>110</duration>
                     <timecode>
                        <rate>
                           <timebase>24</timebase>
                           <ntsc>TRUE</ntsc>
                        </rate>
                        <string>13:53:46:01</string>
                        <frame>1200625</frame>
                        <displayformat>NDF</displayformat>
                     </timecode>
                     <media>
                        <video>
                           <samplecharacteristics>
                              <rate>
                                 <timebase>24</timebase>
                                 <ntsc>TRUE</ntsc>
                              </rate>
                              <width>2048</width>
                              <height>858</height>
                              <anamorphic>FALSE</anamorphic>
                              <pixelaspectratio>square</pixelaspectratio>
                              <fielddominance>none</fielddominance>
                           </samplecharacteristics>
                        </video>
                     </media>
                  </file>
                  <filter>
                     <effect>
                        <name>Basic Motion</name>
                        <effectid>basic</effectid>
                        <effectcategory>motion</effectcategory>
                        <effecttype>motion</effecttype>
                        <mediatype>video</mediatype>
                        <pproBypass>false</pproBypass>
                        <parameter authoringApp="PremierePro">
                           <parameterid>scale</parameterid>
                           <name>Scale</name>
                           <valuemin>0</valuemin>
                           <valuemax>1000</valuemax>
                           <value>93.75</value>
                        </parameter>
                        <parameter authoringApp="PremierePro">
                           <parameterid>rotation</parameterid>
                           <name>Rotation</name>
                           <valuemin>-8640</valuemin>
                           <valuemax>8640</valuemax>
                           <value>0</value>
                        </parameter>
                        <parameter authoringApp="PremierePro">
                           <parameterid>center</parameterid>
                           <name>Center</name>
                           <value>
                              <horiz>0</horiz>
                              <vert>0</vert>
                           </value>
                        </parameter>
                        <parameter authoringApp="PremierePro">
                           <parameterid>centerOffset</parameterid>
                           <name>Anchor Point</name>
                           <value>
                              <horiz>0</horiz>
                              <vert>0</vert>
                           </value>
                        </parameter>
                        <parameter authoringApp="PremierePro">
                           <parameterid>antiflicker</parameterid>
                           <name>Anti-flicker Filter</name>
                           <valuemin>0.0</valuemin>
                           <valuemax>1.0</valuemax>
                           <value>0</value>
                        </parameter>
                     </effect>
                  </filter>
                  <logginginfo>
                     <description />
                     <scene />
                     <shottake />
                     <lognote />
                     <good />
                     <originalvideofilename />
                     <originalaudiofilename />
                  </logginginfo>
                  <colorinfo>
                     <lut />
                     <lut1 />
                     <asc_sop />
                     <asc_sat />
                     <lut2 />
                  </colorinfo>
                  <labels>
                     <label2>Iris</label2>
                  </labels>
               </clipitem>
               <clipitem id="clipitem-565">
                  <masterclipid>masterclip-319</masterclipid>
                  <name>mymovie.mov</name>
                  <enabled>FALSE</enabled>
                  <duration>100</duration>
                  <rate>
                     <timebase>24</timebase>
                     <ntsc>TRUE</ntsc>
                  </rate>
                  <start>2155</start>
                  <end>2207</end>
                  <in>24</in>
                  <out>76</out>
                  <pproTicksIn>254270016000</pproTicksIn>
                  <pproTicksOut>805188384000</pproTicksOut>
                  <alphatype>none</alphatype>
                  <pixelaspectratio>square</pixelaspectratio>
                  <anamorphic>FALSE</anamorphic>
                  <file id="file-310">
                     <name>mymovie.mov</name>
                     <pathurl>file://localhost/Volumes/mydisk/mymovie.mov</pathurl>
                     <rate>
                        <timebase>24</timebase>
                        <ntsc>TRUE</ntsc>
                     </rate>
                     <duration>100</duration>
                     <timecode>
                        <rate>
                           <timebase>24</timebase>
                           <ntsc>TRUE</ntsc>
                        </rate>
                        <string>14:41:05:14</string>
                        <frame>1268774</frame>
                        <displayformat>NDF</displayformat>
                        <reel>
                           <name>reel_name</name>
                        </reel>
                     </timecode>
                     <media>
                        <video>
                           <samplecharacteristics>
                              <rate>
                                 <timebase>24</timebase>
                                 <ntsc>TRUE</ntsc>
                              </rate>
                              <width>2048</width>
                              <height>858</height>
                              <anamorphic>FALSE</anamorphic>
                              <pixelaspectratio>square</pixelaspectratio>
                              <fielddominance>none</fielddominance>
                           </samplecharacteristics>
                        </video>
                     </media>
                  </file>
                  <logginginfo>
                     <description />
                     <scene />
                     <shottake />
                     <lognote />
                     <good />
                     <originalvideofilename />
                     <originalaudiofilename />
                  </logginginfo>
                  <colorinfo>
                     <lut />
                     <lut1 />
                     <asc_sop />
                     <asc_sat />
                     <lut2 />
                  </colorinfo>
                  <labels>
                     <label2>Violet</label2>
                  </labels>
               </clipitem>
               <clipitem id="clipitem-566">
                  <masterclipid>masterclip-320</masterclipid>
                  <name>mymovie.mov</name>
                  <enabled>TRUE</enabled>
                  <duration>101</duration>
                  <rate>
                     <timebase>24</timebase>
                     <ntsc>TRUE</ntsc>
                  </rate>
                  <start>2207</start>
                  <end>2259</end>
                  <in>25</in>
                  <out>77</out>
                  <pproTicksIn>264864600000</pproTicksIn>
                  <pproTicksOut>815782968000</pproTicksOut>
                  <alphatype>none</alphatype>
                  <pixelaspectratio>square</pixelaspectratio>
                  <anamorphic>FALSE</anamorphic>
                  <file id="file-311">
                     <name>mymovie.mov</name>
                     <pathurl>file://localhost/Volumes/mydisk/mymovie.mov</pathurl>
                     <rate>
                        <timebase>24</timebase>
                        <ntsc>TRUE</ntsc>
                     </rate>
                     <duration>101</duration>
                     <timecode>
                        <rate>
                           <timebase>24</timebase>
                           <ntsc>TRUE</ntsc>
                        </rate>
                        <string>13:59:58:04</string>
                        <frame>1209556</frame>
                        <displayformat>NDF</displayformat>
                     </timecode>
                     <media>
                        <video>
                           <samplecharacteristics>
                              <rate>
                                 <timebase>24</timebase>
                                 <ntsc>TRUE</ntsc>
                              </rate>
                              <width>2048</width>
                              <height>858</height>
                              <anamorphic>FALSE</anamorphic>
                              <pixelaspectratio>square</pixelaspectratio>
                              <fielddominance>none</fielddominance>
                           </samplecharacteristics>
                        </video>
                     </media>
                  </file>
                  <filter>
                     <effect>
                        <name>Basic Motion</name>
                        <effectid>basic</effectid>
                        <effectcategory>motion</effectcategory>
                        <effecttype>motion</effecttype>
                        <mediatype>video</mediatype>
                        <pproBypass>false</pproBypass>
                        <parameter authoringApp="PremierePro">
                           <parameterid>scale</parameterid>
                           <name>Scale</name>
                           <valuemin>0</valuemin>
                           <valuemax>1000</valuemax>
                           <value>93.75</value>
                        </parameter>
                        <parameter authoringApp="PremierePro">
                           <parameterid>rotation</parameterid>
                           <name>Rotation</name>
                           <valuemin>-8640</valuemin>
                           <valuemax>8640</valuemax>
                           <value>0</value>
                        </parameter>
                        <parameter authoringApp="PremierePro">
                           <parameterid>center</parameterid>
                           <name>Center</name>
                           <value>
                              <horiz>0</horiz>
                              <vert>0</vert>
                           </value>
                        </parameter>
                        <parameter authoringApp="PremierePro">
                           <parameterid>centerOffset</parameterid>
                           <name>Anchor Point</name>
                           <value>
                              <horiz>0</horiz>
                              <vert>0</vert>
                           </value>
                        </parameter>
                        <parameter authoringApp="PremierePro">
                           <parameterid>antiflicker</parameterid>
                           <name>Anti-flicker Filter</name>
                           <valuemin>0.0</valuemin>
                           <valuemax>1.0</valuemax>
                           <value>0</value>
                        </parameter>
                     </effect>
                  </filter>
                  <logginginfo>
                     <description />
                     <scene />
                     <shottake />
                     <lognote />
                     <good />
                     <originalvideofilename />
                     <originalaudiofilename />
                  </logginginfo>
                  <colorinfo>
                     <lut />
                     <lut1 />
                     <asc_sop />
                     <asc_sat />
                     <lut2 />
                  </colorinfo>
                  <labels>
                     <label2>Iris</label2>
                  </labels>
               </clipitem>
               <clipitem id="clipitem-567">
                  <masterclipid>masterclip-321</masterclipid>
                  <name>mymovie.mov</name>
                  <enabled>FALSE</enabled>
                  <duration>130</duration>
                  <rate>
                     <timebase>24</timebase>
                     <ntsc>TRUE</ntsc>
                  </rate>
                  <start>2306</start>
                  <end>2388</end>
                  <in>24</in>
                  <out>106</out>
                  <pproTicksIn>254270016000</pproTicksIn>
                  <pproTicksOut>1123025904000</pproTicksOut>
                  <alphatype>none</alphatype>
                  <pixelaspectratio>square</pixelaspectratio>
                  <anamorphic>FALSE</anamorphic>
                  <file id="file-312">
                     <name>mymovie.mov</name>
                     <pathurl>file://localhost/Volumes/mydisk/mymovie.mov</pathurl>
                     <rate>
                        <timebase>24</timebase>
                        <ntsc>TRUE</ntsc>
                     </rate>
                     <duration>130</duration>
                     <timecode>
                        <rate>
                           <timebase>24</timebase>
                           <ntsc>TRUE</ntsc>
                        </rate>
                        <string>00:00:00:00</string>
                        <frame>0</frame>
                        <displayformat>NDF</displayformat>
                        <reel>
                           <name>reel_name</name>
                        </reel>
                     </timecode>
                     <media>
                        <video>
                           <samplecharacteristics>
                              <rate>
                                 <timebase>24</timebase>
                                 <ntsc>TRUE</ntsc>
                              </rate>
                              <width>2048</width>
                              <height>858</height>
                              <anamorphic>FALSE</anamorphic>
                              <pixelaspectratio>square</pixelaspectratio>
                              <fielddominance>none</fielddominance>
                           </samplecharacteristics>
                        </video>
                     </media>
                  </file>
                  <filter>
                     <effect>
                        <name>Basic Motion</name>
                        <effectid>basic</effectid>
                        <effectcategory>motion</effectcategory>
                        <effecttype>motion</effecttype>
                        <mediatype>video</mediatype>
                        <pproBypass>false</pproBypass>
                        <parameter authoringApp="PremierePro">
                           <parameterid>scale</parameterid>
                           <name>Scale</name>
                           <valuemin>0</valuemin>
                           <valuemax>1000</valuemax>
                           <value>93.75</value>
                        </parameter>
                        <parameter authoringApp="PremierePro">
                           <parameterid>rotation</parameterid>
                           <name>Rotation</name>
                           <valuemin>-8640</valuemin>
                           <valuemax>8640</valuemax>
                           <value>0</value>
                        </parameter>
                        <parameter authoringApp="PremierePro">
                           <parameterid>center</parameterid>
                           <name>Center</name>
                           <value>
                              <horiz>0</horiz>
                              <vert>0</vert>
                           </value>
                        </parameter>
                        <parameter authoringApp="PremierePro">
                           <parameterid>centerOffset</parameterid>
                           <name>Anchor Point</name>
                           <value>
                              <horiz>0</horiz>
                              <vert>0</vert>
                           </value>
                        </parameter>
                        <parameter authoringApp="PremierePro">
                           <parameterid>antiflicker</parameterid>
                           <name>Anti-flicker Filter</name>
                           <valuemin>0.0</valuemin>
                           <valuemax>1.0</valuemax>
                           <value>0</value>
                        </parameter>
                     </effect>
                  </filter>
                  <logginginfo>
                     <description />
                     <scene />
                     <shottake />
                     <lognote />
                     <good />
                     <originalvideofilename />
                     <originalaudiofilename />
                  </logginginfo>
                  <colorinfo>
                     <lut />
                     <lut1 />
                     <asc_sop />
                     <asc_sat />
                     <lut2 />
                  </colorinfo>
                  <labels>
                     <label2>Magenta</label2>
                  </labels>
               </clipitem>
               <clipitem id="clipitem-568">
                  <masterclipid>masterclip-322</masterclipid>
                  <name>mymovie.mov</name>
                  <enabled>TRUE</enabled>
                  <duration>156</duration>
                  <rate>
                     <timebase>24</timebase>
                     <ntsc>TRUE</ntsc>
                  </rate>
                  <start>2585</start>
                  <end>2692</end>
                  <in>25</in>
                  <out>132</out>
                  <pproTicksIn>264864600000</pproTicksIn>
                  <pproTicksOut>1398485088000</pproTicksOut>
                  <alphatype>none</alphatype>
                  <pixelaspectratio>square</pixelaspectratio>
                  <anamorphic>FALSE</anamorphic>
                  <file id="file-313">
                     <name>mymovie.mov</name>
                     <pathurl>file://localhost/Volumes/mydisk/mymovie.mov</pathurl>
                     <rate>
                        <timebase>24</timebase>
                        <ntsc>TRUE</ntsc>
                     </rate>
                     <duration>156</duration>
                     <timecode>
                        <rate>
                           <timebase>24</timebase>
                           <ntsc>TRUE</ntsc>
                        </rate>
                        <string>14:00:18:14</string>
                        <frame>1210046</frame>
                        <displayformat>NDF</displayformat>
                     </timecode>
                     <media>
                        <video>
                           <samplecharacteristics>
                              <rate>
                                 <timebase>24</timebase>
                                 <ntsc>TRUE</ntsc>
                              </rate>
                              <width>2048</width>
                              <height>858</height>
                              <anamorphic>FALSE</anamorphic>
                              <pixelaspectratio>square</pixelaspectratio>
                              <fielddominance>none</fielddominance>
                           </samplecharacteristics>
                        </video>
                     </media>
                  </file>
                  <filter>
                     <effect>
                        <name>Basic Motion</name>
                        <effectid>basic</effectid>
                        <effectcategory>motion</effectcategory>
                        <effecttype>motion</effecttype>
                        <mediatype>video</mediatype>
                        <pproBypass>false</pproBypass>
                        <parameter authoringApp="PremierePro">
                           <parameterid>scale</parameterid>
                           <name>Scale</name>
                           <valuemin>0</valuemin>
                           <valuemax>1000</valuemax>
                           <value>93.75</value>
                        </parameter>
                        <parameter authoringApp="PremierePro">
                           <parameterid>rotation</parameterid>
                           <name>Rotation</name>
                           <valuemin>-8640</valuemin>
                           <valuemax>8640</valuemax>
                           <value>0</value>
                        </parameter>
                        <parameter authoringApp="PremierePro">
                           <parameterid>center</parameterid>
                           <name>Center</name>
                           <value>
                              <horiz>0</horiz>
                              <vert>0</vert>
                           </value>
                        </parameter>
                        <parameter authoringApp="PremierePro">
                           <parameterid>centerOffset</parameterid>
                           <name>Anchor Point</name>
                           <value>
                              <horiz>0</horiz>
                              <vert>0</vert>
                           </value>
                        </parameter>
                        <parameter authoringApp="PremierePro">
                           <parameterid>antiflicker</parameterid>
                           <name>Anti-flicker Filter</name>
                           <valuemin>0.0</valuemin>
                           <valuemax>1.0</valuemax>
                           <value>0</value>
                        </parameter>
                     </effect>
                  </filter>
                  <logginginfo>
                     <description />
                     <scene />
                     <shottake />
                     <lognote />
                     <good />
                     <originalvideofilename />
                     <originalaudiofilename />
                  </logginginfo>
                  <colorinfo>
                     <lut />
                     <lut1 />
                     <asc_sop />
                     <asc_sat />
                     <lut2 />
                  </colorinfo>
                  <labels>
                     <label2>Iris</label2>
                  </labels>
               </clipitem>
               <clipitem id="clipitem-569">
                  <masterclipid>masterclip-323</masterclipid>
                  <name>mymovie.mov</name>
                  <enabled>TRUE</enabled>
                  <duration>168</duration>
                  <rate>
                     <timebase>24</timebase>
                     <ntsc>TRUE</ntsc>
                  </rate>
                  <start>2819</start>
                  <end>2938</end>
                  <in>25</in>
                  <out>144</out>
                  <pproTicksIn>264864600000</pproTicksIn>
                  <pproTicksOut>1525620096000</pproTicksOut>
                  <alphatype>none</alphatype>
                  <pixelaspectratio>square</pixelaspectratio>
                  <anamorphic>FALSE</anamorphic>
                  <file id="file-314">
                     <name>mymovie.mov</name>
                     <pathurl>file://localhost/Volumes/mydisk/mymovie.mov</pathurl>
                     <rate>
                        <timebase>24</timebase>
                        <ntsc>TRUE</ntsc>
                     </rate>
                     <duration>168</duration>
                     <timecode>
                        <rate>
                           <timebase>24</timebase>
                           <ntsc>TRUE</ntsc>
                        </rate>
                        <string>16:55:07:08</string>
                        <frame>1461776</frame>
                        <displayformat>NDF</displayformat>
                     </timecode>
                     <media>
                        <video>
                           <samplecharacteristics>
                              <rate>
                                 <timebase>24</timebase>
                                 <ntsc>TRUE</ntsc>
                              </rate>
                              <width>2048</width>
                              <height>858</height>
                              <anamorphic>FALSE</anamorphic>
                              <pixelaspectratio>square</pixelaspectratio>
                              <fielddominance>none</fielddominance>
                           </samplecharacteristics>
                        </video>
                     </media>
                  </file>
                  <filter>
                     <effect>
                        <name>Basic Motion</name>
                        <effectid>basic</effectid>
                        <effectcategory>motion</effectcategory>
                        <effecttype>motion</effecttype>
                        <mediatype>video</mediatype>
                        <pproBypass>false</pproBypass>
                        <parameter authoringApp="PremierePro">
                           <parameterid>scale</parameterid>
                           <name>Scale</name>
                           <valuemin>0</valuemin>
                           <valuemax>1000</valuemax>
                           <value>93.75</value>
                        </parameter>
                        <parameter authoringApp="PremierePro">
                           <parameterid>rotation</parameterid>
                           <name>Rotation</name>
                           <valuemin>-8640</valuemin>
                           <valuemax>8640</valuemax>
                           <value>0</value>
                        </parameter>
                        <parameter authoringApp="PremierePro">
                           <parameterid>center</parameterid>
                           <name>Center</name>
                           <value>
                              <horiz>0</horiz>
                              <vert>0</vert>
                           </value>
                        </parameter>
                        <parameter authoringApp="PremierePro">
                           <parameterid>centerOffset</parameterid>
                           <name>Anchor Point</name>
                           <value>
                              <horiz>0</horiz>
                              <vert>0</vert>
                           </value>
                        </parameter>
                        <parameter authoringApp="PremierePro">
                           <parameterid>antiflicker</parameterid>
                           <name>Anti-flicker Filter</name>
                           <valuemin>0.0</valuemin>
                           <valuemax>1.0</valuemax>
                           <value>0</value>
                        </parameter>
                     </effect>
                  </filter>
                  <logginginfo>
                     <description />
                     <scene />
                     <shottake />
                     <lognote />
                     <good />
                     <originalvideofilename />
                     <originalaudiofilename />
                  </logginginfo>
                  <colorinfo>
                     <lut />
                     <lut1 />
                     <asc_sop />
                     <asc_sat />
                     <lut2 />
                  </colorinfo>
                  <labels>
                     <label2>Iris</label2>
                  </labels>
               </clipitem>
               <clipitem id="clipitem-570">
                  <masterclipid>masterclip-324</masterclipid>
                  <name>mymovie.mov</name>
                  <enabled>TRUE</enabled>
                  <duration>169</duration>
                  <rate>
                     <timebase>24</timebase>
                     <ntsc>TRUE</ntsc>
                  </rate>
                  <start>2938</start>
                  <end>3058</end>
                  <in>25</in>
                  <out>145</out>
                  <pproTicksIn>264864600000</pproTicksIn>
                  <pproTicksOut>1536214680000</pproTicksOut>
                  <alphatype>none</alphatype>
                  <pixelaspectratio>square</pixelaspectratio>
                  <anamorphic>FALSE</anamorphic>
                  <file id="file-315">
                     <name>mymovie.mov</name>
                     <pathurl>file://localhost/Volumes/mydisk/mymovie.mov</pathurl>
                     <rate>
                        <timebase>24</timebase>
                        <ntsc>TRUE</ntsc>
                     </rate>
                     <duration>169</duration>
                     <timecode>
                        <rate>
                           <timebase>24</timebase>
                           <ntsc>TRUE</ntsc>
                        </rate>
                        <string>16:14:52:18</string>
                        <frame>1403826</frame>
                        <displayformat>NDF</displayformat>
                     </timecode>
                     <media>
                        <video>
                           <samplecharacteristics>
                              <rate>
                                 <timebase>24</timebase>
                                 <ntsc>TRUE</ntsc>
                              </rate>
                              <width>2048</width>
                              <height>858</height>
                              <anamorphic>FALSE</anamorphic>
                              <pixelaspectratio>square</pixelaspectratio>
                              <fielddominance>none</fielddominance>
                           </samplecharacteristics>
                        </video>
                     </media>
                  </file>
                  <filter>
                     <effect>
                        <name>Basic Motion</name>
                        <effectid>basic</effectid>
                        <effectcategory>motion</effectcategory>
                        <effecttype>motion</effecttype>
                        <mediatype>video</mediatype>
                        <pproBypass>false</pproBypass>
                        <parameter authoringApp="PremierePro">
                           <parameterid>scale</parameterid>
                           <name>Scale</name>
                           <valuemin>0</valuemin>
                           <valuemax>1000</valuemax>
                           <value>93.75</value>
                        </parameter>
                        <parameter authoringApp="PremierePro">
                           <parameterid>rotation</parameterid>
                           <name>Rotation</name>
                           <valuemin>-8640</valuemin>
                           <valuemax>8640</valuemax>
                           <value>0</value>
                        </parameter>
                        <parameter authoringApp="PremierePro">
                           <parameterid>center</parameterid>
                           <name>Center</name>
                           <value>
                              <horiz>0</horiz>
                              <vert>0</vert>
                           </value>
                        </parameter>
                        <parameter authoringApp="PremierePro">
                           <parameterid>centerOffset</parameterid>
                           <name>Anchor Point</name>
                           <value>
                              <horiz>0</horiz>
                              <vert>0</vert>
                           </value>
                        </parameter>
                        <parameter authoringApp="PremierePro">
                           <parameterid>antiflicker</parameterid>
                           <name>Anti-flicker Filter</name>
                           <valuemin>0.0</valuemin>
                           <valuemax>1.0</valuemax>
                           <value>0</value>
                        </parameter>
                     </effect>
                  </filter>
                  <logginginfo>
                     <description />
                     <scene />
                     <shottake />
                     <lognote />
                     <good />
                     <originalvideofilename />
                     <originalaudiofilename />
                  </logginginfo>
                  <colorinfo>
                     <lut />
                     <lut1 />
                     <asc_sop />
                     <asc_sat />
                     <lut2 />
                  </colorinfo>
                  <labels>
                     <label2>Iris</label2>
                  </labels>
               </clipitem>
               <clipitem id="clipitem-571">
                  <masterclipid>masterclip-325</masterclipid>
                  <name>mymovie.mov</name>
                  <enabled>TRUE</enabled>
                  <duration>298</duration>
                  <rate>
                     <timebase>24</timebase>
                     <ntsc>TRUE</ntsc>
                  </rate>
                  <start>3058</start>
                  <end>3307</end>
                  <in>25</in>
                  <out>274</out>
                  <pproTicksIn>264864600000</pproTicksIn>
                  <pproTicksOut>2902916016000</pproTicksOut>
                  <alphatype>none</alphatype>
                  <pixelaspectratio>square</pixelaspectratio>
                  <anamorphic>FALSE</anamorphic>
                  <file id="file-316">
                     <name>mymovie.mov</name>
                     <pathurl>file://localhost/Volumes/mydisk/mymovie.mov</pathurl>
                     <rate>
                        <timebase>24</timebase>
                        <ntsc>TRUE</ntsc>
                     </rate>
                     <duration>298</duration>
                     <timecode>
                        <rate>
                           <timebase>24</timebase>
                           <ntsc>TRUE</ntsc>
                        </rate>
                        <string>07:22:13:07</string>
                        <frame>636799</frame>
                        <displayformat>NDF</displayformat>
                     </timecode>
                     <media>
                        <video>
                           <samplecharacteristics>
                              <rate>
                                 <timebase>24</timebase>
                                 <ntsc>TRUE</ntsc>
                              </rate>
                              <width>2048</width>
                              <height>858</height>
                              <anamorphic>FALSE</anamorphic>
                              <pixelaspectratio>square</pixelaspectratio>
                              <fielddominance>none</fielddominance>
                           </samplecharacteristics>
                        </video>
                     </media>
                  </file>
                  <filter>
                     <effect>
                        <name>Basic Motion</name>
                        <effectid>basic</effectid>
                        <effectcategory>motion</effectcategory>
                        <effecttype>motion</effecttype>
                        <mediatype>video</mediatype>
                        <pproBypass>false</pproBypass>
                        <parameter authoringApp="PremierePro">
                           <parameterid>scale</parameterid>
                           <name>Scale</name>
                           <valuemin>0</valuemin>
                           <valuemax>1000</valuemax>
                           <value>93.75</value>
                        </parameter>
                        <parameter authoringApp="PremierePro">
                           <parameterid>rotation</parameterid>
                           <name>Rotation</name>
                           <valuemin>-8640</valuemin>
                           <valuemax>8640</valuemax>
                           <value>0</value>
                        </parameter>
                        <parameter authoringApp="PremierePro">
                           <parameterid>center</parameterid>
                           <name>Center</name>
                           <value>
                              <horiz>0</horiz>
                              <vert>0</vert>
                           </value>
                        </parameter>
                        <parameter authoringApp="PremierePro">
                           <parameterid>centerOffset</parameterid>
                           <name>Anchor Point</name>
                           <value>
                              <horiz>0</horiz>
                              <vert>0</vert>
                           </value>
                        </parameter>
                        <parameter authoringApp="PremierePro">
                           <parameterid>antiflicker</parameterid>
                           <name>Anti-flicker Filter</name>
                           <valuemin>0.0</valuemin>
                           <valuemax>1.0</valuemax>
                           <value>0</value>
                        </parameter>
                     </effect>
                  </filter>
                  <logginginfo>
                     <description />
                     <scene />
                     <shottake />
                     <lognote />
                     <good />
                     <originalvideofilename />
                     <originalaudiofilename />
                  </logginginfo>
                  <colorinfo>
                     <lut />
                     <lut1 />
                     <asc_sop />
                     <asc_sat />
                     <lut2 />
                  </colorinfo>
                  <labels>
                     <label2>Iris</label2>
                  </labels>
               </clipitem>
               <enabled>FALSE</enabled>
               <locked>FALSE</locked>
            </track>
            <track TL.SQTrackShy="0" TL.SQTrackExpandedHeight="25" TL.SQTrackExpanded="0" MZ.TrackTargeted="0">
               <clipitem id="clipitem-572">
                  <masterclipid>masterclip-326</masterclipid>
                  <name>mymovie.mov</name>
                  <enabled>TRUE</enabled>
                  <duration>149</duration>
                  <rate>
                     <timebase>24</timebase>
                     <ntsc>TRUE</ntsc>
                  </rate>
                  <start>90</start>
                  <end>222</end>
                  <in>9</in>
                  <out>141</out>
                  <pproTicksIn>95351256000</pproTicksIn>
                  <pproTicksOut>1493836344000</pproTicksOut>
                  <alphatype>none</alphatype>
                  <pixelaspectratio>square</pixelaspectratio>
                  <anamorphic>FALSE</anamorphic>
                  <file id="file-317">
                     <name>mymovie.mov</name>
                     <pathurl>file://localhost/Volumes/mydisk/mymovie.mov</pathurl>
                     <rate>
                        <timebase>24</timebase>
                        <ntsc>TRUE</ntsc>
                     </rate>
                     <duration>149</duration>
                     <timecode>
                        <rate>
                           <timebase>24</timebase>
                           <ntsc>TRUE</ntsc>
                        </rate>
                        <string>16:24:09:19</string>
                        <frame>1417195</frame>
                        <displayformat>NDF</displayformat>
                     </timecode>
                     <media>
                        <video>
                           <samplecharacteristics>
                              <rate>
                                 <timebase>24</timebase>
                                 <ntsc>TRUE</ntsc>
                              </rate>
                              <width>2048</width>
                              <height>858</height>
                              <anamorphic>FALSE</anamorphic>
                              <pixelaspectratio>square</pixelaspectratio>
                              <fielddominance>none</fielddominance>
                           </samplecharacteristics>
                        </video>
                     </media>
                  </file>
                  <filter>
                     <effect>
                        <name>Basic Motion</name>
                        <effectid>basic</effectid>
                        <effectcategory>motion</effectcategory>
                        <effecttype>motion</effecttype>
                        <mediatype>video</mediatype>
                        <pproBypass>false</pproBypass>
                        <parameter authoringApp="PremierePro">
                           <parameterid>scale</parameterid>
                           <name>Scale</name>
                           <valuemin>0</valuemin>
                           <valuemax>1000</valuemax>
                           <value>93.75</value>
                        </parameter>
                        <parameter authoringApp="PremierePro">
                           <parameterid>rotation</parameterid>
                           <name>Rotation</name>
                           <valuemin>-8640</valuemin>
                           <valuemax>8640</valuemax>
                           <value>0</value>
                        </parameter>
                        <parameter authoringApp="PremierePro">
                           <parameterid>center</parameterid>
                           <name>Center</name>
                           <value>
                              <horiz>0</horiz>
                              <vert>0</vert>
                           </value>
                        </parameter>
                        <parameter authoringApp="PremierePro">
                           <parameterid>centerOffset</parameterid>
                           <name>Anchor Point</name>
                           <value>
                              <horiz>0</horiz>
                              <vert>0</vert>
                           </value>
                        </parameter>
                        <parameter authoringApp="PremierePro">
                           <parameterid>antiflicker</parameterid>
                           <name>Anti-flicker Filter</name>
                           <valuemin>0.0</valuemin>
                           <valuemax>1.0</valuemax>
                           <value>0</value>
                        </parameter>
                     </effect>
                  </filter>
                  <logginginfo>
                     <description />
                     <scene />
                     <shottake />
                     <lognote />
                     <good />
                     <originalvideofilename />
                     <originalaudiofilename />
                  </logginginfo>
                  <colorinfo>
                     <lut />
                     <lut1 />
                     <asc_sop />
                     <asc_sat />
                     <lut2 />
                  </colorinfo>
                  <labels>
                     <label2>Iris</label2>
                  </labels>
               </clipitem>
               <clipitem id="clipitem-573">
                  <masterclipid>masterclip-327</masterclipid>
                  <name>mymovie.mov</name>
                  <enabled>TRUE</enabled>
                  <duration>191</duration>
                  <rate>
                     <timebase>24</timebase>
                     <ntsc>TRUE</ntsc>
                  </rate>
                  <start>222</start>
                  <end>396</end>
                  <in>9</in>
                  <out>183</out>
                  <pproTicksIn>95351256000</pproTicksIn>
                  <pproTicksOut>1938808872000</pproTicksOut>
                  <alphatype>none</alphatype>
                  <pixelaspectratio>square</pixelaspectratio>
                  <anamorphic>FALSE</anamorphic>
                  <file id="file-318">
                     <name>mymovie.mov</name>
                     <pathurl>file://localhost/Volumes/mydisk/mymovie.mov</pathurl>
                     <rate>
                        <timebase>24</timebase>
                        <ntsc>TRUE</ntsc>
                     </rate>
                     <duration>191</duration>
                     <timecode>
                        <rate>
                           <timebase>24</timebase>
                           <ntsc>TRUE</ntsc>
                        </rate>
                        <string>15:31:39:21</string>
                        <frame>1341597</frame>
                        <displayformat>NDF</displayformat>
                     </timecode>
                     <media>
                        <video>
                           <samplecharacteristics>
                              <rate>
                                 <timebase>24</timebase>
                                 <ntsc>TRUE</ntsc>
                              </rate>
                              <width>2048</width>
                              <height>858</height>
                              <anamorphic>FALSE</anamorphic>
                              <pixelaspectratio>square</pixelaspectratio>
                              <fielddominance>none</fielddominance>
                           </samplecharacteristics>
                        </video>
                     </media>
                  </file>
                  <filter>
                     <effect>
                        <name>Basic Motion</name>
                        <effectid>basic</effectid>
                        <effectcategory>motion</effectcategory>
                        <effecttype>motion</effecttype>
                        <mediatype>video</mediatype>
                        <pproBypass>false</pproBypass>
                        <parameter authoringApp="PremierePro">
                           <parameterid>scale</parameterid>
                           <name>Scale</name>
                           <valuemin>0</valuemin>
                           <valuemax>1000</valuemax>
                           <value>93.75</value>
                        </parameter>
                        <parameter authoringApp="PremierePro">
                           <parameterid>rotation</parameterid>
                           <name>Rotation</name>
                           <valuemin>-8640</valuemin>
                           <valuemax>8640</valuemax>
                           <value>0</value>
                        </parameter>
                        <parameter authoringApp="PremierePro">
                           <parameterid>center</parameterid>
                           <name>Center</name>
                           <value>
                              <horiz>0</horiz>
                              <vert>0</vert>
                           </value>
                        </parameter>
                        <parameter authoringApp="PremierePro">
                           <parameterid>centerOffset</parameterid>
                           <name>Anchor Point</name>
                           <value>
                              <horiz>0</horiz>
                              <vert>0</vert>
                           </value>
                        </parameter>
                        <parameter authoringApp="PremierePro">
                           <parameterid>antiflicker</parameterid>
                           <name>Anti-flicker Filter</name>
                           <valuemin>0.0</valuemin>
                           <valuemax>1.0</valuemax>
                           <value>0</value>
                        </parameter>
                     </effect>
                  </filter>
                  <logginginfo>
                     <description />
                     <scene />
                     <shottake />
                     <lognote />
                     <good />
                     <originalvideofilename />
                     <originalaudiofilename />
                  </logginginfo>
                  <colorinfo>
                     <lut />
                     <lut1 />
                     <asc_sop />
                     <asc_sat />
                     <lut2 />
                  </colorinfo>
                  <labels>
                     <label2>Iris</label2>
                  </labels>
               </clipitem>
               <clipitem id="clipitem-574">
                  <masterclipid>masterclip-328</masterclipid>
                  <name>mymovie.mov</name>
                  <enabled>TRUE</enabled>
                  <duration>122</duration>
                  <rate>
                     <timebase>24</timebase>
                     <ntsc>TRUE</ntsc>
                  </rate>
                  <start>493</start>
                  <end>598</end>
                  <in>9</in>
                  <out>114</out>
                  <pproTicksIn>95351256000</pproTicksIn>
                  <pproTicksOut>1207782576000</pproTicksOut>
                  <alphatype>none</alphatype>
                  <pixelaspectratio>square</pixelaspectratio>
                  <anamorphic>FALSE</anamorphic>
                  <file id="file-319">
                     <name>mymovie.mov</name>
                     <pathurl>file://localhost/Volumes/mydisk/mymovie.mov</pathurl>
                     <rate>
                        <timebase>24</timebase>
                        <ntsc>TRUE</ntsc>
                     </rate>
                     <duration>122</duration>
                     <timecode>
                        <rate>
                           <timebase>24</timebase>
                           <ntsc>TRUE</ntsc>
                        </rate>
                        <string>16:52:01:22</string>
                        <frame>1457326</frame>
                        <displayformat>NDF</displayformat>
                     </timecode>
                     <media>
                        <video>
                           <samplecharacteristics>
                              <rate>
                                 <timebase>24</timebase>
                                 <ntsc>TRUE</ntsc>
                              </rate>
                              <width>2048</width>
                              <height>858</height>
                              <anamorphic>FALSE</anamorphic>
                              <pixelaspectratio>square</pixelaspectratio>
                              <fielddominance>none</fielddominance>
                           </samplecharacteristics>
                        </video>
                     </media>
                  </file>
                  <filter>
                     <effect>
                        <name>Basic Motion</name>
                        <effectid>basic</effectid>
                        <effectcategory>motion</effectcategory>
                        <effecttype>motion</effecttype>
                        <mediatype>video</mediatype>
                        <pproBypass>false</pproBypass>
                        <parameter authoringApp="PremierePro">
                           <parameterid>scale</parameterid>
                           <name>Scale</name>
                           <valuemin>0</valuemin>
                           <valuemax>1000</valuemax>
                           <value>93.8</value>
                        </parameter>
                        <parameter authoringApp="PremierePro">
                           <parameterid>rotation</parameterid>
                           <name>Rotation</name>
                           <valuemin>-8640</valuemin>
                           <valuemax>8640</valuemax>
                           <value>0</value>
                        </parameter>
                        <parameter authoringApp="PremierePro">
                           <parameterid>center</parameterid>
                           <name>Center</name>
                           <value>
                              <horiz>0</horiz>
                              <vert>0</vert>
                           </value>
                        </parameter>
                        <parameter authoringApp="PremierePro">
                           <parameterid>centerOffset</parameterid>
                           <name>Anchor Point</name>
                           <value>
                              <horiz>0</horiz>
                              <vert>0</vert>
                           </value>
                        </parameter>
                        <parameter authoringApp="PremierePro">
                           <parameterid>antiflicker</parameterid>
                           <name>Anti-flicker Filter</name>
                           <valuemin>0.0</valuemin>
                           <valuemax>1.0</valuemax>
                           <value>0</value>
                        </parameter>
                     </effect>
                  </filter>
                  <logginginfo>
                     <description />
                     <scene />
                     <shottake />
                     <lognote />
                     <good />
                     <originalvideofilename />
                     <originalaudiofilename />
                  </logginginfo>
                  <colorinfo>
                     <lut />
                     <lut1 />
                     <asc_sop />
                     <asc_sat />
                     <lut2 />
                  </colorinfo>
                  <labels>
                     <label2>Violet</label2>
                  </labels>
               </clipitem>
               <clipitem id="clipitem-575">
                  <masterclipid>masterclip-329</masterclipid>
                  <name>mymovie.mov</name>
                  <enabled>TRUE</enabled>
                  <duration>123</duration>
                  <rate>
                     <timebase>24</timebase>
                     <ntsc>TRUE</ntsc>
                  </rate>
                  <start>598</start>
                  <end>692</end>
                  <in>9</in>
                  <out>103</out>
                  <pproTicksIn>95351256000</pproTicksIn>
                  <pproTicksOut>1091242152000</pproTicksOut>
                  <alphatype>none</alphatype>
                  <pixelaspectratio>square</pixelaspectratio>
                  <anamorphic>FALSE</anamorphic>
                  <file id="file-320">
                     <name>mymovie.mov</name>
                     <pathurl>file://localhost/Volumes/mydisk/mymovie.mov</pathurl>
                     <rate>
                        <timebase>24</timebase>
                        <ntsc>TRUE</ntsc>
                     </rate>
                     <duration>123</duration>
                     <timecode>
                        <rate>
                           <timebase>24</timebase>
                           <ntsc>TRUE</ntsc>
                        </rate>
                        <string>16:52:17:13</string>
                        <frame>1457701</frame>
                        <displayformat>NDF</displayformat>
                     </timecode>
                     <media>
                        <video>
                           <samplecharacteristics>
                              <rate>
                                 <timebase>24</timebase>
                                 <ntsc>TRUE</ntsc>
                              </rate>
                              <width>2048</width>
                              <height>858</height>
                              <anamorphic>FALSE</anamorphic>
                              <pixelaspectratio>square</pixelaspectratio>
                              <fielddominance>none</fielddominance>
                           </samplecharacteristics>
                        </video>
                     </media>
                  </file>
                  <filter>
                     <effect>
                        <name>Basic Motion</name>
                        <effectid>basic</effectid>
                        <effectcategory>motion</effectcategory>
                        <effecttype>motion</effecttype>
                        <mediatype>video</mediatype>
                        <pproBypass>false</pproBypass>
                        <parameter authoringApp="PremierePro">
                           <parameterid>scale</parameterid>
                           <name>Scale</name>
                           <valuemin>0</valuemin>
                           <valuemax>1000</valuemax>
                           <value>93.75</value>
                        </parameter>
                        <parameter authoringApp="PremierePro">
                           <parameterid>rotation</parameterid>
                           <name>Rotation</name>
                           <valuemin>-8640</valuemin>
                           <valuemax>8640</valuemax>
                           <value>0</value>
                        </parameter>
                        <parameter authoringApp="PremierePro">
                           <parameterid>center</parameterid>
                           <name>Center</name>
                           <value>
                              <horiz>0</horiz>
                              <vert>0</vert>
                           </value>
                        </parameter>
                        <parameter authoringApp="PremierePro">
                           <parameterid>centerOffset</parameterid>
                           <name>Anchor Point</name>
                           <value>
                              <horiz>0</horiz>
                              <vert>0</vert>
                           </value>
                        </parameter>
                        <parameter authoringApp="PremierePro">
                           <parameterid>antiflicker</parameterid>
                           <name>Anti-flicker Filter</name>
                           <valuemin>0.0</valuemin>
                           <valuemax>1.0</valuemax>
                           <value>0</value>
                        </parameter>
                     </effect>
                  </filter>
                  <logginginfo>
                     <description />
                     <scene />
                     <shottake />
                     <lognote />
                     <good />
                     <originalvideofilename />
                     <originalaudiofilename />
                  </logginginfo>
                  <colorinfo>
                     <lut />
                     <lut1 />
                     <asc_sop />
                     <asc_sat />
                     <lut2 />
                  </colorinfo>
                  <labels>
                     <label2>Iris</label2>
                  </labels>
               </clipitem>
               <clipitem id="clipitem-576">
                  <masterclipid>masterclip-330</masterclipid>
                  <name>mymovie.mov</name>
                  <enabled>TRUE</enabled>
                  <duration>123</duration>
                  <rate>
                     <timebase>24</timebase>
                     <ntsc>TRUE</ntsc>
                  </rate>
                  <start>692</start>
                  <end>780</end>
                  <in>9</in>
                  <out>97</out>
                  <pproTicksIn>95351256000</pproTicksIn>
                  <pproTicksOut>1027674648000</pproTicksOut>
                  <alphatype>none</alphatype>
                  <pixelaspectratio>square</pixelaspectratio>
                  <anamorphic>FALSE</anamorphic>
                  <file id="file-321">
                     <name>mymovie.mov</name>
                     <pathurl>file://localhost/Volumes/mydisk/mymovie.mov</pathurl>
                     <rate>
                        <timebase>24</timebase>
                        <ntsc>TRUE</ntsc>
                     </rate>
                     <duration>123</duration>
                     <timecode>
                        <rate>
                           <timebase>24</timebase>
                           <ntsc>TRUE</ntsc>
                        </rate>
                        <string>15:36:57:18</string>
                        <frame>1349226</frame>
                        <displayformat>NDF</displayformat>
                     </timecode>
                     <media>
                        <video>
                           <samplecharacteristics>
                              <rate>
                                 <timebase>24</timebase>
                                 <ntsc>TRUE</ntsc>
                              </rate>
                              <width>2048</width>
                              <height>858</height>
                              <anamorphic>FALSE</anamorphic>
                              <pixelaspectratio>square</pixelaspectratio>
                              <fielddominance>none</fielddominance>
                           </samplecharacteristics>
                        </video>
                     </media>
                  </file>
                  <filter>
                     <effect>
                        <name>Basic Motion</name>
                        <effectid>basic</effectid>
                        <effectcategory>motion</effectcategory>
                        <effecttype>motion</effecttype>
                        <mediatype>video</mediatype>
                        <pproBypass>false</pproBypass>
                        <parameter authoringApp="PremierePro">
                           <parameterid>scale</parameterid>
                           <name>Scale</name>
                           <valuemin>0</valuemin>
                           <valuemax>1000</valuemax>
                           <value>93.75</value>
                        </parameter>
                        <parameter authoringApp="PremierePro">
                           <parameterid>rotation</parameterid>
                           <name>Rotation</name>
                           <valuemin>-8640</valuemin>
                           <valuemax>8640</valuemax>
                           <value>0</value>
                        </parameter>
                        <parameter authoringApp="PremierePro">
                           <parameterid>center</parameterid>
                           <name>Center</name>
                           <value>
                              <horiz>0</horiz>
                              <vert>0</vert>
                           </value>
                        </parameter>
                        <parameter authoringApp="PremierePro">
                           <parameterid>centerOffset</parameterid>
                           <name>Anchor Point</name>
                           <value>
                              <horiz>0</horiz>
                              <vert>0</vert>
                           </value>
                        </parameter>
                        <parameter authoringApp="PremierePro">
                           <parameterid>antiflicker</parameterid>
                           <name>Anti-flicker Filter</name>
                           <valuemin>0.0</valuemin>
                           <valuemax>1.0</valuemax>
                           <value>0</value>
                        </parameter>
                     </effect>
                  </filter>
                  <logginginfo>
                     <description />
                     <scene />
                     <shottake />
                     <lognote />
                     <good />
                     <originalvideofilename />
                     <originalaudiofilename />
                  </logginginfo>
                  <colorinfo>
                     <lut />
                     <lut1 />
                     <asc_sop />
                     <asc_sat />
                     <lut2 />
                  </colorinfo>
                  <labels>
                     <label2>Iris</label2>
                  </labels>
               </clipitem>
               <clipitem id="clipitem-577">
                  <masterclipid>masterclip-331</masterclipid>
                  <name>mymovie.mov</name>
                  <enabled>TRUE</enabled>
                  <duration>172</duration>
                  <rate>
                     <timebase>24</timebase>
                     <ntsc>TRUE</ntsc>
                  </rate>
                  <start>1229</start>
                  <end>1357</end>
                  <in>36</in>
                  <out>164</out>
                  <pproTicksIn>381405024000</pproTicksIn>
                  <pproTicksOut>1737511776000</pproTicksOut>
                  <alphatype>none</alphatype>
                  <pixelaspectratio>square</pixelaspectratio>
                  <anamorphic>FALSE</anamorphic>
                  <file id="file-322">
                     <name>mymovie.mov</name>
                     <pathurl>file://localhost/Volumes/mydisk/mymovie.mov</pathurl>
                     <rate>
                        <timebase>24</timebase>
                        <ntsc>TRUE</ntsc>
                     </rate>
                     <duration>172</duration>
                     <timecode>
                        <rate>
                           <timebase>24</timebase>
                           <ntsc>TRUE</ntsc>
                        </rate>
                        <string>16:42:35:21</string>
                        <frame>1443741</frame>
                        <displayformat>NDF</displayformat>
                     </timecode>
                     <media>
                        <video>
                           <samplecharacteristics>
                              <rate>
                                 <timebase>24</timebase>
                                 <ntsc>TRUE</ntsc>
                              </rate>
                              <width>2048</width>
                              <height>858</height>
                              <anamorphic>FALSE</anamorphic>
                              <pixelaspectratio>square</pixelaspectratio>
                              <fielddominance>none</fielddominance>
                           </samplecharacteristics>
                        </video>
                     </media>
                  </file>
                  <filter>
                     <effect>
                        <name>Basic Motion</name>
                        <effectid>basic</effectid>
                        <effectcategory>motion</effectcategory>
                        <effecttype>motion</effecttype>
                        <mediatype>video</mediatype>
                        <pproBypass>false</pproBypass>
                        <parameter authoringApp="PremierePro">
                           <parameterid>scale</parameterid>
                           <name>Scale</name>
                           <valuemin>0</valuemin>
                           <valuemax>1000</valuemax>
                           <value>93.8</value>
                        </parameter>
                        <parameter authoringApp="PremierePro">
                           <parameterid>rotation</parameterid>
                           <name>Rotation</name>
                           <valuemin>-8640</valuemin>
                           <valuemax>8640</valuemax>
                           <value>0</value>
                        </parameter>
                        <parameter authoringApp="PremierePro">
                           <parameterid>center</parameterid>
                           <name>Center</name>
                           <value>
                              <horiz>0</horiz>
                              <vert>0</vert>
                           </value>
                        </parameter>
                        <parameter authoringApp="PremierePro">
                           <parameterid>centerOffset</parameterid>
                           <name>Anchor Point</name>
                           <value>
                              <horiz>0</horiz>
                              <vert>0</vert>
                           </value>
                        </parameter>
                        <parameter authoringApp="PremierePro">
                           <parameterid>antiflicker</parameterid>
                           <name>Anti-flicker Filter</name>
                           <valuemin>0.0</valuemin>
                           <valuemax>1.0</valuemax>
                           <value>0</value>
                        </parameter>
                     </effect>
                  </filter>
                  <logginginfo>
                     <description />
                     <scene />
                     <shottake />
                     <lognote />
                     <good />
                     <originalvideofilename />
                     <originalaudiofilename />
                  </logginginfo>
                  <colorinfo>
                     <lut />
                     <lut1 />
                     <asc_sop />
                     <asc_sat />
                     <lut2 />
                  </colorinfo>
                  <labels>
                     <label2>Violet</label2>
                  </labels>
               </clipitem>
               <clipitem id="clipitem-578">
                  <masterclipid>masterclip-332</masterclipid>
                  <name>mymovie.mov</name>
                  <enabled>TRUE</enabled>
                  <duration>68</duration>
                  <rate>
                     <timebase>24</timebase>
                     <ntsc>TRUE</ntsc>
                  </rate>
                  <start>1357</start>
                  <end>1408</end>
                  <in>9</in>
                  <out>60</out>
                  <pproTicksIn>95351256000</pproTicksIn>
                  <pproTicksOut>635675040000</pproTicksOut>
                  <alphatype>none</alphatype>
                  <pixelaspectratio>square</pixelaspectratio>
                  <anamorphic>FALSE</anamorphic>
                  <file id="file-323">
                     <name>mymovie.mov</name>
                     <pathurl>file://localhost/Volumes/mydisk/mymovie.mov</pathurl>
                     <rate>
                        <timebase>24</timebase>
                        <ntsc>TRUE</ntsc>
                     </rate>
                     <duration>68</duration>
                     <timecode>
                        <rate>
                           <timebase>24</timebase>
                           <ntsc>TRUE</ntsc>
                        </rate>
                        <string>15:38:12:13</string>
                        <frame>1351021</frame>
                        <displayformat>NDF</displayformat>
                     </timecode>
                     <media>
                        <video>
                           <samplecharacteristics>
                              <rate>
                                 <timebase>24</timebase>
                                 <ntsc>TRUE</ntsc>
                              </rate>
                              <width>2048</width>
                              <height>858</height>
                              <anamorphic>FALSE</anamorphic>
                              <pixelaspectratio>square</pixelaspectratio>
                              <fielddominance>none</fielddominance>
                           </samplecharacteristics>
                        </video>
                     </media>
                  </file>
                  <filter>
                     <effect>
                        <name>Basic Motion</name>
                        <effectid>basic</effectid>
                        <effectcategory>motion</effectcategory>
                        <effecttype>motion</effecttype>
                        <mediatype>video</mediatype>
                        <pproBypass>false</pproBypass>
                        <parameter authoringApp="PremierePro">
                           <parameterid>scale</parameterid>
                           <name>Scale</name>
                           <valuemin>0</valuemin>
                           <valuemax>1000</valuemax>
                           <value>93.8</value>
                        </parameter>
                        <parameter authoringApp="PremierePro">
                           <parameterid>rotation</parameterid>
                           <name>Rotation</name>
                           <valuemin>-8640</valuemin>
                           <valuemax>8640</valuemax>
                           <value>0</value>
                        </parameter>
                        <parameter authoringApp="PremierePro">
                           <parameterid>center</parameterid>
                           <name>Center</name>
                           <value>
                              <horiz>0</horiz>
                              <vert>0</vert>
                           </value>
                        </parameter>
                        <parameter authoringApp="PremierePro">
                           <parameterid>centerOffset</parameterid>
                           <name>Anchor Point</name>
                           <value>
                              <horiz>0</horiz>
                              <vert>0</vert>
                           </value>
                        </parameter>
                        <parameter authoringApp="PremierePro">
                           <parameterid>antiflicker</parameterid>
                           <name>Anti-flicker Filter</name>
                           <valuemin>0.0</valuemin>
                           <valuemax>1.0</valuemax>
                           <value>0</value>
                        </parameter>
                     </effect>
                  </filter>
                  <logginginfo>
                     <description />
                     <scene />
                     <shottake />
                     <lognote />
                     <good />
                     <originalvideofilename />
                     <originalaudiofilename />
                  </logginginfo>
                  <colorinfo>
                     <lut />
                     <lut1 />
                     <asc_sop />
                     <asc_sat />
                     <lut2 />
                  </colorinfo>
                  <labels>
                     <label2>Violet</label2>
                  </labels>
               </clipitem>
               <clipitem id="clipitem-579">
                  <masterclipid>masterclip-333</masterclipid>
                  <name>mymovie.mov</name>
                  <enabled>TRUE</enabled>
                  <duration>91</duration>
                  <rate>
                     <timebase>24</timebase>
                     <ntsc>TRUE</ntsc>
                  </rate>
                  <start>1408</start>
                  <end>1482</end>
                  <in>9</in>
                  <out>83</out>
                  <pproTicksIn>95351256000</pproTicksIn>
                  <pproTicksOut>879350472000</pproTicksOut>
                  <alphatype>none</alphatype>
                  <pixelaspectratio>square</pixelaspectratio>
                  <anamorphic>FALSE</anamorphic>
                  <file id="file-324">
                     <name>mymovie.mov</name>
                     <pathurl>file://localhost/Volumes/mydisk/mymovie.mov</pathurl>
                     <rate>
                        <timebase>24</timebase>
                        <ntsc>TRUE</ntsc>
                     </rate>
                     <duration>91</duration>
                     <timecode>
                        <rate>
                           <timebase>24</timebase>
                           <ntsc>TRUE</ntsc>
                        </rate>
                        <string>13:59:24:10</string>
                        <frame>1208746</frame>
                        <displayformat>NDF</displayformat>
                     </timecode>
                     <media>
                        <video>
                           <samplecharacteristics>
                              <rate>
                                 <timebase>24</timebase>
                                 <ntsc>TRUE</ntsc>
                              </rate>
                              <width>2048</width>
                              <height>858</height>
                              <anamorphic>FALSE</anamorphic>
                              <pixelaspectratio>square</pixelaspectratio>
                              <fielddominance>none</fielddominance>
                           </samplecharacteristics>
                        </video>
                     </media>
                  </file>
                  <filter>
                     <effect>
                        <name>Basic Motion</name>
                        <effectid>basic</effectid>
                        <effectcategory>motion</effectcategory>
                        <effecttype>motion</effecttype>
                        <mediatype>video</mediatype>
                        <pproBypass>false</pproBypass>
                        <parameter authoringApp="PremierePro">
                           <parameterid>scale</parameterid>
                           <name>Scale</name>
                           <valuemin>0</valuemin>
                           <valuemax>1000</valuemax>
                           <value>93.8</value>
                        </parameter>
                        <parameter authoringApp="PremierePro">
                           <parameterid>rotation</parameterid>
                           <name>Rotation</name>
                           <valuemin>-8640</valuemin>
                           <valuemax>8640</valuemax>
                           <value>0</value>
                        </parameter>
                        <parameter authoringApp="PremierePro">
                           <parameterid>center</parameterid>
                           <name>Center</name>
                           <value>
                              <horiz>0</horiz>
                              <vert>0</vert>
                           </value>
                        </parameter>
                        <parameter authoringApp="PremierePro">
                           <parameterid>centerOffset</parameterid>
                           <name>Anchor Point</name>
                           <value>
                              <horiz>0</horiz>
                              <vert>0</vert>
                           </value>
                        </parameter>
                        <parameter authoringApp="PremierePro">
                           <parameterid>antiflicker</parameterid>
                           <name>Anti-flicker Filter</name>
                           <valuemin>0.0</valuemin>
                           <valuemax>1.0</valuemax>
                           <value>0</value>
                        </parameter>
                     </effect>
                  </filter>
                  <logginginfo>
                     <description />
                     <scene />
                     <shottake />
                     <lognote />
                     <good />
                     <originalvideofilename />
                     <originalaudiofilename />
                  </logginginfo>
                  <colorinfo>
                     <lut />
                     <lut1 />
                     <asc_sop />
                     <asc_sat />
                     <lut2 />
                  </colorinfo>
                  <labels>
                     <label2>Violet</label2>
                  </labels>
               </clipitem>
               <clipitem id="clipitem-580">
                  <masterclipid>masterclip-334</masterclipid>
                  <name>mymovie.mov</name>
                  <enabled>TRUE</enabled>
                  <duration>72</duration>
                  <rate>
                     <timebase>24</timebase>
                     <ntsc>TRUE</ntsc>
                  </rate>
                  <start>1482</start>
                  <end>1537</end>
                  <in>9</in>
                  <out>64</out>
                  <pproTicksIn>95351256000</pproTicksIn>
                  <pproTicksOut>678053376000</pproTicksOut>
                  <alphatype>none</alphatype>
                  <pixelaspectratio>square</pixelaspectratio>
                  <anamorphic>FALSE</anamorphic>
                  <file id="file-325">
                     <name>mymovie.mov</name>
                     <pathurl>file://localhost/Volumes/mydisk/mymovie.mov</pathurl>
                     <rate>
                        <timebase>24</timebase>
                        <ntsc>TRUE</ntsc>
                     </rate>
                     <duration>72</duration>
                     <timecode>
                        <rate>
                           <timebase>24</timebase>
                           <ntsc>TRUE</ntsc>
                        </rate>
                        <string>14:48:12:12</string>
                        <frame>1279020</frame>
                        <displayformat>NDF</displayformat>
                     </timecode>
                     <media>
                        <video>
                           <samplecharacteristics>
                              <rate>
                                 <timebase>24</timebase>
                                 <ntsc>TRUE</ntsc>
                              </rate>
                              <width>2048</width>
                              <height>858</height>
                              <anamorphic>FALSE</anamorphic>
                              <pixelaspectratio>square</pixelaspectratio>
                              <fielddominance>none</fielddominance>
                           </samplecharacteristics>
                        </video>
                     </media>
                  </file>
                  <filter>
                     <effect>
                        <name>Basic Motion</name>
                        <effectid>basic</effectid>
                        <effectcategory>motion</effectcategory>
                        <effecttype>motion</effecttype>
                        <mediatype>video</mediatype>
                        <pproBypass>false</pproBypass>
                        <parameter authoringApp="PremierePro">
                           <parameterid>scale</parameterid>
                           <name>Scale</name>
                           <valuemin>0</valuemin>
                           <valuemax>1000</valuemax>
                           <value>93.75</value>
                        </parameter>
                        <parameter authoringApp="PremierePro">
                           <parameterid>rotation</parameterid>
                           <name>Rotation</name>
                           <valuemin>-8640</valuemin>
                           <valuemax>8640</valuemax>
                           <value>0</value>
                        </parameter>
                        <parameter authoringApp="PremierePro">
                           <parameterid>center</parameterid>
                           <name>Center</name>
                           <value>
                              <horiz>0</horiz>
                              <vert>0</vert>
                           </value>
                        </parameter>
                        <parameter authoringApp="PremierePro">
                           <parameterid>centerOffset</parameterid>
                           <name>Anchor Point</name>
                           <value>
                              <horiz>0</horiz>
                              <vert>0</vert>
                           </value>
                        </parameter>
                        <parameter authoringApp="PremierePro">
                           <parameterid>antiflicker</parameterid>
                           <name>Anti-flicker Filter</name>
                           <valuemin>0.0</valuemin>
                           <valuemax>1.0</valuemax>
                           <value>0</value>
                        </parameter>
                     </effect>
                  </filter>
                  <logginginfo>
                     <description />
                     <scene />
                     <shottake />
                     <lognote />
                     <good />
                     <originalvideofilename />
                     <originalaudiofilename />
                  </logginginfo>
                  <colorinfo>
                     <lut />
                     <lut1 />
                     <asc_sop />
                     <asc_sat />
                     <lut2 />
                  </colorinfo>
                  <labels>
                     <label2>Violet</label2>
                  </labels>
               </clipitem>
               <clipitem id="clipitem-581">
                  <masterclipid>masterclip-335</masterclipid>
                  <name>mymovie.mov</name>
                  <enabled>TRUE</enabled>
                  <duration>155</duration>
                  <rate>
                     <timebase>24</timebase>
                     <ntsc>TRUE</ntsc>
                  </rate>
                  <start>1537</start>
                  <end>1675</end>
                  <in>9</in>
                  <out>147</out>
                  <pproTicksIn>95351256000</pproTicksIn>
                  <pproTicksOut>1557403848000</pproTicksOut>
                  <alphatype>none</alphatype>
                  <pixelaspectratio>square</pixelaspectratio>
                  <anamorphic>FALSE</anamorphic>
                  <file id="file-326">
                     <name>mymovie.mov</name>
                     <pathurl>file://localhost/Volumes/mydisk/mymovie.mov</pathurl>
                     <rate>
                        <timebase>24</timebase>
                        <ntsc>TRUE</ntsc>
                     </rate>
                     <duration>155</duration>
                     <timecode>
                        <rate>
                           <timebase>24</timebase>
                           <ntsc>TRUE</ntsc>
                        </rate>
                        <string>13:59:28:16</string>
                        <frame>1208848</frame>
                        <displayformat>NDF</displayformat>
                     </timecode>
                     <media>
                        <video>
                           <samplecharacteristics>
                              <rate>
                                 <timebase>24</timebase>
                                 <ntsc>TRUE</ntsc>
                              </rate>
                              <width>2048</width>
                              <height>858</height>
                              <anamorphic>FALSE</anamorphic>
                              <pixelaspectratio>square</pixelaspectratio>
                              <fielddominance>none</fielddominance>
                           </samplecharacteristics>
                        </video>
                     </media>
                  </file>
                  <filter>
                     <effect>
                        <name>Basic Motion</name>
                        <effectid>basic</effectid>
                        <effectcategory>motion</effectcategory>
                        <effecttype>motion</effecttype>
                        <mediatype>video</mediatype>
                        <pproBypass>false</pproBypass>
                        <parameter authoringApp="PremierePro">
                           <parameterid>scale</parameterid>
                           <name>Scale</name>
                           <valuemin>0</valuemin>
                           <valuemax>1000</valuemax>
                           <value>93.75</value>
                        </parameter>
                        <parameter authoringApp="PremierePro">
                           <parameterid>rotation</parameterid>
                           <name>Rotation</name>
                           <valuemin>-8640</valuemin>
                           <valuemax>8640</valuemax>
                           <value>0</value>
                        </parameter>
                        <parameter authoringApp="PremierePro">
                           <parameterid>center</parameterid>
                           <name>Center</name>
                           <value>
                              <horiz>0</horiz>
                              <vert>0</vert>
                           </value>
                        </parameter>
                        <parameter authoringApp="PremierePro">
                           <parameterid>centerOffset</parameterid>
                           <name>Anchor Point</name>
                           <value>
                              <horiz>0</horiz>
                              <vert>0</vert>
                           </value>
                        </parameter>
                        <parameter authoringApp="PremierePro">
                           <parameterid>antiflicker</parameterid>
                           <name>Anti-flicker Filter</name>
                           <valuemin>0.0</valuemin>
                           <valuemax>1.0</valuemax>
                           <value>0</value>
                        </parameter>
                     </effect>
                  </filter>
                  <logginginfo>
                     <description />
                     <scene />
                     <shottake />
                     <lognote />
                     <good />
                     <originalvideofilename />
                     <originalaudiofilename />
                  </logginginfo>
                  <colorinfo>
                     <lut />
                     <lut1 />
                     <asc_sop />
                     <asc_sat />
                     <lut2 />
                  </colorinfo>
                  <labels>
                     <label2>Violet</label2>
                  </labels>
               </clipitem>
               <clipitem id="clipitem-582">
                  <masterclipid>masterclip-336</masterclipid>
                  <name>mymovie.mov</name>
                  <enabled>TRUE</enabled>
                  <duration>85</duration>
                  <rate>
                     <timebase>24</timebase>
                     <ntsc>TRUE</ntsc>
                  </rate>
                  <start>1734</start>
                  <end>1802</end>
                  <in>9</in>
                  <out>77</out>
                  <pproTicksIn>95351256000</pproTicksIn>
                  <pproTicksOut>815782968000</pproTicksOut>
                  <alphatype>none</alphatype>
                  <pixelaspectratio>square</pixelaspectratio>
                  <anamorphic>FALSE</anamorphic>
                  <file id="file-327">
                     <name>mymovie.mov</name>
                     <pathurl>file://localhost/Volumes/mydisk/mymovie.mov</pathurl>
                     <rate>
                        <timebase>24</timebase>
                        <ntsc>TRUE</ntsc>
                     </rate>
                     <duration>85</duration>
                     <timecode>
                        <rate>
                           <timebase>24</timebase>
                           <ntsc>TRUE</ntsc>
                        </rate>
                        <string>13:59:35:04</string>
                        <frame>1209004</frame>
                        <displayformat>NDF</displayformat>
                     </timecode>
                     <media>
                        <video>
                           <samplecharacteristics>
                              <rate>
                                 <timebase>24</timebase>
                                 <ntsc>TRUE</ntsc>
                              </rate>
                              <width>2048</width>
                              <height>858</height>
                              <anamorphic>FALSE</anamorphic>
                              <pixelaspectratio>square</pixelaspectratio>
                              <fielddominance>none</fielddominance>
                           </samplecharacteristics>
                        </video>
                     </media>
                  </file>
                  <filter>
                     <effect>
                        <name>Basic Motion</name>
                        <effectid>basic</effectid>
                        <effectcategory>motion</effectcategory>
                        <effecttype>motion</effecttype>
                        <mediatype>video</mediatype>
                        <pproBypass>false</pproBypass>
                        <parameter authoringApp="PremierePro">
                           <parameterid>scale</parameterid>
                           <name>Scale</name>
                           <valuemin>0</valuemin>
                           <valuemax>1000</valuemax>
                           <value>93.75</value>
                        </parameter>
                        <parameter authoringApp="PremierePro">
                           <parameterid>rotation</parameterid>
                           <name>Rotation</name>
                           <valuemin>-8640</valuemin>
                           <valuemax>8640</valuemax>
                           <value>0</value>
                        </parameter>
                        <parameter authoringApp="PremierePro">
                           <parameterid>center</parameterid>
                           <name>Center</name>
                           <value>
                              <horiz>0</horiz>
                              <vert>0</vert>
                           </value>
                        </parameter>
                        <parameter authoringApp="PremierePro">
                           <parameterid>centerOffset</parameterid>
                           <name>Anchor Point</name>
                           <value>
                              <horiz>0</horiz>
                              <vert>0</vert>
                           </value>
                        </parameter>
                        <parameter authoringApp="PremierePro">
                           <parameterid>antiflicker</parameterid>
                           <name>Anti-flicker Filter</name>
                           <valuemin>0.0</valuemin>
                           <valuemax>1.0</valuemax>
                           <value>0</value>
                        </parameter>
                     </effect>
                  </filter>
                  <logginginfo>
                     <description />
                     <scene />
                     <shottake />
                     <lognote />
                     <good />
                     <originalvideofilename />
                     <originalaudiofilename />
                  </logginginfo>
                  <colorinfo>
                     <lut />
                     <lut1 />
                     <asc_sop />
                     <asc_sat />
                     <lut2 />
                  </colorinfo>
                  <labels>
                     <label2>Iris</label2>
                  </labels>
               </clipitem>
               <clipitem id="clipitem-583">
                  <masterclipid>masterclip-337</masterclipid>
                  <name>mymovie.mov</name>
                  <enabled>TRUE</enabled>
                  <duration>131</duration>
                  <rate>
                     <timebase>24</timebase>
                     <ntsc>TRUE</ntsc>
                  </rate>
                  <start>2306</start>
                  <end>2388</end>
                  <in>25</in>
                  <out>107</out>
                  <pproTicksIn>264864600000</pproTicksIn>
                  <pproTicksOut>1133620488000</pproTicksOut>
                  <alphatype>none</alphatype>
                  <pixelaspectratio>square</pixelaspectratio>
                  <anamorphic>FALSE</anamorphic>
                  <file id="file-328">
                     <name>mymovie.mov</name>
                     <pathurl>file://localhost/Volumes/mydisk/mymovie.mov</pathurl>
                     <rate>
                        <timebase>24</timebase>
                        <ntsc>TRUE</ntsc>
                     </rate>
                     <duration>131</duration>
                     <timecode>
                        <rate>
                           <timebase>24</timebase>
                           <ntsc>TRUE</ntsc>
                        </rate>
                        <string>14:00:06:16</string>
                        <frame>1209760</frame>
                        <displayformat>NDF</displayformat>
                     </timecode>
                     <media>
                        <video>
                           <samplecharacteristics>
                              <rate>
                                 <timebase>24</timebase>
                                 <ntsc>TRUE</ntsc>
                              </rate>
                              <width>2048</width>
                              <height>858</height>
                              <anamorphic>FALSE</anamorphic>
                              <pixelaspectratio>square</pixelaspectratio>
                              <fielddominance>none</fielddominance>
                           </samplecharacteristics>
                        </video>
                     </media>
                  </file>
                  <filter>
                     <effect>
                        <name>Basic Motion</name>
                        <effectid>basic</effectid>
                        <effectcategory>motion</effectcategory>
                        <effecttype>motion</effecttype>
                        <mediatype>video</mediatype>
                        <pproBypass>false</pproBypass>
                        <parameter authoringApp="PremierePro">
                           <parameterid>scale</parameterid>
                           <name>Scale</name>
                           <valuemin>0</valuemin>
                           <valuemax>1000</valuemax>
                           <value>93.75</value>
                        </parameter>
                        <parameter authoringApp="PremierePro">
                           <parameterid>rotation</parameterid>
                           <name>Rotation</name>
                           <valuemin>-8640</valuemin>
                           <valuemax>8640</valuemax>
                           <value>0</value>
                        </parameter>
                        <parameter authoringApp="PremierePro">
                           <parameterid>center</parameterid>
                           <name>Center</name>
                           <value>
                              <horiz>0</horiz>
                              <vert>0</vert>
                           </value>
                        </parameter>
                        <parameter authoringApp="PremierePro">
                           <parameterid>centerOffset</parameterid>
                           <name>Anchor Point</name>
                           <value>
                              <horiz>0</horiz>
                              <vert>0</vert>
                           </value>
                        </parameter>
                        <parameter authoringApp="PremierePro">
                           <parameterid>antiflicker</parameterid>
                           <name>Anti-flicker Filter</name>
                           <valuemin>0.0</valuemin>
                           <valuemax>1.0</valuemax>
                           <value>0</value>
                        </parameter>
                     </effect>
                  </filter>
                  <logginginfo>
                     <description />
                     <scene />
                     <shottake />
                     <lognote />
                     <good />
                     <originalvideofilename />
                     <originalaudiofilename />
                  </logginginfo>
                  <colorinfo>
                     <lut />
                     <lut1 />
                     <asc_sop />
                     <asc_sat />
                     <lut2 />
                  </colorinfo>
                  <labels>
                     <label2>Iris</label2>
                  </labels>
               </clipitem>
               <enabled>FALSE</enabled>
               <locked>FALSE</locked>
            </track>
            <track TL.SQTrackShy="0" TL.SQTrackExpandedHeight="25" TL.SQTrackExpanded="0" MZ.TrackTargeted="0">
               <clipitem id="clipitem-584">
                  <masterclipid>masterclip-338</masterclipid>
                  <name>mymovie.mov</name>
                  <enabled>TRUE</enabled>
                  <duration>131</duration>
                  <rate>
                     <timebase>24</timebase>
                     <ntsc>TRUE</ntsc>
                  </rate>
                  <start>2306</start>
                  <end>2388</end>
                  <in>25</in>
                  <out>107</out>
                  <pproTicksIn>264864600000</pproTicksIn>
                  <pproTicksOut>1133620488000</pproTicksOut>
                  <alphatype>none</alphatype>
                  <pixelaspectratio>square</pixelaspectratio>
                  <anamorphic>FALSE</anamorphic>
                  <file id="file-329">
                     <name>mymovie.mov</name>
                     <pathurl>file://localhost/Volumes/mydisk/mymovie.mov</pathurl>
                     <rate>
                        <timebase>24</timebase>
                        <ntsc>TRUE</ntsc>
                     </rate>
                     <duration>131</duration>
                     <timecode>
                        <rate>
                           <timebase>24</timebase>
                           <ntsc>TRUE</ntsc>
                        </rate>
                        <string>14:00:10:03</string>
                        <frame>1209843</frame>
                        <displayformat>NDF</displayformat>
                     </timecode>
                     <media>
                        <video>
                           <samplecharacteristics>
                              <rate>
                                 <timebase>24</timebase>
                                 <ntsc>TRUE</ntsc>
                              </rate>
                              <width>2048</width>
                              <height>858</height>
                              <anamorphic>FALSE</anamorphic>
                              <pixelaspectratio>square</pixelaspectratio>
                              <fielddominance>none</fielddominance>
                           </samplecharacteristics>
                        </video>
                     </media>
                  </file>
                  <filter>
                     <effect>
                        <name>Basic Motion</name>
                        <effectid>basic</effectid>
                        <effectcategory>motion</effectcategory>
                        <effecttype>motion</effecttype>
                        <mediatype>video</mediatype>
                        <pproBypass>false</pproBypass>
                        <parameter authoringApp="PremierePro">
                           <parameterid>scale</parameterid>
                           <name>Scale</name>
                           <valuemin>0</valuemin>
                           <valuemax>1000</valuemax>
                           <value>93.75</value>
                        </parameter>
                        <parameter authoringApp="PremierePro">
                           <parameterid>rotation</parameterid>
                           <name>Rotation</name>
                           <valuemin>-8640</valuemin>
                           <valuemax>8640</valuemax>
                           <value>0</value>
                        </parameter>
                        <parameter authoringApp="PremierePro">
                           <parameterid>center</parameterid>
                           <name>Center</name>
                           <value>
                              <horiz>0</horiz>
                              <vert>0</vert>
                           </value>
                        </parameter>
                        <parameter authoringApp="PremierePro">
                           <parameterid>centerOffset</parameterid>
                           <name>Anchor Point</name>
                           <value>
                              <horiz>0</horiz>
                              <vert>0</vert>
                           </value>
                        </parameter>
                        <parameter authoringApp="PremierePro">
                           <parameterid>antiflicker</parameterid>
                           <name>Anti-flicker Filter</name>
                           <valuemin>0.0</valuemin>
                           <valuemax>1.0</valuemax>
                           <value>0</value>
                        </parameter>
                     </effect>
                  </filter>
                  <logginginfo>
                     <description />
                     <scene />
                     <shottake />
                     <lognote />
                     <good />
                     <originalvideofilename />
                     <originalaudiofilename />
                  </logginginfo>
                  <colorinfo>
                     <lut />
                     <lut1 />
                     <asc_sop />
                     <asc_sat />
                     <lut2 />
                  </colorinfo>
                  <labels>
                     <label2>Iris</label2>
                  </labels>
               </clipitem>
               <enabled>FALSE</enabled>
               <locked>FALSE</locked>
            </track>
            <track TL.SQTrackShy="0" TL.SQTrackExpandedHeight="25" TL.SQTrackExpanded="0" MZ.TrackTargeted="0">
               <clipitem id="clipitem-585">
                  <masterclipid>masterclip-339</masterclipid>
                  <name>mymovie.mov</name>
                  <enabled>TRUE</enabled>
                  <duration>191</duration>
                  <rate>
                     <timebase>24</timebase>
                     <ntsc>TRUE</ntsc>
                  </rate>
                  <start>222</start>
                  <end>396</end>
                  <in>9</in>
                  <out>183</out>
                  <pproTicksIn>95351256000</pproTicksIn>
                  <pproTicksOut>1938808872000</pproTicksOut>
                  <alphatype>none</alphatype>
                  <pixelaspectratio>square</pixelaspectratio>
                  <anamorphic>FALSE</anamorphic>
                  <file id="file-330">
                     <name>mymovie.mov</name>
                     <pathurl>file://localhost/Volumes/mydisk/mymovie.mov</pathurl>
                     <rate>
                        <timebase>24</timebase>
                        <ntsc>TRUE</ntsc>
                     </rate>
                     <duration>191</duration>
                     <timecode>
                        <rate>
                           <timebase>24</timebase>
                           <ntsc>TRUE</ntsc>
                        </rate>
                        <string>15:31:39:21</string>
                        <frame>1341597</frame>
                        <displayformat>NDF</displayformat>
                     </timecode>
                     <media>
                        <video>
                           <samplecharacteristics>
                              <rate>
                                 <timebase>24</timebase>
                                 <ntsc>TRUE</ntsc>
                              </rate>
                              <width>2048</width>
                              <height>858</height>
                              <anamorphic>FALSE</anamorphic>
                              <pixelaspectratio>square</pixelaspectratio>
                              <fielddominance>none</fielddominance>
                           </samplecharacteristics>
                        </video>
                     </media>
                  </file>
                  <filter>
                     <effect>
                        <name>Basic Motion</name>
                        <effectid>basic</effectid>
                        <effectcategory>motion</effectcategory>
                        <effecttype>motion</effecttype>
                        <mediatype>video</mediatype>
                        <pproBypass>false</pproBypass>
                        <parameter authoringApp="PremierePro">
                           <parameterid>scale</parameterid>
                           <name>Scale</name>
                           <valuemin>0</valuemin>
                           <valuemax>1000</valuemax>
                           <value>93.8</value>
                        </parameter>
                        <parameter authoringApp="PremierePro">
                           <parameterid>rotation</parameterid>
                           <name>Rotation</name>
                           <valuemin>-8640</valuemin>
                           <valuemax>8640</valuemax>
                           <value>0</value>
                        </parameter>
                        <parameter authoringApp="PremierePro">
                           <parameterid>center</parameterid>
                           <name>Center</name>
                           <value>
                              <horiz>0</horiz>
                              <vert>0</vert>
                           </value>
                        </parameter>
                        <parameter authoringApp="PremierePro">
                           <parameterid>centerOffset</parameterid>
                           <name>Anchor Point</name>
                           <value>
                              <horiz>0</horiz>
                              <vert>0</vert>
                           </value>
                        </parameter>
                        <parameter authoringApp="PremierePro">
                           <parameterid>antiflicker</parameterid>
                           <name>Anti-flicker Filter</name>
                           <valuemin>0.0</valuemin>
                           <valuemax>1.0</valuemax>
                           <value>0</value>
                        </parameter>
                     </effect>
                  </filter>
                  <logginginfo>
                     <description />
                     <scene />
                     <shottake />
                     <lognote />
                     <good />
                     <originalvideofilename />
                     <originalaudiofilename />
                  </logginginfo>
                  <colorinfo>
                     <lut />
                     <lut1 />
                     <asc_sop />
                     <asc_sat />
                     <lut2 />
                  </colorinfo>
                  <labels>
                     <label2>Violet</label2>
                  </labels>
               </clipitem>
               <clipitem id="clipitem-586">
                  <masterclipid>masterclip-340</masterclipid>
                  <name>mymovie.mov</name>
                  <enabled>TRUE</enabled>
                  <duration>122</duration>
                  <rate>
                     <timebase>24</timebase>
                     <ntsc>TRUE</ntsc>
                  </rate>
                  <start>493</start>
                  <end>598</end>
                  <in>9</in>
                  <out>114</out>
                  <pproTicksIn>95351256000</pproTicksIn>
                  <pproTicksOut>1207782576000</pproTicksOut>
                  <alphatype>none</alphatype>
                  <pixelaspectratio>square</pixelaspectratio>
                  <anamorphic>FALSE</anamorphic>
                  <file id="file-331">
                     <name>mymovie.mov</name>
                     <pathurl>file://localhost/Volumes/mydisk/mymovie.mov</pathurl>
                     <rate>
                        <timebase>24</timebase>
                        <ntsc>TRUE</ntsc>
                     </rate>
                     <duration>122</duration>
                     <timecode>
                        <rate>
                           <timebase>24</timebase>
                           <ntsc>TRUE</ntsc>
                        </rate>
                        <string>16:52:01:17</string>
                        <frame>1457321</frame>
                        <displayformat>NDF</displayformat>
                     </timecode>
                     <media>
                        <video>
                           <samplecharacteristics>
                              <rate>
                                 <timebase>24</timebase>
                                 <ntsc>TRUE</ntsc>
                              </rate>
                              <width>2048</width>
                              <height>858</height>
                              <anamorphic>FALSE</anamorphic>
                              <pixelaspectratio>square</pixelaspectratio>
                              <fielddominance>none</fielddominance>
                           </samplecharacteristics>
                        </video>
                     </media>
                  </file>
                  <filter>
                     <effect>
                        <name>Basic Motion</name>
                        <effectid>basic</effectid>
                        <effectcategory>motion</effectcategory>
                        <effecttype>motion</effecttype>
                        <mediatype>video</mediatype>
                        <pproBypass>false</pproBypass>
                        <parameter authoringApp="PremierePro">
                           <parameterid>scale</parameterid>
                           <name>Scale</name>
                           <valuemin>0</valuemin>
                           <valuemax>1000</valuemax>
                           <value>93.8</value>
                        </parameter>
                        <parameter authoringApp="PremierePro">
                           <parameterid>rotation</parameterid>
                           <name>Rotation</name>
                           <valuemin>-8640</valuemin>
                           <valuemax>8640</valuemax>
                           <value>0</value>
                        </parameter>
                        <parameter authoringApp="PremierePro">
                           <parameterid>center</parameterid>
                           <name>Center</name>
                           <value>
                              <horiz>0</horiz>
                              <vert>0</vert>
                           </value>
                        </parameter>
                        <parameter authoringApp="PremierePro">
                           <parameterid>centerOffset</parameterid>
                           <name>Anchor Point</name>
                           <value>
                              <horiz>0</horiz>
                              <vert>0</vert>
                           </value>
                        </parameter>
                        <parameter authoringApp="PremierePro">
                           <parameterid>antiflicker</parameterid>
                           <name>Anti-flicker Filter</name>
                           <valuemin>0.0</valuemin>
                           <valuemax>1.0</valuemax>
                           <value>0</value>
                        </parameter>
                     </effect>
                  </filter>
                  <logginginfo>
                     <description />
                     <scene />
                     <shottake />
                     <lognote />
                     <good />
                     <originalvideofilename />
                     <originalaudiofilename />
                  </logginginfo>
                  <colorinfo>
                     <lut />
                     <lut1 />
                     <asc_sop />
                     <asc_sat />
                     <lut2 />
                  </colorinfo>
                  <labels>
                     <label2>Violet</label2>
                  </labels>
               </clipitem>
               <clipitem id="clipitem-587">
                  <masterclipid>masterclip-341</masterclipid>
                  <name>mymovie.mov</name>
                  <enabled>TRUE</enabled>
                  <duration>123</duration>
                  <rate>
                     <timebase>24</timebase>
                     <ntsc>TRUE</ntsc>
                  </rate>
                  <start>598</start>
                  <end>692</end>
                  <in>9</in>
                  <out>103</out>
                  <pproTicksIn>95351256000</pproTicksIn>
                  <pproTicksOut>1091242152000</pproTicksOut>
                  <alphatype>none</alphatype>
                  <pixelaspectratio>square</pixelaspectratio>
                  <anamorphic>FALSE</anamorphic>
                  <file id="file-332">
                     <name>mymovie.mov</name>
                     <pathurl>file://localhost/Volumes/mydisk/mymovie.mov</pathurl>
                     <rate>
                        <timebase>24</timebase>
                        <ntsc>TRUE</ntsc>
                     </rate>
                     <duration>123</duration>
                     <timecode>
                        <rate>
                           <timebase>24</timebase>
                           <ntsc>TRUE</ntsc>
                        </rate>
                        <string>16:52:17:13</string>
                        <frame>1457701</frame>
                        <displayformat>NDF</displayformat>
                     </timecode>
                     <media>
                        <video>
                           <samplecharacteristics>
                              <rate>
                                 <timebase>24</timebase>
                                 <ntsc>TRUE</ntsc>
                              </rate>
                              <width>2048</width>
                              <height>858</height>
                              <anamorphic>FALSE</anamorphic>
                              <pixelaspectratio>square</pixelaspectratio>
                              <fielddominance>none</fielddominance>
                           </samplecharacteristics>
                        </video>
                     </media>
                  </file>
                  <filter>
                     <effect>
                        <name>Basic Motion</name>
                        <effectid>basic</effectid>
                        <effectcategory>motion</effectcategory>
                        <effecttype>motion</effecttype>
                        <mediatype>video</mediatype>
                        <pproBypass>false</pproBypass>
                        <parameter authoringApp="PremierePro">
                           <parameterid>scale</parameterid>
                           <name>Scale</name>
                           <valuemin>0</valuemin>
                           <valuemax>1000</valuemax>
                           <value>93.8</value>
                        </parameter>
                        <parameter authoringApp="PremierePro">
                           <parameterid>rotation</parameterid>
                           <name>Rotation</name>
                           <valuemin>-8640</valuemin>
                           <valuemax>8640</valuemax>
                           <value>0</value>
                        </parameter>
                        <parameter authoringApp="PremierePro">
                           <parameterid>center</parameterid>
                           <name>Center</name>
                           <value>
                              <horiz>0</horiz>
                              <vert>0</vert>
                           </value>
                        </parameter>
                        <parameter authoringApp="PremierePro">
                           <parameterid>centerOffset</parameterid>
                           <name>Anchor Point</name>
                           <value>
                              <horiz>0</horiz>
                              <vert>0</vert>
                           </value>
                        </parameter>
                        <parameter authoringApp="PremierePro">
                           <parameterid>antiflicker</parameterid>
                           <name>Anti-flicker Filter</name>
                           <valuemin>0.0</valuemin>
                           <valuemax>1.0</valuemax>
                           <value>0</value>
                        </parameter>
                     </effect>
                  </filter>
                  <logginginfo>
                     <description />
                     <scene />
                     <shottake />
                     <lognote />
                     <good />
                     <originalvideofilename />
                     <originalaudiofilename />
                  </logginginfo>
                  <colorinfo>
                     <lut />
                     <lut1 />
                     <asc_sop />
                     <asc_sat />
                     <lut2 />
                  </colorinfo>
                  <labels>
                     <label2>Violet</label2>
                  </labels>
               </clipitem>
               <clipitem id="clipitem-588">
                  <masterclipid>masterclip-342</masterclipid>
                  <name>mymovie.mov</name>
                  <enabled>TRUE</enabled>
                  <duration>123</duration>
                  <rate>
                     <timebase>24</timebase>
                     <ntsc>TRUE</ntsc>
                  </rate>
                  <start>692</start>
                  <end>780</end>
                  <in>9</in>
                  <out>97</out>
                  <pproTicksIn>95351256000</pproTicksIn>
                  <pproTicksOut>1027674648000</pproTicksOut>
                  <alphatype>none</alphatype>
                  <pixelaspectratio>square</pixelaspectratio>
                  <anamorphic>FALSE</anamorphic>
                  <file id="file-333">
                     <name>mymovie.mov</name>
                     <pathurl>file://localhost/Volumes/mydisk/mymovie.mov</pathurl>
                     <rate>
                        <timebase>24</timebase>
                        <ntsc>TRUE</ntsc>
                     </rate>
                     <duration>123</duration>
                     <timecode>
                        <rate>
                           <timebase>24</timebase>
                           <ntsc>TRUE</ntsc>
                        </rate>
                        <string>15:36:57:18</string>
                        <frame>1349226</frame>
                        <displayformat>NDF</displayformat>
                     </timecode>
                     <media>
                        <video>
                           <samplecharacteristics>
                              <rate>
                                 <timebase>24</timebase>
                                 <ntsc>TRUE</ntsc>
                              </rate>
                              <width>2048</width>
                              <height>858</height>
                              <anamorphic>FALSE</anamorphic>
                              <pixelaspectratio>square</pixelaspectratio>
                              <fielddominance>none</fielddominance>
                           </samplecharacteristics>
                        </video>
                     </media>
                  </file>
                  <filter>
                     <effect>
                        <name>Basic Motion</name>
                        <effectid>basic</effectid>
                        <effectcategory>motion</effectcategory>
                        <effecttype>motion</effecttype>
                        <mediatype>video</mediatype>
                        <pproBypass>false</pproBypass>
                        <parameter authoringApp="PremierePro">
                           <parameterid>scale</parameterid>
                           <name>Scale</name>
                           <valuemin>0</valuemin>
                           <valuemax>1000</valuemax>
                           <value>93.8</value>
                        </parameter>
                        <parameter authoringApp="PremierePro">
                           <parameterid>rotation</parameterid>
                           <name>Rotation</name>
                           <valuemin>-8640</valuemin>
                           <valuemax>8640</valuemax>
                           <value>0</value>
                        </parameter>
                        <parameter authoringApp="PremierePro">
                           <parameterid>center</parameterid>
                           <name>Center</name>
                           <value>
                              <horiz>0</horiz>
                              <vert>0</vert>
                           </value>
                        </parameter>
                        <parameter authoringApp="PremierePro">
                           <parameterid>centerOffset</parameterid>
                           <name>Anchor Point</name>
                           <value>
                              <horiz>0</horiz>
                              <vert>0</vert>
                           </value>
                        </parameter>
                        <parameter authoringApp="PremierePro">
                           <parameterid>antiflicker</parameterid>
                           <name>Anti-flicker Filter</name>
                           <valuemin>0.0</valuemin>
                           <valuemax>1.0</valuemax>
                           <value>0</value>
                        </parameter>
                     </effect>
                  </filter>
                  <logginginfo>
                     <description />
                     <scene />
                     <shottake />
                     <lognote />
                     <good />
                     <originalvideofilename />
                     <originalaudiofilename />
                  </logginginfo>
                  <colorinfo>
                     <lut />
                     <lut1 />
                     <asc_sop />
                     <asc_sat />
                     <lut2 />
                  </colorinfo>
                  <labels>
                     <label2>Violet</label2>
                  </labels>
               </clipitem>
               <clipitem id="clipitem-589">
                  <masterclipid>masterclip-343</masterclipid>
                  <name>mymovie.mov</name>
                  <enabled>TRUE</enabled>
                  <duration>300</duration>
                  <rate>
                     <timebase>24</timebase>
                     <ntsc>TRUE</ntsc>
                  </rate>
                  <start>870</start>
                  <end>1135</end>
                  <in>9</in>
                  <out>274</out>
                  <pproTicksIn>95351256000</pproTicksIn>
                  <pproTicksOut>2902916016000</pproTicksOut>
                  <alphatype>none</alphatype>
                  <pixelaspectratio>square</pixelaspectratio>
                  <anamorphic>FALSE</anamorphic>
                  <file id="file-334">
                     <name>mymovie.mov</name>
                     <pathurl>file://localhost/Volumes/mydisk/mymovie.mov</pathurl>
                     <rate>
                        <timebase>24</timebase>
                        <ntsc>TRUE</ntsc>
                     </rate>
                     <duration>300</duration>
                     <timecode>
                        <rate>
                           <timebase>24</timebase>
                           <ntsc>TRUE</ntsc>
                        </rate>
                        <string>15:32:17:09</string>
                        <frame>1342497</frame>
                        <displayformat>NDF</displayformat>
                     </timecode>
                     <media>
                        <video>
                           <samplecharacteristics>
                              <rate>
                                 <timebase>24</timebase>
                                 <ntsc>TRUE</ntsc>
                              </rate>
                              <width>2048</width>
                              <height>858</height>
                              <anamorphic>FALSE</anamorphic>
                              <pixelaspectratio>square</pixelaspectratio>
                              <fielddominance>none</fielddominance>
                           </samplecharacteristics>
                        </video>
                     </media>
                  </file>
                  <filter>
                     <effect>
                        <name>Basic Motion</name>
                        <effectid>basic</effectid>
                        <effectcategory>motion</effectcategory>
                        <effecttype>motion</effecttype>
                        <mediatype>video</mediatype>
                        <pproBypass>false</pproBypass>
                        <parameter authoringApp="PremierePro">
                           <parameterid>scale</parameterid>
                           <name>Scale</name>
                           <valuemin>0</valuemin>
                           <valuemax>1000</valuemax>
                           <value>93.75</value>
                        </parameter>
                        <parameter authoringApp="PremierePro">
                           <parameterid>rotation</parameterid>
                           <name>Rotation</name>
                           <valuemin>-8640</valuemin>
                           <valuemax>8640</valuemax>
                           <value>0</value>
                        </parameter>
                        <parameter authoringApp="PremierePro">
                           <parameterid>center</parameterid>
                           <name>Center</name>
                           <value>
                              <horiz>0</horiz>
                              <vert>0</vert>
                           </value>
                        </parameter>
                        <parameter authoringApp="PremierePro">
                           <parameterid>centerOffset</parameterid>
                           <name>Anchor Point</name>
                           <value>
                              <horiz>0</horiz>
                              <vert>0</vert>
                           </value>
                        </parameter>
                        <parameter authoringApp="PremierePro">
                           <parameterid>antiflicker</parameterid>
                           <name>Anti-flicker Filter</name>
                           <valuemin>0.0</valuemin>
                           <valuemax>1.0</valuemax>
                           <value>0</value>
                        </parameter>
                     </effect>
                  </filter>
                  <logginginfo>
                     <description />
                     <scene />
                     <shottake />
                     <lognote />
                     <good />
                     <originalvideofilename />
                     <originalaudiofilename />
                  </logginginfo>
                  <colorinfo>
                     <lut />
                     <lut1 />
                     <asc_sop />
                     <asc_sat />
                     <lut2 />
                  </colorinfo>
                  <labels>
                     <label2>Violet</label2>
                  </labels>
               </clipitem>
               <clipitem id="clipitem-590">
                  <masterclipid>masterclip-344</masterclipid>
                  <name>mymovie.mov</name>
                  <enabled>TRUE</enabled>
                  <duration>143</duration>
                  <rate>
                     <timebase>24</timebase>
                     <ntsc>TRUE</ntsc>
                  </rate>
                  <start>1135</start>
                  <end>1229</end>
                  <in>25</in>
                  <out>119</out>
                  <pproTicksIn>264864600000</pproTicksIn>
                  <pproTicksOut>1260755496000</pproTicksOut>
                  <alphatype>none</alphatype>
                  <pixelaspectratio>square</pixelaspectratio>
                  <anamorphic>FALSE</anamorphic>
                  <file id="file-335">
                     <name>mymovie.mov</name>
                     <pathurl>file://localhost/Volumes/mydisk/mymovie.mov</pathurl>
                     <rate>
                        <timebase>24</timebase>
                        <ntsc>TRUE</ntsc>
                     </rate>
                     <duration>143</duration>
                     <timecode>
                        <rate>
                           <timebase>24</timebase>
                           <ntsc>TRUE</ntsc>
                        </rate>
                        <string>14:47:48:02</string>
                        <frame>1278434</frame>
                        <displayformat>NDF</displayformat>
                     </timecode>
                     <media>
                        <video>
                           <samplecharacteristics>
                              <rate>
                                 <timebase>24</timebase>
                                 <ntsc>TRUE</ntsc>
                              </rate>
                              <width>2048</width>
                              <height>858</height>
                              <anamorphic>FALSE</anamorphic>
                              <pixelaspectratio>square</pixelaspectratio>
                              <fielddominance>none</fielddominance>
                           </samplecharacteristics>
                        </video>
                     </media>
                  </file>
                  <filter>
                     <effect>
                        <name>Basic Motion</name>
                        <effectid>basic</effectid>
                        <effectcategory>motion</effectcategory>
                        <effecttype>motion</effecttype>
                        <mediatype>video</mediatype>
                        <pproBypass>false</pproBypass>
                        <parameter authoringApp="PremierePro">
                           <parameterid>scale</parameterid>
                           <name>Scale</name>
                           <valuemin>0</valuemin>
                           <valuemax>1000</valuemax>
                           <value>93.8</value>
                        </parameter>
                        <parameter authoringApp="PremierePro">
                           <parameterid>rotation</parameterid>
                           <name>Rotation</name>
                           <valuemin>-8640</valuemin>
                           <valuemax>8640</valuemax>
                           <value>0</value>
                        </parameter>
                        <parameter authoringApp="PremierePro">
                           <parameterid>center</parameterid>
                           <name>Center</name>
                           <value>
                              <horiz>0</horiz>
                              <vert>0</vert>
                           </value>
                        </parameter>
                        <parameter authoringApp="PremierePro">
                           <parameterid>centerOffset</parameterid>
                           <name>Anchor Point</name>
                           <value>
                              <horiz>0</horiz>
                              <vert>0</vert>
                           </value>
                        </parameter>
                        <parameter authoringApp="PremierePro">
                           <parameterid>antiflicker</parameterid>
                           <name>Anti-flicker Filter</name>
                           <valuemin>0.0</valuemin>
                           <valuemax>1.0</valuemax>
                           <value>0</value>
                        </parameter>
                     </effect>
                  </filter>
                  <logginginfo>
                     <description />
                     <scene />
                     <shottake />
                     <lognote />
                     <good />
                     <originalvideofilename />
                     <originalaudiofilename />
                  </logginginfo>
                  <colorinfo>
                     <lut />
                     <lut1 />
                     <asc_sop />
                     <asc_sat />
                     <lut2 />
                  </colorinfo>
                  <labels>
                     <label2>Violet</label2>
                  </labels>
               </clipitem>
               <clipitem id="clipitem-591">
                  <masterclipid>masterclip-345</masterclipid>
                  <name>mymovie.mov</name>
                  <enabled>TRUE</enabled>
                  <duration>172</duration>
                  <rate>
                     <timebase>24</timebase>
                     <ntsc>TRUE</ntsc>
                  </rate>
                  <start>1229</start>
                  <end>1357</end>
                  <in>36</in>
                  <out>164</out>
                  <pproTicksIn>381405024000</pproTicksIn>
                  <pproTicksOut>1737511776000</pproTicksOut>
                  <alphatype>none</alphatype>
                  <pixelaspectratio>square</pixelaspectratio>
                  <anamorphic>FALSE</anamorphic>
                  <file id="file-336">
                     <name>mymovie.mov</name>
                     <pathurl>file://localhost/Volumes/mydisk/mymovie.mov</pathurl>
                     <rate>
                        <timebase>24</timebase>
                        <ntsc>TRUE</ntsc>
                     </rate>
                     <duration>172</duration>
                     <timecode>
                        <rate>
                           <timebase>24</timebase>
                           <ntsc>TRUE</ntsc>
                        </rate>
                        <string>16:42:35:16</string>
                        <frame>1443736</frame>
                        <displayformat>NDF</displayformat>
                     </timecode>
                     <media>
                        <video>
                           <samplecharacteristics>
                              <rate>
                                 <timebase>24</timebase>
                                 <ntsc>TRUE</ntsc>
                              </rate>
                              <width>2048</width>
                              <height>858</height>
                              <anamorphic>FALSE</anamorphic>
                              <pixelaspectratio>square</pixelaspectratio>
                              <fielddominance>none</fielddominance>
                           </samplecharacteristics>
                        </video>
                     </media>
                  </file>
                  <filter>
                     <effect>
                        <name>Basic Motion</name>
                        <effectid>basic</effectid>
                        <effectcategory>motion</effectcategory>
                        <effecttype>motion</effecttype>
                        <mediatype>video</mediatype>
                        <pproBypass>false</pproBypass>
                        <parameter authoringApp="PremierePro">
                           <parameterid>scale</parameterid>
                           <name>Scale</name>
                           <valuemin>0</valuemin>
                           <valuemax>1000</valuemax>
                           <value>93.8</value>
                        </parameter>
                        <parameter authoringApp="PremierePro">
                           <parameterid>rotation</parameterid>
                           <name>Rotation</name>
                           <valuemin>-8640</valuemin>
                           <valuemax>8640</valuemax>
                           <value>0</value>
                        </parameter>
                        <parameter authoringApp="PremierePro">
                           <parameterid>center</parameterid>
                           <name>Center</name>
                           <value>
                              <horiz>0</horiz>
                              <vert>0</vert>
                           </value>
                        </parameter>
                        <parameter authoringApp="PremierePro">
                           <parameterid>centerOffset</parameterid>
                           <name>Anchor Point</name>
                           <value>
                              <horiz>0</horiz>
                              <vert>0</vert>
                           </value>
                        </parameter>
                        <parameter authoringApp="PremierePro">
                           <parameterid>antiflicker</parameterid>
                           <name>Anti-flicker Filter</name>
                           <valuemin>0.0</valuemin>
                           <valuemax>1.0</valuemax>
                           <value>0</value>
                        </parameter>
                     </effect>
                  </filter>
                  <logginginfo>
                     <description />
                     <scene />
                     <shottake />
                     <lognote />
                     <good />
                     <originalvideofilename />
                     <originalaudiofilename />
                  </logginginfo>
                  <colorinfo>
                     <lut />
                     <lut1 />
                     <asc_sop />
                     <asc_sat />
                     <lut2 />
                  </colorinfo>
                  <labels>
                     <label2>Violet</label2>
                  </labels>
               </clipitem>
               <clipitem id="clipitem-592">
                  <masterclipid>masterclip-346</masterclipid>
                  <name>mymovie.mov</name>
                  <enabled>TRUE</enabled>
                  <duration>68</duration>
                  <rate>
                     <timebase>24</timebase>
                     <ntsc>TRUE</ntsc>
                  </rate>
                  <start>1357</start>
                  <end>1408</end>
                  <in>9</in>
                  <out>60</out>
                  <pproTicksIn>95351256000</pproTicksIn>
                  <pproTicksOut>635675040000</pproTicksOut>
                  <alphatype>none</alphatype>
                  <pixelaspectratio>square</pixelaspectratio>
                  <anamorphic>FALSE</anamorphic>
                  <file id="file-337">
                     <name>mymovie.mov</name>
                     <pathurl>file://localhost/Volumes/mydisk/mymovie.mov</pathurl>
                     <rate>
                        <timebase>24</timebase>
                        <ntsc>TRUE</ntsc>
                     </rate>
                     <duration>68</duration>
                     <timecode>
                        <rate>
                           <timebase>24</timebase>
                           <ntsc>TRUE</ntsc>
                        </rate>
                        <string>15:38:12:13</string>
                        <frame>1351021</frame>
                        <displayformat>NDF</displayformat>
                     </timecode>
                     <media>
                        <video>
                           <samplecharacteristics>
                              <rate>
                                 <timebase>24</timebase>
                                 <ntsc>TRUE</ntsc>
                              </rate>
                              <width>2048</width>
                              <height>858</height>
                              <anamorphic>FALSE</anamorphic>
                              <pixelaspectratio>square</pixelaspectratio>
                              <fielddominance>none</fielddominance>
                           </samplecharacteristics>
                        </video>
                     </media>
                  </file>
                  <filter>
                     <effect>
                        <name>Basic Motion</name>
                        <effectid>basic</effectid>
                        <effectcategory>motion</effectcategory>
                        <effecttype>motion</effecttype>
                        <mediatype>video</mediatype>
                        <pproBypass>false</pproBypass>
                        <parameter authoringApp="PremierePro">
                           <parameterid>scale</parameterid>
                           <name>Scale</name>
                           <valuemin>0</valuemin>
                           <valuemax>1000</valuemax>
                           <value>93.8</value>
                        </parameter>
                        <parameter authoringApp="PremierePro">
                           <parameterid>rotation</parameterid>
                           <name>Rotation</name>
                           <valuemin>-8640</valuemin>
                           <valuemax>8640</valuemax>
                           <value>0</value>
                        </parameter>
                        <parameter authoringApp="PremierePro">
                           <parameterid>center</parameterid>
                           <name>Center</name>
                           <value>
                              <horiz>0</horiz>
                              <vert>0</vert>
                           </value>
                        </parameter>
                        <parameter authoringApp="PremierePro">
                           <parameterid>centerOffset</parameterid>
                           <name>Anchor Point</name>
                           <value>
                              <horiz>0</horiz>
                              <vert>0</vert>
                           </value>
                        </parameter>
                        <parameter authoringApp="PremierePro">
                           <parameterid>antiflicker</parameterid>
                           <name>Anti-flicker Filter</name>
                           <valuemin>0.0</valuemin>
                           <valuemax>1.0</valuemax>
                           <value>0</value>
                        </parameter>
                     </effect>
                  </filter>
                  <logginginfo>
                     <description />
                     <scene />
                     <shottake />
                     <lognote />
                     <good />
                     <originalvideofilename />
                     <originalaudiofilename />
                  </logginginfo>
                  <colorinfo>
                     <lut />
                     <lut1 />
                     <asc_sop />
                     <asc_sat />
                     <lut2 />
                  </colorinfo>
                  <labels>
                     <label2>Violet</label2>
                  </labels>
               </clipitem>
               <clipitem id="clipitem-593">
                  <masterclipid>masterclip-347</masterclipid>
                  <name>mymovie.mov</name>
                  <enabled>TRUE</enabled>
                  <duration>91</duration>
                  <rate>
                     <timebase>24</timebase>
                     <ntsc>TRUE</ntsc>
                  </rate>
                  <start>1408</start>
                  <end>1482</end>
                  <in>9</in>
                  <out>83</out>
                  <pproTicksIn>95351256000</pproTicksIn>
                  <pproTicksOut>879350472000</pproTicksOut>
                  <alphatype>none</alphatype>
                  <pixelaspectratio>square</pixelaspectratio>
                  <anamorphic>FALSE</anamorphic>
                  <file id="file-338">
                     <name>mymovie.mov</name>
                     <pathurl>file://localhost/Volumes/mydisk/mymovie.mov</pathurl>
                     <rate>
                        <timebase>24</timebase>
                        <ntsc>TRUE</ntsc>
                     </rate>
                     <duration>91</duration>
                     <timecode>
                        <rate>
                           <timebase>24</timebase>
                           <ntsc>TRUE</ntsc>
                        </rate>
                        <string>13:59:24:05</string>
                        <frame>1208741</frame>
                        <displayformat>NDF</displayformat>
                     </timecode>
                     <media>
                        <video>
                           <samplecharacteristics>
                              <rate>
                                 <timebase>24</timebase>
                                 <ntsc>TRUE</ntsc>
                              </rate>
                              <width>2048</width>
                              <height>858</height>
                              <anamorphic>FALSE</anamorphic>
                              <pixelaspectratio>square</pixelaspectratio>
                              <fielddominance>none</fielddominance>
                           </samplecharacteristics>
                        </video>
                     </media>
                  </file>
                  <filter>
                     <effect>
                        <name>Basic Motion</name>
                        <effectid>basic</effectid>
                        <effectcategory>motion</effectcategory>
                        <effecttype>motion</effecttype>
                        <mediatype>video</mediatype>
                        <pproBypass>false</pproBypass>
                        <parameter authoringApp="PremierePro">
                           <parameterid>scale</parameterid>
                           <name>Scale</name>
                           <valuemin>0</valuemin>
                           <valuemax>1000</valuemax>
                           <value>93.8</value>
                        </parameter>
                        <parameter authoringApp="PremierePro">
                           <parameterid>rotation</parameterid>
                           <name>Rotation</name>
                           <valuemin>-8640</valuemin>
                           <valuemax>8640</valuemax>
                           <value>0</value>
                        </parameter>
                        <parameter authoringApp="PremierePro">
                           <parameterid>center</parameterid>
                           <name>Center</name>
                           <value>
                              <horiz>0</horiz>
                              <vert>0</vert>
                           </value>
                        </parameter>
                        <parameter authoringApp="PremierePro">
                           <parameterid>centerOffset</parameterid>
                           <name>Anchor Point</name>
                           <value>
                              <horiz>0</horiz>
                              <vert>0</vert>
                           </value>
                        </parameter>
                        <parameter authoringApp="PremierePro">
                           <parameterid>antiflicker</parameterid>
                           <name>Anti-flicker Filter</name>
                           <valuemin>0.0</valuemin>
                           <valuemax>1.0</valuemax>
                           <value>0</value>
                        </parameter>
                     </effect>
                  </filter>
                  <logginginfo>
                     <description />
                     <scene />
                     <shottake />
                     <lognote />
                     <good />
                     <originalvideofilename />
                     <originalaudiofilename />
                  </logginginfo>
                  <colorinfo>
                     <lut />
                     <lut1 />
                     <asc_sop />
                     <asc_sat />
                     <lut2 />
                  </colorinfo>
                  <labels>
                     <label2>Violet</label2>
                  </labels>
               </clipitem>
               <clipitem id="clipitem-594">
                  <masterclipid>masterclip-348</masterclipid>
                  <name>mymovie.mov</name>
                  <enabled>TRUE</enabled>
                  <duration>72</duration>
                  <rate>
                     <timebase>24</timebase>
                     <ntsc>TRUE</ntsc>
                  </rate>
                  <start>1482</start>
                  <end>1537</end>
                  <in>9</in>
                  <out>64</out>
                  <pproTicksIn>95351256000</pproTicksIn>
                  <pproTicksOut>678053376000</pproTicksOut>
                  <alphatype>none</alphatype>
                  <pixelaspectratio>square</pixelaspectratio>
                  <anamorphic>FALSE</anamorphic>
                  <file id="file-339">
                     <name>mymovie.mov</name>
                     <pathurl>file://localhost/Volumes/mydisk/mymovie.mov</pathurl>
                     <rate>
                        <timebase>24</timebase>
                        <ntsc>TRUE</ntsc>
                     </rate>
                     <duration>72</duration>
                     <timecode>
                        <rate>
                           <timebase>24</timebase>
                           <ntsc>TRUE</ntsc>
                        </rate>
                        <string>14:48:12:12</string>
                        <frame>1279020</frame>
                        <displayformat>NDF</displayformat>
                     </timecode>
                     <media>
                        <video>
                           <samplecharacteristics>
                              <rate>
                                 <timebase>24</timebase>
                                 <ntsc>TRUE</ntsc>
                              </rate>
                              <width>2048</width>
                              <height>858</height>
                              <anamorphic>FALSE</anamorphic>
                              <pixelaspectratio>square</pixelaspectratio>
                              <fielddominance>none</fielddominance>
                           </samplecharacteristics>
                        </video>
                     </media>
                  </file>
                  <filter>
                     <effect>
                        <name>Basic Motion</name>
                        <effectid>basic</effectid>
                        <effectcategory>motion</effectcategory>
                        <effecttype>motion</effecttype>
                        <mediatype>video</mediatype>
                        <pproBypass>false</pproBypass>
                        <parameter authoringApp="PremierePro">
                           <parameterid>scale</parameterid>
                           <name>Scale</name>
                           <valuemin>0</valuemin>
                           <valuemax>1000</valuemax>
                           <value>93.8</value>
                        </parameter>
                        <parameter authoringApp="PremierePro">
                           <parameterid>rotation</parameterid>
                           <name>Rotation</name>
                           <valuemin>-8640</valuemin>
                           <valuemax>8640</valuemax>
                           <value>0</value>
                        </parameter>
                        <parameter authoringApp="PremierePro">
                           <parameterid>center</parameterid>
                           <name>Center</name>
                           <value>
                              <horiz>0</horiz>
                              <vert>0</vert>
                           </value>
                        </parameter>
                        <parameter authoringApp="PremierePro">
                           <parameterid>centerOffset</parameterid>
                           <name>Anchor Point</name>
                           <value>
                              <horiz>0</horiz>
                              <vert>0</vert>
                           </value>
                        </parameter>
                        <parameter authoringApp="PremierePro">
                           <parameterid>antiflicker</parameterid>
                           <name>Anti-flicker Filter</name>
                           <valuemin>0.0</valuemin>
                           <valuemax>1.0</valuemax>
                           <value>0</value>
                        </parameter>
                     </effect>
                  </filter>
                  <logginginfo>
                     <description />
                     <scene />
                     <shottake />
                     <lognote />
                     <good />
                     <originalvideofilename />
                     <originalaudiofilename />
                  </logginginfo>
                  <colorinfo>
                     <lut />
                     <lut1 />
                     <asc_sop />
                     <asc_sat />
                     <lut2 />
                  </colorinfo>
                  <labels>
                     <label2>Violet</label2>
                  </labels>
               </clipitem>
               <clipitem id="clipitem-595">
                  <masterclipid>masterclip-349</masterclipid>
                  <name>mymovie.mov</name>
                  <enabled>TRUE</enabled>
                  <duration>155</duration>
                  <rate>
                     <timebase>24</timebase>
                     <ntsc>TRUE</ntsc>
                  </rate>
                  <start>1537</start>
                  <end>1675</end>
                  <in>9</in>
                  <out>147</out>
                  <pproTicksIn>95351256000</pproTicksIn>
                  <pproTicksOut>1557403848000</pproTicksOut>
                  <alphatype>none</alphatype>
                  <pixelaspectratio>square</pixelaspectratio>
                  <anamorphic>FALSE</anamorphic>
                  <file id="file-340">
                     <name>mymovie.mov</name>
                     <pathurl>file://localhost/Volumes/mydisk/mymovie.mov</pathurl>
                     <rate>
                        <timebase>24</timebase>
                        <ntsc>TRUE</ntsc>
                     </rate>
                     <duration>155</duration>
                     <timecode>
                        <rate>
                           <timebase>24</timebase>
                           <ntsc>TRUE</ntsc>
                        </rate>
                        <string>13:59:28:11</string>
                        <frame>1208843</frame>
                        <displayformat>NDF</displayformat>
                     </timecode>
                     <media>
                        <video>
                           <samplecharacteristics>
                              <rate>
                                 <timebase>24</timebase>
                                 <ntsc>TRUE</ntsc>
                              </rate>
                              <width>2048</width>
                              <height>858</height>
                              <anamorphic>FALSE</anamorphic>
                              <pixelaspectratio>square</pixelaspectratio>
                              <fielddominance>none</fielddominance>
                           </samplecharacteristics>
                        </video>
                     </media>
                  </file>
                  <filter>
                     <effect>
                        <name>Basic Motion</name>
                        <effectid>basic</effectid>
                        <effectcategory>motion</effectcategory>
                        <effecttype>motion</effecttype>
                        <mediatype>video</mediatype>
                        <pproBypass>false</pproBypass>
                        <parameter authoringApp="PremierePro">
                           <parameterid>scale</parameterid>
                           <name>Scale</name>
                           <valuemin>0</valuemin>
                           <valuemax>1000</valuemax>
                           <value>93.8</value>
                        </parameter>
                        <parameter authoringApp="PremierePro">
                           <parameterid>rotation</parameterid>
                           <name>Rotation</name>
                           <valuemin>-8640</valuemin>
                           <valuemax>8640</valuemax>
                           <value>0</value>
                        </parameter>
                        <parameter authoringApp="PremierePro">
                           <parameterid>center</parameterid>
                           <name>Center</name>
                           <value>
                              <horiz>0</horiz>
                              <vert>0</vert>
                           </value>
                        </parameter>
                        <parameter authoringApp="PremierePro">
                           <parameterid>centerOffset</parameterid>
                           <name>Anchor Point</name>
                           <value>
                              <horiz>0</horiz>
                              <vert>0</vert>
                           </value>
                        </parameter>
                        <parameter authoringApp="PremierePro">
                           <parameterid>antiflicker</parameterid>
                           <name>Anti-flicker Filter</name>
                           <valuemin>0.0</valuemin>
                           <valuemax>1.0</valuemax>
                           <value>0</value>
                        </parameter>
                     </effect>
                  </filter>
                  <logginginfo>
                     <description />
                     <scene />
                     <shottake />
                     <lognote />
                     <good />
                     <originalvideofilename />
                     <originalaudiofilename />
                  </logginginfo>
                  <colorinfo>
                     <lut />
                     <lut1 />
                     <asc_sop />
                     <asc_sat />
                     <lut2 />
                  </colorinfo>
                  <labels>
                     <label2>Violet</label2>
                  </labels>
               </clipitem>
               <clipitem id="clipitem-596">
                  <masterclipid>masterclip-350</masterclipid>
                  <name>mymovie.mov</name>
                  <enabled>TRUE</enabled>
                  <duration>76</duration>
                  <rate>
                     <timebase>24</timebase>
                     <ntsc>TRUE</ntsc>
                  </rate>
                  <start>1675</start>
                  <end>1734</end>
                  <in>9</in>
                  <out>68</out>
                  <pproTicksIn>95351256000</pproTicksIn>
                  <pproTicksOut>720431712000</pproTicksOut>
                  <alphatype>none</alphatype>
                  <pixelaspectratio>square</pixelaspectratio>
                  <anamorphic>FALSE</anamorphic>
                  <file id="file-341">
                     <name>mymovie.mov</name>
                     <pathurl>file://localhost/Volumes/mydisk/mymovie.mov</pathurl>
                     <rate>
                        <timebase>24</timebase>
                        <ntsc>TRUE</ntsc>
                     </rate>
                     <duration>76</duration>
                     <timecode>
                        <rate>
                           <timebase>24</timebase>
                           <ntsc>TRUE</ntsc>
                        </rate>
                        <string>14:48:28:08</string>
                        <frame>1279400</frame>
                        <displayformat>NDF</displayformat>
                     </timecode>
                     <media>
                        <video>
                           <samplecharacteristics>
                              <rate>
                                 <timebase>24</timebase>
                                 <ntsc>TRUE</ntsc>
                              </rate>
                              <width>2048</width>
                              <height>858</height>
                              <anamorphic>FALSE</anamorphic>
                              <pixelaspectratio>square</pixelaspectratio>
                              <fielddominance>none</fielddominance>
                           </samplecharacteristics>
                        </video>
                     </media>
                  </file>
                  <filter>
                     <effect>
                        <name>Basic Motion</name>
                        <effectid>basic</effectid>
                        <effectcategory>motion</effectcategory>
                        <effecttype>motion</effecttype>
                        <mediatype>video</mediatype>
                        <pproBypass>false</pproBypass>
                        <parameter authoringApp="PremierePro">
                           <parameterid>scale</parameterid>
                           <name>Scale</name>
                           <valuemin>0</valuemin>
                           <valuemax>1000</valuemax>
                           <value>93.75</value>
                        </parameter>
                        <parameter authoringApp="PremierePro">
                           <parameterid>rotation</parameterid>
                           <name>Rotation</name>
                           <valuemin>-8640</valuemin>
                           <valuemax>8640</valuemax>
                           <value>0</value>
                        </parameter>
                        <parameter authoringApp="PremierePro">
                           <parameterid>center</parameterid>
                           <name>Center</name>
                           <value>
                              <horiz>0</horiz>
                              <vert>0</vert>
                           </value>
                        </parameter>
                        <parameter authoringApp="PremierePro">
                           <parameterid>centerOffset</parameterid>
                           <name>Anchor Point</name>
                           <value>
                              <horiz>0</horiz>
                              <vert>0</vert>
                           </value>
                        </parameter>
                        <parameter authoringApp="PremierePro">
                           <parameterid>antiflicker</parameterid>
                           <name>Anti-flicker Filter</name>
                           <valuemin>0.0</valuemin>
                           <valuemax>1.0</valuemax>
                           <value>0</value>
                        </parameter>
                     </effect>
                  </filter>
                  <logginginfo>
                     <description />
                     <scene />
                     <shottake />
                     <lognote />
                     <good />
                     <originalvideofilename />
                     <originalaudiofilename />
                  </logginginfo>
                  <colorinfo>
                     <lut />
                     <lut1 />
                     <asc_sop />
                     <asc_sat />
                     <lut2 />
                  </colorinfo>
                  <labels>
                     <label2>Violet</label2>
                  </labels>
               </clipitem>
               <clipitem id="clipitem-597">
                  <masterclipid>masterclip-351</masterclipid>
                  <name>mymovie.mov</name>
                  <enabled>TRUE</enabled>
                  <duration>130</duration>
                  <rate>
                     <timebase>24</timebase>
                     <ntsc>TRUE</ntsc>
                  </rate>
                  <start>1862</start>
                  <end>1975</end>
                  <in>9</in>
                  <out>122</out>
                  <pproTicksIn>95351256000</pproTicksIn>
                  <pproTicksOut>1292539248000</pproTicksOut>
                  <alphatype>none</alphatype>
                  <pixelaspectratio>square</pixelaspectratio>
                  <anamorphic>FALSE</anamorphic>
                  <file id="file-342">
                     <name>mymovie.mov</name>
                     <pathurl>file://localhost/Volumes/mydisk/mymovie.mov</pathurl>
                     <rate>
                        <timebase>24</timebase>
                        <ntsc>TRUE</ntsc>
                     </rate>
                     <duration>130</duration>
                     <timecode>
                        <rate>
                           <timebase>24</timebase>
                           <ntsc>TRUE</ntsc>
                        </rate>
                        <string>13:50:09:02</string>
                        <frame>1195418</frame>
                        <displayformat>NDF</displayformat>
                     </timecode>
                     <media>
                        <video>
                           <samplecharacteristics>
                              <rate>
                                 <timebase>24</timebase>
                                 <ntsc>TRUE</ntsc>
                              </rate>
                              <width>2048</width>
                              <height>858</height>
                              <anamorphic>FALSE</anamorphic>
                              <pixelaspectratio>square</pixelaspectratio>
                              <fielddominance>none</fielddominance>
                           </samplecharacteristics>
                        </video>
                     </media>
                  </file>
                  <filter>
                     <effect>
                        <name>Basic Motion</name>
                        <effectid>basic</effectid>
                        <effectcategory>motion</effectcategory>
                        <effecttype>motion</effecttype>
                        <mediatype>video</mediatype>
                        <pproBypass>false</pproBypass>
                        <parameter authoringApp="PremierePro">
                           <parameterid>scale</parameterid>
                           <name>Scale</name>
                           <valuemin>0</valuemin>
                           <valuemax>1000</valuemax>
                           <value>93.75</value>
                        </parameter>
                        <parameter authoringApp="PremierePro">
                           <parameterid>rotation</parameterid>
                           <name>Rotation</name>
                           <valuemin>-8640</valuemin>
                           <valuemax>8640</valuemax>
                           <value>0</value>
                        </parameter>
                        <parameter authoringApp="PremierePro">
                           <parameterid>center</parameterid>
                           <name>Center</name>
                           <value>
                              <horiz>0</horiz>
                              <vert>0</vert>
                           </value>
                        </parameter>
                        <parameter authoringApp="PremierePro">
                           <parameterid>centerOffset</parameterid>
                           <name>Anchor Point</name>
                           <value>
                              <horiz>0</horiz>
                              <vert>0</vert>
                           </value>
                        </parameter>
                        <parameter authoringApp="PremierePro">
                           <parameterid>antiflicker</parameterid>
                           <name>Anti-flicker Filter</name>
                           <valuemin>0.0</valuemin>
                           <valuemax>1.0</valuemax>
                           <value>0</value>
                        </parameter>
                     </effect>
                  </filter>
                  <logginginfo>
                     <description />
                     <scene />
                     <shottake />
                     <lognote />
                     <good />
                     <originalvideofilename />
                     <originalaudiofilename />
                  </logginginfo>
                  <colorinfo>
                     <lut />
                     <lut1 />
                     <asc_sop />
                     <asc_sat />
                     <lut2 />
                  </colorinfo>
                  <labels>
                     <label2>Violet</label2>
                  </labels>
               </clipitem>
               <clipitem id="clipitem-598">
                  <masterclipid>masterclip-352</masterclipid>
                  <name>mymovie.mov</name>
                  <enabled>TRUE</enabled>
                  <duration>88</duration>
                  <rate>
                     <timebase>24</timebase>
                     <ntsc>TRUE</ntsc>
                  </rate>
                  <start>1975</start>
                  <end>2046</end>
                  <in>9</in>
                  <out>80</out>
                  <pproTicksIn>95351256000</pproTicksIn>
                  <pproTicksOut>847566720000</pproTicksOut>
                  <alphatype>none</alphatype>
                  <pixelaspectratio>square</pixelaspectratio>
                  <anamorphic>FALSE</anamorphic>
                  <file id="file-343">
                     <name>mymovie.mov</name>
                     <pathurl>file://localhost/Volumes/mydisk/mymovie.mov</pathurl>
                     <rate>
                        <timebase>24</timebase>
                        <ntsc>TRUE</ntsc>
                     </rate>
                     <duration>88</duration>
                     <timecode>
                        <rate>
                           <timebase>24</timebase>
                           <ntsc>TRUE</ntsc>
                        </rate>
                        <string>14:40:55:09</string>
                        <frame>1268529</frame>
                        <displayformat>NDF</displayformat>
                     </timecode>
                     <media>
                        <video>
                           <samplecharacteristics>
                              <rate>
                                 <timebase>24</timebase>
                                 <ntsc>TRUE</ntsc>
                              </rate>
                              <width>2048</width>
                              <height>858</height>
                              <anamorphic>FALSE</anamorphic>
                              <pixelaspectratio>square</pixelaspectratio>
                              <fielddominance>none</fielddominance>
                           </samplecharacteristics>
                        </video>
                     </media>
                  </file>
                  <filter>
                     <effect>
                        <name>Basic Motion</name>
                        <effectid>basic</effectid>
                        <effectcategory>motion</effectcategory>
                        <effecttype>motion</effecttype>
                        <mediatype>video</mediatype>
                        <pproBypass>false</pproBypass>
                        <parameter authoringApp="PremierePro">
                           <parameterid>scale</parameterid>
                           <name>Scale</name>
                           <valuemin>0</valuemin>
                           <valuemax>1000</valuemax>
                           <value>93.75</value>
                        </parameter>
                        <parameter authoringApp="PremierePro">
                           <parameterid>rotation</parameterid>
                           <name>Rotation</name>
                           <valuemin>-8640</valuemin>
                           <valuemax>8640</valuemax>
                           <value>0</value>
                        </parameter>
                        <parameter authoringApp="PremierePro">
                           <parameterid>center</parameterid>
                           <name>Center</name>
                           <value>
                              <horiz>0</horiz>
                              <vert>0</vert>
                           </value>
                        </parameter>
                        <parameter authoringApp="PremierePro">
                           <parameterid>centerOffset</parameterid>
                           <name>Anchor Point</name>
                           <value>
                              <horiz>0</horiz>
                              <vert>0</vert>
                           </value>
                        </parameter>
                        <parameter authoringApp="PremierePro">
                           <parameterid>antiflicker</parameterid>
                           <name>Anti-flicker Filter</name>
                           <valuemin>0.0</valuemin>
                           <valuemax>1.0</valuemax>
                           <value>0</value>
                        </parameter>
                     </effect>
                  </filter>
                  <logginginfo>
                     <description />
                     <scene />
                     <shottake />
                     <lognote />
                     <good />
                     <originalvideofilename />
                     <originalaudiofilename />
                  </logginginfo>
                  <colorinfo>
                     <lut />
                     <lut1 />
                     <asc_sop />
                     <asc_sat />
                     <lut2 />
                  </colorinfo>
                  <labels>
                     <label2>Violet</label2>
                  </labels>
               </clipitem>
               <clipitem id="clipitem-599">
                  <masterclipid>masterclip-353</masterclipid>
                  <name>mymovie.mov</name>
                  <enabled>TRUE</enabled>
                  <duration>78</duration>
                  <rate>
                     <timebase>24</timebase>
                     <ntsc>TRUE</ntsc>
                  </rate>
                  <start>2094</start>
                  <end>2155</end>
                  <in>9</in>
                  <out>70</out>
                  <pproTicksIn>95351256000</pproTicksIn>
                  <pproTicksOut>741620880000</pproTicksOut>
                  <alphatype>none</alphatype>
                  <pixelaspectratio>square</pixelaspectratio>
                  <anamorphic>FALSE</anamorphic>
                  <file id="file-344">
                     <name>mymovie.mov</name>
                     <pathurl>file://localhost/Volumes/mydisk/mymovie.mov</pathurl>
                     <rate>
                        <timebase>24</timebase>
                        <ntsc>TRUE</ntsc>
                     </rate>
                     <duration>78</duration>
                     <timecode>
                        <rate>
                           <timebase>24</timebase>
                           <ntsc>TRUE</ntsc>
                        </rate>
                        <string>13:53:44:10</string>
                        <frame>1200586</frame>
                        <displayformat>NDF</displayformat>
                     </timecode>
                     <media>
                        <video>
                           <samplecharacteristics>
                              <rate>
                                 <timebase>24</timebase>
                                 <ntsc>TRUE</ntsc>
                              </rate>
                              <width>2048</width>
                              <height>858</height>
                              <anamorphic>FALSE</anamorphic>
                              <pixelaspectratio>square</pixelaspectratio>
                              <fielddominance>none</fielddominance>
                           </samplecharacteristics>
                        </video>
                     </media>
                  </file>
                  <filter>
                     <effect>
                        <name>Basic Motion</name>
                        <effectid>basic</effectid>
                        <effectcategory>motion</effectcategory>
                        <effecttype>motion</effecttype>
                        <mediatype>video</mediatype>
                        <pproBypass>false</pproBypass>
                        <parameter authoringApp="PremierePro">
                           <parameterid>scale</parameterid>
                           <name>Scale</name>
                           <valuemin>0</valuemin>
                           <valuemax>1000</valuemax>
                           <value>93.75</value>
                        </parameter>
                        <parameter authoringApp="PremierePro">
                           <parameterid>rotation</parameterid>
                           <name>Rotation</name>
                           <valuemin>-8640</valuemin>
                           <valuemax>8640</valuemax>
                           <value>0</value>
                        </parameter>
                        <parameter authoringApp="PremierePro">
                           <parameterid>center</parameterid>
                           <name>Center</name>
                           <value>
                              <horiz>0</horiz>
                              <vert>0</vert>
                           </value>
                        </parameter>
                        <parameter authoringApp="PremierePro">
                           <parameterid>centerOffset</parameterid>
                           <name>Anchor Point</name>
                           <value>
                              <horiz>0</horiz>
                              <vert>0</vert>
                           </value>
                        </parameter>
                        <parameter authoringApp="PremierePro">
                           <parameterid>antiflicker</parameterid>
                           <name>Anti-flicker Filter</name>
                           <valuemin>0.0</valuemin>
                           <valuemax>1.0</valuemax>
                           <value>0</value>
                        </parameter>
                     </effect>
                  </filter>
                  <logginginfo>
                     <description />
                     <scene />
                     <shottake />
                     <lognote />
                     <good />
                     <originalvideofilename />
                     <originalaudiofilename />
                  </logginginfo>
                  <colorinfo>
                     <lut />
                     <lut1 />
                     <asc_sop />
                     <asc_sat />
                     <lut2 />
                  </colorinfo>
                  <labels>
                     <label2>Iris</label2>
                  </labels>
               </clipitem>
               <clipitem id="clipitem-600">
                  <masterclipid>masterclip-354</masterclipid>
                  <name>mymovie.mov</name>
                  <enabled>TRUE</enabled>
                  <duration>101</duration>
                  <rate>
                     <timebase>24</timebase>
                     <ntsc>TRUE</ntsc>
                  </rate>
                  <start>2155</start>
                  <end>2207</end>
                  <in>25</in>
                  <out>77</out>
                  <pproTicksIn>264864600000</pproTicksIn>
                  <pproTicksOut>815782968000</pproTicksOut>
                  <alphatype>none</alphatype>
                  <pixelaspectratio>square</pixelaspectratio>
                  <anamorphic>FALSE</anamorphic>
                  <file id="file-345">
                     <name>mymovie.mov</name>
                     <pathurl>file://localhost/Volumes/mydisk/mymovie.mov</pathurl>
                     <rate>
                        <timebase>24</timebase>
                        <ntsc>TRUE</ntsc>
                     </rate>
                     <duration>101</duration>
                     <timecode>
                        <rate>
                           <timebase>24</timebase>
                           <ntsc>TRUE</ntsc>
                        </rate>
                        <string>14:41:05:13</string>
                        <frame>1268773</frame>
                        <displayformat>NDF</displayformat>
                     </timecode>
                     <media>
                        <video>
                           <samplecharacteristics>
                              <rate>
                                 <timebase>24</timebase>
                                 <ntsc>TRUE</ntsc>
                              </rate>
                              <width>2048</width>
                              <height>858</height>
                              <anamorphic>FALSE</anamorphic>
                              <pixelaspectratio>square</pixelaspectratio>
                              <fielddominance>none</fielddominance>
                           </samplecharacteristics>
                        </video>
                     </media>
                  </file>
                  <logginginfo>
                     <description />
                     <scene />
                     <shottake />
                     <lognote />
                     <good />
                     <originalvideofilename />
                     <originalaudiofilename />
                  </logginginfo>
                  <colorinfo>
                     <lut />
                     <lut1 />
                     <asc_sop />
                     <asc_sat />
                     <lut2 />
                  </colorinfo>
                  <labels>
                     <label2>Violet</label2>
                  </labels>
               </clipitem>
               <clipitem id="clipitem-601">
                  <masterclipid>masterclip-355</masterclipid>
                  <name>mymovie.mov</name>
                  <enabled>TRUE</enabled>
                  <duration>69</duration>
                  <rate>
                     <timebase>24</timebase>
                     <ntsc>TRUE</ntsc>
                  </rate>
                  <start>2207</start>
                  <end>2259</end>
                  <in>9</in>
                  <out>61</out>
                  <pproTicksIn>95351256000</pproTicksIn>
                  <pproTicksOut>646269624000</pproTicksOut>
                  <alphatype>none</alphatype>
                  <pixelaspectratio>square</pixelaspectratio>
                  <anamorphic>FALSE</anamorphic>
                  <file id="file-346">
                     <name>mymovie.mov</name>
                     <pathurl>file://localhost/Volumes/mydisk/mymovie.mov</pathurl>
                     <rate>
                        <timebase>24</timebase>
                        <ntsc>TRUE</ntsc>
                     </rate>
                     <duration>69</duration>
                     <timecode>
                        <rate>
                           <timebase>24</timebase>
                           <ntsc>TRUE</ntsc>
                        </rate>
                        <string>13:59:56:17</string>
                        <frame>1209521</frame>
                        <displayformat>NDF</displayformat>
                     </timecode>
                     <media>
                        <video>
                           <samplecharacteristics>
                              <rate>
                                 <timebase>24</timebase>
                                 <ntsc>TRUE</ntsc>
                              </rate>
                              <width>2048</width>
                              <height>858</height>
                              <anamorphic>FALSE</anamorphic>
                              <pixelaspectratio>square</pixelaspectratio>
                              <fielddominance>none</fielddominance>
                           </samplecharacteristics>
                        </video>
                     </media>
                  </file>
                  <filter>
                     <effect>
                        <name>Basic Motion</name>
                        <effectid>basic</effectid>
                        <effectcategory>motion</effectcategory>
                        <effecttype>motion</effecttype>
                        <mediatype>video</mediatype>
                        <pproBypass>false</pproBypass>
                        <parameter authoringApp="PremierePro">
                           <parameterid>scale</parameterid>
                           <name>Scale</name>
                           <valuemin>0</valuemin>
                           <valuemax>1000</valuemax>
                           <value>93.8</value>
                        </parameter>
                        <parameter authoringApp="PremierePro">
                           <parameterid>rotation</parameterid>
                           <name>Rotation</name>
                           <valuemin>-8640</valuemin>
                           <valuemax>8640</valuemax>
                           <value>0</value>
                        </parameter>
                        <parameter authoringApp="PremierePro">
                           <parameterid>center</parameterid>
                           <name>Center</name>
                           <value>
                              <horiz>0</horiz>
                              <vert>0</vert>
                           </value>
                        </parameter>
                        <parameter authoringApp="PremierePro">
                           <parameterid>centerOffset</parameterid>
                           <name>Anchor Point</name>
                           <value>
                              <horiz>0</horiz>
                              <vert>0</vert>
                           </value>
                        </parameter>
                        <parameter authoringApp="PremierePro">
                           <parameterid>antiflicker</parameterid>
                           <name>Anti-flicker Filter</name>
                           <valuemin>0.0</valuemin>
                           <valuemax>1.0</valuemax>
                           <value>0</value>
                        </parameter>
                     </effect>
                  </filter>
                  <logginginfo>
                     <description />
                     <scene />
                     <shottake />
                     <lognote />
                     <good />
                     <originalvideofilename />
                     <originalaudiofilename />
                  </logginginfo>
                  <colorinfo>
                     <lut />
                     <lut1 />
                     <asc_sop />
                     <asc_sat />
                     <lut2 />
                  </colorinfo>
                  <labels>
                     <label2>Violet</label2>
                  </labels>
               </clipitem>
               <clipitem id="clipitem-602">
                  <masterclipid>masterclip-356</masterclipid>
                  <name>mymovie.mov</name>
                  <enabled>TRUE</enabled>
                  <duration>99</duration>
                  <rate>
                     <timebase>24</timebase>
                     <ntsc>TRUE</ntsc>
                  </rate>
                  <start>2306</start>
                  <end>2388</end>
                  <in>9</in>
                  <out>91</out>
                  <pproTicksIn>95351256000</pproTicksIn>
                  <pproTicksOut>964107144000</pproTicksOut>
                  <alphatype>none</alphatype>
                  <pixelaspectratio>square</pixelaspectratio>
                  <anamorphic>FALSE</anamorphic>
                  <file id="file-347">
                     <name>mymovie.mov</name>
                     <pathurl>file://localhost/Volumes/mydisk/mymovie.mov</pathurl>
                     <rate>
                        <timebase>24</timebase>
                        <ntsc>TRUE</ntsc>
                     </rate>
                     <duration>99</duration>
                     <timecode>
                        <rate>
                           <timebase>24</timebase>
                           <ntsc>TRUE</ntsc>
                        </rate>
                        <string>14:00:04:14</string>
                        <frame>1209710</frame>
                        <displayformat>NDF</displayformat>
                     </timecode>
                     <media>
                        <video>
                           <samplecharacteristics>
                              <rate>
                                 <timebase>24</timebase>
                                 <ntsc>TRUE</ntsc>
                              </rate>
                              <width>2048</width>
                              <height>858</height>
                              <anamorphic>FALSE</anamorphic>
                              <pixelaspectratio>square</pixelaspectratio>
                              <fielddominance>none</fielddominance>
                           </samplecharacteristics>
                        </video>
                     </media>
                  </file>
                  <filter>
                     <effect>
                        <name>Basic Motion</name>
                        <effectid>basic</effectid>
                        <effectcategory>motion</effectcategory>
                        <effecttype>motion</effecttype>
                        <mediatype>video</mediatype>
                        <pproBypass>false</pproBypass>
                        <parameter authoringApp="PremierePro">
                           <parameterid>scale</parameterid>
                           <name>Scale</name>
                           <valuemin>0</valuemin>
                           <valuemax>1000</valuemax>
                           <value>93.8</value>
                        </parameter>
                        <parameter authoringApp="PremierePro">
                           <parameterid>rotation</parameterid>
                           <name>Rotation</name>
                           <valuemin>-8640</valuemin>
                           <valuemax>8640</valuemax>
                           <value>0</value>
                        </parameter>
                        <parameter authoringApp="PremierePro">
                           <parameterid>center</parameterid>
                           <name>Center</name>
                           <value>
                              <horiz>0</horiz>
                              <vert>0</vert>
                           </value>
                        </parameter>
                        <parameter authoringApp="PremierePro">
                           <parameterid>centerOffset</parameterid>
                           <name>Anchor Point</name>
                           <value>
                              <horiz>0</horiz>
                              <vert>0</vert>
                           </value>
                        </parameter>
                        <parameter authoringApp="PremierePro">
                           <parameterid>antiflicker</parameterid>
                           <name>Anti-flicker Filter</name>
                           <valuemin>0.0</valuemin>
                           <valuemax>1.0</valuemax>
                           <value>0</value>
                        </parameter>
                     </effect>
                  </filter>
                  <logginginfo>
                     <description />
                     <scene />
                     <shottake />
                     <lognote />
                     <good />
                     <originalvideofilename />
                     <originalaudiofilename />
                  </logginginfo>
                  <colorinfo>
                     <lut />
                     <lut1 />
                     <asc_sop />
                     <asc_sat />
                     <lut2 />
                  </colorinfo>
                  <labels>
                     <label2>Violet</label2>
                  </labels>
               </clipitem>
               <clipitem id="clipitem-603">
                  <masterclipid>masterclip-357</masterclipid>
                  <name>mymovie.mov</name>
                  <enabled>TRUE</enabled>
                  <duration>124</duration>
                  <rate>
                     <timebase>24</timebase>
                     <ntsc>TRUE</ntsc>
                  </rate>
                  <start>2585</start>
                  <end>2692</end>
                  <in>9</in>
                  <out>116</out>
                  <pproTicksIn>95351256000</pproTicksIn>
                  <pproTicksOut>1228971744000</pproTicksOut>
                  <alphatype>none</alphatype>
                  <pixelaspectratio>square</pixelaspectratio>
                  <anamorphic>FALSE</anamorphic>
                  <file id="file-348">
                     <name>mymovie.mov</name>
                     <pathurl>file://localhost/Volumes/mydisk/mymovie.mov</pathurl>
                     <rate>
                        <timebase>24</timebase>
                        <ntsc>TRUE</ntsc>
                     </rate>
                     <duration>124</duration>
                     <timecode>
                        <rate>
                           <timebase>24</timebase>
                           <ntsc>TRUE</ntsc>
                        </rate>
                        <string>14:00:16:00</string>
                        <frame>1209984</frame>
                        <displayformat>NDF</displayformat>
                     </timecode>
                     <media>
                        <video>
                           <samplecharacteristics>
                              <rate>
                                 <timebase>24</timebase>
                                 <ntsc>TRUE</ntsc>
                              </rate>
                              <width>2048</width>
                              <height>858</height>
                              <anamorphic>FALSE</anamorphic>
                              <pixelaspectratio>square</pixelaspectratio>
                              <fielddominance>none</fielddominance>
                           </samplecharacteristics>
                        </video>
                     </media>
                  </file>
                  <filter>
                     <effect>
                        <name>Basic Motion</name>
                        <effectid>basic</effectid>
                        <effectcategory>motion</effectcategory>
                        <effecttype>motion</effecttype>
                        <mediatype>video</mediatype>
                        <pproBypass>false</pproBypass>
                        <parameter authoringApp="PremierePro">
                           <parameterid>scale</parameterid>
                           <name>Scale</name>
                           <valuemin>0</valuemin>
                           <valuemax>1000</valuemax>
                           <value>93.8</value>
                        </parameter>
                        <parameter authoringApp="PremierePro">
                           <parameterid>rotation</parameterid>
                           <name>Rotation</name>
                           <valuemin>-8640</valuemin>
                           <valuemax>8640</valuemax>
                           <value>0</value>
                        </parameter>
                        <parameter authoringApp="PremierePro">
                           <parameterid>center</parameterid>
                           <name>Center</name>
                           <value>
                              <horiz>0</horiz>
                              <vert>0</vert>
                           </value>
                        </parameter>
                        <parameter authoringApp="PremierePro">
                           <parameterid>centerOffset</parameterid>
                           <name>Anchor Point</name>
                           <value>
                              <horiz>0</horiz>
                              <vert>0</vert>
                           </value>
                        </parameter>
                        <parameter authoringApp="PremierePro">
                           <parameterid>antiflicker</parameterid>
                           <name>Anti-flicker Filter</name>
                           <valuemin>0.0</valuemin>
                           <valuemax>1.0</valuemax>
                           <value>0</value>
                        </parameter>
                     </effect>
                  </filter>
                  <logginginfo>
                     <description />
                     <scene />
                     <shottake />
                     <lognote />
                     <good />
                     <originalvideofilename />
                     <originalaudiofilename />
                  </logginginfo>
                  <colorinfo>
                     <lut />
                     <lut1 />
                     <asc_sop />
                     <asc_sat />
                     <lut2 />
                  </colorinfo>
                  <labels>
                     <label2>Violet</label2>
                  </labels>
               </clipitem>
               <clipitem id="clipitem-604">
                  <masterclipid>masterclip-358</masterclipid>
                  <name>mymovie.mov</name>
                  <enabled>TRUE</enabled>
                  <duration>136</duration>
                  <rate>
                     <timebase>24</timebase>
                     <ntsc>TRUE</ntsc>
                  </rate>
                  <start>2819</start>
                  <end>2938</end>
                  <in>9</in>
                  <out>128</out>
                  <pproTicksIn>95351256000</pproTicksIn>
                  <pproTicksOut>1356106752000</pproTicksOut>
                  <alphatype>none</alphatype>
                  <pixelaspectratio>square</pixelaspectratio>
                  <anamorphic>FALSE</anamorphic>
                  <file id="file-349">
                     <name>mymovie.mov</name>
                     <pathurl>file://localhost/Volumes/mydisk/mymovie.mov</pathurl>
                     <rate>
                        <timebase>24</timebase>
                        <ntsc>TRUE</ntsc>
                     </rate>
                     <duration>136</duration>
                     <timecode>
                        <rate>
                           <timebase>24</timebase>
                           <ntsc>TRUE</ntsc>
                        </rate>
                        <string>16:55:04:12</string>
                        <frame>1461708</frame>
                        <displayformat>NDF</displayformat>
                     </timecode>
                     <media>
                        <video>
                           <samplecharacteristics>
                              <rate>
                                 <timebase>24</timebase>
                                 <ntsc>TRUE</ntsc>
                              </rate>
                              <width>2048</width>
                              <height>858</height>
                              <anamorphic>FALSE</anamorphic>
                              <pixelaspectratio>square</pixelaspectratio>
                              <fielddominance>none</fielddominance>
                           </samplecharacteristics>
                        </video>
                     </media>
                  </file>
                  <filter>
                     <effect>
                        <name>Basic Motion</name>
                        <effectid>basic</effectid>
                        <effectcategory>motion</effectcategory>
                        <effecttype>motion</effecttype>
                        <mediatype>video</mediatype>
                        <pproBypass>false</pproBypass>
                        <parameter authoringApp="PremierePro">
                           <parameterid>scale</parameterid>
                           <name>Scale</name>
                           <valuemin>0</valuemin>
                           <valuemax>1000</valuemax>
                           <value>93.8</value>
                        </parameter>
                        <parameter authoringApp="PremierePro">
                           <parameterid>rotation</parameterid>
                           <name>Rotation</name>
                           <valuemin>-8640</valuemin>
                           <valuemax>8640</valuemax>
                           <value>0</value>
                        </parameter>
                        <parameter authoringApp="PremierePro">
                           <parameterid>center</parameterid>
                           <name>Center</name>
                           <value>
                              <horiz>0</horiz>
                              <vert>0</vert>
                           </value>
                        </parameter>
                        <parameter authoringApp="PremierePro">
                           <parameterid>centerOffset</parameterid>
                           <name>Anchor Point</name>
                           <value>
                              <horiz>0</horiz>
                              <vert>0</vert>
                           </value>
                        </parameter>
                        <parameter authoringApp="PremierePro">
                           <parameterid>antiflicker</parameterid>
                           <name>Anti-flicker Filter</name>
                           <valuemin>0.0</valuemin>
                           <valuemax>1.0</valuemax>
                           <value>0</value>
                        </parameter>
                     </effect>
                  </filter>
                  <logginginfo>
                     <description />
                     <scene />
                     <shottake />
                     <lognote />
                     <good />
                     <originalvideofilename />
                     <originalaudiofilename />
                  </logginginfo>
                  <colorinfo>
                     <lut />
                     <lut1 />
                     <asc_sop />
                     <asc_sat />
                     <lut2 />
                  </colorinfo>
                  <labels>
                     <label2>Violet</label2>
                  </labels>
               </clipitem>
               <clipitem id="clipitem-605">
                  <masterclipid>masterclip-359</masterclipid>
                  <name>mymovie.mov</name>
                  <enabled>TRUE</enabled>
                  <duration>137</duration>
                  <rate>
                     <timebase>24</timebase>
                     <ntsc>TRUE</ntsc>
                  </rate>
                  <start>2938</start>
                  <end>3058</end>
                  <in>9</in>
                  <out>129</out>
                  <pproTicksIn>95351256000</pproTicksIn>
                  <pproTicksOut>1366701336000</pproTicksOut>
                  <alphatype>none</alphatype>
                  <pixelaspectratio>square</pixelaspectratio>
                  <anamorphic>FALSE</anamorphic>
                  <file id="file-350">
                     <name>mymovie.mov</name>
                     <pathurl>file://localhost/Volumes/mydisk/mymovie.mov</pathurl>
                     <rate>
                        <timebase>24</timebase>
                        <ntsc>TRUE</ntsc>
                     </rate>
                     <duration>137</duration>
                     <timecode>
                        <rate>
                           <timebase>24</timebase>
                           <ntsc>TRUE</ntsc>
                        </rate>
                        <string>16:14:49:16</string>
                        <frame>1403752</frame>
                        <displayformat>NDF</displayformat>
                     </timecode>
                     <media>
                        <video>
                           <samplecharacteristics>
                              <rate>
                                 <timebase>24</timebase>
                                 <ntsc>TRUE</ntsc>
                              </rate>
                              <width>2048</width>
                              <height>858</height>
                              <anamorphic>FALSE</anamorphic>
                              <pixelaspectratio>square</pixelaspectratio>
                              <fielddominance>none</fielddominance>
                           </samplecharacteristics>
                        </video>
                     </media>
                  </file>
                  <filter>
                     <effect>
                        <name>Basic Motion</name>
                        <effectid>basic</effectid>
                        <effectcategory>motion</effectcategory>
                        <effecttype>motion</effecttype>
                        <mediatype>video</mediatype>
                        <pproBypass>false</pproBypass>
                        <parameter authoringApp="PremierePro">
                           <parameterid>scale</parameterid>
                           <name>Scale</name>
                           <valuemin>0</valuemin>
                           <valuemax>1000</valuemax>
                           <value>93.8</value>
                        </parameter>
                        <parameter authoringApp="PremierePro">
                           <parameterid>rotation</parameterid>
                           <name>Rotation</name>
                           <valuemin>-8640</valuemin>
                           <valuemax>8640</valuemax>
                           <value>0</value>
                        </parameter>
                        <parameter authoringApp="PremierePro">
                           <parameterid>center</parameterid>
                           <name>Center</name>
                           <value>
                              <horiz>0</horiz>
                              <vert>0</vert>
                           </value>
                        </parameter>
                        <parameter authoringApp="PremierePro">
                           <parameterid>centerOffset</parameterid>
                           <name>Anchor Point</name>
                           <value>
                              <horiz>0</horiz>
                              <vert>0</vert>
                           </value>
                        </parameter>
                        <parameter authoringApp="PremierePro">
                           <parameterid>antiflicker</parameterid>
                           <name>Anti-flicker Filter</name>
                           <valuemin>0.0</valuemin>
                           <valuemax>1.0</valuemax>
                           <value>0</value>
                        </parameter>
                     </effect>
                  </filter>
                  <logginginfo>
                     <description />
                     <scene />
                     <shottake />
                     <lognote />
                     <good />
                     <originalvideofilename />
                     <originalaudiofilename />
                  </logginginfo>
                  <colorinfo>
                     <lut />
                     <lut1 />
                     <asc_sop />
                     <asc_sat />
                     <lut2 />
                  </colorinfo>
                  <labels>
                     <label2>Violet</label2>
                  </labels>
               </clipitem>
               <clipitem id="clipitem-606">
                  <masterclipid>masterclip-360</masterclipid>
                  <name>mymovie.mov</name>
                  <enabled>TRUE</enabled>
                  <duration>266</duration>
                  <rate>
                     <timebase>24</timebase>
                     <ntsc>TRUE</ntsc>
                  </rate>
                  <start>3058</start>
                  <end>3307</end>
                  <in>9</in>
                  <out>258</out>
                  <pproTicksIn>95351256000</pproTicksIn>
                  <pproTicksOut>2733402672000</pproTicksOut>
                  <alphatype>none</alphatype>
                  <pixelaspectratio>square</pixelaspectratio>
                  <anamorphic>FALSE</anamorphic>
                  <file id="file-351">
                     <name>mymovie.mov</name>
                     <pathurl>file://localhost/Volumes/mydisk/mymovie.mov</pathurl>
                     <rate>
                        <timebase>24</timebase>
                        <ntsc>TRUE</ntsc>
                     </rate>
                     <duration>266</duration>
                     <timecode>
                        <rate>
                           <timebase>24</timebase>
                           <ntsc>TRUE</ntsc>
                        </rate>
                        <string>07:22:07:18</string>
                        <frame>636666</frame>
                        <displayformat>NDF</displayformat>
                     </timecode>
                     <media>
                        <video>
                           <samplecharacteristics>
                              <rate>
                                 <timebase>24</timebase>
                                 <ntsc>TRUE</ntsc>
                              </rate>
                              <width>2048</width>
                              <height>858</height>
                              <anamorphic>FALSE</anamorphic>
                              <pixelaspectratio>square</pixelaspectratio>
                              <fielddominance>none</fielddominance>
                           </samplecharacteristics>
                        </video>
                     </media>
                  </file>
                  <filter>
                     <effect>
                        <name>Basic Motion</name>
                        <effectid>basic</effectid>
                        <effectcategory>motion</effectcategory>
                        <effecttype>motion</effecttype>
                        <mediatype>video</mediatype>
                        <pproBypass>false</pproBypass>
                        <parameter authoringApp="PremierePro">
                           <parameterid>scale</parameterid>
                           <name>Scale</name>
                           <valuemin>0</valuemin>
                           <valuemax>1000</valuemax>
                           <value>93.75</value>
                        </parameter>
                        <parameter authoringApp="PremierePro">
                           <parameterid>rotation</parameterid>
                           <name>Rotation</name>
                           <valuemin>-8640</valuemin>
                           <valuemax>8640</valuemax>
                           <value>0</value>
                        </parameter>
                        <parameter authoringApp="PremierePro">
                           <parameterid>center</parameterid>
                           <name>Center</name>
                           <value>
                              <horiz>0</horiz>
                              <vert>0</vert>
                           </value>
                        </parameter>
                        <parameter authoringApp="PremierePro">
                           <parameterid>centerOffset</parameterid>
                           <name>Anchor Point</name>
                           <value>
                              <horiz>0</horiz>
                              <vert>0</vert>
                           </value>
                        </parameter>
                        <parameter authoringApp="PremierePro">
                           <parameterid>antiflicker</parameterid>
                           <name>Anti-flicker Filter</name>
                           <valuemin>0.0</valuemin>
                           <valuemax>1.0</valuemax>
                           <value>0</value>
                        </parameter>
                     </effect>
                  </filter>
                  <logginginfo>
                     <description />
                     <scene />
                     <shottake />
                     <lognote />
                     <good />
                     <originalvideofilename />
                     <originalaudiofilename />
                  </logginginfo>
                  <colorinfo>
                     <lut />
                     <lut1 />
                     <asc_sop />
                     <asc_sat />
                     <lut2 />
                  </colorinfo>
                  <labels>
                     <label2>Iris</label2>
                  </labels>
               </clipitem>
               <enabled>FALSE</enabled>
               <locked>FALSE</locked>
            </track>
            <track TL.SQTrackShy="0" TL.SQTrackExpandedHeight="25" TL.SQTrackExpanded="0" MZ.TrackTargeted="0">
               <clipitem id="clipitem-607">
                  <masterclipid>masterclip-361</masterclipid>
                  <name>mymovie.mov</name>
                  <enabled>TRUE</enabled>
                  <duration>123</duration>
                  <rate>
                     <timebase>24</timebase>
                     <ntsc>TRUE</ntsc>
                  </rate>
                  <start>598</start>
                  <end>692</end>
                  <in>9</in>
                  <out>103</out>
                  <pproTicksIn>95351256000</pproTicksIn>
                  <pproTicksOut>1091242152000</pproTicksOut>
                  <alphatype>none</alphatype>
                  <pixelaspectratio>square</pixelaspectratio>
                  <anamorphic>FALSE</anamorphic>
                  <file id="file-352">
                     <name>mymovie.mov</name>
                     <pathurl>file://localhost/Volumes/mydisk/mymovie.mov</pathurl>
                     <rate>
                        <timebase>24</timebase>
                        <ntsc>TRUE</ntsc>
                     </rate>
                     <duration>123</duration>
                     <timecode>
                        <rate>
                           <timebase>24</timebase>
                           <ntsc>TRUE</ntsc>
                        </rate>
                        <string>16:52:17:13</string>
                        <frame>1457701</frame>
                        <displayformat>NDF</displayformat>
                     </timecode>
                     <media>
                        <video>
                           <samplecharacteristics>
                              <rate>
                                 <timebase>24</timebase>
                                 <ntsc>TRUE</ntsc>
                              </rate>
                              <width>2048</width>
                              <height>858</height>
                              <anamorphic>FALSE</anamorphic>
                              <pixelaspectratio>square</pixelaspectratio>
                              <fielddominance>none</fielddominance>
                           </samplecharacteristics>
                        </video>
                     </media>
                  </file>
                  <filter>
                     <effect>
                        <name>Basic Motion</name>
                        <effectid>basic</effectid>
                        <effectcategory>motion</effectcategory>
                        <effecttype>motion</effecttype>
                        <mediatype>video</mediatype>
                        <pproBypass>false</pproBypass>
                        <parameter authoringApp="PremierePro">
                           <parameterid>scale</parameterid>
                           <name>Scale</name>
                           <valuemin>0</valuemin>
                           <valuemax>1000</valuemax>
                           <value>93.8</value>
                        </parameter>
                        <parameter authoringApp="PremierePro">
                           <parameterid>rotation</parameterid>
                           <name>Rotation</name>
                           <valuemin>-8640</valuemin>
                           <valuemax>8640</valuemax>
                           <value>0</value>
                        </parameter>
                        <parameter authoringApp="PremierePro">
                           <parameterid>center</parameterid>
                           <name>Center</name>
                           <value>
                              <horiz>0</horiz>
                              <vert>0</vert>
                           </value>
                        </parameter>
                        <parameter authoringApp="PremierePro">
                           <parameterid>centerOffset</parameterid>
                           <name>Anchor Point</name>
                           <value>
                              <horiz>0</horiz>
                              <vert>0</vert>
                           </value>
                        </parameter>
                        <parameter authoringApp="PremierePro">
                           <parameterid>antiflicker</parameterid>
                           <name>Anti-flicker Filter</name>
                           <valuemin>0.0</valuemin>
                           <valuemax>1.0</valuemax>
                           <value>0</value>
                        </parameter>
                     </effect>
                  </filter>
                  <logginginfo>
                     <description />
                     <scene />
                     <shottake />
                     <lognote />
                     <good />
                     <originalvideofilename />
                     <originalaudiofilename />
                  </logginginfo>
                  <colorinfo>
                     <lut />
                     <lut1 />
                     <asc_sop />
                     <asc_sat />
                     <lut2 />
                  </colorinfo>
                  <labels>
                     <label2>Violet</label2>
                  </labels>
               </clipitem>
               <clipitem id="clipitem-608">
                  <masterclipid>masterclip-362</masterclipid>
                  <name>mymovie.mov</name>
                  <enabled>TRUE</enabled>
                  <duration>300</duration>
                  <rate>
                     <timebase>24</timebase>
                     <ntsc>TRUE</ntsc>
                  </rate>
                  <start>870</start>
                  <end>1135</end>
                  <in>9</in>
                  <out>274</out>
                  <pproTicksIn>95351256000</pproTicksIn>
                  <pproTicksOut>2902916016000</pproTicksOut>
                  <alphatype>none</alphatype>
                  <pixelaspectratio>square</pixelaspectratio>
                  <anamorphic>FALSE</anamorphic>
                  <file id="file-353">
                     <name>mymovie.mov</name>
                     <pathurl>file://localhost/Volumes/mydisk/mymovie.mov</pathurl>
                     <rate>
                        <timebase>24</timebase>
                        <ntsc>TRUE</ntsc>
                     </rate>
                     <duration>300</duration>
                     <timecode>
                        <rate>
                           <timebase>24</timebase>
                           <ntsc>TRUE</ntsc>
                        </rate>
                        <string>15:32:17:09</string>
                        <frame>1342497</frame>
                        <displayformat>NDF</displayformat>
                     </timecode>
                     <media>
                        <video>
                           <samplecharacteristics>
                              <rate>
                                 <timebase>24</timebase>
                                 <ntsc>TRUE</ntsc>
                              </rate>
                              <width>2048</width>
                              <height>858</height>
                              <anamorphic>FALSE</anamorphic>
                              <pixelaspectratio>square</pixelaspectratio>
                              <fielddominance>none</fielddominance>
                           </samplecharacteristics>
                        </video>
                     </media>
                  </file>
                  <filter>
                     <effect>
                        <name>Basic Motion</name>
                        <effectid>basic</effectid>
                        <effectcategory>motion</effectcategory>
                        <effecttype>motion</effecttype>
                        <mediatype>video</mediatype>
                        <pproBypass>false</pproBypass>
                        <parameter authoringApp="PremierePro">
                           <parameterid>scale</parameterid>
                           <name>Scale</name>
                           <valuemin>0</valuemin>
                           <valuemax>1000</valuemax>
                           <value>93.8</value>
                        </parameter>
                        <parameter authoringApp="PremierePro">
                           <parameterid>rotation</parameterid>
                           <name>Rotation</name>
                           <valuemin>-8640</valuemin>
                           <valuemax>8640</valuemax>
                           <value>0</value>
                        </parameter>
                        <parameter authoringApp="PremierePro">
                           <parameterid>center</parameterid>
                           <name>Center</name>
                           <value>
                              <horiz>0</horiz>
                              <vert>0</vert>
                           </value>
                        </parameter>
                        <parameter authoringApp="PremierePro">
                           <parameterid>centerOffset</parameterid>
                           <name>Anchor Point</name>
                           <value>
                              <horiz>0</horiz>
                              <vert>0</vert>
                           </value>
                        </parameter>
                        <parameter authoringApp="PremierePro">
                           <parameterid>antiflicker</parameterid>
                           <name>Anti-flicker Filter</name>
                           <valuemin>0.0</valuemin>
                           <valuemax>1.0</valuemax>
                           <value>0</value>
                        </parameter>
                     </effect>
                  </filter>
                  <logginginfo>
                     <description />
                     <scene />
                     <shottake />
                     <lognote />
                     <good />
                     <originalvideofilename />
                     <originalaudiofilename />
                  </logginginfo>
                  <colorinfo>
                     <lut />
                     <lut1 />
                     <asc_sop />
                     <asc_sat />
                     <lut2 />
                  </colorinfo>
                  <labels>
                     <label2>Violet</label2>
                  </labels>
               </clipitem>
               <clipitem id="clipitem-609">
                  <masterclipid>masterclip-363</masterclipid>
                  <name>mymovie.mov</name>
                  <enabled>TRUE</enabled>
                  <duration>78</duration>
                  <rate>
                     <timebase>24</timebase>
                     <ntsc>TRUE</ntsc>
                  </rate>
                  <start>2094</start>
                  <end>2155</end>
                  <in>9</in>
                  <out>70</out>
                  <pproTicksIn>95351256000</pproTicksIn>
                  <pproTicksOut>741620880000</pproTicksOut>
                  <alphatype>none</alphatype>
                  <pixelaspectratio>square</pixelaspectratio>
                  <anamorphic>FALSE</anamorphic>
                  <file id="file-354">
                     <name>mymovie.mov</name>
                     <pathurl>file://localhost/Volumes/mydisk/mymovie.mov</pathurl>
                     <rate>
                        <timebase>24</timebase>
                        <ntsc>TRUE</ntsc>
                     </rate>
                     <duration>78</duration>
                     <timecode>
                        <rate>
                           <timebase>24</timebase>
                           <ntsc>TRUE</ntsc>
                        </rate>
                        <string>13:53:44:10</string>
                        <frame>1200586</frame>
                        <displayformat>NDF</displayformat>
                     </timecode>
                     <media>
                        <video>
                           <samplecharacteristics>
                              <rate>
                                 <timebase>24</timebase>
                                 <ntsc>TRUE</ntsc>
                              </rate>
                              <width>2048</width>
                              <height>858</height>
                              <anamorphic>FALSE</anamorphic>
                              <pixelaspectratio>square</pixelaspectratio>
                              <fielddominance>none</fielddominance>
                           </samplecharacteristics>
                        </video>
                     </media>
                  </file>
                  <filter>
                     <effect>
                        <name>Basic Motion</name>
                        <effectid>basic</effectid>
                        <effectcategory>motion</effectcategory>
                        <effecttype>motion</effecttype>
                        <mediatype>video</mediatype>
                        <pproBypass>false</pproBypass>
                        <parameter authoringApp="PremierePro">
                           <parameterid>scale</parameterid>
                           <name>Scale</name>
                           <valuemin>0</valuemin>
                           <valuemax>1000</valuemax>
                           <value>93.75</value>
                        </parameter>
                        <parameter authoringApp="PremierePro">
                           <parameterid>rotation</parameterid>
                           <name>Rotation</name>
                           <valuemin>-8640</valuemin>
                           <valuemax>8640</valuemax>
                           <value>0</value>
                        </parameter>
                        <parameter authoringApp="PremierePro">
                           <parameterid>center</parameterid>
                           <name>Center</name>
                           <value>
                              <horiz>0</horiz>
                              <vert>0</vert>
                           </value>
                        </parameter>
                        <parameter authoringApp="PremierePro">
                           <parameterid>centerOffset</parameterid>
                           <name>Anchor Point</name>
                           <value>
                              <horiz>0</horiz>
                              <vert>0</vert>
                           </value>
                        </parameter>
                        <parameter authoringApp="PremierePro">
                           <parameterid>antiflicker</parameterid>
                           <name>Anti-flicker Filter</name>
                           <valuemin>0.0</valuemin>
                           <valuemax>1.0</valuemax>
                           <value>0</value>
                        </parameter>
                     </effect>
                  </filter>
                  <logginginfo>
                     <description />
                     <scene />
                     <shottake />
                     <lognote />
                     <good />
                     <originalvideofilename />
                     <originalaudiofilename />
                  </logginginfo>
                  <colorinfo>
                     <lut />
                     <lut1 />
                     <asc_sop />
                     <asc_sat />
                     <lut2 />
                  </colorinfo>
                  <labels>
                     <label2>Violet</label2>
                  </labels>
               </clipitem>
               <clipitem id="clipitem-610">
                  <masterclipid>masterclip-364</masterclipid>
                  <name>mymovie.mov</name>
                  <enabled>TRUE</enabled>
                  <duration>69</duration>
                  <rate>
                     <timebase>24</timebase>
                     <ntsc>TRUE</ntsc>
                  </rate>
                  <start>2155</start>
                  <end>2207</end>
                  <in>9</in>
                  <out>61</out>
                  <pproTicksIn>95351256000</pproTicksIn>
                  <pproTicksOut>646269624000</pproTicksOut>
                  <alphatype>none</alphatype>
                  <pixelaspectratio>square</pixelaspectratio>
                  <anamorphic>FALSE</anamorphic>
                  <file id="file-355">
                     <name>mymovie.mov</name>
                     <pathurl>file://localhost/Volumes/mydisk/mymovie.mov</pathurl>
                     <rate>
                        <timebase>24</timebase>
                        <ntsc>TRUE</ntsc>
                     </rate>
                     <duration>69</duration>
                     <timecode>
                        <rate>
                           <timebase>24</timebase>
                           <ntsc>TRUE</ntsc>
                        </rate>
                        <string>14:41:06:00</string>
                        <frame>1268784</frame>
                        <displayformat>NDF</displayformat>
                     </timecode>
                     <media>
                        <video>
                           <samplecharacteristics>
                              <rate>
                                 <timebase>24</timebase>
                                 <ntsc>TRUE</ntsc>
                              </rate>
                              <width>2048</width>
                              <height>858</height>
                              <anamorphic>FALSE</anamorphic>
                              <pixelaspectratio>square</pixelaspectratio>
                              <fielddominance>none</fielddominance>
                           </samplecharacteristics>
                        </video>
                     </media>
                  </file>
                  <logginginfo>
                     <description />
                     <scene />
                     <shottake />
                     <lognote />
                     <good />
                     <originalvideofilename />
                     <originalaudiofilename />
                  </logginginfo>
                  <colorinfo>
                     <lut />
                     <lut1 />
                     <asc_sop />
                     <asc_sat />
                     <lut2 />
                  </colorinfo>
                  <labels>
                     <label2>Violet</label2>
                  </labels>
               </clipitem>
               <clipitem id="clipitem-611">
                  <masterclipid>masterclip-365</masterclipid>
                  <name>mymovie.mov</name>
                  <enabled>TRUE</enabled>
                  <duration>69</duration>
                  <rate>
                     <timebase>24</timebase>
                     <ntsc>TRUE</ntsc>
                  </rate>
                  <start>2207</start>
                  <end>2259</end>
                  <in>9</in>
                  <out>61</out>
                  <pproTicksIn>95351256000</pproTicksIn>
                  <pproTicksOut>646269624000</pproTicksOut>
                  <alphatype>none</alphatype>
                  <pixelaspectratio>square</pixelaspectratio>
                  <anamorphic>FALSE</anamorphic>
                  <file id="file-356">
                     <name>mymovie.mov</name>
                     <pathurl>file://localhost/Volumes/mydisk/mymovie.mov</pathurl>
                     <rate>
                        <timebase>24</timebase>
                        <ntsc>TRUE</ntsc>
                     </rate>
                     <duration>69</duration>
                     <timecode>
                        <rate>
                           <timebase>24</timebase>
                           <ntsc>TRUE</ntsc>
                        </rate>
                        <string>13:59:56:17</string>
                        <frame>1209521</frame>
                        <displayformat>NDF</displayformat>
                     </timecode>
                     <media>
                        <video>
                           <samplecharacteristics>
                              <rate>
                                 <timebase>24</timebase>
                                 <ntsc>TRUE</ntsc>
                              </rate>
                              <width>2048</width>
                              <height>858</height>
                              <anamorphic>FALSE</anamorphic>
                              <pixelaspectratio>square</pixelaspectratio>
                              <fielddominance>none</fielddominance>
                           </samplecharacteristics>
                        </video>
                     </media>
                  </file>
                  <filter>
                     <effect>
                        <name>Basic Motion</name>
                        <effectid>basic</effectid>
                        <effectcategory>motion</effectcategory>
                        <effecttype>motion</effecttype>
                        <mediatype>video</mediatype>
                        <pproBypass>false</pproBypass>
                        <parameter authoringApp="PremierePro">
                           <parameterid>scale</parameterid>
                           <name>Scale</name>
                           <valuemin>0</valuemin>
                           <valuemax>1000</valuemax>
                           <value>93.8</value>
                        </parameter>
                        <parameter authoringApp="PremierePro">
                           <parameterid>rotation</parameterid>
                           <name>Rotation</name>
                           <valuemin>-8640</valuemin>
                           <valuemax>8640</valuemax>
                           <value>0</value>
                        </parameter>
                        <parameter authoringApp="PremierePro">
                           <parameterid>center</parameterid>
                           <name>Center</name>
                           <value>
                              <horiz>0</horiz>
                              <vert>0</vert>
                           </value>
                        </parameter>
                        <parameter authoringApp="PremierePro">
                           <parameterid>centerOffset</parameterid>
                           <name>Anchor Point</name>
                           <value>
                              <horiz>0</horiz>
                              <vert>0</vert>
                           </value>
                        </parameter>
                        <parameter authoringApp="PremierePro">
                           <parameterid>antiflicker</parameterid>
                           <name>Anti-flicker Filter</name>
                           <valuemin>0.0</valuemin>
                           <valuemax>1.0</valuemax>
                           <value>0</value>
                        </parameter>
                     </effect>
                  </filter>
                  <logginginfo>
                     <description />
                     <scene />
                     <shottake />
                     <lognote />
                     <good />
                     <originalvideofilename />
                     <originalaudiofilename />
                  </logginginfo>
                  <colorinfo>
                     <lut />
                     <lut1 />
                     <asc_sop />
                     <asc_sat />
                     <lut2 />
                  </colorinfo>
                  <labels>
                     <label2>Violet</label2>
                  </labels>
               </clipitem>
               <clipitem id="clipitem-612">
                  <masterclipid>masterclip-366</masterclipid>
                  <name>mymovie.mov</name>
                  <enabled>TRUE</enabled>
                  <duration>99</duration>
                  <rate>
                     <timebase>24</timebase>
                     <ntsc>TRUE</ntsc>
                  </rate>
                  <start>2306</start>
                  <end>2388</end>
                  <in>9</in>
                  <out>91</out>
                  <pproTicksIn>95351256000</pproTicksIn>
                  <pproTicksOut>964107144000</pproTicksOut>
                  <alphatype>none</alphatype>
                  <pixelaspectratio>square</pixelaspectratio>
                  <anamorphic>FALSE</anamorphic>
                  <file id="file-357">
                     <name>mymovie.mov</name>
                     <pathurl>file://localhost/Volumes/mydisk/mymovie.mov</pathurl>
                     <rate>
                        <timebase>24</timebase>
                        <ntsc>TRUE</ntsc>
                     </rate>
                     <duration>99</duration>
                     <timecode>
                        <rate>
                           <timebase>24</timebase>
                           <ntsc>TRUE</ntsc>
                        </rate>
                        <string>14:00:04:14</string>
                        <frame>1209710</frame>
                        <displayformat>NDF</displayformat>
                     </timecode>
                     <media>
                        <video>
                           <samplecharacteristics>
                              <rate>
                                 <timebase>24</timebase>
                                 <ntsc>TRUE</ntsc>
                              </rate>
                              <width>2048</width>
                              <height>858</height>
                              <anamorphic>FALSE</anamorphic>
                              <pixelaspectratio>square</pixelaspectratio>
                              <fielddominance>none</fielddominance>
                           </samplecharacteristics>
                        </video>
                     </media>
                  </file>
                  <filter>
                     <effect>
                        <name>Basic Motion</name>
                        <effectid>basic</effectid>
                        <effectcategory>motion</effectcategory>
                        <effecttype>motion</effecttype>
                        <mediatype>video</mediatype>
                        <pproBypass>false</pproBypass>
                        <parameter authoringApp="PremierePro">
                           <parameterid>scale</parameterid>
                           <name>Scale</name>
                           <valuemin>0</valuemin>
                           <valuemax>1000</valuemax>
                           <value>93.8</value>
                        </parameter>
                        <parameter authoringApp="PremierePro">
                           <parameterid>rotation</parameterid>
                           <name>Rotation</name>
                           <valuemin>-8640</valuemin>
                           <valuemax>8640</valuemax>
                           <value>0</value>
                        </parameter>
                        <parameter authoringApp="PremierePro">
                           <parameterid>center</parameterid>
                           <name>Center</name>
                           <value>
                              <horiz>0</horiz>
                              <vert>0</vert>
                           </value>
                        </parameter>
                        <parameter authoringApp="PremierePro">
                           <parameterid>centerOffset</parameterid>
                           <name>Anchor Point</name>
                           <value>
                              <horiz>0</horiz>
                              <vert>0</vert>
                           </value>
                        </parameter>
                        <parameter authoringApp="PremierePro">
                           <parameterid>antiflicker</parameterid>
                           <name>Anti-flicker Filter</name>
                           <valuemin>0.0</valuemin>
                           <valuemax>1.0</valuemax>
                           <value>0</value>
                        </parameter>
                     </effect>
                  </filter>
                  <logginginfo>
                     <description />
                     <scene />
                     <shottake />
                     <lognote />
                     <good />
                     <originalvideofilename />
                     <originalaudiofilename />
                  </logginginfo>
                  <colorinfo>
                     <lut />
                     <lut1 />
                     <asc_sop />
                     <asc_sat />
                     <lut2 />
                  </colorinfo>
                  <labels>
                     <label2>Violet</label2>
                  </labels>
               </clipitem>
               <clipitem id="clipitem-613">
                  <masterclipid>masterclip-367</masterclipid>
                  <name>mymovie.mov</name>
                  <enabled>TRUE</enabled>
                  <duration>136</duration>
                  <rate>
                     <timebase>24</timebase>
                     <ntsc>TRUE</ntsc>
                  </rate>
                  <start>2819</start>
                  <end>2938</end>
                  <in>9</in>
                  <out>128</out>
                  <pproTicksIn>95351256000</pproTicksIn>
                  <pproTicksOut>1356106752000</pproTicksOut>
                  <alphatype>none</alphatype>
                  <pixelaspectratio>square</pixelaspectratio>
                  <anamorphic>FALSE</anamorphic>
                  <file id="file-358">
                     <name>mymovie.mov</name>
                     <pathurl>file://localhost/Volumes/mydisk/mymovie.mov</pathurl>
                     <rate>
                        <timebase>24</timebase>
                        <ntsc>TRUE</ntsc>
                     </rate>
                     <duration>136</duration>
                     <timecode>
                        <rate>
                           <timebase>24</timebase>
                           <ntsc>TRUE</ntsc>
                        </rate>
                        <string>16:55:04:07</string>
                        <frame>1461703</frame>
                        <displayformat>NDF</displayformat>
                     </timecode>
                     <media>
                        <video>
                           <samplecharacteristics>
                              <rate>
                                 <timebase>24</timebase>
                                 <ntsc>TRUE</ntsc>
                              </rate>
                              <width>2048</width>
                              <height>858</height>
                              <anamorphic>FALSE</anamorphic>
                              <pixelaspectratio>square</pixelaspectratio>
                              <fielddominance>none</fielddominance>
                           </samplecharacteristics>
                        </video>
                     </media>
                  </file>
                  <filter>
                     <effect>
                        <name>Basic Motion</name>
                        <effectid>basic</effectid>
                        <effectcategory>motion</effectcategory>
                        <effecttype>motion</effecttype>
                        <mediatype>video</mediatype>
                        <pproBypass>false</pproBypass>
                        <parameter authoringApp="PremierePro">
                           <parameterid>scale</parameterid>
                           <name>Scale</name>
                           <valuemin>0</valuemin>
                           <valuemax>1000</valuemax>
                           <value>93.8</value>
                        </parameter>
                        <parameter authoringApp="PremierePro">
                           <parameterid>rotation</parameterid>
                           <name>Rotation</name>
                           <valuemin>-8640</valuemin>
                           <valuemax>8640</valuemax>
                           <value>0</value>
                        </parameter>
                        <parameter authoringApp="PremierePro">
                           <parameterid>center</parameterid>
                           <name>Center</name>
                           <value>
                              <horiz>0</horiz>
                              <vert>0</vert>
                           </value>
                        </parameter>
                        <parameter authoringApp="PremierePro">
                           <parameterid>centerOffset</parameterid>
                           <name>Anchor Point</name>
                           <value>
                              <horiz>0</horiz>
                              <vert>0</vert>
                           </value>
                        </parameter>
                        <parameter authoringApp="PremierePro">
                           <parameterid>antiflicker</parameterid>
                           <name>Anti-flicker Filter</name>
                           <valuemin>0.0</valuemin>
                           <valuemax>1.0</valuemax>
                           <value>0</value>
                        </parameter>
                     </effect>
                  </filter>
                  <logginginfo>
                     <description />
                     <scene />
                     <shottake />
                     <lognote />
                     <good />
                     <originalvideofilename />
                     <originalaudiofilename />
                  </logginginfo>
                  <colorinfo>
                     <lut />
                     <lut1 />
                     <asc_sop />
                     <asc_sat />
                     <lut2 />
                  </colorinfo>
                  <labels>
                     <label2>Violet</label2>
                  </labels>
               </clipitem>
               <clipitem id="clipitem-614">
                  <masterclipid>masterclip-368</masterclipid>
                  <name>mymovie.mov</name>
                  <enabled>TRUE</enabled>
                  <duration>137</duration>
                  <rate>
                     <timebase>24</timebase>
                     <ntsc>TRUE</ntsc>
                  </rate>
                  <start>2938</start>
                  <end>3058</end>
                  <in>9</in>
                  <out>129</out>
                  <pproTicksIn>95351256000</pproTicksIn>
                  <pproTicksOut>1366701336000</pproTicksOut>
                  <alphatype>none</alphatype>
                  <pixelaspectratio>square</pixelaspectratio>
                  <anamorphic>FALSE</anamorphic>
                  <file id="file-359">
                     <name>mymovie.mov</name>
                     <pathurl>file://localhost/Volumes/mydisk/mymovie.mov</pathurl>
                     <rate>
                        <timebase>24</timebase>
                        <ntsc>TRUE</ntsc>
                     </rate>
                     <duration>137</duration>
                     <timecode>
                        <rate>
                           <timebase>24</timebase>
                           <ntsc>TRUE</ntsc>
                        </rate>
                        <string>16:14:49:16</string>
                        <frame>1403752</frame>
                        <displayformat>NDF</displayformat>
                     </timecode>
                     <media>
                        <video>
                           <samplecharacteristics>
                              <rate>
                                 <timebase>24</timebase>
                                 <ntsc>TRUE</ntsc>
                              </rate>
                              <width>2048</width>
                              <height>858</height>
                              <anamorphic>FALSE</anamorphic>
                              <pixelaspectratio>square</pixelaspectratio>
                              <fielddominance>none</fielddominance>
                           </samplecharacteristics>
                        </video>
                     </media>
                  </file>
                  <filter>
                     <effect>
                        <name>Basic Motion</name>
                        <effectid>basic</effectid>
                        <effectcategory>motion</effectcategory>
                        <effecttype>motion</effecttype>
                        <mediatype>video</mediatype>
                        <pproBypass>false</pproBypass>
                        <parameter authoringApp="PremierePro">
                           <parameterid>scale</parameterid>
                           <name>Scale</name>
                           <valuemin>0</valuemin>
                           <valuemax>1000</valuemax>
                           <value>93.8</value>
                        </parameter>
                        <parameter authoringApp="PremierePro">
                           <parameterid>rotation</parameterid>
                           <name>Rotation</name>
                           <valuemin>-8640</valuemin>
                           <valuemax>8640</valuemax>
                           <value>0</value>
                        </parameter>
                        <parameter authoringApp="PremierePro">
                           <parameterid>center</parameterid>
                           <name>Center</name>
                           <value>
                              <horiz>0</horiz>
                              <vert>0</vert>
                           </value>
                        </parameter>
                        <parameter authoringApp="PremierePro">
                           <parameterid>centerOffset</parameterid>
                           <name>Anchor Point</name>
                           <value>
                              <horiz>0</horiz>
                              <vert>0</vert>
                           </value>
                        </parameter>
                        <parameter authoringApp="PremierePro">
                           <parameterid>antiflicker</parameterid>
                           <name>Anti-flicker Filter</name>
                           <valuemin>0.0</valuemin>
                           <valuemax>1.0</valuemax>
                           <value>0</value>
                        </parameter>
                     </effect>
                  </filter>
                  <logginginfo>
                     <description />
                     <scene />
                     <shottake />
                     <lognote />
                     <good />
                     <originalvideofilename />
                     <originalaudiofilename />
                  </logginginfo>
                  <colorinfo>
                     <lut />
                     <lut1 />
                     <asc_sop />
                     <asc_sat />
                     <lut2 />
                  </colorinfo>
                  <labels>
                     <label2>Violet</label2>
                  </labels>
               </clipitem>
               <clipitem id="clipitem-615">
                  <masterclipid>masterclip-369</masterclipid>
                  <name>mymovie.mov</name>
                  <enabled>TRUE</enabled>
                  <duration>266</duration>
                  <rate>
                     <timebase>24</timebase>
                     <ntsc>TRUE</ntsc>
                  </rate>
                  <start>3058</start>
                  <end>3307</end>
                  <in>9</in>
                  <out>258</out>
                  <pproTicksIn>95351256000</pproTicksIn>
                  <pproTicksOut>2733402672000</pproTicksOut>
                  <alphatype>none</alphatype>
                  <pixelaspectratio>square</pixelaspectratio>
                  <anamorphic>FALSE</anamorphic>
                  <file id="file-360">
                     <name>mymovie.mov</name>
                     <pathurl>file://localhost/Volumes/mydisk/mymovie.mov</pathurl>
                     <rate>
                        <timebase>24</timebase>
                        <ntsc>TRUE</ntsc>
                     </rate>
                     <duration>266</duration>
                     <timecode>
                        <rate>
                           <timebase>24</timebase>
                           <ntsc>TRUE</ntsc>
                        </rate>
                        <string>07:22:07:18</string>
                        <frame>636666</frame>
                        <displayformat>NDF</displayformat>
                     </timecode>
                     <media>
                        <video>
                           <samplecharacteristics>
                              <rate>
                                 <timebase>24</timebase>
                                 <ntsc>TRUE</ntsc>
                              </rate>
                              <width>2048</width>
                              <height>858</height>
                              <anamorphic>FALSE</anamorphic>
                              <pixelaspectratio>square</pixelaspectratio>
                              <fielddominance>none</fielddominance>
                           </samplecharacteristics>
                        </video>
                     </media>
                  </file>
                  <filter>
                     <effect>
                        <name>Basic Motion</name>
                        <effectid>basic</effectid>
                        <effectcategory>motion</effectcategory>
                        <effecttype>motion</effecttype>
                        <mediatype>video</mediatype>
                        <pproBypass>false</pproBypass>
                        <parameter authoringApp="PremierePro">
                           <parameterid>scale</parameterid>
                           <name>Scale</name>
                           <valuemin>0</valuemin>
                           <valuemax>1000</valuemax>
                           <value>93.75</value>
                        </parameter>
                        <parameter authoringApp="PremierePro">
                           <parameterid>rotation</parameterid>
                           <name>Rotation</name>
                           <valuemin>-8640</valuemin>
                           <valuemax>8640</valuemax>
                           <value>0</value>
                        </parameter>
                        <parameter authoringApp="PremierePro">
                           <parameterid>center</parameterid>
                           <name>Center</name>
                           <value>
                              <horiz>0</horiz>
                              <vert>0</vert>
                           </value>
                        </parameter>
                        <parameter authoringApp="PremierePro">
                           <parameterid>centerOffset</parameterid>
                           <name>Anchor Point</name>
                           <value>
                              <horiz>0</horiz>
                              <vert>0</vert>
                           </value>
                        </parameter>
                        <parameter authoringApp="PremierePro">
                           <parameterid>antiflicker</parameterid>
                           <name>Anti-flicker Filter</name>
                           <valuemin>0.0</valuemin>
                           <valuemax>1.0</valuemax>
                           <value>0</value>
                        </parameter>
                     </effect>
                  </filter>
                  <logginginfo>
                     <description />
                     <scene />
                     <shottake />
                     <lognote />
                     <good />
                     <originalvideofilename />
                     <originalaudiofilename />
                  </logginginfo>
                  <colorinfo>
                     <lut />
                     <lut1 />
                     <asc_sop />
                     <asc_sat />
                     <lut2 />
                  </colorinfo>
                  <labels>
                     <label2>Violet</label2>
                  </labels>
               </clipitem>
               <enabled>FALSE</enabled>
               <locked>FALSE</locked>
            </track>
            <track TL.SQTrackShy="0" TL.SQTrackExpandedHeight="25" TL.SQTrackExpanded="0" MZ.TrackTargeted="0">
               <clipitem id="clipitem-616">
                  <masterclipid>masterclip-370</masterclipid>
                  <name>mymovie.mov</name>
                  <enabled>TRUE</enabled>
                  <duration>78</duration>
                  <rate>
                     <timebase>24</timebase>
                     <ntsc>TRUE</ntsc>
                  </rate>
                  <start>2094</start>
                  <end>2155</end>
                  <in>9</in>
                  <out>70</out>
                  <pproTicksIn>95351256000</pproTicksIn>
                  <pproTicksOut>741620880000</pproTicksOut>
                  <alphatype>none</alphatype>
                  <pixelaspectratio>square</pixelaspectratio>
                  <anamorphic>FALSE</anamorphic>
                  <file id="file-361">
                     <name>mymovie.mov</name>
                     <pathurl>file://localhost/Volumes/mydisk/mymovie.mov</pathurl>
                     <rate>
                        <timebase>24</timebase>
                        <ntsc>TRUE</ntsc>
                     </rate>
                     <duration>78</duration>
                     <timecode>
                        <rate>
                           <timebase>24</timebase>
                           <ntsc>TRUE</ntsc>
                        </rate>
                        <string>13:53:44:05</string>
                        <frame>1200581</frame>
                        <displayformat>NDF</displayformat>
                     </timecode>
                     <media>
                        <video>
                           <samplecharacteristics>
                              <rate>
                                 <timebase>24</timebase>
                                 <ntsc>TRUE</ntsc>
                              </rate>
                              <width>2048</width>
                              <height>858</height>
                              <anamorphic>FALSE</anamorphic>
                              <pixelaspectratio>square</pixelaspectratio>
                              <fielddominance>none</fielddominance>
                           </samplecharacteristics>
                        </video>
                     </media>
                  </file>
                  <filter>
                     <effect>
                        <name>Basic Motion</name>
                        <effectid>basic</effectid>
                        <effectcategory>motion</effectcategory>
                        <effecttype>motion</effecttype>
                        <mediatype>video</mediatype>
                        <pproBypass>false</pproBypass>
                        <parameter authoringApp="PremierePro">
                           <parameterid>scale</parameterid>
                           <name>Scale</name>
                           <valuemin>0</valuemin>
                           <valuemax>1000</valuemax>
                           <value>93.8</value>
                        </parameter>
                        <parameter authoringApp="PremierePro">
                           <parameterid>rotation</parameterid>
                           <name>Rotation</name>
                           <valuemin>-8640</valuemin>
                           <valuemax>8640</valuemax>
                           <value>0</value>
                        </parameter>
                        <parameter authoringApp="PremierePro">
                           <parameterid>center</parameterid>
                           <name>Center</name>
                           <value>
                              <horiz>0</horiz>
                              <vert>0</vert>
                           </value>
                        </parameter>
                        <parameter authoringApp="PremierePro">
                           <parameterid>centerOffset</parameterid>
                           <name>Anchor Point</name>
                           <value>
                              <horiz>0</horiz>
                              <vert>0</vert>
                           </value>
                        </parameter>
                        <parameter authoringApp="PremierePro">
                           <parameterid>antiflicker</parameterid>
                           <name>Anti-flicker Filter</name>
                           <valuemin>0.0</valuemin>
                           <valuemax>1.0</valuemax>
                           <value>0</value>
                        </parameter>
                     </effect>
                  </filter>
                  <logginginfo>
                     <description />
                     <scene />
                     <shottake />
                     <lognote />
                     <good />
                     <originalvideofilename />
                     <originalaudiofilename />
                  </logginginfo>
                  <colorinfo>
                     <lut />
                     <lut1 />
                     <asc_sop />
                     <asc_sat />
                     <lut2 />
                  </colorinfo>
                  <labels>
                     <label2>Violet</label2>
                  </labels>
               </clipitem>
               <clipitem id="clipitem-617">
                  <masterclipid>masterclip-371</masterclipid>
                  <name>mymovie.mov</name>
                  <enabled>TRUE</enabled>
                  <duration>266</duration>
                  <rate>
                     <timebase>24</timebase>
                     <ntsc>TRUE</ntsc>
                  </rate>
                  <start>3058</start>
                  <end>3307</end>
                  <in>9</in>
                  <out>258</out>
                  <pproTicksIn>95351256000</pproTicksIn>
                  <pproTicksOut>2733402672000</pproTicksOut>
                  <alphatype>none</alphatype>
                  <pixelaspectratio>square</pixelaspectratio>
                  <anamorphic>FALSE</anamorphic>
                  <file id="file-362">
                     <name>mymovie.mov</name>
                     <pathurl>file://localhost/Volumes/mydisk/mymovie.mov</pathurl>
                     <rate>
                        <timebase>24</timebase>
                        <ntsc>TRUE</ntsc>
                     </rate>
                     <duration>266</duration>
                     <timecode>
                        <rate>
                           <timebase>24</timebase>
                           <ntsc>TRUE</ntsc>
                        </rate>
                        <string>07:22:07:18</string>
                        <frame>636666</frame>
                        <displayformat>NDF</displayformat>
                     </timecode>
                     <media>
                        <video>
                           <samplecharacteristics>
                              <rate>
                                 <timebase>24</timebase>
                                 <ntsc>TRUE</ntsc>
                              </rate>
                              <width>2048</width>
                              <height>858</height>
                              <anamorphic>FALSE</anamorphic>
                              <pixelaspectratio>square</pixelaspectratio>
                              <fielddominance>none</fielddominance>
                           </samplecharacteristics>
                        </video>
                     </media>
                  </file>
                  <filter>
                     <effect>
                        <name>Basic Motion</name>
                        <effectid>basic</effectid>
                        <effectcategory>motion</effectcategory>
                        <effecttype>motion</effecttype>
                        <mediatype>video</mediatype>
                        <pproBypass>false</pproBypass>
                        <parameter authoringApp="PremierePro">
                           <parameterid>scale</parameterid>
                           <name>Scale</name>
                           <valuemin>0</valuemin>
                           <valuemax>1000</valuemax>
                           <value>93.75</value>
                        </parameter>
                        <parameter authoringApp="PremierePro">
                           <parameterid>rotation</parameterid>
                           <name>Rotation</name>
                           <valuemin>-8640</valuemin>
                           <valuemax>8640</valuemax>
                           <value>0</value>
                        </parameter>
                        <parameter authoringApp="PremierePro">
                           <parameterid>center</parameterid>
                           <name>Center</name>
                           <value>
                              <horiz>0</horiz>
                              <vert>0</vert>
                           </value>
                        </parameter>
                        <parameter authoringApp="PremierePro">
                           <parameterid>centerOffset</parameterid>
                           <name>Anchor Point</name>
                           <value>
                              <horiz>0</horiz>
                              <vert>0</vert>
                           </value>
                        </parameter>
                        <parameter authoringApp="PremierePro">
                           <parameterid>antiflicker</parameterid>
                           <name>Anti-flicker Filter</name>
                           <valuemin>0.0</valuemin>
                           <valuemax>1.0</valuemax>
                           <value>0</value>
                        </parameter>
                     </effect>
                  </filter>
                  <logginginfo>
                     <description />
                     <scene />
                     <shottake />
                     <lognote />
                     <good />
                     <originalvideofilename />
                     <originalaudiofilename />
                  </logginginfo>
                  <colorinfo>
                     <lut />
                     <lut1 />
                     <asc_sop />
                     <asc_sat />
                     <lut2 />
                  </colorinfo>
                  <labels>
                     <label2>Iris</label2>
                  </labels>
               </clipitem>
               <enabled>FALSE</enabled>
               <locked>FALSE</locked>
            </track>
            <track TL.SQTrackShy="0" TL.SQTrackExpandedHeight="25" TL.SQTrackExpanded="0" MZ.TrackTargeted="0">
               <clipitem id="clipitem-618">
                  <masterclipid>masterclip-372</masterclipid>
                  <name>mymovie.mov</name>
                  <enabled>TRUE</enabled>
                  <duration>266</duration>
                  <rate>
                     <timebase>24</timebase>
                     <ntsc>TRUE</ntsc>
                  </rate>
                  <start>3058</start>
                  <end>3307</end>
                  <in>9</in>
                  <out>258</out>
                  <pproTicksIn>95351256000</pproTicksIn>
                  <pproTicksOut>2733402672000</pproTicksOut>
                  <alphatype>none</alphatype>
                  <pixelaspectratio>square</pixelaspectratio>
                  <anamorphic>FALSE</anamorphic>
                  <file id="file-363">
                     <name>mymovie.mov</name>
                     <pathurl>file://localhost/Volumes/mydisk/mymovie.mov</pathurl>
                     <rate>
                        <timebase>24</timebase>
                        <ntsc>TRUE</ntsc>
                     </rate>
                     <duration>266</duration>
                     <timecode>
                        <rate>
                           <timebase>24</timebase>
                           <ntsc>TRUE</ntsc>
                        </rate>
                        <string>07:22:07:18</string>
                        <frame>636666</frame>
                        <displayformat>NDF</displayformat>
                     </timecode>
                     <media>
                        <video>
                           <samplecharacteristics>
                              <rate>
                                 <timebase>24</timebase>
                                 <ntsc>TRUE</ntsc>
                              </rate>
                              <width>2048</width>
                              <height>858</height>
                              <anamorphic>FALSE</anamorphic>
                              <pixelaspectratio>square</pixelaspectratio>
                              <fielddominance>none</fielddominance>
                           </samplecharacteristics>
                        </video>
                     </media>
                  </file>
                  <filter>
                     <effect>
                        <name>Basic Motion</name>
                        <effectid>basic</effectid>
                        <effectcategory>motion</effectcategory>
                        <effecttype>motion</effecttype>
                        <mediatype>video</mediatype>
                        <pproBypass>false</pproBypass>
                        <parameter authoringApp="PremierePro">
                           <parameterid>scale</parameterid>
                           <name>Scale</name>
                           <valuemin>0</valuemin>
                           <valuemax>1000</valuemax>
                           <value>93.8</value>
                        </parameter>
                        <parameter authoringApp="PremierePro">
                           <parameterid>rotation</parameterid>
                           <name>Rotation</name>
                           <valuemin>-8640</valuemin>
                           <valuemax>8640</valuemax>
                           <value>0</value>
                        </parameter>
                        <parameter authoringApp="PremierePro">
                           <parameterid>center</parameterid>
                           <name>Center</name>
                           <value>
                              <horiz>0</horiz>
                              <vert>0</vert>
                           </value>
                        </parameter>
                        <parameter authoringApp="PremierePro">
                           <parameterid>centerOffset</parameterid>
                           <name>Anchor Point</name>
                           <value>
                              <horiz>0</horiz>
                              <vert>0</vert>
                           </value>
                        </parameter>
                        <parameter authoringApp="PremierePro">
                           <parameterid>antiflicker</parameterid>
                           <name>Anti-flicker Filter</name>
                           <valuemin>0.0</valuemin>
                           <valuemax>1.0</valuemax>
                           <value>0</value>
                        </parameter>
                     </effect>
                  </filter>
                  <logginginfo>
                     <description />
                     <scene />
                     <shottake />
                     <lognote />
                     <good />
                     <originalvideofilename />
                     <originalaudiofilename />
                  </logginginfo>
                  <colorinfo>
                     <lut />
                     <lut1 />
                     <asc_sop />
                     <asc_sat />
                     <lut2 />
                  </colorinfo>
                  <labels>
                     <label2>Violet</label2>
                  </labels>
               </clipitem>
               <enabled>FALSE</enabled>
               <locked>FALSE</locked>
            </track>
            <track TL.SQTrackShy="0" TL.SQTrackExpandedHeight="25" TL.SQTrackExpanded="0" MZ.TrackTargeted="0">
               <enabled>FALSE</enabled>
               <locked>FALSE</locked>
            </track>
            <track TL.SQTrackShy="0" TL.SQTrackExpandedHeight="25" TL.SQTrackExpanded="0" MZ.TrackTargeted="0">
               <enabled>FALSE</enabled>
               <locked>FALSE</locked>
            </track>
         </video>
         <audio>
            <numOutputChannels>2</numOutputChannels>
            <format>
               <samplecharacteristics>
                  <depth>16</depth>
                  <samplerate>48000</samplerate>
               </samplecharacteristics>
            </format>
            <outputs>
               <group>
                  <index>1</index>
                  <numchannels>1</numchannels>
                  <downmix>0</downmix>
                  <channel>
                     <index>1</index>
                  </channel>
               </group>
               <group>
                  <index>2</index>
                  <numchannels>1</numchannels>
                  <downmix>0</downmix>
                  <channel>
                     <index>2</index>
                  </channel>
               </group>
            </outputs>
            <track TL.SQTrackAudioKeyframeStyle="0" TL.SQTrackShy="0" TL.SQTrackExpandedHeight="25" TL.SQTrackExpanded="0" MZ.TrackTargeted="1" PannerCurrentValue="0.5" PannerIsInverted="true" PannerStartKeyframe="-91445760000000000,0.5,0,0,0,0,0,0" PannerName="Balance" currentExplodedTrackIndex="0" totalExplodedTrackCount="2" premiereTrackType="Stereo">
               <clipitem id="clipitem-619" premiereChannelType="stereo">
                  <masterclipid>masterclip-250</masterclipid>
                  <name>mymovie.mov</name>
                  <enabled>TRUE</enabled>
                  <duration>3502</duration>
                  <rate>
                     <timebase>24</timebase>
                     <ntsc>TRUE</ntsc>
                  </rate>
                  <start>15</start>
                  <end>90</end>
                  <in>0</in>
                  <out>75</out>
                  <pproTicksIn>0</pproTicksIn>
                  <pproTicksOut>794593800000</pproTicksOut>
                  <file id="file-243" />
                  <sourcetrack>
                     <mediatype>audio</mediatype>
                     <trackindex>1</trackindex>
                  </sourcetrack>
                  <link>
                     <linkclipref>clipitem-458</linkclipref>
                     <mediatype>video</mediatype>
                     <trackindex>1</trackindex>
                     <clipindex>2</clipindex>
                  </link>
                  <link>
                     <linkclipref>clipitem-619</linkclipref>
                     <mediatype>audio</mediatype>
                     <trackindex>1</trackindex>
                     <clipindex>1</clipindex>
                     <groupindex>1</groupindex>
                  </link>
                  <link>
                     <linkclipref>clipitem-652</linkclipref>
                     <mediatype>audio</mediatype>
                     <trackindex>2</trackindex>
                     <clipindex>1</clipindex>
                     <groupindex>1</groupindex>
                  </link>
                  <logginginfo>
                     <description />
                     <scene />
                     <shottake />
                     <lognote />
                     <good />
                     <originalvideofilename />
                     <originalaudiofilename />
                  </logginginfo>
                  <colorinfo>
                     <lut />
                     <lut1 />
                     <asc_sop />
                     <asc_sat />
                     <lut2 />
                  </colorinfo>
                  <labels>
                     <label2>Iris</label2>
                  </labels>
               </clipitem>
               <clipitem id="clipitem-620" premiereChannelType="stereo">
                  <masterclipid>masterclip-250</masterclipid>
                  <name>mymovie.mov</name>
                  <enabled>TRUE</enabled>
                  <duration>3502</duration>
                  <rate>
                     <timebase>24</timebase>
                     <ntsc>TRUE</ntsc>
                  </rate>
                  <start>90</start>
                  <end>222</end>
                  <in>75</in>
                  <out>207</out>
                  <pproTicksIn>794593800000</pproTicksIn>
                  <pproTicksOut>2193078888000</pproTicksOut>
                  <file id="file-243" />
                  <sourcetrack>
                     <mediatype>audio</mediatype>
                     <trackindex>1</trackindex>
                  </sourcetrack>
                  <link>
                     <linkclipref>clipitem-459</linkclipref>
                     <mediatype>video</mediatype>
                     <trackindex>1</trackindex>
                     <clipindex>3</clipindex>
                  </link>
                  <link>
                     <linkclipref>clipitem-620</linkclipref>
                     <mediatype>audio</mediatype>
                     <trackindex>1</trackindex>
                     <clipindex>2</clipindex>
                     <groupindex>1</groupindex>
                  </link>
                  <link>
                     <linkclipref>clipitem-653</linkclipref>
                     <mediatype>audio</mediatype>
                     <trackindex>2</trackindex>
                     <clipindex>2</clipindex>
                     <groupindex>1</groupindex>
                  </link>
                  <logginginfo>
                     <description />
                     <scene />
                     <shottake />
                     <lognote />
                     <good />
                     <originalvideofilename />
                     <originalaudiofilename />
                  </logginginfo>
                  <colorinfo>
                     <lut />
                     <lut1 />
                     <asc_sop />
                     <asc_sat />
                     <lut2 />
                  </colorinfo>
                  <labels>
                     <label2>Iris</label2>
                  </labels>
               </clipitem>
               <clipitem id="clipitem-621" premiereChannelType="stereo">
                  <masterclipid>masterclip-250</masterclipid>
                  <name>mymovie.mov</name>
                  <enabled>TRUE</enabled>
                  <duration>3502</duration>
                  <rate>
                     <timebase>24</timebase>
                     <ntsc>TRUE</ntsc>
                  </rate>
                  <start>222</start>
                  <end>396</end>
                  <in>207</in>
                  <out>381</out>
                  <pproTicksIn>2193078888000</pproTicksIn>
                  <pproTicksOut>4036536504000</pproTicksOut>
                  <file id="file-243" />
                  <sourcetrack>
                     <mediatype>audio</mediatype>
                     <trackindex>1</trackindex>
                  </sourcetrack>
                  <link>
                     <linkclipref>clipitem-460</linkclipref>
                     <mediatype>video</mediatype>
                     <trackindex>1</trackindex>
                     <clipindex>4</clipindex>
                  </link>
                  <link>
                     <linkclipref>clipitem-621</linkclipref>
                     <mediatype>audio</mediatype>
                     <trackindex>1</trackindex>
                     <clipindex>3</clipindex>
                     <groupindex>1</groupindex>
                  </link>
                  <link>
                     <linkclipref>clipitem-654</linkclipref>
                     <mediatype>audio</mediatype>
                     <trackindex>2</trackindex>
                     <clipindex>3</clipindex>
                     <groupindex>1</groupindex>
                  </link>
                  <logginginfo>
                     <description />
                     <scene />
                     <shottake />
                     <lognote />
                     <good />
                     <originalvideofilename />
                     <originalaudiofilename />
                  </logginginfo>
                  <colorinfo>
                     <lut />
                     <lut1 />
                     <asc_sop />
                     <asc_sat />
                     <lut2 />
                  </colorinfo>
                  <labels>
                     <label2>Iris</label2>
                  </labels>
               </clipitem>
               <clipitem id="clipitem-622" premiereChannelType="stereo">
                  <masterclipid>masterclip-250</masterclipid>
                  <name>mymovie.mov</name>
                  <enabled>TRUE</enabled>
                  <duration>3502</duration>
                  <rate>
                     <timebase>24</timebase>
                     <ntsc>TRUE</ntsc>
                  </rate>
                  <start>396</start>
                  <end>493</end>
                  <in>381</in>
                  <out>478</out>
                  <pproTicksIn>4036536504000</pproTicksIn>
                  <pproTicksOut>5064211152000</pproTicksOut>
                  <file id="file-243" />
                  <sourcetrack>
                     <mediatype>audio</mediatype>
                     <trackindex>1</trackindex>
                  </sourcetrack>
                  <link>
                     <linkclipref>clipitem-461</linkclipref>
                     <mediatype>video</mediatype>
                     <trackindex>1</trackindex>
                     <clipindex>5</clipindex>
                  </link>
                  <link>
                     <linkclipref>clipitem-622</linkclipref>
                     <mediatype>audio</mediatype>
                     <trackindex>1</trackindex>
                     <clipindex>4</clipindex>
                     <groupindex>1</groupindex>
                  </link>
                  <link>
                     <linkclipref>clipitem-655</linkclipref>
                     <mediatype>audio</mediatype>
                     <trackindex>2</trackindex>
                     <clipindex>4</clipindex>
                     <groupindex>1</groupindex>
                  </link>
                  <logginginfo>
                     <description />
                     <scene />
                     <shottake />
                     <lognote />
                     <good />
                     <originalvideofilename />
                     <originalaudiofilename />
                  </logginginfo>
                  <colorinfo>
                     <lut />
                     <lut1 />
                     <asc_sop />
                     <asc_sat />
                     <lut2 />
                  </colorinfo>
                  <labels>
                     <label2>Iris</label2>
                  </labels>
               </clipitem>
               <clipitem id="clipitem-623" premiereChannelType="stereo">
                  <masterclipid>masterclip-250</masterclipid>
                  <name>mymovie.mov</name>
                  <enabled>TRUE</enabled>
                  <duration>3502</duration>
                  <rate>
                     <timebase>24</timebase>
                     <ntsc>TRUE</ntsc>
                  </rate>
                  <start>493</start>
                  <end>598</end>
                  <in>478</in>
                  <out>583</out>
                  <pproTicksIn>5064211152000</pproTicksIn>
                  <pproTicksOut>6176642472000</pproTicksOut>
                  <file id="file-243" />
                  <sourcetrack>
                     <mediatype>audio</mediatype>
                     <trackindex>1</trackindex>
                  </sourcetrack>
                  <link>
                     <linkclipref>clipitem-462</linkclipref>
                     <mediatype>video</mediatype>
                     <trackindex>1</trackindex>
                     <clipindex>6</clipindex>
                  </link>
                  <link>
                     <linkclipref>clipitem-623</linkclipref>
                     <mediatype>audio</mediatype>
                     <trackindex>1</trackindex>
                     <clipindex>5</clipindex>
                     <groupindex>1</groupindex>
                  </link>
                  <link>
                     <linkclipref>clipitem-656</linkclipref>
                     <mediatype>audio</mediatype>
                     <trackindex>2</trackindex>
                     <clipindex>5</clipindex>
                     <groupindex>1</groupindex>
                  </link>
                  <logginginfo>
                     <description />
                     <scene />
                     <shottake />
                     <lognote />
                     <good />
                     <originalvideofilename />
                     <originalaudiofilename />
                  </logginginfo>
                  <colorinfo>
                     <lut />
                     <lut1 />
                     <asc_sop />
                     <asc_sat />
                     <lut2 />
                  </colorinfo>
                  <labels>
                     <label2>Iris</label2>
                  </labels>
               </clipitem>
               <clipitem id="clipitem-624" premiereChannelType="stereo">
                  <masterclipid>masterclip-250</masterclipid>
                  <name>mymovie.mov</name>
                  <enabled>TRUE</enabled>
                  <duration>3502</duration>
                  <rate>
                     <timebase>24</timebase>
                     <ntsc>TRUE</ntsc>
                  </rate>
                  <start>598</start>
                  <end>692</end>
                  <in>583</in>
                  <out>677</out>
                  <pproTicksIn>6176642472000</pproTicksIn>
                  <pproTicksOut>7172533368000</pproTicksOut>
                  <file id="file-243" />
                  <sourcetrack>
                     <mediatype>audio</mediatype>
                     <trackindex>1</trackindex>
                  </sourcetrack>
                  <link>
                     <linkclipref>clipitem-463</linkclipref>
                     <mediatype>video</mediatype>
                     <trackindex>1</trackindex>
                     <clipindex>7</clipindex>
                  </link>
                  <link>
                     <linkclipref>clipitem-624</linkclipref>
                     <mediatype>audio</mediatype>
                     <trackindex>1</trackindex>
                     <clipindex>6</clipindex>
                     <groupindex>1</groupindex>
                  </link>
                  <link>
                     <linkclipref>clipitem-657</linkclipref>
                     <mediatype>audio</mediatype>
                     <trackindex>2</trackindex>
                     <clipindex>6</clipindex>
                     <groupindex>1</groupindex>
                  </link>
                  <logginginfo>
                     <description />
                     <scene />
                     <shottake />
                     <lognote />
                     <good />
                     <originalvideofilename />
                     <originalaudiofilename />
                  </logginginfo>
                  <colorinfo>
                     <lut />
                     <lut1 />
                     <asc_sop />
                     <asc_sat />
                     <lut2 />
                  </colorinfo>
                  <labels>
                     <label2>Iris</label2>
                  </labels>
               </clipitem>
               <clipitem id="clipitem-625" premiereChannelType="stereo">
                  <masterclipid>masterclip-250</masterclipid>
                  <name>mymovie.mov</name>
                  <enabled>TRUE</enabled>
                  <duration>3502</duration>
                  <rate>
                     <timebase>24</timebase>
                     <ntsc>TRUE</ntsc>
                  </rate>
                  <start>692</start>
                  <end>780</end>
                  <in>677</in>
                  <out>765</out>
                  <pproTicksIn>7172533368000</pproTicksIn>
                  <pproTicksOut>8104856760000</pproTicksOut>
                  <file id="file-243" />
                  <sourcetrack>
                     <mediatype>audio</mediatype>
                     <trackindex>1</trackindex>
                  </sourcetrack>
                  <link>
                     <linkclipref>clipitem-464</linkclipref>
                     <mediatype>video</mediatype>
                     <trackindex>1</trackindex>
                     <clipindex>8</clipindex>
                  </link>
                  <link>
                     <linkclipref>clipitem-625</linkclipref>
                     <mediatype>audio</mediatype>
                     <trackindex>1</trackindex>
                     <clipindex>7</clipindex>
                     <groupindex>1</groupindex>
                  </link>
                  <link>
                     <linkclipref>clipitem-658</linkclipref>
                     <mediatype>audio</mediatype>
                     <trackindex>2</trackindex>
                     <clipindex>7</clipindex>
                     <groupindex>1</groupindex>
                  </link>
                  <logginginfo>
                     <description />
                     <scene />
                     <shottake />
                     <lognote />
                     <good />
                     <originalvideofilename />
                     <originalaudiofilename />
                  </logginginfo>
                  <colorinfo>
                     <lut />
                     <lut1 />
                     <asc_sop />
                     <asc_sat />
                     <lut2 />
                  </colorinfo>
                  <labels>
                     <label2>Iris</label2>
                  </labels>
               </clipitem>
               <clipitem id="clipitem-626" premiereChannelType="stereo">
                  <masterclipid>masterclip-250</masterclipid>
                  <name>mymovie.mov</name>
                  <enabled>TRUE</enabled>
                  <duration>3502</duration>
                  <rate>
                     <timebase>24</timebase>
                     <ntsc>TRUE</ntsc>
                  </rate>
                  <start>780</start>
                  <end>870</end>
                  <in>765</in>
                  <out>855</out>
                  <pproTicksIn>8104856760000</pproTicksIn>
                  <pproTicksOut>9058369320000</pproTicksOut>
                  <file id="file-243" />
                  <sourcetrack>
                     <mediatype>audio</mediatype>
                     <trackindex>1</trackindex>
                  </sourcetrack>
                  <link>
                     <linkclipref>clipitem-465</linkclipref>
                     <mediatype>video</mediatype>
                     <trackindex>1</trackindex>
                     <clipindex>9</clipindex>
                  </link>
                  <link>
                     <linkclipref>clipitem-626</linkclipref>
                     <mediatype>audio</mediatype>
                     <trackindex>1</trackindex>
                     <clipindex>8</clipindex>
                     <groupindex>1</groupindex>
                  </link>
                  <link>
                     <linkclipref>clipitem-659</linkclipref>
                     <mediatype>audio</mediatype>
                     <trackindex>2</trackindex>
                     <clipindex>8</clipindex>
                     <groupindex>1</groupindex>
                  </link>
                  <logginginfo>
                     <description />
                     <scene />
                     <shottake />
                     <lognote />
                     <good />
                     <originalvideofilename />
                     <originalaudiofilename />
                  </logginginfo>
                  <colorinfo>
                     <lut />
                     <lut1 />
                     <asc_sop />
                     <asc_sat />
                     <lut2 />
                  </colorinfo>
                  <labels>
                     <label2>Iris</label2>
                  </labels>
               </clipitem>
               <clipitem id="clipitem-627" premiereChannelType="stereo">
                  <masterclipid>masterclip-250</masterclipid>
                  <name>mymovie.mov</name>
                  <enabled>TRUE</enabled>
                  <duration>3502</duration>
                  <rate>
                     <timebase>24</timebase>
                     <ntsc>TRUE</ntsc>
                  </rate>
                  <start>870</start>
                  <end>1135</end>
                  <in>855</in>
                  <out>1120</out>
                  <pproTicksIn>9058369320000</pproTicksIn>
                  <pproTicksOut>11865934080000</pproTicksOut>
                  <file id="file-243" />
                  <sourcetrack>
                     <mediatype>audio</mediatype>
                     <trackindex>1</trackindex>
                  </sourcetrack>
                  <link>
                     <linkclipref>clipitem-466</linkclipref>
                     <mediatype>video</mediatype>
                     <trackindex>1</trackindex>
                     <clipindex>10</clipindex>
                  </link>
                  <link>
                     <linkclipref>clipitem-627</linkclipref>
                     <mediatype>audio</mediatype>
                     <trackindex>1</trackindex>
                     <clipindex>9</clipindex>
                     <groupindex>1</groupindex>
                  </link>
                  <link>
                     <linkclipref>clipitem-660</linkclipref>
                     <mediatype>audio</mediatype>
                     <trackindex>2</trackindex>
                     <clipindex>9</clipindex>
                     <groupindex>1</groupindex>
                  </link>
                  <logginginfo>
                     <description />
                     <scene />
                     <shottake />
                     <lognote />
                     <good />
                     <originalvideofilename />
                     <originalaudiofilename />
                  </logginginfo>
                  <colorinfo>
                     <lut />
                     <lut1 />
                     <asc_sop />
                     <asc_sat />
                     <lut2 />
                  </colorinfo>
                  <labels>
                     <label2>Iris</label2>
                  </labels>
               </clipitem>
               <clipitem id="clipitem-628" premiereChannelType="stereo">
                  <masterclipid>masterclip-250</masterclipid>
                  <name>mymovie.mov</name>
                  <enabled>TRUE</enabled>
                  <duration>3502</duration>
                  <rate>
                     <timebase>24</timebase>
                     <ntsc>TRUE</ntsc>
                  </rate>
                  <start>1135</start>
                  <end>1229</end>
                  <in>1120</in>
                  <out>1214</out>
                  <pproTicksIn>11865934080000</pproTicksIn>
                  <pproTicksOut>12861824976000</pproTicksOut>
                  <file id="file-243" />
                  <sourcetrack>
                     <mediatype>audio</mediatype>
                     <trackindex>1</trackindex>
                  </sourcetrack>
                  <link>
                     <linkclipref>clipitem-467</linkclipref>
                     <mediatype>video</mediatype>
                     <trackindex>1</trackindex>
                     <clipindex>11</clipindex>
                  </link>
                  <link>
                     <linkclipref>clipitem-628</linkclipref>
                     <mediatype>audio</mediatype>
                     <trackindex>1</trackindex>
                     <clipindex>10</clipindex>
                     <groupindex>1</groupindex>
                  </link>
                  <link>
                     <linkclipref>clipitem-661</linkclipref>
                     <mediatype>audio</mediatype>
                     <trackindex>2</trackindex>
                     <clipindex>10</clipindex>
                     <groupindex>1</groupindex>
                  </link>
                  <logginginfo>
                     <description />
                     <scene />
                     <shottake />
                     <lognote />
                     <good />
                     <originalvideofilename />
                     <originalaudiofilename />
                  </logginginfo>
                  <colorinfo>
                     <lut />
                     <lut1 />
                     <asc_sop />
                     <asc_sat />
                     <lut2 />
                  </colorinfo>
                  <labels>
                     <label2>Iris</label2>
                  </labels>
               </clipitem>
               <clipitem id="clipitem-629" premiereChannelType="stereo">
                  <masterclipid>masterclip-250</masterclipid>
                  <name>mymovie.mov</name>
                  <enabled>TRUE</enabled>
                  <duration>3502</duration>
                  <rate>
                     <timebase>24</timebase>
                     <ntsc>TRUE</ntsc>
                  </rate>
                  <start>1229</start>
                  <end>1357</end>
                  <in>1214</in>
                  <out>1342</out>
                  <pproTicksIn>12861824976000</pproTicksIn>
                  <pproTicksOut>14217931728000</pproTicksOut>
                  <file id="file-243" />
                  <sourcetrack>
                     <mediatype>audio</mediatype>
                     <trackindex>1</trackindex>
                  </sourcetrack>
                  <link>
                     <linkclipref>clipitem-468</linkclipref>
                     <mediatype>video</mediatype>
                     <trackindex>1</trackindex>
                     <clipindex>12</clipindex>
                  </link>
                  <link>
                     <linkclipref>clipitem-629</linkclipref>
                     <mediatype>audio</mediatype>
                     <trackindex>1</trackindex>
                     <clipindex>11</clipindex>
                     <groupindex>1</groupindex>
                  </link>
                  <link>
                     <linkclipref>clipitem-662</linkclipref>
                     <mediatype>audio</mediatype>
                     <trackindex>2</trackindex>
                     <clipindex>11</clipindex>
                     <groupindex>1</groupindex>
                  </link>
                  <logginginfo>
                     <description />
                     <scene />
                     <shottake />
                     <lognote />
                     <good />
                     <originalvideofilename />
                     <originalaudiofilename />
                  </logginginfo>
                  <colorinfo>
                     <lut />
                     <lut1 />
                     <asc_sop />
                     <asc_sat />
                     <lut2 />
                  </colorinfo>
                  <labels>
                     <label2>Iris</label2>
                  </labels>
               </clipitem>
               <clipitem id="clipitem-630" premiereChannelType="stereo">
                  <masterclipid>masterclip-250</masterclipid>
                  <name>mymovie.mov</name>
                  <enabled>TRUE</enabled>
                  <duration>3502</duration>
                  <rate>
                     <timebase>24</timebase>
                     <ntsc>TRUE</ntsc>
                  </rate>
                  <start>1357</start>
                  <end>1408</end>
                  <in>1342</in>
                  <out>1393</out>
                  <pproTicksIn>14217931728000</pproTicksIn>
                  <pproTicksOut>14758255512000</pproTicksOut>
                  <file id="file-243" />
                  <sourcetrack>
                     <mediatype>audio</mediatype>
                     <trackindex>1</trackindex>
                  </sourcetrack>
                  <link>
                     <linkclipref>clipitem-469</linkclipref>
                     <mediatype>video</mediatype>
                     <trackindex>1</trackindex>
                     <clipindex>13</clipindex>
                  </link>
                  <link>
                     <linkclipref>clipitem-630</linkclipref>
                     <mediatype>audio</mediatype>
                     <trackindex>1</trackindex>
                     <clipindex>12</clipindex>
                     <groupindex>1</groupindex>
                  </link>
                  <link>
                     <linkclipref>clipitem-663</linkclipref>
                     <mediatype>audio</mediatype>
                     <trackindex>2</trackindex>
                     <clipindex>12</clipindex>
                     <groupindex>1</groupindex>
                  </link>
                  <logginginfo>
                     <description />
                     <scene />
                     <shottake />
                     <lognote />
                     <good />
                     <originalvideofilename />
                     <originalaudiofilename />
                  </logginginfo>
                  <colorinfo>
                     <lut />
                     <lut1 />
                     <asc_sop />
                     <asc_sat />
                     <lut2 />
                  </colorinfo>
                  <labels>
                     <label2>Iris</label2>
                  </labels>
               </clipitem>
               <clipitem id="clipitem-631" premiereChannelType="stereo">
                  <masterclipid>masterclip-250</masterclipid>
                  <name>mymovie.mov</name>
                  <enabled>TRUE</enabled>
                  <duration>3502</duration>
                  <rate>
                     <timebase>24</timebase>
                     <ntsc>TRUE</ntsc>
                  </rate>
                  <start>1408</start>
                  <end>1482</end>
                  <in>1393</in>
                  <out>1467</out>
                  <pproTicksIn>14758255512000</pproTicksIn>
                  <pproTicksOut>15542254728000</pproTicksOut>
                  <file id="file-243" />
                  <sourcetrack>
                     <mediatype>audio</mediatype>
                     <trackindex>1</trackindex>
                  </sourcetrack>
                  <link>
                     <linkclipref>clipitem-470</linkclipref>
                     <mediatype>video</mediatype>
                     <trackindex>1</trackindex>
                     <clipindex>14</clipindex>
                  </link>
                  <link>
                     <linkclipref>clipitem-631</linkclipref>
                     <mediatype>audio</mediatype>
                     <trackindex>1</trackindex>
                     <clipindex>13</clipindex>
                     <groupindex>1</groupindex>
                  </link>
                  <link>
                     <linkclipref>clipitem-664</linkclipref>
                     <mediatype>audio</mediatype>
                     <trackindex>2</trackindex>
                     <clipindex>13</clipindex>
                     <groupindex>1</groupindex>
                  </link>
                  <logginginfo>
                     <description />
                     <scene />
                     <shottake />
                     <lognote />
                     <good />
                     <originalvideofilename />
                     <originalaudiofilename />
                  </logginginfo>
                  <colorinfo>
                     <lut />
                     <lut1 />
                     <asc_sop />
                     <asc_sat />
                     <lut2 />
                  </colorinfo>
                  <labels>
                     <label2>Iris</label2>
                  </labels>
               </clipitem>
               <clipitem id="clipitem-632" premiereChannelType="stereo">
                  <masterclipid>masterclip-250</masterclipid>
                  <name>mymovie.mov</name>
                  <enabled>TRUE</enabled>
                  <duration>3502</duration>
                  <rate>
                     <timebase>24</timebase>
                     <ntsc>TRUE</ntsc>
                  </rate>
                  <start>1482</start>
                  <end>1537</end>
                  <in>1467</in>
                  <out>1522</out>
                  <pproTicksIn>15542254728000</pproTicksIn>
                  <pproTicksOut>16124956848000</pproTicksOut>
                  <file id="file-243" />
                  <sourcetrack>
                     <mediatype>audio</mediatype>
                     <trackindex>1</trackindex>
                  </sourcetrack>
                  <link>
                     <linkclipref>clipitem-471</linkclipref>
                     <mediatype>video</mediatype>
                     <trackindex>1</trackindex>
                     <clipindex>15</clipindex>
                  </link>
                  <link>
                     <linkclipref>clipitem-632</linkclipref>
                     <mediatype>audio</mediatype>
                     <trackindex>1</trackindex>
                     <clipindex>14</clipindex>
                     <groupindex>1</groupindex>
                  </link>
                  <link>
                     <linkclipref>clipitem-665</linkclipref>
                     <mediatype>audio</mediatype>
                     <trackindex>2</trackindex>
                     <clipindex>14</clipindex>
                     <groupindex>1</groupindex>
                  </link>
                  <logginginfo>
                     <description />
                     <scene />
                     <shottake />
                     <lognote />
                     <good />
                     <originalvideofilename />
                     <originalaudiofilename />
                  </logginginfo>
                  <colorinfo>
                     <lut />
                     <lut1 />
                     <asc_sop />
                     <asc_sat />
                     <lut2 />
                  </colorinfo>
                  <labels>
                     <label2>Iris</label2>
                  </labels>
               </clipitem>
               <clipitem id="clipitem-633" premiereChannelType="stereo">
                  <masterclipid>masterclip-250</masterclipid>
                  <name>mymovie.mov</name>
                  <enabled>TRUE</enabled>
                  <duration>3502</duration>
                  <rate>
                     <timebase>24</timebase>
                     <ntsc>TRUE</ntsc>
                  </rate>
                  <start>1537</start>
                  <end>1675</end>
                  <in>1522</in>
                  <out>1660</out>
                  <pproTicksIn>16124956848000</pproTicksIn>
                  <pproTicksOut>17587009440000</pproTicksOut>
                  <file id="file-243" />
                  <sourcetrack>
                     <mediatype>audio</mediatype>
                     <trackindex>1</trackindex>
                  </sourcetrack>
                  <link>
                     <linkclipref>clipitem-472</linkclipref>
                     <mediatype>video</mediatype>
                     <trackindex>1</trackindex>
                     <clipindex>16</clipindex>
                  </link>
                  <link>
                     <linkclipref>clipitem-633</linkclipref>
                     <mediatype>audio</mediatype>
                     <trackindex>1</trackindex>
                     <clipindex>15</clipindex>
                     <groupindex>1</groupindex>
                  </link>
                  <link>
                     <linkclipref>clipitem-666</linkclipref>
                     <mediatype>audio</mediatype>
                     <trackindex>2</trackindex>
                     <clipindex>15</clipindex>
                     <groupindex>1</groupindex>
                  </link>
                  <logginginfo>
                     <description />
                     <scene />
                     <shottake />
                     <lognote />
                     <good />
                     <originalvideofilename />
                     <originalaudiofilename />
                  </logginginfo>
                  <colorinfo>
                     <lut />
                     <lut1 />
                     <asc_sop />
                     <asc_sat />
                     <lut2 />
                  </colorinfo>
                  <labels>
                     <label2>Iris</label2>
                  </labels>
               </clipitem>
               <clipitem id="clipitem-634" premiereChannelType="stereo">
                  <masterclipid>masterclip-250</masterclipid>
                  <name>mymovie.mov</name>
                  <enabled>TRUE</enabled>
                  <duration>3502</duration>
                  <rate>
                     <timebase>24</timebase>
                     <ntsc>TRUE</ntsc>
                  </rate>
                  <start>1675</start>
                  <end>1734</end>
                  <in>1660</in>
                  <out>1719</out>
                  <pproTicksIn>17587009440000</pproTicksIn>
                  <pproTicksOut>18212089896000</pproTicksOut>
                  <file id="file-243" />
                  <sourcetrack>
                     <mediatype>audio</mediatype>
                     <trackindex>1</trackindex>
                  </sourcetrack>
                  <link>
                     <linkclipref>clipitem-473</linkclipref>
                     <mediatype>video</mediatype>
                     <trackindex>1</trackindex>
                     <clipindex>17</clipindex>
                  </link>
                  <link>
                     <linkclipref>clipitem-634</linkclipref>
                     <mediatype>audio</mediatype>
                     <trackindex>1</trackindex>
                     <clipindex>16</clipindex>
                     <groupindex>1</groupindex>
                  </link>
                  <link>
                     <linkclipref>clipitem-667</linkclipref>
                     <mediatype>audio</mediatype>
                     <trackindex>2</trackindex>
                     <clipindex>16</clipindex>
                     <groupindex>1</groupindex>
                  </link>
                  <logginginfo>
                     <description />
                     <scene />
                     <shottake />
                     <lognote />
                     <good />
                     <originalvideofilename />
                     <originalaudiofilename />
                  </logginginfo>
                  <colorinfo>
                     <lut />
                     <lut1 />
                     <asc_sop />
                     <asc_sat />
                     <lut2 />
                  </colorinfo>
                  <labels>
                     <label2>Iris</label2>
                  </labels>
               </clipitem>
               <clipitem id="clipitem-635" premiereChannelType="stereo">
                  <masterclipid>masterclip-250</masterclipid>
                  <name>mymovie.mov</name>
                  <enabled>TRUE</enabled>
                  <duration>3502</duration>
                  <rate>
                     <timebase>24</timebase>
                     <ntsc>TRUE</ntsc>
                  </rate>
                  <start>1734</start>
                  <end>1802</end>
                  <in>1719</in>
                  <out>1787</out>
                  <pproTicksIn>18212089896000</pproTicksIn>
                  <pproTicksOut>18932521608000</pproTicksOut>
                  <file id="file-243" />
                  <sourcetrack>
                     <mediatype>audio</mediatype>
                     <trackindex>1</trackindex>
                  </sourcetrack>
                  <link>
                     <linkclipref>clipitem-474</linkclipref>
                     <mediatype>video</mediatype>
                     <trackindex>1</trackindex>
                     <clipindex>18</clipindex>
                  </link>
                  <link>
                     <linkclipref>clipitem-635</linkclipref>
                     <mediatype>audio</mediatype>
                     <trackindex>1</trackindex>
                     <clipindex>17</clipindex>
                     <groupindex>1</groupindex>
                  </link>
                  <link>
                     <linkclipref>clipitem-668</linkclipref>
                     <mediatype>audio</mediatype>
                     <trackindex>2</trackindex>
                     <clipindex>17</clipindex>
                     <groupindex>1</groupindex>
                  </link>
                  <logginginfo>
                     <description />
                     <scene />
                     <shottake />
                     <lognote />
                     <good />
                     <originalvideofilename />
                     <originalaudiofilename />
                  </logginginfo>
                  <colorinfo>
                     <lut />
                     <lut1 />
                     <asc_sop />
                     <asc_sat />
                     <lut2 />
                  </colorinfo>
                  <labels>
                     <label2>Iris</label2>
                  </labels>
               </clipitem>
               <clipitem id="clipitem-636" premiereChannelType="stereo">
                  <masterclipid>masterclip-250</masterclipid>
                  <name>mymovie.mov</name>
                  <enabled>TRUE</enabled>
                  <duration>3502</duration>
                  <rate>
                     <timebase>24</timebase>
                     <ntsc>TRUE</ntsc>
                  </rate>
                  <start>1802</start>
                  <end>1862</end>
                  <in>1787</in>
                  <out>1847</out>
                  <pproTicksIn>18932521608000</pproTicksIn>
                  <pproTicksOut>19568196648000</pproTicksOut>
                  <file id="file-243" />
                  <sourcetrack>
                     <mediatype>audio</mediatype>
                     <trackindex>1</trackindex>
                  </sourcetrack>
                  <link>
                     <linkclipref>clipitem-475</linkclipref>
                     <mediatype>video</mediatype>
                     <trackindex>1</trackindex>
                     <clipindex>19</clipindex>
                  </link>
                  <link>
                     <linkclipref>clipitem-636</linkclipref>
                     <mediatype>audio</mediatype>
                     <trackindex>1</trackindex>
                     <clipindex>18</clipindex>
                     <groupindex>1</groupindex>
                  </link>
                  <link>
                     <linkclipref>clipitem-669</linkclipref>
                     <mediatype>audio</mediatype>
                     <trackindex>2</trackindex>
                     <clipindex>18</clipindex>
                     <groupindex>1</groupindex>
                  </link>
                  <logginginfo>
                     <description />
                     <scene />
                     <shottake />
                     <lognote />
                     <good />
                     <originalvideofilename />
                     <originalaudiofilename />
                  </logginginfo>
                  <colorinfo>
                     <lut />
                     <lut1 />
                     <asc_sop />
                     <asc_sat />
                     <lut2 />
                  </colorinfo>
                  <labels>
                     <label2>Iris</label2>
                  </labels>
               </clipitem>
               <clipitem id="clipitem-637" premiereChannelType="stereo">
                  <masterclipid>masterclip-250</masterclipid>
                  <name>mymovie.mov</name>
                  <enabled>TRUE</enabled>
                  <duration>3502</duration>
                  <rate>
                     <timebase>24</timebase>
                     <ntsc>TRUE</ntsc>
                  </rate>
                  <start>1862</start>
                  <end>1975</end>
                  <in>1847</in>
                  <out>1960</out>
                  <pproTicksIn>19568196648000</pproTicksIn>
                  <pproTicksOut>20765384640000</pproTicksOut>
                  <file id="file-243" />
                  <sourcetrack>
                     <mediatype>audio</mediatype>
                     <trackindex>1</trackindex>
                  </sourcetrack>
                  <link>
                     <linkclipref>clipitem-476</linkclipref>
                     <mediatype>video</mediatype>
                     <trackindex>1</trackindex>
                     <clipindex>20</clipindex>
                  </link>
                  <link>
                     <linkclipref>clipitem-637</linkclipref>
                     <mediatype>audio</mediatype>
                     <trackindex>1</trackindex>
                     <clipindex>19</clipindex>
                     <groupindex>1</groupindex>
                  </link>
                  <link>
                     <linkclipref>clipitem-670</linkclipref>
                     <mediatype>audio</mediatype>
                     <trackindex>2</trackindex>
                     <clipindex>19</clipindex>
                     <groupindex>1</groupindex>
                  </link>
                  <logginginfo>
                     <description />
                     <scene />
                     <shottake />
                     <lognote />
                     <good />
                     <originalvideofilename />
                     <originalaudiofilename />
                  </logginginfo>
                  <colorinfo>
                     <lut />
                     <lut1 />
                     <asc_sop />
                     <asc_sat />
                     <lut2 />
                  </colorinfo>
                  <labels>
                     <label2>Iris</label2>
                  </labels>
               </clipitem>
               <clipitem id="clipitem-638" premiereChannelType="stereo">
                  <masterclipid>masterclip-250</masterclipid>
                  <name>mymovie.mov</name>
                  <enabled>TRUE</enabled>
                  <duration>3502</duration>
                  <rate>
                     <timebase>24</timebase>
                     <ntsc>TRUE</ntsc>
                  </rate>
                  <start>1975</start>
                  <end>2046</end>
                  <in>1960</in>
                  <out>2031</out>
                  <pproTicksIn>20765384640000</pproTicksIn>
                  <pproTicksOut>21517600104000</pproTicksOut>
                  <file id="file-243" />
                  <sourcetrack>
                     <mediatype>audio</mediatype>
                     <trackindex>1</trackindex>
                  </sourcetrack>
                  <link>
                     <linkclipref>clipitem-477</linkclipref>
                     <mediatype>video</mediatype>
                     <trackindex>1</trackindex>
                     <clipindex>21</clipindex>
                  </link>
                  <link>
                     <linkclipref>clipitem-638</linkclipref>
                     <mediatype>audio</mediatype>
                     <trackindex>1</trackindex>
                     <clipindex>20</clipindex>
                     <groupindex>1</groupindex>
                  </link>
                  <link>
                     <linkclipref>clipitem-671</linkclipref>
                     <mediatype>audio</mediatype>
                     <trackindex>2</trackindex>
                     <clipindex>20</clipindex>
                     <groupindex>1</groupindex>
                  </link>
                  <logginginfo>
                     <description />
                     <scene />
                     <shottake />
                     <lognote />
                     <good />
                     <originalvideofilename />
                     <originalaudiofilename />
                  </logginginfo>
                  <colorinfo>
                     <lut />
                     <lut1 />
                     <asc_sop />
                     <asc_sat />
                     <lut2 />
                  </colorinfo>
                  <labels>
                     <label2>Iris</label2>
                  </labels>
               </clipitem>
               <clipitem id="clipitem-639" premiereChannelType="stereo">
                  <masterclipid>masterclip-250</masterclipid>
                  <name>mymovie.mov</name>
                  <enabled>TRUE</enabled>
                  <duration>3502</duration>
                  <rate>
                     <timebase>24</timebase>
                     <ntsc>TRUE</ntsc>
                  </rate>
                  <start>2046</start>
                  <end>2094</end>
                  <in>2031</in>
                  <out>2079</out>
                  <pproTicksIn>21517600104000</pproTicksIn>
                  <pproTicksOut>22026140136000</pproTicksOut>
                  <file id="file-243" />
                  <sourcetrack>
                     <mediatype>audio</mediatype>
                     <trackindex>1</trackindex>
                  </sourcetrack>
                  <link>
                     <linkclipref>clipitem-478</linkclipref>
                     <mediatype>video</mediatype>
                     <trackindex>1</trackindex>
                     <clipindex>22</clipindex>
                  </link>
                  <link>
                     <linkclipref>clipitem-639</linkclipref>
                     <mediatype>audio</mediatype>
                     <trackindex>1</trackindex>
                     <clipindex>21</clipindex>
                     <groupindex>1</groupindex>
                  </link>
                  <link>
                     <linkclipref>clipitem-672</linkclipref>
                     <mediatype>audio</mediatype>
                     <trackindex>2</trackindex>
                     <clipindex>21</clipindex>
                     <groupindex>1</groupindex>
                  </link>
                  <logginginfo>
                     <description />
                     <scene />
                     <shottake />
                     <lognote />
                     <good />
                     <originalvideofilename />
                     <originalaudiofilename />
                  </logginginfo>
                  <colorinfo>
                     <lut />
                     <lut1 />
                     <asc_sop />
                     <asc_sat />
                     <lut2 />
                  </colorinfo>
                  <labels>
                     <label2>Iris</label2>
                  </labels>
               </clipitem>
               <clipitem id="clipitem-640" premiereChannelType="stereo">
                  <masterclipid>masterclip-250</masterclipid>
                  <name>mymovie.mov</name>
                  <enabled>TRUE</enabled>
                  <duration>3502</duration>
                  <rate>
                     <timebase>24</timebase>
                     <ntsc>TRUE</ntsc>
                  </rate>
                  <start>2094</start>
                  <end>2155</end>
                  <in>2079</in>
                  <out>2140</out>
                  <pproTicksIn>22026140136000</pproTicksIn>
                  <pproTicksOut>22672409760000</pproTicksOut>
                  <file id="file-243" />
                  <sourcetrack>
                     <mediatype>audio</mediatype>
                     <trackindex>1</trackindex>
                  </sourcetrack>
                  <link>
                     <linkclipref>clipitem-479</linkclipref>
                     <mediatype>video</mediatype>
                     <trackindex>1</trackindex>
                     <clipindex>23</clipindex>
                  </link>
                  <link>
                     <linkclipref>clipitem-640</linkclipref>
                     <mediatype>audio</mediatype>
                     <trackindex>1</trackindex>
                     <clipindex>22</clipindex>
                     <groupindex>1</groupindex>
                  </link>
                  <link>
                     <linkclipref>clipitem-673</linkclipref>
                     <mediatype>audio</mediatype>
                     <trackindex>2</trackindex>
                     <clipindex>22</clipindex>
                     <groupindex>1</groupindex>
                  </link>
                  <logginginfo>
                     <description />
                     <scene />
                     <shottake />
                     <lognote />
                     <good />
                     <originalvideofilename />
                     <originalaudiofilename />
                  </logginginfo>
                  <colorinfo>
                     <lut />
                     <lut1 />
                     <asc_sop />
                     <asc_sat />
                     <lut2 />
                  </colorinfo>
                  <labels>
                     <label2>Iris</label2>
                  </labels>
               </clipitem>
               <clipitem id="clipitem-641" premiereChannelType="stereo">
                  <masterclipid>masterclip-250</masterclipid>
                  <name>mymovie.mov</name>
                  <enabled>TRUE</enabled>
                  <duration>3502</duration>
                  <rate>
                     <timebase>24</timebase>
                     <ntsc>TRUE</ntsc>
                  </rate>
                  <start>2155</start>
                  <end>2207</end>
                  <in>2140</in>
                  <out>2192</out>
                  <pproTicksIn>22672409760000</pproTicksIn>
                  <pproTicksOut>23223328128000</pproTicksOut>
                  <file id="file-243" />
                  <sourcetrack>
                     <mediatype>audio</mediatype>
                     <trackindex>1</trackindex>
                  </sourcetrack>
                  <link>
                     <linkclipref>clipitem-480</linkclipref>
                     <mediatype>video</mediatype>
                     <trackindex>1</trackindex>
                     <clipindex>24</clipindex>
                  </link>
                  <link>
                     <linkclipref>clipitem-641</linkclipref>
                     <mediatype>audio</mediatype>
                     <trackindex>1</trackindex>
                     <clipindex>23</clipindex>
                     <groupindex>1</groupindex>
                  </link>
                  <link>
                     <linkclipref>clipitem-674</linkclipref>
                     <mediatype>audio</mediatype>
                     <trackindex>2</trackindex>
                     <clipindex>23</clipindex>
                     <groupindex>1</groupindex>
                  </link>
                  <logginginfo>
                     <description />
                     <scene />
                     <shottake />
                     <lognote />
                     <good />
                     <originalvideofilename />
                     <originalaudiofilename />
                  </logginginfo>
                  <colorinfo>
                     <lut />
                     <lut1 />
                     <asc_sop />
                     <asc_sat />
                     <lut2 />
                  </colorinfo>
                  <labels>
                     <label2>Iris</label2>
                  </labels>
               </clipitem>
               <clipitem id="clipitem-642" premiereChannelType="stereo">
                  <masterclipid>masterclip-250</masterclipid>
                  <name>mymovie.mov</name>
                  <enabled>TRUE</enabled>
                  <duration>3502</duration>
                  <rate>
                     <timebase>24</timebase>
                     <ntsc>TRUE</ntsc>
                  </rate>
                  <start>2207</start>
                  <end>2259</end>
                  <in>2192</in>
                  <out>2244</out>
                  <pproTicksIn>23223328128000</pproTicksIn>
                  <pproTicksOut>23774246496000</pproTicksOut>
                  <file id="file-243" />
                  <sourcetrack>
                     <mediatype>audio</mediatype>
                     <trackindex>1</trackindex>
                  </sourcetrack>
                  <link>
                     <linkclipref>clipitem-481</linkclipref>
                     <mediatype>video</mediatype>
                     <trackindex>1</trackindex>
                     <clipindex>25</clipindex>
                  </link>
                  <link>
                     <linkclipref>clipitem-642</linkclipref>
                     <mediatype>audio</mediatype>
                     <trackindex>1</trackindex>
                     <clipindex>24</clipindex>
                     <groupindex>1</groupindex>
                  </link>
                  <link>
                     <linkclipref>clipitem-675</linkclipref>
                     <mediatype>audio</mediatype>
                     <trackindex>2</trackindex>
                     <clipindex>24</clipindex>
                     <groupindex>1</groupindex>
                  </link>
                  <logginginfo>
                     <description />
                     <scene />
                     <shottake />
                     <lognote />
                     <good />
                     <originalvideofilename />
                     <originalaudiofilename />
                  </logginginfo>
                  <colorinfo>
                     <lut />
                     <lut1 />
                     <asc_sop />
                     <asc_sat />
                     <lut2 />
                  </colorinfo>
                  <labels>
                     <label2>Iris</label2>
                  </labels>
               </clipitem>
               <clipitem id="clipitem-643" premiereChannelType="stereo">
                  <masterclipid>masterclip-250</masterclipid>
                  <name>mymovie.mov</name>
                  <enabled>TRUE</enabled>
                  <duration>3502</duration>
                  <rate>
                     <timebase>24</timebase>
                     <ntsc>TRUE</ntsc>
                  </rate>
                  <start>2259</start>
                  <end>2306</end>
                  <in>2244</in>
                  <out>2291</out>
                  <pproTicksIn>23774246496000</pproTicksIn>
                  <pproTicksOut>24272191944000</pproTicksOut>
                  <file id="file-243" />
                  <sourcetrack>
                     <mediatype>audio</mediatype>
                     <trackindex>1</trackindex>
                  </sourcetrack>
                  <link>
                     <linkclipref>clipitem-482</linkclipref>
                     <mediatype>video</mediatype>
                     <trackindex>1</trackindex>
                     <clipindex>26</clipindex>
                  </link>
                  <link>
                     <linkclipref>clipitem-643</linkclipref>
                     <mediatype>audio</mediatype>
                     <trackindex>1</trackindex>
                     <clipindex>25</clipindex>
                     <groupindex>1</groupindex>
                  </link>
                  <link>
                     <linkclipref>clipitem-676</linkclipref>
                     <mediatype>audio</mediatype>
                     <trackindex>2</trackindex>
                     <clipindex>25</clipindex>
                     <groupindex>1</groupindex>
                  </link>
                  <logginginfo>
                     <description />
                     <scene />
                     <shottake />
                     <lognote />
                     <good />
                     <originalvideofilename />
                     <originalaudiofilename />
                  </logginginfo>
                  <colorinfo>
                     <lut />
                     <lut1 />
                     <asc_sop />
                     <asc_sat />
                     <lut2 />
                  </colorinfo>
                  <labels>
                     <label2>Iris</label2>
                  </labels>
               </clipitem>
               <clipitem id="clipitem-644" premiereChannelType="stereo">
                  <masterclipid>masterclip-250</masterclipid>
                  <name>mymovie.mov</name>
                  <enabled>TRUE</enabled>
                  <duration>3502</duration>
                  <rate>
                     <timebase>24</timebase>
                     <ntsc>TRUE</ntsc>
                  </rate>
                  <start>2306</start>
                  <end>2388</end>
                  <in>2291</in>
                  <out>2373</out>
                  <pproTicksIn>24272191944000</pproTicksIn>
                  <pproTicksOut>25140947832000</pproTicksOut>
                  <file id="file-243" />
                  <sourcetrack>
                     <mediatype>audio</mediatype>
                     <trackindex>1</trackindex>
                  </sourcetrack>
                  <link>
                     <linkclipref>clipitem-483</linkclipref>
                     <mediatype>video</mediatype>
                     <trackindex>1</trackindex>
                     <clipindex>27</clipindex>
                  </link>
                  <link>
                     <linkclipref>clipitem-644</linkclipref>
                     <mediatype>audio</mediatype>
                     <trackindex>1</trackindex>
                     <clipindex>26</clipindex>
                     <groupindex>1</groupindex>
                  </link>
                  <link>
                     <linkclipref>clipitem-677</linkclipref>
                     <mediatype>audio</mediatype>
                     <trackindex>2</trackindex>
                     <clipindex>26</clipindex>
                     <groupindex>1</groupindex>
                  </link>
                  <logginginfo>
                     <description />
                     <scene />
                     <shottake />
                     <lognote />
                     <good />
                     <originalvideofilename />
                     <originalaudiofilename />
                  </logginginfo>
                  <colorinfo>
                     <lut />
                     <lut1 />
                     <asc_sop />
                     <asc_sat />
                     <lut2 />
                  </colorinfo>
                  <labels>
                     <label2>Iris</label2>
                  </labels>
               </clipitem>
               <clipitem id="clipitem-645" premiereChannelType="stereo">
                  <masterclipid>masterclip-250</masterclipid>
                  <name>mymovie.mov</name>
                  <enabled>TRUE</enabled>
                  <duration>3502</duration>
                  <rate>
                     <timebase>24</timebase>
                     <ntsc>TRUE</ntsc>
                  </rate>
                  <start>2388</start>
                  <end>2585</end>
                  <in>2373</in>
                  <out>2570</out>
                  <pproTicksIn>25140947832000</pproTicksIn>
                  <pproTicksOut>27228080880000</pproTicksOut>
                  <file id="file-243" />
                  <sourcetrack>
                     <mediatype>audio</mediatype>
                     <trackindex>1</trackindex>
                  </sourcetrack>
                  <link>
                     <linkclipref>clipitem-484</linkclipref>
                     <mediatype>video</mediatype>
                     <trackindex>1</trackindex>
                     <clipindex>28</clipindex>
                  </link>
                  <link>
                     <linkclipref>clipitem-645</linkclipref>
                     <mediatype>audio</mediatype>
                     <trackindex>1</trackindex>
                     <clipindex>27</clipindex>
                     <groupindex>1</groupindex>
                  </link>
                  <link>
                     <linkclipref>clipitem-678</linkclipref>
                     <mediatype>audio</mediatype>
                     <trackindex>2</trackindex>
                     <clipindex>27</clipindex>
                     <groupindex>1</groupindex>
                  </link>
                  <logginginfo>
                     <description />
                     <scene />
                     <shottake />
                     <lognote />
                     <good />
                     <originalvideofilename />
                     <originalaudiofilename />
                  </logginginfo>
                  <colorinfo>
                     <lut />
                     <lut1 />
                     <asc_sop />
                     <asc_sat />
                     <lut2 />
                  </colorinfo>
                  <labels>
                     <label2>Iris</label2>
                  </labels>
               </clipitem>
               <clipitem id="clipitem-646" premiereChannelType="stereo">
                  <masterclipid>masterclip-250</masterclipid>
                  <name>mymovie.mov</name>
                  <enabled>TRUE</enabled>
                  <duration>3502</duration>
                  <rate>
                     <timebase>24</timebase>
                     <ntsc>TRUE</ntsc>
                  </rate>
                  <start>2585</start>
                  <end>2692</end>
                  <in>2570</in>
                  <out>2677</out>
                  <pproTicksIn>27228080880000</pproTicksIn>
                  <pproTicksOut>28361701368000</pproTicksOut>
                  <file id="file-243" />
                  <sourcetrack>
                     <mediatype>audio</mediatype>
                     <trackindex>1</trackindex>
                  </sourcetrack>
                  <link>
                     <linkclipref>clipitem-485</linkclipref>
                     <mediatype>video</mediatype>
                     <trackindex>1</trackindex>
                     <clipindex>29</clipindex>
                  </link>
                  <link>
                     <linkclipref>clipitem-646</linkclipref>
                     <mediatype>audio</mediatype>
                     <trackindex>1</trackindex>
                     <clipindex>28</clipindex>
                     <groupindex>1</groupindex>
                  </link>
                  <link>
                     <linkclipref>clipitem-679</linkclipref>
                     <mediatype>audio</mediatype>
                     <trackindex>2</trackindex>
                     <clipindex>28</clipindex>
                     <groupindex>1</groupindex>
                  </link>
                  <logginginfo>
                     <description />
                     <scene />
                     <shottake />
                     <lognote />
                     <good />
                     <originalvideofilename />
                     <originalaudiofilename />
                  </logginginfo>
                  <colorinfo>
                     <lut />
                     <lut1 />
                     <asc_sop />
                     <asc_sat />
                     <lut2 />
                  </colorinfo>
                  <labels>
                     <label2>Iris</label2>
                  </labels>
               </clipitem>
               <clipitem id="clipitem-647" premiereChannelType="stereo">
                  <masterclipid>masterclip-250</masterclipid>
                  <name>mymovie.mov</name>
                  <enabled>TRUE</enabled>
                  <duration>3502</duration>
                  <rate>
                     <timebase>24</timebase>
                     <ntsc>TRUE</ntsc>
                  </rate>
                  <start>2692</start>
                  <end>2819</end>
                  <in>2677</in>
                  <out>2804</out>
                  <pproTicksIn>28361701368000</pproTicksIn>
                  <pproTicksOut>29707213536000</pproTicksOut>
                  <file id="file-243" />
                  <sourcetrack>
                     <mediatype>audio</mediatype>
                     <trackindex>1</trackindex>
                  </sourcetrack>
                  <link>
                     <linkclipref>clipitem-486</linkclipref>
                     <mediatype>video</mediatype>
                     <trackindex>1</trackindex>
                     <clipindex>30</clipindex>
                  </link>
                  <link>
                     <linkclipref>clipitem-647</linkclipref>
                     <mediatype>audio</mediatype>
                     <trackindex>1</trackindex>
                     <clipindex>29</clipindex>
                     <groupindex>1</groupindex>
                  </link>
                  <link>
                     <linkclipref>clipitem-680</linkclipref>
                     <mediatype>audio</mediatype>
                     <trackindex>2</trackindex>
                     <clipindex>29</clipindex>
                     <groupindex>1</groupindex>
                  </link>
                  <logginginfo>
                     <description />
                     <scene />
                     <shottake />
                     <lognote />
                     <good />
                     <originalvideofilename />
                     <originalaudiofilename />
                  </logginginfo>
                  <colorinfo>
                     <lut />
                     <lut1 />
                     <asc_sop />
                     <asc_sat />
                     <lut2 />
                  </colorinfo>
                  <labels>
                     <label2>Iris</label2>
                  </labels>
               </clipitem>
               <clipitem id="clipitem-648" premiereChannelType="stereo">
                  <masterclipid>masterclip-250</masterclipid>
                  <name>mymovie.mov</name>
                  <enabled>TRUE</enabled>
                  <duration>3502</duration>
                  <rate>
                     <timebase>24</timebase>
                     <ntsc>TRUE</ntsc>
                  </rate>
                  <start>2819</start>
                  <end>2938</end>
                  <in>2804</in>
                  <out>2923</out>
                  <pproTicksIn>29707213536000</pproTicksIn>
                  <pproTicksOut>30967969032000</pproTicksOut>
                  <file id="file-243" />
                  <sourcetrack>
                     <mediatype>audio</mediatype>
                     <trackindex>1</trackindex>
                  </sourcetrack>
                  <link>
                     <linkclipref>clipitem-487</linkclipref>
                     <mediatype>video</mediatype>
                     <trackindex>1</trackindex>
                     <clipindex>31</clipindex>
                  </link>
                  <link>
                     <linkclipref>clipitem-648</linkclipref>
                     <mediatype>audio</mediatype>
                     <trackindex>1</trackindex>
                     <clipindex>30</clipindex>
                     <groupindex>1</groupindex>
                  </link>
                  <link>
                     <linkclipref>clipitem-681</linkclipref>
                     <mediatype>audio</mediatype>
                     <trackindex>2</trackindex>
                     <clipindex>30</clipindex>
                     <groupindex>1</groupindex>
                  </link>
                  <logginginfo>
                     <description />
                     <scene />
                     <shottake />
                     <lognote />
                     <good />
                     <originalvideofilename />
                     <originalaudiofilename />
                  </logginginfo>
                  <colorinfo>
                     <lut />
                     <lut1 />
                     <asc_sop />
                     <asc_sat />
                     <lut2 />
                  </colorinfo>
                  <labels>
                     <label2>Iris</label2>
                  </labels>
               </clipitem>
               <clipitem id="clipitem-649" premiereChannelType="stereo">
                  <masterclipid>masterclip-250</masterclipid>
                  <name>mymovie.mov</name>
                  <enabled>TRUE</enabled>
                  <duration>3502</duration>
                  <rate>
                     <timebase>24</timebase>
                     <ntsc>TRUE</ntsc>
                  </rate>
                  <start>2938</start>
                  <end>3058</end>
                  <in>2923</in>
                  <out>3043</out>
                  <pproTicksIn>30967969032000</pproTicksIn>
                  <pproTicksOut>32239319112000</pproTicksOut>
                  <file id="file-243" />
                  <sourcetrack>
                     <mediatype>audio</mediatype>
                     <trackindex>1</trackindex>
                  </sourcetrack>
                  <link>
                     <linkclipref>clipitem-488</linkclipref>
                     <mediatype>video</mediatype>
                     <trackindex>1</trackindex>
                     <clipindex>32</clipindex>
                  </link>
                  <link>
                     <linkclipref>clipitem-649</linkclipref>
                     <mediatype>audio</mediatype>
                     <trackindex>1</trackindex>
                     <clipindex>31</clipindex>
                     <groupindex>1</groupindex>
                  </link>
                  <link>
                     <linkclipref>clipitem-682</linkclipref>
                     <mediatype>audio</mediatype>
                     <trackindex>2</trackindex>
                     <clipindex>31</clipindex>
                     <groupindex>1</groupindex>
                  </link>
                  <logginginfo>
                     <description />
                     <scene />
                     <shottake />
                     <lognote />
                     <good />
                     <originalvideofilename />
                     <originalaudiofilename />
                  </logginginfo>
                  <colorinfo>
                     <lut />
                     <lut1 />
                     <asc_sop />
                     <asc_sat />
                     <lut2 />
                  </colorinfo>
                  <labels>
                     <label2>Iris</label2>
                  </labels>
               </clipitem>
               <clipitem id="clipitem-650" premiereChannelType="stereo">
                  <masterclipid>masterclip-250</masterclipid>
                  <name>mymovie.mov</name>
                  <enabled>TRUE</enabled>
                  <duration>3502</duration>
                  <rate>
                     <timebase>24</timebase>
                     <ntsc>TRUE</ntsc>
                  </rate>
                  <start>3058</start>
                  <end>3307</end>
                  <in>3043</in>
                  <out>3292</out>
                  <pproTicksIn>32239319112000</pproTicksIn>
                  <pproTicksOut>34877370528000</pproTicksOut>
                  <file id="file-243" />
                  <sourcetrack>
                     <mediatype>audio</mediatype>
                     <trackindex>1</trackindex>
                  </sourcetrack>
                  <link>
                     <linkclipref>clipitem-489</linkclipref>
                     <mediatype>video</mediatype>
                     <trackindex>1</trackindex>
                     <clipindex>33</clipindex>
                  </link>
                  <link>
                     <linkclipref>clipitem-650</linkclipref>
                     <mediatype>audio</mediatype>
                     <trackindex>1</trackindex>
                     <clipindex>32</clipindex>
                     <groupindex>1</groupindex>
                  </link>
                  <link>
                     <linkclipref>clipitem-683</linkclipref>
                     <mediatype>audio</mediatype>
                     <trackindex>2</trackindex>
                     <clipindex>32</clipindex>
                     <groupindex>1</groupindex>
                  </link>
                  <logginginfo>
                     <description />
                     <scene />
                     <shottake />
                     <lognote />
                     <good />
                     <originalvideofilename />
                     <originalaudiofilename />
                  </logginginfo>
                  <colorinfo>
                     <lut />
                     <lut1 />
                     <asc_sop />
                     <asc_sat />
                     <lut2 />
                  </colorinfo>
                  <labels>
                     <label2>Iris</label2>
                  </labels>
               </clipitem>
               <clipitem id="clipitem-651" premiereChannelType="stereo">
                  <masterclipid>masterclip-250</masterclipid>
                  <name>mymovie.mov</name>
                  <enabled>TRUE</enabled>
                  <duration>3502</duration>
                  <rate>
                     <timebase>24</timebase>
                     <ntsc>TRUE</ntsc>
                  </rate>
                  <start>3307</start>
                  <end>3517</end>
                  <in>3292</in>
                  <out>3502</out>
                  <pproTicksIn>34877370528000</pproTicksIn>
                  <pproTicksOut>37102233168000</pproTicksOut>
                  <file id="file-243" />
                  <sourcetrack>
                     <mediatype>audio</mediatype>
                     <trackindex>1</trackindex>
                  </sourcetrack>
                  <link>
                     <linkclipref>clipitem-490</linkclipref>
                     <mediatype>video</mediatype>
                     <trackindex>1</trackindex>
                     <clipindex>34</clipindex>
                  </link>
                  <link>
                     <linkclipref>clipitem-651</linkclipref>
                     <mediatype>audio</mediatype>
                     <trackindex>1</trackindex>
                     <clipindex>33</clipindex>
                     <groupindex>1</groupindex>
                  </link>
                  <link>
                     <linkclipref>clipitem-684</linkclipref>
                     <mediatype>audio</mediatype>
                     <trackindex>2</trackindex>
                     <clipindex>33</clipindex>
                     <groupindex>1</groupindex>
                  </link>
                  <logginginfo>
                     <description />
                     <scene />
                     <shottake />
                     <lognote />
                     <good />
                     <originalvideofilename />
                     <originalaudiofilename />
                  </logginginfo>
                  <colorinfo>
                     <lut />
                     <lut1 />
                     <asc_sop />
                     <asc_sat />
                     <lut2 />
                  </colorinfo>
                  <labels>
                     <label2>Iris</label2>
                  </labels>
               </clipitem>
               <enabled>TRUE</enabled>
               <locked>FALSE</locked>
               <outputchannelindex>1</outputchannelindex>
            </track>
            <track TL.SQTrackAudioKeyframeStyle="0" TL.SQTrackShy="0" TL.SQTrackExpandedHeight="25" TL.SQTrackExpanded="0" MZ.TrackTargeted="1" PannerCurrentValue="0.5" PannerIsInverted="true" PannerStartKeyframe="-91445760000000000,0.5,0,0,0,0,0,0" PannerName="Balance" currentExplodedTrackIndex="1" totalExplodedTrackCount="2" premiereTrackType="Stereo">
               <clipitem id="clipitem-652" premiereChannelType="stereo">
                  <masterclipid>masterclip-250</masterclipid>
                  <name>mymovie.mov</name>
                  <enabled>TRUE</enabled>
                  <duration>3502</duration>
                  <rate>
                     <timebase>24</timebase>
                     <ntsc>TRUE</ntsc>
                  </rate>
                  <start>15</start>
                  <end>90</end>
                  <in>0</in>
                  <out>75</out>
                  <pproTicksIn>0</pproTicksIn>
                  <pproTicksOut>794593800000</pproTicksOut>
                  <file id="file-243" />
                  <sourcetrack>
                     <mediatype>audio</mediatype>
                     <trackindex>2</trackindex>
                  </sourcetrack>
                  <link>
                     <linkclipref>clipitem-458</linkclipref>
                     <mediatype>video</mediatype>
                     <trackindex>1</trackindex>
                     <clipindex>2</clipindex>
                  </link>
                  <link>
                     <linkclipref>clipitem-619</linkclipref>
                     <mediatype>audio</mediatype>
                     <trackindex>1</trackindex>
                     <clipindex>1</clipindex>
                     <groupindex>1</groupindex>
                  </link>
                  <link>
                     <linkclipref>clipitem-652</linkclipref>
                     <mediatype>audio</mediatype>
                     <trackindex>2</trackindex>
                     <clipindex>1</clipindex>
                     <groupindex>1</groupindex>
                  </link>
                  <logginginfo>
                     <description />
                     <scene />
                     <shottake />
                     <lognote />
                     <good />
                     <originalvideofilename />
                     <originalaudiofilename />
                  </logginginfo>
                  <colorinfo>
                     <lut />
                     <lut1 />
                     <asc_sop />
                     <asc_sat />
                     <lut2 />
                  </colorinfo>
                  <labels>
                     <label2>Iris</label2>
                  </labels>
               </clipitem>
               <clipitem id="clipitem-653" premiereChannelType="stereo">
                  <masterclipid>masterclip-250</masterclipid>
                  <name>mymovie.mov</name>
                  <enabled>TRUE</enabled>
                  <duration>3502</duration>
                  <rate>
                     <timebase>24</timebase>
                     <ntsc>TRUE</ntsc>
                  </rate>
                  <start>90</start>
                  <end>222</end>
                  <in>75</in>
                  <out>207</out>
                  <pproTicksIn>794593800000</pproTicksIn>
                  <pproTicksOut>2193078888000</pproTicksOut>
                  <file id="file-243" />
                  <sourcetrack>
                     <mediatype>audio</mediatype>
                     <trackindex>2</trackindex>
                  </sourcetrack>
                  <link>
                     <linkclipref>clipitem-459</linkclipref>
                     <mediatype>video</mediatype>
                     <trackindex>1</trackindex>
                     <clipindex>3</clipindex>
                  </link>
                  <link>
                     <linkclipref>clipitem-620</linkclipref>
                     <mediatype>audio</mediatype>
                     <trackindex>1</trackindex>
                     <clipindex>2</clipindex>
                     <groupindex>1</groupindex>
                  </link>
                  <link>
                     <linkclipref>clipitem-653</linkclipref>
                     <mediatype>audio</mediatype>
                     <trackindex>2</trackindex>
                     <clipindex>2</clipindex>
                     <groupindex>1</groupindex>
                  </link>
                  <logginginfo>
                     <description />
                     <scene />
                     <shottake />
                     <lognote />
                     <good />
                     <originalvideofilename />
                     <originalaudiofilename />
                  </logginginfo>
                  <colorinfo>
                     <lut />
                     <lut1 />
                     <asc_sop />
                     <asc_sat />
                     <lut2 />
                  </colorinfo>
                  <labels>
                     <label2>Iris</label2>
                  </labels>
               </clipitem>
               <clipitem id="clipitem-654" premiereChannelType="stereo">
                  <masterclipid>masterclip-250</masterclipid>
                  <name>mymovie.mov</name>
                  <enabled>TRUE</enabled>
                  <duration>3502</duration>
                  <rate>
                     <timebase>24</timebase>
                     <ntsc>TRUE</ntsc>
                  </rate>
                  <start>222</start>
                  <end>396</end>
                  <in>207</in>
                  <out>381</out>
                  <pproTicksIn>2193078888000</pproTicksIn>
                  <pproTicksOut>4036536504000</pproTicksOut>
                  <file id="file-243" />
                  <sourcetrack>
                     <mediatype>audio</mediatype>
                     <trackindex>2</trackindex>
                  </sourcetrack>
                  <link>
                     <linkclipref>clipitem-460</linkclipref>
                     <mediatype>video</mediatype>
                     <trackindex>1</trackindex>
                     <clipindex>4</clipindex>
                  </link>
                  <link>
                     <linkclipref>clipitem-621</linkclipref>
                     <mediatype>audio</mediatype>
                     <trackindex>1</trackindex>
                     <clipindex>3</clipindex>
                     <groupindex>1</groupindex>
                  </link>
                  <link>
                     <linkclipref>clipitem-654</linkclipref>
                     <mediatype>audio</mediatype>
                     <trackindex>2</trackindex>
                     <clipindex>3</clipindex>
                     <groupindex>1</groupindex>
                  </link>
                  <logginginfo>
                     <description />
                     <scene />
                     <shottake />
                     <lognote />
                     <good />
                     <originalvideofilename />
                     <originalaudiofilename />
                  </logginginfo>
                  <colorinfo>
                     <lut />
                     <lut1 />
                     <asc_sop />
                     <asc_sat />
                     <lut2 />
                  </colorinfo>
                  <labels>
                     <label2>Iris</label2>
                  </labels>
               </clipitem>
               <clipitem id="clipitem-655" premiereChannelType="stereo">
                  <masterclipid>masterclip-250</masterclipid>
                  <name>mymovie.mov</name>
                  <enabled>TRUE</enabled>
                  <duration>3502</duration>
                  <rate>
                     <timebase>24</timebase>
                     <ntsc>TRUE</ntsc>
                  </rate>
                  <start>396</start>
                  <end>493</end>
                  <in>381</in>
                  <out>478</out>
                  <pproTicksIn>4036536504000</pproTicksIn>
                  <pproTicksOut>5064211152000</pproTicksOut>
                  <file id="file-243" />
                  <sourcetrack>
                     <mediatype>audio</mediatype>
                     <trackindex>2</trackindex>
                  </sourcetrack>
                  <link>
                     <linkclipref>clipitem-461</linkclipref>
                     <mediatype>video</mediatype>
                     <trackindex>1</trackindex>
                     <clipindex>5</clipindex>
                  </link>
                  <link>
                     <linkclipref>clipitem-622</linkclipref>
                     <mediatype>audio</mediatype>
                     <trackindex>1</trackindex>
                     <clipindex>4</clipindex>
                     <groupindex>1</groupindex>
                  </link>
                  <link>
                     <linkclipref>clipitem-655</linkclipref>
                     <mediatype>audio</mediatype>
                     <trackindex>2</trackindex>
                     <clipindex>4</clipindex>
                     <groupindex>1</groupindex>
                  </link>
                  <logginginfo>
                     <description />
                     <scene />
                     <shottake />
                     <lognote />
                     <good />
                     <originalvideofilename />
                     <originalaudiofilename />
                  </logginginfo>
                  <colorinfo>
                     <lut />
                     <lut1 />
                     <asc_sop />
                     <asc_sat />
                     <lut2 />
                  </colorinfo>
                  <labels>
                     <label2>Iris</label2>
                  </labels>
               </clipitem>
               <clipitem id="clipitem-656" premiereChannelType="stereo">
                  <masterclipid>masterclip-250</masterclipid>
                  <name>mymovie.mov</name>
                  <enabled>TRUE</enabled>
                  <duration>3502</duration>
                  <rate>
                     <timebase>24</timebase>
                     <ntsc>TRUE</ntsc>
                  </rate>
                  <start>493</start>
                  <end>598</end>
                  <in>478</in>
                  <out>583</out>
                  <pproTicksIn>5064211152000</pproTicksIn>
                  <pproTicksOut>6176642472000</pproTicksOut>
                  <file id="file-243" />
                  <sourcetrack>
                     <mediatype>audio</mediatype>
                     <trackindex>2</trackindex>
                  </sourcetrack>
                  <link>
                     <linkclipref>clipitem-462</linkclipref>
                     <mediatype>video</mediatype>
                     <trackindex>1</trackindex>
                     <clipindex>6</clipindex>
                  </link>
                  <link>
                     <linkclipref>clipitem-623</linkclipref>
                     <mediatype>audio</mediatype>
                     <trackindex>1</trackindex>
                     <clipindex>5</clipindex>
                     <groupindex>1</groupindex>
                  </link>
                  <link>
                     <linkclipref>clipitem-656</linkclipref>
                     <mediatype>audio</mediatype>
                     <trackindex>2</trackindex>
                     <clipindex>5</clipindex>
                     <groupindex>1</groupindex>
                  </link>
                  <logginginfo>
                     <description />
                     <scene />
                     <shottake />
                     <lognote />
                     <good />
                     <originalvideofilename />
                     <originalaudiofilename />
                  </logginginfo>
                  <colorinfo>
                     <lut />
                     <lut1 />
                     <asc_sop />
                     <asc_sat />
                     <lut2 />
                  </colorinfo>
                  <labels>
                     <label2>Iris</label2>
                  </labels>
               </clipitem>
               <clipitem id="clipitem-657" premiereChannelType="stereo">
                  <masterclipid>masterclip-250</masterclipid>
                  <name>mymovie.mov</name>
                  <enabled>TRUE</enabled>
                  <duration>3502</duration>
                  <rate>
                     <timebase>24</timebase>
                     <ntsc>TRUE</ntsc>
                  </rate>
                  <start>598</start>
                  <end>692</end>
                  <in>583</in>
                  <out>677</out>
                  <pproTicksIn>6176642472000</pproTicksIn>
                  <pproTicksOut>7172533368000</pproTicksOut>
                  <file id="file-243" />
                  <sourcetrack>
                     <mediatype>audio</mediatype>
                     <trackindex>2</trackindex>
                  </sourcetrack>
                  <link>
                     <linkclipref>clipitem-463</linkclipref>
                     <mediatype>video</mediatype>
                     <trackindex>1</trackindex>
                     <clipindex>7</clipindex>
                  </link>
                  <link>
                     <linkclipref>clipitem-624</linkclipref>
                     <mediatype>audio</mediatype>
                     <trackindex>1</trackindex>
                     <clipindex>6</clipindex>
                     <groupindex>1</groupindex>
                  </link>
                  <link>
                     <linkclipref>clipitem-657</linkclipref>
                     <mediatype>audio</mediatype>
                     <trackindex>2</trackindex>
                     <clipindex>6</clipindex>
                     <groupindex>1</groupindex>
                  </link>
                  <logginginfo>
                     <description />
                     <scene />
                     <shottake />
                     <lognote />
                     <good />
                     <originalvideofilename />
                     <originalaudiofilename />
                  </logginginfo>
                  <colorinfo>
                     <lut />
                     <lut1 />
                     <asc_sop />
                     <asc_sat />
                     <lut2 />
                  </colorinfo>
                  <labels>
                     <label2>Iris</label2>
                  </labels>
               </clipitem>
               <clipitem id="clipitem-658" premiereChannelType="stereo">
                  <masterclipid>masterclip-250</masterclipid>
                  <name>mymovie.mov</name>
                  <enabled>TRUE</enabled>
                  <duration>3502</duration>
                  <rate>
                     <timebase>24</timebase>
                     <ntsc>TRUE</ntsc>
                  </rate>
                  <start>692</start>
                  <end>780</end>
                  <in>677</in>
                  <out>765</out>
                  <pproTicksIn>7172533368000</pproTicksIn>
                  <pproTicksOut>8104856760000</pproTicksOut>
                  <file id="file-243" />
                  <sourcetrack>
                     <mediatype>audio</mediatype>
                     <trackindex>2</trackindex>
                  </sourcetrack>
                  <link>
                     <linkclipref>clipitem-464</linkclipref>
                     <mediatype>video</mediatype>
                     <trackindex>1</trackindex>
                     <clipindex>8</clipindex>
                  </link>
                  <link>
                     <linkclipref>clipitem-625</linkclipref>
                     <mediatype>audio</mediatype>
                     <trackindex>1</trackindex>
                     <clipindex>7</clipindex>
                     <groupindex>1</groupindex>
                  </link>
                  <link>
                     <linkclipref>clipitem-658</linkclipref>
                     <mediatype>audio</mediatype>
                     <trackindex>2</trackindex>
                     <clipindex>7</clipindex>
                     <groupindex>1</groupindex>
                  </link>
                  <logginginfo>
                     <description />
                     <scene />
                     <shottake />
                     <lognote />
                     <good />
                     <originalvideofilename />
                     <originalaudiofilename />
                  </logginginfo>
                  <colorinfo>
                     <lut />
                     <lut1 />
                     <asc_sop />
                     <asc_sat />
                     <lut2 />
                  </colorinfo>
                  <labels>
                     <label2>Iris</label2>
                  </labels>
               </clipitem>
               <clipitem id="clipitem-659" premiereChannelType="stereo">
                  <masterclipid>masterclip-250</masterclipid>
                  <name>mymovie.mov</name>
                  <enabled>TRUE</enabled>
                  <duration>3502</duration>
                  <rate>
                     <timebase>24</timebase>
                     <ntsc>TRUE</ntsc>
                  </rate>
                  <start>780</start>
                  <end>870</end>
                  <in>765</in>
                  <out>855</out>
                  <pproTicksIn>8104856760000</pproTicksIn>
                  <pproTicksOut>9058369320000</pproTicksOut>
                  <file id="file-243" />
                  <sourcetrack>
                     <mediatype>audio</mediatype>
                     <trackindex>2</trackindex>
                  </sourcetrack>
                  <link>
                     <linkclipref>clipitem-465</linkclipref>
                     <mediatype>video</mediatype>
                     <trackindex>1</trackindex>
                     <clipindex>9</clipindex>
                  </link>
                  <link>
                     <linkclipref>clipitem-626</linkclipref>
                     <mediatype>audio</mediatype>
                     <trackindex>1</trackindex>
                     <clipindex>8</clipindex>
                     <groupindex>1</groupindex>
                  </link>
                  <link>
                     <linkclipref>clipitem-659</linkclipref>
                     <mediatype>audio</mediatype>
                     <trackindex>2</trackindex>
                     <clipindex>8</clipindex>
                     <groupindex>1</groupindex>
                  </link>
                  <logginginfo>
                     <description />
                     <scene />
                     <shottake />
                     <lognote />
                     <good />
                     <originalvideofilename />
                     <originalaudiofilename />
                  </logginginfo>
                  <colorinfo>
                     <lut />
                     <lut1 />
                     <asc_sop />
                     <asc_sat />
                     <lut2 />
                  </colorinfo>
                  <labels>
                     <label2>Iris</label2>
                  </labels>
               </clipitem>
               <clipitem id="clipitem-660" premiereChannelType="stereo">
                  <masterclipid>masterclip-250</masterclipid>
                  <name>mymovie.mov</name>
                  <enabled>TRUE</enabled>
                  <duration>3502</duration>
                  <rate>
                     <timebase>24</timebase>
                     <ntsc>TRUE</ntsc>
                  </rate>
                  <start>870</start>
                  <end>1135</end>
                  <in>855</in>
                  <out>1120</out>
                  <pproTicksIn>9058369320000</pproTicksIn>
                  <pproTicksOut>11865934080000</pproTicksOut>
                  <file id="file-243" />
                  <sourcetrack>
                     <mediatype>audio</mediatype>
                     <trackindex>2</trackindex>
                  </sourcetrack>
                  <link>
                     <linkclipref>clipitem-466</linkclipref>
                     <mediatype>video</mediatype>
                     <trackindex>1</trackindex>
                     <clipindex>10</clipindex>
                  </link>
                  <link>
                     <linkclipref>clipitem-627</linkclipref>
                     <mediatype>audio</mediatype>
                     <trackindex>1</trackindex>
                     <clipindex>9</clipindex>
                     <groupindex>1</groupindex>
                  </link>
                  <link>
                     <linkclipref>clipitem-660</linkclipref>
                     <mediatype>audio</mediatype>
                     <trackindex>2</trackindex>
                     <clipindex>9</clipindex>
                     <groupindex>1</groupindex>
                  </link>
                  <logginginfo>
                     <description />
                     <scene />
                     <shottake />
                     <lognote />
                     <good />
                     <originalvideofilename />
                     <originalaudiofilename />
                  </logginginfo>
                  <colorinfo>
                     <lut />
                     <lut1 />
                     <asc_sop />
                     <asc_sat />
                     <lut2 />
                  </colorinfo>
                  <labels>
                     <label2>Iris</label2>
                  </labels>
               </clipitem>
               <clipitem id="clipitem-661" premiereChannelType="stereo">
                  <masterclipid>masterclip-250</masterclipid>
                  <name>mymovie.mov</name>
                  <enabled>TRUE</enabled>
                  <duration>3502</duration>
                  <rate>
                     <timebase>24</timebase>
                     <ntsc>TRUE</ntsc>
                  </rate>
                  <start>1135</start>
                  <end>1229</end>
                  <in>1120</in>
                  <out>1214</out>
                  <pproTicksIn>11865934080000</pproTicksIn>
                  <pproTicksOut>12861824976000</pproTicksOut>
                  <file id="file-243" />
                  <sourcetrack>
                     <mediatype>audio</mediatype>
                     <trackindex>2</trackindex>
                  </sourcetrack>
                  <link>
                     <linkclipref>clipitem-467</linkclipref>
                     <mediatype>video</mediatype>
                     <trackindex>1</trackindex>
                     <clipindex>11</clipindex>
                  </link>
                  <link>
                     <linkclipref>clipitem-628</linkclipref>
                     <mediatype>audio</mediatype>
                     <trackindex>1</trackindex>
                     <clipindex>10</clipindex>
                     <groupindex>1</groupindex>
                  </link>
                  <link>
                     <linkclipref>clipitem-661</linkclipref>
                     <mediatype>audio</mediatype>
                     <trackindex>2</trackindex>
                     <clipindex>10</clipindex>
                     <groupindex>1</groupindex>
                  </link>
                  <logginginfo>
                     <description />
                     <scene />
                     <shottake />
                     <lognote />
                     <good />
                     <originalvideofilename />
                     <originalaudiofilename />
                  </logginginfo>
                  <colorinfo>
                     <lut />
                     <lut1 />
                     <asc_sop />
                     <asc_sat />
                     <lut2 />
                  </colorinfo>
                  <labels>
                     <label2>Iris</label2>
                  </labels>
               </clipitem>
               <clipitem id="clipitem-662" premiereChannelType="stereo">
                  <masterclipid>masterclip-250</masterclipid>
                  <name>mymovie.mov</name>
                  <enabled>TRUE</enabled>
                  <duration>3502</duration>
                  <rate>
                     <timebase>24</timebase>
                     <ntsc>TRUE</ntsc>
                  </rate>
                  <start>1229</start>
                  <end>1357</end>
                  <in>1214</in>
                  <out>1342</out>
                  <pproTicksIn>12861824976000</pproTicksIn>
                  <pproTicksOut>14217931728000</pproTicksOut>
                  <file id="file-243" />
                  <sourcetrack>
                     <mediatype>audio</mediatype>
                     <trackindex>2</trackindex>
                  </sourcetrack>
                  <link>
                     <linkclipref>clipitem-468</linkclipref>
                     <mediatype>video</mediatype>
                     <trackindex>1</trackindex>
                     <clipindex>12</clipindex>
                  </link>
                  <link>
                     <linkclipref>clipitem-629</linkclipref>
                     <mediatype>audio</mediatype>
                     <trackindex>1</trackindex>
                     <clipindex>11</clipindex>
                     <groupindex>1</groupindex>
                  </link>
                  <link>
                     <linkclipref>clipitem-662</linkclipref>
                     <mediatype>audio</mediatype>
                     <trackindex>2</trackindex>
                     <clipindex>11</clipindex>
                     <groupindex>1</groupindex>
                  </link>
                  <logginginfo>
                     <description />
                     <scene />
                     <shottake />
                     <lognote />
                     <good />
                     <originalvideofilename />
                     <originalaudiofilename />
                  </logginginfo>
                  <colorinfo>
                     <lut />
                     <lut1 />
                     <asc_sop />
                     <asc_sat />
                     <lut2 />
                  </colorinfo>
                  <labels>
                     <label2>Iris</label2>
                  </labels>
               </clipitem>
               <clipitem id="clipitem-663" premiereChannelType="stereo">
                  <masterclipid>masterclip-250</masterclipid>
                  <name>mymovie.mov</name>
                  <enabled>TRUE</enabled>
                  <duration>3502</duration>
                  <rate>
                     <timebase>24</timebase>
                     <ntsc>TRUE</ntsc>
                  </rate>
                  <start>1357</start>
                  <end>1408</end>
                  <in>1342</in>
                  <out>1393</out>
                  <pproTicksIn>14217931728000</pproTicksIn>
                  <pproTicksOut>14758255512000</pproTicksOut>
                  <file id="file-243" />
                  <sourcetrack>
                     <mediatype>audio</mediatype>
                     <trackindex>2</trackindex>
                  </sourcetrack>
                  <link>
                     <linkclipref>clipitem-469</linkclipref>
                     <mediatype>video</mediatype>
                     <trackindex>1</trackindex>
                     <clipindex>13</clipindex>
                  </link>
                  <link>
                     <linkclipref>clipitem-630</linkclipref>
                     <mediatype>audio</mediatype>
                     <trackindex>1</trackindex>
                     <clipindex>12</clipindex>
                     <groupindex>1</groupindex>
                  </link>
                  <link>
                     <linkclipref>clipitem-663</linkclipref>
                     <mediatype>audio</mediatype>
                     <trackindex>2</trackindex>
                     <clipindex>12</clipindex>
                     <groupindex>1</groupindex>
                  </link>
                  <logginginfo>
                     <description />
                     <scene />
                     <shottake />
                     <lognote />
                     <good />
                     <originalvideofilename />
                     <originalaudiofilename />
                  </logginginfo>
                  <colorinfo>
                     <lut />
                     <lut1 />
                     <asc_sop />
                     <asc_sat />
                     <lut2 />
                  </colorinfo>
                  <labels>
                     <label2>Iris</label2>
                  </labels>
               </clipitem>
               <clipitem id="clipitem-664" premiereChannelType="stereo">
                  <masterclipid>masterclip-250</masterclipid>
                  <name>mymovie.mov</name>
                  <enabled>TRUE</enabled>
                  <duration>3502</duration>
                  <rate>
                     <timebase>24</timebase>
                     <ntsc>TRUE</ntsc>
                  </rate>
                  <start>1408</start>
                  <end>1482</end>
                  <in>1393</in>
                  <out>1467</out>
                  <pproTicksIn>14758255512000</pproTicksIn>
                  <pproTicksOut>15542254728000</pproTicksOut>
                  <file id="file-243" />
                  <sourcetrack>
                     <mediatype>audio</mediatype>
                     <trackindex>2</trackindex>
                  </sourcetrack>
                  <link>
                     <linkclipref>clipitem-470</linkclipref>
                     <mediatype>video</mediatype>
                     <trackindex>1</trackindex>
                     <clipindex>14</clipindex>
                  </link>
                  <link>
                     <linkclipref>clipitem-631</linkclipref>
                     <mediatype>audio</mediatype>
                     <trackindex>1</trackindex>
                     <clipindex>13</clipindex>
                     <groupindex>1</groupindex>
                  </link>
                  <link>
                     <linkclipref>clipitem-664</linkclipref>
                     <mediatype>audio</mediatype>
                     <trackindex>2</trackindex>
                     <clipindex>13</clipindex>
                     <groupindex>1</groupindex>
                  </link>
                  <logginginfo>
                     <description />
                     <scene />
                     <shottake />
                     <lognote />
                     <good />
                     <originalvideofilename />
                     <originalaudiofilename />
                  </logginginfo>
                  <colorinfo>
                     <lut />
                     <lut1 />
                     <asc_sop />
                     <asc_sat />
                     <lut2 />
                  </colorinfo>
                  <labels>
                     <label2>Iris</label2>
                  </labels>
               </clipitem>
               <clipitem id="clipitem-665" premiereChannelType="stereo">
                  <masterclipid>masterclip-250</masterclipid>
                  <name>mymovie.mov</name>
                  <enabled>TRUE</enabled>
                  <duration>3502</duration>
                  <rate>
                     <timebase>24</timebase>
                     <ntsc>TRUE</ntsc>
                  </rate>
                  <start>1482</start>
                  <end>1537</end>
                  <in>1467</in>
                  <out>1522</out>
                  <pproTicksIn>15542254728000</pproTicksIn>
                  <pproTicksOut>16124956848000</pproTicksOut>
                  <file id="file-243" />
                  <sourcetrack>
                     <mediatype>audio</mediatype>
                     <trackindex>2</trackindex>
                  </sourcetrack>
                  <link>
                     <linkclipref>clipitem-471</linkclipref>
                     <mediatype>video</mediatype>
                     <trackindex>1</trackindex>
                     <clipindex>15</clipindex>
                  </link>
                  <link>
                     <linkclipref>clipitem-632</linkclipref>
                     <mediatype>audio</mediatype>
                     <trackindex>1</trackindex>
                     <clipindex>14</clipindex>
                     <groupindex>1</groupindex>
                  </link>
                  <link>
                     <linkclipref>clipitem-665</linkclipref>
                     <mediatype>audio</mediatype>
                     <trackindex>2</trackindex>
                     <clipindex>14</clipindex>
                     <groupindex>1</groupindex>
                  </link>
                  <logginginfo>
                     <description />
                     <scene />
                     <shottake />
                     <lognote />
                     <good />
                     <originalvideofilename />
                     <originalaudiofilename />
                  </logginginfo>
                  <colorinfo>
                     <lut />
                     <lut1 />
                     <asc_sop />
                     <asc_sat />
                     <lut2 />
                  </colorinfo>
                  <labels>
                     <label2>Iris</label2>
                  </labels>
               </clipitem>
               <clipitem id="clipitem-666" premiereChannelType="stereo">
                  <masterclipid>masterclip-250</masterclipid>
                  <name>mymovie.mov</name>
                  <enabled>TRUE</enabled>
                  <duration>3502</duration>
                  <rate>
                     <timebase>24</timebase>
                     <ntsc>TRUE</ntsc>
                  </rate>
                  <start>1537</start>
                  <end>1675</end>
                  <in>1522</in>
                  <out>1660</out>
                  <pproTicksIn>16124956848000</pproTicksIn>
                  <pproTicksOut>17587009440000</pproTicksOut>
                  <file id="file-243" />
                  <sourcetrack>
                     <mediatype>audio</mediatype>
                     <trackindex>2</trackindex>
                  </sourcetrack>
                  <link>
                     <linkclipref>clipitem-472</linkclipref>
                     <mediatype>video</mediatype>
                     <trackindex>1</trackindex>
                     <clipindex>16</clipindex>
                  </link>
                  <link>
                     <linkclipref>clipitem-633</linkclipref>
                     <mediatype>audio</mediatype>
                     <trackindex>1</trackindex>
                     <clipindex>15</clipindex>
                     <groupindex>1</groupindex>
                  </link>
                  <link>
                     <linkclipref>clipitem-666</linkclipref>
                     <mediatype>audio</mediatype>
                     <trackindex>2</trackindex>
                     <clipindex>15</clipindex>
                     <groupindex>1</groupindex>
                  </link>
                  <logginginfo>
                     <description />
                     <scene />
                     <shottake />
                     <lognote />
                     <good />
                     <originalvideofilename />
                     <originalaudiofilename />
                  </logginginfo>
                  <colorinfo>
                     <lut />
                     <lut1 />
                     <asc_sop />
                     <asc_sat />
                     <lut2 />
                  </colorinfo>
                  <labels>
                     <label2>Iris</label2>
                  </labels>
               </clipitem>
               <clipitem id="clipitem-667" premiereChannelType="stereo">
                  <masterclipid>masterclip-250</masterclipid>
                  <name>mymovie.mov</name>
                  <enabled>TRUE</enabled>
                  <duration>3502</duration>
                  <rate>
                     <timebase>24</timebase>
                     <ntsc>TRUE</ntsc>
                  </rate>
                  <start>1675</start>
                  <end>1734</end>
                  <in>1660</in>
                  <out>1719</out>
                  <pproTicksIn>17587009440000</pproTicksIn>
                  <pproTicksOut>18212089896000</pproTicksOut>
                  <file id="file-243" />
                  <sourcetrack>
                     <mediatype>audio</mediatype>
                     <trackindex>2</trackindex>
                  </sourcetrack>
                  <link>
                     <linkclipref>clipitem-473</linkclipref>
                     <mediatype>video</mediatype>
                     <trackindex>1</trackindex>
                     <clipindex>17</clipindex>
                  </link>
                  <link>
                     <linkclipref>clipitem-634</linkclipref>
                     <mediatype>audio</mediatype>
                     <trackindex>1</trackindex>
                     <clipindex>16</clipindex>
                     <groupindex>1</groupindex>
                  </link>
                  <link>
                     <linkclipref>clipitem-667</linkclipref>
                     <mediatype>audio</mediatype>
                     <trackindex>2</trackindex>
                     <clipindex>16</clipindex>
                     <groupindex>1</groupindex>
                  </link>
                  <logginginfo>
                     <description />
                     <scene />
                     <shottake />
                     <lognote />
                     <good />
                     <originalvideofilename />
                     <originalaudiofilename />
                  </logginginfo>
                  <colorinfo>
                     <lut />
                     <lut1 />
                     <asc_sop />
                     <asc_sat />
                     <lut2 />
                  </colorinfo>
                  <labels>
                     <label2>Iris</label2>
                  </labels>
               </clipitem>
               <clipitem id="clipitem-668" premiereChannelType="stereo">
                  <masterclipid>masterclip-250</masterclipid>
                  <name>mymovie.mov</name>
                  <enabled>TRUE</enabled>
                  <duration>3502</duration>
                  <rate>
                     <timebase>24</timebase>
                     <ntsc>TRUE</ntsc>
                  </rate>
                  <start>1734</start>
                  <end>1802</end>
                  <in>1719</in>
                  <out>1787</out>
                  <pproTicksIn>18212089896000</pproTicksIn>
                  <pproTicksOut>18932521608000</pproTicksOut>
                  <file id="file-243" />
                  <sourcetrack>
                     <mediatype>audio</mediatype>
                     <trackindex>2</trackindex>
                  </sourcetrack>
                  <link>
                     <linkclipref>clipitem-474</linkclipref>
                     <mediatype>video</mediatype>
                     <trackindex>1</trackindex>
                     <clipindex>18</clipindex>
                  </link>
                  <link>
                     <linkclipref>clipitem-635</linkclipref>
                     <mediatype>audio</mediatype>
                     <trackindex>1</trackindex>
                     <clipindex>17</clipindex>
                     <groupindex>1</groupindex>
                  </link>
                  <link>
                     <linkclipref>clipitem-668</linkclipref>
                     <mediatype>audio</mediatype>
                     <trackindex>2</trackindex>
                     <clipindex>17</clipindex>
                     <groupindex>1</groupindex>
                  </link>
                  <logginginfo>
                     <description />
                     <scene />
                     <shottake />
                     <lognote />
                     <good />
                     <originalvideofilename />
                     <originalaudiofilename />
                  </logginginfo>
                  <colorinfo>
                     <lut />
                     <lut1 />
                     <asc_sop />
                     <asc_sat />
                     <lut2 />
                  </colorinfo>
                  <labels>
                     <label2>Iris</label2>
                  </labels>
               </clipitem>
               <clipitem id="clipitem-669" premiereChannelType="stereo">
                  <masterclipid>masterclip-250</masterclipid>
                  <name>mymovie.mov</name>
                  <enabled>TRUE</enabled>
                  <duration>3502</duration>
                  <rate>
                     <timebase>24</timebase>
                     <ntsc>TRUE</ntsc>
                  </rate>
                  <start>1802</start>
                  <end>1862</end>
                  <in>1787</in>
                  <out>1847</out>
                  <pproTicksIn>18932521608000</pproTicksIn>
                  <pproTicksOut>19568196648000</pproTicksOut>
                  <file id="file-243" />
                  <sourcetrack>
                     <mediatype>audio</mediatype>
                     <trackindex>2</trackindex>
                  </sourcetrack>
                  <link>
                     <linkclipref>clipitem-475</linkclipref>
                     <mediatype>video</mediatype>
                     <trackindex>1</trackindex>
                     <clipindex>19</clipindex>
                  </link>
                  <link>
                     <linkclipref>clipitem-636</linkclipref>
                     <mediatype>audio</mediatype>
                     <trackindex>1</trackindex>
                     <clipindex>18</clipindex>
                     <groupindex>1</groupindex>
                  </link>
                  <link>
                     <linkclipref>clipitem-669</linkclipref>
                     <mediatype>audio</mediatype>
                     <trackindex>2</trackindex>
                     <clipindex>18</clipindex>
                     <groupindex>1</groupindex>
                  </link>
                  <logginginfo>
                     <description />
                     <scene />
                     <shottake />
                     <lognote />
                     <good />
                     <originalvideofilename />
                     <originalaudiofilename />
                  </logginginfo>
                  <colorinfo>
                     <lut />
                     <lut1 />
                     <asc_sop />
                     <asc_sat />
                     <lut2 />
                  </colorinfo>
                  <labels>
                     <label2>Iris</label2>
                  </labels>
               </clipitem>
               <clipitem id="clipitem-670" premiereChannelType="stereo">
                  <masterclipid>masterclip-250</masterclipid>
                  <name>mymovie.mov</name>
                  <enabled>TRUE</enabled>
                  <duration>3502</duration>
                  <rate>
                     <timebase>24</timebase>
                     <ntsc>TRUE</ntsc>
                  </rate>
                  <start>1862</start>
                  <end>1975</end>
                  <in>1847</in>
                  <out>1960</out>
                  <pproTicksIn>19568196648000</pproTicksIn>
                  <pproTicksOut>20765384640000</pproTicksOut>
                  <file id="file-243" />
                  <sourcetrack>
                     <mediatype>audio</mediatype>
                     <trackindex>2</trackindex>
                  </sourcetrack>
                  <link>
                     <linkclipref>clipitem-476</linkclipref>
                     <mediatype>video</mediatype>
                     <trackindex>1</trackindex>
                     <clipindex>20</clipindex>
                  </link>
                  <link>
                     <linkclipref>clipitem-637</linkclipref>
                     <mediatype>audio</mediatype>
                     <trackindex>1</trackindex>
                     <clipindex>19</clipindex>
                     <groupindex>1</groupindex>
                  </link>
                  <link>
                     <linkclipref>clipitem-670</linkclipref>
                     <mediatype>audio</mediatype>
                     <trackindex>2</trackindex>
                     <clipindex>19</clipindex>
                     <groupindex>1</groupindex>
                  </link>
                  <logginginfo>
                     <description />
                     <scene />
                     <shottake />
                     <lognote />
                     <good />
                     <originalvideofilename />
                     <originalaudiofilename />
                  </logginginfo>
                  <colorinfo>
                     <lut />
                     <lut1 />
                     <asc_sop />
                     <asc_sat />
                     <lut2 />
                  </colorinfo>
                  <labels>
                     <label2>Iris</label2>
                  </labels>
               </clipitem>
               <clipitem id="clipitem-671" premiereChannelType="stereo">
                  <masterclipid>masterclip-250</masterclipid>
                  <name>mymovie.mov</name>
                  <enabled>TRUE</enabled>
                  <duration>3502</duration>
                  <rate>
                     <timebase>24</timebase>
                     <ntsc>TRUE</ntsc>
                  </rate>
                  <start>1975</start>
                  <end>2046</end>
                  <in>1960</in>
                  <out>2031</out>
                  <pproTicksIn>20765384640000</pproTicksIn>
                  <pproTicksOut>21517600104000</pproTicksOut>
                  <file id="file-243" />
                  <sourcetrack>
                     <mediatype>audio</mediatype>
                     <trackindex>2</trackindex>
                  </sourcetrack>
                  <link>
                     <linkclipref>clipitem-477</linkclipref>
                     <mediatype>video</mediatype>
                     <trackindex>1</trackindex>
                     <clipindex>21</clipindex>
                  </link>
                  <link>
                     <linkclipref>clipitem-638</linkclipref>
                     <mediatype>audio</mediatype>
                     <trackindex>1</trackindex>
                     <clipindex>20</clipindex>
                     <groupindex>1</groupindex>
                  </link>
                  <link>
                     <linkclipref>clipitem-671</linkclipref>
                     <mediatype>audio</mediatype>
                     <trackindex>2</trackindex>
                     <clipindex>20</clipindex>
                     <groupindex>1</groupindex>
                  </link>
                  <logginginfo>
                     <description />
                     <scene />
                     <shottake />
                     <lognote />
                     <good />
                     <originalvideofilename />
                     <originalaudiofilename />
                  </logginginfo>
                  <colorinfo>
                     <lut />
                     <lut1 />
                     <asc_sop />
                     <asc_sat />
                     <lut2 />
                  </colorinfo>
                  <labels>
                     <label2>Iris</label2>
                  </labels>
               </clipitem>
               <clipitem id="clipitem-672" premiereChannelType="stereo">
                  <masterclipid>masterclip-250</masterclipid>
                  <name>mymovie.mov</name>
                  <enabled>TRUE</enabled>
                  <duration>3502</duration>
                  <rate>
                     <timebase>24</timebase>
                     <ntsc>TRUE</ntsc>
                  </rate>
                  <start>2046</start>
                  <end>2094</end>
                  <in>2031</in>
                  <out>2079</out>
                  <pproTicksIn>21517600104000</pproTicksIn>
                  <pproTicksOut>22026140136000</pproTicksOut>
                  <file id="file-243" />
                  <sourcetrack>
                     <mediatype>audio</mediatype>
                     <trackindex>2</trackindex>
                  </sourcetrack>
                  <link>
                     <linkclipref>clipitem-478</linkclipref>
                     <mediatype>video</mediatype>
                     <trackindex>1</trackindex>
                     <clipindex>22</clipindex>
                  </link>
                  <link>
                     <linkclipref>clipitem-639</linkclipref>
                     <mediatype>audio</mediatype>
                     <trackindex>1</trackindex>
                     <clipindex>21</clipindex>
                     <groupindex>1</groupindex>
                  </link>
                  <link>
                     <linkclipref>clipitem-672</linkclipref>
                     <mediatype>audio</mediatype>
                     <trackindex>2</trackindex>
                     <clipindex>21</clipindex>
                     <groupindex>1</groupindex>
                  </link>
                  <logginginfo>
                     <description />
                     <scene />
                     <shottake />
                     <lognote />
                     <good />
                     <originalvideofilename />
                     <originalaudiofilename />
                  </logginginfo>
                  <colorinfo>
                     <lut />
                     <lut1 />
                     <asc_sop />
                     <asc_sat />
                     <lut2 />
                  </colorinfo>
                  <labels>
                     <label2>Iris</label2>
                  </labels>
               </clipitem>
               <clipitem id="clipitem-673" premiereChannelType="stereo">
                  <masterclipid>masterclip-250</masterclipid>
                  <name>mymovie.mov</name>
                  <enabled>TRUE</enabled>
                  <duration>3502</duration>
                  <rate>
                     <timebase>24</timebase>
                     <ntsc>TRUE</ntsc>
                  </rate>
                  <start>2094</start>
                  <end>2155</end>
                  <in>2079</in>
                  <out>2140</out>
                  <pproTicksIn>22026140136000</pproTicksIn>
                  <pproTicksOut>22672409760000</pproTicksOut>
                  <file id="file-243" />
                  <sourcetrack>
                     <mediatype>audio</mediatype>
                     <trackindex>2</trackindex>
                  </sourcetrack>
                  <link>
                     <linkclipref>clipitem-479</linkclipref>
                     <mediatype>video</mediatype>
                     <trackindex>1</trackindex>
                     <clipindex>23</clipindex>
                  </link>
                  <link>
                     <linkclipref>clipitem-640</linkclipref>
                     <mediatype>audio</mediatype>
                     <trackindex>1</trackindex>
                     <clipindex>22</clipindex>
                     <groupindex>1</groupindex>
                  </link>
                  <link>
                     <linkclipref>clipitem-673</linkclipref>
                     <mediatype>audio</mediatype>
                     <trackindex>2</trackindex>
                     <clipindex>22</clipindex>
                     <groupindex>1</groupindex>
                  </link>
                  <logginginfo>
                     <description />
                     <scene />
                     <shottake />
                     <lognote />
                     <good />
                     <originalvideofilename />
                     <originalaudiofilename />
                  </logginginfo>
                  <colorinfo>
                     <lut />
                     <lut1 />
                     <asc_sop />
                     <asc_sat />
                     <lut2 />
                  </colorinfo>
                  <labels>
                     <label2>Iris</label2>
                  </labels>
               </clipitem>
               <clipitem id="clipitem-674" premiereChannelType="stereo">
                  <masterclipid>masterclip-250</masterclipid>
                  <name>mymovie.mov</name>
                  <enabled>TRUE</enabled>
                  <duration>3502</duration>
                  <rate>
                     <timebase>24</timebase>
                     <ntsc>TRUE</ntsc>
                  </rate>
                  <start>2155</start>
                  <end>2207</end>
                  <in>2140</in>
                  <out>2192</out>
                  <pproTicksIn>22672409760000</pproTicksIn>
                  <pproTicksOut>23223328128000</pproTicksOut>
                  <file id="file-243" />
                  <sourcetrack>
                     <mediatype>audio</mediatype>
                     <trackindex>2</trackindex>
                  </sourcetrack>
                  <link>
                     <linkclipref>clipitem-480</linkclipref>
                     <mediatype>video</mediatype>
                     <trackindex>1</trackindex>
                     <clipindex>24</clipindex>
                  </link>
                  <link>
                     <linkclipref>clipitem-641</linkclipref>
                     <mediatype>audio</mediatype>
                     <trackindex>1</trackindex>
                     <clipindex>23</clipindex>
                     <groupindex>1</groupindex>
                  </link>
                  <link>
                     <linkclipref>clipitem-674</linkclipref>
                     <mediatype>audio</mediatype>
                     <trackindex>2</trackindex>
                     <clipindex>23</clipindex>
                     <groupindex>1</groupindex>
                  </link>
                  <logginginfo>
                     <description />
                     <scene />
                     <shottake />
                     <lognote />
                     <good />
                     <originalvideofilename />
                     <originalaudiofilename />
                  </logginginfo>
                  <colorinfo>
                     <lut />
                     <lut1 />
                     <asc_sop />
                     <asc_sat />
                     <lut2 />
                  </colorinfo>
                  <labels>
                     <label2>Iris</label2>
                  </labels>
               </clipitem>
               <clipitem id="clipitem-675" premiereChannelType="stereo">
                  <masterclipid>masterclip-250</masterclipid>
                  <name>mymovie.mov</name>
                  <enabled>TRUE</enabled>
                  <duration>3502</duration>
                  <rate>
                     <timebase>24</timebase>
                     <ntsc>TRUE</ntsc>
                  </rate>
                  <start>2207</start>
                  <end>2259</end>
                  <in>2192</in>
                  <out>2244</out>
                  <pproTicksIn>23223328128000</pproTicksIn>
                  <pproTicksOut>23774246496000</pproTicksOut>
                  <file id="file-243" />
                  <sourcetrack>
                     <mediatype>audio</mediatype>
                     <trackindex>2</trackindex>
                  </sourcetrack>
                  <link>
                     <linkclipref>clipitem-481</linkclipref>
                     <mediatype>video</mediatype>
                     <trackindex>1</trackindex>
                     <clipindex>25</clipindex>
                  </link>
                  <link>
                     <linkclipref>clipitem-642</linkclipref>
                     <mediatype>audio</mediatype>
                     <trackindex>1</trackindex>
                     <clipindex>24</clipindex>
                     <groupindex>1</groupindex>
                  </link>
                  <link>
                     <linkclipref>clipitem-675</linkclipref>
                     <mediatype>audio</mediatype>
                     <trackindex>2</trackindex>
                     <clipindex>24</clipindex>
                     <groupindex>1</groupindex>
                  </link>
                  <logginginfo>
                     <description />
                     <scene />
                     <shottake />
                     <lognote />
                     <good />
                     <originalvideofilename />
                     <originalaudiofilename />
                  </logginginfo>
                  <colorinfo>
                     <lut />
                     <lut1 />
                     <asc_sop />
                     <asc_sat />
                     <lut2 />
                  </colorinfo>
                  <labels>
                     <label2>Iris</label2>
                  </labels>
               </clipitem>
               <clipitem id="clipitem-676" premiereChannelType="stereo">
                  <masterclipid>masterclip-250</masterclipid>
                  <name>mymovie.mov</name>
                  <enabled>TRUE</enabled>
                  <duration>3502</duration>
                  <rate>
                     <timebase>24</timebase>
                     <ntsc>TRUE</ntsc>
                  </rate>
                  <start>2259</start>
                  <end>2306</end>
                  <in>2244</in>
                  <out>2291</out>
                  <pproTicksIn>23774246496000</pproTicksIn>
                  <pproTicksOut>24272191944000</pproTicksOut>
                  <file id="file-243" />
                  <sourcetrack>
                     <mediatype>audio</mediatype>
                     <trackindex>2</trackindex>
                  </sourcetrack>
                  <link>
                     <linkclipref>clipitem-482</linkclipref>
                     <mediatype>video</mediatype>
                     <trackindex>1</trackindex>
                     <clipindex>26</clipindex>
                  </link>
                  <link>
                     <linkclipref>clipitem-643</linkclipref>
                     <mediatype>audio</mediatype>
                     <trackindex>1</trackindex>
                     <clipindex>25</clipindex>
                     <groupindex>1</groupindex>
                  </link>
                  <link>
                     <linkclipref>clipitem-676</linkclipref>
                     <mediatype>audio</mediatype>
                     <trackindex>2</trackindex>
                     <clipindex>25</clipindex>
                     <groupindex>1</groupindex>
                  </link>
                  <logginginfo>
                     <description />
                     <scene />
                     <shottake />
                     <lognote />
                     <good />
                     <originalvideofilename />
                     <originalaudiofilename />
                  </logginginfo>
                  <colorinfo>
                     <lut />
                     <lut1 />
                     <asc_sop />
                     <asc_sat />
                     <lut2 />
                  </colorinfo>
                  <labels>
                     <label2>Iris</label2>
                  </labels>
               </clipitem>
               <clipitem id="clipitem-677" premiereChannelType="stereo">
                  <masterclipid>masterclip-250</masterclipid>
                  <name>mymovie.mov</name>
                  <enabled>TRUE</enabled>
                  <duration>3502</duration>
                  <rate>
                     <timebase>24</timebase>
                     <ntsc>TRUE</ntsc>
                  </rate>
                  <start>2306</start>
                  <end>2388</end>
                  <in>2291</in>
                  <out>2373</out>
                  <pproTicksIn>24272191944000</pproTicksIn>
                  <pproTicksOut>25140947832000</pproTicksOut>
                  <file id="file-243" />
                  <sourcetrack>
                     <mediatype>audio</mediatype>
                     <trackindex>2</trackindex>
                  </sourcetrack>
                  <link>
                     <linkclipref>clipitem-483</linkclipref>
                     <mediatype>video</mediatype>
                     <trackindex>1</trackindex>
                     <clipindex>27</clipindex>
                  </link>
                  <link>
                     <linkclipref>clipitem-644</linkclipref>
                     <mediatype>audio</mediatype>
                     <trackindex>1</trackindex>
                     <clipindex>26</clipindex>
                     <groupindex>1</groupindex>
                  </link>
                  <link>
                     <linkclipref>clipitem-677</linkclipref>
                     <mediatype>audio</mediatype>
                     <trackindex>2</trackindex>
                     <clipindex>26</clipindex>
                     <groupindex>1</groupindex>
                  </link>
                  <logginginfo>
                     <description />
                     <scene />
                     <shottake />
                     <lognote />
                     <good />
                     <originalvideofilename />
                     <originalaudiofilename />
                  </logginginfo>
                  <colorinfo>
                     <lut />
                     <lut1 />
                     <asc_sop />
                     <asc_sat />
                     <lut2 />
                  </colorinfo>
                  <labels>
                     <label2>Iris</label2>
                  </labels>
               </clipitem>
               <clipitem id="clipitem-678" premiereChannelType="stereo">
                  <masterclipid>masterclip-250</masterclipid>
                  <name>mymovie.mov</name>
                  <enabled>TRUE</enabled>
                  <duration>3502</duration>
                  <rate>
                     <timebase>24</timebase>
                     <ntsc>TRUE</ntsc>
                  </rate>
                  <start>2388</start>
                  <end>2585</end>
                  <in>2373</in>
                  <out>2570</out>
                  <pproTicksIn>25140947832000</pproTicksIn>
                  <pproTicksOut>27228080880000</pproTicksOut>
                  <file id="file-243" />
                  <sourcetrack>
                     <mediatype>audio</mediatype>
                     <trackindex>2</trackindex>
                  </sourcetrack>
                  <link>
                     <linkclipref>clipitem-484</linkclipref>
                     <mediatype>video</mediatype>
                     <trackindex>1</trackindex>
                     <clipindex>28</clipindex>
                  </link>
                  <link>
                     <linkclipref>clipitem-645</linkclipref>
                     <mediatype>audio</mediatype>
                     <trackindex>1</trackindex>
                     <clipindex>27</clipindex>
                     <groupindex>1</groupindex>
                  </link>
                  <link>
                     <linkclipref>clipitem-678</linkclipref>
                     <mediatype>audio</mediatype>
                     <trackindex>2</trackindex>
                     <clipindex>27</clipindex>
                     <groupindex>1</groupindex>
                  </link>
                  <logginginfo>
                     <description />
                     <scene />
                     <shottake />
                     <lognote />
                     <good />
                     <originalvideofilename />
                     <originalaudiofilename />
                  </logginginfo>
                  <colorinfo>
                     <lut />
                     <lut1 />
                     <asc_sop />
                     <asc_sat />
                     <lut2 />
                  </colorinfo>
                  <labels>
                     <label2>Iris</label2>
                  </labels>
               </clipitem>
               <clipitem id="clipitem-679" premiereChannelType="stereo">
                  <masterclipid>masterclip-250</masterclipid>
                  <name>mymovie.mov</name>
                  <enabled>TRUE</enabled>
                  <duration>3502</duration>
                  <rate>
                     <timebase>24</timebase>
                     <ntsc>TRUE</ntsc>
                  </rate>
                  <start>2585</start>
                  <end>2692</end>
                  <in>2570</in>
                  <out>2677</out>
                  <pproTicksIn>27228080880000</pproTicksIn>
                  <pproTicksOut>28361701368000</pproTicksOut>
                  <file id="file-243" />
                  <sourcetrack>
                     <mediatype>audio</mediatype>
                     <trackindex>2</trackindex>
                  </sourcetrack>
                  <link>
                     <linkclipref>clipitem-485</linkclipref>
                     <mediatype>video</mediatype>
                     <trackindex>1</trackindex>
                     <clipindex>29</clipindex>
                  </link>
                  <link>
                     <linkclipref>clipitem-646</linkclipref>
                     <mediatype>audio</mediatype>
                     <trackindex>1</trackindex>
                     <clipindex>28</clipindex>
                     <groupindex>1</groupindex>
                  </link>
                  <link>
                     <linkclipref>clipitem-679</linkclipref>
                     <mediatype>audio</mediatype>
                     <trackindex>2</trackindex>
                     <clipindex>28</clipindex>
                     <groupindex>1</groupindex>
                  </link>
                  <logginginfo>
                     <description />
                     <scene />
                     <shottake />
                     <lognote />
                     <good />
                     <originalvideofilename />
                     <originalaudiofilename />
                  </logginginfo>
                  <colorinfo>
                     <lut />
                     <lut1 />
                     <asc_sop />
                     <asc_sat />
                     <lut2 />
                  </colorinfo>
                  <labels>
                     <label2>Iris</label2>
                  </labels>
               </clipitem>
               <clipitem id="clipitem-680" premiereChannelType="stereo">
                  <masterclipid>masterclip-250</masterclipid>
                  <name>mymovie.mov</name>
                  <enabled>TRUE</enabled>
                  <duration>3502</duration>
                  <rate>
                     <timebase>24</timebase>
                     <ntsc>TRUE</ntsc>
                  </rate>
                  <start>2692</start>
                  <end>2819</end>
                  <in>2677</in>
                  <out>2804</out>
                  <pproTicksIn>28361701368000</pproTicksIn>
                  <pproTicksOut>29707213536000</pproTicksOut>
                  <file id="file-243" />
                  <sourcetrack>
                     <mediatype>audio</mediatype>
                     <trackindex>2</trackindex>
                  </sourcetrack>
                  <link>
                     <linkclipref>clipitem-486</linkclipref>
                     <mediatype>video</mediatype>
                     <trackindex>1</trackindex>
                     <clipindex>30</clipindex>
                  </link>
                  <link>
                     <linkclipref>clipitem-647</linkclipref>
                     <mediatype>audio</mediatype>
                     <trackindex>1</trackindex>
                     <clipindex>29</clipindex>
                     <groupindex>1</groupindex>
                  </link>
                  <link>
                     <linkclipref>clipitem-680</linkclipref>
                     <mediatype>audio</mediatype>
                     <trackindex>2</trackindex>
                     <clipindex>29</clipindex>
                     <groupindex>1</groupindex>
                  </link>
                  <logginginfo>
                     <description />
                     <scene />
                     <shottake />
                     <lognote />
                     <good />
                     <originalvideofilename />
                     <originalaudiofilename />
                  </logginginfo>
                  <colorinfo>
                     <lut />
                     <lut1 />
                     <asc_sop />
                     <asc_sat />
                     <lut2 />
                  </colorinfo>
                  <labels>
                     <label2>Iris</label2>
                  </labels>
               </clipitem>
               <clipitem id="clipitem-681" premiereChannelType="stereo">
                  <masterclipid>masterclip-250</masterclipid>
                  <name>mymovie.mov</name>
                  <enabled>TRUE</enabled>
                  <duration>3502</duration>
                  <rate>
                     <timebase>24</timebase>
                     <ntsc>TRUE</ntsc>
                  </rate>
                  <start>2819</start>
                  <end>2938</end>
                  <in>2804</in>
                  <out>2923</out>
                  <pproTicksIn>29707213536000</pproTicksIn>
                  <pproTicksOut>30967969032000</pproTicksOut>
                  <file id="file-243" />
                  <sourcetrack>
                     <mediatype>audio</mediatype>
                     <trackindex>2</trackindex>
                  </sourcetrack>
                  <link>
                     <linkclipref>clipitem-487</linkclipref>
                     <mediatype>video</mediatype>
                     <trackindex>1</trackindex>
                     <clipindex>31</clipindex>
                  </link>
                  <link>
                     <linkclipref>clipitem-648</linkclipref>
                     <mediatype>audio</mediatype>
                     <trackindex>1</trackindex>
                     <clipindex>30</clipindex>
                     <groupindex>1</groupindex>
                  </link>
                  <link>
                     <linkclipref>clipitem-681</linkclipref>
                     <mediatype>audio</mediatype>
                     <trackindex>2</trackindex>
                     <clipindex>30</clipindex>
                     <groupindex>1</groupindex>
                  </link>
                  <logginginfo>
                     <description />
                     <scene />
                     <shottake />
                     <lognote />
                     <good />
                     <originalvideofilename />
                     <originalaudiofilename />
                  </logginginfo>
                  <colorinfo>
                     <lut />
                     <lut1 />
                     <asc_sop />
                     <asc_sat />
                     <lut2 />
                  </colorinfo>
                  <labels>
                     <label2>Iris</label2>
                  </labels>
               </clipitem>
               <clipitem id="clipitem-682" premiereChannelType="stereo">
                  <masterclipid>masterclip-250</masterclipid>
                  <name>mymovie.mov</name>
                  <enabled>TRUE</enabled>
                  <duration>3502</duration>
                  <rate>
                     <timebase>24</timebase>
                     <ntsc>TRUE</ntsc>
                  </rate>
                  <start>2938</start>
                  <end>3058</end>
                  <in>2923</in>
                  <out>3043</out>
                  <pproTicksIn>30967969032000</pproTicksIn>
                  <pproTicksOut>32239319112000</pproTicksOut>
                  <file id="file-243" />
                  <sourcetrack>
                     <mediatype>audio</mediatype>
                     <trackindex>2</trackindex>
                  </sourcetrack>
                  <link>
                     <linkclipref>clipitem-488</linkclipref>
                     <mediatype>video</mediatype>
                     <trackindex>1</trackindex>
                     <clipindex>32</clipindex>
                  </link>
                  <link>
                     <linkclipref>clipitem-649</linkclipref>
                     <mediatype>audio</mediatype>
                     <trackindex>1</trackindex>
                     <clipindex>31</clipindex>
                     <groupindex>1</groupindex>
                  </link>
                  <link>
                     <linkclipref>clipitem-682</linkclipref>
                     <mediatype>audio</mediatype>
                     <trackindex>2</trackindex>
                     <clipindex>31</clipindex>
                     <groupindex>1</groupindex>
                  </link>
                  <logginginfo>
                     <description />
                     <scene />
                     <shottake />
                     <lognote />
                     <good />
                     <originalvideofilename />
                     <originalaudiofilename />
                  </logginginfo>
                  <colorinfo>
                     <lut />
                     <lut1 />
                     <asc_sop />
                     <asc_sat />
                     <lut2 />
                  </colorinfo>
                  <labels>
                     <label2>Iris</label2>
                  </labels>
               </clipitem>
               <clipitem id="clipitem-683" premiereChannelType="stereo">
                  <masterclipid>masterclip-250</masterclipid>
                  <name>mymovie.mov</name>
                  <enabled>TRUE</enabled>
                  <duration>3502</duration>
                  <rate>
                     <timebase>24</timebase>
                     <ntsc>TRUE</ntsc>
                  </rate>
                  <start>3058</start>
                  <end>3307</end>
                  <in>3043</in>
                  <out>3292</out>
                  <pproTicksIn>32239319112000</pproTicksIn>
                  <pproTicksOut>34877370528000</pproTicksOut>
                  <file id="file-243" />
                  <sourcetrack>
                     <mediatype>audio</mediatype>
                     <trackindex>2</trackindex>
                  </sourcetrack>
                  <link>
                     <linkclipref>clipitem-489</linkclipref>
                     <mediatype>video</mediatype>
                     <trackindex>1</trackindex>
                     <clipindex>33</clipindex>
                  </link>
                  <link>
                     <linkclipref>clipitem-650</linkclipref>
                     <mediatype>audio</mediatype>
                     <trackindex>1</trackindex>
                     <clipindex>32</clipindex>
                     <groupindex>1</groupindex>
                  </link>
                  <link>
                     <linkclipref>clipitem-683</linkclipref>
                     <mediatype>audio</mediatype>
                     <trackindex>2</trackindex>
                     <clipindex>32</clipindex>
                     <groupindex>1</groupindex>
                  </link>
                  <logginginfo>
                     <description />
                     <scene />
                     <shottake />
                     <lognote />
                     <good />
                     <originalvideofilename />
                     <originalaudiofilename />
                  </logginginfo>
                  <colorinfo>
                     <lut />
                     <lut1 />
                     <asc_sop />
                     <asc_sat />
                     <lut2 />
                  </colorinfo>
                  <labels>
                     <label2>Iris</label2>
                  </labels>
               </clipitem>
               <clipitem id="clipitem-684" premiereChannelType="stereo">
                  <masterclipid>masterclip-250</masterclipid>
                  <name>mymovie.mov</name>
                  <enabled>TRUE</enabled>
                  <duration>3502</duration>
                  <rate>
                     <timebase>24</timebase>
                     <ntsc>TRUE</ntsc>
                  </rate>
                  <start>3307</start>
                  <end>3517</end>
                  <in>3292</in>
                  <out>3502</out>
                  <pproTicksIn>34877370528000</pproTicksIn>
                  <pproTicksOut>37102233168000</pproTicksOut>
                  <file id="file-243" />
                  <sourcetrack>
                     <mediatype>audio</mediatype>
                     <trackindex>2</trackindex>
                  </sourcetrack>
                  <link>
                     <linkclipref>clipitem-490</linkclipref>
                     <mediatype>video</mediatype>
                     <trackindex>1</trackindex>
                     <clipindex>34</clipindex>
                  </link>
                  <link>
                     <linkclipref>clipitem-651</linkclipref>
                     <mediatype>audio</mediatype>
                     <trackindex>1</trackindex>
                     <clipindex>33</clipindex>
                     <groupindex>1</groupindex>
                  </link>
                  <link>
                     <linkclipref>clipitem-684</linkclipref>
                     <mediatype>audio</mediatype>
                     <trackindex>2</trackindex>
                     <clipindex>33</clipindex>
                     <groupindex>1</groupindex>
                  </link>
                  <logginginfo>
                     <description />
                     <scene />
                     <shottake />
                     <lognote />
                     <good />
                     <originalvideofilename />
                     <originalaudiofilename />
                  </logginginfo>
                  <colorinfo>
                     <lut />
                     <lut1 />
                     <asc_sop />
                     <asc_sat />
                     <lut2 />
                  </colorinfo>
                  <labels>
                     <label2>Iris</label2>
                  </labels>
               </clipitem>
               <enabled>TRUE</enabled>
               <locked>FALSE</locked>
               <outputchannelindex>2</outputchannelindex>
            </track>
            <track TL.SQTrackAudioKeyframeStyle="0" TL.SQTrackShy="0" TL.SQTrackExpandedHeight="25" TL.SQTrackExpanded="0" MZ.TrackTargeted="0" PannerCurrentValue="0.5" PannerIsInverted="true" PannerStartKeyframe="-91445760000000000,0.5,0,0,0,0,0,0" PannerName="Balance" currentExplodedTrackIndex="0" totalExplodedTrackCount="2" premiereTrackType="Stereo">
               <enabled>TRUE</enabled>
               <locked>FALSE</locked>
               <outputchannelindex>1</outputchannelindex>
            </track>
            <track TL.SQTrackAudioKeyframeStyle="0" TL.SQTrackShy="0" TL.SQTrackExpandedHeight="25" TL.SQTrackExpanded="0" MZ.TrackTargeted="0" PannerCurrentValue="0.5" PannerIsInverted="true" PannerStartKeyframe="-91445760000000000,0.5,0,0,0,0,0,0" PannerName="Balance" currentExplodedTrackIndex="1" totalExplodedTrackCount="2" premiereTrackType="Stereo">
               <enabled>TRUE</enabled>
               <locked>FALSE</locked>
               <outputchannelindex>2</outputchannelindex>
            </track>
            <track TL.SQTrackAudioKeyframeStyle="0" TL.SQTrackShy="0" TL.SQTrackExpandedHeight="25" TL.SQTrackExpanded="0" MZ.TrackTargeted="0" PannerCurrentValue="0.5" PannerIsInverted="true" PannerStartKeyframe="-91445760000000000,0.5,0,0,0,0,0,0" PannerName="Balance" currentExplodedTrackIndex="0" totalExplodedTrackCount="2" premiereTrackType="Stereo">
               <enabled>TRUE</enabled>
               <locked>FALSE</locked>
               <outputchannelindex>1</outputchannelindex>
            </track>
            <track TL.SQTrackAudioKeyframeStyle="0" TL.SQTrackShy="0" TL.SQTrackExpandedHeight="25" TL.SQTrackExpanded="0" MZ.TrackTargeted="0" PannerCurrentValue="0.5" PannerIsInverted="true" PannerStartKeyframe="-91445760000000000,0.5,0,0,0,0,0,0" PannerName="Balance" currentExplodedTrackIndex="1" totalExplodedTrackCount="2" premiereTrackType="Stereo">
               <enabled>TRUE</enabled>
               <locked>FALSE</locked>
               <outputchannelindex>2</outputchannelindex>
            </track>
            <track TL.SQTrackAudioKeyframeStyle="0" TL.SQTrackShy="0" TL.SQTrackExpandedHeight="25" TL.SQTrackExpanded="0" MZ.TrackTargeted="0" PannerCurrentValue="0.5" PannerIsInverted="true" PannerStartKeyframe="-91445760000000000,0.5,0,0,0,0,0,0" PannerName="Balance" currentExplodedTrackIndex="0" totalExplodedTrackCount="2" premiereTrackType="Stereo">
               <enabled>TRUE</enabled>
               <locked>FALSE</locked>
               <outputchannelindex>1</outputchannelindex>
            </track>
            <track TL.SQTrackAudioKeyframeStyle="0" TL.SQTrackShy="0" TL.SQTrackExpandedHeight="25" TL.SQTrackExpanded="0" MZ.TrackTargeted="0" PannerCurrentValue="0.5" PannerIsInverted="true" PannerStartKeyframe="-91445760000000000,0.5,0,0,0,0,0,0" PannerName="Balance" currentExplodedTrackIndex="1" totalExplodedTrackCount="2" premiereTrackType="Stereo">
               <enabled>TRUE</enabled>
               <locked>FALSE</locked>
               <outputchannelindex>2</outputchannelindex>
            </track>
         </audio>
      </media>
      <timecode>
         <rate>
            <timebase>24</timebase>
            <ntsc>TRUE</ntsc>
         </rate>
         <string>00:00:00:00</string>
         <frame>0</frame>
         <displayformat>NDF</displayformat>
      </timecode>
      <labels>
         <label2>Lavender</label2>
      </labels>
      <logginginfo>
         <description />
         <scene />
         <shottake />
         <lognote />
         <good />
         <originalvideofilename />
         <originalaudiofilename />
      </logginginfo>
   </sequence>
</xmeml>
