<?xml version="1.0" encoding="UTF-8"?>
<!DOCTYPE xmeml>
<xmeml version="4">
    <project>
        <name>fcp_example</name>
        <children>
            <sequence id="sequence-3" TL.SQAudioVisibleBase="0"
                      TL.SQVideoVisibleBase="0" TL.SQVisibleBaseTime="0"
                      TL.SQAVDividerPosition="0.5" TL.SQHideShyTracks="0"
                      TL.SQHeaderWidth="184"
                      Monitor.ProgramZoomOut="5385139200000"
                      Monitor.ProgramZoomIn="0"
                      TL.SQTimePerPixel="0.018591038103365168"
                      MZ.EditLine="956793600000"
                      MZ.Sequence.PreviewFrameSizeHeight="720"
                      MZ.Sequence.PreviewFrameSizeWidth="1280"
                      MZ.Sequence.AudioTimeDisplayFormat="200"
                      MZ.Sequence.PreviewRenderingClassID="1297106761"
                      MZ.Sequence.PreviewRenderingPresetCodec="1297107278"
                      MZ.Sequence.PreviewRenderingPresetPath="EncoderPresets\SequencePreview\9678af98-a7b7-4bdb-b477-7ac9c8df4a4e\I-Frame Only MPEG.epr"
                      MZ.Sequence.PreviewUseMaxRenderQuality="false"
                      MZ.Sequence.PreviewUseMaxBitDepth="false"
                      MZ.Sequence.EditingModeGUID="9678af98-a7b7-4bdb-b477-7ac9c8df4a4e"
                      MZ.Sequence.VideoTimeDisplayFormat="104"
                      MZ.WorkOutPoint="5385139200000" MZ.WorkInPoint="0"
                      explodedTracks="true">
                <uuid>5ea30a6b-552f-4722-be92-6dfdb66c97e6</uuid>
                <duration>636</duration>
                <rate>
                    <timebase>30</timebase>
                    <ntsc>FALSE</ntsc>
                </rate>
                <name>sc01_sh010_layerA</name>
                <media>
                    <video>
                        <format>
                            <samplecharacteristics>
                                <rate>
                                    <timebase>30</timebase>
                                    <ntsc>FALSE</ntsc>
                                </rate>
                                <codec>
                                    <name>Apple ProRes 422</name>
                                    <appspecificdata>
                                        <appname>Final Cut Pro</appname>
                                        <appmanufacturer>Apple Inc.
                                        </appmanufacturer>
                                        <appversion>7.0</appversion>
                                        <data>
                                            <qtcodec>
                                                <codecname>Apple ProRes 422
                                                </codecname>
                                                <codectypename>Apple ProRes
                                                    422
                                                </codectypename>
                                                <codectypecode>apcn
                                                </codectypecode>
                                                <codecvendorcode>appl
                                                </codecvendorcode>
                                                <spatialquality>1024
                                                </spatialquality>
                                                <temporalquality>0
                                                </temporalquality>
                                                <keyframerate>0</keyframerate>
                                                <datarate>0</datarate>
                                            </qtcodec>
                                        </data>
                                    </appspecificdata>
                                </codec>
                                <width>1280</width>
                                <height>720</height>
                                <anamorphic>FALSE</anamorphic>
                                <pixelaspectratio>square</pixelaspectratio>
                                <fielddominance>none</fielddominance>
                                <colordepth>24</colordepth>
                            </samplecharacteristics>
                        </format>
                        <track TL.SQTrackShy="0" TL.SQTrackExpandedHeight="25"
                               TL.SQTrackExpanded="0" MZ.TrackTargeted="1">
                            <clipitem id="clipitem-51" frameBlend="FALSE">
                                <masterclipid>masterclip-11</masterclipid>
                                <name>sc01_sh010_anim.mov</name>
                                <enabled>TRUE</enabled>
                                <duration>100</duration>
                                <rate>
                                    <timebase>30</timebase>
                                    <ntsc>FALSE</ntsc>
                                </rate>
                                <start>536</start>
                                <end>636</end>
                                <in>0</in>
                                <out>100</out>
                                <pproTicksIn>0</pproTicksIn>
                                <pproTicksOut>846720000000</pproTicksOut>
                                <alphatype>none</alphatype>
                                <pixelaspectratio>square</pixelaspectratio>
                                <anamorphic>FALSE</anamorphic>
                                <file id="file-11">
                                    <name>sc01_sh010_anim.mov</name>
                                    <pathurl>
                                        file://localhost/D%3a/media/sc01_sh010_anim.mov
                                    </pathurl>
                                    <rate>
                                        <timebase>30</timebase>
                                        <ntsc>FALSE</ntsc>
                                    </rate>
                                    <duration>100</duration>
                                    <timecode>
                                        <rate>
                                            <timebase>30</timebase>
                                            <ntsc>FALSE</ntsc>
                                        </rate>
                                        <string>00:00:00:00</string>
                                        <frame>0</frame>
                                        <displayformat>NDF</displayformat>
                                        <reel>
                                            <name></name>
                                        </reel>
                                    </timecode>
                                    <media>
                                        <video>
                                            <samplecharacteristics>
                                                <rate>
                                                    <timebase>30</timebase>
                                                    <ntsc>FALSE</ntsc>
                                                </rate>
                                                <width>1280</width>
                                                <height>720</height>
                                                <anamorphic>FALSE</anamorphic>
                                                <pixelaspectratio>square
                                                </pixelaspectratio>
                                                <fielddominance>none
                                                </fielddominance>
                                            </samplecharacteristics>
                                        </video>
                                        <audio>
                                            <samplecharacteristics>
                                                <depth>16</depth>
                                                <samplerate>48000</samplerate>
                                            </samplecharacteristics>
                                            <channelcount>2</channelcount>
                                        </audio>
                                    </media>
                                </file>
                                <link>
                                    <linkclipref>clipitem-51</linkclipref>
                                    <mediatype>video</mediatype>
                                    <trackindex>1</trackindex>
                                    <clipindex>1</clipindex>
                                </link>
                                <link>
                                    <linkclipref>clipitem-56</linkclipref>
                                    <mediatype>audio</mediatype>
                                    <trackindex>1</trackindex>
                                    <clipindex>2</clipindex>
                                    <groupindex>1</groupindex>
                                </link>
                                <link>
                                    <linkclipref>clipitem-58</linkclipref>
                                    <mediatype>audio</mediatype>
                                    <trackindex>2</trackindex>
                                    <clipindex>2</clipindex>
                                    <groupindex>1</groupindex>
                                </link>
                                <logginginfo>
                                    <description></description>
                                    <scene></scene>
                                    <shottake></shottake>
                                    <lognote></lognote>
                                </logginginfo>
                                <labels>
                                    <label2>Iris</label2>
                                </labels>
                            </clipitem>
                            <enabled>TRUE</enabled>
                            <locked>FALSE</locked>
                        </track>
                        <track TL.SQTrackShy="0" TL.SQTrackExpandedHeight="25"
                               TL.SQTrackExpanded="0" MZ.TrackTargeted="0">
                            <clipitem id="clipitem-52" frameBlend="FALSE">
                                <masterclipid>masterclip-11</masterclipid>
                                <name>sc01_sh010_anim.mov</name>
                                <enabled>TRUE</enabled>
                                <duration>100</duration>
                                <rate>
                                    <timebase>30</timebase>
                                    <ntsc>FALSE</ntsc>
                                </rate>
                                <start>13</start>
                                <end>113</end>
                                <in>0</in>
                                <out>100</out>
                                <pproTicksIn>0</pproTicksIn>
                                <pproTicksOut>846720000000</pproTicksOut>
                                <alphatype>none</alphatype>
                                <file id="file-11"/>
                                <link>
                                    <linkclipref>clipitem-52</linkclipref>
                                    <mediatype>video</mediatype>
                                    <trackindex>2</trackindex>
                                    <clipindex>1</clipindex>
                                </link>
                                <link>
                                    <linkclipref>clipitem-55</linkclipref>
                                    <mediatype>audio</mediatype>
                                    <trackindex>1</trackindex>
                                    <clipindex>1</clipindex>
                                    <groupindex>1</groupindex>
                                </link>
                                <link>
                                    <linkclipref>clipitem-57</linkclipref>
                                    <mediatype>audio</mediatype>
                                    <trackindex>2</trackindex>
                                    <clipindex>1</clipindex>
                                    <groupindex>1</groupindex>
                                </link>
                                <logginginfo>
                                    <description></description>
                                    <scene></scene>
                                    <shottake></shottake>
                                    <lognote></lognote>
                                </logginginfo>
                                <labels>
                                    <label2>Iris</label2>
                                </labels>
                            </clipitem>
                            <clipitem id="clipitem-53" frameBlend="FALSE">
                                <masterclipid>masterclip-12</masterclipid>
                                <name>sc01_sh020_anim.mov</name>
                                <enabled>TRUE</enabled>
                                <duration>175</duration>
                                <rate>
                                    <timebase>30</timebase>
                                    <ntsc>FALSE</ntsc>
                                </rate>
                                <start>165</start>
                                <end>322</end>
                                <in>0</in>
                                <out>157</out>
                                <pproTicksIn>0</pproTicksIn>
                                <pproTicksOut>1329350400000</pproTicksOut>
                                <alphatype>none</alphatype>
                                <pixelaspectratio>square</pixelaspectratio>
                                <anamorphic>FALSE</anamorphic>
                                <file id="file-12">
                                    <name>sc01_sh020_anim.mov</name>
                                    <pathurl>
                                        file://localhost/D%3a/media/sc01_sh020_anim.mov
                                    </pathurl>
                                    <rate>
                                        <timebase>30</timebase>
                                        <ntsc>FALSE</ntsc>
                                    </rate>
                                    <duration>175</duration>
                                    <timecode>
                                        <rate>
                                            <timebase>30</timebase>
                                            <ntsc>FALSE</ntsc>
                                        </rate>
                                        <string>00:00:00:00</string>
                                        <frame>0</frame>
                                        <displayformat>NDF</displayformat>
                                        <reel>
                                            <name></name>
                                        </reel>
                                    </timecode>
                                    <media>
                                        <video>
                                            <samplecharacteristics>
                                                <rate>
                                                    <timebase>30</timebase>
                                                    <ntsc>FALSE</ntsc>
                                                </rate>
                                                <width>1280</width>
                                                <height>720</height>
                                                <anamorphic>FALSE</anamorphic>
                                                <pixelaspectratio>square
                                                </pixelaspectratio>
                                                <fielddominance>none
                                                </fielddominance>
                                            </samplecharacteristics>
                                        </video>
                                        <audio>
                                            <samplecharacteristics>
                                                <depth>16</depth>
                                                <samplerate>48000</samplerate>
                                            </samplecharacteristics>
                                            <channelcount>2</channelcount>
                                        </audio>
                                    </media>
                                </file>
                                <logginginfo>
                                    <description></description>
                                    <scene></scene>
                                    <shottake></shottake>
                                    <lognote></lognote>
                                </logginginfo>
                                <labels>
                                    <label2>Iris</label2>
                                </labels>
                            </clipitem>
                            <clipitem id="clipitem-54" frameBlend="FALSE">
                                <masterclipid>masterclip-13</masterclipid>
                                <name>sc01_sh030_anim.mov</name>
                                <enabled>TRUE</enabled>
                                <duration>400</duration>
                                <rate>
                                    <timebase>30</timebase>
                                    <ntsc>FALSE</ntsc>
                                </rate>
                                <start>322</start>
                                <end>-1</end>
                                <in>0</in>
                                <out>233</out>
                                <pproTicksIn>0</pproTicksIn>
                                <pproTicksOut>1972857600000</pproTicksOut>
                                <alphatype>none</alphatype>
                                <pixelaspectratio>square</pixelaspectratio>
                                <anamorphic>FALSE</anamorphic>
                                <file id="file-13">
                                    <name>sc01_sh030_anim.mov</name>
                                    <pathurl>
                                        file://localhost/D%3a/media/sc01_sh030_anim.mov
                                    </pathurl>
                                    <rate>
                                        <timebase>30</timebase>
                                        <ntsc>FALSE</ntsc>
                                    </rate>
                                    <duration>400</duration>
                                    <timecode>
                                        <rate>
                                            <timebase>30</timebase>
                                            <ntsc>FALSE</ntsc>
                                        </rate>
                                        <string>00:00:00:00</string>
                                        <frame>0</frame>
                                        <displayformat>NDF</displayformat>
                                        <reel>
                                            <name></name>
                                        </reel>
                                    </timecode>
                                    <media>
                                        <video>
                                            <samplecharacteristics>
                                                <rate>
                                                    <timebase>30</timebase>
                                                    <ntsc>FALSE</ntsc>
                                                </rate>
                                                <width>1280</width>
                                                <height>720</height>
                                                <anamorphic>FALSE</anamorphic>
                                                <pixelaspectratio>square
                                                </pixelaspectratio>
                                                <fielddominance>none
                                                </fielddominance>
                                            </samplecharacteristics>
                                        </video>
                                        <audio>
                                            <samplecharacteristics>
                                                <depth>16</depth>
                                                <samplerate>48000</samplerate>
                                            </samplecharacteristics>
                                            <channelcount>2</channelcount>
                                        </audio>
                                    </media>
                                </file>
                                <logginginfo>
                                    <description></description>
                                    <scene></scene>
                                    <shottake></shottake>
                                    <lognote></lognote>
                                </logginginfo>
                                <labels>
                                    <label2>Iris</label2>
                                </labels>
                            </clipitem>
                            <transitionitem>
                                <start>536</start>
                                <end>555</end>
                                <alignment>end-black</alignment>
                                <cutPointTicks>160876800000</cutPointTicks>
                                <rate>
                                    <timebase>30</timebase>
                                    <ntsc>FALSE</ntsc>
                                </rate>
                                <effect>
                                    <name>Cross Dissolve</name>
                                    <effectid>Cross Dissolve</effectid>
                                    <effectcategory>Dissolve</effectcategory>
                                    <effecttype>transition</effecttype>
                                    <mediatype>video</mediatype>
                                    <wipecode>0</wipecode>
                                    <wipeaccuracy>100</wipeaccuracy>
                                    <startratio>0</startratio>
                                    <endratio>1</endratio>
                                    <reverse>FALSE</reverse>
                                </effect>
                            </transitionitem>
                            <enabled>TRUE</enabled>
                            <locked>FALSE</locked>
                        </track>
                        <track TL.SQTrackShy="0" TL.SQTrackExpandedHeight="25"
                               TL.SQTrackExpanded="0" MZ.TrackTargeted="0">
                            <enabled>TRUE</enabled>
                            <locked>FALSE</locked>
                        </track>
                    </video>
                    <audio>
                        <numOutputChannels>2</numOutputChannels>
                        <format>
                            <samplecharacteristics>
                                <depth>16</depth>
                                <samplerate>48000</samplerate>
                            </samplecharacteristics>
                        </format>
                        <outputs>
                            <group>
                                <index>1</index>
                                <numchannels>1</numchannels>
                                <downmix>0</downmix>
                                <channel>
                                    <index>1</index>
                                </channel>
                            </group>
                            <group>
                                <index>2</index>
                                <numchannels>1</numchannels>
                                <downmix>0</downmix>
                                <channel>
                                    <index>2</index>
                                </channel>
                            </group>
                        </outputs>
                        <track TL.SQTrackAudioKeyframeStyle="0"
                               TL.SQTrackShy="0" TL.SQTrackExpandedHeight="25"
                               TL.SQTrackExpanded="0" MZ.TrackTargeted="1"
                               PannerCurrentValue="0.5" PannerIsInverted="true"
                               PannerStartKeyframe="-91445760000000000,0.5,0,0,0,0,0,0"
                               PannerName="Balance"
                               currentExplodedTrackIndex="0"
                               totalExplodedTrackCount="2"
                               premiereTrackType="Stereo">
                            <clipitem id="clipitem-55" frameBlend="FALSE"
                                      premiereChannelType="stereo">
                                <masterclipid>masterclip-11</masterclipid>
                                <name>sc01_sh010_anim.mov</name>
                                <enabled>TRUE</enabled>
                                <duration>100</duration>
                                <rate>
                                    <timebase>30</timebase>
                                    <ntsc>FALSE</ntsc>
                                </rate>
                                <start>13</start>
                                <end>113</end>
                                <in>0</in>
                                <out>100</out>
                                <pproTicksIn>0</pproTicksIn>
                                <pproTicksOut>846720000000</pproTicksOut>
                                <file id="file-11"/>
                                <sourcetrack>
                                    <mediatype>audio</mediatype>
                                    <trackindex>1</trackindex>
                                </sourcetrack>
                                <link>
                                    <linkclipref>clipitem-52</linkclipref>
                                    <mediatype>video</mediatype>
                                    <trackindex>2</trackindex>
                                    <clipindex>1</clipindex>
                                </link>
                                <link>
                                    <linkclipref>clipitem-55</linkclipref>
                                    <mediatype>audio</mediatype>
                                    <trackindex>1</trackindex>
                                    <clipindex>1</clipindex>
                                    <groupindex>1</groupindex>
                                </link>
                                <link>
                                    <linkclipref>clipitem-57</linkclipref>
                                    <mediatype>audio</mediatype>
                                    <trackindex>2</trackindex>
                                    <clipindex>1</clipindex>
                                    <groupindex>1</groupindex>
                                </link>
                                <logginginfo>
                                    <description></description>
                                    <scene></scene>
                                    <shottake></shottake>
                                    <lognote></lognote>
                                </logginginfo>
                                <labels>
                                    <label2>Iris</label2>
                                </labels>
                            </clipitem>
                            <clipitem id="clipitem-56" frameBlend="FALSE"
                                      premiereChannelType="stereo">
                                <masterclipid>masterclip-11</masterclipid>
                                <name>sc01_sh010_anim.mov</name>
                                <enabled>TRUE</enabled>
                                <duration>100</duration>
                                <rate>
                                    <timebase>30</timebase>
                                    <ntsc>FALSE</ntsc>
                                </rate>
                                <start>536</start>
                                <end>636</end>
                                <in>0</in>
                                <out>100</out>
                                <pproTicksIn>0</pproTicksIn>
                                <pproTicksOut>846720000000</pproTicksOut>
                                <file id="file-11"/>
                                <sourcetrack>
                                    <mediatype>audio</mediatype>
                                    <trackindex>1</trackindex>
                                </sourcetrack>
                                <link>
                                    <linkclipref>clipitem-51</linkclipref>
                                    <mediatype>video</mediatype>
                                    <trackindex>1</trackindex>
                                    <clipindex>1</clipindex>
                                </link>
                                <link>
                                    <linkclipref>clipitem-56</linkclipref>
                                    <mediatype>audio</mediatype>
                                    <trackindex>1</trackindex>
                                    <clipindex>2</clipindex>
                                    <groupindex>1</groupindex>
                                </link>
                                <link>
                                    <linkclipref>clipitem-58</linkclipref>
                                    <mediatype>audio</mediatype>
                                    <trackindex>2</trackindex>
                                    <clipindex>2</clipindex>
                                    <groupindex>1</groupindex>
                                </link>
                                <logginginfo>
                                    <description></description>
                                    <scene></scene>
                                    <shottake></shottake>
                                    <lognote></lognote>
                                </logginginfo>
                                <labels>
                                    <label2>Iris</label2>
                                </labels>
                            </clipitem>
                            <enabled>TRUE</enabled>
                            <locked>FALSE</locked>
                            <outputchannelindex>1</outputchannelindex>
                        </track>
                        <track TL.SQTrackAudioKeyframeStyle="0"
                               TL.SQTrackShy="0" TL.SQTrackExpandedHeight="25"
                               TL.SQTrackExpanded="0" MZ.TrackTargeted="1"
                               PannerCurrentValue="0.5" PannerIsInverted="true"
                               PannerStartKeyframe="-91445760000000000,0.5,0,0,0,0,0,0"
                               PannerName="Balance"
                               currentExplodedTrackIndex="1"
                               totalExplodedTrackCount="2"
                               premiereTrackType="Stereo">
                            <clipitem id="clipitem-57" frameBlend="FALSE"
                                      premiereChannelType="stereo">
                                <masterclipid>masterclip-11</masterclipid>
                                <name>sc01_sh010_anim.mov</name>
                                <enabled>TRUE</enabled>
                                <duration>100</duration>
                                <rate>
                                    <timebase>30</timebase>
                                    <ntsc>FALSE</ntsc>
                                </rate>
                                <start>13</start>
                                <end>113</end>
                                <in>0</in>
                                <out>100</out>
                                <pproTicksIn>0</pproTicksIn>
                                <pproTicksOut>846720000000</pproTicksOut>
                                <file id="file-11"/>
                                <sourcetrack>
                                    <mediatype>audio</mediatype>
                                    <trackindex>2</trackindex>
                                </sourcetrack>
                                <link>
                                    <linkclipref>clipitem-52</linkclipref>
                                    <mediatype>video</mediatype>
                                    <trackindex>2</trackindex>
                                    <clipindex>1</clipindex>
                                </link>
                                <link>
                                    <linkclipref>clipitem-55</linkclipref>
                                    <mediatype>audio</mediatype>
                                    <trackindex>1</trackindex>
                                    <clipindex>1</clipindex>
                                    <groupindex>1</groupindex>
                                </link>
                                <link>
                                    <linkclipref>clipitem-57</linkclipref>
                                    <mediatype>audio</mediatype>
                                    <trackindex>2</trackindex>
                                    <clipindex>1</clipindex>
                                    <groupindex>1</groupindex>
                                </link>
                                <logginginfo>
                                    <description></description>
                                    <scene></scene>
                                    <shottake></shottake>
                                    <lognote></lognote>
                                </logginginfo>
                                <labels>
                                    <label2>Iris</label2>
                                </labels>
                            </clipitem>
                            <clipitem id="clipitem-58" frameBlend="FALSE"
                                      premiereChannelType="stereo">
                                <masterclipid>masterclip-11</masterclipid>
                                <name>sc01_sh010_anim.mov</name>
                                <enabled>TRUE</enabled>
                                <duration>100</duration>
                                <rate>
                                    <timebase>30</timebase>
                                    <ntsc>FALSE</ntsc>
                                </rate>
                                <start>536</start>
                                <end>636</end>
                                <in>0</in>
                                <out>100</out>
                                <pproTicksIn>0</pproTicksIn>
                                <pproTicksOut>846720000000</pproTicksOut>
                                <file id="file-11"/>
                                <sourcetrack>
                                    <mediatype>audio</mediatype>
                                    <trackindex>2</trackindex>
                                </sourcetrack>
                                <link>
                                    <linkclipref>clipitem-51</linkclipref>
                                    <mediatype>video</mediatype>
                                    <trackindex>1</trackindex>
                                    <clipindex>1</clipindex>
                                </link>
                                <link>
                                    <linkclipref>clipitem-56</linkclipref>
                                    <mediatype>audio</mediatype>
                                    <trackindex>1</trackindex>
                                    <clipindex>2</clipindex>
                                    <groupindex>1</groupindex>
                                </link>
                                <link>
                                    <linkclipref>clipitem-58</linkclipref>
                                    <mediatype>audio</mediatype>
                                    <trackindex>2</trackindex>
                                    <clipindex>2</clipindex>
                                    <groupindex>1</groupindex>
                                </link>
                                <logginginfo>
                                    <description></description>
                                    <scene></scene>
                                    <shottake></shottake>
                                    <lognote></lognote>
                                </logginginfo>
                                <labels>
                                    <label2>Iris</label2>
                                </labels>
                            </clipitem>
                            <enabled>TRUE</enabled>
                            <locked>FALSE</locked>
                            <outputchannelindex>2</outputchannelindex>
                        </track>
                        <track TL.SQTrackAudioKeyframeStyle="0"
                               TL.SQTrackShy="0" TL.SQTrackExpandedHeight="25"
                               TL.SQTrackExpanded="0" MZ.TrackTargeted="1"
                               PannerCurrentValue="0.5" PannerIsInverted="true"
                               PannerStartKeyframe="-91445760000000000,0.5,0,0,0,0,0,0"
                               PannerName="Balance"
                               currentExplodedTrackIndex="0"
                               totalExplodedTrackCount="2"
                               premiereTrackType="Stereo">
                            <clipitem id="clipitem-59" frameBlend="FALSE"
                                      premiereChannelType="stereo">
                                <masterclipid>masterclip-14</masterclipid>
                                <name>sc01_placeholder.wav</name>
                                <enabled>TRUE</enabled>
                                <duration>170</duration>
                                <rate>
                                    <timebase>30</timebase>
                                    <ntsc>FALSE</ntsc>
                                </rate>
                                <start>335</start>
                                <end>505</end>
                                <in>0</in>
                                <out>170</out>
                                <pproTicksIn>0</pproTicksIn>
                                <pproTicksOut>1439424000000</pproTicksOut>
                                <file id="file-14">
                                    <name>sc01_placeholder.wav</name>
                                    <pathurl>
                                        file://localhost/D%3a/media/sc01_placeholder.wav
                                    </pathurl>
                                    <rate>
                                        <timebase>30</timebase>
                                        <ntsc>FALSE</ntsc>
                                    </rate>
                                    <duration>170</duration>
                                    <timecode>
                                        <rate>
                                            <timebase>30</timebase>
                                            <ntsc>FALSE</ntsc>
                                        </rate>
                                        <string>00;04;43;15</string>
                                        <frame>8497</frame>
                                        <displayformat>DF</displayformat>
                                        <reel>
                                            <name></name>
                                        </reel>
                                    </timecode>
                                    <media>
                                        <audio>
                                            <samplecharacteristics>
                                                <depth>16</depth>
                                                <samplerate>48000</samplerate>
                                            </samplecharacteristics>
                                            <channelcount>2</channelcount>
                                        </audio>
                                    </media>
                                </file>
                                <sourcetrack>
                                    <mediatype>audio</mediatype>
                                    <trackindex>1</trackindex>
                                </sourcetrack>
                                <link>
                                    <linkclipref>clipitem-59</linkclipref>
                                    <mediatype>audio</mediatype>
                                    <trackindex>3</trackindex>
                                    <clipindex>1</clipindex>
                                    <groupindex>1</groupindex>
                                </link>
                                <link>
                                    <linkclipref>clipitem-60</linkclipref>
                                    <mediatype>audio</mediatype>
                                    <trackindex>4</trackindex>
                                    <clipindex>1</clipindex>
                                    <groupindex>1</groupindex>
                                </link>
                                <logginginfo>
                                    <description></description>
                                    <scene></scene>
                                    <shottake></shottake>
                                    <lognote></lognote>
                                </logginginfo>
                                <labels>
                                    <label2>Caribbean</label2>
                                </labels>
                            </clipitem>
                            <enabled>TRUE</enabled>
                            <locked>FALSE</locked>
                            <outputchannelindex>1</outputchannelindex>
                        </track>
                        <track TL.SQTrackAudioKeyframeStyle="0"
                               TL.SQTrackShy="0" TL.SQTrackExpandedHeight="25"
                               TL.SQTrackExpanded="0" MZ.TrackTargeted="1"
                               PannerCurrentValue="0.5" PannerIsInverted="true"
                               PannerStartKeyframe="-91445760000000000,0.5,0,0,0,0,0,0"
                               PannerName="Balance"
                               currentExplodedTrackIndex="1"
                               totalExplodedTrackCount="2"
                               premiereTrackType="Stereo">
                            <clipitem id="clipitem-60" frameBlend="FALSE"
                                      premiereChannelType="stereo">
                                <masterclipid>masterclip-14</masterclipid>
                                <name>sc01_placeholder.wav</name>
                                <enabled>TRUE</enabled>
                                <duration>170</duration>
                                <rate>
                                    <timebase>30</timebase>
                                    <ntsc>FALSE</ntsc>
                                </rate>
                                <start>335</start>
                                <end>505</end>
                                <in>0</in>
                                <out>170</out>
                                <pproTicksIn>0</pproTicksIn>
                                <pproTicksOut>1439424000000</pproTicksOut>
                                <file id="file-14"/>
                                <sourcetrack>
                                    <mediatype>audio</mediatype>
                                    <trackindex>2</trackindex>
                                </sourcetrack>
                                <link>
                                    <linkclipref>clipitem-59</linkclipref>
                                    <mediatype>audio</mediatype>
                                    <trackindex>3</trackindex>
                                    <clipindex>1</clipindex>
                                    <groupindex>1</groupindex>
                                </link>
                                <link>
                                    <linkclipref>clipitem-60</linkclipref>
                                    <mediatype>audio</mediatype>
                                    <trackindex>4</trackindex>
                                    <clipindex>1</clipindex>
                                    <groupindex>1</groupindex>
                                </link>
                                <logginginfo>
                                    <description></description>
                                    <scene></scene>
                                    <shottake></shottake>
                                    <lognote></lognote>
                                </logginginfo>
                                <labels>
                                    <label2>Caribbean</label2>
                                </labels>
                            </clipitem>
                            <enabled>TRUE</enabled>
                            <locked>FALSE</locked>
                            <outputchannelindex>2</outputchannelindex>
                        </track>
                        <track TL.SQTrackAudioKeyframeStyle="0"
                               TL.SQTrackShy="0" TL.SQTrackExpandedHeight="25"
                               TL.SQTrackExpanded="0" MZ.TrackTargeted="1"
                               PannerCurrentValue="0.5" PannerIsInverted="true"
                               PannerStartKeyframe="-91445760000000000,0.5,0,0,0,0,0,0"
                               PannerName="Balance"
                               currentExplodedTrackIndex="0"
                               totalExplodedTrackCount="2"
                               premiereTrackType="Stereo">
                            <clipitem id="clipitem-61" frameBlend="FALSE"
                                      premiereChannelType="stereo">
                                <masterclipid>masterclip-15</masterclipid>
                                <name>track_08.wav</name>
                                <enabled>TRUE</enabled>
                                <duration>198</duration>
                                <rate>
                                    <timebase>30</timebase>
                                    <ntsc>FALSE</ntsc>
                                </rate>
                                <start>153</start>
                                <end>351</end>
                                <in>0</in>
                                <out>198</out>
                                <pproTicksIn>0</pproTicksIn>
                                <pproTicksOut>1676505600000</pproTicksOut>
                                <file id="file-15">
                                    <name>track_08.wav</name>
                                    <pathurl>
                                        file://localhost/D%3a/media/track_08.wav
                                    </pathurl>
                                    <rate>
                                        <timebase>30</timebase>
                                        <ntsc>FALSE</ntsc>
                                    </rate>
                                    <duration>198</duration>
                                    <timecode>
                                        <rate>
                                            <timebase>30</timebase>
                                            <ntsc>FALSE</ntsc>
                                        </rate>
                                        <string>00;03;50;02</string>
                                        <frame>6896</frame>
                                        <displayformat>DF</displayformat>
                                        <reel>
                                            <name></name>
                                        </reel>
                                    </timecode>
                                    <media>
                                        <audio>
                                            <samplecharacteristics>
                                                <depth>16</depth>
                                                <samplerate>48000</samplerate>
                                            </samplecharacteristics>
                                            <channelcount>2</channelcount>
                                        </audio>
                                    </media>
                                </file>
                                <sourcetrack>
                                    <mediatype>audio</mediatype>
                                    <trackindex>1</trackindex>
                                </sourcetrack>
                                <link>
                                    <linkclipref>clipitem-61</linkclipref>
                                    <mediatype>audio</mediatype>
                                    <trackindex>5</trackindex>
                                    <clipindex>1</clipindex>
                                    <groupindex>1</groupindex>
                                </link>
                                <link>
                                    <linkclipref>clipitem-62</linkclipref>
                                    <mediatype>audio</mediatype>
                                    <trackindex>6</trackindex>
                                    <clipindex>1</clipindex>
                                    <groupindex>1</groupindex>
                                </link>
                                <logginginfo>
                                    <description></description>
                                    <scene></scene>
                                    <shottake></shottake>
                                    <lognote></lognote>
                                </logginginfo>
                                <labels>
                                    <label2>Caribbean</label2>
                                </labels>
                            </clipitem>
                            <enabled>TRUE</enabled>
                            <locked>FALSE</locked>
                            <outputchannelindex>1</outputchannelindex>
                        </track>
                        <track TL.SQTrackAudioKeyframeStyle="0"
                               TL.SQTrackShy="0" TL.SQTrackExpandedHeight="25"
                               TL.SQTrackExpanded="0" MZ.TrackTargeted="1"
                               PannerCurrentValue="0.5" PannerIsInverted="true"
                               PannerStartKeyframe="-91445760000000000,0.5,0,0,0,0,0,0"
                               PannerName="Balance"
                               currentExplodedTrackIndex="1"
                               totalExplodedTrackCount="2"
                               premiereTrackType="Stereo">
                            <clipitem id="clipitem-62" frameBlend="FALSE"
                                      premiereChannelType="stereo">
                                <masterclipid>masterclip-15</masterclipid>
                                <name>track_08.wav</name>
                                <enabled>TRUE</enabled>
                                <duration>198</duration>
                                <rate>
                                    <timebase>30</timebase>
                                    <ntsc>FALSE</ntsc>
                                </rate>
                                <start>153</start>
                                <end>351</end>
                                <in>0</in>
                                <out>198</out>
                                <pproTicksIn>0</pproTicksIn>
                                <pproTicksOut>1676505600000</pproTicksOut>
                                <file id="file-15"/>
                                <sourcetrack>
                                    <mediatype>audio</mediatype>
                                    <trackindex>2</trackindex>
                                </sourcetrack>
                                <link>
                                    <linkclipref>clipitem-61</linkclipref>
                                    <mediatype>audio</mediatype>
                                    <trackindex>5</trackindex>
                                    <clipindex>1</clipindex>
                                    <groupindex>1</groupindex>
                                </link>
                                <link>
                                    <linkclipref>clipitem-62</linkclipref>
                                    <mediatype>audio</mediatype>
                                    <trackindex>6</trackindex>
                                    <clipindex>1</clipindex>
                                    <groupindex>1</groupindex>
                                </link>
                                <logginginfo>
                                    <description></description>
                                    <scene></scene>
                                    <shottake></shottake>
                                    <lognote></lognote>
                                </logginginfo>
                                <labels>
                                    <label2>Caribbean</label2>
                                </labels>
                            </clipitem>
                            <enabled>TRUE</enabled>
                            <locked>FALSE</locked>
                            <outputchannelindex>2</outputchannelindex>
                        </track>
                    </audio>
                </media>
                <timecode>
                    <rate>
                        <timebase>30</timebase>
                        <ntsc>FALSE</ntsc>
                    </rate>
                    <string>00:00:00:00</string>
                    <frame>0</frame>
                    <displayformat>NDF</displayformat>
                </timecode>
                <marker>
                    <comment>so, this happened</comment>
                    <name>My MArker 1</name>
                    <in>113</in>
                    <out>-1</out>
                </marker>
                <marker>
                    <comment>fsfsfs</comment>
                    <name>dsf</name>
                    <in>492</in>
                    <out>-1</out>
                </marker>
                <marker>
                    <comment></comment>
                    <name></name>
                    <in>298</in>
                    <out>-1</out>
                </marker>
                <labels>
                    <label2>Forest</label2>
                </labels>
            </sequence>
            <clip id="masterclip-11" explodedTracks="true" frameBlend="FALSE">
                <uuid>83ca2e0e-9388-41b5-a8a6-7442cf258d8f</uuid>
                <masterclipid>masterclip-11</masterclipid>
                <ismasterclip>TRUE</ismasterclip>
                <duration>100</duration>
                <rate>
                    <timebase>30</timebase>
                    <ntsc>FALSE</ntsc>
                </rate>
                <name>sc01_sh010_anim.mov</name>
                <media>
                    <video>
                        <track>
                            <clipitem id="clipitem-63" frameBlend="FALSE">
                                <masterclipid>masterclip-11</masterclipid>
                                <name>sc01_sh010_anim.mov</name>
                                <rate>
                                    <timebase>30</timebase>
                                    <ntsc>FALSE</ntsc>
                                </rate>
                                <alphatype>none</alphatype>
                                <file id="file-11"/>
                                <link>
                                    <linkclipref>clipitem-63</linkclipref>
                                    <mediatype>video</mediatype>
                                    <trackindex>1</trackindex>
                                    <clipindex>1</clipindex>
                                </link>
                                <link>
                                    <linkclipref>clipitem-64</linkclipref>
                                    <mediatype>audio</mediatype>
                                    <trackindex>1</trackindex>
                                    <clipindex>1</clipindex>
                                    <groupindex>1</groupindex>
                                </link>
                                <link>
                                    <linkclipref>clipitem-65</linkclipref>
                                    <mediatype>audio</mediatype>
                                    <trackindex>2</trackindex>
                                    <clipindex>1</clipindex>
                                    <groupindex>1</groupindex>
                                </link>
                            </clipitem>
                        </track>
                    </video>
                    <audio>
                        <track>
                            <clipitem id="clipitem-64" frameBlend="FALSE">
                                <masterclipid>masterclip-11</masterclipid>
                                <name>sc01_sh010_anim.mov</name>
                                <rate>
                                    <timebase>30</timebase>
                                    <ntsc>FALSE</ntsc>
                                </rate>
                                <file id="file-11"/>
                                <sourcetrack>
                                    <mediatype>audio</mediatype>
                                    <trackindex>1</trackindex>
                                </sourcetrack>
                                <link>
                                    <linkclipref>clipitem-63</linkclipref>
                                    <mediatype>video</mediatype>
                                    <trackindex>1</trackindex>
                                    <clipindex>1</clipindex>
                                </link>
                                <link>
                                    <linkclipref>clipitem-64</linkclipref>
                                    <mediatype>audio</mediatype>
                                    <trackindex>1</trackindex>
                                    <clipindex>1</clipindex>
                                    <groupindex>1</groupindex>
                                </link>
                                <link>
                                    <linkclipref>clipitem-65</linkclipref>
                                    <mediatype>audio</mediatype>
                                    <trackindex>2</trackindex>
                                    <clipindex>1</clipindex>
                                    <groupindex>1</groupindex>
                                </link>
                            </clipitem>
                        </track>
                        <track>
                            <clipitem id="clipitem-65" frameBlend="FALSE">
                                <masterclipid>masterclip-11</masterclipid>
                                <name>sc01_sh010_anim.mov</name>
                                <rate>
                                    <timebase>30</timebase>
                                    <ntsc>FALSE</ntsc>
                                </rate>
                                <file id="file-11"/>
                                <sourcetrack>
                                    <mediatype>audio</mediatype>
                                    <trackindex>2</trackindex>
                                </sourcetrack>
                                <link>
                                    <linkclipref>clipitem-63</linkclipref>
                                    <mediatype>video</mediatype>
                                    <trackindex>1</trackindex>
                                    <clipindex>1</clipindex>
                                </link>
                                <link>
                                    <linkclipref>clipitem-64</linkclipref>
                                    <mediatype>audio</mediatype>
                                    <trackindex>1</trackindex>
                                    <clipindex>1</clipindex>
                                    <groupindex>1</groupindex>
                                </link>
                                <link>
                                    <linkclipref>clipitem-65</linkclipref>
                                    <mediatype>audio</mediatype>
                                    <trackindex>2</trackindex>
                                    <clipindex>1</clipindex>
                                    <groupindex>1</groupindex>
                                </link>
                            </clipitem>
                        </track>
                    </audio>
                </media>
                <logginginfo>
                    <description></description>
                    <scene></scene>
                    <shottake></shottake>
                    <lognote></lognote>
                </logginginfo>
                <labels>
                    <label2>Iris</label2>
                </labels>
            </clip>
            <clip id="masterclip-12" explodedTracks="true" frameBlend="FALSE">
                <uuid>23131a65-8077-4ecc-976e-a8fa95c8938f</uuid>
                <masterclipid>masterclip-12</masterclipid>
                <ismasterclip>TRUE</ismasterclip>
                <duration>175</duration>
                <rate>
                    <timebase>30</timebase>
                    <ntsc>FALSE</ntsc>
                </rate>
                <name>sc01_sh020_anim.mov</name>
                <media>
                    <video>
                        <track>
                            <clipitem id="clipitem-66" frameBlend="FALSE">
                                <masterclipid>masterclip-12</masterclipid>
                                <name>sc01_sh020_anim.mov</name>
                                <rate>
                                    <timebase>30</timebase>
                                    <ntsc>FALSE</ntsc>
                                </rate>
                                <alphatype>none</alphatype>
                                <file id="file-12"/>
                                <link>
                                    <linkclipref>clipitem-66</linkclipref>
                                    <mediatype>video</mediatype>
                                    <trackindex>1</trackindex>
                                    <clipindex>1</clipindex>
                                </link>
                                <link>
                                    <linkclipref>clipitem-67</linkclipref>
                                    <mediatype>audio</mediatype>
                                    <trackindex>1</trackindex>
                                    <clipindex>1</clipindex>
                                    <groupindex>1</groupindex>
                                </link>
                                <link>
                                    <linkclipref>clipitem-68</linkclipref>
                                    <mediatype>audio</mediatype>
                                    <trackindex>2</trackindex>
                                    <clipindex>1</clipindex>
                                    <groupindex>1</groupindex>
                                </link>
                            </clipitem>
                        </track>
                    </video>
                    <audio>
                        <track>
                            <clipitem id="clipitem-67" frameBlend="FALSE">
                                <masterclipid>masterclip-12</masterclipid>
                                <name>sc01_sh020_anim.mov</name>
                                <rate>
                                    <timebase>30</timebase>
                                    <ntsc>FALSE</ntsc>
                                </rate>
                                <file id="file-12"/>
                                <sourcetrack>
                                    <mediatype>audio</mediatype>
                                    <trackindex>1</trackindex>
                                </sourcetrack>
                                <link>
                                    <linkclipref>clipitem-66</linkclipref>
                                    <mediatype>video</mediatype>
                                    <trackindex>1</trackindex>
                                    <clipindex>1</clipindex>
                                </link>
                                <link>
                                    <linkclipref>clipitem-67</linkclipref>
                                    <mediatype>audio</mediatype>
                                    <trackindex>1</trackindex>
                                    <clipindex>1</clipindex>
                                    <groupindex>1</groupindex>
                                </link>
                                <link>
                                    <linkclipref>clipitem-68</linkclipref>
                                    <mediatype>audio</mediatype>
                                    <trackindex>2</trackindex>
                                    <clipindex>1</clipindex>
                                    <groupindex>1</groupindex>
                                </link>
                            </clipitem>
                        </track>
                        <track>
                            <clipitem id="clipitem-68" frameBlend="FALSE">
                                <masterclipid>masterclip-12</masterclipid>
                                <name>sc01_sh020_anim.mov</name>
                                <rate>
                                    <timebase>30</timebase>
                                    <ntsc>FALSE</ntsc>
                                </rate>
                                <file id="file-12"/>
                                <sourcetrack>
                                    <mediatype>audio</mediatype>
                                    <trackindex>2</trackindex>
                                </sourcetrack>
                                <link>
                                    <linkclipref>clipitem-66</linkclipref>
                                    <mediatype>video</mediatype>
                                    <trackindex>1</trackindex>
                                    <clipindex>1</clipindex>
                                </link>
                                <link>
                                    <linkclipref>clipitem-67</linkclipref>
                                    <mediatype>audio</mediatype>
                                    <trackindex>1</trackindex>
                                    <clipindex>1</clipindex>
                                    <groupindex>1</groupindex>
                                </link>
                                <link>
                                    <linkclipref>clipitem-68</linkclipref>
                                    <mediatype>audio</mediatype>
                                    <trackindex>2</trackindex>
                                    <clipindex>1</clipindex>
                                    <groupindex>1</groupindex>
                                </link>
                            </clipitem>
                        </track>
                    </audio>
                </media>
                <logginginfo>
                    <description></description>
                    <scene></scene>
                    <shottake></shottake>
                    <lognote></lognote>
                </logginginfo>
                <labels>
                    <label2>Iris</label2>
                </labels>
            </clip>
            <clip id="masterclip-13" explodedTracks="true" frameBlend="FALSE">
                <uuid>620ed91d-93cb-47aa-b0db-ce7c55029934</uuid>
                <masterclipid>masterclip-13</masterclipid>
                <ismasterclip>TRUE</ismasterclip>
                <duration>400</duration>
                <rate>
                    <timebase>30</timebase>
                    <ntsc>FALSE</ntsc>
                </rate>
                <name>sc01_sh030_anim.mov</name>
                <media>
                    <video>
                        <track>
                            <clipitem id="clipitem-69" frameBlend="FALSE">
                                <masterclipid>masterclip-13</masterclipid>
                                <name>sc01_sh030_anim.mov</name>
                                <rate>
                                    <timebase>30</timebase>
                                    <ntsc>FALSE</ntsc>
                                </rate>
                                <alphatype>none</alphatype>
                                <file id="file-13"/>
                                <link>
                                    <linkclipref>clipitem-69</linkclipref>
                                    <mediatype>video</mediatype>
                                    <trackindex>1</trackindex>
                                    <clipindex>1</clipindex>
                                </link>
                                <link>
                                    <linkclipref>clipitem-70</linkclipref>
                                    <mediatype>audio</mediatype>
                                    <trackindex>1</trackindex>
                                    <clipindex>1</clipindex>
                                    <groupindex>1</groupindex>
                                </link>
                                <link>
                                    <linkclipref>clipitem-71</linkclipref>
                                    <mediatype>audio</mediatype>
                                    <trackindex>2</trackindex>
                                    <clipindex>1</clipindex>
                                    <groupindex>1</groupindex>
                                </link>
                            </clipitem>
                        </track>
                    </video>
                    <audio>
                        <track>
                            <clipitem id="clipitem-70" frameBlend="FALSE">
                                <masterclipid>masterclip-13</masterclipid>
                                <name>sc01_sh030_anim.mov</name>
                                <rate>
                                    <timebase>30</timebase>
                                    <ntsc>FALSE</ntsc>
                                </rate>
                                <file id="file-13"/>
                                <sourcetrack>
                                    <mediatype>audio</mediatype>
                                    <trackindex>1</trackindex>
                                </sourcetrack>
                                <link>
                                    <linkclipref>clipitem-69</linkclipref>
                                    <mediatype>video</mediatype>
                                    <trackindex>1</trackindex>
                                    <clipindex>1</clipindex>
                                </link>
                                <link>
                                    <linkclipref>clipitem-70</linkclipref>
                                    <mediatype>audio</mediatype>
                                    <trackindex>1</trackindex>
                                    <clipindex>1</clipindex>
                                    <groupindex>1</groupindex>
                                </link>
                                <link>
                                    <linkclipref>clipitem-71</linkclipref>
                                    <mediatype>audio</mediatype>
                                    <trackindex>2</trackindex>
                                    <clipindex>1</clipindex>
                                    <groupindex>1</groupindex>
                                </link>
                            </clipitem>
                        </track>
                        <track>
                            <clipitem id="clipitem-71" frameBlend="FALSE">
                                <masterclipid>masterclip-13</masterclipid>
                                <name>sc01_sh030_anim.mov</name>
                                <rate>
                                    <timebase>30</timebase>
                                    <ntsc>FALSE</ntsc>
                                </rate>
                                <file id="file-13"/>
                                <sourcetrack>
                                    <mediatype>audio</mediatype>
                                    <trackindex>2</trackindex>
                                </sourcetrack>
                                <link>
                                    <linkclipref>clipitem-69</linkclipref>
                                    <mediatype>video</mediatype>
                                    <trackindex>1</trackindex>
                                    <clipindex>1</clipindex>
                                </link>
                                <link>
                                    <linkclipref>clipitem-70</linkclipref>
                                    <mediatype>audio</mediatype>
                                    <trackindex>1</trackindex>
                                    <clipindex>1</clipindex>
                                    <groupindex>1</groupindex>
                                </link>
                                <link>
                                    <linkclipref>clipitem-71</linkclipref>
                                    <mediatype>audio</mediatype>
                                    <trackindex>2</trackindex>
                                    <clipindex>1</clipindex>
                                    <groupindex>1</groupindex>
                                </link>
                            </clipitem>
                        </track>
                    </audio>
                </media>
                <logginginfo>
                    <description></description>
                    <scene></scene>
                    <shottake></shottake>
                    <lognote></lognote>
                </logginginfo>
                <labels>
                    <label2>Iris</label2>
                </labels>
            </clip>
            <clip id="masterclip-15" explodedTracks="true" frameBlend="FALSE">
                <uuid>70ee4c96-feae-42f9-b706-5aece857eb97</uuid>
                <masterclipid>masterclip-15</masterclipid>
                <ismasterclip>TRUE</ismasterclip>
                <duration>198</duration>
                <rate>
                    <timebase>30</timebase>
                    <ntsc>FALSE</ntsc>
                </rate>
                <name>track_08.wav</name>
                <media>
                    <audio>
                        <track>
                            <clipitem id="clipitem-72" frameBlend="FALSE">
                                <masterclipid>masterclip-15</masterclipid>
                                <name>track_08.wav</name>
                                <rate>
                                    <timebase>30</timebase>
                                    <ntsc>FALSE</ntsc>
                                </rate>
                                <file id="file-15"/>
                                <sourcetrack>
                                    <mediatype>audio</mediatype>
                                    <trackindex>1</trackindex>
                                </sourcetrack>
                                <link>
                                    <linkclipref>clipitem-72</linkclipref>
                                    <mediatype>audio</mediatype>
                                    <trackindex>1</trackindex>
                                    <clipindex>1</clipindex>
                                    <groupindex>1</groupindex>
                                </link>
                                <link>
                                    <linkclipref>clipitem-73</linkclipref>
                                    <mediatype>audio</mediatype>
                                    <trackindex>2</trackindex>
                                    <clipindex>1</clipindex>
                                    <groupindex>1</groupindex>
                                </link>
                            </clipitem>
                        </track>
                        <track>
                            <clipitem id="clipitem-73" frameBlend="FALSE">
                                <masterclipid>masterclip-15</masterclipid>
                                <name>track_08.wav</name>
                                <rate>
                                    <timebase>30</timebase>
                                    <ntsc>FALSE</ntsc>
                                </rate>
                                <file id="file-15"/>
                                <sourcetrack>
                                    <mediatype>audio</mediatype>
                                    <trackindex>2</trackindex>
                                </sourcetrack>
                                <link>
                                    <linkclipref>clipitem-72</linkclipref>
                                    <mediatype>audio</mediatype>
                                    <trackindex>1</trackindex>
                                    <clipindex>1</clipindex>
                                    <groupindex>1</groupindex>
                                </link>
                                <link>
                                    <linkclipref>clipitem-73</linkclipref>
                                    <mediatype>audio</mediatype>
                                    <trackindex>2</trackindex>
                                    <clipindex>1</clipindex>
                                    <groupindex>1</groupindex>
                                </link>
                            </clipitem>
                        </track>
                    </audio>
                </media>
                <logginginfo>
                    <description></description>
                    <scene></scene>
                    <shottake></shottake>
                    <lognote></lognote>
                </logginginfo>
                <labels>
                    <label2>Caribbean</label2>
                </labels>
            </clip>
            <clip id="masterclip-14" explodedTracks="true" frameBlend="FALSE">
                <uuid>ed8ef411-879b-40c0-91b6-706292e745ee</uuid>
                <masterclipid>masterclip-14</masterclipid>
                <ismasterclip>TRUE</ismasterclip>
                <duration>170</duration>
                <rate>
                    <timebase>30</timebase>
                    <ntsc>FALSE</ntsc>
                </rate>
                <name>sc01_placeholder.wav</name>
                <media>
                    <audio>
                        <track>
                            <clipitem id="clipitem-74" frameBlend="FALSE">
                                <masterclipid>masterclip-14</masterclipid>
                                <name>sc01_placeholder.wav</name>
                                <rate>
                                    <timebase>30</timebase>
                                    <ntsc>FALSE</ntsc>
                                </rate>
                                <file id="file-14"/>
                                <sourcetrack>
                                    <mediatype>audio</mediatype>
                                    <trackindex>1</trackindex>
                                </sourcetrack>
                                <link>
                                    <linkclipref>clipitem-74</linkclipref>
                                    <mediatype>audio</mediatype>
                                    <trackindex>1</trackindex>
                                    <clipindex>1</clipindex>
                                    <groupindex>1</groupindex>
                                </link>
                                <link>
                                    <linkclipref>clipitem-75</linkclipref>
                                    <mediatype>audio</mediatype>
                                    <trackindex>2</trackindex>
                                    <clipindex>1</clipindex>
                                    <groupindex>1</groupindex>
                                </link>
                            </clipitem>
                        </track>
                        <track>
                            <clipitem id="clipitem-75" frameBlend="FALSE">
                                <masterclipid>masterclip-14</masterclipid>
                                <name>sc01_placeholder.wav</name>
                                <rate>
                                    <timebase>30</timebase>
                                    <ntsc>FALSE</ntsc>
                                </rate>
                                <file id="file-14"/>
                                <sourcetrack>
                                    <mediatype>audio</mediatype>
                                    <trackindex>2</trackindex>
                                </sourcetrack>
                                <link>
                                    <linkclipref>clipitem-74</linkclipref>
                                    <mediatype>audio</mediatype>
                                    <trackindex>1</trackindex>
                                    <clipindex>1</clipindex>
                                    <groupindex>1</groupindex>
                                </link>
                                <link>
                                    <linkclipref>clipitem-75</linkclipref>
                                    <mediatype>audio</mediatype>
                                    <trackindex>2</trackindex>
                                    <clipindex>1</clipindex>
                                    <groupindex>1</groupindex>
                                </link>
                            </clipitem>
                        </track>
                    </audio>
                </media>
                <logginginfo>
                    <description></description>
                    <scene></scene>
                    <shottake></shottake>
                    <lognote></lognote>
                </logginginfo>
                <labels>
                    <label2>Caribbean</label2>
                </labels>
            </clip>
        </children>
    </project>
</xmeml>
