TITLE:   Speed_Effects_Test_2018.02.13
000001  Z677_4C. V     C        01:00:01:21 01:00:07:03 01:00:00:00 01:00:05:06 
* FROM CLIP NAME:  Z677_4C (ANIM10)
000002  Z677_5.P V     C        01:00:05:05 01:00:06:03 01:00:05:06 01:00:06:04 
* FROM CLIP NAME:  Z677_5 (PHASE129)
000003  Z677_6.P V     C        01:00:05:19 01:00:14:07 01:00:06:04 01:00:14:16 
* FROM CLIP NAME:  Z677_6 (PHASE154)
000004  Z677_5B. V     C        01:00:14:15 01:00:16:14 01:00:14:16 01:00:16:15 
* FROM CLIP NAME:  Z677_5B (PHASE131)
000005  Z677_10C V     C        01:00:16:14 01:00:19:06 01:00:16:15 01:00:19:07 
* FROM CLIP NAME:  Z677_10C (PHASE142)
000006  Z677_11C V     C        01:00:18:03 01:00:19:02 01:00:19:07 01:00:20:06 
* FROM CLIP NAME:  Z677_11C (PHASE139)
000007  Z677_12. V     C        01:00:19:22 01:00:20:09 01:00:20:06 01:00:20:17 
* FROM CLIP NAME:  Z677_12 (PHASE128)
000008  Z677_13. V     C        01:00:04:05 01:00:04:22 01:00:20:17 01:00:21:10 
* FROM CLIP NAME:  Z677_13 (PHASE146)
000009  Z677_13A V     C        01:00:04:20 01:00:07:19 01:00:21:10 01:00:24:09 
* FROM CLIP NAME:  Z677_13A (PHASE168)
000010  Z677_15. V     C        01:00:04:23 01:00:10:16 01:00:24:09 01:00:30:02 
* FROM CLIP NAME:  Z677_15 (ANIM29)
000011  Z677_18E V     C        01:00:02:20 01:00:10:12 01:00:30:02 01:00:37:18 
* FROM CLIP NAME:  Z677_18E (PHASE148)
000012  Z677_20A V     C        01:00:04:09 01:00:10:19 01:00:37:18 01:00:44:04 
* FROM CLIP NAME:  Z677_20A (ANIM23)
000013  Z677_21A V     C        01:00:11:08 01:00:13:05 01:00:44:04 01:00:46:01 
* FROM CLIP NAME:  Z677_21A (ANIM17)
000014  Z677_20E V     C        01:00:12:15 01:00:18:02 01:00:46:01 01:00:51:12 
* FROM CLIP NAME:  Z677_20E (ANIM22)
000015  Z677_23. V     C        01:00:17:22 01:00:20:05 01:00:51:12 01:00:53:19 
* FROM CLIP NAME:  Z677_23 (ANIM17)
000016  Z677_20F V     C        01:00:22:05 01:00:24:17 01:00:53:19 01:00:56:07 
* FROM CLIP NAME:  Z677_20F (ANIM14)
000017  Z677_25. V     C        01:00:24:14 01:00:25:08 01:00:56:07 01:00:57:01 
* FROM CLIP NAME:  Z677_25 (ANIM22)
000018  Z677_26A V     C        01:00:24:22 01:00:26:08 01:00:57:01 01:00:58:11 
* FROM CLIP NAME:  Z677_26A (ANIM20)
000019  Z677_28B V     C        01:00:25:10 01:00:27:07 01:00:58:11 01:01:00:08 
* FROM CLIP NAME:  Z677_28B (ANIM19)
000020  Z677_32C V     C        01:00:26:12 01:00:30:19 01:01:00:08 01:01:04:15 
* FROM CLIP NAME:  Z677_32C (ANIM21)
000021  Z678_101 V     C        01:00:04:06 01:00:06:15 01:01:04:15 01:01:07:00 
* FROM CLIP NAME:  Z678_101B (LAY3)
000022  Z678_101 V     C        01:00:08:22 01:00:19:09 01:01:07:00 01:01:17:11 
* FROM CLIP NAME:  Z678_101E (LAY7)
000023  Z678_1D. V     C        01:00:04:02 01:00:06:05 01:01:17:11 01:01:19:14 
* FROM CLIP NAME:  Z678_1D (LAY4)
000024  678_ALL. V     C        01:00:06:08 01:00:08:10 01:01:19:14 01:01:21:16 
* FROM CLIP NAME:  Z678_2A (LAY2)
000025  678_ALL. V     C        01:00:03:18 01:00:07:01 01:01:21:16 01:01:24:23 
* FROM CLIP NAME:  Z678_3B (LAY2)
000026  Z678_2B. V     C        01:00:12:13 01:00:15:15 01:01:24:23 01:01:28:01 
* FROM CLIP NAME:  Z678_2B (LAY7)
000027  Z678_4D. V     C        01:00:16:09 01:00:19:17 01:01:28:01 01:01:31:09 
* FROM CLIP NAME:  Z678_4D (LAY6)
000028  Z678_5.L V     C        01:00:18:07 01:00:21:13 01:01:31:09 01:01:34:15 
* FROM CLIP NAME:  Z678_5 (LAY10)
000029  678_ALL. V     C        01:00:21:22 01:00:23:03 01:01:34:15 01:01:35:20 
* FROM CLIP NAME:  Z678_9 (LAY8)
000030  678_ALL. V     C        01:00:21:10 01:00:22:14 01:01:35:20 01:01:37:00 
* FROM CLIP NAME:  Z678_8 (LAY4)
000031  Z678_5B. V     C        01:00:18:17 01:00:19:18 01:01:37:00 01:01:38:01 
* FROM CLIP NAME:  Z678_5B (LAY1)
000032  678_ALL. V     C        01:00:06:08 01:00:07:11 01:01:38:01 01:01:39:04 
* FROM CLIP NAME:  Z678_11 (LAY4)
000033  Z678_12E V     C        01:00:04:21 01:00:06:21 01:01:39:04 01:01:41:04 
* FROM CLIP NAME:  Z678_12E (LAY1)
000034  Z678_14. V     C        01:00:09:10 01:00:12:04 01:01:41:04 01:01:43:22 
* FROM CLIP NAME:  Z678_14 (LAY8)
000035  Z678_11D V     C        01:00:14:10 01:00:14:23 01:01:43:22 01:01:44:11 
* FROM CLIP NAME:  Z678_11D (LAY5)
000036  Z678_16B V     C        01:00:10:19 01:00:12:08 01:01:44:11 01:01:46:00 
* FROM CLIP NAME:  Z678_16B (LAY4)
000037  Z678_16S V     C        01:00:12:00 01:00:13:09 01:01:46:00 01:01:47:09 
* FROM CLIP NAME:  Z678_16S (LAY2)
000038  Z678_16Q V     C        01:00:12:17 01:00:14:00 01:01:47:09 01:01:48:16 
* FROM CLIP NAME:  Z678_16Q (LAY1)
000039  Z598_101 V     C        01:00:01:04 01:00:03:02 01:01:48:16 01:01:50:14 
* FROM CLIP NAME:  Z598_101K (LAY1)
000040  Z678_18D V     C        01:00:12:19 01:00:15:12 01:01:50:14 01:01:53:07 
* FROM CLIP NAME:  Z678_18D (LAY2)
000041  Z678_16T V     C        01:00:16:06 01:00:18:19 01:01:53:07 01:01:55:20 
* FROM CLIP NAME:  Z678_16T (LAY1)
000042  Z598_101 V     C        01:00:03:16 01:00:10:19 01:01:55:20 01:02:02:23 
* FROM CLIP NAME:  Z598_101J (LAY4)
000043  Z598_102 V     C        01:00:08:17 01:00:11:03 01:02:02:23 01:02:05:09 
* FROM CLIP NAME:  Z598_102H (LAY2)
000044  Z598_102 V     C        01:00:09:20 01:00:10:21 01:02:05:09 01:02:06:10 
* FROM CLIP NAME:  Z598_102J (LAY1)
000045  Z598_102 V     C        01:00:11:14 01:00:25:23 01:02:06:10 01:02:20:19 
* FROM CLIP NAME:  Z598_102M (LAY3)
000046  Z598_105 V     C        01:00:04:05 01:00:06:14 01:02:20:19 01:02:23:04 
* FROM CLIP NAME:  Z598_105B (LAY3)
000047  Z598_107 V     C        01:00:05:02 01:00:15:06 01:02:23:04 01:02:33:08 
* FROM CLIP NAME:  Z598_107 (LAY5)
000048  Z598_108 V     C        01:00:04:21 01:00:09:09 01:02:33:08 01:02:37:20 
* FROM CLIP NAME:  Z598_108B (LAY1)
000049  Z598_109 V     C        01:00:04:20 01:00:09:20 01:02:37:20 01:02:42:20 
* FROM CLIP NAME:  Z598_109A (LAY3)
000050  Z598_111 V     C        01:00:12:19 01:00:16:04 01:02:42:20 01:02:46:05 
* FROM CLIP NAME:  Z598_111B (LAY5)
000051  Z598_114 V     C        01:00:08:21 01:00:13:12 01:02:46:05 01:02:50:20 
* FROM CLIP NAME:  Z598_114J (LAY4)
000052  Z598_COM V     C        01:00:11:16 01:00:13:05 01:02:50:20 01:02:52:09 
* FROM CLIP NAME:  Z598_114G (LAY2)
000053  ANIMTEST V     C        01:00:16:06 01:00:24:12 01:02:52:09 01:03:00:15 
* FROM CLIP NAME:  Z598_ANIMTEST_ZZZ_12 (ANIM9)
000054  Z598_116 V     C        01:00:04:09 01:00:06:04 01:03:00:15 01:03:02:10 
* FROM CLIP NAME:  Z598_116A (LAY5)
000055  Z598_117 V     C        01:00:03:03 01:00:06:02 01:03:02:10 01:03:05:09 
* FROM CLIP NAME:  Z598_117A (LAY1)
000056  Z598_COM V     C        01:00:05:02 01:00:06:03 01:03:05:09 01:03:06:10 
* FROM CLIP NAME:  Z598_118 (LAY7)
000057  Z598_COM V     C        01:00:06:03 01:00:07:02 01:03:06:10 01:03:07:09 
* FROM CLIP NAME:  Z598_119 (LAY6)
000058  Z598_120 V     C        01:00:06:06 01:00:07:15 01:03:07:09 01:03:08:18 
* FROM CLIP NAME:  Z598_120 (LAY9)
000059  Z598_121 V     C        01:00:08:00 01:00:10:06 01:03:08:18 01:03:11:00 
* FROM CLIP NAME:  Z598_121 (LAY9)
000060  Z598_122 V     C        01:00:13:03 01:00:18:18 01:03:11:00 01:03:16:15 
* FROM CLIP NAME:  Z598_122A (LAY6)
000061  Z598_125 V     C        01:00:22:08 01:00:23:17 01:03:16:15 01:03:18:00 
* FROM CLIP NAME:  Z598_125B (LAY3)
000062  Z598_128 V     C        01:00:28:10 01:00:29:20 01:03:18:00 01:03:19:10 
* FROM CLIP NAME:  Z598_128A (LAY4)
000063  Z598_COM V     C        01:00:31:04 01:00:34:04 01:03:19:10 01:03:22:10 
* FROM CLIP NAME:  Z598_129 (LAY8)
000064  Z598_130 V     C        01:00:37:09 01:00:39:05 01:03:22:10 01:03:24:06 
* FROM CLIP NAME:  Z598_130 (LAY10)
000065  Z598_133 V     C        01:00:42:02 01:00:43:08 01:03:24:06 01:03:25:12 
* FROM CLIP NAME:  Z598_133 (LAY8)
000066  Z598_COM V     C        01:00:44:22 01:00:46:01 01:03:25:12 01:03:26:15 
* FROM CLIP NAME:  Z598_134A (LAY1)
000067  Z598_135 V     C        01:00:49:20 01:00:51:05 01:03:26:15 01:03:28:00 
* FROM CLIP NAME:  Z598_135A (LAY4)
000068  Z598_COM V     C        01:00:53:21 01:00:57:10 01:03:28:00 01:03:31:13 
* FROM CLIP NAME:  Z598_140 (LAY5)
000069  Z598_142 V     C        01:00:57:06 01:00:58:17 01:03:31:13 01:03:33:00 
* FROM CLIP NAME:  Z598_142 (LAY8)
000070  Z598_143 V     C        01:01:01:09 01:01:01:22 01:03:33:00 01:03:33:13 
* FROM CLIP NAME:  Z598_143 (LAY6)
000071  Z598_COM V     C        01:01:09:08 01:01:10:08 01:03:33:13 01:03:34:13 
* FROM CLIP NAME:  Z598_147 (LAY6)
000072  Z598_COM V     C        01:01:12:00 01:01:12:11 01:03:34:13 01:03:35:00 
* FROM CLIP NAME:  Z598_148 (LAY7)
000073  Z598_149 V     C        01:01:13:09 01:01:13:18 01:03:35:00 01:03:35:09 
* FROM CLIP NAME:  Z598_149 (LAY8)
000074  Z598_COM V     C        01:01:18:21 01:01:19:22 01:03:35:09 01:03:36:10 
* FROM CLIP NAME:  Z598_151 (LAY6)
000075  Z598_152 V     C        01:01:21:11 01:01:25:02 01:03:36:10 01:03:40:01 
* FROM CLIP NAME:  Z598_152C (LAY4)
000076  Z598_157 V     C        01:01:26:23 01:01:31:19 01:03:40:01 01:03:44:21 
* FROM CLIP NAME:  Z598_157B (LAY2)
000077  Z598_158 V     C        01:01:32:21 01:01:34:00 01:03:44:21 01:03:46:00 
* FROM CLIP NAME:  Z598_158 (LAY6)
000078  Z598_159 V     C        01:01:33:04 01:01:35:11 01:03:46:00 01:03:48:07 
* FROM CLIP NAME:  Z598_159A (LAY1)
000079  Z598_158 V     C        01:01:32:12 01:01:34:00 01:03:48:07 01:03:49:19 
* FROM CLIP NAME:  Z598_158A (LAY1)
000080  Z598_161 V     C        01:01:32:23 01:01:38:07 01:03:49:19 01:03:55:03 
* FROM CLIP NAME:  Z598_161C (LAY4)
000081  Z598_162 V     C        01:01:37:19 01:01:40:14 01:03:55:03 01:03:57:22 
* FROM CLIP NAME:  Z598_162B (LAY3)
000082  Z598_COM V     C        01:00:04:05 01:00:09:07 01:03:57:22 01:04:03:00 
* FROM CLIP NAME:  Z598_163A (LAY4)
000083  Z678_19A V     C        01:00:04:07 01:00:07:18 01:04:03:00 01:04:06:11 
* FROM CLIP NAME:  Z678_19A (LAY14)
000084  Z678_20A V     C        01:00:04:05 01:00:10:10 01:04:06:11 01:04:12:16 
* FROM CLIP NAME:  Z678_20A (LAY11)
000085  Z678_21A V     C        01:00:04:05 01:00:11:08 01:04:12:16 01:04:19:19 
* FROM CLIP NAME:  Z678_21A (LAY13)
000086  Z678_22A V     C        01:00:15:06 01:00:23:22 01:04:19:19 01:04:28:11 
* FROM CLIP NAME:  Z678_22A (LAY11)
000087  Z678_23K V     C        01:00:24:04 01:00:25:17 01:04:28:11 01:04:30:00 
* FROM CLIP NAME:  Z678_23K (LAY4)
000088  Z678_23J V     C        01:00:24:13 01:00:26:03 01:04:30:00 01:04:31:14 
* FROM CLIP NAME:  Z678_23J (LAY4)
000089  Z678_24. V     C        01:00:04:05 01:00:07:09 01:04:31:14 01:04:34:18 
* FROM CLIP NAME:  Z678_24 (LAY7)
000090  Z678_25D V     C        01:00:04:05 01:00:10:02 01:04:34:18 01:04:40:15 
* FROM CLIP NAME:  Z678_25D (LAY2)
000091  Z678_26B V     C        01:00:04:05 01:00:09:03 01:04:40:15 01:04:45:13 
* FROM CLIP NAME:  Z678_26B (LAY5)
000092  Z678_27A V     C        01:00:40:20 01:00:45:10 01:04:45:13 01:04:50:03 
* FROM CLIP NAME:  Z678_27A (LAY4)
000093  Z678_29. V     C        01:00:51:14 01:00:53:18 01:04:50:03 01:04:52:07 
* FROM CLIP NAME:  Z678_29 (LAY5)
000094  Z678_28. V     C        01:00:53:09 01:00:55:21 01:04:52:07 01:04:54:19 
* FROM CLIP NAME:  Z678_28 (LAY10)
000095  678_ALL. V     C        01:00:54:12 01:00:58:11 01:04:54:19 01:04:58:18 
* FROM CLIP NAME:  Z678_27B (LAY2)
000096  Z678_30A V     C        01:00:58:08 01:01:03:20 01:04:58:18 01:05:04:06 
* FROM CLIP NAME:  Z678_30A (LAY5)
000097  Z678_23N V     C        01:00:24:06 01:00:25:18 01:05:04:06 01:05:05:18 
* FROM CLIP NAME:  Z678_23N (LAY1)
000098  Z678_23Q V     C        01:00:24:05 01:00:25:18 01:05:05:18 01:05:07:07 
* FROM CLIP NAME:  Z678_23Q (LAY1)
000099  678_ALL. V     C        01:01:04:23 01:01:06:00 01:05:07:07 01:05:08:08 
* FROM CLIP NAME:  Z678_31 (LAY4)
000100  Z678_34. V     C        01:01:05:19 01:01:08:18 01:05:08:08 01:05:11:07 
* FROM CLIP NAME:  Z678_34 (LAY7)
000101  Z598_165 V     C        01:00:04:05 01:00:08:04 01:05:11:07 01:05:15:06 
* FROM CLIP NAME:  Z598_165A (LAY5)
000102  Z598_COM V     C        01:00:04:05 01:00:11:07 01:05:15:06 01:05:22:08 
* FROM CLIP NAME:  Z598_166 (LAY11)
000103  Z598_168 V     C        01:00:10:10 01:00:11:19 01:05:22:08 01:05:23:17 
* FROM CLIP NAME:  Z598_168A (LAY3)
000104  Z598_COM V     C        01:00:13:03 01:00:14:05 01:05:23:17 01:05:24:19 
* FROM CLIP NAME:  Z598_169A (LAY1)
000105  Z598_170 V     C        01:00:14:07 01:00:16:05 01:05:24:19 01:05:26:17 
* FROM CLIP NAME:  Z598_170 (LAY10)
000106  Z598_171 V     C        01:00:15:02 01:00:17:01 01:05:26:17 01:05:28:16 
* FROM CLIP NAME:  Z598_171 (LAY8)
000107  Z598_COM V     C        01:00:17:11 01:00:18:22 01:05:28:16 01:05:30:03 
* FROM CLIP NAME:  Z598_172 (LAY7)
000108  Z598_COM V     C        01:00:04:05 01:00:05:19 01:05:30:03 01:05:31:17 
* FROM CLIP NAME:  Z598_173 (LAY6)
000109  Z598_174 V     C        01:00:04:23 01:00:09:19 01:05:31:17 01:05:36:13 
* FROM CLIP NAME:  Z598_174B (LAY2)
000110  Z598_COM V     C        01:00:11:10 01:00:13:06 01:05:36:13 01:05:38:09 
* FROM CLIP NAME:  Z598_178 (LAY5)
000111  Z598_179 V     C        01:00:13:06 01:00:20:11 01:05:38:09 01:05:45:14 
* FROM CLIP NAME:  Z598_179C (LAY2)
000112  Z598_182 V     C        01:00:04:05 01:00:09:04 01:05:45:14 01:05:50:13 
* FROM CLIP NAME:  Z598_182 (LAY13)
000113  Z598_COM V     C        01:00:08:22 01:00:10:07 01:05:50:13 01:05:51:22 
* FROM CLIP NAME:  Z598_183M (LAY1)
000114  Z598_182 V     C        01:00:10:20 01:00:11:21 01:05:51:22 01:05:52:23 
* FROM CLIP NAME:  Z598_182B (LAY1)
000115  Z598_183 V     C        01:00:11:01 01:00:11:14 01:05:52:23 01:05:53:12 
* FROM CLIP NAME:  Z598_183P (LAY1)
000116  Z598_COM V     C        01:00:07:00 01:00:08:03 01:05:53:12 01:05:54:15 
* FROM CLIP NAME:  Z598_186 (LAY5)
000117  Z598_183 V     C        01:00:08:09 01:00:11:11 01:05:54:15 01:05:57:17 
* FROM CLIP NAME:  Z598_183N (LAY3)
000118  Z598_188 V     C        01:00:11:15 01:00:12:17 01:05:57:17 01:05:58:19 
* FROM CLIP NAME:  Z598_188A (LAY1)
000119  Z598_189 V     C        01:00:18:03 01:00:19:17 01:05:58:19 01:06:00:09 
* FROM CLIP NAME:  Z598_189A (LAY6)
000120  Z598_COM V     C        01:00:19:17 01:00:20:17 01:06:00:09 01:06:01:09 
* FROM CLIP NAME:  Z598_190 (LAY10)
000121  Z598_188 V     C        01:00:12:15 01:00:16:02 01:06:01:09 01:06:04:20 
* FROM CLIP NAME:  Z598_188B (LAY1)
000122  Z598_COM V     C        01:00:23:13 01:00:24:09 01:06:04:20 01:06:05:16 
* FROM CLIP NAME:  Z598_194 (LAY8)
000123  Z598_COM V     C        01:00:16:08 01:00:17:16 01:06:05:16 01:06:07:00 
* FROM CLIP NAME:  Z598_188 (LAY11)
000124  Z598_183 V     C        01:00:16:14 01:00:18:05 01:06:07:00 01:06:08:15 
* FROM CLIP NAME:  Z598_183Q (LAY1)
000125  Z598_196 V     C        01:00:27:01 01:00:28:06 01:06:08:15 01:06:09:20 
* FROM CLIP NAME:  Z598_196A (LAY1)
000126  Z598_183 V     C        01:00:17:21 01:00:19:21 01:06:09:20 01:06:11:20 
* FROM CLIP NAME:  Z598_183S (LAY1)
000127  Z598_198 V     C        01:00:03:17 01:00:06:04 01:06:11:20 01:06:14:07 
* FROM CLIP NAME:  Z598_198B (LAY5)
000128  Z598_201 V     C        01:00:07:06 01:00:09:20 01:06:14:07 01:06:16:21 
* FROM CLIP NAME:  Z598_201 (LAY10)
000129  Z598_202 V     C        01:00:10:09 01:00:13:22 01:06:16:21 01:06:20:10 
* FROM CLIP NAME:  Z598_202 (LAY18)
000130  Z598_203 V     C        01:00:13:10 01:00:16:00 01:06:20:10 01:06:23:00 
* FROM CLIP NAME:  Z598_203B (LAY6)
000131  Z598_COM V     C        01:00:05:09 01:00:07:13 01:06:23:00 01:06:25:04 
* FROM CLIP NAME:  Z598_204 (LAY12)
000132  Z598_205 V     C        01:00:06:17 01:00:12:14 01:06:25:04 01:06:31:01 
* FROM CLIP NAME:  Z598_205 (LAY10)
000133  Z598_212 V     C        01:00:04:05 01:00:06:06 01:06:31:01 01:06:33:02 
* FROM CLIP NAME:  Z598_212C (LAY1)
000134  Z598_COM V     C        01:00:04:07 01:00:06:08 01:06:33:02 01:06:35:03 
* FROM CLIP NAME:  Z598_209 (LAY3)
000135  Z598_212 V     C        01:00:08:13 01:00:09:19 01:06:35:03 01:06:36:09 
* FROM CLIP NAME:  Z598_212A (LAY8)
000136  Z598_COM V     C        01:00:09:21 01:00:11:05 01:06:36:09 01:06:37:17 
* FROM CLIP NAME:  Z598_211 (LAY6)
000137  Z598_212 V     C        01:00:10:09 01:00:13:10 01:06:37:17 01:06:40:18 
* FROM CLIP NAME:  Z598_212B (LAY6)
000138  Z598_216 V     C        01:00:12:12 01:00:16:08 01:06:40:18 01:06:44:14 
* FROM CLIP NAME:  Z598_216B (LAY1)
000139  Z682_1B. V     C        01:00:04:09 01:00:10:15 01:06:44:14 01:06:50:20 
* FROM CLIP NAME:  Z682_1B (LAY3)
000140  Z682_2C. V     C        01:00:04:05 01:00:05:17 01:06:50:20 01:06:52:08 
* FROM CLIP NAME:  Z682_2C (LAY1)
000141  Z682_3A. V     C        01:00:04:05 01:00:05:13 01:06:52:08 01:06:53:16 
* FROM CLIP NAME:  Z682_3A (LAY1)
000142  Z682_4.L V     C        01:00:04:05 01:00:06:01 01:06:53:16 01:06:55:12 
* FROM CLIP NAME:  Z682_4 (LAY5)
000143  Z682_6.L V     C        01:00:04:09 01:00:06:17 01:06:55:12 01:06:57:20 
* FROM CLIP NAME:  Z682_6 (LAY4)
000144  Z682_7A. V     C        01:00:04:15 01:00:07:01 01:06:57:20 01:07:00:06 
* FROM CLIP NAME:  Z682_7A (LAY3)
000145  Z682_8.L V     C        01:00:04:05 01:00:06:08 01:07:00:06 01:07:02:09 
* FROM CLIP NAME:  Z682_8 (LAY3)
000146  Z682_9.L V     C        01:00:04:02 01:00:07:06 01:07:02:09 01:07:05:13 
* FROM CLIP NAME:  Z682_9 (LAY5)
000147  Z682_10C V     C        01:00:07:09 01:00:09:15 01:07:05:13 01:07:07:19 
* FROM CLIP NAME:  Z682_10C (LAY3)
000148  Z682_11B V     C        01:00:09:19 01:00:12:07 01:07:07:19 01:07:10:07 
* FROM CLIP NAME:  Z682_11B (LAY3)
000149  Z682_13. V     C        01:00:04:05 01:00:08:21 01:07:10:07 01:07:14:23 
* FROM CLIP NAME:  Z682_13 (LAY6)
000150  Z682_52A V     C        01:00:04:05 01:00:07:08 01:07:14:23 01:07:18:02 
* FROM CLIP NAME:  Z682_52A (LAY1)
000151  Z682_24E V     C        01:00:04:05 01:00:06:23 01:07:18:02 01:07:20:20 
* FROM CLIP NAME:  Z682_24E (LAY2)
000152  Z682_25E V     C        01:00:05:11 01:00:08:06 01:07:20:20 01:07:23:15 
* FROM CLIP NAME:  Z682_25E (LAY2)
000153  Z682_26E V     C        01:00:06:09 01:00:09:03 01:07:23:15 01:07:26:09 
* FROM CLIP NAME:  Z682_26E (LAY1)
000154  Z682_53. V     C        01:00:04:05 01:00:07:12 01:07:26:09 01:07:29:16 
* FROM CLIP NAME:  Z682_53 (LAY7)
000155  Z682_54B V     C        01:00:06:07 01:00:14:22 01:07:29:16 01:07:38:07 
* FROM CLIP NAME:  Z682_54B (LAY4)
000156  Z682_55A V     C        01:00:04:05 01:00:06:12 01:07:38:07 01:07:40:14 
* FROM CLIP NAME:  Z682_55A (LAY5)
000157  Z682_56. V     C        01:00:04:05 01:00:07:10 01:07:40:14 01:07:43:19 
* FROM CLIP NAME:  Z682_56 (LAY6)
000158  Z682_57. V     C        01:00:06:04 01:00:08:20 01:07:43:19 01:07:46:11 
* FROM CLIP NAME:  Z682_57 (LAY7)
000159  Z682_58. V     C        01:00:04:19 01:00:07:00 01:07:46:11 01:07:48:16 
* FROM CLIP NAME:  Z682_58 (LAY5)
000160  Z682_59. V     C        01:00:04:18 01:00:06:00 01:07:48:16 01:07:49:22 
* FROM CLIP NAME:  Z682_59 (LAY10)
000161  Z682_60A V     C        01:00:05:00 01:00:07:05 01:07:49:22 01:07:52:03 
* FROM CLIP NAME:  Z682_60A (LAY2)
000162  Z682_62D V     C        01:00:05:11 01:00:08:12 01:07:52:03 01:07:55:04 
* FROM CLIP NAME:  Z682_62D (LAY4)
000163  Z682_101 V     C        01:00:03:23 01:00:06:23 01:07:55:04 01:07:58:04 
* FROM CLIP NAME:  Z682_101G (LAY4)
000164  Z682_102 V     C        01:00:08:22 01:00:10:16 01:07:58:04 01:07:59:22 
* FROM CLIP NAME:  Z682_102M (LAY3)
000165  Z682_103 V     C        01:00:11:02 01:00:12:15 01:07:59:22 01:08:01:11 
* FROM CLIP NAME:  Z682_103P (LAY4)
000166  Z682_105 V     C        01:00:04:09 01:00:04:23 01:08:01:11 01:08:02:01 
* FROM CLIP NAME:  Z682_105 (LAY2)
000167  Z682_103 V     C        01:00:13:07 01:00:14:17 01:08:02:01 01:08:03:11 
* FROM CLIP NAME:  Z682_103U (LAY1)
000168  Z682_103 V     C        01:00:13:22 01:00:15:12 01:08:03:11 01:08:05:01 
* FROM CLIP NAME:  Z682_103N (LAY4)
000169  Z682_105 V     C        01:00:04:22 01:00:05:11 01:08:05:01 01:08:05:14 
* FROM CLIP NAME:  Z682_105A (LAY1)
000170  Z682_103 V     C        01:00:15:03 01:00:16:00 01:08:05:14 01:08:06:11 
* FROM CLIP NAME:  Z682_103V (LAY1)
000171  Z682_110 V     C        01:00:15:22 01:00:17:12 01:08:06:11 01:08:08:01 
* FROM CLIP NAME:  Z682_110B (LAY1)
000172  Z682_103 V     C        01:00:16:03 01:00:18:03 01:08:08:01 01:08:10:01 
* FROM CLIP NAME:  Z682_103M (LAY6)
000173  Z682_113 V     C        01:00:04:04 01:00:06:01 01:08:10:01 01:08:11:22 
* FROM CLIP NAME:  Z682_113B (LAY5)
000174  Z682_114 V     C        01:00:05:00 01:00:06:23 01:08:11:22 01:08:13:21 
* FROM CLIP NAME:  Z682_114B (LAY2)
000175  Z682_115 V     C        01:00:11:19 01:00:15:17 01:08:13:21 01:08:17:19 
* FROM CLIP NAME:  Z682_115G (LAY3)
000176  Z682_116 V     C        01:00:04:05 01:00:05:17 01:08:17:19 01:08:19:07 
* FROM CLIP NAME:  Z682_116 (LAY2)
000177  Z682_117 V     C        01:00:02:17 01:00:06:14 01:08:19:07 01:08:23:04 
* FROM CLIP NAME:  Z682_117P (LAY4)
000178  Z682_151 V     C        01:00:04:01 01:00:06:19 01:08:23:04 01:08:25:22 
* FROM CLIP NAME:  Z682_151C (LAY3)
000179  Z682_153 V     C        01:00:06:20 01:00:08:00 01:08:25:22 01:08:27:02 
* FROM CLIP NAME:  Z682_153A (LAY3)
000180  Z682_154 V     C        01:00:06:06 01:00:07:04 01:08:27:02 01:08:28:00 
* FROM CLIP NAME:  Z682_154 (LAY6)
000181  Z682_155 V     C        01:00:08:22 01:00:10:00 01:08:28:00 01:08:29:02 
* FROM CLIP NAME:  Z682_155B (LAY2)
000182  Z682_156 V     C        01:00:10:00 01:00:10:22 01:08:29:02 01:08:30:00 
* FROM CLIP NAME:  Z682_156 (LAY3)
000183  Z682_156 V     C        01:00:10:21 01:00:10:22 01:08:30:00 01:08:30:17 
M2   Z682_156       000.0                01:00:10:21 
* FROM CLIP NAME:  Z682_156 (LAY3) FF 
* * FREEZE FRAME
000184  Z682_157 V     C        01:00:10:20 01:00:10:21 01:08:30:17 01:08:30:18 
M2   Z682_157       000.0                01:00:10:20 
* FROM CLIP NAME:  Z682_157 (LAY2) FF 
* * FREEZE FRAME
000185  Z682_157 V     C        01:00:10:20 01:00:11:14 01:08:30:18 01:08:31:12 
* FROM CLIP NAME:  Z682_157 (LAY2)
000186  Z682_156 V     C        01:00:11:08 01:00:12:12 01:08:31:12 01:08:32:16 
* FROM CLIP NAME:  Z682_156C (LAY3)
000187  Z682_157 V     C        01:00:12:20 01:00:14:09 01:08:32:16 01:08:34:05 
* FROM CLIP NAME:  Z682_157C (LAY1)
000188  Z682_160 V     C        01:00:14:07 01:00:18:03 01:08:34:05 01:08:38:01 
* FROM CLIP NAME:  Z682_160 (LAY7)
000189  Z682_161 V     C        01:00:17:14 01:00:18:10 01:08:38:01 01:08:38:21 
* FROM CLIP NAME:  Z682_161 (LAY3)
000190  Z682_162 V     C        01:00:18:06 01:00:20:00 01:08:38:21 01:08:40:15 
* FROM CLIP NAME:  Z682_162D (LAY2)
000191  Z682_165 V     C        01:00:19:17 01:00:23:04 01:08:40:15 01:08:44:02 
* FROM CLIP NAME:  Z682_165 (LAY5)
000192  Z682_162 V     C        01:00:22:09 01:00:24:02 01:08:44:02 01:08:45:19 
* FROM CLIP NAME:  Z682_162E (LAY3)
000193  Z682_165 V     C        01:00:24:10 01:00:25:06 01:08:45:19 01:08:46:15 
* FROM CLIP NAME:  Z682_165A (LAY1)
000194  Z682_168 V     C        01:00:25:00 01:00:26:11 01:08:46:15 01:08:48:02 
* FROM CLIP NAME:  Z682_168 (LAY3)
000195  Z682_165 V     C        01:00:26:08 01:00:27:08 01:08:48:02 01:08:49:02 
* FROM CLIP NAME:  Z682_165E (LAY3)
000196  Z682_170 V     C        01:00:27:10 01:00:28:02 01:08:49:02 01:08:49:18 
* FROM CLIP NAME:  Z682_170A (LAY1)
000197  Z682_165 V     C        01:00:28:09 01:00:29:15 01:08:49:18 01:08:51:00 
* FROM CLIP NAME:  Z682_165F (LAY1)
000198  Z682_172 V     C        01:00:29:14 01:00:30:03 01:08:51:00 01:08:51:13 
* FROM CLIP NAME:  Z682_172 (LAY3)
000199  Z682_201 V     C        01:00:04:05 01:00:05:00 01:08:51:13 01:08:52:08 
* FROM CLIP NAME:  Z682_201 (LAY7)
000200  Z682_202 V     C        01:00:05:01 01:00:05:23 01:08:52:08 01:08:53:06 
* FROM CLIP NAME:  Z682_202C (LAY4)
000201  Z682_203 V     C        01:00:05:16 01:00:06:09 01:08:53:06 01:08:53:23 
* FROM CLIP NAME:  Z682_203 (LAY5)
000202  Z682_204 V     C        01:00:06:12 01:00:08:10 01:08:53:23 01:08:55:21 
* FROM CLIP NAME:  Z682_204B (LAY6)
000203  Z682_205 V     C        01:00:08:15 01:00:10:13 01:08:55:21 01:08:57:19 
* FROM CLIP NAME:  Z682_205B (LAY2)
000204  Z682_206 V     C        01:00:10:16 01:00:12:05 01:08:57:19 01:08:59:08 
* FROM CLIP NAME:  Z682_206B (LAY5)
000205  Z682_207 V     C        01:00:12:00 01:00:13:05 01:08:59:08 01:09:00:13 
* FROM CLIP NAME:  Z682_207A (LAY3)
000206  Z682_208 V     C        01:00:04:06 01:00:05:02 01:09:00:13 01:09:01:09 
* FROM CLIP NAME:  Z682_208 (LAY5)
000207  Z682_209 V     C        01:00:04:10 01:00:05:09 01:09:01:09 01:09:02:08 
* FROM CLIP NAME:  Z682_209 (LAY5)
000208  Z682_210 V     C        01:00:04:07 01:00:12:16 01:09:02:08 01:09:10:17 
* FROM CLIP NAME:  Z682_210 (LAY9)
000209  Z682_211 V     C        01:00:04:06 01:00:05:14 01:09:10:17 01:09:12:01 
* FROM CLIP NAME:  Z682_211F (LAY2)
000210  Z682_211 V     C        01:00:05:14 01:00:09:18 01:09:12:01 01:09:16:05 
* FROM CLIP NAME:  Z682_211E (LAY5)
000211  Z682_214 V     C        01:00:10:12 01:00:12:05 01:09:16:05 01:09:17:22 
* FROM CLIP NAME:  Z682_214H (LAY5)
000212  Z682_214 V     C        01:00:12:02 01:00:13:19 01:09:17:22 01:09:19:15 
* FROM CLIP NAME:  Z682_214S (LAY1)
000213  Z682_214 V     C        01:00:13:20 01:00:17:01 01:09:19:15 01:09:22:20 
* FROM CLIP NAME:  Z682_214B (LAY5)
000214  Z682_214 V     C        01:00:17:18 01:00:21:01 01:09:22:20 01:09:26:03 
* FROM CLIP NAME:  Z682_214K (LAY6)
000215  Z682_214 V     C        01:00:17:23 01:00:20:11 01:09:26:03 01:09:28:15 
* FROM CLIP NAME:  Z682_214V (LAY2)
000216  Z682_214 V     C        01:00:20:02 01:00:24:00 01:09:28:15 01:09:32:13 
* FROM CLIP NAME:  Z682_214U (LAY3)
000217  Z682_214 V     C        01:00:25:05 01:00:32:09 01:09:32:13 01:09:39:17 
* FROM CLIP NAME:  Z682_214N (LAY6)
000218  Z682_252 V     C        01:00:05:11 01:00:08:09 01:09:39:17 01:09:42:15 
* FROM CLIP NAME:  Z682_252 (LAY6)
000219  Z682_253 V     C        01:00:04:00 01:00:06:09 01:09:42:15 01:09:45:00 
* FROM CLIP NAME:  Z682_253B (LAY2)
000220  Z682_254 V     C        01:00:04:19 01:00:06:05 01:09:45:00 01:09:46:10 
* FROM CLIP NAME:  Z682_254 (LAY4)
000221  Z682_255 V     C        01:00:04:05 01:00:05:02 01:09:46:10 01:09:47:07 
* FROM CLIP NAME:  Z682_255A (LAY1)
000222  Z682_255 V     C        01:00:06:11 01:00:07:23 01:09:47:07 01:09:48:19 
* FROM CLIP NAME:  Z682_255B (LAY2)
000223  Z682_257 V     C        01:00:04:05 01:00:05:13 01:09:48:19 01:09:50:03 
* FROM CLIP NAME:  Z682_257 (LAY2)
000224  Z682_258 V     C        01:00:04:05 01:00:05:01 01:09:50:03 01:09:50:23 
* FROM CLIP NAME:  Z682_258A (LAY2)
000225  Z682_259 V     C        01:00:04:05 01:00:05:12 01:09:50:23 01:09:52:06 
* FROM CLIP NAME:  Z682_259F (LAY1)
000226  Z682_260 V     C        01:00:04:08 01:00:05:19 01:09:52:06 01:09:53:17 
* FROM CLIP NAME:  Z682_260 (LAY2)
000227  Z683_RYA V     C        01:00:04:05 01:00:08:23 01:09:53:17 01:09:58:11 
* FROM CLIP NAME:  Z683_1B (LAY3)
000228  Z683_3B. V     C        01:00:09:00 01:00:12:22 01:09:58:11 01:10:02:09 
* FROM CLIP NAME:  Z683_3B (LAY3)
000229  Z683_4A. V     C        01:00:13:07 01:00:15:17 01:10:02:09 01:10:04:19 
* FROM CLIP NAME:  Z683_4A (LAY3)
000230  Z683_5B. V     C        01:00:16:13 01:00:17:03 01:10:04:19 01:10:05:09 
* FROM CLIP NAME:  Z683_5B (LAY3)
000231  Z683_5K. V     C        01:00:16:06 01:00:18:10 01:10:05:09 01:10:07:13 
* FROM CLIP NAME:  Z683_5K (LAY3)
000232  Z683_5H. V     C        01:00:16:21 01:00:18:00 01:10:07:13 01:10:08:16 
* FROM CLIP NAME:  Z683_5H (LAY8)
000233  Z683_7D. V     C        01:00:20:00 01:00:25:05 01:10:08:16 01:10:13:21 
* FROM CLIP NAME:  Z683_7D (LAY4)
000234  Z683_10B V     C        01:00:24:08 01:00:26:07 01:10:13:21 01:10:15:20 
* FROM CLIP NAME:  Z683_10B (LAY2)
000235  Z683_11. V     C        01:00:26:04 01:00:26:18 01:10:15:20 01:10:16:10 
* FROM CLIP NAME:  Z683_11 (LAY7)
000236  Z683_11A V     C        01:00:26:19 01:00:28:01 01:10:16:10 01:10:17:16 
* FROM CLIP NAME:  Z683_11A (LAY8)
000237  Z683_RYA V     C        01:00:26:20 01:00:27:14 01:10:17:16 01:10:18:10 
* FROM CLIP NAME:  Z683_12A (LAY9)
000238  Z683_12K V     C        01:00:27:15 01:00:29:02 01:10:18:10 01:10:19:21 
* FROM CLIP NAME:  Z683_12K (LAY3)
000239  Z683_13D V     C        01:00:29:15 01:00:30:06 01:10:19:21 01:10:20:12 
* FROM CLIP NAME:  Z683_13D (LAY2)
000240  Z683_18. V     C        01:00:30:14 01:00:31:22 01:10:20:12 01:10:21:20 
* FROM CLIP NAME:  Z683_18 (LAY7)
000241  Z683_RYA V     C        01:00:32:14 01:00:34:04 01:10:21:20 01:10:23:10 
* FROM CLIP NAME:  Z683_18D (LAY3)
000242  Z683_14C V     C        01:00:28:07 01:00:30:22 01:10:23:10 01:10:26:01 
* FROM CLIP NAME:  Z683_14C (LAY9)
000243  Z683_16. V     C        01:00:31:01 01:00:32:13 01:10:26:01 01:10:27:13 
* FROM CLIP NAME:  Z683_16 (LAY4)
000244  Z683_18C V     C        01:00:33:12 01:00:34:11 01:10:27:13 01:10:28:12 
* FROM CLIP NAME:  Z683_18C (LAY4)
000245  Z683_19A V     C        01:00:35:10 01:00:36:20 01:10:28:12 01:10:29:22 
* FROM CLIP NAME:  Z683_19A (LAY3)
000246  Z683_52A V     C        01:00:04:07 01:00:05:09 01:10:29:22 01:10:31:00 
* FROM CLIP NAME:  Z683_52A (LAY17)
000247  Z683_53. V     C        01:00:05:11 01:00:06:12 01:10:31:00 01:10:32:01 
* FROM CLIP NAME:  Z683_53 (LAY4)
000248  Z683_55. V     C        01:00:04:05 01:00:07:15 01:10:32:01 01:10:35:11 
* FROM CLIP NAME:  Z683_55 (LAY14)
000249  Z683_56A V     C        01:00:05:16 01:00:06:14 01:10:35:11 01:10:36:09 
* FROM CLIP NAME:  Z683_56A (LAY2)
000250  Z683_57C V     C        01:00:08:09 01:00:09:18 01:10:36:09 01:10:37:18 
* FROM CLIP NAME:  Z683_57C (LAY3)
000251  Z683_59A V     C        01:00:08:03 01:00:09:23 01:10:37:18 01:10:39:14 
* FROM CLIP NAME:  Z683_59A (LAY10)
000252  Z683_60A V     C        01:00:09:16 01:00:11:04 01:10:39:14 01:10:41:02 
* FROM CLIP NAME:  Z683_60A (LAY5)
000253  Z683_61. V     C        01:00:11:20 01:00:12:22 01:10:41:02 01:10:42:04 
* FROM CLIP NAME:  Z683_61 (LAY5)
000254  Z683_62. V     C        01:00:13:03 01:00:15:10 01:10:42:04 01:10:44:11 
* FROM CLIP NAME:  Z683_62 (LAY9)
000255  Z683_63. V     C        01:00:14:23 01:00:17:02 01:10:44:11 01:10:46:14 
* FROM CLIP NAME:  Z683_63 (LAY5)
000256  Z683_71C V     C        01:00:04:16 01:00:08:10 01:10:46:14 01:10:50:08 
* FROM CLIP NAME:  Z683_71C (LAY1)
000257  Z683_73. V     C        01:00:07:20 01:00:09:02 01:10:50:08 01:10:51:14 
* FROM CLIP NAME:  Z683_73 (LAY5)
000258  Z683_74B V     C        01:00:10:17 01:00:11:22 01:10:51:14 01:10:52:19 
* FROM CLIP NAME:  Z683_74B (LAY5)
000259  Z683_75A V     C        01:00:04:14 01:00:06:20 01:10:52:19 01:10:55:01 
* FROM CLIP NAME:  Z683_75A (LAY3)
000260  Z683_76C V     C        01:00:06:09 01:00:07:14 01:10:55:01 01:10:56:06 
* FROM CLIP NAME:  Z683_76C (LAY3)
000261  Z683_76B V     C        01:00:07:01 01:00:07:18 01:10:56:06 01:10:56:23 
* FROM CLIP NAME:  Z683_76B (LAY4)
000262  Z683_76A V     C        01:00:08:05 01:00:09:01 01:10:56:23 01:10:57:19 
* FROM CLIP NAME:  Z683_76A (LAY4)
000263  Z683_76. V     C        01:00:09:06 01:00:11:20 01:10:57:19 01:11:00:09 
* FROM CLIP NAME:  Z683_76 (LAY5)
000264  Z683_77. V     C        01:00:12:13 01:00:13:06 01:11:00:09 01:11:01:02 
* FROM CLIP NAME:  Z683_77 (LAY5)
000265  Z683_78. V     C        01:00:12:20 01:00:13:15 01:11:01:02 01:11:01:21 
* FROM CLIP NAME:  Z683_78 (LAY5)
000266  700_EPIL V     C        01:00:00:01 01:00:00:03 01:11:01:21 01:11:01:23 
* FROM CLIP NAME:  LG_BLACK239 (REN2)
000267  Z683_53D V     C        01:00:42:11 01:00:44:01 01:11:01:23 01:11:03:13 
* FROM CLIP NAME:  Z683_53D (LAY7)
000268  Z683_80B V     C        01:00:04:05 01:00:06:06 01:11:03:13 01:11:05:14 
* FROM CLIP NAME:  Z683_80B (LAY3)
000269  Z683_81. V     C        01:00:05:23 01:00:06:15 01:11:05:14 01:11:06:06 
* FROM CLIP NAME:  Z683_81 (LAY5)
000270  Z683_82. V     C        01:00:07:11 01:00:08:10 01:11:06:06 01:11:07:05 
* FROM CLIP NAME:  Z683_82 (LAY7)
000271  Z683_80. V     C        01:00:08:18 01:00:10:12 01:11:07:05 01:11:08:23 
* FROM CLIP NAME:  Z683_80 (LAY7)
000272  Z683_84. V     C        01:00:11:06 01:00:11:18 01:11:08:23 01:11:09:11 
* FROM CLIP NAME:  Z683_84 (LAY5)
000273  Z683_84A V     C        01:00:11:23 01:00:12:14 01:11:09:11 01:11:10:02 
* FROM CLIP NAME:  Z683_84A (LAY3)
000274  Z683_85B V     C        01:00:42:05 01:00:43:00 01:11:10:02 01:11:10:21 
* FROM CLIP NAME:  Z683_85B (LAY3)
000275  Z683_86. V     C        01:00:43:03 01:00:44:18 01:11:10:21 01:11:12:12 
* FROM CLIP NAME:  Z683_86 (LAY4)
000276  Z688_801 V     C        01:00:05:23 01:00:08:11 01:11:12:12 01:11:15:00 
* FROM CLIP NAME:  Z688_801C (LAY4)
000277  Z686_1.A V     C        01:00:04:04 01:00:05:20 01:11:15:00 01:11:16:16 
* FROM CLIP NAME:  Z686_1 (ANIM10)
000278  Z686_2.R V     C        01:00:04:05 01:00:06:12 01:11:16:16 01:11:18:23 
* FROM CLIP NAME:  Z686_2 (RENDER-ANIM17)
000279  Z686_3E. V     C        01:00:03:23 01:00:09:06 01:11:18:23 01:11:24:06 
* FROM CLIP NAME:  Z686_3E (ANIM9)
000280  Z686_4C. V     C        01:00:04:05 01:00:09:19 01:11:24:06 01:11:29:20 
* FROM CLIP NAME:  Z686_4C (LAY1)
000281  Z686_5A. V     C        01:00:04:04 01:00:06:00 01:11:29:20 01:11:31:16 
* FROM CLIP NAME:  Z686_5A (LAY2)
000282  Z686_5A. V     C        01:00:06:00 01:00:08:22 01:11:31:16 01:11:33:04 
M2   Z686_5A.       047.6                01:00:06:00 
* FROM CLIP NAME:  Z686_5A (LAY2) (47.56 FPS)
000283  Z686_7.R V     C        01:00:09:15 01:00:10:07 01:11:33:04 01:11:33:20 
* FROM CLIP NAME:  Z686_7 (RENDER-ANIM20)
000284  Z684_1Q. V     C        01:00:04:20 01:00:06:19 01:11:33:20 01:11:35:19 
* FROM CLIP NAME:  Z684_1Q (LAY5)
000285  Z683_102 V     C        01:00:06:07 01:00:07:21 01:11:35:19 01:11:37:09 
* FROM CLIP NAME:  Z683_102 (LAY5)
000286  Z683_201 V     C        01:00:07:23 01:00:11:20 01:11:37:09 01:11:41:06 
* FROM CLIP NAME:  Z683_201A (LAY3)
000287  Z683_202 V     C        01:00:12:10 01:00:15:21 01:11:41:06 01:11:44:17 
* FROM CLIP NAME:  Z683_202 (LAY4)
000288  Z683_203 V     C        01:00:14:03 01:00:14:20 01:11:44:17 01:11:45:10 
* FROM CLIP NAME:  Z683_203 (LAY6)
000289  Z683_204 V     C        01:00:16:11 01:00:17:08 01:11:45:10 01:11:46:07 
* FROM CLIP NAME:  Z683_204 (LAY3)
000290  Z683_203 V     C        01:00:14:18 01:00:16:10 01:11:46:07 01:11:47:23 
* FROM CLIP NAME:  Z683_203A (LAY3)
000291  Z683_204 V     C        01:00:16:12 01:00:19:22 01:11:47:23 01:11:51:09 
* FROM CLIP NAME:  Z683_204A (LAY3)
000292  Z683_205 V     C        01:00:19:08 01:00:25:03 01:11:51:09 01:11:57:04 
* FROM CLIP NAME:  Z683_205A (LAY5)
000293  Z686_51B V     C        01:00:04:05 01:00:06:01 01:11:57:04 01:11:59:00 
* FROM CLIP NAME:  Z686_51B (LAY1)
000294  Z684_201 V     C        01:00:05:12 01:00:07:09 01:11:59:00 01:12:00:21 
* FROM CLIP NAME:  Z684_201C (LAY3)
000295  Z683_301 V     C        01:00:15:14 01:00:17:09 01:12:00:21 01:12:02:16 
* FROM CLIP NAME:  Z683_301D (LAY3)
000296  Z683_302 V     C        01:00:16:21 01:00:18:01 01:12:02:16 01:12:03:20 
* FROM CLIP NAME:  Z683_302A (LAY2)
000297  Z683_303 V     C        01:00:18:01 01:00:19:18 01:12:03:20 01:12:05:13 
* FROM CLIP NAME:  Z683_303A (LAY2)
000298  Z683_353 V     C        01:00:07:01 01:00:08:06 01:12:05:13 01:12:06:18 
* FROM CLIP NAME:  Z683_353A (LAY4)
000299  Z683_351 V     C        01:00:04:05 01:00:05:17 01:12:06:18 01:12:08:06 
* FROM CLIP NAME:  Z683_351 (LAY6)
000300  Z683_352 V     C        01:00:06:00 01:00:07:07 01:12:08:06 01:12:09:13 
* FROM CLIP NAME:  Z683_352 (LAY5)
000301  Z683_229 V     C        01:00:08:00 01:00:09:11 01:12:09:13 01:12:11:00 
* FROM CLIP NAME:  Z683_229C (LAY6)
000302  Z683_232 V     C        01:00:07:22 01:00:12:11 01:12:11:00 01:12:15:13 
* FROM CLIP NAME:  Z683_232F (LAY8)
000303  Z686_101 V     C        01:00:04:07 01:00:05:14 01:12:15:13 01:12:16:20 
* FROM CLIP NAME:  Z686_101 (LAY2)
000304  Z686_102 V     C        01:00:04:19 01:00:06:14 01:12:16:20 01:12:18:15 
* FROM CLIP NAME:  Z686_102A (LAY1)
000305  Z686_105 V     C        01:00:07:13 01:00:09:08 01:12:18:15 01:12:20:10 
* FROM CLIP NAME:  Z686_105B (LAY1)
000306  Z686_106 V     C        01:00:08:01 01:00:08:17 01:12:20:10 01:12:21:02 
* FROM CLIP NAME:  Z686_106B (LAY1)
000307  Z686_107 V     C        01:00:08:05 01:00:10:04 01:12:21:02 01:12:23:01 
* FROM CLIP NAME:  Z686_107A (LAY2)
000308  Z683_355 V     C        01:00:08:22 01:00:10:04 01:12:23:01 01:12:24:07 
* FROM CLIP NAME:  Z683_355A (LAY1)
000309  Z683_356 V     C        01:00:10:03 01:00:11:03 01:12:24:07 01:12:25:07 
* FROM CLIP NAME:  Z683_356 (LAY7)
000310  Z683_357 V     C        01:00:11:06 01:00:11:14 01:12:25:07 01:12:25:15 
* FROM CLIP NAME:  Z683_357A (LAY1)
000311  Z683_359 V     C        01:00:11:12 01:00:13:12 01:12:25:15 01:12:27:15 
* FROM CLIP NAME:  Z683_359 (LAY5)
000312  Z684_301 V     C        01:00:03:14 01:00:04:14 01:12:27:15 01:12:28:15 
* FROM CLIP NAME:  Z684_301B (LAY3)
000313  Z684_301 V     C        01:00:04:14 01:00:08:04 01:12:28:15 01:12:32:05 
* FROM CLIP NAME:  Z684_301E (LAY4)
000314  Z684_303 V     C        01:00:08:00 01:00:09:00 01:12:32:05 01:12:33:05 
* FROM CLIP NAME:  Z684_303 (LAY7)
000315  Z684_304 V     C        01:00:09:07 01:00:10:13 01:12:33:05 01:12:34:11 
* FROM CLIP NAME:  Z684_304 (LAY7)
000316  Z684_306 V     C        01:00:10:11 01:00:12:13 01:12:34:11 01:12:36:13 
* FROM CLIP NAME:  Z684_306A (LAY5)
000317  Z684_307 V     C        01:00:04:05 01:00:06:02 01:12:36:13 01:12:38:10 
* FROM CLIP NAME:  Z684_307A (LAY4)
000318  Z684_309 V     C        01:00:04:16 01:00:06:04 01:12:38:10 01:12:39:22 
* FROM CLIP NAME:  Z684_309 (LAY12)
000319  Z684_310 V     C        01:00:07:02 01:00:08:02 01:12:39:22 01:12:40:22 
* FROM CLIP NAME:  Z684_310A (LAY4)
000320  Z684_311 V     C        01:00:07:23 01:00:10:19 01:12:40:22 01:12:43:18 
* FROM CLIP NAME:  Z684_311 (LAY12)
000321  Z684_312 V     C        01:00:10:17 01:00:11:23 01:12:43:18 01:12:45:00 
* FROM CLIP NAME:  Z684_312 (LAY11)
000322  Z684_313 V     C        01:00:12:03 01:00:13:07 01:12:45:00 01:12:46:04 
* FROM CLIP NAME:  Z684_313 (LAY12)
000323  Z684_314 V     C        01:00:13:00 01:00:14:23 01:12:46:04 01:12:48:03 
* FROM CLIP NAME:  Z684_314A (LAY4)
000324  Z684_316 V     C        01:00:15:11 01:00:16:21 01:12:48:03 01:12:49:13 
* FROM CLIP NAME:  Z684_316 (LAY10)
000325  Z684_317 V     C        01:00:16:12 01:00:17:04 01:12:49:13 01:12:50:05 
* FROM CLIP NAME:  Z684_317 (LAY10)
000326  Z684_318 V     C        01:00:17:03 01:00:18:00 01:12:50:05 01:12:51:02 
* FROM CLIP NAME:  Z684_318A (LAY7)
000327  Z684_319 V     C        01:00:17:14 01:00:18:00 01:12:51:02 01:12:51:12 
* FROM CLIP NAME:  Z684_319 (LAY10)
000328  Z684_320 V     C        01:00:18:22 01:00:19:19 01:12:51:12 01:12:52:09 
* FROM CLIP NAME:  Z684_320 (LAY13)
000329  Z684_321 V     C        01:00:19:09 01:00:20:12 01:12:52:09 01:12:53:12 
* FROM CLIP NAME:  Z684_321 (LAY9)
000330  Z684_322 V     C        01:00:19:23 01:00:20:22 01:12:53:12 01:12:54:11 
* FROM CLIP NAME:  Z684_322 (LAY9)
000331  Z684_323 V     C        01:00:21:07 01:00:24:04 01:12:54:11 01:12:57:08 
* FROM CLIP NAME:  Z684_323 (LAY9)
000332  Z683_401 V     C        01:00:12:18 01:00:15:06 01:12:57:08 01:12:59:20 
* FROM CLIP NAME:  Z683_401 (LAY3)
000333  Z683_402 V     C        01:00:14:22 01:00:17:05 01:12:59:20 01:13:02:03 
* FROM CLIP NAME:  Z683_402A (LAY2)
000334  Z683_403 V     C        01:00:16:21 01:00:19:02 01:13:02:03 01:13:04:08 
* FROM CLIP NAME:  Z683_403A (LAY5)
000335  Z683_404 V     C        01:00:19:00 01:00:20:23 01:13:04:08 01:13:06:07 
* FROM CLIP NAME:  Z683_404A (LAY5)
000336  Z683_405 V     C        01:00:20:01 01:00:22:20 01:13:06:07 01:13:09:02 
* FROM CLIP NAME:  Z683_405 (LAY3)
000337  Z683_406 V     C        01:00:23:02 01:00:25:23 01:13:09:02 01:13:11:23 
* FROM CLIP NAME:  Z683_406 (LAY5)
000338  Z683_407 V     C        01:00:26:03 01:00:27:09 01:13:11:23 01:13:13:05 
* FROM CLIP NAME:  Z683_407 (LAY3)
000339  Z683_408 V     C        01:00:26:19 01:00:29:03 01:13:13:05 01:13:15:13 
* FROM CLIP NAME:  Z683_408A (LAY2)
000340  Z684_401 V     C        01:00:03:10 01:00:04:17 01:13:15:13 01:13:16:20 
* FROM CLIP NAME:  Z684_401 (LAY9)
000341  Z684_402 V     C        01:00:05:17 01:00:07:09 01:13:16:20 01:13:18:12 
* FROM CLIP NAME:  Z684_402A (LAY5)
000342  Z684_403 V     C        01:00:07:05 01:00:08:23 01:13:18:12 01:13:20:06 
* FROM CLIP NAME:  Z684_403 (LAY6)
000343  Z684_401 V     C        01:00:08:11 01:00:11:15 01:13:20:06 01:13:23:10 
* FROM CLIP NAME:  Z684_401B (LAY3)
000344  Z684_404 V     C        01:00:11:01 01:00:11:21 01:13:23:10 01:13:24:06 
* FROM CLIP NAME:  Z684_404 (LAY4)
000345  Z684_401 V     C        01:00:12:06 01:00:13:01 01:13:24:06 01:13:25:01 
* FROM CLIP NAME:  Z684_401C (LAY4)
000346  Z684_403 V     C        01:00:13:21 01:00:15:13 01:13:25:01 01:13:26:17 
* FROM CLIP NAME:  Z684_403B (LAY3)
000347  Z684_401 V     C        01:00:14:21 01:00:17:07 01:13:26:17 01:13:29:03 
* FROM CLIP NAME:  Z684_401D (LAY3)
000348  Z684_403 V     C        01:00:17:16 01:00:19:07 01:13:29:03 01:13:30:18 
* FROM CLIP NAME:  Z684_403C (LAY3)
000349  Z684_406 V     C        01:00:17:10 01:00:18:21 01:13:30:18 01:13:32:05 
* FROM CLIP NAME:  Z684_406 (LAY5)
000350  Z684_401 V     C        01:00:18:06 01:00:20:20 01:13:32:05 01:13:34:19 
* FROM CLIP NAME:  Z684_401E (LAY3)
000351  Z684_408 V     C        01:00:21:00 01:00:22:09 01:13:34:19 01:13:36:04 
* FROM CLIP NAME:  Z684_408A (LAY3)
000352  Z684_403 V     C        01:00:22:02 01:00:23:00 01:13:36:04 01:13:37:02 
* FROM CLIP NAME:  Z684_403D (LAY3)
000353  Z684_409 V     C        01:00:22:21 01:00:24:14 01:13:37:02 01:13:38:19 
* FROM CLIP NAME:  Z684_409 (LAY7)
000354  Z684_401 V     C        01:00:24:03 01:00:27:12 01:13:38:19 01:13:42:04 
* FROM CLIP NAME:  Z684_401F (LAY3)
000355  Z688_1K. V     C        01:00:04:05 01:00:05:23 01:13:42:04 01:13:43:22 
* FROM CLIP NAME:  Z688_1K (LAY1)
000356  Z688_2F. V     C        01:00:04:05 01:00:06:21 01:13:43:22 01:13:46:14 
* FROM CLIP NAME:  Z688_2F (LAY1)
000357  Z688_FIX V     C        01:00:04:05 01:00:07:00 01:13:46:14 01:13:49:09 
* FROM CLIP NAME:  Z688_3C (LAY1)
000358  Z688_FIX V     C        01:00:04:06 01:00:13:04 01:13:49:09 01:13:58:07 
* FROM CLIP NAME:  Z688_4E (LAY1)
000359  Z688_5A. V     C        01:00:04:05 01:00:05:13 01:13:58:07 01:13:59:15 
* FROM CLIP NAME:  Z688_5A (LAY3)
000360  Z688_6E. V     C        01:00:05:13 01:00:06:08 01:13:59:15 01:14:00:10 
* FROM CLIP NAME:  Z688_6E (LAY4)
000361  Z688_8C. V     C        01:00:03:20 01:00:10:03 01:14:00:10 01:14:06:17 
* FROM CLIP NAME:  Z688_8C (LAY4)
000362  Z688_10E V     C        01:00:04:05 01:00:14:14 01:14:06:17 01:14:17:02 
* FROM CLIP NAME:  Z688_10E (LAY5)
000363  Z688_12B V     C        01:00:11:03 01:00:13:19 01:14:17:02 01:14:19:18 
* FROM CLIP NAME:  Z688_12B (LAY1)
000364  Z688_15C V     C        01:00:01:16 01:00:03:22 01:14:19:18 01:14:22:00 
* FROM CLIP NAME:  Z688_15C (LAY4)
000365  Z688_16. V     C        01:00:06:12 01:00:09:12 01:14:22:00 01:14:25:00 
* FROM CLIP NAME:  Z688_16 (LAY3)
000366  Z684_SHO V     C        01:00:04:05 01:00:05:05 01:14:25:00 01:14:26:00 
* FROM CLIP NAME:  Z684_501 (LAY8)
000367  Z684_SHO V     C        01:00:05:16 01:00:07:15 01:14:26:00 01:14:27:23 
* FROM CLIP NAME:  Z684_502A (LAY2)
000368  Z684_503 V     C        01:00:07:06 01:00:09:01 01:14:27:23 01:14:29:18 
* FROM CLIP NAME:  Z684_503A (LAY7)
000369  Z684_SHO V     C        01:00:08:03 01:00:08:16 01:14:29:18 01:14:30:07 
* FROM CLIP NAME:  Z684_504A (LAY6)
000370  Z684_SHO V     C        01:00:09:15 01:00:10:19 01:14:30:07 01:14:31:11 
* FROM CLIP NAME:  Z684_508A (LAY3)
000371  Z684_SHO V     C        01:00:08:01 01:00:09:10 01:14:31:11 01:14:32:20 
* FROM CLIP NAME:  Z684_505A (LAY2)
000372  Z684_508 V     C        01:00:12:08 01:00:14:00 01:14:32:20 01:14:34:12 
* FROM CLIP NAME:  Z684_508B (LAY1)
000373  Z684_510 V     C        01:00:12:11 01:00:15:18 01:14:34:12 01:14:37:19 
* FROM CLIP NAME:  Z684_510A (LAY5)
000374  Z684_SHO V     C        01:00:15:08 01:00:16:14 01:14:37:19 01:14:39:01 
* FROM CLIP NAME:  Z684_511A (LAY2)
000375  Z684_511 V     C        01:00:16:14 01:00:17:21 01:14:39:01 01:14:40:08 
* FROM CLIP NAME:  Z684_511B (LAY2)
000376  Z684_SHO V     C        01:00:16:09 01:00:17:10 01:14:40:08 01:14:41:09 
* FROM CLIP NAME:  Z684_515E (LAY2)
000377  Z684_511 V     C        01:00:19:02 01:00:21:23 01:14:41:09 01:14:44:06 
* FROM CLIP NAME:  Z684_511D (LAY1)
000378  Z688_101 V     C        01:00:03:09 01:00:10:01 01:14:44:06 01:14:50:22 
* FROM CLIP NAME:  Z688_101F (LAY3)
000379  Z688_AGR V     C        01:00:08:09 01:00:10:12 01:14:50:22 01:14:53:01 
* FROM CLIP NAME:  Z688_103A (LAY2)
000380  Z688_AGR V     C        01:00:10:12 01:00:12:17 01:14:53:01 01:14:55:06 
* FROM CLIP NAME:  Z688_104 (LAY4)
000381  Z688_105 V     C        01:00:11:22 01:00:13:09 01:14:55:06 01:14:56:17 
* FROM CLIP NAME:  Z688_105 (LAY4)
000382  Z688_101 V     C        01:00:13:09 01:00:14:13 01:14:56:17 01:14:57:21 
* FROM CLIP NAME:  Z688_101C (LAY4)
000383  Z688_AGR V     C        01:00:14:05 01:00:15:00 01:14:57:21 01:14:58:16 
* FROM CLIP NAME:  Z688_106 (LAY3)
000384  Z688_107 V     C        01:00:14:22 01:00:15:15 01:14:58:16 01:14:59:09 
* FROM CLIP NAME:  Z688_107A (LAY5)
000385  Z688_107 V     C        01:00:15:07 01:00:17:19 01:14:59:09 01:15:01:21 
* FROM CLIP NAME:  Z688_107E (LAY10)
000386  Z684_601 V     C        01:00:03:19 01:00:05:18 01:15:01:21 01:15:03:20 
* FROM CLIP NAME:  Z684_601 (LAY6)
000387  Z684_602 V     C        01:00:05:20 01:00:07:17 01:15:03:20 01:15:05:17 
* FROM CLIP NAME:  Z684_602A (LAY7)
000388  Z684_604 V     C        01:00:08:08 01:00:10:04 01:15:05:17 01:15:07:13 
* FROM CLIP NAME:  Z684_604 (LAY9)
000389  Z684_605 V     C        01:00:11:03 01:00:12:13 01:15:07:13 01:15:08:23 
* FROM CLIP NAME:  Z684_605A (LAY3)
000390  Z684_604 V     C        01:00:11:06 01:00:13:02 01:15:08:23 01:15:10:19 
* FROM CLIP NAME:  Z684_604A (LAY3)
000391  Z684_605 V     C        01:00:11:19 01:00:13:09 01:15:10:19 01:15:12:09 
* FROM CLIP NAME:  Z684_605B (LAY1)
000392  Z684_604 V     C        01:00:13:17 01:00:14:13 01:15:12:09 01:15:13:05 
* FROM CLIP NAME:  Z684_604B (LAY1)
000393  Z684_605 V     C        01:00:13:16 01:00:14:15 01:15:13:05 01:15:14:04 
* FROM CLIP NAME:  Z684_605C (LAY1)
000394  Z684_604 V     C        01:00:15:09 01:00:16:09 01:15:14:04 01:15:15:04 
* FROM CLIP NAME:  Z684_604C (LAY1)
000395  Z684_611 V     C        01:00:16:18 01:00:19:08 01:15:15:04 01:15:17:18 
* FROM CLIP NAME:  Z684_611 (LAY9)
000396  Z684_612 V     C        01:00:18:20 01:00:21:17 01:15:17:18 01:15:20:15 
* FROM CLIP NAME:  Z684_612A (LAY2)
000397  Z684_611 V     C        01:00:21:22 01:00:24:06 01:15:20:15 01:15:22:23 
* FROM CLIP NAME:  Z684_611B (LAY4)
000398  Z688_201 V     C        01:00:04:05 01:00:05:12 01:15:22:23 01:15:24:06 
* FROM CLIP NAME:  Z688_201A (LAY8)
000399  Z688_202 V     C        01:00:05:15 01:00:06:20 01:15:24:06 01:15:25:11 
* FROM CLIP NAME:  Z688_202B (LAY3)
000400  Z688_AGR V     C        01:00:06:20 01:00:07:16 01:15:25:11 01:15:26:07 
* FROM CLIP NAME:  Z688_203A (LAY5)
000401  Z688_206 V     C        01:00:07:11 01:00:09:11 01:15:26:07 01:15:28:07 
* FROM CLIP NAME:  Z688_206A (LAY6)
000402  Z688_AGR V     C        01:00:09:09 01:00:10:12 01:15:28:07 01:15:29:10 
* FROM CLIP NAME:  Z688_206 (LAY9)
000403  Z684_701 V     C        01:00:04:08 01:00:07:07 01:15:29:10 01:15:32:09 
* FROM CLIP NAME:  Z684_701 (LAY8)
000404  Z684_702 V     C        01:00:07:01 01:00:08:10 01:15:32:09 01:15:33:18 
* FROM CLIP NAME:  Z684_702 (LAY13)
000405  Z684_703 V     C        01:00:08:09 01:00:10:08 01:15:33:18 01:15:35:17 
* FROM CLIP NAME:  Z684_703 (LAY8)
000406  Z684_704 V     C        01:00:09:18 01:00:10:18 01:15:35:17 01:15:36:17 
* FROM CLIP NAME:  Z684_704 (LAY9)
000407  Z684_705 V     C        01:00:10:22 01:00:11:08 01:15:36:17 01:15:37:03 
* FROM CLIP NAME:  Z684_705 (LAY8)
000408  Z684_706 V     C        01:00:11:08 01:00:12:02 01:15:37:03 01:15:37:21 
* FROM CLIP NAME:  Z684_706 (LAY8)
000409  Z684_707 V     C        01:00:12:01 01:00:13:04 01:15:37:21 01:15:39:00 
* FROM CLIP NAME:  Z684_707 (LAY9)
000410  Z684_708 V     C        01:00:13:06 01:00:16:02 01:15:39:00 01:15:41:20 
* FROM CLIP NAME:  Z684_708 (LAY12)
000411  Z684_709 V     C        01:00:16:03 01:00:16:23 01:15:41:20 01:15:42:16 
* FROM CLIP NAME:  Z684_709A (LAY5)
000412  Z684_710 V     C        01:00:16:08 01:00:17:01 01:15:42:16 01:15:43:09 
* FROM CLIP NAME:  Z684_710 (LAY8)
000413  Z684_711 V     C        01:00:17:02 01:00:17:17 01:15:43:09 01:15:44:00 
* FROM CLIP NAME:  Z684_711 (LAY8)
000414  Z684_712 V     C        01:00:17:17 01:00:18:07 01:15:44:00 01:15:44:14 
* FROM CLIP NAME:  Z684_712 (LAY9)
000415  Z684_713 V     C        01:00:18:06 01:00:21:19 01:15:44:14 01:15:48:03 
* FROM CLIP NAME:  Z684_713C (LAY3)
000416  Z684_717 V     C        01:00:21:20 01:00:25:08 01:15:48:03 01:15:51:15 
* FROM CLIP NAME:  Z684_717A (LAY7)
000417  Z684_719 V     C        01:00:04:05 01:00:06:09 01:15:51:15 01:15:53:19 
* FROM CLIP NAME:  Z684_719B (LAY5)
000418  Z686_151 V     C        01:00:04:10 01:00:06:10 01:15:53:19 01:15:55:19 
* FROM CLIP NAME:  Z686_151 (LAY4)
000419  Z686_152 V     C        01:00:07:02 01:00:09:02 01:15:55:19 01:15:57:19 
* FROM CLIP NAME:  Z686_152G (LAY3)
000420  Z686_153 V     C        01:00:11:01 01:00:13:07 01:15:57:19 01:16:00:01 
* FROM CLIP NAME:  Z686_153A (LAY3)
000421  Z686_154 V     C        01:00:14:14 01:00:16:09 01:16:00:01 01:16:01:20 
* FROM CLIP NAME:  Z686_154A (LAY2)
000422  Z686_153 V     C        01:00:13:07 01:00:15:16 01:16:01:20 01:16:04:05 
* FROM CLIP NAME:  Z686_153E (LAY1)
000423  Z686_154 V     C        01:00:16:11 01:00:18:20 01:16:04:05 01:16:06:14 
* FROM CLIP NAME:  Z686_154D (LAY5)
000424  Z688_303 V     C        01:00:04:00 01:00:06:00 01:16:06:14 01:16:08:14 
* FROM CLIP NAME:  Z688_303B (LAY10)
000425  Z688_503 V     C        01:00:05:22 01:00:06:22 01:16:08:14 01:16:09:14 
* FROM CLIP NAME:  Z688_503B (LAY3)
000426  Z688_503 V     C        01:00:06:18 01:00:08:23 01:16:09:14 01:16:11:19 
* FROM CLIP NAME:  Z688_503J (LAY6)
000427  Z693_1A. V     C        01:00:01:01 01:00:04:10 01:16:11:19 01:16:15:04 
* FROM CLIP NAME:  Z693_1A (LAY7)
000428  Z693_2.L V     C        01:00:04:09 01:00:05:16 01:16:15:04 01:16:16:11 
* FROM CLIP NAME:  Z693_2 (LAY3)
000429  Z693_4A. V     C        01:00:04:12 01:00:06:15 01:16:16:11 01:16:18:14 
* FROM CLIP NAME:  Z693_4A (LAY4)
000430  Z693_5A. V     C        01:00:03:22 01:00:05:00 01:16:18:14 01:16:19:16 
* FROM CLIP NAME:  Z693_5A (LAY2)
000431  Z688_302 V     C        01:00:04:18 01:00:06:03 01:16:19:16 01:16:21:01 
* FROM CLIP NAME:  Z688_302A (LAY4)
000432  Z688_401 V     C        01:00:03:20 01:00:05:06 01:16:21:01 01:16:22:11 
* FROM CLIP NAME:  Z688_401F (LAY4)
000433  Z688_404 V     C        01:00:04:15 01:00:07:04 01:16:22:11 01:16:25:00 
* FROM CLIP NAME:  Z688_404B (LAY1)
000434  Z693_101 V     C        01:00:04:13 01:00:05:12 01:16:25:00 01:16:25:23 
* FROM CLIP NAME:  Z693_101 (LAY5)
000435  Z693_102 V     C        01:00:04:19 01:00:07:12 01:16:25:23 01:16:28:16 
* FROM CLIP NAME:  Z693_102A (LAY3)
000436  Z693_103 V     C        01:00:04:05 01:00:06:14 01:16:28:16 01:16:31:01 
* FROM CLIP NAME:  Z693_103 (LAY15)
000437  Z693_108 V     C        01:00:04:05 01:00:08:01 01:16:31:01 01:16:34:21 
* FROM CLIP NAME:  Z693_108G (LAY5)
000438  Z693_110 V     C        01:00:04:21 01:00:06:21 01:16:34:21 01:16:36:21 
* FROM CLIP NAME:  Z693_110B (LAY3)
000439  Z688_503 V     C        01:00:06:12 01:00:08:03 01:16:36:21 01:16:38:12 
* FROM CLIP NAME:  Z688_503A (LAY4)
000440  Z688_503 V     C        01:00:07:03 01:00:08:05 01:16:38:12 01:16:39:14 
* FROM CLIP NAME:  Z688_503F (LAY5)
000441  Z688_505 V     C        01:00:04:06 01:00:05:18 01:16:39:14 01:16:41:02 
* FROM CLIP NAME:  Z688_505A (LAY7)
000442  Z688_504 V     C        01:00:05:00 01:00:06:17 01:16:41:02 01:16:42:19 
* FROM CLIP NAME:  Z688_504 (LAY10)
000443  Z693_201 V     C        01:00:04:05 01:00:06:20 01:16:42:19 01:16:45:10 
* FROM CLIP NAME:  Z693_201 (EDITORIAL10)
000444  Z693_202 V     C        01:00:04:05 01:00:04:21 01:16:45:10 01:16:46:02 
* FROM CLIP NAME:  Z693_202 (LAY4)
000445  Z693_203 V     C        01:00:04:07 01:00:04:16 01:16:46:02 01:16:46:11 
* FROM CLIP NAME:  Z693_203 (LAY3)
000446  Z693_204 V     C        01:00:04:05 01:00:05:07 01:16:46:11 01:16:47:13 
* FROM CLIP NAME:  Z693_204 (LAY6)
000447  Z693_108 V     C        01:00:06:15 01:00:07:19 01:16:47:13 01:16:48:17 
* FROM CLIP NAME:  Z693_108A (LAY5)
000448  Z693_206 V     C        01:00:04:05 01:00:05:01 01:16:48:17 01:16:49:13 
* FROM CLIP NAME:  Z693_206 (LAY10)
000449  Z693_205 V     C        01:00:05:08 01:00:06:19 01:16:49:13 01:16:51:00 
* FROM CLIP NAME:  Z693_205A (LAY5)
000450  Z688_AGR V     C        01:00:12:03 01:00:13:04 01:16:51:00 01:16:52:01 
* FROM CLIP NAME:  Z688_601 (LAY5)
000451  Z688_AGR V     C        01:00:12:11 01:00:13:01 01:16:52:01 01:16:52:15 
* FROM CLIP NAME:  Z688_602 (LAY5)
000452  Z688_603 V     C        01:00:13:04 01:00:13:22 01:16:52:15 01:16:53:09 
* FROM CLIP NAME:  Z688_603 (LAY9)
000453  Z688_604 V     C        01:00:04:23 01:00:06:18 01:16:53:09 01:16:55:04 
* FROM CLIP NAME:  Z688_604C (LAY5)
000454  Z688_651 V     C        01:00:04:06 01:00:06:14 01:16:55:04 01:16:57:12 
* FROM CLIP NAME:  Z688_651 (LAY13)
000455  Z688_653 V     C        01:00:06:01 01:00:07:01 01:16:57:12 01:16:58:12 
* FROM CLIP NAME:  Z688_653C (LAY10)
000456  Z688_653 V     C        01:00:07:15 01:00:11:03 01:16:58:12 01:17:02:00 
* FROM CLIP NAME:  Z688_653G (LAY8)
000457  Z693_401 V     C        01:00:04:12 01:00:05:07 01:17:02:00 01:17:02:19 
* FROM CLIP NAME:  Z693_401 (LAY4)
000458  Z688_653 V     C        01:00:06:16 01:00:07:06 01:17:02:19 01:17:03:09 
* FROM CLIP NAME:  Z688_653B (LAY2)
000459  Z688_652 V     C        01:00:07:09 01:00:07:21 01:17:03:09 01:17:03:21 
* FROM CLIP NAME:  Z688_652F (LAY2)
000460  Z688_654 V     C        01:00:07:07 01:00:08:08 01:17:03:21 01:17:04:22 
* FROM CLIP NAME:  Z688_654 (LAY4)
000461  Z688_AGR V     C        01:00:04:08 01:00:05:12 01:17:04:22 01:17:06:02 
* FROM CLIP NAME:  Z688_701A (LAY6)
000462  Z693_301 V     C        01:00:04:14 01:00:06:04 01:17:06:02 01:17:07:16 
* FROM CLIP NAME:  Z693_301 (LAY5)
000463  Z693_502 V     C        01:00:04:17 01:00:05:09 01:17:07:16 01:17:08:08 
* FROM CLIP NAME:  Z693_502 (LAY10)
000464  Z693_501 V     C        01:00:04:06 01:00:04:23 01:17:08:08 01:17:09:01 
* FROM CLIP NAME:  Z693_501 (LAY10)
000465  Z688_701 V     C        01:00:05:05 01:00:06:09 01:17:09:01 01:17:10:05 
* FROM CLIP NAME:  Z688_701F (LAY1)
000466  Z693_601 V     C        01:00:04:05 01:00:05:02 01:17:10:05 01:17:11:02 
* FROM CLIP NAME:  Z693_601 (LAY7)
000467  Z688_751 V     C        01:00:04:05 01:00:05:08 01:17:11:02 01:17:12:05 
* FROM CLIP NAME:  Z688_751B (LAY3)
000468  Z693_701 V     C        01:00:04:05 01:00:05:08 01:17:12:05 01:17:13:08 
* FROM CLIP NAME:  Z693_701 (LAY10)
000469  Z693_702 V     C        01:00:05:11 01:00:06:04 01:17:13:08 01:17:14:01 
* FROM CLIP NAME:  Z693_702 (LAY5)
000470  Z693_701 V     C        01:00:04:14 01:00:07:17 01:17:14:01 01:17:17:04 
* FROM CLIP NAME:  Z693_701G (LAY1)
000471  Z693_701 V     C        01:00:07:14 01:00:08:12 01:17:17:04 01:17:18:02 
* FROM CLIP NAME:  Z693_701M (LAY1)
000472  Z694_MLE V     C        01:00:13:19 01:00:15:05 01:17:18:02 01:17:19:12 
* FROM CLIP NAME:  Z694_51 (LAY2)
000473  Z694_51B V     C        01:00:14:21 01:00:15:13 01:17:19:12 01:17:20:04 
* FROM CLIP NAME:  Z694_51B (LAY2)
000474  Z694_51B V     C        01:00:15:13 01:00:16:04 01:17:20:04 01:17:20:10 
M2   Z694_51B       068.0                01:00:15:13 
* FROM CLIP NAME:  Z694_51B (LAY2) (68.00 FPS)
000475  Z694_51B V     C        01:00:16:05 01:00:17:18 01:17:20:10 01:17:21:05 
M2   Z694_51B       047.8                01:00:16:05 
* FROM CLIP NAME:  Z694_51B (LAY2) (47.75 FPS)
000476  Z694_54. V     C        01:00:16:15 01:00:18:22 01:17:21:05 01:17:22:09 
M2   Z694_54.       048.0                01:00:16:15 
* FROM CLIP NAME:  Z694_54 (LAY5) (48.00 FPS)
000477  Z694_54. V     C        01:00:18:22 01:00:18:23 01:17:22:09 01:17:22:10 
* FROM CLIP NAME:  Z694_54 (LAY5)
000478  Z694_MLE V     C        01:00:17:16 01:00:18:15 01:17:22:10 01:17:23:04 
M2   Z694_MLE       029.9                01:00:17:16 
* FROM CLIP NAME:  Z694_56C (LAY2) (29.87 FPS)
000479  Z694_MLE V     C        01:00:18:15 01:00:19:08 01:17:23:04 01:17:23:16 
M2   Z694_MLE       035.1                01:00:18:15 
* FROM CLIP NAME:  Z694_56C (LAY2) (35.08 FPS)
000480  Z694_MLE V     C        01:00:18:19 01:00:21:11 01:17:23:16 01:17:25:11 
M2   Z694_MLE       036.2                01:00:18:19 
* FROM CLIP NAME:  Z694_56B (LAY5) (36.21 FPS)
000481  Z694_56D V     C        01:00:21:09 01:00:23:00 01:17:25:11 01:17:27:02 
* FROM CLIP NAME:  Z694_56D (LAY4)
000482  Z694_MLE V     C        01:00:17:07 01:00:18:09 01:17:27:02 01:17:28:04 
* FROM CLIP NAME:  Z694_151 (LAY3)
000483  Z694_MLE V     C        01:00:18:09 01:00:19:01 01:17:28:04 01:17:28:13 
M2   Z694_MLE       045.3                01:00:18:09 
* FROM CLIP NAME:  Z694_151 (LAY3) (45.33 FPS)
000484  Z694_MLE V     C        01:00:19:01 01:00:20:01 01:17:28:13 01:17:29:13 
* FROM CLIP NAME:  Z694_151 (LAY3)
000485  Z694_154 V     C        01:00:21:12 01:00:23:21 01:17:29:13 01:17:31:22 
* FROM CLIP NAME:  Z694_154 (LAY3)
000486  Z694_MLE V     C        01:00:20:10 01:00:22:22 01:17:31:22 01:17:34:10 
* FROM CLIP NAME:  Z694_152A (LAY2)
000487  Z694_MLE V     C        01:00:22:22 01:00:25:09 01:17:34:10 01:17:36:21 
* FROM CLIP NAME:  Z694_153 (LAY2)
000488  Z694_SHI V     C        01:00:25:01 01:00:33:09 01:17:36:21 01:17:41:02 
M2   Z694_SHI       047.9                01:00:25:01 
* FROM CLIP NAME:  Z694_ZZZ_1T (FX7) (47.88 FPS)
000489  DEVFX_HY V     C        01:00:10:04 01:00:12:13 01:17:41:02 01:17:43:11
* FROM CLIP NAME:  DEVFX_ZZZ_3 (FX2)
000490  Z694_201 V     C        01:00:04:11 01:00:06:10 01:17:43:11 01:17:45:10 
* FROM CLIP NAME:  Z694_201C (LAY2)
000491  Z694_202 V     C        01:00:04:15 01:00:13:02 01:17:45:10 01:17:53:21 
* FROM CLIP NAME:  Z694_202 (LAY7)
000492  Z694_252 V     C        01:00:04:05 01:00:07:01 01:17:53:21 01:17:56:17 
* FROM CLIP NAME:  Z694_252A (LAY2)
000493  Z694_204 V     C        01:00:04:05 01:00:06:19 01:17:56:17 01:17:59:07 
* FROM CLIP NAME:  Z694_204A (LAY2)
000494  Z694_301 V     C        01:00:04:05 01:00:10:22 01:17:59:07 01:18:06:00 
* FROM CLIP NAME:  Z694_301H (LAY1)
000495  Z694_301 V     C        01:00:11:21 01:00:13:05 01:18:06:00 01:18:07:08 
* FROM CLIP NAME:  Z694_301H (LAY1)
000496  Z694_302 V     C        01:00:10:22 01:00:14:19 01:18:07:08 01:18:11:05 
* FROM CLIP NAME:  Z694_302E (LAY2)
000497  Z694_305 V     C        01:00:15:15 01:00:18:00 01:18:11:05 01:18:13:14 
* FROM CLIP NAME:  Z694_305E (LAY1)
000498  Z694_305 V     C        01:00:18:09 01:00:19:17 01:18:13:14 01:18:14:22 
* FROM CLIP NAME:  Z694_305F (LAY4)
000499  Z694_305 V     C        01:00:15:15 01:00:18:21 01:18:14:22 01:18:18:04 
* FROM CLIP NAME:  Z694_305J (LAY4)
000500  Z694_306 V     C        01:00:20:08 01:00:29:09 01:18:18:04 01:18:27:05 
* FROM CLIP NAME:  Z694_306D (LAY2)
000501  Z694_307 V     C        01:00:26:05 01:00:26:06 01:18:27:05 01:18:28:03 
M2   Z694_307       000.0                01:00:26:05 
* FROM CLIP NAME:  Z694_307 (LAY11) FF 
* * FREEZE FRAME
000502  Z694_307 V     C        01:00:26:05 01:00:30:23 01:18:28:03 01:18:32:21 
* FROM CLIP NAME:  Z694_307 (LAY11)
000503  Z694_307 V     C        01:00:31:07 01:00:32:18 01:18:32:21 01:18:34:08 
* FROM CLIP NAME:  Z694_307 (LAY11)
000504  Z694_307 V     C        01:00:32:17 01:00:32:18 01:18:34:08 01:18:35:00 
M2   Z694_307       000.0                01:00:32:17 
* FROM CLIP NAME:  Z694_307 (LAY11) FF 
* * FREEZE FRAME
000505  Z694_307 V     C        01:00:31:14 01:00:36:01 01:18:35:00 01:18:39:11 
* FROM CLIP NAME:  Z694_307J (LAY2)
000506  Z694_307 V     C        01:00:35:10 01:00:36:23 01:18:39:11 01:18:41:00 
* FROM CLIP NAME:  Z694_307K (LAY5)
000507  Z694_307 V     C        01:00:37:11 01:00:38:20 01:18:41:00 01:18:42:09 
* FROM CLIP NAME:  Z694_307K (LAY5)
000508  Z694_307 V     C        01:00:38:20 01:00:38:21 01:18:42:09 01:18:42:20 
M2   Z694_307       000.0                01:00:38:20 
* FROM CLIP NAME:  Z694_307K (LAY5) FF 
* * FREEZE FRAME
000509  Z694_307 V     C        01:00:38:11 01:00:38:12 01:18:42:20 01:18:44:02 
M2   Z694_307       000.0                01:00:38:11 
* FROM CLIP NAME:  Z694_307M (LAY2) FF 
* * FREEZE FRAME
000510  Z694_307 V     C        01:00:38:12 01:00:38:21 01:18:44:02 01:18:44:11 
* FROM CLIP NAME:  Z694_307M (LAY2)
000511  Z694_307 V     C        01:00:38:21 01:00:38:22 01:18:44:11 01:18:45:00 
M2   Z694_307       000.0                01:00:38:21 
* FROM CLIP NAME:  Z694_307M (LAY2) FF 
* * FREEZE FRAME
000512  Z694_307 V     C        01:00:38:22 01:00:39:09 01:18:45:00 01:18:45:11 
* FROM CLIP NAME:  Z694_307M (LAY2)
000513  Z694_307 V     C        01:00:40:05 01:00:40:16 01:18:45:11 01:18:45:22 
* FROM CLIP NAME:  Z694_307T (LAY1)
000514  Z694_307 V     C        01:00:43:06 01:00:44:13 01:18:45:22 01:18:47:05 
* FROM CLIP NAME:  Z694_307T (LAY1)
000515  Z700_101 V     C        01:00:04:05 01:00:06:20 01:18:47:05 01:18:49:20 
* FROM CLIP NAME:  Z700_101 (LAY6)
000516  Z700_102 V     C        01:00:06:21 01:00:20:05 01:18:49:20 01:19:03:04 
* FROM CLIP NAME:  Z700_102C (LAY2)
000517  Z700_201 V     C        01:00:04:05 01:00:06:02 01:19:03:04 01:19:05:01 
* FROM CLIP NAME:  Z700_201E (ANIM4)
000518  Z700_203 V     C        01:00:04:23 01:00:07:07 01:19:05:01 01:19:07:09 
* FROM CLIP NAME:  Z700_203C (ANIM6)
000519  Z700_202 V     C        01:00:07:12 01:00:10:06 01:19:07:09 01:19:10:03 
* FROM CLIP NAME:  Z700_202B (ANIM11)
000520  Z700_203 V     C        01:00:11:19 01:00:16:04 01:19:10:03 01:19:14:12 
* FROM CLIP NAME:  Z700_203B (ANIM8)
000521  Z700_204 V     C        01:00:16:15 01:00:18:03 01:19:14:12 01:19:16:00 
* FROM CLIP NAME:  Z700_204 (ANIM9)
000522  Z700_205 V     C        01:00:17:11 01:00:18:14 01:19:16:00 01:19:17:03 
* FROM CLIP NAME:  Z700_205B (ANIM8)
000523  Z700_206 V     C        01:00:18:10 01:00:23:11 01:19:17:03 01:19:22:04 
* FROM CLIP NAME:  Z700_206 (ANIM7)
000524  Z700_303 V     C        01:00:17:13 01:00:20:21 01:19:22:04 01:19:25:12 
* FROM CLIP NAME:  Z700_303F (LAY7)
000525  Z700_303 V     C        01:00:06:04 01:00:07:18 01:19:25:12 01:19:27:02 
* FROM CLIP NAME:  Z700_303B (LAY1)
000526  Z700_303 V     C        01:00:07:18 01:00:10:03 01:19:27:02 01:19:28:05 
M2   Z700_303       052.6                01:00:07:18 
* FROM CLIP NAME:  Z700_303B (LAY1)
000527  Z700_304 V     C        01:00:04:18 01:00:06:23 01:19:28:05 01:19:30:10 
* FROM CLIP NAME:  Z700_304 (LAY6)
000528  Z700_305 V     C        01:00:04:05 01:00:07:09 01:19:30:10 01:19:33:14 
* FROM CLIP NAME:  Z700_305A (LAY2)
000529  Z700_306 V     C        01:00:07:08 01:00:13:00 01:19:33:14 01:19:39:06 
* FROM CLIP NAME:  Z700_306A (ANIM13)
000530  Z700_307 V     C        01:00:13:04 01:00:15:05 01:19:39:06 01:19:41:07 
* FROM CLIP NAME:  Z700_307 (ANIM10)
000531  Z700_308 V     C        01:00:16:01 01:00:19:08 01:19:41:07 01:19:44:14 
* FROM CLIP NAME:  Z700_308 (ANIM16)
000532  Z700_309 V     C        01:00:19:20 01:00:24:19 01:19:44:14 01:19:49:13 
* FROM CLIP NAME:  Z700_309A (ANIM7)
000533  Z700_310 V     C        01:00:24:00 01:00:25:14 01:19:49:13 01:19:51:03 
* FROM CLIP NAME:  Z700_310A (ANIM11)
000534  Z700_311 V     C        01:00:25:21 01:00:37:22 01:19:51:03 01:20:03:04 
* FROM CLIP NAME:  Z700_311A (ANIM8)
000535  Z700_312 V     C        01:00:38:01 01:00:40:08 01:20:03:04 01:20:05:11 
* FROM CLIP NAME:  Z700_312A (ANIM6)
000536  Z700_313 V     C        01:00:40:12 01:00:43:11 01:20:05:11 01:20:08:10 
* FROM CLIP NAME:  Z700_313 (LAY8)
000537  Z700_314 V     C        01:00:43:13 01:00:45:05 01:20:08:10 01:20:10:02 
* FROM CLIP NAME:  Z700_314 (ANIM11)
000538  Z700_315 V     C        01:00:44:19 01:00:47:18 01:20:10:02 01:20:13:01 
* FROM CLIP NAME:  Z700_315 (ANIM9)
000539  Z700_316 V     C        01:00:47:04 01:00:49:04 01:20:13:01 01:20:15:01 
* FROM CLIP NAME:  Z700_316 (ANIM11)
000540  Z700_317 V     C        01:00:48:00 01:00:53:13 01:20:15:01 01:20:20:14 
* FROM CLIP NAME:  Z700_317E (ANIM10)
000541  Z700_318 V     C        01:00:55:21 01:01:03:06 01:20:20:14 01:20:27:23 
* FROM CLIP NAME:  Z700_318 (ANIM14)
000542  Z700_401 V     C        01:00:04:08 01:00:09:13 01:20:27:23 01:20:33:04 
* FROM CLIP NAME:  Z700_401 (ANIM20)
000543  Z700_402 V     C        01:00:09:05 01:00:09:19 01:20:33:04 01:20:33:18 
* FROM CLIP NAME:  Z700_402 (PHASE114)
000544  Z700_403 V     C        01:00:10:12 01:00:12:03 01:20:33:18 01:20:35:09 
* FROM CLIP NAME:  Z700_403 (LAY6)
000545  Z700_404 V     C        01:00:10:21 01:00:12:11 01:20:35:09 01:20:36:23 
* FROM CLIP NAME:  Z700_404B (LAY3)
000546  Z700_405 V     C        01:00:13:05 01:00:14:21 01:20:36:23 01:20:38:15 
* FROM CLIP NAME:  Z700_405B (LAY1)
000547  700_EPIL V     C        01:00:00:01 01:00:15:16 01:20:38:15 01:20:54:06 
* FROM CLIP NAME:  ZZZ_700_ENDLOGO (STORY2)
000548  700_EPIL V     C        01:00:00:01 01:00:09:13 01:20:54:06 01:21:03:18 
* FROM CLIP NAME:  LG_BLACK239 (REN2)
