
TITLE: SQ0002_A2
FCM: NON-DROP FRAME
001  SC00.JPG V     C        01:00:00:00 01:00:06:11 00:00:00:00 00:00:06:11
* FROM CLIP NAME:  sq001_s001
* sq001_s001
002  SC00.JPG V     C        01:00:00:00 01:00:08:00 00:00:06:11 00:00:14:11
* FROM CLIP NAME:  sq001_s002
* sq001_s002
003  SC00.JPG V     C        01:00:00:00 01:00:03:11 00:00:14:11 00:00:17:22
* FROM CLIP NAME:  sq001_s003
* sq001_s003
004  SC00.JPG V     C        01:00:00:00 01:00:01:24 00:00:17:22 00:00:19:19
* FROM CLIP NAME:  sq001_s004
* sq001_s004
005  SC00.JPG V     C        01:00:00:00 01:00:01:06 00:00:19:21 00:00:22:02
* FROM CLIP NAME:  sq001_s005
* sq001_s005
006  SC00.JPG V     C        01:00:00:00 01:00:01:01 00:00:22:02 00:00:23:03
* FROM CLIP NAME:  sq001_s006
* sq001_s006
007  SC00.JPG V     C        01:00:00:00 01:00:02:19 00:00:23:03 00:00:25:22
* FROM CLIP NAME:  sq001_s007
* sq001_s007
008  SC00.JPG V     C        01:00:00:00 01:00:02:04 00:00:25:22 00:00:28:01
* FROM CLIP NAME:  sq001_s008
* sq001_s008
009  SC00.JPG V     C        01:00:00:00 01:00:02:01 00:00:28:01 00:00:30:06
* FROM CLIP NAME:  sq001_s009
* sq001_s009
010  SC00.JPG V     C        01:00:00:00 01:00:03:20 00:00:30:06 00:00:33:22
* FROM CLIP NAME:  sq001_s0010
* sq001_s0010
011  SC00.JPG V     C        01:00:00:00 01:00:02:24 00:00:33:22 00:00:36:21
* FROM CLIP NAME:  sq001_s0011
* sq001_s0011
012  SC00.JPG V     C        01:00:00:00 01:00:08:21 00:00:36:21 00:00:45:17
* FROM CLIP NAME:  sq001_s0012
* sq001_s0012
013  SC00.JPG V     C        01:00:00:00 01:00:02:00 00:00:45:17 00:00:47:17
* FROM CLIP NAME:  sq001_s0013
* sq001_s0013
014  SC00.JPG V     C        01:00:00:00 01:00:04:19 00:00:47:17 00:00:52:11
* FROM CLIP NAME:  sq001_s0020
* sq001_s0014
015  SC00.JPG V     C        01:00:00:00 01:00:08:10 00:00:52:11 00:01:00:21
* FROM CLIP NAME:  sq001_s0015
* sq001_s0015
016  SC00.JPG V     C        01:00:00:00 01:00:00:15 00:01:00:21 00:01:01:11
* FROM CLIP NAME:  sq001_s0016
* sq001_s0016
017  SC00.JPG V     C        01:00:00:00 01:00:00:11 00:01:01:11 00:01:01:22
* FROM CLIP NAME:  sq001_s0017
* sq001_s0017
018  SC00.JPG V     C        01:00:00:00 01:00:00:14 00:01:01:22 00:01:02:11
* FROM CLIP NAME:  sq001_s0018
* sq001_s0018
019  SC00.JPG V     C        01:00:00:00 01:00:06:15 00:01:02:11 00:01:09:01
* FROM CLIP NAME:  sq001_s0019
* sq001_s0019
020  SC00.JPG V     C        01:00:00:00 01:00:02:13 00:01:09:01 00:01:11:14
* FROM CLIP NAME:  sq001_s0020
* sq001_s0020
