TITLE:   SAMPLE_EDL 
FCM: NON-DROP FRAME
000001  A001C001_220201_ABCD             V     C        22:39:39:09 22:39:45:11 01:00:00:00 01:00:06:02 
*FROM CLIP NAME:  VFX_NAME_01 
*ASC_SOP (0.9127 0.9127 0.9127)(0.0245 0.0245 0.0245)(1.0100 1.1200 0.91000)
*ASC_SAT 1.0
000002  A001C002_220201_ABCD             V     C        22:39:40:01 22:39:45:06 01:00:06:02 01:00:11:07 
*FROM CLIP NAME:  VFX_NAME_02 
*ASC_SOP (0.9127 0.9127 0.9127)(0.0245 0.0245 0.0245)(1.0000 1.0000 1.0000) 
*ASC_SAT 0.95
000003  A001C003_220201_ABCD             V     C        12:29:52:11 12:30:20:06 01:00:11:07 01:00:39:02 
*FROM CLIP NAME:  VFX_NAME_03 
*ASC_SOP (0.9127 0.9127 0.9127)(0.0245 0.0245 0.0245)(1.0000 1.0000 1.0000) 
*ASC_SAT 0.9
000004  A001C004_220201_ABCD             V     C        19:06:15:00 19:06:24:17 01:00:39:02 01:00:48:19 
*FROM CLIP NAME:  VFX_NAME_04 
*ASC_SOP (0.9127 0.9127 0.9127)(0.0245 0.0245 0.0245)(1.0000 1.0000 1.0000) 
*ASC_SAT 0.8
000005  A001C005_220201_ABCD             V     C        12:29:47:00 12:30:21:01 01:00:48:19 01:01:22:20 
*FROM CLIP NAME:  VFX_NAME_05 
*ASC_SOP (0.832 0.798 0.964)(0.0423 0.0345 0.0352)(1.0000 1.0000 1.0000) 
*ASC_SAT 0.7
000006  A001C006_220201_ABCD             V     C        22:23:15:03 22:23:19:05 01:01:22:20 01:01:26:22 
*FROM CLIP NAME:  VFX_NAME_06 
*ASC_SOP (0.832 0.798 0.964)(0.0423 0.0345 0.0352)(1.0000 1.0000 1.0000) 
*ASC_SAT 0.66
000007  A001C007_220201_ABCD             V     C        20:36:55:22 20:36:58:20 01:01:26:22 01:01:29:20 
*FROM CLIP NAME:  VFX_NAME_07 
*ASC_SOP (0.832 0.798 0.964)(0.0423 0.0345 0.0352)(1.0000 1.0000 1.0000) 
*ASC_SAT 0.5
000008  A001C008_220201_ABCD             V     C        19:07:00:02 19:07:32:02 01:01:29:20 01:02:01:20
*FROM CLIP NAME:  VFX_NAME_08
*ASC_SOP (0.832 0.798 0.964)(0.0423 0.0345 0.0352)(1.0000 1.0000 1.0000)
*ASC_SAT 0.4
000009  A001C009_220201_ABCD             V     C        19:06:15:00 19:06:23:23 01:02:01:20 01:02:10:18
*FROM CLIP NAME:  VFX_NAME_09
*ASC_SOP (0.832 0.798 0.964)(0.0423 0.0345 0.0352)(1.0000 1.0000 1.0000) 
*ASC_SAT 0.3
000010  A001C010_220201_ABCD             V     C        18:50:34:03 18:50:39:03 01:02:10:18 01:02:15:18
*FROM CLIP NAME:  VFX_NAME_10
*ASC_SOP (0.832 0.798 0.964)(0.0423 0.0345 0.0352)(1.0000 1.0000 1.0000) 
*ASC_SAT 0.2