TITLE: sample_cdl_edl
FCM: NON-DROP FRAME

001  A001C001_220201_ABCD V     C        22:39:39:09 22:39:45:11 01:00:00:00 01:00:06:02  
* FROM CLIP NAME: VFX_NAME_01

002  A001C002_220201_ABCD V     C        22:39:40:01 22:39:45:06 01:00:08:16 01:00:13:21  
* FROM CLIP NAME: VFX_NAME_02

003  A001C003_220201_ABCD V     C        12:29:52:11 12:30:20:06 01:00:17:15 01:00:45:10  
* FROM CLIP NAME: VFX_NAME_03

004  A001C004_220201_ABCD V     C        19:06:15:00 19:06:24:17 01:00:49:22 01:00:59:14  
* FROM CLIP NAME: VFX_NAME_04

005  A001C005_220201_ABCD V     C        12:29:47:00 12:30:21:01 01:00:59:14 01:01:33:15  
* FROM CLIP NAME: VFX_NAME_05

006  A001C006_220201_ABCD V     C        22:23:15:03 22:23:19:05 01:01:33:15 01:01:37:17  
* FROM CLIP NAME: VFX_NAME_06

007  A001C007_220201_ABCD V     C        20:36:55:22 20:36:58:20 01:01:41:07 01:01:44:05  
* FROM CLIP NAME: VFX_NAME_07

008  A001C008_220201_ABCD V     C        19:07:00:02 19:07:32:02 01:01:49:21 01:02:21:21  
* FROM CLIP NAME: VFX_NAME_08

009  A001C009_220201_ABCD V     C        19:06:15:00 19:06:23:23 01:02:24:15 01:02:33:13  
* FROM CLIP NAME: VFX_NAME_09

010  A001C010_220201_ABCD V     C        18:50:34:03 18:50:39:03 01:02:37:20 01:02:42:20  
* FROM CLIP NAME: VFX_NAME_10

