<?xml version="1.0" encoding="UTF-8" standalone="no"?>
<!DOCTYPE svg PUBLIC "-//W3C//DTD SVG 1.1//EN" "http://www.w3.org/Graphics/SVG/1.1/DTD/svg11.dtd">
<svg width="100%" height="100%" viewBox="0 0 1740 247" version="1.1" xmlns="http://www.w3.org/2000/svg" xmlns:xlink="http://www.w3.org/1999/xlink" xml:space="preserve" xmlns:serif="http://www.serif.com/" style="fill-rule:evenodd;clip-rule:evenodd;stroke-linejoin:round;stroke-miterlimit:2;">
    <g>
        <g transform="matrix(4.16667,0,0,4.16667,-3301.29,-2160.86)">
            <g transform="matrix(1,0,0,1,831.921,519.023)">
                <path d="M0,10.642L-9.435,1.481C-10.146,0.789 -9.657,-0.416 -8.666,-0.416L10.203,-0.416C11.194,-0.416 11.684,0.789 10.973,1.481L1.538,10.642C1.109,11.058 0.428,11.058 0,10.642" style="fill:rgb(242,165,33);fill-rule:nonzero;"/>
            </g>
            <g transform="matrix(1,0,0,1,0,283.798)">
                <rect x="814.307" y="249.508" width="16.507" height="9.186" style="fill:rgb(0,127,75);"/>
            </g>
            <g transform="matrix(1,0,0,1,0,283.798)">
                <rect x="834.719" y="249.508" width="39.759" height="9.186" style="fill:rgb(0,127,75);"/>
            </g>
            <g transform="matrix(1,0,0,1,0,354.924)">
                <rect x="834.719" y="214.111" width="16.951" height="8.854" style="fill:rgb(0,127,75);"/>
            </g>
            <g transform="matrix(-1,0,0,1,1623.12,354.924)">
                <rect x="792.309" y="214.111" width="38.504" height="8.854" style="fill:rgb(0,127,75);"/>
            </g>
            <g transform="matrix(1,0,0,1,0,319.528)">
                <rect x="834.719" y="226.87" width="39.759" height="18.732" style="fill:rgb(145,199,83);"/>
            </g>
            <g transform="matrix(-1,0,0,1,1623.31,319.526)">
                <rect x="792.493" y="226.871" width="38.32" height="18.732" style="fill:rgb(145,199,83);"/>
            </g>
        </g>
        <g transform="matrix(4.16667,0,0,4.16667,-3301.29,-2160.86)">
            <g transform="matrix(1,0,0,1,918.303,551.445)">
                <path d="M0,0.161L0,0.081C0,-6.277 -4.639,-11.477 -11.038,-11.477C-17.437,-11.477 -21.996,-6.358 -21.996,0.001L-21.996,0.081C-21.996,6.44 -17.356,11.64 -10.958,11.64C-4.559,11.64 0,6.52 0,0.161M-25.275,0.161L-25.275,0.081C-25.275,-7.638 -19.477,-14.397 -10.958,-14.397C-2.439,-14.397 3.279,-7.717 3.279,0.001C3.319,0.041 3.319,0.041 3.279,0.081C3.279,7.8 -2.52,14.558 -11.038,14.558C-19.557,14.558 -25.275,7.88 -25.275,0.161" style="fill:rgb(208,209,211);fill-rule:nonzero;"/>
            </g>
            <g transform="matrix(1,0,0,1,941.464,561.084)">
                <path d="M0,-5.839L0,-5.919C0,-10.798 -3.359,-13.917 -7.278,-13.917C-11.118,-13.917 -14.757,-10.678 -14.757,-5.959L-14.757,-5.879C-14.757,-1.08 -11.118,2.12 -7.278,2.12C-3.279,2.12 0,-0.84 0,-5.839M-17.717,-16.237L-14.638,-16.237L-14.638,-12.078C-12.958,-14.558 -10.518,-16.677 -6.719,-16.677C-1.76,-16.677 3.159,-12.758 3.159,-5.959L3.159,-5.879C3.159,0.88 -1.72,4.879 -6.719,4.879C-10.558,4.879 -13.038,2.8 -14.638,0.48L-14.638,10.838L-17.717,10.838L-17.717,-16.237Z" style="fill:rgb(208,209,211);fill-rule:nonzero;"/>
            </g>
            <g transform="matrix(1,0,0,1,963.063,556.444)">
                <path d="M0,-2.478C-0.359,-6.238 -2.52,-9.437 -6.599,-9.437C-10.158,-9.437 -12.878,-6.478 -13.317,-2.478L0,-2.478ZM-6.039,6.88C-3.199,6.88 -1.199,5.72 0.48,3.96L2.399,5.68C0.32,8 -2.199,9.559 -6.119,9.559C-11.798,9.559 -16.437,5.201 -16.437,-1.239C-16.437,-7.238 -12.237,-12.037 -6.519,-12.037C-0.399,-12.037 3.12,-7.158 3.12,-1.079C3.12,-0.798 3.12,-0.479 3.08,0.001L-13.317,0.001C-12.878,4.361 -9.678,6.88 -6.039,6.88" style="fill:rgb(208,209,211);fill-rule:nonzero;"/>
            </g>
            <g transform="matrix(1,0,0,1,968.386,565.085)">
                <path d="M0,-20.238L3.079,-20.238L3.079,-16.638C4.439,-18.878 6.599,-20.677 10.158,-20.677C15.157,-20.677 18.077,-17.318 18.077,-12.399L18.077,0.439L14.997,0.439L14.997,-11.639C14.997,-15.478 12.918,-17.879 9.278,-17.879C5.719,-17.879 3.079,-15.279 3.079,-11.399L3.079,0.439L0,0.439L0,-20.238Z" style="fill:rgb(208,209,211);fill-rule:nonzero;"/>
            </g>
            <g transform="matrix(1,0,0,1,997.305,558.724)">
                <path d="M0,-14.397L-8.398,-14.397L-8.398,-21.196L16.157,-21.196L16.157,-14.397L7.759,-14.397L7.759,6.799L0,6.799L0,-14.397Z" style="fill:rgb(208,209,211);fill-rule:nonzero;"/>
            </g>
            <g transform="matrix(1,0,0,1,0,309.852)">
                <path d="M1016.59,234.035L1024.18,234.035L1024.18,255.672L1016.59,255.672L1016.59,234.035ZM1016.43,226.476L1024.34,226.476L1024.34,232.076L1016.43,232.076L1016.43,226.476Z" style="fill:rgb(208,209,211);fill-rule:nonzero;"/>
            </g>
            <g transform="matrix(1,0,0,1,1028.43,565.045)">
                <path d="M0,-21.158L7.599,-21.158L7.599,-18.198C8.998,-19.998 10.998,-21.637 14.037,-21.637C16.917,-21.637 19.116,-20.358 20.276,-18.118C22.156,-20.278 24.355,-21.637 27.515,-21.637C32.114,-21.637 34.914,-18.758 34.914,-13.719L34.914,0.479L27.315,0.479L27.315,-11.279C27.315,-13.638 26.155,-14.879 24.355,-14.879C22.556,-14.879 21.236,-13.638 21.236,-11.279L21.236,0.479L13.638,0.479L13.638,-11.279C13.638,-13.638 12.478,-14.879 10.678,-14.879C8.878,-14.879 7.599,-13.638 7.599,-11.279L7.599,0.479L0,0.479L0,-21.158Z" style="fill:rgb(208,209,211);fill-rule:nonzero;"/>
            </g>
            <g transform="matrix(1,0,0,1,1081.1,556.524)">
                <path d="M0,-3.598C-0.279,-5.997 -1.68,-7.518 -3.759,-7.518C-5.759,-7.518 -7.118,-5.957 -7.519,-3.598L0,-3.598ZM-14.717,-1.718L-14.717,-1.798C-14.717,-8.118 -10.198,-13.117 -3.799,-13.117C3.68,-13.117 7.119,-7.637 7.119,-1.279C7.119,-0.799 7.119,-0.239 7.079,0.281L-7.398,0.281C-6.799,2.64 -5.079,3.84 -2.719,3.84C-0.92,3.84 0.521,3.161 2.08,1.641L6.279,5.121C4.199,7.759 1.2,9.519 -3.119,9.519C-9.918,9.519 -14.717,5.001 -14.717,-1.718" style="fill:rgb(208,209,211);fill-rule:nonzero;"/>
            </g>
            <g transform="matrix(1,0,0,1,0,309.851)">
                <rect x="1091.62" y="226.477" width="7.6" height="29.195" style="fill:rgb(208,209,211);"/>
            </g>
            <g transform="matrix(1,0,0,1,0,309.852)">
                <path d="M1103.62,234.035L1111.22,234.035L1111.22,255.672L1103.62,255.672L1103.62,234.035ZM1103.46,226.476L1111.38,226.476L1111.38,232.076L1103.46,232.076L1103.46,226.476Z" style="fill:rgb(208,209,211);fill-rule:nonzero;"/>
            </g>
            <g transform="matrix(1,0,0,1,1115.46,565.045)">
                <path d="M0,-21.158L7.599,-21.158L7.599,-18.118C8.998,-19.918 10.998,-21.637 14.077,-21.637C18.677,-21.637 21.436,-18.598 21.436,-13.679L21.436,0.479L13.837,0.479L13.837,-11.239C13.837,-13.599 12.598,-14.879 10.798,-14.879C8.958,-14.879 7.599,-13.599 7.599,-11.239L7.599,0.479L0,0.479L0,-21.158Z" style="fill:rgb(208,209,211);fill-rule:nonzero;"/>
            </g>
            <g transform="matrix(1,0,0,1,1154.66,556.524)">
                <path d="M0,-3.598C-0.279,-5.997 -1.68,-7.518 -3.759,-7.518C-5.759,-7.518 -7.118,-5.957 -7.519,-3.598L0,-3.598ZM-14.717,-1.718L-14.717,-1.798C-14.717,-8.118 -10.198,-13.117 -3.799,-13.117C3.68,-13.117 7.119,-7.637 7.119,-1.279C7.119,-0.799 7.119,-0.239 7.079,0.281L-7.398,0.281C-6.799,2.64 -5.079,3.84 -2.719,3.84C-0.92,3.84 0.521,3.161 2.08,1.641L6.279,5.121C4.199,7.759 1.2,9.519 -3.119,9.519C-9.918,9.519 -14.717,5.001 -14.717,-1.718" style="fill:rgb(208,209,211);fill-rule:nonzero;"/>
            </g>
            <g transform="matrix(1,0,0,1,0,311.051)">
                <rect x="1166.42" y="226.477" width="3.159" height="27.995" style="fill:rgb(208,209,211);"/>
            </g>
            <g transform="matrix(1,0,0,1,1198.92,551.445)">
                <path d="M0,0.161L0,0.081C0,-6.277 -4.639,-11.477 -11.038,-11.477C-17.437,-11.477 -21.996,-6.358 -21.996,0.001L-21.996,0.081C-21.996,6.44 -17.356,11.64 -10.958,11.64C-4.559,11.64 0,6.52 0,0.161M-25.275,0.161L-25.275,0.081C-25.275,-7.638 -19.477,-14.397 -10.958,-14.397C-2.439,-14.397 3.279,-7.717 3.279,0.001C3.319,0.041 3.319,0.041 3.279,0.081C3.279,7.8 -2.52,14.558 -11.038,14.558C-19.557,14.558 -25.275,7.88 -25.275,0.161" style="fill:rgb(208,209,211);fill-rule:nonzero;"/>
            </g>
        </g>
    </g>
</svg>
